<?xml version="1.0" standalone="no"?>
<!DOCTYPE svg PUBLIC "-//W3C//DTD SVG 20010904//EN"
 "http://www.w3.org/TR/2001/REC-SVG-20010904/DTD/svg10.dtd">
<svg version="1.0" xmlns="http://www.w3.org/2000/svg"
 width="16.000000pt" height="16.000000pt" viewBox="0 0 16.000000 16.000000"
 preserveAspectRatio="xMidYMid meet">
<metadata>
Created by potrace 1.11, written by Peter Selinger 2001-2013
</metadata>
<g transform="translate(0.000000,16.000000) scale(0.006154,-0.006154)"
fill="#000000" stroke="none">
<path d="M1939 2202 c-11 -18 -20 -20 -54 -16 -32 5 -61 -3 -153 -41 -280
-114 -647 -218 -889 -251 -26 -3 -56 -8 -65 -9 -22 -5 -172 -15 -273 -20 -73
-3 -81 -5 -102 -32 -31 -38 -70 -119 -78 -165 -4 -21 -11 -38 -15 -38 -5 0
-25 -15 -44 -34 -35 -32 -36 -36 -36 -107 0 -84 27 -155 63 -165 15 -3 30 -23
45 -59 30 -68 83 -121 143 -142 26 -10 54 -22 62 -28 38 -28 63 -358 42 -550
-10 -96 2 -108 123 -111 97 -2 181 -15 291 -45 90 -24 124 -19 144 23 28 58
15 74 -153 184 -146 96 -170 107 -204 94 -22 -8 -22 -6 -23 74 -2 94 -11 190
-24 260 -15 80 -16 77 53 74 l63 -3 13 -55 c20 -86 22 -228 3 -261 -12 -22
-13 -32 -3 -53 15 -33 38 -42 127 -49 84 -7 94 -9 170 -37 89 -32 97 -32 133
-11 26 17 32 27 32 54 0 28 -10 45 -61 95 -93 92 -132 116 -187 115 l-47 -1
-3 61 c-1 34 -6 76 -11 94 -10 36 -2 48 27 39 9 -3 35 -7 57 -11 212 -30 424
-102 705 -239 114 -56 143 -66 188 -66 164 0 258 136 318 460 11 59 13 401 4
468 -14 90 -20 123 -27 157 -4 17 -7 32 -8 35 -8 43 -55 152 -84 197 -58 89
-107 121 -196 130 -46 5 -55 3 -66 -15z m50 -138 c24 -8 52 -25 63 -37 50 -59
99 -212 116 -372 10 -82 8 -336 -2 -390 -3 -16 -8 -43 -11 -60 -9 -54 -13 -69
-30 -120 -39 -115 -94 -178 -140 -157 -39 18 -99 144 -119 252 -3 14 -9 46
-14 72 -10 51 -8 58 18 58 36 0 118 52 144 91 48 71 32 172 -39 245 -19 20
-93 54 -116 54 -20 0 -21 3 -15 58 13 117 74 322 95 322 3 0 26 -7 50 -16z
m-259 -70 c0 -3 -9 -49 -20 -102 -49 -245 -45 -537 11 -766 10 -43 19 -80 19
-82 0 -2 -35 12 -77 30 -146 62 -349 122 -493 147 -100 16 -103 17 -265 24
-159 8 -174 14 -215 86 -20 37 -25 59 -26 139 -3 117 12 176 59 233 36 44 36
44 139 60 136 22 145 24 273 54 201 46 441 120 545 166 39 17 50 20 50 11z"/>
</g>
</svg>
