<svg xmlns="http://www.w3.org/2000/svg" xmlns:xlink="http://www.w3.org/1999/xlink" viewBox="0 0 504 504"><defs><style>.a{fill:none;}.b{clip-path:url(#a);}.c{clip-path:url(#b);}.d{fill:#00a6e9;}.e{clip-path:url(#c);}.f{clip-path:url(#d);}.g{clip-path:url(#e);}.h{clip-path:url(#f);}.i{clip-path:url(#g);}.j{clip-path:url(#h);}.k{clip-path:url(#i);}.l{clip-path:url(#k);}.m{clip-path:url(#l);}.n{clip-path:url(#m);}.o{clip-path:url(#n);}.p{clip-path:url(#o);}.q{clip-path:url(#p);}.r{clip-path:url(#q);}.s{clip-path:url(#r);}</style><clipPath id="a"><rect class="a" x="195.92" y="80.06" width="29.49" height="38.53" transform="translate(-2.09 4.55) rotate(-1.23)"/></clipPath><clipPath id="b"><rect class="a" x="195.92" y="80.06" width="29.49" height="38.53" transform="translate(-2.09 4.55) rotate(-1.23)"/></clipPath><clipPath id="c"><rect class="a" x="232.67" y="84.51" width="38.79" height="29.62" transform="translate(135.68 343.98) rotate(-86.07)"/></clipPath><clipPath id="d"><rect class="a" x="232.67" y="84.51" width="38.79" height="29.62" transform="translate(135.68 343.98) rotate(-86.07)"/></clipPath><clipPath id="e"><rect class="a" x="277.67" y="79.78" width="30.8" height="39.09" transform="matrix(1, 0, 0, 1, -0.14, 0.43)"/></clipPath><clipPath id="f"><rect class="a" x="277.67" y="79.78" width="30.8" height="39.09" transform="translate(-0.14 0.43) rotate(-0.08)"/></clipPath><clipPath id="g"><rect class="a" x="90.57" y="194.56" width="29.49" height="38.53" transform="translate(-129.27 256.03) rotate(-73.98)"/></clipPath><clipPath id="h"><rect class="a" x="90.57" y="194.56" width="29.49" height="38.53" transform="translate(-129.27 256.03) rotate(-73.98)"/></clipPath><clipPath id="i"><rect class="a" x="102.78" y="154.89" width="29.62" height="38.79" transform="translate(-87.41 220.94) rotate(-68.81)"/></clipPath><clipPath id="k"><rect class="a" x="114.36" y="115.58" width="30.8" height="39.09" transform="translate(-37.65 219.21) rotate(-72.83)"/></clipPath><clipPath id="l"><rect class="a" x="114.36" y="115.58" width="30.8" height="39.09" transform="translate(-37.65 219.21) rotate(-72.83)"/></clipPath><clipPath id="m"><rect class="a" x="355.67" y="119.89" width="38.53" height="29.49" transform="matrix(0.95, -0.3, 0.3, 0.95, -23.09, 117.9)"/></clipPath><clipPath id="n"><rect class="a" x="355.67" y="119.89" width="38.53" height="29.49" transform="translate(-23.09 117.9) rotate(-17.34)"/></clipPath><clipPath id="o"><rect class="a" x="367.04" y="159.59" width="38.79" height="29.62" transform="matrix(0.98, -0.21, 0.21, 0.98, -28.1, 85.46)"/></clipPath><clipPath id="p"><rect class="a" x="367.04" y="159.59" width="38.79" height="29.62" transform="translate(-28.1 85.46) rotate(-12.18)"/></clipPath><clipPath id="q"><rect class="a" x="378.27" y="198.4" width="39.09" height="30.8" transform="matrix(0.96, -0.28, 0.28, 0.96, -43.85, 119.45)"/></clipPath><clipPath id="r"><rect class="a" x="378.27" y="198.4" width="39.09" height="30.8" transform="translate(-43.85 119.45) rotate(-16.2)"/></clipPath></defs><title>ask</title><g class="b"><g class="c"><path class="d" d="M224.49,94c-.11-1.16-.22-2.31-.37-3.47a15.76,15.76,0,0,0-1.62-5.59c-1.35-2.31-3.59-3.16-6-3.48a6.34,6.34,0,0,0-3.17-1.14,7,7,0,0,0-1.57-.18c-3.52-.45-7.45,1.5-10.15,4.05a13.73,13.73,0,0,0-4.2,5,9.58,9.58,0,0,0-.89,2.91,11.07,11.07,0,0,0-.37,1.25,16.4,16.4,0,0,0-.19,5l.06.47c0,.13,0,.26,0,.38q1,8.71,2.21,17.39s.25.05.55.05l.13,1c0,.2.36.23.73.16a.74.74,0,0,0,.37.09c.18.4.5.82.84.87a1.1,1.1,0,0,0,.65-.19c.58.27,1.15.28,1.34-.25.6.13,1.06,0,1-.67,0-.18,0-.36,0-.54,1.39.14,2.64,0,2.58-.44-.23-1.73-.44-3.47-.66-5.2q-.16-1.72-.33-3.44c3.83-.21,7.65-.52,11.45-1q.2,3.87.4,7.74c0,.2.36.41.73.52,0,.1,0,.2,0,.3a.84.84,0,0,0,1.24.74l.14,0h0a2.85,2.85,0,0,0,.91,1.13.83.83,0,0,0,1-.18l.06,0c.31.19,1.35.66,1.37-.19V117c.54.21,1.17.28,1.17-.49v-1.18c1,.09,1.71,0,1.69-.35-.32-6.92-.29-14.11-1.26-21m-19.93,3.3a16.65,16.65,0,0,1,.08-3.29,7.49,7.49,0,0,1,.47-1.43q.26-.38.56-.75h0a17.94,17.94,0,0,1,3.61-2.61,10.52,10.52,0,0,1,1.11-.28l4.11-.35c.14,0,.27.09.4.13a19.3,19.3,0,0,1,.86,3.44q.54,3.7.8,7.43-5.81,1.17-11.64,2.21c-.13-1.5-.26-3-.37-4.49"/></g></g><g class="e"><g class="f"><path class="d" d="M266.38,106.32a7,7,0,0,0-.08-.95,6,6,0,0,0-.69-2.89,4.87,4.87,0,0,0-2.36-2.88c-.23-.13-.47-.25-.72-.36,0-.61-1.1-.76-1.58-.79a5,5,0,0,0-.67-.47,6.11,6.11,0,0,0-.62-.28c-.18-.13-.36-.25-.55-.36a.74.74,0,0,0-.68-.57l-.66,0a37.82,37.82,0,0,0-4.63-.73c-.91-.16-1.88-.32-2.86-.51-.63-.13-1.25-.28-1.87-.45h0l-.37-.11-.76-.25-.05-.05-.3-1.49c0-.07,0-.13.06-.2a4.26,4.26,0,0,1,1.1-1.64,19.27,19.27,0,0,1,2.26-.93c.79-.21,1.54-.39,2.15-.52a77.73,77.73,0,0,1,8.63-1,.67.67,0,0,0,.56-.32h.09a.92.92,0,0,0,.85-1.14l1-.06c.75,0,.8-1,.41-1.45a1.54,1.54,0,0,0-.21-.2.84.84,0,0,0,.33-.47c.22-.77-.39-1.1-1-1.15l-1.34-.09c0-.44-.21-1.12-.57-1.17-.2-.05-.39-.09-.59-.13a.63.63,0,0,0-.29-.11,10,10,0,0,0-2.68-.29,1,1,0,0,0-.1-.35c-.31-.53-1.34-.64-1.91-.61,0-.41-.25-1.07-.62-1l-.43.05c-.12-.16-.25-.27-.36-.26l-.76.08a.32.32,0,0,0-.18-.06,15.92,15.92,0,0,0-7.05,1.81,15.6,15.6,0,0,0-3.72,2.84,13.32,13.32,0,0,0-2.92,3.14,8.39,8.39,0,0,0-1.28,3.05,7.46,7.46,0,0,0-.67,3.09,5,5,0,0,0,.64,3.73c0,.07.1.12.15.19a4.93,4.93,0,0,0,2.92,3.2c.14.13.28.26.44.39a6.31,6.31,0,0,0,3.5,1.33h0a11.23,11.23,0,0,0,1.2.19c2.43.28,4.91.45,7.38.56a1.06,1.06,0,0,0,.32.18,5.08,5.08,0,0,0,.87.18l.09,0a13.6,13.6,0,0,0,2,.34l0,0,.18.22.41,1.52c0,.14,0,.29,0,.43a8.88,8.88,0,0,1-1.52,2.71,8.66,8.66,0,0,1-.82.86,9.45,9.45,0,0,1-1.15.6c-.44.09-.88.17-1.33.23s-1,.09-1.56.11l-.46,0a.75.75,0,0,0-.27,0c-.24,0-.49,0-.73-.08h-.08a16.9,16.9,0,0,1-5-2.61c-.32-.23-.86,0-1.43.3l-.05,0a1.15,1.15,0,0,0-1.25.07l0,0c-.64-.44-1.28.21-1.41.92a1.19,1.19,0,0,0-.78,0c-.19.15-.33.42-.06.61l.25.16a.9.9,0,0,0,0,.34c-.44.15-.83.38-.68.49l.24.16,0,.06a.73.73,0,0,0,0,.23,1.19,1.19,0,0,0,0,.13l-.13-.09c-.19-.13-.24,0-.1.13l.23.27h0a.66.66,0,0,0,.18.38.34.34,0,0,0,0,.35c-.4,0-.7,0-.42.2s.58.38.88.56c-.35.25-.51.63-.05.94s.94.6,1.41.87a2.13,2.13,0,0,0,.32.29,16.16,16.16,0,0,0,6.68,2.73,11.82,11.82,0,0,0,5.49.06h0a10.61,10.61,0,0,0,4.66-1.64l.17-.05a8.25,8.25,0,0,0,2.37-1.35c3.51-1.43,5-5,5-9"/></g></g><g class="g"><g class="h"><path class="d" d="M308.42,115.23l-1-1.12c.5-.2.88-.53.4-1.08q-5.94-6.79-12.17-13.32c1.74-1.84,3.46-3.7,5.13-5.59l1.87-2a5.72,5.72,0,0,0,1.48-2.2h0l.23-.24a5.66,5.66,0,0,0,1.47-2.19c.33-.64-.54-1.2-1.42-1.59,0-.18,0-.4,0-.69-.05-.88-1.86-1.46-3.2-1.43-.18-.6-.8-1.05-1.31-.83-.22-.24-.46-.31-.62,0,0,.12-.11.24-.16.36a4.29,4.29,0,0,1-.5-.5,5.47,5.47,0,0,1-.34.74c-.11-.13-.19-.23-.17-.27a5.48,5.48,0,0,1-.7,1.29,3.25,3.25,0,0,1-.42-.27,5.65,5.65,0,0,1-.3.66h0c-1.25,1.45-2.53,2.87-3.84,4.27-.53.55-1.06,1.1-1.57,1.66-1.31,1.38-2.64,2.74-4,4.11q-.08-2.64-.2-5.28c0-1.77,0-3.54,0-5.31a1.12,1.12,0,0,0-.34-.74c0-.48,0-1-.08-1.45-.05-1.22-2.2-1.12-3-1.17-.21,0-.67-.07-1.18-.09a1,1,0,0,0-.87-1,1.16,1.16,0,0,0-.33,0,.61.61,0,0,0-.23-.17.73.73,0,0,0-.83.33c-.28-.23-.53-.36-.53-.22s0,.41,0,.62a.26.26,0,0,0-.19.14c-.21-.17-.37-.28-.37-.22,0,.28,0,.56,0,.84a.84.84,0,0,0-.32.51c-.37-.14-.7-.27-.7-.4,0,.47,0,.95,0,1.42-.2,0-.35,0-.35,0q-.17,15.59,0,31.18a.2.2,0,0,0,.07.13c0,.3,0,.6,0,.9s.37.31.78.36c0,.16,0,.33,0,.49,0,.74.75,1,1.31.82H280a3.12,3.12,0,0,0,1.14,1.23.93.93,0,0,0,.92-.18h0c.37.29,1.77,1,1.83-.11h0c.68.33,1.81.73,1.8-.41,0-.47,0-.94,0-1.41.78.08,1.46,0,1.46-.56s0-1.16,0-1.73a.7.7,0,0,0,.23-.52c0-1.58,0-3.17,0-4.75a.63.63,0,0,0,.12-.09l2.38-2.51q5,5.7,10.2,11.31c.17.18.61.17,1,.08a.43.43,0,0,0,.13.06c.41.44.81.89,1.23,1.33s.77.15,1.05-.17c.48.44,1,.74,1.52.33a.73.73,0,0,0,.26-.56,3.14,3.14,0,0,0,.3.11c.73.18,1.64-.44.94-1.22l-1-1.13.9.2a2.32,2.32,0,0,0,1.76,0,.65.65,0,0,0,.27-.86"/></g></g><g class="i"><g class="j"><path class="d" d="M104.3,199c-1.14-.24-2.28-.47-3.42-.67a15.76,15.76,0,0,0-5.82-.11c-2.61.61-4.08,2.49-5.11,4.69a6.34,6.34,0,0,0-2,2.69,7,7,0,0,0-.63,1.44c-1.47,3.23-.77,7.56.86,10.9a13.73,13.73,0,0,0,3.53,5.5,9.58,9.58,0,0,0,2.51,1.71,11.07,11.07,0,0,0,1.08.72,16.4,16.4,0,0,0,4.74,1.67l.47.09.38.08q8.61,1.61,17.26,3s.13-.22.21-.51l1,.17c.2,0,.32-.28.37-.65a.74.74,0,0,0,.2-.32,1.45,1.45,0,0,0,1.08-.55,1.1,1.1,0,0,0,0-.68c.43-.47.61-1,.16-1.35.3-.54.3-1-.33-1.19l-.51-.17c.54-1.28.78-2.52.35-2.6l-5.16-.91-3.38-.71c.94-3.72,1.77-7.46,2.48-11.22l7.51,1.92c.19,0,.5-.22.71-.55l.29.07a.84.84,0,0,0,1.07-1,.71.71,0,0,0,.09-.12v0a2.85,2.85,0,0,0,1.35-.53.83.83,0,0,0,.13-1l.06,0c.27-.24,1-1.09.22-1.36l-.21-.07c.36-.45.62-1-.13-1.26l-1.13-.34c.37-.89.49-1.63.16-1.72-6.7-1.75-13.56-3.91-20.45-5m-2.76,20A16.65,16.65,0,0,1,98.42,218a7.49,7.49,0,0,1-1.23-.88q-.29-.36-.55-.76h0a17.94,17.94,0,0,1-1.43-4.22,10.52,10.52,0,0,1,.06-1.14l.89-4c.07-.13.16-.23.24-.35a19.3,19.3,0,0,1,3.54.2q3.69.58,7.33,1.44-.61,5.89-1.34,11.77c-1.47-.32-2.94-.64-4.4-1"/></g></g><g class="k"><g class="k"><path class="d" d="M128.52,162.68a7,7,0,0,0-.93-.21,6,6,0,0,0-3-.2,4.87,4.87,0,0,0-3.45,1.4c-.19.18-.37.38-.56.58-.59-.16-1.05.82-1.22,1.28a5,5,0,0,0-.65.5,6.11,6.11,0,0,0-.45.5c-.17.13-.34.27-.5.42a.74.74,0,0,0-.75.48c-.07.21-.15.42-.22.62a37.82,37.82,0,0,0-2.07,4.21c-.42.82-.86,1.71-1.34,2.58-.31.56-.64,1.11-1,1.65v0l-.22.32c-.15.22-.31.44-.47.65l-.07,0-1.52-.15-.17-.12a4.26,4.26,0,0,1-1.24-1.54,19.27,19.27,0,0,1-.22-2.44c0-.82.09-1.58.14-2.2a77.73,77.73,0,0,1,1.58-8.55.67.67,0,0,0-.14-.63l0-.09a.92.92,0,0,0-.84-1.15l.22-.94c.18-.73-.69-1.06-1.27-.82a1.54,1.54,0,0,0-.25.14.84.84,0,0,0-.35-.45c-.67-.43-1.17,0-1.39.61s-.33.84-.48,1.25c-.41-.14-1.14-.13-1.28.19-.11.17-.2.35-.29.53a.63.63,0,0,0-.2.25,10,10,0,0,0-1.08,2.48,1,1,0,0,0-.36,0c-.59.14-1,1.08-1.15,1.64-.4-.09-1.09-.08-1.17.28,0,.14,0,.29-.08.43-.19.07-.33.16-.36.27s-.11.5-.15.75a.32.32,0,0,0-.11.16,15.92,15.92,0,0,0-.36,7.27,15.6,15.6,0,0,0,1.61,4.4,13.32,13.32,0,0,0,2.13,3.72,8.39,8.39,0,0,0,2.54,2.13,7.46,7.46,0,0,0,2.75,1.56A5,5,0,0,0,112,187l.23-.09A4.93,4.93,0,0,0,116.1,185c.17-.09.34-.19.5-.3a6.31,6.31,0,0,0,2.31-2.95h0a11.23,11.23,0,0,0,.54-1.09c1-2.24,1.88-4.55,2.72-6.88a1.06,1.06,0,0,0,.26-.25,5.08,5.08,0,0,0,.43-.78l.07-.07a13.6,13.6,0,0,0,.92-1.81l0,0,.26-.1,1.57.06.42.1a8.88,8.88,0,0,1,2.14,2.26,8.66,8.66,0,0,1,.57,1,9.45,9.45,0,0,1,.23,1.27c0,.45-.1.89-.18,1.34s-.22,1-.36,1.52c-.06.14-.11.28-.18.42a.75.75,0,0,0-.06.27c-.09.23-.18.45-.29.67a.69.69,0,0,0,0,.07,16.9,16.9,0,0,1-4,4c-.31.23-.29.82-.14,1.45l-.05,0a1.15,1.15,0,0,0-.3,1.22l0,0c-.62.48-.18,1.28.46,1.61a1.19,1.19,0,0,0-.19.76c.09.22.3.44.56.24l.23-.19a.9.9,0,0,0,.33.07c0,.46.12.91.26.79l.22-.19,0,0a.73.73,0,0,0,.21.09l.12.07-.13.1c-.18.15-.11.21.1.14l.32-.14h0a.66.66,0,0,0,.41-.06.34.34,0,0,0,.32.14c-.15.37-.2.67.07.46s.53-.44.8-.68c.14.41.45.68.88.33s.85-.72,1.25-1.09a2.13,2.13,0,0,0,.37-.22,16.16,16.16,0,0,0,4.59-5.57,11.82,11.82,0,0,0,1.69-5.22v0a10.61,10.61,0,0,0-.18-4.93c0-.06,0-.12,0-.18a8.25,8.25,0,0,0-.58-2.67c-.32-3.77-3.25-6.27-7.15-7.46"/></g></g><g class="l"><g class="m"><path class="d" d="M149.5,125.18l-1.37.64c0-.54-.25-1-.91-.7-5.5,2.44-10.94,5-16.33,7.67-1.24-2.21-2.5-4.4-3.82-6.55-.45-.79-.89-1.59-1.34-2.38a5.72,5.72,0,0,0-1.66-2.07h0l-.16-.29a5.66,5.66,0,0,0-1.66-2.06c-.51-.5-1.3.16-1.94.88l-.67-.17c-.85-.21-1.94,1.34-2.31,2.63-.63,0-1.24.45-1.18,1-.29.14-.44.34-.19.59.11.08.2.17.3.26a4.29,4.29,0,0,1-.62.33,5.47,5.47,0,0,1,.61.55c-.16.07-.28.11-.3.08a5.48,5.48,0,0,1,1,1.05,3.25,3.25,0,0,1-.39.32,5.65,5.65,0,0,1,.54.48s0,0,0,0c1,1.62,2,3.27,2.94,4.94.37.67.74,1.33,1.12,2,.93,1.66,1.84,3.33,2.75,5q-2.55-.71-5.11-1.38c-1.69-.53-3.38-1-5.07-1.58a1.12,1.12,0,0,0-.8.1l-1.41-.36c-1.19-.31-1.72,1.77-2,2.48-.07.19-.27.62-.43,1.1a1,1,0,0,0-1.2.54,1.16,1.16,0,0,0-.08.32.61.61,0,0,0-.23.17.73.73,0,0,0,.07.89c-.3.2-.5.4-.37.44l.59.19a.26.26,0,0,0,.08.22c-.23.14-.38.27-.32.29l.8.26a.84.84,0,0,0,.4.46c-.24.31-.46.59-.59.55l1.35.43c-.07.19-.11.33-.08.34q14.84,4.79,29.79,9.21a.2.2,0,0,0,.14,0l.86.26c.18.05.4-.26.58-.64l.47.14c.71.21,1.13-.43,1.18-1v0A3.12,3.12,0,0,0,144,152a.93.93,0,0,0,.1-.93h0c.38-.27,1.52-1.39.43-1.78h0c.51-.55,1.23-1.52.14-1.85l-1.35-.41c.31-.72.43-1.4-.1-1.56l-1.66-.5a.7.7,0,0,0-.43-.37c-1.51-.49-3-1-4.53-1.45a.63.63,0,0,0-.05-.14c-.57-1-1.13-2-1.69-3,4.63-2.09,9.24-4.2,13.83-6.38.23-.11.35-.53.36-.91a.43.43,0,0,0,.1-.11l1.64-.78c.43-.21.37-.69.15-1.06.56-.33,1-.77.77-1.35a.73.73,0,0,0-.46-.41,3.14,3.14,0,0,0,.19-.25c.39-.64.06-1.7-.89-1.26l-1.39.64.46-.8a2.32,2.32,0,0,0,.57-1.66.65.65,0,0,0-.75-.51"/></g></g><g class="n"><g class="o"><path class="d" d="M383.93,146.43c1.08-.42,2.16-.86,3.23-1.32a15.76,15.76,0,0,0,4.92-3.11c1.84-1.94,2-4.33,1.68-6.73a6.34,6.34,0,0,0,.21-3.36,7,7,0,0,0-.27-1.55c-.55-3.51-3.51-6.74-6.71-8.63a13.73,13.73,0,0,0-6-2.65,9.58,9.58,0,0,0-3,0,11.07,11.07,0,0,0-1.3,0,16.4,16.4,0,0,0-4.88,1.21l-.44.19-.36.14q-8.08,3.39-16.09,6.95s0,.26.1.55l-.94.41c-.18.08-.12.41.05.74a.74.74,0,0,0,0,.38,1.45,1.45,0,0,0-.6,1.05,1.1,1.1,0,0,0,.36.57c-.1.63,0,1.19.61,1.22,0,.61.31,1,.93.81l.52-.14c.25,1.37.73,2.53,1.14,2.36l4.81-2.08,3.21-1.27q1.89,5.43,4.1,10.73l-7.33,2.53c-.19.07-.3.46-.29.85l-.28.1a.84.84,0,0,0-.36,1.4.71.71,0,0,0,0,.15v0a2.85,2.85,0,0,0-.83,1.19.83.83,0,0,0,.45.92l0,.07c-.1.35-.26,1.48.56,1.26l.21-.06c0,.58.05,1.21.8,1l1.13-.34c.18.95.49,1.64.81,1.53,6.56-2.22,13.48-4.2,19.85-7m-8.7-18.23a16.65,16.65,0,0,1,3.18-.83,7.49,7.49,0,0,1,1.51.06q.44.15.87.33h0a17.94,17.94,0,0,1,3.51,2.74,10.52,10.52,0,0,1,.58,1l1.48,3.85c0,.15,0,.28,0,.42a19.3,19.3,0,0,1-3.07,1.78q-3.4,1.55-6.91,2.83-2.73-5.26-5.35-10.57c1.4-.54,2.8-1.08,4.21-1.6"/></g></g><g class="p"><g class="q"><path class="d" d="M383.68,190.1a7,7,0,0,0,.89-.34,6,6,0,0,0,2.58-1.46,4.87,4.87,0,0,0,2.11-3.07c.06-.26.1-.52.14-.79.58-.19.43-1.26.32-1.74a5,5,0,0,0,.27-.78,6.11,6.11,0,0,0,.1-.67c.07-.21.14-.41.19-.62a.74.74,0,0,0,.36-.81c-.06-.21-.11-.43-.16-.64a37.82,37.82,0,0,0-.59-4.65c-.1-.92-.22-1.9-.3-2.89,0-.64-.08-1.28-.09-1.92v0c0-.13,0-.26,0-.39s0-.54,0-.8l0-.06,1.35-.71h.21a4.26,4.26,0,0,1,1.88.6,19.27,19.27,0,0,1,1.52,1.92c.42.7.8,1.37,1.09,1.92a77.73,77.73,0,0,1,3.38,8,.67.67,0,0,0,.46.45l0,.08a.92.92,0,0,0,1.33.5l.33.91c.25.71,1.16.5,1.51,0a1.54,1.54,0,0,0,.13-.26.84.84,0,0,0,.54.18c.8,0,1-.68.83-1.27s-.19-.88-.29-1.31c.42-.11,1-.52,1-.87s0-.4,0-.6a.63.63,0,0,0,0-.31,10,10,0,0,0-.46-2.66,1,1,0,0,0,.31-.19c.42-.44.25-1.46.06-2,.38-.14,1-.53.82-.88-.05-.14-.12-.27-.17-.4.12-.16.19-.32.15-.42l-.28-.71a.32.32,0,0,0,0-.19,15.92,15.92,0,0,0-3.7-6.27,15.6,15.6,0,0,0-3.76-2.79,13.32,13.32,0,0,0-3.82-1.93,8.39,8.39,0,0,0-3.29-.38,7.46,7.46,0,0,0-3.15.21,5,5,0,0,0-3.4,1.65c-.05.06-.09.13-.14.2a4.93,4.93,0,0,0-2.26,3.69c-.09.17-.18.34-.26.53a6.31,6.31,0,0,0-.31,3.73h0a11.23,11.23,0,0,0,.15,1.2c.41,2.41.93,4.84,1.51,7.24a1.06,1.06,0,0,0-.08.36,5.08,5.08,0,0,0,.07.89.54.54,0,0,0,0,.1,13.6,13.6,0,0,0,.22,2s0,0,0,0l-.16.23-1.34.81-.41.15a8.88,8.88,0,0,1-3-.71,8.66,8.66,0,0,1-1.05-.55,9.45,9.45,0,0,1-.89-.94c-.21-.4-.41-.8-.59-1.21s-.38-1-.54-1.47c0-.15-.06-.3-.08-.45a.75.75,0,0,0-.1-.25c0-.24-.09-.48-.13-.72a.69.69,0,0,0,0-.07,16.9,16.9,0,0,1,1.13-5.48c.13-.37-.21-.84-.68-1.29l0-.06a1.15,1.15,0,0,0-.42-1.18l0-.06c.25-.74-.55-1.17-1.27-1.1a1.19,1.19,0,0,0-.25-.74c-.2-.14-.5-.2-.6.11l-.09.29a.9.9,0,0,0-.32.12c-.27-.38-.6-.69-.65-.52l-.08.28h-.06a.73.73,0,0,0-.22,0h-.13c0-.05,0-.1,0-.15.07-.22,0-.24-.16-.06s-.13.19-.19.3h0v0a.66.66,0,0,0-.31.28.34.34,0,0,0-.35.06c-.08-.39-.2-.67-.31-.34s-.2.66-.29,1c-.34-.26-.75-.32-.92.21s-.32,1.07-.45,1.6a2.13,2.13,0,0,0-.19.39,16.16,16.16,0,0,0-.77,7.18,11.82,11.82,0,0,0,1.47,5.29l0,0a10.61,10.61,0,0,0,2.86,4l.1.15a8.25,8.25,0,0,0,2,1.91c2.34,3,6.16,3.45,10.07,2.29"/></g></g><g class="r"><g class="s"><path class="d" d="M386.79,233l.8-1.29c.33.43.76.69,1.14.08,3.25-5.06,6.38-10.2,9.42-15.39,2.25,1.16,4.51,2.3,6.79,3.37l2.43,1.25a5.72,5.72,0,0,0,2.52.81h0l.3.16a5.66,5.66,0,0,0,2.51.81c.7.14,1-.85,1.14-1.8l.65-.23c.83-.29.88-2.19.48-3.47a1.08,1.08,0,0,0,.43-1.49c.17-.28.18-.53-.16-.6l-.39-.06a4.29,4.29,0,0,1,.34-.62,5.47,5.47,0,0,1-.81-.12c.1-.15.17-.24.21-.24a5.48,5.48,0,0,1-1.44-.31,3.25,3.25,0,0,1,.15-.48,5.65,5.65,0,0,1-.72-.11s0,0,0,0c-1.74-.8-3.46-1.64-5.17-2.5l-2-1.05c-1.69-.87-3.37-1.77-5-2.67q2.52-.81,5-1.66c1.7-.49,3.4-1,5.11-1.47a1.12,1.12,0,0,0,.61-.53l1.37-.48c1.16-.39.46-2.43.3-3.17,0-.2-.12-.67-.24-1.16a1,1,0,0,0,.7-1.11,1.16,1.16,0,0,0-.11-.32.61.61,0,0,0,.1-.27.73.73,0,0,0-.55-.7c.14-.34.2-.61.06-.57l-.59.16a.26.26,0,0,0-.19-.14c.11-.25.17-.43.11-.42l-.81.22a.84.84,0,0,0-.58-.16c0-.39.07-.75.19-.78l-1.37.38c0-.2-.09-.34-.12-.33q-15,4.16-29.94,8.7a.2.2,0,0,0-.1.1l-.86.26c-.18.05-.19.44-.13.85l-.47.14a1,1,0,0,0-.43,1.49l0,0a3.12,3.12,0,0,0-.86,1.43.93.93,0,0,0,.43.84v0c-.17.43-.5,2,.62,1.72h0c-.12.74-.19,1.94.9,1.62l1.35-.4c.14.77.41,1.41.94,1.25l1.66-.5a.7.7,0,0,0,.56.07c1.53-.42,3.05-.85,4.58-1.28a.63.63,0,0,0,.12.09l3.07,1.59q-4.08,6.43-8,12.94c-.13.21,0,.63.2,1a.43.43,0,0,0,0,.14c-.31.52-.63,1-.94,1.55s.07.78.46,1c-.29.58-.43,1.2.1,1.55a.73.73,0,0,0,.61.09,3.14,3.14,0,0,0,0,.32c0,.75.88,1.45,1.43.56l.81-1.3c0,.32,0,.63.06.92a2.32,2.32,0,0,0,.44,1.7.65.65,0,0,0,.9,0"/></g></g><path class="d" d="M203.6,244.23l-.41-.46c.26-.08.39-.21.24-.38a82.55,82.55,0,0,1-7.24-9.11q-3.27-4.79-6.38-9.69c-2.84-4.36-6-8.49-8.76-12.91-1.79-2.88-4-7.12-7.77-7.75l-.43-.06a5.46,5.46,0,0,0-1.23-.41,18.15,18.15,0,0,0-3.6-.35,14,14,0,0,0-2.75.18,5.69,5.69,0,0,0-2.49.73,2.88,2.88,0,0,0-.55.44,1.74,1.74,0,0,0-.54.73l-.15.11a.22.22,0,0,1,.12,0,1.78,1.78,0,0,0-.07.33,1.58,1.58,0,0,0-.12.22,3.23,3.23,0,0,0-.33.62s.06,0,.13,0l-.11.26s.07,0,.16,0a7.56,7.56,0,0,0,.07.9h0l0,.22s0,0,0,0,0,.24,0,.38.13.12.27.11a.4.4,0,0,0,.17.1c.1.27.29.63.47.66a.58.58,0,0,0,.39-.08c.41.32.82.53.8.19,0-.05,0-.1,0-.14.43.2.77.25.73,0l0-.6c.31,0,.52-.12.49-.38a2.74,2.74,0,0,1,0-.9,2.25,2.25,0,0,1,1.35-.55,14.43,14.43,0,0,1,3.25-.23,13.22,13.22,0,0,1,2.6.22c.18,0,.33.11.49.16a6.53,6.53,0,0,1,.77.43l1.93,2q1,1.35,1.86,2.78c2.45,3.91,5.21,7.57,7.78,11.4,2.16,3.23,4.28,6.5,6.47,9.71a126,126,0,0,0,9,11.51.36.36,0,0,0,.28.1h0l0,0,.48.57c.33.38.49.31.54.07.49.44.81.41.77.08a.51.51,0,0,0,.17,0c.24,0,.71-.07.37-.47l-.45-.5.3.06S204,244.7,203.6,244.23Z"/><path class="d" d="M214.37,238l-.16-.58a.63.63,0,0,0,0-.38c-1.48-5.19-3-10.38-4.28-15.64-1.55-6.59-2.7-13.28-3.81-20-2-12.2-3.67-24.44-6-36.59-.12-.61-1.48-.82-2.54-.75l0-.2c-.08-.41-.48-.48-.83-.34a.47.47,0,0,0-.51,0c-.21-.16-.41-.23-.36,0l.05.29a.29.29,0,0,0-.18,0c-.13-.1-.24-.16-.23-.12l.07.37c-.26,0-.51-.06-.52-.12l.06.33a.4.4,0,0,1-.11-.17l.12.62c-.12,0-.2.07-.19.13l0,.18c-.18,0-.31,0-.28.16l.07.39a.27.27,0,0,0-.06.23c2.31,12.16,3.93,24.4,5.92,36.61.75,4.63.54,3.4,1.43,8a197.58,197.58,0,0,0,5.08,19.85c0,.07.12.11.25.14,1,2.83,2,5.63,3.2,8.38,0,.1.21.12.41.11a.37.37,0,0,0,.33.12.74.74,0,0,0,.84.43.54.54,0,0,0,.22.09.82.82,0,0,0,.61-.37c.37,0,.64-.13.47-.63C214,238.69,214.52,238.53,214.37,238Z"/><path class="d" d="M245.72,230l0,0c.27-.46-.44-.64-1-.57a.44.44,0,0,0-.58-.27c-.12-.08-.26-.1-.34,0-.1-.05-.19-.08-.21,0l-.13.2s-.06,0-.07,0a14,14,0,0,1-1.69,2.3q-.35.38-.73.72a8.05,8.05,0,0,1-2.87,1.68l-.37.06-2.13-.44a6.23,6.23,0,0,1-1.85-2,7.24,7.24,0,0,1-1.51-1.88l-.12-.22c-.06-.11-.1-.22-.15-.34a8.84,8.84,0,0,1-.51-1.45c-1.72-5.1-3-10.38-4.23-15.61-1.86-7.62-3.55-15.29-5.2-23-1.23-5.7-2.43-11.41-3.71-17.1a60.39,60.39,0,0,0-1.8-7c-1.08-3-3-5.7-4.73-8.4a1.21,1.21,0,0,0-.38-.33l-.34-.53c-.2-.31-.83-.31-1.14-.29h-.08l0-.06h0l-.07-.11a.19.19,0,0,0-.18-.14l-.29,0s0,0,0,0l-.31,0h0l-3,.23a.08.08,0,0,1,.06,0,25.18,25.18,0,0,0-3.59,1,18.78,18.78,0,0,0-2.35.92.76.76,0,0,1,.13.2s0,0,0,.06a.45.45,0,0,0-.1.17l-.32.14.25,0,0,.07c-.28.12-.15.25.06.3a.29.29,0,0,0,0,.09l0,.08-.13.05c-.18.07-.05.14.14.18a.32.32,0,0,0,.22.2c.1.38.45.78.77.68h0c.17.17.34.28.45.25a37,37,0,0,1,4.44-1.18,14.31,14.31,0,0,1,3.39-.52,43.44,43.44,0,0,1,4,7.57c.27.93.5,1.87.71,2.78,3.79,16.35,7.23,32.78,11.52,49,.47,1.77.93,3.54,1.44,5.3a54.61,54.61,0,0,0,1.85,5.73c.15.41.31.8.5,1.2l.05.12a12.15,12.15,0,0,0,4,5,7.15,7.15,0,0,0,2.42,1.35c.17.05.35.09.52.12a5.46,5.46,0,0,0,4.32-.62,9.4,9.4,0,0,0,2.65-2,14.24,14.24,0,0,0,2.66-3.4C246.06,230.26,245.93,230.1,245.72,230Z"/><path class="d" d="M262,147c0-.12,0-.25,0-.37,0-.56-1-.83-1.82-.73a.75.75,0,0,0-.71-.54c-.19-.23-.41-.35-.48,0l0,.07c-.17-.16-.34-.28-.35-.22l-.08.44v0c-.12-.12-.21-.2-.22-.18l-.09.45a1.33,1.33,0,0,0-.44,0l0,.09a.12.12,0,0,1,0-.08c0,.28-.1.56-.15.83-.09,0-.15,0-.16.08-.46,3.1-1.31,6.15-2.05,9.19-1.41,5.73-2.84,11.45-4.24,17.18-1.08,4.4-2.15,8.81-3.07,13.24-1.19,5.75-2.21,11.55-3.1,17.35a211.86,211.86,0,0,0-2.12,26.3s0,0,0,0c0,.17,0,.34,0,.51s.2.13.43.18c0,.19,0,.39,0,.58s.46.35.79.22h0c.26.44.82.78,1.09.56.32.13.62.09.72-.29a.4.4,0,0,0,.49-.42c0-.12,0-.24,0-.35.42,0,.75-.07.78-.36.62-7.27,1.25-14.52,2.36-21.73.89-5.8,1.94-11.56,3.1-17.3s2.51-11.71,3.94-17.54c1.28-5.22,2.58-10.43,3.87-15.64.87-3.51,1.9-7,2.42-10.63C262.93,147.58,262.57,147.25,262,147Z"/><path class="d" d="M319.72,176.25l0-.08c.43-.72-.78-1-1.68-1a.66.66,0,0,0-.71-.6c-.13-.19-.28-.29-.39-.11l-.13.21c-.15-.16-.28-.28-.27-.29l-.22.37c0-.06-.06-.1,0-.12l-.47.76-.26-.16c-4.2,6.73-7.9,13.82-11.72,20.77q-8.27,14.74-16.39,29.57s0,0,.09,0q-1.55,2.85-3.09,5.71a.22.22,0,0,0,0,.18l-.48.87.24.11-.22.4s.27.15.56.22l-.08.15c-.3.56.37,1,.77.78.31.6.85,1.11,1.23.7.35.28.68.4.84.19l.21-.29c.34.13.62.14.73,0,.22-.35.43-.7.65-1.05a.61.61,0,0,0,.47-.26q9.2-16.82,18.57-33.55c4.19-7.51,8.17-15.22,12.72-22.53C320.89,177,320.4,176.58,319.72,176.25Z"/><path class="d" d="M281.88,234.52c.32-.4-.7-.78-1.16-.68-.06-.21-.23-.38-.46-.25-.05-.07-.1-.1-.15-.08l-.17.09c0-.06-.08-.09-.09-.09a14.6,14.6,0,0,1-5.7,2.08,9.37,9.37,0,0,1-1.2,0l-.34,0-.1,0-.31-.15-.19-.13a4.8,4.8,0,0,1-1.53-2.85,19.26,19.26,0,0,1-.39-6c.08-3,.32-6,.55-9.06.47-6.36,1.1-12.71,1.58-19.07.57-7.68,1.83-15.31,2.94-22.92,1-6.7,2.1-13.4,2.91-20.12a3.53,3.53,0,0,0-.06-2c-.06-.14-.14-.28-.22-.43s0-.09,0-.13a10.07,10.07,0,0,0-1.32-2.11c-.56-.9-1.21-1.8-1.72-2.74a2,2,0,0,1-.08-.36,1.71,1.71,0,0,0-.28-.37,2.58,2.58,0,0,0-1-1.23,7.68,7.68,0,0,0-2.48-1.06,11.16,11.16,0,0,0-4.38-.79h-.37a.16.16,0,0,0-.12,0h-.19s0,.07.09.16h-.26s0,.06.05.13h-.19s.1.13.15.28a.42.42,0,0,0,0,.14l0,0c-.17,0-.32.09-.17.1h.11l-.26,0a1.14,1.14,0,0,1,.24.08.22.22,0,0,0,0,0,.25.25,0,0,0-.08.16h-.09c-.09,0,0,0,.1.05s.09.09.22.1a.44.44,0,0,0,0,.13c-.2.13-.29.32.06.35h.07a.38.38,0,0,0,.2.11c.14.32.39.63.6.66l.47.07a.57.57,0,0,0,.2.1c.7.13,1.43.23,2.15.37a7.94,7.94,0,0,1,1.87.77c.35.56.72,1.27.94,1.61l2,3.24a3.41,3.41,0,0,1,.25.49,3.12,3.12,0,0,1,.1.7c0,.11,0,.21,0,.32s0,.28-.05.42,0,.29-.08.43c-.44,3.52-1,7-1.51,10.53-1.21,8.18-2.47,16.36-3.49,24.57-.67,5.39-1,10.8-1.5,16.21-.27,3.08-.58,6.18-.85,9.29,0,.36-.06.72-.09,1.09s-.07.86-.1,1.3-.08,1-.11,1.54c0,.19,0,.38,0,.56-.16,2.6-.26,5.2-.23,7.79a15.21,15.21,0,0,0,.78,5.12,9.14,9.14,0,0,0,.61,1.53,5.77,5.77,0,0,0,1.46,1.81,6,6,0,0,0,1.6,1.66c2.95,2,7.05.57,9.86-1.07l.76-.43a.26.26,0,0,0,.09-.26l.39-.21c.09-.06.05-.22-.07-.44l.61-.35C282.95,235.25,282.48,234.84,281.88,234.52Z"/><path class="d" d="M330,184.32a18.2,18.2,0,0,0-2.94-6.6l-.1-.12a7.42,7.42,0,0,0-3.86-3.18l-.24-.06a5.52,5.52,0,0,0-.64-.23,4.73,4.73,0,0,0-2-.32l-.12,0,0,0a10.32,10.32,0,0,0-2.93.72q-.53.18-1.08.4l.06.09-.31.12s.1.08.18.2l-.23.09s0,.05.06.09l-.2.08s.11,0,.2.1a.21.21,0,0,0,0,.11l-.16.06c-.06,0,.13.14.33.21-.33.18-.15.65.21.67a.32.32,0,0,0,.16.1c.17.46.5.9.79.79l.14-.07c.2.17.39.26.55.2a6,6,0,0,1,4.61-.75,10,10,0,0,1,1.72,1.17,8.45,8.45,0,0,1,.64.94,13.73,13.73,0,0,1,1.17,2.45,31.08,31.08,0,0,1,1.19,4.85c.15.86.26,1.72.34,2.59a4.45,4.45,0,0,1-.21.88c-.48,1.12-1,2.23-1.49,3.33q-1,2.25-2.1,4.48c-3.8,8-7.68,15.92-11.52,23.88-1.24,2.54-2.48,5.08-3.71,7.63-1.87,3.88-3.74,7.75-5.51,11.67a37.37,37.37,0,0,0-2.66,6.68s0,0,.07.06-.05.15-.07.23.09.06.22.09l.06,0c0,.07,0,.13-.06.2s.15.3.35.29l.08.05c.15.37.57.73.83.54.29.22.58.31.67,0h0c.26.08.48.05.55-.2s.08-.26.12-.39c.38,0,.69,0,.72-.17.75-3.34,2.53-6.49,4-9.56,2.9-6.26,5.95-12.46,9-18.67,3.13-6.46,6.26-12.93,9.33-19.42l.29-.6c1.09-2.3,2.19-4.59,3.22-6.92a14.63,14.63,0,0,0,.8-1.81,4.09,4.09,0,0,0,.46-1.47A20.35,20.35,0,0,0,330,184.32Z"/><path class="d" d="M215.85,328.59a11.92,11.92,0,0,0,0-2.67,6.37,6.37,0,0,0-2.64-3.21,41.66,41.66,0,0,1-4.31-7.51c-3.11-6.72-4.91-14.06-6.35-21.3-.37-1.87-.7-3.75-1-5.63s-.59-3.85-.83-5.78q-.8-6.27-1.27-12.56-.11-1.84-.26-3.68c0-.07-.08-.15-.12-.22a8.8,8.8,0,0,0-.25-1.06,38.49,38.49,0,0,0-2.71-4.23l-6.42-10.07c-4.66-7.33-9.34-14.65-13.91-22-2.64-4.26-5.28-8.56-7.62-13-1.18-2.36-2.28-4.76-3.22-7.23a.86.86,0,0,0-.35-.34c-.13-.3-.26-.6-.38-.91s-1.06-.51-1.81-.42l-.06-.15a.57.57,0,0,0-.78-.33c-.25-.15-.53-.15-.53.12-.19-.13-.36-.21-.34-.16l.15.37c-.08,0-.14,0-.17.13a1.14,1.14,0,0,0-.31-.16l.11.28a3.14,3.14,0,0,1-.26.76,1.1,1.1,0,0,0-.35.1l.08.22c-.15,0-.27,0-.29-.09.06.18.13.34.2.51h-.17a64.28,64.28,0,0,0,3.87,8.72c2.37,4.71,5.16,9.23,7.91,13.72,3.92,6.39,7.93,12.73,11.93,19.08l6.9,10.93c.5.79,1,1.58,1.59,2.38l1.24,2c.1.14.2.28.29.42l.25.44a5,5,0,0,1,.51,1.74,6.69,6.69,0,0,1-.13,1.33c0,.16,0,.32,0,.48v.07q.31,4.12.75,8.22a195.38,195.38,0,0,0,3,19.6,107.33,107.33,0,0,0,4.08,14.72,57.25,57.25,0,0,0,3.77,8.4l.3.49.18.35a31.86,31.86,0,0,0,4.24,6c.05,1.41-.14,3-.18,4.33q-.22,6.61-.43,13.22-.86,26.45-1.72,52.89a.13.13,0,0,0,0,.09c0,.17,0,.34,0,.51s.22.18.47.23V399c0,.48.54.56.88.42a1.16,1.16,0,0,0,.5.58.7.7,0,0,0,.58-.11c.41.27.8.34.9-.13.45.2.81.19.83-.24,0-.23,0-.45,0-.68.68.12,1.24.1,1.25-.15s0-.78,0-1.17a.29.29,0,0,0,0-.13c.68-17.63,1.18-35.28,1.74-52.92q.2-6.31.38-12.63C215.72,330.77,215.84,329.66,215.85,328.59Z"/><path class="d" d="M361.14,269.49a22.48,22.48,0,0,0-.94-2.49c-1-2.61-2.38-4.67-5.2-5.88a10.5,10.5,0,0,0-4.1-1.6,15.26,15.26,0,0,0-4-.3,24.22,24.22,0,0,0-5.49.69c-7.28,1.71-14.51,3.58-21.88,4.88-1.75.31-3.48.69-5.25.89l-.6,0a14.58,14.58,0,0,1-3.78-.29l-.13-.1-.29,0-.18-.06-.32-.18a7.87,7.87,0,0,1-1.11-1.06h0a4.48,4.48,0,0,1-.37-.61,4.87,4.87,0,0,1-.91-1c-.61-1.59-1.18-3.19-1.7-4.81a.61.61,0,0,0-.06-.09c-.08-.28-.16-.55-.23-.83s-.78-.55-1.25-.38c-.05-.25-.13-.54-.39-.59a.35.35,0,0,0-.37.17c-.2-.21-.39-.33-.35,0l0,.21c-.22-.13-.45-.24-.47-.36,0,.12,0,.24.06.35s0,0,0,.11l0,.16c-.21-.1-.42-.18-.43-.27,0,.26.08.51.13.76l-.11,0a3,3,0,0,1-.2-.62l.1.66-.1.06-.25,0,.06.38c-.16-.05-.28-.1-.29-.13l.07.51s-.08.05-.08.11a16.67,16.67,0,0,0,1.65,6.11,8.66,8.66,0,0,0,1.28,2.17,8.18,8.18,0,0,0,2.43,2c.13.11.24.24.38.34a10.18,10.18,0,0,0,6.09,1.88,29.58,29.58,0,0,0,8-.87c6.92-1.36,13.76-3,20.61-4.65a47.62,47.62,0,0,1,5.19-1.1l.73,0a7.68,7.68,0,0,1,4.51.88,5.76,5.76,0,0,1,1.71.3,6.73,6.73,0,0,1,1.86,1.65,19.49,19.49,0,0,1,1.34,3.37.5.5,0,0,0,.33.28l.14.44c.15.48.51.51.79.31a.49.49,0,0,0,.23.06c.16.43.39.87.73.92a.42.42,0,0,0,.48-.22l.1.06c.33.12.91,0,.75-.49.38,0,.64-.18.5-.64-.06-.2-.13-.39-.2-.59C360.88,270,361.28,269.92,361.14,269.49Z"/><path class="d" d="M359.71,270.85c.31-.38-.63-.65-1.08-.58-.07-.21-.28-.39-.5-.24-.07-.07-.14-.1-.19-.06l-.13.1c-.06-.06-.12-.09-.13-.08-2.88,2.33-6,4.41-9,6.53-5.54,3.86-11.13,7.66-16.72,11.44q-8.77,5.93-17.59,11.77c-4,2.65-8,5.38-12.13,7.85a3.61,3.61,0,0,0-1,.66,1.66,1.66,0,0,0-.31.32,5.88,5.88,0,0,0-.53,1,20.59,20.59,0,0,0-1.11,2.35L296,318.6c-.52,1.08-1.06,2.3-1.65,3.53a20.23,20.23,0,0,1-4.45,6.22,7.77,7.77,0,0,1-3,1.45s0,.06,0,.12l-.21.06s0,0,0,.09a1.7,1.7,0,0,0,0,.37h0l-.25.07c-.08,0-.06,0,0,.06l-.14,0,.22.14a.24.24,0,0,0,0,.13l-.18,0,.2.09a.24.24,0,0,0,.16.11v0c-.36.09-.14.35.14.42a.47.47,0,0,0,.16.11c.11.37.4.73.62.68l.21-.06a.6.6,0,0,0,.43.19,8.09,8.09,0,0,0,1.08-.33,10,10,0,0,0,5.15-4h0l0,0,.3-.42a38.66,38.66,0,0,0,4.17-7.37c.6-1.33,1.26-2.65,1.89-4l2.16-4.48c.23-.48.44-1,.72-1.53a3.92,3.92,0,0,1,.43-.29c9-5.32,17.55-11.4,26.2-17.23Q339.17,287,347.86,281c2.63-1.82,5.26-3.63,7.85-5.5a24.23,24.23,0,0,0,4-3.19.3.3,0,0,0,0-.3c.13-.13.27-.25.39-.38S360.11,271.06,359.71,270.85Z"/><path class="d" d="M290.42,398.12c-.09-9.59-.22-19.18-.44-28.77,0-1.95,0-3.89-.08-5.84-.12-6.86-.19-13.73-.46-20.59q-.16-4-.31-8.06a7.31,7.31,0,0,0-.41-2.65.38.38,0,0,0-.1-.12,6.48,6.48,0,0,0-.26-.95c-.11-.31-.88-.42-1.55-.32v0a.66.66,0,0,0-.85-.55c-.21-.14-.45-.19-.57,0-.2-.1-.38-.13-.38,0s0,.25,0,.37l0,0c-.18-.07-.33-.09-.33,0s0,.14,0,.21h-.36c0,.24,0,.49,0,.73v0s-.08,0-.08,0v.21c-.11,0-.18-.07-.18-.09,0,7.77.23,15.55.47,23.32q.15,5.27.28,10.53c.27,11.17.39,22.35.88,33.52,0,.11.21.2.43.26,0,.18,0,.36,0,.54s.53.27.86.13c.24.38.76.57,1,.39.29.09.55,0,.64-.22.33.07.58,0,.56-.41,0-.11,0-.21,0-.32.61.08,1.14,0,1.13-.3s0-.56,0-.84A.39.39,0,0,0,290.42,398.12Z"/><path class="d" d="M247.65,327.92l-.18-.07.49-.2c.76-.33.5-.94-.11-1.19a5.47,5.47,0,0,0-2.6,0l0,0a.72.72,0,0,0,.09-.19c.24-.94-.51-.88-1.16-.68a.72.72,0,0,0-.81-.18l0,0a.77.77,0,0,0-.63-.09c-6.39,2.86-13.55,3.7-20.46,4.06-.47,0-.36.34-.09.64l-.47,0c-.27,0-.26.14-.14.29l-.51,0a4,4,0,0,1,.64.1.51.51,0,0,0,0,.16h-.25c-.06,0,0,.18.16.39a3.94,3.94,0,0,1-.76.27l.74,0a.92.92,0,0,0-.06.39l-.1,0-.73,0a.69.69,0,0,1,.33.09h0c.14.07.28.17.43.26h0a.45.45,0,0,0-.19.16.55.55,0,0,0-.05.2l-.44,0a2.61,2.61,0,0,1,.45.1.18.18,0,0,0,.21.14h.32l.1,0h0a.55.55,0,0,0-.16.2.53.53,0,0,0,0,.26c-.38.22-.59.54.08.53h.21a.25.25,0,0,0,.13,0h.14a.76.76,0,0,0,.73.76l.82,0h.07a57.74,57.74,0,0,0,15.44-1.73c.59-.16,1.17-.35,1.75-.53l.05,0c.44-.14.88-.26,1.31-.41,1.29-.41,2.58-.86,3.85-1.4.31-.13.37-.34.28-.58.62-.24,1.24-.48,1.85-.75C249.21,328.67,247.87,328,247.65,327.92Z"/><path class="d" d="M278.25,257.49c.19-.38-.51-.71-.9-.56-.07-.21-.26-.39-.47-.25-.07-.07-.14-.11-.19-.07l-.13.1c-.07-.05-.13-.08-.15-.06a14.22,14.22,0,0,1-2.25,1.46l-2.53.73-3.69.49c-.94,0-1.89,0-2.81,0s-1.85-.08-2.77-.14a97.55,97.55,0,0,0-10.67-.62l-.37,0a25.42,25.42,0,0,0-2.88.31l-.5.08-.67.13c-1.89.37-3.75.89-5.62,1.43-3.17.91-6.31,1.95-9.47,2.93a44,44,0,0,1-7.2,1.79c-.72.21-1.44.39-2.16.55-2.48.4-5,.65-7.58.84l-.05,0h-.25s.1.06.16.14h-.33s.09.07.15.15,0,0,0,.06a.3.3,0,0,0-.12.3l-.22,0c-.12,0,0,0,.19.07l0,0h-.33a.54.54,0,0,1,.28.09.21.21,0,0,0,0,.09l-.06.09h-.17l.16,0c0,.07,0,.11.2.11l0,0,0,.07c-.21.1-.31.35,0,.34h0a.29.29,0,0,0,.22.11c.09.31.33.61.56.61h.28a.61.61,0,0,0,.32.15l5.35-.11a50,50,0,0,0,7.29-1.54c3.18-.84,6.31-1.84,9.43-2.86,2.33-.76,4.72-1.59,7.14-2.26l1.26-.33a33.59,33.59,0,0,1,3.62-.7,30.39,30.39,0,0,1,5.68-.11c4.29.24,8.61.81,12.92.63a23.08,23.08,0,0,0,5.1-.7,9.1,9.1,0,0,0,3.81-2.08.27.27,0,0,0,.06-.1l.31-.24c.11-.09.1-.25,0-.42l.26-.21C278.72,257.93,278.55,257.68,278.25,257.49Z"/><path class="d" d="M288.81,270.87c.34-.39-.5-.71-1-.63a.39.39,0,0,0-.51-.24c-.08-.07-.16-.1-.23-.05L287,270c-.07,0-.13-.07-.16-.05-3.51,2.5-7.06,4.85-10.4,7.47q-.75.58-1.48,1.17l-.09.07a46.67,46.67,0,0,0-5.34,5,36.85,36.85,0,0,0-4.67,6.51,29.44,29.44,0,0,0-1.54,3,27.46,27.46,0,0,0-2.11,7.26,31,31,0,0,0,.06,8.66s.08,0,.18.06l0,.35c0,.1.14.13.29.13a.39.39,0,0,0,.18.07c.15.29.51.53.71.48.26.15.51.17.56-.1.25.07.44,0,.42-.22,0-.08,0-.17,0-.25.38,0,.7-.06.68-.41-.33-5.58,0-10.33,2.09-15.4a27.85,27.85,0,0,1,3.31-5.86,42.12,42.12,0,0,1,4.23-4.8c4.44-4.31,9.72-7.52,14.73-11.1.09-.07.09-.18,0-.31l.39-.27C289.37,271.32,289.16,271.07,288.81,270.87Z"/></svg>