<svg xmlns="http://www.w3.org/2000/svg" xmlns:xlink="http://www.w3.org/1999/xlink" viewBox="0 0 504 504"><defs><style>.a{fill:none;}.b{fill:#00a6e9;}.c{fill:#2aace2;}.d{clip-path:url(#a);}.e{clip-path:url(#c);}.f{clip-path:url(#e);}.g{clip-path:url(#f);}.h{clip-path:url(#g);}.i{fill:#fff;}</style><clipPath id="a"><rect class="a" x="114.47" y="237.08" width="34.41" height="41.63" transform="translate(-155.74 222.64) rotate(-55.96)"/></clipPath><clipPath id="c"><rect class="a" x="138.82" y="194.75" width="34.05" height="44.49" transform="translate(-109.76 188.26) rotate(-48.14)"/></clipPath><clipPath id="e"><rect class="a" x="222.35" y="150.43" width="31.37" height="42.52" transform="translate(-21.85 35.32) rotate(-8.11)"/></clipPath><clipPath id="f"><rect class="a" x="222.35" y="150.43" width="31.37" height="42.52" transform="matrix(0.99, -0.14, 0.14, 0.99, -21.85, 35.32)"/></clipPath><clipPath id="g"><rect class="a" x="177.56" y="162.74" width="32.53" height="43.82" transform="translate(-60.48 101.01) rotate(-25.4)"/></clipPath></defs><title>care</title><path class="b" d="M203.47,216.74h0l.27-.29c0-.05-.11-.05-.3,0l.06-.06c.2-.23,0-.32-.23-.32a.67.67,0,0,0-1.06-.37h0c-.63-.51-1.45-.9-1.76-.58A112.18,112.18,0,0,0,186.35,231q-6.37,8.44-11.87,17.46a308,308,0,0,0-17,32.27l-.8,1.7c-6.56,14.25-12.34,28.81-18,43.42-10.54,27.08-20.34,54.41-29.73,81.91-.14.41.38,1,1,1.47l-.12.38c-.1.3.14.53.45.67.12.41.63.63.8.16h0c.07.27.17.52.19.46l.11-.31h.11c0,.18.08.28.13.13l.07-.2a.17.17,0,0,0,.13,0l0,0c.09.15.16.3.13.41l.13-.38a.25.25,0,0,0,.18-.05.41.41,0,0,0,.2-.16c.07,0,.12,0,.12,0h0c.08.05.13.1.12.12l.17-.49c.11.06.19.09.19.07l.19-.56,0,0q3-8.64,6-17.26c6.46-18.49,13.12-36.91,20.12-55.22,5.5-14.39,11.1-28.74,17.22-42.88,5-11.46,10.27-22.77,16.34-33.69l.15-.26q4.94-8.79,10.58-17.14,2.89-4.26,6-8.36t6.61-8.19s0,0,0,0l.22-.26s0,0,0,0q3.28-3.81,6.76-7.44s-.1-.13-.25-.25l.34-.37a.35.35,0,0,0,0-.23.48.48,0,0,0,.06-.35.57.57,0,0,0,0-.25,1.47,1.47,0,0,1,.15-.24l-.16.18v0l.22-.24C203.8,216.66,203.66,216.68,203.47,216.74Z"/><path class="b" d="M280.05,205.65c.24-.78.26-1.67-.38-1.66-.05-.5-.19-.86-.4-.85l-.64,0a.41.41,0,0,0-.33-.2l-15.48.79q-11.61.78-23.09,2.67-7.69,1-15.26,2.64-11.44,2.07-22.64,5.24a.43.43,0,0,0-.27.24l-1.44.39c-.26.07-.07.81.3,1.55-.42.25-.1.86.34,1.29-.14.3-.05.74.33.72,0,.16,0,.29.08.27l.33-.08a.08.08,0,0,0,.11.06l.41-.11c0,.17-.09.31-.16.33l14-3.48.79-.17v0l.61-.13c0,.06,0,.1-.08.11,3.93-.87,7.89-1.64,11.85-2.36q5.37-.77,10.78-1.27c3.64-.75,7.28-1.38,10.94-1.93q14-1.59,28.11-2l0-.25.63,0c-.06,0-.13-.06-.19-.15l0,0,.4,0s-.1-.08-.16-.18a.15.15,0,0,0,0-.09h0a.31.31,0,0,0,.26-.12h.23c.16,0,.14-.15.05-.31C280.49,206.43,280.4,205.85,280.05,205.65Z"/><path class="b" d="M322.27,218.72a6.85,6.85,0,0,0,.09-4.57,5.53,5.53,0,0,0-.2-1,2.83,2.83,0,0,0-.25-.54,5.23,5.23,0,0,0-.25-.87,3.72,3.72,0,0,0-2-2.13l-.57-.22-.22-.14a13.52,13.52,0,0,0-1.58-.49q-10.29-1.65-20.67-2.63c-.17,0-.27.32-.29.79l-1.15-.12c-.53-.07-.24.83.25,1.66-.38.17,0,.81.38,1.22-.12.28-.1.68.26.73h.09a.85.85,0,0,0,0,.25l19.08,2.42c.18,0,.35,0,.52,0,0,.15,0,.27.1.28a4.82,4.82,0,0,1,1,.13q.52.43,1,.9l.34.14.06,0a8.4,8.4,0,0,1-.8,3.94c-.14.24-.28.48-.44.71s-.23.63-.37.94a24.51,24.51,0,0,1-1.67,2.67c-.12.14-.24.3-.37.43a17.75,17.75,0,0,1-3.4,3.47,29.67,29.67,0,0,1-4.86,3.06c-.66.26-1.34.51-2,.71a27.21,27.21,0,0,1-9.61.67c-.14,0-.22.23-.24.58l-.34,0a.31.31,0,0,0-.31.14l-.56,0c-.34,0-.32.33-.13.81l-.48,0c-.79-.07.15,1.07.19,1.1.21.22.47.5.76.76-.19.19-.11.56.16.79,0,.21.06.4.25.42l.55,0c0,.13,0,.23.07.24a27.36,27.36,0,0,0,9.63-.66c.41-.11.82-.24,1.22-.37l.57-.19a25,25,0,0,0,8.33-4.48,19.74,19.74,0,0,0,2.18-2,20.78,20.78,0,0,0,5.59-9.16C322.18,219,322.24,218.85,322.27,218.72Z"/><path class="b" d="M296.24,233.59a4.83,4.83,0,0,0-.36-1.14,5.45,5.45,0,0,0-.42-1.33,5.89,5.89,0,0,0-.66-1.65c-.81-1.39-2.24-2.37-3.06-3.74,0-.09-.07-.18-.1-.28a.28.28,0,0,0-.14-.17,4.22,4.22,0,0,1-.23-.59c-.08-.27-.3-.28-.51-.2-.09-.54-.29-1.51-.8-1.41-.35.07-.37.53-.32,1-.21-.08-.45-.12-.55,0a1.45,1.45,0,0,0-.27-.2c-.45-.23-.75-.06-.64.47a6.68,6.68,0,0,0,.28,1,.48.48,0,0,0-.09.23,2.44,2.44,0,0,0,.41,2.15c.09.13.19.26.29.39a2.82,2.82,0,0,0,.64,1.35,9.45,9.45,0,0,0,1.22,1.32l.12.13.75.84c.65,2.48-.89,5.11-2.23,7.06-.11.16-.23.3-.35.45a34.79,34.79,0,0,1-4.58,4.08c-6.89,5.25-14.56,9.55-22.14,13.7-6.7,3.67-13.5,7.16-20.26,10.72-.25.13-.11.66.18,1.24-.54.32-.09,1,.48,1.52-.15.34,0,.82.38.81,0,.15,0,.25.13.2l.31-.16c0,.11.09.17.26.08l.27-.14.07,0h0a.43.43,0,0,0,.31,0l.26-.13.14-.06.07,0,.1,0,.17-.09h.06l.07,0c.08.07.14.12.17.11,6.77-3.57,13.58-7.07,20.3-10.75,8-4.39,16.33-8.91,23.41-14.74,2.45-2,5.38-4.86,6.36-8.13l.08-.18A6.67,6.67,0,0,0,296.24,233.59Z"/><path class="b" d="M280.11,223.71a.83.83,0,0,0-.24-1c0-.48-.23-.89-.62-.83-.21-.79-.54-1.45-.8-1.34-11.59,5.09-23.16,9.88-35.19,13.84-11.15,3.67-22.42,6.89-33.73,10-.23.06-.36.37-.4.77l-1,.33c-.34.11-.15.84.24,1.48-.3.29,0,.85.39,1.11-.13.28-.17.6.05.54l.23-.06a.36.36,0,0,0,.23,0l.07,0s0,.08,0,.09-.07.23,0,.22l1.19-.33h.12l8-2.25,3.39-1s.1.07.13.06q10.76-3.06,21.38-6.55c0,.12,0,.2-.09.22q11.94-3.92,23.57-8.67s.06-.08.07-.17l1.48-.59s-.05,0-.11-.12l.57-.25q5.55-2.32,11-4.84c.07,0,.05-.09,0-.15l.34-.15C280.45,224.05,280.3,223.87,280.11,223.71Z"/><path class="b" d="M256.82,291.51l-.37-.38a1.08,1.08,0,0,0-.13-.85l-.23-.26a1.74,1.74,0,0,0-.24-.87l-1.38-1.77-1.76-3.7a17.54,17.54,0,0,1-.1-2q0-.49,0-1a42.86,42.86,0,0,1,2-9.48c.06-.22-.28-.36-.48-.45l0-.15c.11-.42,0-.82-.37-.89,0-.72-.19-1.35-.65-1h0a2.87,2.87,0,0,0-.75-1.21c-.29-.27-.53.24-.56.4l-.07.33c-.28-.16-.52,0-.56.34a1.58,1.58,0,0,0-1.27-.29c-.45,0-.36.48-.06,1a.31.31,0,0,0,0,.36c-.14.14-.05.41.14.68-1.17,4-2.52,8.35-1.75,12.5a16.83,16.83,0,0,0,.91,3.18,11,11,0,0,0,1,2.74,12.15,12.15,0,0,0,2.83,3.39l.71.66a.56.56,0,0,0,.62.09l.32.31c.1.09.14-.12.13-.37l.25.24c.06.06.1-.1.1-.3l.36.36a.85.85,0,0,1-.18-.41l.06,0,.3.31a.52.52,0,0,1-.09-.36.43.43,0,0,0,.29-.16l0,0,0-.05v0l0,0a.74.74,0,0,1,.29.15l-.25-.26a.46.46,0,0,0,0-.13v0a.12.12,0,0,0,0-.07.69.69,0,0,0,.25,0c.17.09.29.14.19,0l-.11-.11s0-.08-.07-.15l0,0a.57.57,0,0,0,.05-.13C256.76,291.7,257,291.71,256.82,291.51Z"/><path class="b" d="M307.1,258.16a25.91,25.91,0,0,0-3.2-9.07c-.55-1.08-1.17-2.13-1.81-3.16a40.69,40.69,0,0,0-5.34-7.39c-.23-.25-.62,0-.73.23,0,0,0,0,0,.06H296c-.41-.54-1-1.23-1.39-1.14-.64.16-.19.76,0,1.08l.36.51a.39.39,0,0,0-.18.55c2.42,4.85,6,9.1,7.61,14.35a18.72,18.72,0,0,1,.7,8.58,12.77,12.77,0,0,1-.4,2.07l-.35.26-.22.08q-3.2,1-6.35,2.22a422.42,422.42,0,0,0-40.94,17.09.37.37,0,0,0-.08.07l-1.5.71c-.16.08-.11.38.06.76l-.24.13c-.63.35.25,1.28,1.08,1.82a.58.58,0,0,0,.48.75c0,.15.09.24.21.19l.24-.11a.16.16,0,0,0,.26.1l.15-.07c0,.11,0,.2,0,.21,4-2,8.11-3.85,12.22-5.64l3.38-1.45h0q7.22-3,14.52-5.86l2.75-1.06,1.54-.58c2.42-.91,4.85-1.78,7.28-2.65a49.69,49.69,0,0,0,6.78-2.56l.05,0a3.49,3.49,0,0,0,1.43-1.08,3.26,3.26,0,0,0,.68-.54c.05-.06.09-.12.13-.18a3.06,3.06,0,0,0,.58-.88C308,264,307.76,261,307.1,258.16Z"/><path class="b" d="M303.61,287.65a13.66,13.66,0,0,0-.76-5.55c-.08-.31-.16-.62-.26-.94l-1-2.7a14,14,0,0,0-.88-1.71,11.41,11.41,0,0,0-2.2-3c-.38-.48-.77-1-1.23-1.44s-.62-.07-.76.24a.47.47,0,0,0,0,.14.32.32,0,0,0-.26,0c-.36-.4-.75-.74-1-.67-.65.16-.21.78,0,1.11l.1.15c-.34.06-.64.23-.38.65l.65,1.08a.6.6,0,0,0,.06.37c.85,1.67,1.8,3.28,2.61,5a16.74,16.74,0,0,1,.88,3.31,11.56,11.56,0,0,1-1.64,7.77,23.38,23.38,0,0,1-3.59,4.18,47.56,47.56,0,0,1-8.44,6c-2.35,1.39-4.73,2.74-7.11,4.1l-9.22,5.2c-7.44,4.14-14.92,8.23-22.35,12.39-.19.11-.12.48.1.92l-.16.1c-.57.34,0,1.09.71,1.61a.58.58,0,0,0,.27.88c0,.24.15.41.37.29l.29-.16a.23.23,0,0,0,.12.1c0,.18.09.32.06.34l.32-.18s0,.08,0,.09q6.43-3.61,12.88-7.2c.06.05.12.09.14.07l23.84-13.41q3-1.69,6-3.54c.71-.48,1.42-1,2.11-1.47,0,0,0,.05,0,.06l.71-.6a28.37,28.37,0,0,0,5-4.66c.3-.37.59-.76.87-1.15a15,15,0,0,0,2.63-5.06A11.66,11.66,0,0,0,303.61,287.65Z"/><path class="b" d="M251,284.72c0-.18,0-.36,0-.54s.06-.41.08-.61a.61.61,0,0,0-.38-.7.9.9,0,0,0-.43-.73.64.64,0,0,0-.2,0,3.11,3.11,0,0,0-.58-1.24.59.59,0,0,0-1.07.29l-.1.37a.39.39,0,0,0-.38.05l-.27-.26c-.23-.23-1.36-1.29-1.53-.29a14.9,14.9,0,0,1-1.14,5,24.74,24.74,0,0,1-3.74,7.31A95,95,0,0,1,230,307.37a109.9,109.9,0,0,1-13.52,12,187.15,187.15,0,0,1-18.17,11.69c-.39.23,0,1.19.62,2.11-.55.47-.1,1.23.54,1.74-.23.44,0,1.1.45,1.14,0,.24.1.4.24.32l.5-.29c0,.19.08.31.23.23l1.39-.81a.73.73,0,0,0,.32-.06l.11-.06a.32.32,0,0,0,.2,0q2.32-1.35,4.59-2.74c0,.18,0,.33,0,.37A174.34,174.34,0,0,0,223,322q3.67-2.87,7.13-6c1.73-1.57,3.44-3.18,5.08-4.88,6.53-6.78,12.6-14.31,15.75-23.27,0,0-.11-.1-.26-.19a19.85,19.85,0,0,0,.46-2.82S251.08,284.76,251,284.72Z"/><path class="b" d="M253.23,325.29c.19-.34.13-.87-.2-1-.06-.35-.23-.63-.53-.66-.19-.85-.54-1.61-.86-1.51-3.43,1-7.25,2.23-10.89,1.77a4,4,0,0,1-2.56-1q-2.06-5.26-3.95-10.58A.36.36,0,0,0,234,312l-.13-.36a.33.33,0,0,0-.39-.18l-.19-.52c-.13-.36-.38-1-.86-.57a.92.92,0,0,0-.13.77.46.46,0,0,0-.2,0,2.39,2.39,0,0,0-.68-.59c-.4-.19-.83,0-.63.48.13.35.26.73.39,1.11-.08.08-.11.21,0,.44a112.84,112.84,0,0,0,3.71,10.81,4.4,4.4,0,0,0,.56,1l.16.42a5.18,5.18,0,0,0,1.22,1.83,4,4,0,0,0,2.19,1.51,5.87,5.87,0,0,0,1.15.22c2.78.76,6.05-.14,8.75-.65,0,0,0-.17,0-.36,1-.25,1.92-.52,2.9-.82a.29.29,0,0,0,.13-.12l.05,0a.41.41,0,0,0,.14-.11l0,0h0a.62.62,0,0,0,.25-.16l.82-.25c.06,0,0-.09-.11-.17l.43-.13C253.63,325.64,253.44,325.44,253.23,325.29Z"/><path class="b" d="M295,318.11l-.4-3.43a20.73,20.73,0,0,0-.95-3.09c-.12-.37-.24-.75-.38-1.11a17.1,17.1,0,0,0-1.32-2.66,17.28,17.28,0,0,0-1.4-2.17,32,32,0,0,0-2.23-2.93c-.32-.38-.62-.08-.76.22a.5.5,0,0,0,0,.19.31.31,0,0,0-.25,0c-.34-.4-.72-.74-1-.67-.65.15-.23.78,0,1.11l.14.23c-.29.07-.56.26-.32.63l.58.92a.47.47,0,0,0,.07.47c.66,1,1.29,1.91,1.86,2.87a16.61,16.61,0,0,1,1.62,4.59l.4,3.43a32.06,32.06,0,0,1-1.33,7.26c-.28.64-.59,1.29-.91,2a.52.52,0,0,0,.08.42c-.07.18-.12.36-.2.54-.13.37.38.92,1,1.32l-.06.11a.66.66,0,0,0,.43.87c.11.29.3.5.45.18l.11-.21h0a.66.66,0,0,0,0,.1.23.23,0,0,0,.16.12.47.47,0,0,1,.06.34l.16-.35a.14.14,0,0,0,.07-.05l0-.09a.55.55,0,0,1,.06.38l.3-.65a.47.47,0,0,0,.32-.22.44.44,0,0,0,.19-.12l.06-.05c.16,0,.29,0,.32,0s.1-.19.15-.28l.11.05C293.83,325.08,295.25,321.87,295,318.11Z"/><path class="b" d="M266.42,349l.31-.47q.79-1.09,1.54-2.21,1-1.34,2-2.71s-.11,0-.22,0l.21-.3c0-.06-.07-.11-.24-.13.15-.26,0-.44-.23-.5-.1-.45-.67-.94-1.07-.52l-.11.11c-.41-.4-.91-.65-1.17-.37a93.91,93.91,0,0,0-8.62,9.86,68.86,68.86,0,0,1-7,7,68.78,68.78,0,0,1-7.6,6.33,88.53,88.53,0,0,1-11.1,7c-.13.08-.1.3,0,.58l-.41.23c-.56.32.19,1.1,1,1.65-.48.31-.21.7.21.91.05.31.28.57.63.37l.24-.13a1.61,1.61,0,0,0,.19.4l.33-.19,0,.07a104.22,104.22,0,0,0,18.76-13.33c.88-.81,1.73-1.64,2.56-2.47l.11-.11.53-.53.67-.67.1-.1c3-3.07,5.84-6.31,8.59-9.69C266.71,349.11,266.58,349.06,266.42,349Z"/><path class="b" d="M206.74,380.5s.08-.09.07-.13c-.83-2.51-1.69-5-2.59-7.45l-.11-.32c-.08-.21-.17-.42-.25-.64-.25-.66-.5-1.31-.76-2l-.17-.43a89.42,89.42,0,0,0-6-12.54,150.65,150.65,0,0,0-9.46-13.88.11.11,0,0,0-.06,0l-.21-.28a.3.3,0,0,0-.23-.11l-.18-.24a.54.54,0,0,0-.83-.07h-.07a1.64,1.64,0,0,0-.95-.51c-.29,0-.75.25-.47.64v0h-.09c-.14,0-1.06,0-.72.45l.63.89c-.41.16-.65.41-.43.75q6.8,10.34,12.59,21.3,3.48,7.74,6.25,15.76c.09.24.41.36.81.41l.08.21c.15.37.74.37,1.26.19.28.38.9.31.87-.13.18.1.34.14.35,0l.19.11-.16-.48c.13,0,.23-.18.19-.42a.56.56,0,0,0,.07-.17.47.47,0,0,0,.18-.3c.11-.11.2-.21.18-.28l0-.07c.05-.05.09-.1.07-.14Z"/><path class="b" d="M206,389.86l.1-.33s-.15.06-.32.08l.09-.29c.05-.17-.11-.2-.3-.17.07-.52-.65-.69-1-.33-.47-.39-1.09-.68-1.26-.32l-.28.53a.39.39,0,0,0-.22.2A72.13,72.13,0,0,0,197,405.31q-2.15,6.93-3.78,14c-.42,1.71-.81,3.42-1.18,5.12q-1.48,6.14-2.56,12.36a82.66,82.66,0,0,0-1.92,14.72q-.29,2.35-.55,4.71c0,.26.18.53.51.77,0,.34,0,.67,0,1s.3.46.7.54c.12.42.67.49,1.07.34.2.26.49.43.53.06l0-.23h0c.14.17.27.28.28.16l0-.35c.1.06.2,0,.23-.25v0a.5.5,0,0,0,.07-.15.44.44,0,0,0,.25-.36v0l0,0c.18,0,.32-.09.33-.17.4-3.6.82-7.19,1.28-10.77l.16,0,1.65-10.6-.2,0q.78-4.53,1.73-9c.1-.47.2-1,.31-1.42,2.16-9.46,4.88-18.75,7.69-28,0,0-.05.06-.08.08q1.23-4,2.47-7.95S206.07,389.84,206,389.86Z"/><path class="b" d="M225.92,320l.13-.29c0-.11-.1-.14-.29-.13a.32.32,0,0,0-.28-.49.8.8,0,0,0-1.27-.37h-.13c-.8-.64-1.83-1.09-2-.67-.13.25-.25.5-.38.76-.26,0-.45.1-.52.27a93.43,93.43,0,0,0-4.75,12.44,94.56,94.56,0,0,0-3.55,12.83c-.61,2.82-1.11,5.67-1.52,8.54A96.35,96.35,0,0,0,210,364.12a129.67,129.67,0,0,0,.67,26.55l1.45,8.74a70,70,0,0,0,5.39,17.35c.07.19.47.3,1,.35l0,.09c.16.45.81.52,1.35.37.1.2.23.38.44.38a.38.38,0,0,0,.37-.51c.24.23.5.31.39-.1a.92.92,0,0,1,.32.37l-.18-.59a.55.55,0,0,0,.17-.19.56.56,0,0,0,.3-.29.4.4,0,0,0,.27-.47l0-.06c.17-.06.29-.13.28-.16l-.09-.27a.21.21,0,0,0,0-.16l-.07-.23a.46.46,0,0,0,0-.38l-3.83-13.84c-.81-3.66-1.48-7.36-2-11.09a129.28,129.28,0,0,1-1.07-17.74s-.14-.06-.31-.08c0-.13,0-.26,0-.39q.12-6.1.71-12.17c.17-1.39.35-2.78.56-4.16h-.1c0-.34.07-.68.12-1,.11-.84.25-1.66.38-2.49.1-.65.2-1.29.31-1.94.17-.89.33-1.78.52-2.66h0l.05-.26c.09-.32.16-.64.26-1s.13-.77.19-1.16a137.2,137.2,0,0,1,4.59-15.59c.91-2.39,1.88-4.76,2.94-7.09,0,0,0-.11-.15-.19l.24-.53a.49.49,0,0,0,0-.21l.42-1.06v0l.08-.2S226,320,225.92,320Z"/><path class="b" d="M235.15,320.36l.12-.25c0-.07-.1-.09-.28-.07l0,0c.12-.26,0-.38-.22-.41a.65.65,0,0,0-1.08-.3h0c-.6-.52-1.4-.88-1.59-.53-.11.18-.21.37-.32.56a.51.51,0,0,0-.47.22,58.17,58.17,0,0,0-4.82,11.18A124.45,124.45,0,0,0,223,343.93a203,203,0,0,0-3.61,25.56c0,.15,0,.29,0,.44a206.76,206.76,0,0,0-.79,28.41q.19,7.41.8,14.81c0,.18.28.42.64.65,0,.29.08.58.12.88s.26.38.55.47v.06c.06.51.7.51,1.07.23.2.27.47.52.44.19,0-.08,0-.17,0-.25l.09,0c.14.2.29.34.27.13s0-.16,0-.24a.49.49,0,0,0,.25-.4l0-.05.09-.1a.5.5,0,0,0,.22-.28c.21,0,.4-.1.4-.15,0-.21,0-.42,0-.64,0,0,0,0,0,0q-.25-3-.43-6.06c0-.72-.07-1.45-.11-2.17-.06-1.16-.12-2.31-.16-3.47q-.08-2.28-.13-4.55c0-.37,0-.75,0-1.12q0-2.79,0-5.58v-.11q0-8.69.68-17.36l.07-.91q.18-2.35.41-4.69c.07-.76.15-1.52.23-2.28.11-1.06.22-2.11.35-3.17s.24-1.94.37-2.91c.09-.72.19-1.44.29-2.16q.3-2.11.65-4.21c.05-.32.1-.64.15-1q.41-2.39.88-4.76l.1-.53q.53-2.6,1.14-5.2c.09-.42.2-.84.29-1.26l.08-.33c1.16-4.15,2.49-8.24,4-12.33,0,0,0-.07-.08-.12q.54-1.35,1.12-2.67c.49-1,1-2.09,1.52-3.11a.36.36,0,0,0,0-.14c.15-.29.29-.59.44-.88a.58.58,0,0,1-.16.19l.17-.35S235.23,320.35,235.15,320.36Z"/><path class="b" d="M307.3,180.53c-.08.08-.25.08-.44.08l.14-.15s0,0,0,0l.13-.13c.14-.15.09-.23,0-.27l.07-.07c.19-.2.11-.34-.06-.42a.61.61,0,0,0-.46-.47c-.22-.59-.77-1.15-1.28-.7l-.11.1a.49.49,0,0,0-.18,0c-.66-.58-1.4-1-1.69-.7a270.65,270.65,0,0,0-19.67,21.72c-2.76,3.49-5.39,7.06-7.94,10.68q-2.68,3.62-5.07,7.42-2,3.06-4,6.16a.78.78,0,0,0,0,.7l-.32.59c-.22.37.34,1,1,1.46l-.08.13c-.24.41,0,.73.35.89.12.4.5.71.77.29l.07-.1c.11.28.27.55.32.47l.23-.35c.08.15.15.25.17.22l.46-.72a.62.62,0,0,0,.18-.15.5.5,0,0,0,.3-.2h0a.47.47,0,0,0,.26,0c.13.1.22.18.21.19q5.17-8.52,11.05-16.56c.63-.86,1.27-1.71,1.92-2.56l.56-.72c.6-.8,1.21-1.6,1.83-2.39l.92-1.18q.79-1,1.58-2l.51-.63q2.23-2.72,4.56-5.36s0,0,0-.07l.51-.6h0q2.75-3.12,5.59-6.16s0-.08-.08-.17q3.25-3.45,6.58-6.84s0-.13,0-.23Z"/><path class="b" d="M311.84,190.1s-.17,0-.33-.09a.2.2,0,0,0,0-.26.4.4,0,0,0-.16-.62,1,1,0,0,0-.47-.59c-.29-.68-.8-1.27-1.24-.83l-.14.13c-.24-.15-.44-.21-.56-.09l-.07.07c-.35-.21-.66-.29-.81-.13-4.18,4.57-8.23,9.19-12,14.12-2,2.66-3.92,5.38-5.75,8.14a51.82,51.82,0,0,0-2.85,4.4q-1.26,2-2.51,4a.89.89,0,0,0,.07.81c-.07.15-.14.3-.21.45-.19.36.28,1,.85,1.38h0a.62.62,0,0,0,.32.88c.07.28.22.47.41.19l.2-.31h0c0,.08,0,.15.08.23l0,.07c.06.15.11.29.06.36l.29-.45c0,.15.08.28,0,.36l.35-.55a.45.45,0,0,0,.25-.14.41.41,0,0,0,.26-.15.21.21,0,0,0,.11-.06l0,0c.11,0,.21,0,.25,0s.18.15.17.16q4.14-7,8.9-13.68,4.44-6.16,9.43-11.89s-.06,0-.13,0Q309.24,193,311.84,190.1Z"/><path class="b" d="M359.35,216.58h.37a.48.48,0,0,1-.29-.14.23.23,0,0,0,0-.14.32.32,0,0,0,.08-.29h0l0-.06a.94.94,0,0,1,.18-.11h-.14a.38.38,0,0,0,0-.11c.12-.1.17-.19,0-.18h0c.15-.12.19-.25,0-.25a.3.3,0,0,0-.28-.38c-.11-.33-.38-.65-.63-.63s-.39,0-.59.06H358a2.05,2.05,0,0,0-1.23-.64,13.77,13.77,0,0,1-6.87-.64l-.91-.28c-.64-.23-1.28-.47-1.92-.74a6.84,6.84,0,0,1-3.49-2c-.14-.16-.29-.31-.41-.48l-.11-.09c-.14-.15-.26-.32-.41-.46a2.51,2.51,0,0,0-2-.82h0a2.52,2.52,0,0,0-1.66-.48,3.06,3.06,0,0,0-1,.28,7.07,7.07,0,0,1-.47-.94s0,0,0,0,0-.11,0-.16,0,0,0-.06,0-.3,0-.45c0-.33,0-.66,0-1,0-1.83.16-3.66.33-5.49,0-.27.05-.55.08-.82,0-.49.1-1,.15-1.47.65-6,1.64-11.91,2.55-17.86,0,0-.06,0-.15,0,.09-.59.18-1.19.27-1.78v0h0v0a.07.07,0,0,0,0-.06l0-.17s-.08,0-.18,0v-.09c0-.18-.11-.23-.28-.21a.46.46,0,0,0-.71-.33h-.06c-.44-.39-1.12-.65-1.29-.09l0,.13a.47.47,0,0,0-.45.24,26.57,26.57,0,0,0-1.27,6q-.68,4.14-1.26,8.3c-.66,4.82-1.51,10-1.11,14.87a9.44,9.44,0,0,0,.3,1.86c.11,1.3.45,2.56,1.42,3a1.4,1.4,0,0,0,.61.47,2,2,0,0,0,1,0c.36.2.65.13,1.24,0l.15-.06a2.48,2.48,0,0,0,.8-.34l.88-.19.06,0a3.12,3.12,0,0,1,.52.69l.75.82a5.65,5.65,0,0,0,.67.5c1.48,1.21,3.6,1.8,5.35,2.48a24.46,24.46,0,0,0,5.9,1.56,9.4,9.4,0,0,0,2.31.08,21.22,21.22,0,0,0,2.49,0,.26.26,0,0,0,.26-.2H359l.07,0,.28,0s-.11-.05-.17-.12a.4.4,0,0,0,0-.14h0A.25.25,0,0,0,359.35,216.58Z"/><path class="b" d="M355.76,187c0-1.27,0-2.58-.1-4.09,0-.28,0-.55-.06-.83s0-.48-.07-.72q-.11-1.2-.28-2.39c-.06-.47-.12-.93-.19-1.39a34.52,34.52,0,0,0-.86-5.21q-.28-1.34-.62-2.66a51.22,51.22,0,0,0-2.47-7.89H351l0-.13s-.06,0-.13,0l0-.11c0-.13-.18-.1-.3,0h-.05c-.19-.22-.66-.27-.68,0-.19,0-.33.08-.28.29l.07.25c-.14.07-.24.17-.21.3a139.81,139.81,0,0,1,3.48,16,102,102,0,0,1,.48,16.36c0,.12.13.18.31.21,0,.33.4.32.71.18.14.15.4.16.46-.05A.14.14,0,0,0,355,195l.13.05c0-.06,0-.11,0-.17s.11,0,.11.06,0-.15,0-.23h.09A68.56,68.56,0,0,0,355.76,187Z"/><path class="b" d="M362.83,214.74a2.58,2.58,0,0,0,.15-.9,2.69,2.69,0,0,0,0-.29,3.73,3.73,0,0,0-.19-1.61,10.93,10.93,0,0,0-1.15-2.32c-.8-1.32-1.82-2.59-2.65-3.72l-.33-.43a3.71,3.71,0,0,0-2.24-1.68,4.21,4.21,0,0,0-1.19-.43c-.18,0-.41.08-.31.31v0l-.18,0c-.09,0-.37.06-.29.23l.26.55c-.24,0-.41.13-.3.36.35.62.66,1.26,1,1.91.29,2.36.74,5.73,1.71,7.78l.11.2a3.39,3.39,0,0,0-.6.4s0,0,0,0a1.46,1.46,0,0,0-.29.24c-.24.17-.07.39.2.58a1.71,1.71,0,0,0-.28.26c-.22.16.08.33.23.38,0,.12,0,.27.14.29l.58.12a.18.18,0,0,0,.07,0,10.86,10.86,0,0,0,2,.35,1.62,1.62,0,0,0,1.19,0h0a.86.86,0,0,0,.5,0c.15.17.43.22.44,0,.08,0,.14,0,.17,0l.12.06-.07-.21h0l.21.13-.07-.22.19.08-.09-.3,0,0,.16,0,0-.12s0,0,0,0l0-.09a.1.1,0,0,0,0-.1l-.18-.57a2,2,0,0,0,.44-.43A2.38,2.38,0,0,0,362.83,214.74Z"/><path class="b" d="M375.93,213.54a12.47,12.47,0,0,0,.31-3.24,14.78,14.78,0,0,0-.24-2.24,13.1,13.1,0,0,0-.57-2.42s-.05,0-.11,0l-.06-.19c0-.06-.11-.08-.23-.07l-.08-.25c-.06-.17-.3-.14-.5,0h-.12c-.32-.34-.91-.57-1.05,0,0,0,0,.06,0,.1a.37.37,0,0,0-.25.21,3.51,3.51,0,0,0-.16,1.94c0,.06,0,.12,0,.18.09.32.15.65.21,1,0,.07,0,.13,0,.2a11.2,11.2,0,0,1-.2,3.9c0,.07,0,.14,0,.21a3.69,3.69,0,0,1-1.55,1l-.33-.27a9,9,0,0,0-4.06-1.6,19.06,19.06,0,0,0-2.82-.47c-.5-.05-.52.24-.35.59h0c-.4,0-.39.42-.3.65a.84.84,0,0,0,.4.34.39.39,0,0,0-.24.21.43.43,0,0,0,.37.62.42.42,0,0,0,.4.35l.69.09.08,0,.52.06a8.92,8.92,0,0,1,4.07,1.62l.06,0c.84.68,1.35,1.17,2.14,1.06a1.4,1.4,0,0,0,1.42-.12l.11,0a2.77,2.77,0,0,0,.74-.28,2.15,2.15,0,0,0,.8-.86A4.55,4.55,0,0,0,375.93,213.54Z"/><path class="b" d="M308.28,153.67l.17-.13s-.12,0-.22-.11a.15.15,0,0,0,0-.25c.19-.17.09-.35-.11-.45a.6.6,0,0,0-.33-.5c-.17-.49-.58-1-1-.64l-.14.09a.36.36,0,0,0-.12,0c-.51-.49-1.09-.85-1.39-.64a63.57,63.57,0,0,1-9.9,6,15.59,15.59,0,0,0-3.6,1.89,2.22,2.22,0,0,0-.77,2.53h0a1.65,1.65,0,0,0,.06,1,2.3,2.3,0,0,0,.51.76,2.73,2.73,0,0,0,1.49,2,5.67,5.67,0,0,0,1.27.76.36.36,0,0,0,0,.34l-.74,1c-.16.21,0,.57.2,1l-.1.33c-.22.29.22.72.73,1l-.06.08c-.27.37,0,.63.37.72.08.2.25.35.48.24l.18-.09.06,0c.08.15.15.26.18.24l.24-.12s0,0,.05,0l.88-.45s0-.06,0-.11l.75-.38s-.06-.05-.12-.13l.05,0s0-.06,0-.1l.22-.11s-.09-.05-.18-.14a.2.2,0,0,0,0-.19l.56-.75-.06-.08.19-.26a.1.1,0,0,0-.06-.08,2.89,2.89,0,0,1-.12-.42.38.38,0,0,0,0-.41l0,0a2.31,2.31,0,0,1,0-.49,2.56,2.56,0,0,0,.13-.46h0a2.63,2.63,0,0,1,.15-.35s-.09-.13-.21-.23a.36.36,0,0,0,0-.13l0,0c.1-.27.06-.49-.16-.59a.55.55,0,0,0-.39-.52c-.12-.43-.32-.85-.54-.87a5.29,5.29,0,0,1-2.34-.72,4,4,0,0,1,.43-1q2.36-1.14,4.76-2.2a50.2,50.2,0,0,0,7.86-5.05s0-.1,0-.19l0,0a.24.24,0,0,0,.07-.09l.58-.44Z"/><path class="b" d="M326.36,164.39a2.65,2.65,0,0,0,.17-.89,2.15,2.15,0,0,0-.15-1.41s-.07-.08-.14-.1l0-.11a.43.43,0,0,0-.32-.3c-.09-.31-.26-.76-.58-.77a.43.43,0,0,0-.4.2.61.61,0,0,0-.23,0c-.77-.66-1.75-1.22-1.49-.3a1.73,1.73,0,0,1,.06.45.33.33,0,0,0-.31.35,3.2,3.2,0,0,1-.27,1.15,13.15,13.15,0,0,1-2.76,2.33,53.87,53.87,0,0,1-4.62,2.87,37.22,37.22,0,0,0-4.63,3.3,24.81,24.81,0,0,0-3.85,3.87v-.13a8.19,8.19,0,0,1,.26-.93s-.09-.09-.21-.17l0-.06a.22.22,0,0,0,0-.14c0-.07,0-.13,0-.2a.33.33,0,0,0-.2-.36c0-.28-.19-.58-.44-.61-.19-.55-.49-1.09-.8-.88l-.53.36h-.05c-.44-.39-.88-.64-1.12-.48l-.31.22a.32.32,0,0,0-.41.11c-.08.08-.14.17-.22.25l-.12,0c-.49-.46-1-.77-1.19-.55s-.58.7-.86,1.06a1.64,1.64,0,0,1-.61.11l-.05,0a2.08,2.08,0,0,1-.3-.1c0-.1-.09-.19-.13-.29a3,3,0,0,1,0-.34,6.75,6.75,0,0,0-.21-1.51,4.83,4.83,0,0,0-.67-2c-.1-.21-.23-.44-.41-.76a.24.24,0,0,0-.21-.11l-.43-.77c-.21-.39-.59,0-.68.22a.46.46,0,0,0,0,0l-.07,0a.36.36,0,0,0-.14,0,1.51,1.51,0,0,0-.72-.52c-.3,0-.83-.06-.53.48a4.25,4.25,0,0,1,.25.54c-.3.07-.47.2-.27.58.86,1.57.31,3,1,4.56a3.13,3.13,0,0,0,.8,1.08,2.7,2.7,0,0,0,1.1,1.58,2.93,2.93,0,0,0,.91.64l.27.1a3.87,3.87,0,0,0,.69.54l-.08.13c-.23.38.09.66.47.76.09.23.29.39.55.21l.16-.11h0c.09.17.18.32.22.29l.22-.15s.06.05.08,0l1.31-.91a8.51,8.51,0,0,0,.78,3.06,2.08,2.08,0,0,0,.58.61c.11.32.22.65.36,1,.05.16.27.27.52.33l0,.07a.42.42,0,0,0,.68.08l0,0,0,0c.09.19.19.35.24.26l.13-.21c.06.1.13.16.17.1s.25-.39.37-.59a.44.44,0,0,0,.11-.09c.13,0,.24,0,.27,0l.09-.16.07,0a28.53,28.53,0,0,1,3.64-5.1l.19-.19a31.66,31.66,0,0,1,5.83-4.52c1.48-.9,3-1.74,4.44-2.71a18.63,18.63,0,0,0,2.88-2.24,6.31,6.31,0,0,0,1.65-1.86c.1-.11.2-.22.29-.34S326.43,164.42,326.36,164.39Z"/><path class="b" d="M337.49,201.43l.61,0c-.1,0-.2-.14-.32-.3h.09c.2,0,0-.09-.19-.17,0,0,0,0,0,0,.19,0,.38,0,.55,0a1.7,1.7,0,0,0-.43-.35.3.3,0,0,0,0-.09.5.5,0,0,0-.17-.78c-.06-.32-.2-.6-.41-.61h-.08c-.2-.59-.54-1.11-.81-1.13a5.7,5.7,0,0,0-1.7.15.77.77,0,0,0-.22,0c-1.82,0-4,1-6.08,1.28a2.91,2.91,0,0,1-1.42-.41.57.57,0,0,0-.29-.24,1.58,1.58,0,0,1-.35-.54c-.15-.39-.55-.93-1-.46l-.29.23a.28.28,0,0,0-.35.06l-.07.11a1.51,1.51,0,0,0-.7-.36.41.41,0,0,0-.39-.22c-.22-.65-.57-1.24-1-1.14s-.92.2-1.33.27a.52.52,0,0,0-.31-.06l-.47.1c0-.31.09-.61.14-.92q2.06-5,4.49-9.76s0-.07,0-.11q1.84-3.72,4-7.28l-.38-.23,0-.06a.17.17,0,0,0-.06-.25l.07-.13c.13-.25,0-.4-.26-.47a.73.73,0,0,0-.52-.44c-.24-.56-.72-1-1.06-.49l-.14.21h0c-.59-.54-1.3-.9-1.5-.57a47.18,47.18,0,0,0-4.72,7.68c-.6,1.11-1.16,2.24-1.65,3.42a100.85,100.85,0,0,0-4.62,10.71c-.16.39.32.83.93,1.2l-.19.5c-.19.48.07.71.53.8,0,.19.11.45.25.47s.49.06.74.1a.76.76,0,0,0,.38.31,13,13,0,0,0,4.16.13,1.7,1.7,0,0,0,.48.42,1.77,1.77,0,0,0,1.08.83,2.67,2.67,0,0,0,.63.12,1.87,1.87,0,0,0,1.6.14l.21,0a2.27,2.27,0,0,0,.63.39,2.93,2.93,0,0,0,.78.19,3.13,3.13,0,0,0,1.33.41,10.51,10.51,0,0,0,3.73-.39c1.25-.22,2.55-.59,3.72-.85a9,9,0,0,1,1.05-.08.28.28,0,0,0,.28-.16,6.46,6.46,0,0,1,.74-.06,1.26,1.26,0,0,0-.16-.24,5.27,5.27,0,0,1,.58,0c-.14,0-.29-.14-.44-.28h0a.38.38,0,0,0,.22-.21l0,0h.49l-.46-.05A.4.4,0,0,0,337.49,201.43Z"/><path class="b" d="M298.61,153.2a.75.75,0,0,0,0-.09c.68-.12.5-.24-.2-.32a.45.45,0,0,0-.19-.08c-.14-.44-.36-.9-.62-.88l-.89.15c-.39-.35-.78-.6-1-.57a21.79,21.79,0,0,1-6.84.36,3.62,3.62,0,0,0-3.36-.67l.22-.24c.14-.15.25-.27.29-.32a5.23,5.23,0,0,0,.35-.54l.08-.15a2.9,2.9,0,0,0,.15-.35,5.23,5.23,0,0,0,.34-1.18s-.06-.1-.16-.16a2.28,2.28,0,0,0-.36-1.39.18.18,0,0,0-.08-.07c0-.1-.07-.2-.12-.31a.31.31,0,0,0-.26-.17l-.05-.15c-.19-.52-.69-.52-.88-.21-.33-.38-.77-.69-1.05-.38a18,18,0,0,0-1.26,2.2c-.56.81-1.6,1.26-2.08,2.13a2,2,0,0,0-.17,1.72,2,2,0,0,0,.65,2.13,1.9,1.9,0,0,0,.23.8,2.24,2.24,0,0,0,1.07,1,8.74,8.74,0,0,0,2.25.67,3.12,3.12,0,0,0,1.1-.26l.19,0c1-.32,1.11-.45,1.32-.48.46,0,1.19.08,2.28.12l.82,0,.4.14a34.61,34.61,0,0,0,3.83,0l-.17.87a.51.51,0,0,0,0,.27l-.14.68c-.07.36.34.76.85,1.07l-.09.49c-.06.31.23.5.58.55a.44.44,0,0,0,.8.06c.14.22.31.42.33.33l0-.22.08,0c.1.12.18.18.2.12l0-.19s.09-.09.12-.24v-.06l0-.07a.94.94,0,0,0,.19-.16l0,0c.18,0,.33,0,.34,0l0-.21c.07,0,.12.06.11.08l.93-4.79s-.09-.09-.21-.16l0-.1a.19.19,0,0,0,0-.13l0-.2s0,0,0-.07C299.22,153.37,299.1,153.28,298.61,153.2Z"/><path class="b" d="M272.56,133a1.07,1.07,0,0,0,.13-1s0-.06-.05-.09a1.07,1.07,0,0,0-.26-.66,1.34,1.34,0,0,0-.34-.43,2.39,2.39,0,0,0-2-1,3.69,3.69,0,0,0-1.31-.25c-.26,0-.13.3.1.61h0c-.51,0-.13.39.27.68-.27.08-.26.39.06.5,0,.1.06.19.16.2h0l.29.7c-.73.39-1.65.36-2.39.72a1.63,1.63,0,0,0-1.11,1.77c0,.06,0,.13.06.19a1.41,1.41,0,0,0,0,.24,1.65,1.65,0,0,0,.38,1,1.12,1.12,0,0,0,.62.94,3.1,3.1,0,0,0,1.34.42s0,0,0-.1a1.29,1.29,0,0,0,.19,0s0-.07,0-.15h0c.06,0,.12-.09.18-.17a1.28,1.28,0,0,0,.3,0s-.06-.05-.1-.11h.07s0,0-.1-.09l0,0h0a1.57,1.57,0,0,0,.2,0l-.11-.1a.16.16,0,0,0,0-.11c.1-.07.07-.2,0-.31a.41.41,0,0,0-.2-.37,2.58,2.58,0,0,1,.22-1l.12-.15.17,0a6,6,0,0,0,1.64-.51l0,0a2.78,2.78,0,0,0,.7-.5A1.44,1.44,0,0,0,272.56,133Z"/><path class="b" d="M274.39,143l.06,0c.23.08.13,0,0-.1l0-.06h0l.18.07-.14-.1a.1.1,0,0,0,0-.17.17.17,0,0,0-.06-.3.36.36,0,0,0-.2-.32l-.08,0a.74.74,0,0,0-.31-.45,4.13,4.13,0,0,1-1.75-.87l-.31-.3-.08-.11a4.8,4.8,0,0,1-.38-.9.22.22,0,0,0-.09-.11c0-.05,0-.09-.06-.15s-.14-.18-.22-.18-.08-.16-.1-.25-.27-.33-.46-.16a.23.23,0,0,0-.05.14.42.42,0,0,0-.21.06c-.43-.35-.89-.6-.71-.15.06.15.13.29.19.44-.15,0-.24,0-.19.14a6.55,6.55,0,0,0,.53,1.09,4.77,4.77,0,0,0,1.38,2,5.4,5.4,0,0,0,2.1,1.19.23.23,0,0,0,.17,0l.26.1s0-.06,0-.14l.18.07s0-.06,0-.15.09,0,.12-.13a.15.15,0,0,0,.1-.1.51.51,0,0,1,.26,0l-.21-.11Z"/><path class="b" d="M307.45,137a.68.68,0,0,0,.05-.12h.06c.32,0,.19-.07,0-.11l.35,0a.48.48,0,0,1-.25-.09.16.16,0,0,0,0-.22.25.25,0,0,0-.07-.41c0-.26-.09-.53-.34-.52h0c-.14-.41-.41-.79-.62-.78l-1,0a1,1,0,0,0-.49-.22c-5.79.18-11.37.54-16.95,2.29a66.54,66.54,0,0,0-6.26,2.35.34.34,0,0,0-.15-.19c0-.26-.15-.49-.38-.53-.15-.47-.41-.92-.7-.79s-.42.19-.62.29c-.35-.28-.69-.46-.89-.38A10.25,10.25,0,0,1,278,138a20.81,20.81,0,0,0,1.82-5.1c0-.11.06-.22.09-.33.2-.86.61-2.1.15-3a2.39,2.39,0,0,0-.06-.29,1.67,1.67,0,0,0-.26-.54,1.2,1.2,0,0,0-.31-.64l-.17-.07a1.76,1.76,0,0,0-.29-.47,1.64,1.64,0,0,0-.68-.38,2,2,0,0,1,0-.25c0-.08.05-.15.09-.23a2.74,2.74,0,0,0,.67-2.15h-.12a1.69,1.69,0,0,0-.1-.28,1.45,1.45,0,0,0-.15-.7s0-.06,0-.09a2.49,2.49,0,0,0-.82-1.13,5.19,5.19,0,0,0-1.11-1,4.18,4.18,0,0,1,.26-.66l.45-.42a76.87,76.87,0,0,1,8,.62c.08,0,.11-.06.1-.15l.2,0c.09,0,.09-.09.06-.21s.15-.07.18-.17a.29.29,0,0,0,0-.11.3.3,0,0,0,.12-.23h0l.22,0c.13,0,0,0-.18-.1l0,0,.35,0a.6.6,0,0,1-.29-.14v0c.13-.09.17-.19,0-.24.18-.12.24-.29,0-.34a.37.37,0,0,0-.31-.43h0c-.11-.31-.31-.59-.51-.62l-.93-.11a1.48,1.48,0,0,0-.74-.37c-2.47-.22-4.93-.63-7.41-.68-1.2,0-2.92-.19-3.72.87a1.55,1.55,0,0,0-.25,1.48,2.09,2.09,0,0,0,.53,1.69,2.52,2.52,0,0,0,.89,1.49l.07,0a9.83,9.83,0,0,0,2,1.43s0,.1,0,.15a4.31,4.31,0,0,0-.58,2.11,1.51,1.51,0,0,0-.1,1,1.64,1.64,0,0,0,.5.87,1.71,1.71,0,0,0,0,.33,2,2,0,0,0,.4.7,1.65,1.65,0,0,0,.42.3,1.24,1.24,0,0,0,.39.26l.2.47a20.43,20.43,0,0,1-1.11,3.24c-.74,1.81-1.58,3.58-2.33,5.39-.06.13,0,.36.22.61l-.13.3c-.13.3.24.67.66.94l0,.11c-.16.39.06.56.36.62a.34.34,0,0,0,.34.27h.35c.05.08.11.15.15.15.58,0,1.1,0,1.6-.08a1.75,1.75,0,0,0,.16.35l-.19.25c-.18.27.24.68.73,1l-.07.09c-.23.34,0,.57.35.65a.32.32,0,0,0,.46.22l.15-.08,0,0c.07.14.14.24.18.23l.21-.11h0A59.67,59.67,0,0,1,287,141q1.36-.48,2.75-.89a55.53,55.53,0,0,1,16.94-2.31.13.13,0,0,0,.14-.13H307c.1,0,.12-.08.1-.18.07.09.13.17.2.17s-.13-.08-.2-.18a.38.38,0,0,0,0,0,.27.27,0,0,0,.17-.16h0l.4,0a.65.65,0,0,1-.32-.13l0,0A.31.31,0,0,0,307.45,137Z"/><path class="b" d="M329.51,141a.3.3,0,0,1-.13-.1c.08,0,.07,0,0,0h0l-.07-.05,0-.07.19.07a.77.77,0,0,1-.14-.11c.05-.05.07-.11,0-.17.1-.09.11-.22-.06-.29a.34.34,0,0,0-.2-.3l-.08,0a.68.68,0,0,0-.29-.41,55,55,0,0,0-10.56-3.06.23.23,0,0,0-.09,0l-1-.23c-.43-.1,0,.61,0,.6l.06.08a.23.23,0,0,0-.19.37,1.57,1.57,0,0,0,.55.43c-.23.12-.34.34,0,.42h0a.23.23,0,0,0,.17.19l.43.09h0c.76.15,1.52.32,2.28.5a64.24,64.24,0,0,1,7.85,2.44.23.23,0,0,0,.16,0l.27.1s0-.06,0-.14l.18.06s0-.06,0-.15.11-.06.14-.14a.15.15,0,0,0,.07-.06l.09-.07Z"/><path class="b" d="M328.72,148.06l.15-.06s-.07,0-.12-.05,0-.09,0-.14c.13-.08.08-.21,0-.29a.43.43,0,0,0-.24-.35c-.1-.34-.32-.68-.53-.59l-.42.16c-.22-.19-.45-.32-.61-.25a37.45,37.45,0,0,0-9,4.65c-.11.06,0,.29.14.55l-.09.06c-.29.18,0,.53.4.77-.24.17-.06.39.19.49,0,.15.17.27.34.16l.09-.06,0,0c.05.1.11.18.14.17l.14-.09s0,0,0,0c.91-.64,1.86-1.22,2.81-1.78l.28-.14,3.24-1.66c.87-.39,1.76-.75,2.67-1.08,0,0,0-.06,0-.13h0a.19.19,0,0,0,.08-.1.25.25,0,0,0,.08-.11l.29-.11S328.75,148.08,328.72,148.06Z"/><path class="b" d="M328.93,128.34l.16-.15-.1-.1h0l-.09-.09s.08,0,.07,0l-.13-.13,0,0L328,127q-1.12-1.13-2.28-2.22l-.44-.41c-.48-.44-1-.89-1.44-1.32l-.43-.39-.81-.77q-3.23-2.88-6.64-5.54l-.08-.06-.37-.28q-2.53-2-5.15-3.79l-1.35-1s-.13,0-.21,0a.2.2,0,0,0-.13,0h0a.35.35,0,0,0-.54.18c-.21.06-.34.19-.14.34l0,0c-.31.11-.55.32-.32.49l0,0a.24.24,0,0,0,.08.32,111.38,111.38,0,0,1,10.12,7.8,106.13,106.13,0,0,1,9.5,8.59c.07.07.22,0,.38,0l.11.11c.18.17.41,0,.49-.2l.08,0c.19,0,.4,0,.28-.18.1,0,.18,0,.14-.08l-.08-.08c.1,0,.18-.07.16-.1l-.09-.09S329,128.37,328.93,128.34Z"/><path class="b" d="M336,122.29l-.11-.24s0,0,0,0l0-.06,0,0a117.57,117.57,0,0,0-8.08-15.32h0l-.07-.12s0,0-.08,0l-.09-.17s-.07,0-.14,0a.18.18,0,0,0-.18,0l0,0c-.12-.21-.33-.1-.43.06s-.38.18-.25.42h0c-.18.09-.3.25-.2.46q3.88,7.62,7.62,15.31l0,0,.17.34c.09.18.38.15.65,0,.15.29.52.14.61-.09a.31.31,0,0,0,.15,0c.11,0,.2,0,.17-.06l0-.09c.09,0,.18,0,.16,0l-.07-.15c.09,0,.16,0,.17,0l-.13-.27C336,122.27,336,122.27,336,122.29Z"/><path class="b" d="M344.24,130.25l0-.28h.23l-.6-7.79h0l0-.35s0,0-.11-.06v0c0-.1-.08-.13-.17-.14v0c0-.27-.3-.27-.46-.14h0c-.28-.25-.7-.36-.68.07a.23.23,0,0,0-.23.27l0,.44a.22.22,0,0,0,0,.14l.63,7.8c0,.12.11.19.24.23.08.25.38.26.58.16.14.13.35.2.33,0v0c.1.05.18.05.18-.06s.14.05.14.08l0-.31Z"/><path class="b" d="M367.11,160.51l0,0,.21,0-.14-.1,0-.05c.09,0,.14-.08.08-.12l0,0c.08,0,.1-.11,0-.18l-.06,0a.23.23,0,0,0-.11-.2l-.17-.12a.43.43,0,0,0-.14-.2l-7.13-5.15c-.16-.12-.26,0-.3.1a.22.22,0,0,0-.15,0l-.25-.18c-.2-.14-.43-.23-.53.06a.27.27,0,0,0,.06.22h0c-.14,0-.44.21-.18.39l.46.33c-.29.09-.48.26-.19.47l.19.13a.37.37,0,0,0,.12.13l7.18,5.11a.34.34,0,0,0,.4,0l.17.12c.13.09.13,0,.09-.18h0l.1.07c.11.08.09,0,0-.15.13.07.26.14.19.09l-.14-.1c.06,0,.09,0,.11-.11v-.07a.46.46,0,0,1,.29,0l-.24-.17Z"/><path class="b" d="M385,180.86l-.1-.16.1,0-.11-.18h0a.52.52,0,0,1,.19.13l-.12-.18a.07.07,0,0,0,0-.09l0,0a.08.08,0,0,0,0-.13,47.06,47.06,0,0,0-3.29-4.68,62.71,62.71,0,0,0-4.6-5.39l-.25-.24a47.64,47.64,0,0,0-4.61-4.36.24.24,0,0,0-.37,0,.11.11,0,0,0-.13,0c-.17-.16-.38-.31-.53-.24a.24.24,0,0,0-.12.36h0c-.13.07-.39.2-.17.4l.31.27c-.23.08-.36.24-.12.46l.13.12a.28.28,0,0,0,.05.08c.32.26.63.53.95.8q1.93,1.71,3.7,3.56l3.68,4.23a61.17,61.17,0,0,1,3.77,5.3.29.29,0,0,0,.15.09l.12.18c.1.14.33.11.49,0h0c.17.24.36.13.29-.08h0c.12.07.26.1.25,0l.13,0-.11-.18h0c.11,0,.22,0,.25.06l-.12-.18C384.89,180.84,385,180.83,385,180.86Z"/><path class="b" d="M386.36,168l-.18-.26c.1,0,.19,0,.21,0l-.1-.13s.07-.08,0-.12l0,0a.08.08,0,0,0,0-.12l-.14-.18v0a34.5,34.5,0,0,0-3.31-4,14.81,14.81,0,0,0-1.58-1.42,30.1,30.1,0,0,0-6-3.42.21.21,0,0,0-.3.07l-.54-.25c-.19-.09-.36.18-.28.33l.05.07c-.37,0-.35.33.22.61l0,0c-.34.1-.61.29-.26.45l.11,0c0,.08,0,.16.17.22a14.23,14.23,0,0,1,2.72,1.26l5.64,4.59a15.18,15.18,0,0,1,1.73,2.29.34.34,0,0,0,.18.09l.13.19c.1.13.36.1.55,0,.18.22.38.11.31-.1h0c.12.07.25.09.24,0l.11.05-.12-.16,0,0c.11,0,.22,0,.26.06l-.12-.17C386.24,168,386.33,168,386.36,168Z"/><path class="b" d="M385.46,152.23v0a.49.49,0,0,0,0-.12.89.89,0,0,1,.23,0l-.16-.06,0,0c.1,0,.16-.11,0-.15h0c.1,0,.15-.1,0-.14l-.05,0c0-.08,0-.15-.11-.2l-.09,0a.33.33,0,0,0-.2-.25,41.51,41.51,0,0,0-8.91-2.9l-.21,0-.65-.15a68.77,68.77,0,0,0-9.65-1.12c-.17,0-.08.19.11.44l-.35,0c-.36,0-.25.21-.17.4a1.21,1.21,0,0,0,.59.36c-.21,0-.4.07-.44.19-.1.29.14.35.38.36h.07c-.11.13-.12.24.1.25h.56s.06.06.1.06c1.17,0,2.33,0,3.48.13l10.52,2.21c1.22.42,2.43.87,3.61,1.39a.48.48,0,0,0,.35,0l.27.11c.15.06.2,0,.18-.16l.07,0c.1,0,.13,0,.12-.08l.1,0c.08,0,0,0-.12-.11l0,0a.15.15,0,0,0,.12,0l.2.07-.2-.08,0,0h0s0,0,0-.11a.73.73,0,0,1,.24,0Z"/><path class="b" d="M381.2,132.16h0l0,0a.57.57,0,0,1-.09-.12c.13,0,.21,0,0-.07h0l0-.06.19.07-.16-.12c.09,0,.12-.11,0-.16a.19.19,0,0,0-.09-.31.39.39,0,0,0-.19-.32l-.11-.06a.76.76,0,0,0-.28-.42,4.71,4.71,0,0,1-1.67-1.3c-.34-.53-.63-1.13-1.07-1.78a6.06,6.06,0,0,0-1.13-1.27,5.23,5.23,0,0,0-1.21-1.09,9.12,9.12,0,0,0-4-1.54,3,3,0,0,0,0-1.1,2.18,2.18,0,0,0-.4-1.21,1.89,1.89,0,0,0-.48-.65,1.7,1.7,0,0,0-1.82-.87,2,2,0,0,0-1.6.07.24.24,0,0,0,0,.3l.07.27-.06,0a.2.2,0,0,0-.13.22l2.13,7.84a.6.6,0,0,0,.22.26l.12.46a.28.28,0,0,0,.27.2h0c.07.26.2.11.25-.07l0,0h0v0c0,.11.08.15.13.14a.66.66,0,0,1,.06.13l0-.14a.25.25,0,0,0,.08-.08s0,.06.06,0a.55.55,0,0,1,.06.1l0-.15a.68.68,0,0,0,.06-.12l0,0,0,0a.18.18,0,0,0,.15-.13h0a.57.57,0,0,1,.17,0c0-1.31,0-2.44,0-3.41l2.56.47,1.1.59a7.52,7.52,0,0,1,.67.42,6.43,6.43,0,0,1,1.32,1.48c.47.7.89,1.52,1.4,2.2a3.35,3.35,0,0,0,.86.84,4.49,4.49,0,0,0,1.38.75.3.3,0,0,0,.23,0l.28.13s0-.06,0-.15h0l.18.08s0-.06,0-.15a.17.17,0,0,0,.14-.13.14.14,0,0,0,.08-.09.63.63,0,0,1,.21,0l.09,0Z"/><path class="b" d="M392.87,174.63l.07-.07,0,0h0l.09,0,.09.1-.06-.1s0,0,0,0l-.07-.1,0-.06.15.06-.14-.23a.33.33,0,0,0,0-.36l-.14-.09a.54.54,0,0,0-.06-.26l-.2-.13a3.35,3.35,0,0,0-.22-.48l-2.88-6.74A2.42,2.42,0,0,0,390,166a2.52,2.52,0,0,0,.79-.4,2,2,0,0,0,.19-.22,2.25,2.25,0,0,0,1-1.14,2.37,2.37,0,0,0,.21-.66,2.58,2.58,0,0,0-.12-1.21,3.49,3.49,0,0,0-.46-1.22,4.24,4.24,0,0,0-.59-.9,5.33,5.33,0,0,0-1.22-1.21l.29-1.3c0-.06.07-.13.12-.2a5.47,5.47,0,0,0,.5-1.25v0a3,3,0,0,0,.21-.75,3.67,3.67,0,0,0-.09-1.33,2.56,2.56,0,0,0-.47-1.13,2.88,2.88,0,0,0-.37-.52c-.87-1.31-2.66-1.83-4.29-2.22,0-.06.05-.12.08-.19a3.64,3.64,0,0,0,.32-1.19s-.05-.08-.12-.14v0s0,0,0,0l0-.17a.2.2,0,0,0-.13-.23.29.29,0,0,0-.24-.29.59.59,0,0,0-.32-.41,3.15,3.15,0,0,0,0-.62c0-.06,0-.1,0-.16a3.85,3.85,0,0,0-.28-1.28c-.25-1.41.27-2.76-.2-4.15a4.64,4.64,0,0,0-.63-1.46,5,5,0,0,0-.76-1,5.77,5.77,0,0,0-3.26-2,.21.21,0,0,0-.25.08c-.14,0-.28-.1-.42-.13-.37-.09-.33.18-.17.46a.27.27,0,0,0-.16.36.86.86,0,0,0,.34.29c-.18.12-.25.35,0,.42l.06,0a.23.23,0,0,0,.14.17,5.7,5.7,0,0,1,1.35.46,5.37,5.37,0,0,1,1.26,1l.54.95.3.71c0,.63-.13,1.26-.14,1.84v0a4.27,4.27,0,0,0,0,.58,14.37,14.37,0,0,0,.35,2.17,3.09,3.09,0,0,1-.43,1.27.46.46,0,0,0,.06.41c0,.07-.06.14-.1.22s.1.38.34.54l0,.11c-.13.23,0,.35.21.4a2.22,2.22,0,0,1-.72.4c-.14.08,0,.29.12.51l0,.06c-.32.18,0,.44.31.63l0,0c-.21.12-.1.43.08.49l.07,0a.26.26,0,0,0,.15.19l.43.1h0c1.07.29,2.12.62,3.18,1q.67.27,1.33.58a5.71,5.71,0,0,1,.34.48l0,0q0,.52,0,1a13.19,13.19,0,0,0-1,2.56,1.64,1.64,0,0,0,0,.84.87.87,0,0,0,0,.26,1.17,1.17,0,0,0,.2.64,1,1,0,0,0,.19.19,1.14,1.14,0,0,0,.54.88,4.2,4.2,0,0,0,.74.58l0,0,.22.18.42,1.61c0,.05-.06.11-.11.16A1.52,1.52,0,0,1,388,164c-.47.12-.79.1-1.13.45s-.4.37-.28,1v0a1.18,1.18,0,0,0,0,.68l.06.14c.13.26.27.51.4.77a1.05,1.05,0,0,0,.09.24q-.39.88.6,2.43a4.68,4.68,0,0,0,.18.46,8.08,8.08,0,0,0,3,3.41c.26.38.52.76.79,1.13a.32.32,0,0,0,.21.14l.06.09c.1.17.23.07.29-.09l0,0a.21.21,0,0,0,.08.08l.07.1c0,.07,0,0,0-.09a.2.2,0,0,0,.1-.06l.06.09c0,.07,0,0,0-.1a.23.23,0,0,0,.1-.11h0c.53.77.72,1,.2.09C393,175,393,174.92,392.87,174.63Zm-2.13-1.5.22.32,0,0-.24-.34Z"/><path class="b" d="M400,193.34a14.66,14.66,0,0,0-.25-2c0-.22,0-.43,0-.65l-.27-1.49c-.11-.79-.24-1.56-.41-2.3l0-.18c-.05-.2-.12-.4-.18-.6-.1-.38-.21-.76-.33-1.13l-.14-.41c-.1-.31-.21-.62-.32-.92a26.82,26.82,0,0,0-2.21-4.89l-.17-.34a.27.27,0,0,0-.05-.06l-.14-.24a.46.46,0,0,0-.3-.26l-.22-.43c-.17-.33-.43-.51-.75-.23a.31.31,0,0,0-.09.16h-.06s-.06,0-.1,0a1.87,1.87,0,0,0-.86-.66c-.32,0-.79,0-.52.49.14.22.26.45.39.67-.32,0-.5.1-.29.51l3,7.19a22.69,22.69,0,0,1,.78,5,1.54,1.54,0,0,1,0,1.11,7,7,0,0,1-3.4.55.31.31,0,0,0-.31.28,4.46,4.46,0,0,1,0,.67l-.05,0c-.65-.6-1.33-1-1.16-.18q.07.37.16.74a.21.21,0,0,0-.09.26c.53,2.61,1.34,5.26,1.63,7.94a9.61,9.61,0,0,1-.4,2.89,1.89,1.89,0,0,1-.14.85l-.41.5a1.55,1.55,0,0,1-.83.26l-.05,0-.46,0a13.11,13.11,0,0,1-2.49-1.65q-1.19-.91-2.41-1.76c-.35-.25-.41.12-.35.62-.19-.12-.31-.14-.38-.09l-.65-.47c-.34-.24-.77,0-.55.46s.3.54.46.81c-.28,0-.46.06-.24.49s.4.7.6,1.05a.75.75,0,0,0,.06.18c.19.32.37.65.55,1,.46.91.9,1.84,1.28,2.79a14.14,14.14,0,0,0-2.75-.26.22.22,0,0,0-.16.09,5.62,5.62,0,0,0-1.26-.06c-.47,0-.24.68.19,1.34-.53.15-.09.78.43,1.19a.55.55,0,0,0,.34.72c0,.16.12.28.24.27a3.66,3.66,0,0,1,.41,0c0,.11.08.19.12.19a3.16,3.16,0,0,1,.51-.05l1.3.43.14.09a3.06,3.06,0,0,1,.34.31.25.25,0,0,0,.21,0l.14,0c.09.08.18.13.26.22l0,0,.2-.13,0,0h0l.29-.18c.18.08.37,0,.58-.2l.26-.14a3.59,3.59,0,0,1,.62-.07s0,0,0-.06l.27,0s0-.05,0-.11l.38,0,0-.13v-.07c.4-.06.59-.23.58-.52,0,0,0,0,0,0l-.18-.46,0-.07c.7-.39.78-1.11.23-2.16a5,5,0,0,0,1,.28h0a2.83,2.83,0,0,0,1.59.09,2.27,2.27,0,0,0,.93-.31,2.1,2.1,0,0,0,.6-.43A2.56,2.56,0,0,0,396.1,208a8,8,0,0,0,.44-3.88c-.05-.75-.15-1.5-.27-2.24a48.12,48.12,0,0,0-1-4.78c.07.08.13.13.16.13.3,0,.45-.16.45-.48a.43.43,0,0,0,0-.26,2.18,2.18,0,0,1,.1-.33c.26-.05.58-.13.93-.24l.09,0a6.42,6.42,0,0,1,.86,0,.84.84,0,0,0,.56-.15,1.1,1.1,0,0,0,.5-.25.79.79,0,0,0,.19-.41c.44-.06.46-.16.51-.35.23-.07.15-.05.32-.49A1,1,0,0,0,400,193.34Z"/><path class="b" d="M385.78,211.49a.32.32,0,0,0,0-.07.51.51,0,0,0-.11-.67c0-.3-.15-.56-.39-.55-.13-.47-.37-.89-.65-.86a5.11,5.11,0,0,0-.9.18.47.47,0,0,0-.29-.11,18.53,18.53,0,0,0-2.54.84,1.15,1.15,0,0,1-1.4-.58,2.72,2.72,0,0,0-1-.54l-.1-.1,0-.52a.28.28,0,0,0-.23-.3c0-.27-.06-.58-.38-.59h0c-.11-.54-.32-1.05-.69-1.07A2.77,2.77,0,0,0,375,207a3.81,3.81,0,0,0-2,1c-.22.18,0,.69.33,1.18l-.06.08c-.22.28.13.71.54.94-.08.27.06.62.29.6,0,.11.07.18.14.12s.11-.1.16-.15c0,.13.13.21.29.08l.09,0c0,.07,0,.12,0,.13l.09-.07,1.47.72,0,.3c0,.18.17.25.35.28,0,.14.06.25.19.23l.3-.07h0c0,.12.08.21.1.2.24-.05.45-.1.65-.12l.27,0c.3.14.58.3.84.41l.22.15a3.14,3.14,0,0,0,.59.38,1.6,1.6,0,0,0,.32.07l.12.08a1.82,1.82,0,0,0,1.1,0,14.88,14.88,0,0,0,3.07-1c.13,0,.25-.06.39-.08v0l.23-.06s0,0,0,0l.34-.07,0-.22a3.24,3.24,0,0,1,.4-.1s-.06,0-.1-.09,0-.08,0-.16l.23,0C386,211.72,385.9,211.61,385.78,211.49Z"/><path class="b" d="M308,125.26v0l.18.06-.18-.09c.09-.06.13-.13.05-.17a.17.17,0,0,0-.09-.27.39.39,0,0,0-.23-.33l-.06,0c-.09-.24-.23-.46-.36-.5-5.72-1.77-11.48-4-17.31-5.31a15.59,15.59,0,0,0-1.87-.31,12,12,0,0,0-1.35-.21,21.59,21.59,0,0,0-3.73.15l-1.87.19a6.27,6.27,0,0,1-2.62-.09,4.69,4.69,0,0,1-1.31-.7,12.88,12.88,0,0,1-3-2.3,8.9,8.9,0,0,0-1.53-1.23,4.17,4.17,0,0,0-2.39-.66,5.2,5.2,0,0,0-1.89,0,.19.19,0,0,0-.19.17c-.63,1.83-2.83,2.32-3.29,4.16a4.5,4.5,0,0,0-.1.53,2.64,2.64,0,0,0-.12.41,5,5,0,0,0,.17,1.9,17.71,17.71,0,0,0,1.71,4.29c.54,1.06,1.16,2.08,1.76,3.11a.38.38,0,0,0,.22.15l.05.09a.24.24,0,0,0,.42,0l0,0,0,0c.1.18.11.1.09,0a.21.21,0,0,0,.09-.06v0c.1.18.11.1.08,0s.1-.06.14-.14l.06-.07,0,0a.18.18,0,0,0,.09-.09l0,0c.11,0,.2,0,.18,0l-.06-.1,0,0,.12.06-.14-.25a.26.26,0,0,0,0-.28l-.13-.14a.41.41,0,0,0,0-.15c-.73-1.29-1.36-2.35-1.86-3.27-.11-.3-.21-.61-.3-.92a6.36,6.36,0,0,1-.56-1.67,7.46,7.46,0,0,1,.28-1.82,2.79,2.79,0,0,1,0-.61,3.28,3.28,0,0,1,.19-.28l.49-.51.51-.44a4.74,4.74,0,0,0,1.14-1,1.82,1.82,0,0,0,.25-.26l.24-.05h.14a2.64,2.64,0,0,1,.38,0l.08,0c.3.1.7.21,1.23.35a4.76,4.76,0,0,1,.93.07c.92.78,1.72,1.69,2.7,2.41l0,0,.27.22a6.61,6.61,0,0,0,2.88,1.18,13.58,13.58,0,0,0,4.46.11,26.61,26.61,0,0,1,4.61-.25q2.37.52,4.71,1.12,5.88,1.73,11.71,3.6c.83.29,1.66.58,2.49.89a.47.47,0,0,0,.27,0l.38.12c.08,0,.09,0,.08-.13l.13,0s.06,0,.06-.06l.15,0a.37.37,0,0,1-.16-.16.19.19,0,0,0,.15-.12l0,0,.22.07a.76.76,0,0,1-.18-.1.19.19,0,0,0,0-.09l0-.07,0-.05c.11,0,.18,0,.1-.06Z"/><path class="b" d="M282.84,99.61c-.05,0-.14,0-.24-.09.12-.12.11-.21,0-.28.2-.19.09-.35-.11-.45a.66.66,0,0,0-.43-.6c-.15-.58-.53-1.12-.92-.94l-.6.28c-.47-.4-1-.66-1.24-.53l-2.91,1.37-2.74,1.6c-.26.23-.52.36-.62.74a1,1,0,0,0,0,.34,1,1,0,0,0-.43.53,1.27,1.27,0,0,0,.18,1h0c-.53,0-.32.5,0,.93l-.48,0c-.35,0-.19.53-.08.65a2.09,2.09,0,0,1,.71,1.78,3.85,3.85,0,0,1-.44.63,15.49,15.49,0,0,1-1.69,1.49,6.3,6.3,0,0,0-2,2.9.54.54,0,0,0,.07.4c-.07.16-.15.33-.21.52a.41.41,0,0,0,.07.49l.93.82,0,.09c-.06.16-.14.46,0,.61l1,.83a.63.63,0,0,0,.21.12l.3.27a.3.3,0,0,0,.5-.05l.32.29s0-.1,0-.24a.33.33,0,0,0,.14,0l.18.16s0-.09,0-.23.2-.15.26-.32l.06,0,0,0,.07-.06a.61.61,0,0,0,.13-.12l.15,0c.32.25.36.26.09,0,.09,0,.12,0,0-.12l-.08-.09.1-.07c.15.08.25.12.16,0l-.11-.39a.35.35,0,0,0-.05-.51l-.11-.1v0a.87.87,0,0,0-.09-.35l-.11-.41c.09-.14.2-.27.3-.4a21.38,21.38,0,0,0,2-1.81l.1-.13c.16-.14.33-.28.48-.43a4.06,4.06,0,0,0,1.33-2.12,2.43,2.43,0,0,0-.15-1,2.5,2.5,0,0,0-.07-.77,1.09,1.09,0,0,1,.38-.39h0a.1.1,0,0,0,.12-.05s0,0,0-.05a.54.54,0,0,0,.17-.33.81.81,0,0,0-.18-.57,2.6,2.6,0,0,0-.23-.83,1.05,1.05,0,0,1-.07-.13l0-.48a2.75,2.75,0,0,1,.42-.12l.16-.09.17,0a26.43,26.43,0,0,1,3.19-1.68.71.71,0,0,1,.09.18l.24-.19.06.07.71-.55s0-.11,0-.2l.12-.09a.24.24,0,0,0,.06-.1l.57-.44s0,0,0,0Z"/><path class="b" d="M305,96.4s0,0-.09-.06a1.07,1.07,0,0,0,0-.28c0-.1,0-.13-.13-.16s0,0,0,0-.08-.23-.21-.25h0c-.07-.21-.18-.43-.36-.46l-.23,0a.2.2,0,0,0-.24.12h0a1.83,1.83,0,0,0-.61-.33l-.24-.05c-.32-.07-.12.31,0,.5l0,.05-.1,0c-.25-.06-.28.07-.25.2a9.69,9.69,0,0,1-3.34-.14,5.59,5.59,0,0,1-1.23-.74A28.13,28.13,0,0,0,295,93a6,6,0,0,0-1.59-.4l-.06,0c-2.5-.82-5,.27-7.6-.32-.2,0-.05.28.18.63l-.14,0c-.3-.07-.26.23-.21.38s.29.29.54.4c-.28.11-.43.34,0,.45a.16.16,0,0,0,.13.19c.2.05.37.08.56.11h0c2,.53,3.86,0,5.89.06,1.73.21,2.6,1,4.4,2A7.66,7.66,0,0,0,300,97.78a11.61,11.61,0,0,0,1.26.08,4.85,4.85,0,0,0,2.7-.21,1,1,0,0,0,.51-.3.5.5,0,0,0,.34-.54A.44.44,0,0,0,305,96.4Z"/><path class="b" d="M327.48,103.39a.19.19,0,0,1,.12.07l-.14-.25a.15.15,0,0,0,0-.17,85.24,85.24,0,0,0-6.13-10.31,61.57,61.57,0,0,0-5.24-6.91c-.23-.25-.45-.51-.69-.76a4.92,4.92,0,0,0-2.86-1.87h-.18a3.87,3.87,0,0,0-2.21-.27,40,40,0,0,0-6.49,2,7.65,7.65,0,0,0-1.92.87,2.38,2.38,0,0,0-1,1.38,1.73,1.73,0,0,0,0,2,1.37,1.37,0,0,0,.67,1.22,1.27,1.27,0,0,0,.71.44,1.76,1.76,0,0,0,.5,0,1.15,1.15,0,0,0,.17.06.79.79,0,0,0,.67-.15,1.07,1.07,0,0,0,.58-.19,16,16,0,0,0,1.92,1.62l.42.31A13.71,13.71,0,0,1,303.61,94c-.07,0,0,.18.08.35l-.27.12c-.28.14.12.51.6.79l-.15.07c-.32.17-.11.33.2.42,0,.19.33.36.61.22h0c.07.1.15.18.22.14l.2-.09h0l.1,0s.06,0,.07,0A13.82,13.82,0,0,0,308,94.56q1.85-.78,1.45-1.41l.21-.17,0,0-.09-.08a.12.12,0,0,0,0-.13.19.19,0,0,0,0-.26l-.06,0a.32.32,0,0,0-.13-.25l-.15-.09a.86.86,0,0,0-.21-.32,16.33,16.33,0,0,1-4.5-3.55,6,6,0,0,1,.4-1.17c1-.37,2-.7,3.1-1l1.07-.34a17,17,0,0,1,3.78.13l3.57,3.2a29.58,29.58,0,0,1,2.16,3.1,96.69,96.69,0,0,1,7,11.55.49.49,0,0,0,.34.15l.09.15c.09.15.41.13.63,0,.15.23.34.13.3-.08h0c.11.08.22.1.2,0l.13.09-.1-.19,0,0a.42.42,0,0,1,.22.14l-.14-.25c.11,0,.22,0,.25.1l-.12-.21a.13.13,0,0,0,0-.1l.14,0Z"/><path class="c" d="M322.29,85.57l.19-.22-.14-.09h0a.09.09,0,0,0,0-.14.18.18,0,0,0,0-.26.38.38,0,0,0-.26-.3c-.11-.31-.37-.59-.59-.34l-.05.06h-.09c-.33-.31-.7-.52-.83-.38L318.66,86h0c-.37-.28-.74-.44-.76-.18l0,.4c-.14,0-.24.05-.23.17l.08,1.36c0,.12.17.27.38.4v.35c0,.16.15.25.32.29a.29.29,0,0,0,.49.13c.07.12.17.21.24.12l.07-.08s.07.06.1,0l.08-.09.1.08.27-.32h0l2.34-2.75,0,0,.28-.32S322.32,85.57,322.29,85.57Z"/><path class="b" d="M336.14,114.33l-.11-.45h0l-.15-.63c-1.54-6.43-3-12.87-4.66-19.28l0-.1-.09-.36a31,31,0,0,0-1-3.53,10,10,0,0,0-1.44-2.61,10.75,10.75,0,0,0-1-1.23,14.44,14.44,0,0,0-1.07-1.08c-.16-.14-.25-.05-.29.11a.13.13,0,0,0-.16,0c-.47-.39-.76-.23-.56.13h0c-.13.06-.4.19-.19.39s.18.21.28.32c-.14.09-.2.24,0,.41a11.24,11.24,0,0,1,2.85,4.23l.52,1.59.18.68q1.62,6.28,3.17,12.58c.65,2.76,1.29,5.51,1.95,8.25a.41.41,0,0,0,.12.17l.15.6c0,.09.13.15.25.18a.29.29,0,0,0,.48.07c.12.14.27.26.24.1l0-.1,0,0c.11.1.21.17.18,0v0c.08,0,.16.07.17.12l-.07-.3.26-.08a.39.39,0,0,1,.05.12l0-.13h0v0h0l0-.17C336.06,114.26,336.13,114.29,336.14,114.33Z"/><path class="c" d="M329.57,89.36c.09-.07.17-.14.15-.14h-.09v0h0s0-.09,0-.1l-.16,0c.05-.07.06-.14,0-.15h0a.21.21,0,0,1,.14,0l-.34-.05a.09.09,0,0,0-.08-.05l-1.09-.17c-.14,0-.38.26-.35.4a.22.22,0,0,0,.1.28c0,.15,0,.3.09.31l1.09.16h0l.36.05v0l.13,0v-.1l0-.16Z"/><path class="b" d="M353.75,104.51h0a.26.26,0,0,1,.15.1l-.13-.27a.17.17,0,0,0,0-.18,16.94,16.94,0,0,0-1.21-2.25,8.31,8.31,0,0,0-1.12-1.45,8.17,8.17,0,0,0-1.34-1.17c-2.13-1.5-4.89-1.7-6.68-3.43-.09-.11-.19-.23-.28-.35a6.8,6.8,0,0,1-.49-.91.15.15,0,0,0-.07-.06l-.09-.19a.2.2,0,0,0-.2-.11h0c-.1-.22-.28-.53-.54-.27l-.24,0c-.25-.22-.52-.36-.66-.22l-.11,0-1.33-.82c-.13-.22-.1-.53-.27-.74l-.08-.08,0-.1a1.13,1.13,0,0,0-.36-.35,1.06,1.06,0,0,0-1-.46l-.1,0-.18-.11c-.44-.22-.4-.34-1.07-.07-.32.13-.94,1-1.53,1.42l-.21,0a30.67,30.67,0,0,0-3.09-4,8.72,8.72,0,0,0-.86-.9q-.78-.79-1.63-1.53l-.89-.85a.25.25,0,0,0-.34,0,.12.12,0,0,0-.12,0c-.36-.34-.64-.17-.54.13-.12.06-.32.22-.17.38l.22.22a.26.26,0,0,0,0,.39,49.56,49.56,0,0,1,6.14,7.4l.27.37.27.22,0,0a1.4,1.4,0,0,0,.54.36,1.33,1.33,0,0,0,.37,0,.63.63,0,0,0,.12.07.68.68,0,0,0,.52,0s.16,0,.58-.13a2,2,0,0,0,.75-.48l.13-.11.83.23,0,.09a1.86,1.86,0,0,0,.2.34c0,.17.07.34.12.51a1.67,1.67,0,0,0,.49.58,1.42,1.42,0,0,0,.9.56,2.38,2.38,0,0,0,.39.1,1.55,1.55,0,0,0,1.38,0,1.7,1.7,0,0,0,.29-.08,5,5,0,0,0,1.22,1.45,6.55,6.55,0,0,0,1.62,1.09q2.12.76,4.19,1.64a9.44,9.44,0,0,1,1.18.8,8,8,0,0,1,1.34,1.5,12.08,12.08,0,0,1,.65,1.19l0,.06a8.7,8.7,0,0,1,.33.85.4.4,0,0,0,.28.16l0,.12c.09.18.38.14.54,0,.14.15.38.25.25,0h0c.12.1.23.14.17,0a.36.36,0,0,1,.17.13l-.12-.25c.1,0,.21.09.24.16l-.12-.25c.11,0,.21,0,.24,0h0c0-.07-.06-.14-.08-.21h.11Z"/><path class="b" d="M354,104.52h-.05l0-.17h0l0-.14s0-.06-.11-.07h0c0-.14-.08-.19-.18-.21-.09-.27-.45-.49-.57-.27h0c-.32-.3-.75-.51-.81-.17l-.05.29a.12.12,0,0,0-.07.09c-.88,4.5-1.69,8.94-2.82,13.39,0,.18.17.39.45.56l-.06.24c-.06.22.09.34.28.4,0,.25.4.27.61.13.1.14.23.24.26.11l0-.11c.07.07.15.1.17,0l0-.07c.07,0,.12.08.12.1l.1-.32.16,0,.09-.3,0,0a53.48,53.48,0,0,0,2-9s-.09-.07-.2-.11C353.61,107.52,353.8,106.05,354,104.52Z"/><path class="b" d="M365.76,111.6v-.12a2.34,2.34,0,0,0-.14-.66s0,0,0-.07a1.94,1.94,0,0,0-.24-.58l-.07-.07a1.42,1.42,0,0,0-.12-.21,1.45,1.45,0,0,0-.26-.25l0-.08a6.94,6.94,0,0,0-2.6-1.44c-.33-.13-1-.28-1.67-.47-.4-.14-.8-.29-1.21-.4a3.82,3.82,0,0,1-.65-.33,1.94,1.94,0,0,1-.2-.39.12.12,0,0,0-.09-.07l0,0c0-.15-.13-.22-.24-.23-.09-.23-.24-.53-.48-.4l-.18.1h-.1c-.3-.25-.63-.44-.83-.33l-.15.08-.18-.23a27.38,27.38,0,0,1-.13-3.2s0-.05-.11-.07,0-.18,0-.28a.16.16,0,0,0-.13-.15.44.44,0,0,0-.29-.32c-.14-.32-.36-.64-.55-.32l0,0a.24.24,0,0,0-.21,0c-.32-.29-.65-.51-.74-.33l-1.69,3.08a.36.36,0,0,0,0,.3l-.13.27c-.08.17.12.39.39.55l-.06.11c-.12.24.06.37.28.41s.32.28.46.07l0,0c.08.11.16.2.16.21l.11-.17.07.09.17-.25.09,0c.08.66.17,1.32.3,2a.43.43,0,0,0,.16.21c0,.21.06.42.1.63s.19.24.39.27v0c0,.29.46.2.66.12.07.11.16.2.28.13l.19-.1h0l.07,0s.08,0,.1,0l.7-.38.31-.06a2.5,2.5,0,0,0,.32.24,4.2,4.2,0,0,0,1.56.74c1.29.43,3,.71,4.07,1.55l.17.18a22.3,22.3,0,0,1-.41,6.71c0,.17.16.35.4.51,0,.15,0,.31-.05.46s.16.26.39.3c.07.24.42.27.63.15.11.13.25.21.28,0v0c.08.07.16.1.18,0v0c.07,0,.13.09.12.12l0-.34c.11,0,.21.07.2.09s0-.2,0-.3h0v-.07l.07,0A27.57,27.57,0,0,0,365.76,111.6Z"/><path class="b" d="M292.27,329.36l-.25-.2v-.46a2.55,2.55,0,0,0,0-.28v-.92c0-.16-.14-.26-.31-.31a.82.82,0,0,0-.41-.51,1.85,1.85,0,0,0-.47-1.1c-.32-.21-.67-.34-.77.2l-.06.37a.23.23,0,0,0-.32.07l-.09-.1c-.08-.08-1.08-1-1.09-.22l0,1.05a1,1,0,0,0,.11.41l-.29.5c-.25.42.27.92.92,1.26l-.06.36a.5.5,0,0,0,.39.56c.09.52.67.63.64,0v0h0c0,.2.05.32.14.36,0,.21.08.41.13.41a2.26,2.26,0,0,1-.07-.39.29.29,0,0,0,.25-.11.05.05,0,0,0,0,0c0,.2.06.38.11.38s0-.19,0-.4a1.16,1.16,0,0,0,.29-.32.44.44,0,0,0,.47-.17.39.39,0,0,0,.19-.13c.16,0,.3,0,.3,0v-.34A.57.57,0,0,0,292.27,329.36Z"/><path class="b" d="M292,328.51l.39-.16s-.15-.1-.3-.23a.34.34,0,0,0,0-.05.74.74,0,0,0-.23-1c-.06-.42-.23-.76-.51-.72-.25-.87-.68-1.65-1-1.52A88.65,88.65,0,0,1,275.08,330l-31.68,5.24a72,72,0,0,1,4.47-7c0-.07,0-.21-.06-.35l.28-.19c.19-.31-.09-.6-.42-.64a1.55,1.55,0,0,0,.21-1,.81.81,0,0,0-.41-.44,2.17,2.17,0,0,0-.08-.66c-.17-.5-.5-.57-.79-.1l-.08.12c-.13-.4-.4-1.06-.72-.56l-.41.53a.24.24,0,0,0-.38.07l-.11.16c-.29-.23-.56-.29-.74,0,2.39-3.77-5.27,7-5.67,9.46a3.14,3.14,0,0,0,0,1.09,3.07,3.07,0,0,0,.12.35,1.87,1.87,0,0,0,0,1,2.63,2.63,0,0,0,.54.87,1.63,1.63,0,0,0,.34,1,1.3,1.3,0,0,0,.4.64,1.41,1.41,0,0,0,.64.27,1.73,1.73,0,0,0,1.28.33h.24l.35,0,.4-.07.25.09a.47.47,0,0,1,0-.09l.4,0V340l1.22-.2c.78-.11,1.56-.22,2.34-.35a15.4,15.4,0,0,0,6.6-1.09l1.52-.27c7.71-1.13,15.52-2,23-4L279,334l.22-.07.1,0a76.41,76.41,0,0,0,8.69-3.11l.25-.09h0l2.63-1.08s0-.17,0-.35l.08,0a.5.5,0,0,0,.19-.16h0a.61.61,0,0,0,.13-.09l.79-.33C292.06,328.62,292,328.57,292,328.51Z"/><path class="b" d="M249.55,298.34a.62.62,0,0,0-.41-.55c-.18-.56-.55-1-1-.73l-.48.28c-.36-.33-.73-.52-1-.37l-10.77,6.31c-.28.17,0,.83.41,1.46-.37.31-.08.81.35,1.16-.17.33,0,.86.4.83,0,.16.07.28.15.23l.35-.21c0,.13.07.21.16.15l.2-.12h0l.86-.52.14,0,0,0a.26.26,0,0,0,.21,0l10.66-6.52s-.17,0-.32-.12a.23.23,0,0,0,.1-.12l0,0c.19-.12.18-.24.07-.34C250,298.83,249.85,298.49,249.55,298.34Z"/><path class="b" d="M295.75,160.26a1.58,1.58,0,0,1-.25-.12.25.25,0,0,0,.1-.05l.24,0-.14,0s0,0,0,0h0a.3.3,0,0,0,0-.16.4.4,0,0,0,0-.15s0,0,0,0a.38.38,0,0,0,0-.12c.07-.07.12-.14.08-.15h-.06c.06,0,.1-.07.08-.07l-.12,0c0-.07,0-.13-.08-.15l-.09,0a.18.18,0,0,0-.17-.21c-.23,0-.44-.09-.67-.14a.59.59,0,0,0-.19-.08l-.7-.12A33.26,33.26,0,0,1,290,157.1a10.17,10.17,0,0,0-2.21-.72,4.85,4.85,0,0,0-2.9-.2,5.36,5.36,0,0,0-1.06.46,3.28,3.28,0,0,0-.9.49,8.29,8.29,0,0,0-1.4,1.66l-.25,0a11,11,0,0,1-1.57-.69q-2.43-7.22-4.25-14.63l-.13,0,0-.16s-.08,0-.16,0h0l0-.14c0-.11-.14-.09-.25,0h-.06c-.42-1.42-.41-1.22-.14-.09l-.16-.07c-.28-1-.34-1.05-.23-.55-.11-.31-.07-.09.06.52h0c-.22-.72-.23-.64-.09,0l-.07,0c-.3-1-.29-.86-.09.07a.2.2,0,0,0,0,.1h0c-.52-1.9-.48-1.54-.13,0-.18,0-.3.1-.26.28s0,.21.06.31c-.26.09-.45.23-.41.37q.45,2.14,1,4.25a18.47,18.47,0,0,0,.1,2.59c.12,3.16,1,5.48,2.61,6.93.27.83.53,1.67.82,2.5a2.57,2.57,0,0,0,.62.94,1.85,1.85,0,0,0,1.92.45l.05,0a2,2,0,0,0,1.49-.27h0a2.18,2.18,0,0,0,.86-.51l.05,0a4.44,4.44,0,0,0,1-1.12c.27-.24.52-.46.76-.65l1.41-.69.42.06.26-.12a18.12,18.12,0,0,1,3.57,1.44,9,9,0,0,0,3.66.88,1,1,0,0,0,.36-.1l.67.05a.39.39,0,0,0,.35-.24h0a.19.19,0,0,0,.18-.07h.08c.13,0,.07-.07,0-.15s0,0,0,0Z"/><path class="b" d="M310.11,106.81s0,0,0-.07l0,0s.07-.05,0-.08l-.1-.08a.1.1,0,0,0,0-.09l-.23-.22h0l0,0a18.42,18.42,0,0,0-2.92-2.36l-.22-.14c-.19-.12-.38-.25-.57-.37l-.32-.2a29.79,29.79,0,0,0-7.73-3.08c-2.78-.71-5.62-1.22-8.43-1.84l-1-.22a6.63,6.63,0,0,1-1.23-1.84,9,9,0,0,1-1.8-1.47,10.14,10.14,0,0,1,.5-.94l.55,0c.05,0,.05-.06,0-.12h.21a.7.7,0,0,0-.09-.15h.13s0,0,0,0l.09,0s0-.09,0-.19a.71.71,0,0,0,0-.14.39.39,0,0,0,0-.05c0-.07.08-.12.13-.14h0s0,0,0,0l-.08,0s0-.06,0-.06l.1,0c.08,0,0,0-.1,0h0a.19.19,0,0,0,0-.12c.07,0,.1-.08,0-.06l-.08,0h-.09a.31.31,0,0,0,0-.08c.08-.09.11-.17,0-.15l-.09,0a.23.23,0,0,0-.14,0h0a.4.4,0,0,0-.39-.2,5.94,5.94,0,0,0-3.21,1.31,2.73,2.73,0,0,0-.73.88,2.52,2.52,0,0,0-.3,1.07,2,2,0,0,0,.2,1.68,2.17,2.17,0,0,0,.51.51,3.23,3.23,0,0,0,1,.68q1.22,2.46,8,2c1.82.39,3.63.77,5.43,1.26l3.19,1c.65.23,1.28.5,1.91.77.21.12.42.24.63.37.38.15.74.32,1.1.49a24.8,24.8,0,0,1,4.84,3.38.63.63,0,0,0,.58,0l.12.1c.19.15.27,0,.25-.17l0,0c.16.13.19,0,.16-.09l.18.09-.15-.13c.06,0,.09-.06.1-.14h0c.09.08.07,0,0-.17a.68.68,0,0,0,0-.1l0-.06.12-.13h0Z"/><path class="b" d="M376.51,129.69s0,0,0-.05h0a.24.24,0,0,0,0-.26l-.08-.08a.56.56,0,0,0-.1-.22l-.22-.24a1.45,1.45,0,0,0-.16-.23,8.39,8.39,0,0,0-1-1,1,1,0,0,0-.18-.27,10.8,10.8,0,0,0-4.43-3,.22.22,0,0,0-.31,0l-.62-.36c-.22-.13-.36.13-.3.31a.84.84,0,0,0,.12.2s-.05,0-.07,0c-.22.17-.09.37.11.5l.25.19c-.16.09-.23.23,0,.37s.64.47,1,.71h-.1c-.25,0-.12.25.12.55l-.26,0c-.67,0,0,.46.46.76a.27.27,0,0,0,0,.12c-.28.08-.64.24-.25.42l.2.09c0,.06.05.12.17.17l.72.33a15.17,15.17,0,0,0-2,.55,19.94,19.94,0,0,0-5.08,2,76.14,76.14,0,0,0-9.07,6c-.1.07,0,.27.08.49l-.21.16c-.14.11.2.46.58.72-.26.21-.07.44.18.53.06.14.18.24.32.14l.1-.08h0c.05.11.11.2.12.19l.14-.1,0,0,.49-.36,0,0c1.07-.8,2.15-1.58,3.22-2.37,1.24-.86,2.51-1.69,3.82-2.46a30,30,0,0,1,3.59-1.79,28.66,28.66,0,0,1,8-1.89.09.09,0,0,0,.09-.07l.32,0h0l-.1-.11q.33-.05.37-.21Q376.78,130,376.51,129.69Z"/><path class="b" d="M358.34,121.9l0-.13a.07.07,0,0,0,0-.07l0-.07c0-.07,0-.12-.1-.14s-.06-.21-.17-.22c-.08-.27-.43-.5-.58-.26h0c-.33-.3-.77-.52-.87-.18,0,.12-.08.23-.11.35s0,0,0,0c-.87,3.06-2.52,5.6-3.54,8.67-.43,1.3-.77,2.53-1.06,3.75a31.83,31.83,0,0,0-1.2,6.89l-.09.64c0,.13.1.26.26.35l0,.12c0,.18.14.27.29.28s.14.22.18.07l0-.16h.1c.07.15.17.25.2.09v-.06h0c0,.09.07.14.09,0l0-.23.07-.07h0l.22,0,1.11-5.59a40.58,40.58,0,0,1,2.81-8,47.52,47.52,0,0,0,2.41-6.07Z"/><path class="b" d="M376.71,209.86c.05,0,.09-.07.09-.11-.16-2.33-.32-4.65-.55-7h0c0-.09,0-.18,0-.26-.22-2.11-.49-4.21-.88-6.31s-.9-4.2-1.46-6.26c0-.18-.08-.35-.13-.53a67.19,67.19,0,0,0-3-9c-.07-.17-.12-.34-.19-.51s-.18-.41-.26-.62a66.83,66.83,0,0,0-4-8.82A87.67,87.67,0,0,0,358.94,159l0,0a56.92,56.92,0,0,0-4.11-4.93h0l-.19-.24a.09.09,0,0,0-.09,0l-.07-.08c-.05-.06-.12-.05-.19,0l-.08-.1c-.11-.13-.25,0-.33.08-.24,0-.46.16-.32.38-.25.09-.45.27-.28.49l.3.39a158.17,158.17,0,0,1,9.14,13.28,88.24,88.24,0,0,1,7.14,15.44c3.07,8.68,4.41,17.45,5.26,26.57,0,.12.13.18.28.21.07.31.49.25.73.08.13.12.31.19.29,0v-.12h0c.09.06.18.1.17.06v-.17c.08.05.14.05.13-.07v0l.06,0Z"/><path class="b" d="M342.35,163.45h0l0-.12-.13,0,0-.11c0-.08-.07-.08-.17-.06v0c0-.24-.18-.28-.36-.21l-.1,0c-.28-.25-.73-.43-.83-.07l0,.06c-.18,0-.33,0-.36.14a20.41,20.41,0,0,0-1.42,9.43c0,.06.07.13.16.2s0,.29,0,.45.17.25.39.26a.38.38,0,0,0,.62,0c.09.1.18.19.19.16l0-.15a.12.12,0,0,0,.1,0s.07.08.07.1l0-.16s.08,0,.09,0v0c0-.1,0-.21,0-.31v0a.4.4,0,0,0,.09-.14s.08-.05.08-.08c.07-.83.16-1.67.26-2.49l.7-4.38Q342.07,164.66,342.35,163.45Z"/><path class="b" d="M287.38,147.8l0-.09s0,0,0-.06l0-.11a.16.16,0,0,0-.1-.2.26.26,0,0,0-.19-.29c-.09-.31-.31-.65-.55-.57l-.38.09c-.23-.21-.45-.36-.56-.32-5.08,1.94-2.87.89-7.6,3.56-.12.07,0,.35.23.64l-.05,0c-.28.2,0,.52.38.73-.17.17,0,.39.25.45,0,.12.12.2.24.14l.14-.08a.13.13,0,0,0,.18,0l0,0,.05.12c.41-.27.83-.52,1.26-.77l4.87-2,.14.05a.22.22,0,0,0,.35,0l.06-.05.07,0c0,.08.08.15.07.16l.14-.13s0,.06,0,.06c.36-.34.39-.32.43-.5h0a.93.93,0,0,0,.51-.92S287.41,147.81,287.38,147.8Z"/><path class="b" d="M276.82,141.15c.23-1,.43-2,.6-3.05h0l0-.14h-.12l0-.14s-.08-.05-.18,0l0-.09c0-.26-.27-.26-.44-.14h0c-.21-.25-.58-.44-.65-.1a47.21,47.21,0,0,1-2.86,9,.38.38,0,0,0,.08.32l0,.06c-.08.19.08.4.28.51,0,.18.13.44.25.38s0,.1,0,.09l.08-.19h.1c0,.13.1.21.16.09h0l0,0c0,.05,0,.07.06,0l.11-.26,0,0,0,0c.09,0,.17,0,.19,0a22.11,22.11,0,0,0,2.27-5.92l-.18,0,0-.07Z"/><path class="b" d="M281.26,150l.35-.22a.24.24,0,0,1-.16,0c.05,0,.08-.07.08-.1h0c.1-.06,0-.09-.07-.11l.08,0c.09-.06.05-.1,0-.13s-.06-.22-.21-.26c0-.28-.22-.6-.45-.46l-.16.1h0c-.33-.37-.75-.7-1-.55a8,8,0,0,0-2.43,1.88,5.46,5.46,0,0,0-1.79,2.77c0,.08,0,.23.15.38l0,.08c-.11.2.1.45.36.56,0,.2.1.46.24.39s0,.1.05.08l.12-.16h.06c0,.11.08.19.12.13l0,0,0,0s0,0,.07,0,.14-.19.2-.28l0,0c.08,0,.15,0,.17,0l.51-.68,3.2-2.91c.14-.08.28-.17.43-.24a.22.22,0,0,0,.07-.13Z"/><path class="b" d="M303.39,88l.25-.28a.38.38,0,0,1-.1.05l.09-.09h-.06s0,0,0,0l.1-.11h-.13l0,0,0,0c.1-.11,0-.13-.15-.12.11-.21-.14-.4-.37-.31l-.11,0c-.28-.29-.71-.53-.91-.37a10.4,10.4,0,0,0-3.63,3.6,13.17,13.17,0,0,0-2.21,3.93c-.15.37-.3.75-.43,1.14-.07.17.16.4.46.57l-.06.16c-.12.25.09.38.34.42a.29.29,0,0,0,.51,0v0c.08.1.16.19.15.2l.08-.16,0,0a.38.38,0,0,1,.07.09l.1-.19h0c.05-.11.12-.21.17-.33s.13,0,.15-.06l.46-.85,4.55-6.31c.18-.18.34-.37.53-.54,0,0,0,0,0-.05l.09-.09a.24.24,0,0,0,0-.15A.33.33,0,0,0,303.39,88Z"/><path class="b" d="M327.57,85.72v0c.08,0,.16-.06.19,0l-.1-.09.07,0-.11-.11c.06,0,.1,0,.11,0l-.11-.11a.08.08,0,0,0,0-.08l-.17-.17a.28.28,0,0,0-.06-.1,4.35,4.35,0,0,0-2.13-1.49A3.07,3.07,0,0,0,324.1,83a3,3,0,0,0-3.4,1.61.28.28,0,0,0,0,.21l-.13.19c-.1.15.07.33.29.46-.17.23,0,.44.24.48.05.12.15.2.25.1l.16-.09a.11.11,0,0,0,.18,0l.06,0a.05.05,0,0,0,.08,0l.08-.07,4.42.06.07.07a.36.36,0,0,0,.16.06l.14.13c.16.13.27,0,.31-.13l.21.2a.71.71,0,0,1-.09-.16c.08.05.14,0,.19,0l.09.09a.58.58,0,0,1-.07-.11l0,0c.11.09.16,0,.16-.16v0A.65.65,0,0,0,327.57,85.72Z"/><path class="b" d="M326.48,183.33l.15-.06s-.08,0-.14-.09,0-.1,0-.15c.15-.08.08-.2,0-.27a.4.4,0,0,0-.25-.35c-.08-.28-.29-.54-.51-.45l-.32.14c-.24-.24-.49-.42-.61-.37-.84.35-1.89.69-2.68,1.12l-2.27,1.55-2,1.95-2.66,1.05a21.47,21.47,0,0,1-3-2c-.49-.41-1.05-.87-1.55-1.38a3,3,0,0,1-.3-.39c0-.05,0-.09,0-.15a8.94,8.94,0,0,1,.13-1.68q.05-.26.12-.52c.05-.2.1-.41.17-.61v0a25.36,25.36,0,0,1,2.65-5.08s0,0,0-.05c.8-1.15,1.66-2.26,2.49-3.37h0l.75-1,0,0,.41-.54-.15-.1,0,0a.09.09,0,0,0,0-.14l0,0c.08-.1,0-.18-.08-.22a.35.35,0,0,0-.26-.3c-.11-.29-.37-.55-.59-.28l0,.06h0c-.31-.3-.7-.51-.84-.33a41.19,41.19,0,0,0-5.74,8.32,11.46,11.46,0,0,0-.92,3,6.66,6.66,0,0,0-.23,2.68,2,2,0,0,0,.4.83,1.65,1.65,0,0,0,.38.74,12.18,12.18,0,0,0,1.92,1.93,47.14,47.14,0,0,0,6.16,4,.42.42,0,0,0,.34,0l.18.11s.08,0,.11,0l.07-.09,0,0s.07,0,.11,0l0-.06.13.08c.07-.12.14-.23.21-.34.64.19,1.14-.33,1.48-1.56l5.52-4.57.1,0c.32-.14.65-.27,1-.39,0,0-.11-.05-.18-.13h0a.19.19,0,0,0,.08-.13l.36-.16a1.2,1.2,0,0,1-.26.07l.27-.1S326.5,183.35,326.48,183.33Z"/><g class="d"><g class="d"><path class="b" d="M152.16,252.75l-.07.05c.06-.29.14-.58.19-.87.18-1.09-.56-1.54-1.44-.87a15.52,15.52,0,0,0-1.78,2.53c-.11.17-.19.34-.29.52a1.17,1.17,0,0,0-.3,0,.87.87,0,0,0-.68-.44c-.82-.12-1.11.55-1.25,1.22a.93.93,0,0,0-.74.74s0,.08,0,.12a1,1,0,0,0-.61.64,20.16,20.16,0,0,1-3.09,7.65l-.14.21-.08.09c-.25.29-.53.54-.8.8a12.08,12.08,0,0,1-3.42.89,6.45,6.45,0,0,1-3.76-.38,11.47,11.47,0,0,1-5.39-1.88,20.88,20.88,0,0,1-2.29-1.66,8.74,8.74,0,0,1-1.41-1.69,12.4,12.4,0,0,1-1-1.39c-.13-.36-.24-.72-.34-1.09a13.81,13.81,0,0,1-.2-2,15.66,15.66,0,0,1,.68-4.57,48.91,48.91,0,0,1,2.18-5.43,40.8,40.8,0,0,1,3.2-4.93c.54-.73-.07-1.06-.75-1.21l.42-.58c1-1.35-2.09-.92-2.2-.89l-.23,0q.53-.78,1.08-1.52c.69-.94-.07-1.6-1-1.33-.26.14-.51.3-.76.45.36-.66.53-1.33,0-1.71-1.08-.82-2.67,1.74-3.06,2.26l-.76,1a1.07,1.07,0,0,0-1.59.22l-.36.51a.79.79,0,0,0-.36.25c-.28.37-.55.75-.81,1.13-3.76,5.07-6.94,11.39-5.79,17.86a15.21,15.21,0,0,0,1.61,6.2,17.21,17.21,0,0,0,2.79,4,19,19,0,0,0,6.1,5.45,18.51,18.51,0,0,0,8,2.85,12.4,12.4,0,0,0,2.18,0,13.22,13.22,0,0,0,7.67-1.72,13.9,13.9,0,0,0,5.11-3c.48-.45.94-.92,1.38-1.41a21.88,21.88,0,0,0,6.31-10.53,20.79,20.79,0,0,0,.93-3.56c.18-1.1-.85-1-1.64-.8a20,20,0,0,0,.47-2.16c.2-1.27-1.56-.37-1.89-.11"/></g></g><g class="e"><g class="e"><path class="b" d="M162.24,201.11c-1.06-.82-2.13-1.64-3.22-2.42a18.19,18.19,0,0,0-6-3c-3-.68-5.5.53-7.67,2.31a7.31,7.31,0,0,0-3.46,1.77,8,8,0,0,0-1.38,1.18c-3.15,2.62-4.6,7.46-4.59,11.76a15.85,15.85,0,0,0,.9,7.49,11.06,11.06,0,0,0,1.75,3,12.78,12.78,0,0,0,.76,1.3,18.93,18.93,0,0,0,4.09,4.12l.44.32.35.28q8.14,6,16.4,11.85s.24-.17.48-.43l1,.69c.19.14.48-.13.7-.49a.86.86,0,0,0,.37-.24,1.67,1.67,0,0,0,1.4,0,1.27,1.27,0,0,0,.35-.7c.68-.27,1.15-.75.85-1.32.58-.41.82-.91.25-1.41l-.44-.44c1.21-1.06,2.08-2.22,1.67-2.52l-4.91-3.55-3.16-2.43q4.27-5.09,8.22-10.42l6.84,5.77c.18.15.63,0,1-.21l.26.22a1,1,0,0,0,1.6-.46.82.82,0,0,0,.15-.08l0,0a3.29,3.29,0,0,0,1.67.12,1,1,0,0,0,.65-1l.09,0c.4-.11,1.62-.62.92-1.3l-.18-.18c.6-.29,1.17-.77.5-1.37l-1-.93c.83-.74,1.33-1.45,1-1.7-6.08-5.19-12.13-10.88-18.72-15.52M149.3,220.52a19.22,19.22,0,0,1-2.71-2.66,8.65,8.65,0,0,1-.84-1.53q-.11-.52-.19-1.06h0a20.71,20.71,0,0,1,.64-5.1,12.15,12.15,0,0,1,.64-1.15l3-3.74c.14-.1.28-.15.43-.24a22.28,22.28,0,0,1,3.58,2q3.55,2.46,6.89,5.19-3.6,5.82-7.32,11.55-2-1.6-4.08-3.23"/></g></g><g class="f"><g class="g"><path class="b" d="M233,160.77c4.19-1.11,17.59-5.82,17.59-5.82s.65-4.49,0-4.75a6.56,6.56,0,0,0-3.39,0c-.05-.52-.53-1-1.06-.92l-.47.11a.65.65,0,0,0-.52-.15l-.67.15a.44.44,0,0,0-.24-.05l-17,3.93c.06,0,.21.17.39.4l-.78.18a.8.8,0,0,0-.51-.29.82.82,0,0,0-.7.24.43.43,0,0,0-.15-.12c-.25-.09-.52-.13-.5.26,0,.21,0,.43,0,.64h0c-.06-.14-.13-.25-.23-.27-.41-.07-.39.26-.38.59v0l0,0,0,0a1.65,1.65,0,0,1-.38-.78c0,.35.06.69.09,1a1.94,1.94,0,0,0-.31,1,1.07,1.07,0,0,0-.09.16c-.4.11-.74.25-.73.41s0,.26,0,.4h-.38q1.2,15.8,2,31.63c0,.07.08.13.17.18,0,.28,0,.56.05.84s.41.41.86.43c0,0,0,0,0,.05a2.47,2.47,0,0,0,0,.3c-.08.07,0,.15,0,.22a1.15,1.15,0,0,0,.76.82,1.09,1.09,0,0,0,0,.18c.21.67.6.65,1.2.52l.36-.07c.47.71,1.18,1.55,1.83,1.44l.19,0a.66.66,0,0,0,.67-.09,2.12,2.12,0,0,0,1.26.43c6.95-1.18,20.06-4.29,20.06-4.29a3.47,3.47,0,0,0-.06-1.6l.62-.17c1.31-.35,1.32-4.16.55-4.4s-10.49.48-18.4,1.51c0-2.69,0-5.37-.23-8l7.46-1.73c.58-.14.75-.43.73-.79l.64-.14c.74-.17.43-1.12.43-1.12l.65-.16c1.38-.31,1.48-4.74.75-5s-7,.17-11.57.49c-.09-.64-.17-1.28-.27-1.92q-.21-2.93-.43-5.87m-5.77-6.4h-.09a1.87,1.87,0,0,0-.1-.27l.2.27"/></g></g><g class="h"><g class="h"><path class="b" d="M215.24,191.85c-3.06-5.42-7.86-10-14.35-10.72-.24,0-.48,0-.71,0a11.35,11.35,0,0,0,1.05-4.7,11.2,11.2,0,0,0,.42-3.46,7.12,7.12,0,0,0-2.93-5.6,6.21,6.21,0,0,0-2.66-2.37,9.81,9.81,0,0,0-6.61-.34,10.3,10.3,0,0,0-4.34.38,12.58,12.58,0,0,0-3,1,16.89,16.89,0,0,0-7,5.4.85.85,0,0,0-1.05-.14,2.16,2.16,0,0,0-.35.22.63.63,0,0,0-.3-.06,1.12,1.12,0,0,0-.75.65c-.33-.08-.57-.08-.49.07l.28.56a.39.39,0,0,0-.12.13c-.2-.08-.57-.2-.44,0l.33.66a.16.16,0,0,0,0,0v0a.85.85,0,0,0-.14,1c-.23.23-.4.42-.36.51l.29.56c-.2.1-.33.19-.32.23q7.69,14.83,15.64,29.51s.06,0,.09.06l.47.87c.09.17.46.11.85,0l.23.44a1,1,0,0,0,1.46.24h0l.16-.05a3.47,3.47,0,0,0,1.71.63.93.93,0,0,0,.77-.58l.14,0c.42.09,2.28.21,1.72-.93l0-.08c.78,0,1.85-.24,1.32-1.21l-.75-1.38c.77-.38,1.26-.79,1.1-1.08l-.82-1.53a.72.72,0,0,0,0-.66c-1.59-3-3.16-6-4.74-9a.88.88,0,0,0,.57-.28l.22-.22.46-.15a1.27,1.27,0,0,0,1-.25l.11-.11a11.91,11.91,0,0,1,5.48-.48l.08,0a15.9,15.9,0,0,1,2.68,1.35,22,22,0,0,1,5.44,6.63c.13.23.51.26.9.2l.29.49a.87.87,0,0,0,1.41.3,1.58,1.58,0,0,0,.13-.11.86.86,0,0,0,.33,0,4.3,4.3,0,0,0,1.86.92.94.94,0,0,0,1-.69c.47.12,2.64.57,2-.66l-.31-.55c.66-.06,1.27-.3.84-1-.28-.5-.58-1-.89-1.45.82-.2,1.65-.54,1.34-1.08s-.55-.95-.83-1.4a.68.68,0,0,0,.11-.8m-29.61-17.23a11.91,11.91,0,0,1,1.27-.93A14.75,14.75,0,0,1,191,172.3l0,0c.12.13.25.26.36.41a6.73,6.73,0,0,1,.56,1.12,10,10,0,0,1-.4,3.07,26.15,26.15,0,0,1-4.17,6.19l-.07,0-.49.2-3.78-7.15a19.73,19.73,0,0,0,2.55-1.58"/></g></g><path class="b" d="M356.89,155.52a5.44,5.44,0,0,0,1.13-4.12c0-.07,0-.14,0-.22a6.74,6.74,0,0,0-.1-1,7.69,7.69,0,0,0-1.36-3.08,9.29,9.29,0,0,0-.94-2.25c-.17-.29-.35-.57-.54-.85l-.06-.09-.09-.13A12.61,12.61,0,0,0,353.5,142h0c-.39-.4-.8-.79-1.22-1.16-1.13-1-2.41-2.1-3.72-3.13-.21-.26-.42-.54-.63-.79a8.36,8.36,0,0,0-1-1,7.23,7.23,0,0,0-1.57-1.29l-.22-.22a5.17,5.17,0,0,0-2.34-1.12,7.77,7.77,0,0,0-3.71-1.81,2.37,2.37,0,0,0-2.25.22,2.63,2.63,0,0,0-1.52,1.62c-.07.22-.13.44-.18.67s-.07.22-.1.33l-.26.16a3.08,3.08,0,0,0-1.06,1.53c0,.12-.07.26-.1.42l-.09,0a.48.48,0,0,0-.19,0c-.4-.24-.91-.39-.83,0l0,.1c-.44-.06-.81,0-.7.22l.18.65c-.19.09-.31.2-.28.3l.14.5s0,.05,0,.08c.34,1.29.72,2.52,1.15,3.72,0,.13,0,.25,0,.38a.1.1,0,0,0,0,.08c0,.27,0,.53,0,.79-.12.08-.21.17-.21.27,0,.31,0,.61-.06.92-.32,0-.55,0-.51.3l.1.58c-.21.1-.35.21-.33.34.23,1.36.46,2.74.78,4.09,0,1.41,0,2.35,0,2.29,0,.42.34.6.83.66,0,.33.05.54,0,.55,0,.59.24.83.61.89a13.72,13.72,0,0,0,1.35,2.39,10.1,10.1,0,0,1,0,1.64c0,.34.53.53,1.37.59a4,4,0,0,1,0,.43c-.15,1.06,1.08,1.06,2.39.64a11.71,11.71,0,0,0,2.84,1,2.07,2.07,0,0,0,.73-.16l.48.13a.72.72,0,0,0,.53-.25h0a.19.19,0,0,0,.19-.1l.11,0c.11,0,.13-.11.09-.18l0,0,.06,0s.09,0,.07,0l0-.09,0-.06c.05,0,.12,0,.11,0l0-.1.74-1,0,0h.08a1.83,1.83,0,0,0,1.37-.29h.05l.19,0a6,6,0,0,0,1.65.09,4.37,4.37,0,0,0,.75,0,3.37,3.37,0,0,0,.79.07,4,4,0,0,0,1.52-.49l.44-.1a4.68,4.68,0,0,0,1.3-.76l.08,0,.63.08a1.09,1.09,0,0,0,.73-.12,2.08,2.08,0,0,1,.39.17c.15.09.44-.08.61-.3a.27.27,0,0,0,.22-.13c.17,0,.22-.08.07-.21s0,0,0,0h0c.15,0,.29.08.2,0l-.14-.08,0-.06s.07,0,.08,0,.18,0,.11,0l-.1-.06a.38.38,0,0,0,0-.12.5.5,0,0,0,0-.14.2.2,0,0,0,0,0s0,0,0,0a.18.18,0,0,0,0-.12A3.32,3.32,0,0,0,356.89,155.52Zm-1.74-2s0-.1,0-.14.11-.18.15-.28a3.79,3.79,0,0,0,.31-1.59c0,.21,0,.42,0,.63A5.27,5.27,0,0,1,355.14,153.54Zm.46-2.12c0-.06,0-.12,0-.17l0,.11S355.6,151.39,355.6,151.42Z"/><path class="i" d="M353.78,151.39a4.29,4.29,0,0,0,.28-1,5.23,5.23,0,0,0,.33-1.33c0-.1,0-.19,0-.29s0-.25,0-.37,0-.1,0-.15c0-.36,0-.7,0-1,0,0,0,0,0,0s0-.11,0-.16-.07-.15-.16-.16v0a.27.27,0,0,0-.29-.31.7.7,0,0,0-.91-.54.65.65,0,0,0-.48-.14c-.59-.45-1.24-.81-1.48-.69l-.36.2a.42.42,0,0,0-.12.07,5.21,5.21,0,0,0-.68.46.41.41,0,0,0-.4.12,4.46,4.46,0,0,0-1.07,1.94,2,2,0,0,0-.3,1.67,1.86,1.86,0,0,0-.21,1.79l0,.06s0,0,0,.06.09.22.24.28l.11.12c0,.07,0,.13,0,.2,0,.34.24.47.6.47a1.58,1.58,0,0,0,1.27.35,5.14,5.14,0,0,0,1-.22l.09,0a1.13,1.13,0,0,0,1.32-.22.9.9,0,0,0,.19-.07C353.32,152.5,353.6,152,353.78,151.39Z"/></svg>