<svg xmlns="http://www.w3.org/2000/svg" xmlns:xlink="http://www.w3.org/1999/xlink" viewBox="0 0 504 504"><defs><style>.a{fill:none;}.b{fill:#00a6e9;}.c{clip-path:url(#a);}.d{clip-path:url(#b);}.e{clip-path:url(#c);}.f{clip-path:url(#d);}.g{clip-path:url(#e);}</style><clipPath id="a"><rect class="a" x="327.7" y="375.65" width="37.98" height="46.26" transform="translate(-173.1 303.68) rotate(-38.63)"/></clipPath><clipPath id="b"><rect class="a" x="327.7" y="375.65" width="37.98" height="46.26" transform="translate(-173.1 303.68) rotate(-38.63)"/></clipPath><clipPath id="c"><rect class="a" x="363.38" y="345.75" width="32.26" height="43.73" transform="translate(-145.22 429.51) rotate(-50.82)"/></clipPath><clipPath id="d"><rect class="a" x="363.38" y="345.75" width="32.26" height="43.73" transform="translate(-145.22 429.51) rotate(-50.82)"/></clipPath><clipPath id="e"><rect class="a" x="387.6" y="312.81" width="31.93" height="43.52" transform="translate(-110.74 435.98) rotate(-50.82)"/></clipPath></defs><title>help</title><path class="b" d="M374.75,257.23c0-.35.05-.71.08-1.06,0-.09-.1-.15-.27-.18a.63.63,0,0,0,.1-.31c0-8.11-.09-16-1.57-24.06a122.39,122.39,0,0,0-6.36-22.71,103.49,103.49,0,0,0-10.8-20.77c-1.19-1.72-2.44-3.4-3.74-5a113.82,113.82,0,0,0-12.34-15c-11-11.22-24.06-20.94-38.6-27.14h0l-1-.46a140.15,140.15,0,0,0-21-7.33,122.26,122.26,0,0,0-28.22-4.1,131.7,131.7,0,0,0-48.73,7.62A91.23,91.23,0,0,0,192,141.27a124.67,124.67,0,0,0-19.58,11.06A121.3,121.3,0,0,0,137.68,189c-1.23,2-2.37,4.11-3.45,6.24a108,108,0,0,0-13.13,41.91A116.53,116.53,0,0,0,120,252.89a120,120,0,0,0,7.41,41.92,118.31,118.31,0,0,0,7.65,16.73,123.05,123.05,0,0,0,21.36,28.59,108.45,108.45,0,0,0,13.37,11.29c1.86,1.43,3.75,2.82,5.68,4.16a116.34,116.34,0,0,0,42.4,17.86,102.59,102.59,0,0,0,21.32,2.25,138,138,0,0,0,49.6-7.39,128.29,128.29,0,0,0,24.24-11q4.41-2.54,8.58-5.38a126,126,0,0,0,15.15-12.21A123,123,0,0,0,362.65,305l.24-.53.36-.73a122,122,0,0,0,6-14.68,113.7,113.7,0,0,0,3.89-15.37,116.58,116.58,0,0,0,1.75-16.2A.32.32,0,0,0,374.75,257.23ZM142.07,312.08a119.78,119.78,0,0,1-15.15-42,116.3,116.3,0,0,1-.27-34c.5-3.54,1.16-7.07,2-10.57.16-.43.31-.86.48-1.28.09-.62.19-1.22.29-1.83q1.05-4,2.39-7.93l4.42-10.83.33-.69a125.43,125.43,0,0,1,7.64-13.33l.44-.55.23-.44q1.59-2.38,3.29-4.68L165.67,165c.84-.73,1.7-1.45,2.56-2.15L185.34,151l.85-.49.16-.09q1.58-.88,3.19-1.72l1-.48c.81-.41,1.63-.83,2.45-1.22s1.89-.89,2.85-1.32l.59-.27a129.58,129.58,0,0,1,29.26-8.81,127.6,127.6,0,0,1,42.07-.07,129.39,129.39,0,0,1,14.64,3.32l.13,0,1,.31a127.06,127.06,0,0,1,40.33,20.91l23.81,25.08A125,125,0,0,1,354.95,198l.06.12a60.29,60.29,0,0,1,2.26,5.86,70.3,70.3,0,0,1,4.3,8.15,108.26,108.26,0,0,1,5.8,21.08l1.08,7.85c.11,1.06.19,2.11.26,3.17a113.22,113.22,0,0,1,.15,11.91.42.42,0,0,0,.08.26c0,.26,0,.51,0,.77l.11,0c-.55,7.82-1.28,15.52-3.29,23.14-.29,1.11-.61,2.2-.93,3.29l-5.54,15.17c-.49,1.1-1,2.18-1.55,3.27l-.37.71L350.76,314a125,125,0,0,1-14.9,18.48q-.95,1-1.92,1.92l-.21.2-.06.06a132.27,132.27,0,0,1-12.79,10.59l-42.14,20q-5.34,1.43-10.79,2.43L242,370c-2.45,0-4.9,0-7.34-.17a101.16,101.16,0,0,1-10.53-1.14,115.65,115.65,0,0,1-19.66-5.07q-1.06-.46-2.12-1c-.89-.26-1.78-.55-2.65-.84l-1.8-.74a71,71,0,0,1-6.51-3.7,71.7,71.7,0,0,1-7.12-3.13,118.52,118.52,0,0,1-21-15.57c-.84-.79-1.66-1.6-2.48-2.41-.59-.59-1.19-1.17-1.76-1.77l-.08-.08A126.69,126.69,0,0,1,149,322.58q-.79-1.06-1.55-2.14Z"/><path class="b" d="M328.73,252.45c0-1.35-.08-2.7-.19-4-.09-2.14-.26-4.28-.53-6.42a77.11,77.11,0,0,0-2.52-12.13,61.33,61.33,0,0,0-5.65-14.1c-1.13-1.89-2.36-3.74-3.67-5.55a78.61,78.61,0,0,0-14-17,63.81,63.81,0,0,0-12-9c-.34-.19-.69-.36-1-.54a73.38,73.38,0,0,0-19.6-8.49,72.64,72.64,0,0,0-15.73-2.8,79.22,79.22,0,0,0-32.21,4.28,44.69,44.69,0,0,0-4.53,2,87.61,87.61,0,0,0-8.49,4,74.38,74.38,0,0,0-27.35,25.57l-.36.6-.18.25a58.43,58.43,0,0,0-4.65,8.27,58.18,58.18,0,0,0-3.75,8.8c-.63,2.08-1.13,4.17-1.55,6.27-.12.44-.26.88-.37,1.32a102.22,102.22,0,0,0-2.14,12.9.35.35,0,0,0,.25.39c0,.16,0,.31,0,.46-.05.43.55.34,1.21.06,0,.11,0,.21,0,.32-.12.89.77.28,1.35-.36h.13a.54.54,0,0,0,.24-.17.49.49,0,0,0,.5-.39c.11,0,.19-.05.2-.13s0-.15,0-.23.11,0,.11-.07q.16-1.26.33-2.51l10.94-31.54q2-3.23,4.32-6.29c.49-.63,1-1.25,1.5-1.87l14.8-13.72,1.79-1.31-.09-.1.42-.27a39.87,39.87,0,0,1,5.49-2.46,39.85,39.85,0,0,1,4.31-2.94A77.81,77.81,0,0,1,235,177.61c2-.35,4.05-.62,6.1-.8a78.32,78.32,0,0,1,13-.09s0,0,0-.06a77.88,77.88,0,0,1,12.49,2,83.25,83.25,0,0,1,9.82,3.22l7.17,3.34a96.18,96.18,0,0,1,14,9.34s0,0,0,0c1.43,1.22,2.84,2.47,4.18,3.8a76.75,76.75,0,0,1,8.92,10.59l6.84,11.88c.85,1.83,1.64,3.69,2.34,5.57a94.83,94.83,0,0,1,4,16.52,78.82,78.82,0,0,1,.52,12.21,76.13,76.13,0,0,1-5.77,26.44c-.38.72-.77,1.43-1.2,2.14-.29.89-.62,1.76-1,2.61a110.54,110.54,0,0,1-6.47,10.7q-.93,1.28-1.91,2.53c-1.18,1.5-2.41,2.94-3.69,4.34q-.91,1-1.85,1.93c-.49.49-1,1-1.5,1.45l-.55.53a77.14,77.14,0,0,1-18.57,12.78,40.21,40.21,0,0,1-7,1.9,40.48,40.48,0,0,1-5.87,3c-.83.14-1.67.26-2.52.35-1.19.46-2.39.85-3.6,1.21a75.08,75.08,0,0,1-8.15,1.16,75.87,75.87,0,0,1-27.34-2.69l-1.07-.45-1.21-.23a76.51,76.51,0,0,1-17.58-8.17,82.91,82.91,0,0,1-15.19-12.69A80.35,80.35,0,0,1,181.56,289a75.43,75.43,0,0,1-5.13-11.51q-1-2.93-1.79-5.92t-1.29-6.16l0,0c0-.1,0-.21-.06-.31s-.05.07-.13.12l-.06,0v-.06l0,0v0s-.06,0-.14,0a.35.35,0,0,0-.34-.21h0c0-.1,0-.2-.05-.29a.91.91,0,0,1,0,.25l-.06,0-.07-.3a.58.58,0,0,1-.07.19v0c0-.2-.13-.09-.21.09l-.13,0,0-.14c0-.21-.14-.08-.22.13-.34-.08-.76.13-.67.53v.05l-.09.12c-.78.34-1.61.92-1.51,1.39a87.15,87.15,0,0,0,3.83,13.91c.6,1.74,1.27,3.46,2,5.17a78,78,0,0,0,13.86,21,65.78,65.78,0,0,0,9.32,8.5l.44.3.62.5a80.65,80.65,0,0,0,25.38,13.08,68.48,68.48,0,0,0,15.34,3,70.62,70.62,0,0,0,9.09.43c12.32-.23,24.9-2.89,35.8-8.81.92-.5,1.82-1,2.71-1.6,1.92-1.08,3.81-2.23,5.64-3.47a69.34,69.34,0,0,0,11-9.11,79.27,79.27,0,0,0,7-7.72,66.59,66.59,0,0,0,5.29-7.66l.4-.63A79.2,79.2,0,0,0,328.73,252.45Z"/><path class="b" d="M208.62,185.35a3.53,3.53,0,0,0-.09-.7,4.58,4.58,0,0,0-.66-1.69q-5.27-7.3-10.9-14.33l-2.36-3.1a30.31,30.31,0,0,0-8.11-10.63c-.62-.8-1.27-1.61-2-2.35-.16-.18-.33-.35-.51-.52a11.63,11.63,0,0,0-1.66-1.36c-.15-.12-.29-.25-.45-.36a11.59,11.59,0,0,0-3.83-1.43,13.76,13.76,0,0,0-7.8.22l-.11,0H170a15.36,15.36,0,0,0-7.51,3.59,37.12,37.12,0,0,0-3.35,3.11.64.64,0,0,0-.42.43l-.49.5-4.93,5.71-4.12,4.35a3.4,3.4,0,0,0-.52.55l-3.57,3.77a19,19,0,0,0-2.23,3,7.22,7.22,0,0,0-.7,1.73c-.09.19-.18.38-.25.57s-.23.21-.12.37l0,.1c-.39.15-.67.4-.37.68l.1.1a.36.36,0,0,0,.09.3,7.36,7.36,0,0,0,.24,2.27.29.29,0,0,0,.21.19c0,.15.09.31.15.48s.75.14,1.33-.15v0c.13.45.6.26.86-.05,2,1.93,4,3.83,6.07,5.68a205,205,0,0,0,20.75,14,43.46,43.46,0,0,0,9.06,4.21,15.32,15.32,0,0,0,2.82.57.92.92,0,0,0,.26.31c.64.49,1.85,0,2.64-.26h.45A1.42,1.42,0,0,0,188,206c.59-.19,1.16-.4,1.72-.62a.92.92,0,0,0,.47.09,19.92,19.92,0,0,0,8.8-5.13c.21-.21.43-.41.64-.63s.51-.58.75-.88a54.94,54.94,0,0,0,6.94-9,12.8,12.8,0,0,0,1-1.73A3.83,3.83,0,0,0,208.62,185.35ZM180,201.16a23.3,23.3,0,0,0,2.88.39l-.21.2-1.19-.08C181,201.51,180.53,201.34,180,201.16Z"/><path class="b" d="M339,175.5a12.11,12.11,0,0,0,2.62-5.54,8.12,8.12,0,0,0-.63-5.35c-.14-.3-.32-.59-.48-.88a17.48,17.48,0,0,0-3-4.5c-.53-.64-1.1-1.26-1.69-1.86l-.45-.51a49.46,49.46,0,0,0-11.48-9.28A12.8,12.8,0,0,0,319,145.8a6.13,6.13,0,0,0-2.23.12c-.51-.33-1.08-.56-1.43-.22l-.67.63a6,6,0,0,0-2.11,1,12,12,0,0,0-2.19,2.28c-.79,1-1.55,2-2.32,3-2.84,2.69-5.69,5.37-8.51,8.07a64.88,64.88,0,0,0-5.38,5.84,33.37,33.37,0,0,0-3.1,4.67,22,22,0,0,0-3.24,8.45,16,16,0,0,0,0,4.47,14.58,14.58,0,0,0,5.47,11.57,12.8,12.8,0,0,0,2,1.27,13.7,13.7,0,0,0,5.31,2.1,13.88,13.88,0,0,0,5.83.42,17.92,17.92,0,0,0,6.37-1.68,40.82,40.82,0,0,0,8.29-5.3c1.2-.93,2.36-1.9,3.48-2.86s2.46-2.09,3.66-3.17c1-.91,2-1.83,3-2.77A49.45,49.45,0,0,0,339,175.5Z"/><path class="b" d="M156.4,144.34s0,0,0,0a.1.1,0,0,0-.09-.13c0-.12-.16-.23-.28-.18h0l-.09,0c-.19-.14-.4-.25-.47-.22-4.66,2.21-9.13,4.4-13.55,7a102,102,0,0,0-12.42,8.88,111.35,111.35,0,0,0-15.29,15.44c-.36.43-.72.86-1.07,1.3l-.78,1q-1.08,1.38-2.1,2.8l-.48.68q-1.07,1.5-2.08,3l-.6.91c-.44.69-.87,1.37-1.29,2.07-.33.53-.67,1-1,1.57a102.94,102.94,0,0,0-11.85,28.82c-.23,1-.45,2-.66,3-.09.43-.2.85-.29,1.29a109.09,109.09,0,0,0-2.11,26.56v.28c.09,2.12.23,4.23.45,6.35a110.88,110.88,0,0,0,9.84,36,90.57,90.57,0,0,0,6.37,11.52c.37.57.74,1.12,1.12,1.68s.76,1.09,1.16,1.64l.36.49a40.91,40.91,0,0,0,7.14,7.56,36,36,0,0,0,6.17,4A17,17,0,0,0,126.2,319l.5.12h0c.88.21,1.83.39,3.07.66,0,0,0,0,0-.05h.07s0,0,0,0l.1,0s-.06-.05-.09-.1l0,0,0,0,0,0,0,0,0,0,.15,0a.15.15,0,0,1-.07-.06c.06,0,0,0,0-.06v0l.12,0-.08-.07a.06.06,0,0,0,0-.09c.06-.07.07-.17,0-.2h0c0-.09,0-.16-.11-.18h0c-.05-.16-.13-.31-.2-.33a23.47,23.47,0,0,1-7-2.16l-2.19-1.24-2.79-1.81-6.93-6.83q-.78-1-1.52-1.93c-.3-.41-.61-.83-.9-1.25l-.56-.81q-.84-1.25-1.65-2.54l-1.81-3.3L93.91,269.17l-.51-1.74q-1.23-5.75-1.88-11.58l-.16-2.5c0-.76,0-1.52-.05-2.28s-.15-1.37-.22-2.06l-.14-2.16c0-.27,0-.53,0-.8,0-1.09.07-2.18.14-3.27,0-.8-.05-1.59-.06-2.39.13-3.38.41-6.75.83-10.08.05-.42.12-.84.18-1.27q.27-1.49.59-3c.09-.88.21-1.75.33-2.62q.95-4.92,2.34-9.7l2.2-6.7q.55-1.51,1.16-3c.16-.35.3-.71.47-1.06s.33-.84.49-1.26q.54-1.27,1.12-2.52l.12-.26c.32-.7.66-1.39,1-2.08l.72-1.43.57-1.1c.32-.62.66-1.23,1-1.84l3.5-5.88q.52-.82,1.05-1.62c1.21-1.65,2.49-3.26,3.85-4.82,1-1.58,2-3.1,3.13-4.58.34-.41.67-.82,1-1.23q2-2.31,4-4.51l.12-.13c.52-.55,1.05-1.09,1.59-1.63l5.15-4.9.49-.44q1.16-1,2.35-2a109,109,0,0,1,12.38-8.86,106.58,106.58,0,0,1,13.53-7v0l.07,0s-.05,0-.09-.07l0,0s0,0,0,0a.08.08,0,0,0,0-.06s0,0,0-.06a.22.22,0,0,0,0,0h0a.17.17,0,0,0,0-.06v-.06S156.41,144.35,156.4,144.34Z"/><path class="b" d="M314.61,367.42h0s0-.05,0-.06h0c.05-.05,0-.09,0-.11a.18.18,0,0,0-.09-.13c-.06-.15-.2-.29-.31-.18a.18.18,0,0,0-.15,0c-.13-.08-.25-.13-.3-.07a118.7,118.7,0,0,0-9,10.24,90,90,0,0,0-7.32,11.49l-.09.18,0,.08c-.11.21-.21.42-.32.63-.33.64-.66,1.29-1,1.94s-.68,1.43-1,2.16l-.11.24c-3.15,7-5.46,14.36-8.32,21.5-.45,1-.91,2-1.41,3-.24.7-.49,1.38-.77,2.05a58.09,58.09,0,0,1-4.31,7.72,44,44,0,0,1-3.2,4.15,37.66,37.66,0,0,1-3.35,3.37c-.21.15-.42.32-.64.46s-.43.42-.64.62c-.39.31-.78.63-1.18.92s-.76.53-1.13.78-.46.26-.69.37-.3.23-.45.34c-.64.38-1.27.74-1.92,1l-.72.33-.24.11a34,34,0,0,1-6.89,1.91s-.06.06-.06.13l-.28.06c-.09,0-.08.1,0,.2h-.11c-.14,0,.05.25.26.42h0c-.15,0-.06.13.07.2a.13.13,0,0,0,.16.13H259s0,.07,0,.07l.89-.18,3-.58.09,0,0,0,.33-.12a19.64,19.64,0,0,0,3.1-1.17h0l.06,0,.11,0s0,0,0,0l.27-.16.12-.06q.59-.27,1.16-.58l.25-.13.3-.17c.44-.24.88-.48,1.31-.75a31,31,0,0,0,3.22-2.37l.09-.07c.22-.18.42-.38.63-.56s.58-.5.85-.77l.12-.11.49-.48a45.3,45.3,0,0,0,7.94-10.58,89.77,89.77,0,0,0,5.66-13l.34-.92.38-1.06c.86-2.38,1.71-4.77,2.58-7.15q.57-1.53,1.17-3.05l.43-1.06,2.54-5.7,3.75-7a89.54,89.54,0,0,1,5.06-7.51c.14-.17.27-.35.41-.52l.31-.44c.64-.84,1.28-1.68,1.94-2.52,2-2.45,4.18-4.8,6.42-7.17l0-.05.06-.06a.1.1,0,0,0,0-.08l0,0Z"/><path class="b" d="M269.13,423.69l.11,0s0,0-.08,0a.07.07,0,0,0,0-.05.15.15,0,0,0,0,0,.08.08,0,0,0,0,0v0h0a.14.14,0,0,0,0-.06s.06-.07,0-.06h0s.07-.07,0-.06,0-.09-.07-.09a.15.15,0,0,0-.16-.13l-.16,0a.58.58,0,0,0-.34-.16,17.5,17.5,0,0,0-5.23,1.55q-2.53,1.17-5,2.48c-.6.3-1.2.55-1.81.81l-11.94,2.75c-.47,0-.95,0-1.42,0h0c-.42,0-.82-.06-1.24-.09-.85-.08-1.69-.18-2.54-.33-.66-.12-1.31-.26-2-.43l-.25-.06c-.28-.07-.55-.17-.83-.25s-.56-.2-.83-.32-.58-.16-.87-.24c-.57-.21-1.13-.43-1.68-.68s-.94-.5-1.39-.8c-.32-.12-.61-.27-.92-.4-.74-.44-1.47-.9-2.17-1.38-.24-.19-.48-.37-.71-.58s-.68-.44-1-.66a36.5,36.5,0,0,1-6.27-6.17c-.24-.32-.47-.64-.7-1l-.22-.32c-.28-.45-.57-.88-.83-1.35s-.55-.78-.81-1.17q-.51-.84-1-1.69l-.13-.22c-1.23-2.19-2.34-4.44-3.41-6.69-2.32-4.9-4.48-10-7.16-14.74q-.48-.85-1-1.69c-.26-.42-.52-.84-.79-1.26l-.26-.4a45.78,45.78,0,0,0-2.85-4c-.42-.52-.86-1-1.31-1.52-.66-.74-1.34-1.46-2.06-2.16a41.43,41.43,0,0,0-6.14-4.86c-.59-.39-1.18-.78-1.78-1.15-4.33-2.66-9-4-13.83-5.17a.11.11,0,0,0-.07,0l-.26-.07c-.12,0-.11.05-.06.14h0c-.31-.08-.15.12,0,.24l-.05.05c-.2.07-.38.18-.18.23h.05c0,.05,0,.11.08.13a42.54,42.54,0,0,1,13.7,5.16,41.66,41.66,0,0,1,7.77,5.89c5.52,5.39,9,12.24,12.26,19.16,4.4,9.39,8.53,19.72,17.29,26a28.22,28.22,0,0,0,3.86,2.3A31.13,31.13,0,0,0,252,430.54a27.13,27.13,0,0,0,5.38-2c.5-.23,1-.46,1.5-.71l1.21-.63a50.23,50.23,0,0,1,6.44-2.8l.38-.11.51-.13.07,0q.65-.14,1.32-.23a.23.23,0,0,0,.12-.09h0l.15,0s0,0,0-.05l.07,0Z"/><path class="b" d="M386.18,276.49c.24-.35.45-.71.68-1.06l.2-.32q.48-.74.95-1.49c.29-.46.57-.92.85-1.39q.89-1.5,1.72-3l.45-.87q.46-.89.89-1.8c.26-.53.54-1,.79-1.59a70.73,70.73,0,0,0,6.38-28.65,71.81,71.81,0,0,0-1-14A74.29,74.29,0,0,0,383,188.84q-1.1-1.38-2.26-2.68c-.52-.6-1.07-1.17-1.61-1.74l-.37-.4-.08-.08-.92-.94q-.87-.88-1.76-1.73h0q-2.18-2.06-4.49-3.94c-.33-.28-.68-.54-1-.81l-1-.76c-1.45-1.13-2.95-2.22-4.51-3.24l0,0-.61-.4c-8.08-5.36-16.93-9.57-25.85-13.43a.08.08,0,0,0-.11,0l-.19-.08c-.24-.1-.21,0-.11.18-.26,0-.54,0-.17.17l.15.06s-.06,0-.07.07c-.22.06-.41.16-.33.19l.18.08a.06.06,0,0,0,0,.1,182.14,182.14,0,0,1,21.68,10.77c2.64,1.6,5.22,3.3,7.73,5.13.26.21.53.41.79.62s.63.45.94.67l.83.65c1.12.89,2.22,1.8,3.29,2.75a75.92,75.92,0,0,1,9.15,9.68l6.5,9.73a68.52,68.52,0,0,1,7.24,18.9L398,233a73,73,0,0,1-.53,11.07h0c0,.12,0,.24-.05.36A73.44,73.44,0,0,1,394.48,257c-.19.49-.37,1-.58,1.48s-.38,1.19-.57,1.78q-1.34,3.54-3,7a72.74,72.74,0,0,1-3.9,6.83c-2.17,3.27-4.52,6.4-6.93,9.52l-3.28,4.22a68.22,68.22,0,0,0-5.9,8.88.16.16,0,0,0,0,.14l-.07.12c0,.07,0,.17.18.25l0,.07c-.05.09,0,.14.1.17a.15.15,0,0,0,.24.09c0,.06.1.1.13.05l0,0s.05,0,.07,0v0l.06,0,0-.08h0l0-.07h0l.41-.68c1-1.59,2-3.15,3.07-4.7,1.82-2.53,3.72-5,5.62-7.48l3.38-4.36c.5-.67,1-1.36,1.44-2l.32-.46C385.62,277.28,385.91,276.89,386.18,276.49Z"/><path class="b" d="M310.48,120.94a.17.17,0,0,0,0,0h0a.15.15,0,0,0,0,0v0h0s0-.07,0-.07,0-.07,0-.07a.1.1,0,0,0-.08-.12c-.05-.13-.16-.25-.23-.23l-.1,0a.26.26,0,0,0-.17-.07h-.06a.24.24,0,0,0-.14,0c-.33.11-.67.2-1,.29a22.83,22.83,0,0,1-5.3.5l-.88-.15c-.29-.1-.58-.21-.87-.33s-.71,0-1.06,0l-2.13-.37a26.37,26.37,0,0,1-7.1-3.73l-6.51-7-.4-.52-4-6.54c-.45-.93-.87-1.88-1.3-2.82-1.5-3.44-2.85-6.94-4.33-10.38l-.19-.44-.29-.66c-.31-.71-.61-1.42-.94-2.11-.15-.32-.32-.64-.48-1s-.23-.51-.36-.76c-.42-.84-.86-1.64-1.33-2.44q-.45-.79-.94-1.55a30.44,30.44,0,0,0-3.5-4.69c-4.57-5-11.05-8.25-17.52-10.12l-.32-.1-1-.27-.29-.08-.55-.13-.68-.16-.42-.09c-4.83-1-9.88-1.21-14.47,1-5.2,2.45-9.25,7.65-12.4,12.23-.27.39-.51.79-.78,1.18-4.43,6.32-7.86,13.25-11.39,20.11-1.34,2.54-2.69,5.08-4.1,7.59a102.45,102.45,0,0,1-8.64,13.19,49.13,49.13,0,0,1-3.48,4.17l0,0a68.77,68.77,0,0,1-6.08,5.59c-1.17.91-2.38,1.78-3.64,2.58,0,0,0,.13,0,.24l0,0c-.14.1,0,.29.24.41a.15.15,0,0,0,.12.21s0,.08.08,0l.07,0s0,.06.07,0l0,0s0,.06,0,.06l.91-.66a35.9,35.9,0,0,0,3.1-2.28l.12-.09v0L186,130l.09-.07h0l.34-.3c.43-.34.86-.7,1.31-1.1s.87-.8,1.34-1.26c.26-.25.53-.49.78-.74l0,0,.7-.8c.49-.5,1-1,1.44-1.52l.53-.61c.3-.34.61-.68.91-1a81.53,81.53,0,0,0,5.69-7.67l.47-.67,0,0,.07-.11c4.14-6.38,7.48-13.22,11-19.93.92-1.73,1.85-3.47,2.8-5.19,1.37-2.42,2.79-4.86,4.3-7.25.73-1.07,1.49-2.13,2.28-3.16.25-.42.53-.83.8-1.25A61.22,61.22,0,0,1,226.28,71l.2-.19c.34-.34.7-.67,1.06-1l.64-.54.51-.4,2.73-1.48.14-.06.1-.07,1.19-.64a10.92,10.92,0,0,1,2.81-.15,16,16,0,0,1,6.4-1.45c.69,0,1.37.1,2,.18.85.13,1.69.3,2.51.49l.48.12c.53.17,1.05.37,1.58.6l3.39,1.18c.59.22,1.2.47,1.81.73s1.29.59,1.94.91c.27.11.53.24.8.35.81.41,1.62.85,2.4,1.31L266,76.65c4.38,4.95,7,11,9.5,17.17,1,2.6,2.07,5.19,3.26,7.69a49.52,49.52,0,0,0,5.66,9.73c3.4,4.41,8,8.33,13.45,9.94a20.75,20.75,0,0,0,5.89,1l.36,0h.17c.64,0,1.22,0,1.78-.11a11.88,11.88,0,0,0,2.29-.37l1.81-.41a.16.16,0,0,0,.07,0l.17,0,0-.05a.11.11,0,0,0,0,0l0,0h0l0,0,0,0h0l0,0h0a.17.17,0,0,0,0,0A.08.08,0,0,0,310.48,120.94Z"/><path class="b" d="M355.24,325.59s0-.08,0-.11a15.59,15.59,0,0,0,0-2.13,6.06,6.06,0,0,0-1.62-3.85l-.28-.29a17.09,17.09,0,0,0-2-2C345.67,312,339.73,307.07,334,302c-2.18-1.92-4.69-4.38-7.21-6.28-.32-.28-.64-.55-1-.81a9.24,9.24,0,0,0-5-2.2,7.18,7.18,0,0,0-1.13,0,9.66,9.66,0,0,0-7.72,1,43.46,43.46,0,0,0-7.64,5.67,50.75,50.75,0,0,0-4.83,5.11,52.59,52.59,0,0,0-3.33,4.16c-1.22,1.71-1.34,3-.62,4.49a3.69,3.69,0,0,0-.13,1.77.67.67,0,0,0,.12.48,4.4,4.4,0,0,0,.24.61.72.72,0,0,0-.26,1.19l.33.44a1.09,1.09,0,0,0,.22.5l3.62,4.66A223.44,223.44,0,0,0,314.92,342c.6.7,1.22,1.39,1.85,2a17.66,17.66,0,0,0,4,3.2,9.27,9.27,0,0,0,2.77,1,10.16,10.16,0,0,0,4.71.8,11.1,11.1,0,0,0,3.49-.87,15.94,15.94,0,0,0,3.19-1.13,45.86,45.86,0,0,0,10.68-7.27,15,15,0,0,0,3-2.09,8.87,8.87,0,0,0,1.71-1.8,7,7,0,0,0,.87-1.26c0-.09.07-.17.11-.26s.3-.32.43-.48A20.15,20.15,0,0,0,353.1,332a10.54,10.54,0,0,0,2.16-4.7A5.31,5.31,0,0,0,355.24,325.59Zm-11.48,4.95-.24.27-.44.47q0-.87,0-1.74a2,2,0,0,0,.2-.27,6.54,6.54,0,0,1,.57,1.12Z"/><path class="b" d="M209,314.58a9.58,9.58,0,0,0-.78-2.2,17,17,0,0,0-3.75-6.43c-.66-.85-1.37-1.68-2.09-2.47l-.63-.63a31.68,31.68,0,0,0-3.55-3.7,41.35,41.35,0,0,0-4.09-3.59,6.78,6.78,0,0,0-1.62-.81,4.55,4.55,0,0,0-2.28,0,4.69,4.69,0,0,0-.61-.29,4.09,4.09,0,0,0-2.89.11,7.26,7.26,0,0,0-1.79,1.06,5.5,5.5,0,0,0-1.79-.17c-.66-.43-1.38-.69-1.91-.23q-10.63,8.9-20.65,18.49-1.26,1.16-2.5,2.34a8.65,8.65,0,0,0-6,5.07c0,.1-.06.2-.1.29l-.18.23a6.47,6.47,0,0,0-.83,1.66l-.92,1a5.39,5.39,0,0,0-1.17,2.22v0a4.16,4.16,0,0,0-.89,1.58,3.6,3.6,0,0,0,.75,3.16l.13.17c0,.08-.05.16-.07.24a3.83,3.83,0,0,0,.92,3.11l.66.72q7.33,7.55,14.31,15.42a25,25,0,0,0,4.59,4.2l.07.06a12.9,12.9,0,0,0,4,2.3,7.26,7.26,0,0,0,1.61.32,7.93,7.93,0,0,0,5,.05,8.19,8.19,0,0,0,4.4-1.64l.35-.26a12.37,12.37,0,0,0,1.13-.83,41.87,41.87,0,0,0,5.46-5.82,98,98,0,0,0,7-9.32q.48-.72,1-1.45a43.69,43.69,0,0,0,3.85-7,30.74,30.74,0,0,0,1.37-4l0-.1c.71-1.35,1.44-2.7,2.14-4.06.07.08.11.15.1.19a28,28,0,0,0,1.34-2.93l0-.06.79-2A7.8,7.8,0,0,0,209,314.58Z"/><g class="c"><g class="d"><path class="b" d="M372.57,400.75q-9.34-11.72-19.26-23l-3.53-4.28a1.11,1.11,0,0,0-.61-.36L348,371.79c-.91-1-2.88,1.07-3.39,1.52l-.68.56-.18-.22c-.67-.79-1.49-.37-2,.36a1.31,1.31,0,0,0-1,.63c-.5.11-.86.35-.57.69l.42.52c-.38.12-.64.29-.46.51l.19.23a1.87,1.87,0,0,1-.58.29l.74.9c-.15.17-.25.3-.22.33l.61.74c-.1,0-.18.08-.19.06q6,7.34,12,14.61c-3.93,3.33-7.87,6.4-12,9.36l-11.48-16.22c-.82-1.16-3.32,1-3.85,1.38-.18.12-.61.39-1.09.73a1.28,1.28,0,0,0-2,.13.63.63,0,0,0-.26,0,1.16,1.16,0,0,0-.61.81c-.38,0-.65.07-.52.25l.4.58a.67.67,0,0,0-.13.18c-.26,0-.44,0-.38.09l.41.59c-.4.09-.75.15-.84,0l.82,1.18c-.22.19-.38.35-.35.38l.61.82c-.11.11-.18.2-.15.25q10.61,15.11,21.35,30.13a.28.28,0,0,0,.23.08l.53.75c.16.22.6.12,1-.11l.1.14c.38.53.86.84,1.46.56a1.29,1.29,0,0,0,.44-.37h.07a.91.91,0,0,0,.26-.13,5.17,5.17,0,0,0,2.23.44.91.91,0,0,0,.82-.94h.09c.4,0,2.91,0,2-1.25l-.37-.52c.56-.23.94-.61.46-1.28l-1-1.39c.67-.42,1.13-.91.8-1.38l-1.18-1.66a.8.8,0,0,0-.15-.48l-3.93-5.55a41.47,41.47,0,0,0,7.5-4.94q2.86-2.1,5.54-4.41l.67.8c1.85,2.22,3.68,4.45,5.53,6.67.1.12.51-.07.93-.32l.61.73c.42.5,1,0,1.38-.51a2,2,0,0,0,1.53.15,1.23,1.23,0,0,0,.46-.63,2,2,0,0,0,.72-.19.9.9,0,0,0,.42-1c.88-.39,1.39-1,.83-1.69l-.51-.67c1.08-.59,2.49-1.53,1.89-2.25l-1.28-1.53a.84.84,0,0,0-.19-.54"/></g></g><g class="e"><g class="f"><path class="b" d="M368.12,362.85c2.39-3.76,9.24-16.66,9.24-16.66s-2.64-3.85-3.28-3.61a6.74,6.74,0,0,0-2.58,2.34,1,1,0,0,0-1.44,0l-.28.41a.66.66,0,0,0-.5.25l-.4.58a.45.45,0,0,0-.22.13l-10.14,14.86c0-.05.27,0,.57,0l-.47.68a.82.82,0,0,0-.59.14.84.84,0,0,0-.37.67.44.44,0,0,0-.2,0c-.25.11-.49.26-.19.54l.48.46h0c-.14-.07-.27-.1-.36,0-.36.23-.11.47.12.71l0,0v.08a1.7,1.7,0,0,1-.83-.32l.79.72a2,2,0,0,0,.45,1,1.1,1.1,0,0,0,0,.18c-.23.36-.38.71-.27.82l.3.28-.29.26q11.93,11.11,23.57,22.51c.05.05.15,0,.26,0l.63.6c.21.2.6,0,.95-.27l0,0a2.54,2.54,0,0,0,.25.19c0,.11.08.13.19.14a1.18,1.18,0,0,0,1.14.09l.15.11c.63.36.91.07,1.27-.45l.22-.3c.85.21,2,.35,2.39-.19l.12-.15c.26-.13.44-.31.44-.54a2.18,2.18,0,0,0,1.26-.55c4.43-5.74,12.17-17.23,12.17-17.23s-.63-1-1.17-1.17l.35-.56c.74-1.18-1.9-4.07-2.65-3.71s-7.59,7.68-12.85,14q-2.8-3.07-5.78-5.92l4.44-6.51c.35-.51.27-.85,0-1.1.13-.18.25-.37.39-.55.44-.65-.46-1.15-.46-1.15l.38-.58c.82-1.2-2.18-4.62-2.92-4.3s-5.16,5-8.4,8.44c-.52-.42-1-.85-1.55-1.26l-4.42-4.14m-8.82-.81-.06.07L359,362l.33.06"/></g></g><g class="g"><g class="g"><path class="b" d="M425.24,332.48c-.32.17-.62.37-.92.57l.42-.89c.52-1.1-.65-1.47-1.4-1a8.46,8.46,0,0,0-2.45,2.9h0s0-.07,0-.11c-.21-.47-1.38-1-1.7-.31l-.4.82a.77.77,0,0,0-.66.34l-.23.48a1,1,0,0,0-.6.49,51,51,0,0,1-4.53,8.36c-.32.43-.65.86-1,1.29a5.65,5.65,0,0,1-3.43-.59,19.62,19.62,0,0,1-3.29-2.4,110.66,110.66,0,0,0-13.13-10.73L387.58,328a1.61,1.61,0,0,0-1.59-.2l-1-.59c-1.1-.74-2.23.71-2.91,1.4-.18.18-.55.52-.9.92a1.08,1.08,0,0,0-1.36,0,1.14,1.14,0,0,0-.23.28.62.62,0,0,0-.27.05c-.29.15-.56.67-.24.95l.05,0c-.43.07-.78.17-.7.24l.51.44a.24.24,0,0,0,.07.27h0a1.61,1.61,0,0,0-.55.1l.66.58a.94.94,0,0,0,.29.72c-.4.21-.77.41-.89.31l.9.71s0,0,0,0l.32.27c-.18.18-.29.33-.24.37,6.69,5.68,13.32,11.54,20.15,17.07a20.77,20.77,0,0,0,1.75,1.32,9.86,9.86,0,0,0,1.84,1.19,8,8,0,0,0,3.35.83,6.3,6.3,0,0,0,2.6.25,7.1,7.1,0,0,0,2.68-1l.11,0a9.51,9.51,0,0,0,4.78-2.76c4.4-3,6.8-9.06,8.9-13.58a1.08,1.08,0,0,0,.11-.41l.55-1.25c.35-.78-.28-1-.92-1.05l.85-1.75c.47-1,0-1.68-1.09-1.34"/></g></g><path class="b" d="M413.14,281a12.64,12.64,0,0,0-5.72,2,15.73,15.73,0,0,0-3.89,3.75,15.83,15.83,0,0,0-3,2.87,16.17,16.17,0,0,0-1,1.43,15.67,15.67,0,0,0-.92,1.4,16.15,16.15,0,0,0-2.56,8,8.8,8.8,0,0,0-1.38,2.16c-.09.16-.4.64-.68,1.2a1,1,0,0,0-1.34.39,1.3,1.3,0,0,0-.14.34.6.6,0,0,0-.26.14.85.85,0,0,0-.09,1c-.33.15-.55.31-.43.36l.6.23a.38.38,0,0,0,.08.32c-.27.11-.46.2-.42.22l.77.29a.84.84,0,0,0,.4.75c-.23.34-.44.63-.52.6l1.23.45c-.11.21-.18.38-.15.39l.88.35s0,0,0,0q7.18,2.8,14.3,5.77l2.32,1q8.57,3.45,16.85,7.55a.28.28,0,0,0,.19,0l.86.42c.24.11.57-.16.84-.52l.17.08c.56.26,1,.34,1.4-.16a1.32,1.32,0,0,0,.21-.5l0,0a.84.84,0,0,0,.15-.22,4.15,4.15,0,0,0,1.91-.56.93.93,0,0,0,.29-1.09h0c.37-.17,2.22-1.25,1-1.87l-.29-.15c.54-.5,1-1.17.09-1.58l-1.42-.68c.41-.69.61-1.34.09-1.58l-1.67-.8a.74.74,0,0,0-.39-.43c-1.95-1-3.91-1.91-5.88-2.83,1.48-4,3.08-8.31,2.93-12.53a14.67,14.67,0,0,0-1.15-6.29,12.31,12.31,0,0,0-2-4.08l-.16-.18c-.1-.25-.21-.5-.33-.75a10.48,10.48,0,0,0-4.33-4.65,8.73,8.73,0,0,0-1.76-1.32c-2-1.08-3.54-.81-5.7-.64m4.5,13.53a11.34,11.34,0,0,1,.48,1.21c.78,3.9-.15,8-1.54,11.75l-1.76-.73q-4.32-1.9-8.73-3.57c0-.8.07-1.6.15-2.4l1.42-4.82a22.92,22.92,0,0,1,3-3.86c.09-.13.18-.24.27-.36a11.55,11.55,0,0,1,1.72-.57l4.94,3.36"/><rect class="a" x="401.11" y="278.51" width="35.75" height="45.79" transform="translate(-32.03 552.36) rotate(-64.82)"/><rect class="a" x="401.11" y="278.51" width="35.75" height="45.79" transform="translate(-32.03 552.36) rotate(-64.82)"/></svg>