<svg xmlns="http://www.w3.org/2000/svg" xmlns:xlink="http://www.w3.org/1999/xlink" viewBox="0 0 493.82 412"><defs><clipPath id="a"><rect x="90.12" y="229.88" width="94.5" height="125.99" transform="translate(430.25 155.51) rotate(90)" style="fill:none"/></clipPath><clipPath id="b"><rect x="259.51" y="181.39" width="28.82" height="24.84" style="fill:none"/></clipPath><clipPath id="c"><rect x="90.48" y="57.81" width="94.5" height="125.99" transform="translate(258.53 -16.92) rotate(90)" style="fill:none"/></clipPath><clipPath id="d"><rect x="259.86" y="103.81" width="28.82" height="24.84" style="fill:none"/></clipPath><clipPath id="e"><rect x="306.34" y="229.5" width="94.5" height="125.99" transform="translate(646.08 -61.09) rotate(90)" style="fill:none"/></clipPath><clipPath id="f"><rect x="349.73" y="181.01" width="28.82" height="24.84" style="fill:none"/></clipPath><clipPath id="g"><rect x="308.22" y="57.84" width="94.5" height="125.99" transform="translate(476.31 -234.63) rotate(90)" style="fill:none"/></clipPath><clipPath id="h"><rect x="351.62" y="103.84" width="28.82" height="24.84" style="fill:none"/></clipPath></defs><title>inst</title><rect x="78.17" y="214.3" width="120.09" height="155.41" transform="translate(430.22 153.79) rotate(90)" style="fill:#fff;stroke:#00aeef;stroke-linecap:round;stroke-linejoin:round;stroke-width:4px"/><line x1="200.84" y1="231.41" x2="200.84" y2="232.7" style="fill:none;stroke:#00aeef;stroke-linecap:round;stroke-linejoin:round;stroke-width:2px"/><line x1="200.84" y1="238.05" x2="200.84" y2="347.7" style="fill:none;stroke:#00aeef;stroke-linecap:round;stroke-linejoin:round;stroke-width:2px;stroke-dasharray:2.6743693351745605,5.348738670349121"/><line x1="200.84" y1="350.38" x2="200.84" y2="351.67" style="fill:none;stroke:#00aeef;stroke-linecap:round;stroke-linejoin:round;stroke-width:2px"/><line x1="74.84" y1="232.74" x2="74.84" y2="234.04" style="fill:none;stroke:#00aeef;stroke-linecap:round;stroke-linejoin:round;stroke-width:2px"/><line x1="74.84" y1="239.33" x2="74.84" y2="347.73" style="fill:none;stroke:#00aeef;stroke-linecap:round;stroke-linejoin:round;stroke-width:2px;stroke-dasharray:2.6440391540527344,5.288078308105469"/><line x1="74.84" y1="350.38" x2="74.84" y2="351.67" style="fill:none;stroke:#00aeef;stroke-linecap:round;stroke-linejoin:round;stroke-width:2px"/><line x1="60" y1="338.83" x2="61.3" y2="338.83" style="fill:none;stroke:#00aeef;stroke-linecap:round;stroke-linejoin:round;stroke-width:2px"/><line x1="66.49" y1="338.83" x2="211.81" y2="338.83" style="fill:none;stroke:#00aeef;stroke-linecap:round;stroke-linejoin:round;stroke-width:2px;stroke-dasharray:2.5950496196746826,5.190099239349365"/><line x1="214.4" y1="338.83" x2="215.7" y2="338.83" style="fill:none;stroke:#00aeef;stroke-linecap:round;stroke-linejoin:round;stroke-width:2px"/><line x1="60" y1="245.83" x2="61.3" y2="245.83" style="fill:none;stroke:#00aeef;stroke-linecap:round;stroke-linejoin:round;stroke-width:2px"/><line x1="66.46" y1="245.83" x2="211.15" y2="245.83" style="fill:none;stroke:#00aeef;stroke-linecap:round;stroke-linejoin:round;stroke-width:2px;stroke-dasharray:2.58373761177063,5.16747522354126"/><line x1="213.74" y1="245.83" x2="215.03" y2="245.83" style="fill:none;stroke:#00aeef;stroke-linecap:round;stroke-linejoin:round;stroke-width:2px"/><g style="clip-path:url(#a)"><path d="M221.26,252.06l0.19-.14c0.47-.28.52-0.71,0-0.95a5.37,5.37,0,0,0-1.52,0,1.78,1.78,0,0,0-.47,0h0a0.51,0.51,0,0,0,0-.52,0.58,0.58,0,0,0-.85-0.24,0.5,0.5,0,0,0-.57-0.09h0a0.78,0.78,0,0,0-.57-0.09,52.42,52.42,0,0,1-8.44,4.31,8.29,8.29,0,0,0,.85-1.37,11.41,11.41,0,0,0,2.28-6.59c0.62-4-.81-8.15-2.8-11.71-0.24-.38-1.9-0.24-2.09-0.19h0a3.92,3.92,0,0,0-.33-0.62,0.77,0.77,0,0,0-1-.19,0.58,0.58,0,0,0-.62,0,0.57,0.57,0,0,0-.66,0l-0.62.62a0.28,0.28,0,0,0-.19,0c-5.55,5.45-11.09,11-17.06,16-0.43.33-.81,0.66-1.23,0.95q0.57-1.85,1-3.7c0.9-3.7,1.66-7.35,2.65-11a0.66,0.66,0,0,0-.57-0.71l0.19-.62c0.19-.76-1.8-0.76-2.42-0.76a0.6,0.6,0,0,0-.52-0.66h-0.28a0.29,0.29,0,0,0-.28-0.14h-0.57a7.08,7.08,0,0,0-3.13.76,0.59,0.59,0,0,1,.09.14l-0.43.19,0.28,0.47s0,0,0,.09a0.64,0.64,0,0,0-.24.43c-0.19.09-.38,0.14-0.62,0.24s0,0.09.09,0.09l-0.33.14a0.63,0.63,0,0,1,.43.14,0.36,0.36,0,0,0,0,.24l-0.33.14a1.18,1.18,0,0,0,.66.28v0h0a0.51,0.51,0,0,0-.24.71v0a0.66,0.66,0,0,0,.81.19,1.67,1.67,0,0,0,.85,1c-0.62,2.56-1.18,5.12-1.8,7.73-0.19.85-.43,1.75-0.66,2.61-0.19.52-.33,1.09-0.52,1.61a22.9,22.9,0,0,1-2.28,4.88,0.59,0.59,0,0,0,.14.09c-0.14.24-.24,0.43-0.38,0.66h0.24c-0.14.24-.24,0.43-0.33,0.62a0.36,0.36,0,0,0,.28.14c0,0.14-.14.24-0.19,0.38s0.19,0.28.52,0.33v0c-0.33.62,0.19,0.81,0.66,0.76a0.17,0.17,0,0,0,.14,0,1.46,1.46,0,0,0,1,1l0.38-.14a1,1,0,0,0,.85.43c0.85-.28,1.71-0.52,2.46-0.85a19,19,0,0,0,2.18-1.14c0.19-.09.38-0.19,0.62-0.28a37.1,37.1,0,0,0,3.18-2.13q1.07-.78,2.13-1.71v0.19c-0.09,0-.19,0-0.14.09l0.14,0.28v0c-0.38-.14-0.76-0.19-0.62.19l0.14,0.24a0.31,0.31,0,0,0-.09.47,6,6,0,0,0,.71,1.18,5.42,5.42,0,0,0,1.47,1.94,4.09,4.09,0,0,0,.76.47c0.14,0.14.28,0.33,0.43,0.47a4.51,4.51,0,0,0,1.33.95c2.13,1.18,4.74,1.14,7.11,1,0.71,0,1.47-.09,2.18-0.19a16.93,16.93,0,0,0,2.65-.33,14.33,14.33,0,0,0,2.37-.9l1.61-.71a49,49,0,0,0,9-5,0.46,0.46,0,0,0,.28-0.43l1.18-.71c0.66-.38-0.24-0.85-0.66-1m-29,1,0.09,0,0.09,0.14a0.69,0.69,0,0,1-.19-0.09m14.22-6.26A12,12,0,0,1,204,251.4a4.09,4.09,0,0,1-.62.66,12.25,12.25,0,0,1-4.88,1.71,19,19,0,0,1-2.37.38,1,1,0,0,0-.19-0.28,2.69,2.69,0,0,0-2-.43,1.86,1.86,0,0,1-.38-0.47,0.55,0.55,0,0,0-.66-0.09,0.37,0.37,0,0,0-.38-0.09s0,0-.09,0l2.28-2c3.7-3.27,7.3-6.73,10.81-10.19a13.66,13.66,0,0,1,.71,3.41,11.21,11.21,0,0,1,0,3.08" style="fill:#00a6e9"/><path d="M185.57,227.18l-0.09.47c0,0.14.19,0.19,0.43,0.24V228a0.64,0.64,0,0,0,.52.81,0.58,0.58,0,0,0,.28,0,0.23,0.23,0,0,0,.19,0,5.32,5.32,0,0,0,.76,1c0.24,0.24.76,0.66,0.95,0.09v0c0.38,0.28.9,0.66,1,0l0.09-.38a0.43,0.43,0,0,0,.57-0.43l0.19-.95a0.62,0.62,0,0,0,.76-0.33l0.47-2.42v-0.14l0.24-1.14c0.14-.76-2-0.57-2.23-0.52h-0.19s-0.09-.14-0.14-0.19v0c0.19-.62-0.52-0.71-1.14-0.57a0.82,0.82,0,0,0-.57-0.09c-0.24-.19-0.43-0.24-0.47,0l-0.09.43c-0.14-.09-0.28-0.14-0.33,0v0.14a0.41,0.41,0,0,0-.28-0.14,0.39,0.39,0,0,1,.28.19v0.19l-0.09.09a0.74,0.74,0,0,0-.28.38,0.28,0.28,0,0,0-.24.09l-0.09.47a0.1,0.1,0,0,0-.09.09L185.57,227a0.59,0.59,0,0,0,.14.09" style="fill:#00a6e9"/><rect x="177.13" y="222.67" width="45.03" height="38.72" style="fill:none"/><rect x="177.13" y="222.67" width="45.03" height="38.72" style="fill:none"/><path d="M145.28,173.76c-0.33.28-.62,0.62-0.95,0.9a0.37,0.37,0,0,0-.38-0.09c-0.43-.95-1.14-0.43-1.66.33a0.91,0.91,0,0,0-.47.14,0.9,0.9,0,0,0-.24.47,0.71,0.71,0,0,0-.52.85,0.09,0.09,0,0,0,0,.09l0.14,0.28a0.41,0.41,0,0,0-.14.28,0.56,0.56,0,0,0-.33.38c2.28,5.88,4.31,11.66,5.21,18,0.09,0.62.24,1.42,0.33,2.23-1.33-.62-2.61-1.18-3.84-1.85-2.28-1.18-4.41-2.46-6.59-3.7a69.69,69.69,0,0,0-6.54-3.22c-0.47-.19-1.9.81-2.84,1.8l-0.62-.28a0.72,0.72,0,0,0-.81.57c-0.43,0-.71.33-0.24,0.66a2.7,2.7,0,0,1-.62,0l0.43,0.24a0.51,0.51,0,0,0,.09.43,1.26,1.26,0,0,1-.57-0.14l0.52,0.33c0,0.09,0,.19,0,0.28a0.78,0.78,0,0,0,.24.71v0a0.82,0.82,0,0,0-.19.62l0.57,0.33a0,0,0,0,0,0,0l0.09,0a1.53,1.53,0,0,1-.38.33,144.07,144.07,0,0,0,17.35,9.62c1.33,0.62,2.46,1.42,3.65,1.42a8.11,8.11,0,0,0,1.42.43,1.1,1.1,0,0,0,1-.28,0.72,0.72,0,0,0,.19-0.19h0a3.92,3.92,0,0,0,1.66.24,1.64,1.64,0,0,0,1.18-.76,1.87,1.87,0,0,0,1.42-.62,7.76,7.76,0,0,0,.85-3,17.15,17.15,0,0,0,0-2.7,26.81,26.81,0,0,0-.28-3.89,22.15,22.15,0,0,0-.62-3.08,86.58,86.58,0,0,0-5.12-17.21,0.52,0.52,0,0,0-.62-0.28l-0.33-.85c-0.33-1.09-1.18-.33-1.71.09" style="fill:#00a6e9"/><rect x="128.65" y="178.17" width="30.47" height="29.53" transform="translate(-91.56 143) rotate(-41.31)" style="fill:none"/><rect x="128.65" y="178.17" width="30.47" height="29.53" transform="translate(-91.56 143) rotate(-41.31)" style="fill:none"/><path d="M257.57,270a2,2,0,0,0-1.18.76c-0.43.43-.85,0.9-1.23,1.33h-0.24A0.64,0.64,0,0,0,254,272l-0.52.71a0.5,0.5,0,0,0-.24.09l-0.43.57s-0.09,0-.14.09q-6.75,8.74-13.37,17.54c-0.09.14,0.09,0.24,0.38,0.28l-0.28.38s0,0.14.14,0.19l-0.33.43a1,1,0,0,1,.62-0.24v0a1.06,1.06,0,0,0,.28.81,1.24,1.24,0,0,1-.24.43l0.33-.38,0.09,0.09a0.6,0.6,0,0,0,0,.28c0,0.14,0,.33.24,0.09l0-.09v0l-0.24.33c-0.14.19,0,.24,0.14,0.14a1.26,1.26,0,0,0,.28-0.24,0.41,0.41,0,0,0,.28.14l0,0c-0.14.19-.28,0.43,0,0.52a0.73,0.73,0,0,0,.52-0.33s0,0.14.09,0.19a0.89,0.89,0,0,0,1.18.19l0.47-.52h0c0.85,0.19,2,.38,2.37-0.09,1.61-1.75,3.13-3.55,4.69-5.36,4.79,4.08,9.53,8.2,14.12,12.47a0.21,0.21,0,0,0,.24,0l0.43,0.38a0.65,0.65,0,0,0,.85-0.09,1.28,1.28,0,0,0,1.42.33,0.74,0.74,0,0,0,.28-0.38h0.19a0.74,0.74,0,0,0,.38-0.28c0.38,0,.76,0,1.09.09a1.64,1.64,0,0,0,1.33-.19,0.48,0.48,0,0,0,.09-0.71l-0.33-.28c0.52-.19.95-0.47,0.43-0.9l-0.43-.38c0.33-.24.52-0.57,0.09-0.9l-0.95-.85c0.43-.38.66-0.81,0.38-1l-1-.95a0.39,0.39,0,0,0-.19-0.28c-4.41-4.08-8.91-8.1-13.51-11.94,1.52-1.94,3-3.93,4.46-5.92a0.55,0.55,0,0,0,0-.85l0.28-.38c0.38-.52,0-0.76-0.47-0.9l0.33-.43c0.76-.95-1.47-0.76-1.56-0.76h-0.09l0.81-1c0.52-.66.09-1.18-0.66-1-0.24.09-.43,0.24-0.66,0.33,0.33-.47.85-1.47-0.09-1.52" style="fill:#00a6e9"/><rect x="244.72" y="274.5" width="29.58" height="30.95" transform="translate(-128.47 320) rotate(-52.6)" style="fill:none"/><rect x="244.72" y="274.5" width="29.58" height="30.95" transform="translate(-128.47 320) rotate(-52.6)" style="fill:none"/><path d="M286.62,229.12c-0.52-3.18-1.8-6.3-4.31-8.29a11.84,11.84,0,0,0-2.75-2,10.58,10.58,0,0,0-5.36-2.37h-0.66a7.11,7.11,0,0,0-4,.14,9.38,9.38,0,0,0-4.41,3.37,2.72,2.72,0,0,0-.38,2l-0.43.47a0.54,0.54,0,0,0-.38.33c-0.19.28-.33,0.62-0.52,0.9-0.14-.33-0.43-0.62-0.81-0.28a3.54,3.54,0,0,0-1.28,1.23,12.16,12.16,0,0,0-.95,2.89,7.51,7.51,0,0,0-.9,2.09,7.69,7.69,0,0,0-.38,2.32c0,0.28,0,.52-0.09.81a5,5,0,0,0,0,1.18,9.34,9.34,0,0,0,.52,3.41,11.19,11.19,0,0,0,1.85,3.27,8.08,8.08,0,0,0,1.09,1.42,15.86,15.86,0,0,0,8.06,4.27,9.79,9.79,0,0,0,4.22.24l0.19,0a2.31,2.31,0,0,0,.57,0,14.87,14.87,0,0,0,7.35-4,11.28,11.28,0,0,0,1.85-2.84,2.63,2.63,0,0,1,.28-0.38,11,11,0,0,0,1.61-5.17A12.77,12.77,0,0,0,286.62,229.12Zm-6.07,6.07a11,11,0,0,1-2.18,2.28,9.32,9.32,0,0,1-6,1.85,11.15,11.15,0,0,1-2.46-.66l-0.95-.43L268.7,238a11.18,11.18,0,0,1-2.51-3.41c-0.14-.33-0.24-0.66-0.38-1V233a29.91,29.91,0,0,1,1-6.16,0.31,0.31,0,0,0,.28,0,4.27,4.27,0,0,1,.43-0.47,1.49,1.49,0,0,0,1.09-.24,9.45,9.45,0,0,1,1.9-2l2-.66h0.14a3.7,3.7,0,0,1,1,.14,10.8,10.8,0,0,1,3.6,2.18,8.9,8.9,0,0,1,1.14,1.18,14.27,14.27,0,0,1,2.23,4.88c0.14,0.47.19,1,.28,1.47A12.25,12.25,0,0,1,280.55,235.19Z" style="fill:#00a6e9"/><rect x="259.08" y="216.18" width="27.77" height="30.38" style="fill:none"/><rect x="259.08" y="216.18" width="27.77" height="30.38" style="fill:none"/><rect x="110.68" y="210.54" width="30.57" height="33.41" style="fill:none"/><path d="M140,251.68c-0.09.28-.19,0.52-0.28,0.81l-0.19-.76c-0.24-.9-1.09-0.57-1.33.09a6.82,6.82,0,0,0,0,2.94h0l-0.09,0c-0.38-.19-1.28.09-1.18,0.66L137,256a0.76,0.76,0,0,0-.24.52l0.09,0.38a0.92,0.92,0,0,0-.14.62,37.19,37.19,0,0,1,1.37,7.2c0,0.43,0,.85,0,1.28a4.42,4.42,0,0,1-2.32,1.33,17.34,17.34,0,0,1-3.13.19,85.47,85.47,0,0,0-13,0l-4.36-.09a1.29,1.29,0,0,0-1,.66l-0.85.14c-1,.09-1,1.52-1,2.28,0,0.19-.09.62-0.09,1a0.86,0.86,0,0,0-.81.66v0.28a0.65,0.65,0,0,0-.14.19,0.47,0.47,0,0,0,.33.66h0a0.93,0.93,0,0,0-.33.47h0.52a0.2,0.2,0,0,0,.19.14h0a2.45,2.45,0,0,0-.28.33h0.66a0.82,0.82,0,0,0,.52.28,1.2,1.2,0,0,1-.38.62h1.23a0.44,0.44,0,0,0,0,.33c6.78,0.14,13.56.43,20.33,0.38,0.57,0,1.14,0,1.71,0a6.36,6.36,0,0,0,1.66-.19,6,6,0,0,0,2.42-1.14,4.34,4.34,0,0,0,1.66-1.14,4.84,4.84,0,0,0,1.14-1.9l0,0a7.11,7.11,0,0,0,1.52-4c1.14-3.93-.33-8.72-1.28-12.47l-0.14-.28-0.28-1c-0.19-.62-0.66-0.47-1-0.19-0.09-.47-0.24-0.95-0.33-1.47-0.19-.81-0.81-1-1.28-0.28" style="fill:#00a6e9"/><rect x="111.35" y="251.16" width="33.51" height="24.6" style="fill:none"/><rect x="111.35" y="251.16" width="33.51" height="24.6" style="fill:none"/><path d="M259.79,255.62c-0.95-.19-1.09,1.94-1.18,2.37,0,0.19-.14.62-0.24,1a0.81,0.81,0,0,0-.81.85l-0.14.14a0.57,0.57,0,0,0,.14.66c-0.19.19-.33,0.33-0.19,0.33l0.47,0.09a0.25,0.25,0,0,0,.09.14c-0.14.09-.24,0.19-0.19,0.19l0.62,0.09a0.65,0.65,0,0,0,.47.38,2.82,2.82,0,0,1-.14.52l0.81,0.14c0,0.09,0,.14,0,0.14,7.35,1.37,14.69,2.89,22.09,3.79a0.17,0.17,0,0,0,.14,0l0.62,0.09a0.68,0.68,0,0,0,.38-0.52H283a0.65,0.65,0,0,0,.85-0.43,0.52,0.52,0,0,0,0-.38h0a0.23,0.23,0,0,0,0-.19,3.5,3.5,0,0,0,1.18-.81,0.72,0.72,0,0,0,0-.81l0,0c0.24-.24,1.18-1.33.24-1.47l-0.28,0c0.24-.43.33-0.95-0.33-1l-1.09-.14c0.09-.52.09-1-0.28-1l-1.28-.14a0.48,0.48,0,0,0-.33-0.19c-7.39-.95-14.65-2.51-21.9-3.74" style="fill:#00a6e9"/><rect x="267.32" y="246.97" width="8.53" height="28.34" transform="translate(-17.29 503.02) rotate(-83.82)" style="fill:none"/><rect x="267.32" y="246.97" width="8.53" height="28.34" transform="translate(-17.29 503.02) rotate(-83.82)" style="fill:none"/><path d="M233.06,320.64h0c0.19-.09.43-0.14,0.62-0.24,0.76-.33.71-0.95,0-1.23a12.17,12.17,0,0,0-2.28,0,1.31,1.31,0,0,0-.43,0,0.5,0.5,0,0,0-.14-0.19,0.7,0.7,0,0,0,0-.62,0.83,0.83,0,0,0-1.23-.24,0.72,0.72,0,0,0-.76-0.14l-0.09,0a0.6,0.6,0,0,0-.62-0.09,15.78,15.78,0,0,1-5.88,1.28h-0.28l-0.81-.14a9.48,9.48,0,0,1-1.94-1.71A4.89,4.89,0,0,1,217.8,315a8.54,8.54,0,0,1-1.09-4,15.36,15.36,0,0,1,.09-2.09,9.6,9.6,0,0,1,.43-1.56,8.73,8.73,0,0,1,.43-1.18l0.52-.66a7.54,7.54,0,0,1,1.14-.95,12,12,0,0,1,3-1.47,40.76,40.76,0,0,1,4.17-.9,32.06,32.06,0,0,1,4.27-.09c0.66,0,.62-0.47.43-0.95h0.52c1.23,0-.28-1.66-0.38-1.71l-0.14-.14a13.32,13.32,0,0,1,1.37,0c0.85,0,.95-0.71.38-1.18-0.19-.09-0.38-0.19-0.62-0.28a0.91,0.91,0,0,0,1-.66c0-1-2.13-.9-2.61-0.95l-0.95,0a0.76,0.76,0,0,0-.66-0.85h-0.57l-0.28-.14h-1c-4.6-.19-9.72.47-13.18,3.79a10.92,10.92,0,0,0-3.08,3.51,20.52,20.52,0,0,0-2.09,9.24,13.38,13.38,0,0,0,1.56,6,8.18,8.18,0,0,0,.9,1.33,9.56,9.56,0,0,0,4.17,3.93,10.62,10.62,0,0,0,3.89,1.9c0.47,0.09.95,0.19,1.42,0.24a20.11,20.11,0,0,0,11.47-1.37c0.76-.33.28-0.95-0.19-1.33,0.52-.19,1-0.38,1.52-0.62,0.85-.38-0.43-1.09-0.71-1.18" style="fill:#00a6e9"/><rect x="208.98" y="295.15" width="25.12" height="30.38" style="fill:none"/><rect x="208.98" y="295.15" width="25.12" height="30.38" style="fill:none"/><path d="M173,169.59c3.32-.38,14-2.51,14-2.51s1-3.32.52-3.6A4.81,4.81,0,0,0,185,163a0.75,0.75,0,0,0-.71-0.81l-0.38,0a0.59,0.59,0,0,0-.38-0.19l-0.52,0a0.23,0.23,0,0,0-.19,0l-13.37,1.14a0.7,0.7,0,0,1,.24.33l-0.62,0a0.59,0.59,0,0,0-.38-0.28,0.82,0.82,0,0,0-.57.09,0.18,0.18,0,0,0-.09-0.09c-0.19-.09-0.38-0.14-0.43.14a1.46,1.46,0,0,1,0,.47h0a0.3,0.3,0,0,0-.14-0.24c-0.28-.09-0.33.14-0.33,0.43h0a1,1,0,0,1-.19-0.62c0,0.28,0,.52,0,0.81a1.25,1.25,0,0,0-.33.71l-0.09.09a0.68,0.68,0,0,0-.62.24v0.28l-0.28,0q-0.85,12.23-2,24.31a0.25,0.25,0,0,0,.09.14c0,0.24,0,.43,0,0.66a0.6,0.6,0,0,0,.62.43v0.28a0.14,0.14,0,0,0,0,.19,1.07,1.07,0,0,0,.47.71v0.14c0.09,0.52.38,0.57,0.85,0.52h0.28c0.28,0.62.71,1.33,1.23,1.28h0.14a0.51,0.51,0,0,0,.52,0,1.67,1.67,0,0,0,.9.47c5.4-.14,15.69-1.09,15.69-1.09a2.68,2.68,0,0,0,.14-1.23l0.47,0c1-.14,1.47-3,0.9-3.27s-8-.76-14.12-0.85q0.5-3.06.71-6.11l5.88-.52a0.6,0.6,0,0,0,.66-0.52,1.94,1.94,0,0,0,.52,0c0.62,0,.47-0.81.47-0.81l0.52,0c1.09-.09,1.66-3.46,1.09-3.7s-5.36-.62-8.86-0.9v-1.47c0.09-1.52.19-3,.33-4.5" style="fill:#00a6e9"/><rect x="163.58" y="162.1" width="24.08" height="32.66" style="fill:none"/><rect x="163.58" y="162.1" width="24.08" height="32.66" style="fill:none"/><g style="clip-path:url(#b)"><path d="M283.49,181.39c-7.39.09-14.79,0.09-22.13,0.09-0.95,0-.71,2.18-0.71,2.61v0.19a1.26,1.26,0,0,0-.28.24,0.69,0.69,0,0,0-.76.62,0.6,0.6,0,0,0,0,.28,1.47,1.47,0,0,0,.09.38,0.26,0.26,0,0,0-.14.24,1,1,0,0,0,.09.52c-0.19.33-.24,0.66,0.24,0.66h0.28v0.09c-0.14.19-.19,0.38,0,0.38h0.19a1.19,1.19,0,0,1-.19.43h0.47a0.36,0.36,0,0,0,.19.09,0.32,0.32,0,0,1-.14.19h1q0,0.28.14,0.28c5,0,10,0,15-.09-1.71,1.42-3.41,2.8-5.17,4.08a49.2,49.2,0,0,1-8.25,4.79,1.67,1.67,0,0,0-.38,1.23v0.38l-1.71,0c-0.95,0-.85,2.09-0.9,2.56,0,0.14,0,.52-0.09.9a0.69,0.69,0,0,0-.71.66v0.28a0.25,0.25,0,0,0-.09.14,0.68,0.68,0,0,0,.19.71c-0.14.14-.24,0.28-0.14,0.28h0.43s0,0.09,0,.14-0.28.24-.14,0.24h0.47a1.55,1.55,0,0,0,.71.52h0l0.09,0a0.48,0.48,0,0,0,.19.28h0.43c0,0.19,0,.28.09,0.28q11.23,0.5,22.47.14a0.17,0.17,0,0,0,.09,0h0.62a0.5,0.5,0,0,0,.33-0.52h0a0.9,0.9,0,0,0,1-.62v-0.33l0.14-.14a0.6,0.6,0,0,0,0-.28l0.09,0a9.54,9.54,0,0,0,1.37-1c0.33-.52.09-0.81-0.33-0.9,0.33-.47.66-1.18-0.09-1.14h-0.47c0.09-.38,0-0.71-0.47-0.71l-1.14,0c0.09-.57,0-1-0.38-1l-1.18,0a0.5,0.5,0,0,0-.43-0.24c-3.18.09-6.3,0.14-9.48,0.09,4-2.84,7.63-6.16,11.38-9.29a0.56,0.56,0,0,0,0-.62,0.36,0.36,0,0,0,.09-0.19l0.81-.66c0.38-.33.81-0.9,0.28-1.28a1.63,1.63,0,0,0,.57-1,0.43,0.43,0,0,0-.14-0.33,0.8,0.8,0,0,0-.14-0.47l0.09-.14c0.24-.28.76-1.33-0.09-1.37h0c0.24-.52.47-1.33-0.33-1.28h-1c0-.52,0-1-0.47-1H284a0.6,0.6,0,0,0-.43-0.19" style="fill:#00a6e9"/></g><rect x="259.51" y="181.39" width="28.82" height="24.84" style="fill:none"/><path d="M199.65,306.76c-0.09-1-.14-2-0.24-3a14.33,14.33,0,0,0-1.28-4.83c-1.14-2-3-2.8-5.12-3.13a5.57,5.57,0,0,0-2.7-1,6.4,6.4,0,0,0-1.33-.19c-3-.47-6.45,1.18-8.82,3.32a11.7,11.7,0,0,0-3.7,4.22,7.44,7.44,0,0,0-.81,2.51,7.33,7.33,0,0,0-.33,1.09,14.68,14.68,0,0,0-.24,4.31,1.31,1.31,0,0,0,0,.43,0.77,0.77,0,0,1,0,.33c0.47,5,1,10,1.56,15a0.94,0.94,0,0,0,.47,0c0,0.28,0,.62.09,0.9s0.33,0.19.62,0.14a0.68,0.68,0,0,0,.33.09,0.81,0.81,0,0,0,1.28.62c0.47,0.24,1,.28,1.18-0.19,0.52,0.14.9,0,.9-0.57v-0.47c1.18,0.14,2.28,0,2.23-.33-0.19-1.52-.33-3-0.47-4.5-0.09-1-.14-2-0.24-3,3.32-.09,6.59-0.33,9.91-0.62,0,2.23.14,4.46,0.19,6.68a0.75,0.75,0,0,0,.62.47v0.24a0.81,0.81,0,0,0,.71.76,0.68,0.68,0,0,0,.33-0.09s0.09,0,.14,0h0.14a2.54,2.54,0,0,0,.76,1,0.8,0.8,0,0,0,.9-0.14l0,0c0.28,0.19,1.14.62,1.18-.14v-0.19c0.47,0.19,1,.28,1-0.43v-1c0.85,0.09,1.47,0,1.47-.28C200.22,318.89,200.36,312.73,199.65,306.76Zm-17,6.3c-0.09-1.28-.19-2.61-0.24-3.89a14.31,14.31,0,0,1,.14-2.84,5.41,5.41,0,0,1,.43-1.23,3.26,3.26,0,0,1,.52-0.62h0a14.54,14.54,0,0,1,3.18-2.18c0.33-.09.62-0.14,0.95-0.24l3.55-.24a2.31,2.31,0,0,1,.33.14,12.43,12.43,0,0,1,.66,3c0.28,2.13.43,4.27,0.57,6.4Q187.73,312.28,182.68,313.06Z" style="fill:#00a6e9"/><rect x="174.95" y="294.48" width="25.4" height="33.23" style="fill:none"/><rect x="174.95" y="294.48" width="25.4" height="33.23" style="fill:none"/><path d="M139.69,225c-0.52-3.18-1.8-6.3-4.31-8.29a11.84,11.84,0,0,0-2.75-2,10.58,10.58,0,0,0-5.36-2.37h-0.66a7.11,7.11,0,0,0-4,.14,9.38,9.38,0,0,0-4.41,3.37,2.72,2.72,0,0,0-.38,2l-0.43.47a0.54,0.54,0,0,0-.38.33c-0.19.28-.33,0.62-0.52,0.9-0.14-.33-0.43-0.62-0.81-0.28a3.54,3.54,0,0,0-1.28,1.23,12.16,12.16,0,0,0-.95,2.89,7.51,7.51,0,0,0-.9,2.09,7.69,7.69,0,0,0-.38,2.32c0,0.28,0,.52-0.09.81a5,5,0,0,0,0,1.18,9.34,9.34,0,0,0,.52,3.41,11.19,11.19,0,0,0,1.85,3.27,8.08,8.08,0,0,0,1.09,1.42,15.86,15.86,0,0,0,8.06,4.27,9.79,9.79,0,0,0,4.22.24l0.19,0a2.31,2.31,0,0,0,.57,0,14.87,14.87,0,0,0,7.35-4,11.28,11.28,0,0,0,1.85-2.84A2.63,2.63,0,0,1,138,235a11,11,0,0,0,1.61-5.17A12.77,12.77,0,0,0,139.69,225ZM133.62,231a11,11,0,0,1-2.18,2.28,9.32,9.32,0,0,1-6,1.85,11.15,11.15,0,0,1-2.46-.66l-0.95-.43-0.28-.19a11.18,11.18,0,0,1-2.51-3.41c-0.14-.33-0.24-0.66-0.38-1v-0.62a29.91,29.91,0,0,1,1-6.16,0.31,0.31,0,0,0,.28,0,4.27,4.27,0,0,1,.43-0.47,1.49,1.49,0,0,0,1.09-.24,9.45,9.45,0,0,1,1.9-2l2-.66h0.14a3.7,3.7,0,0,1,1,.14,10.8,10.8,0,0,1,3.6,2.18,8.9,8.9,0,0,1,1.14,1.18,14.27,14.27,0,0,1,2.23,4.88c0.14,0.47.19,1,.28,1.47A12.25,12.25,0,0,1,133.62,231Z" style="fill:#00a6e9"/></g><rect x="78.17" y="43.66" width="120.09" height="155.41" transform="translate(259.58 -16.85) rotate(90)" style="fill:#fff;stroke:#00aeef;stroke-linecap:round;stroke-linejoin:round;stroke-width:4px"/><line x1="200.84" y1="60" x2="200.84" y2="61.3" style="fill:none;stroke:#00aeef;stroke-linecap:round;stroke-linejoin:round;stroke-width:2px"/><line x1="200.84" y1="66.38" x2="200.84" y2="178.24" style="fill:none;stroke:#00aeef;stroke-linecap:round;stroke-linejoin:round;stroke-width:2px;stroke-dasharray:2.5421907901763916,5.084381580352783"/><line x1="200.84" y1="180.78" x2="200.84" y2="182.08" style="fill:none;stroke:#00aeef;stroke-linecap:round;stroke-linejoin:round;stroke-width:2px"/><line x1="74.84" y1="60" x2="74.84" y2="61.3" style="fill:none;stroke:#00aeef;stroke-linecap:round;stroke-linejoin:round;stroke-width:2px"/><line x1="74.84" y1="66.35" x2="74.84" y2="177.58" style="fill:none;stroke:#00aeef;stroke-linecap:round;stroke-linejoin:round;stroke-width:2px;stroke-dasharray:2.5279970169067383,5.055994033813477"/><line x1="74.84" y1="180.11" x2="74.84" y2="181.41" style="fill:none;stroke:#00aeef;stroke-linecap:round;stroke-linejoin:round;stroke-width:2px"/><line x1="60" y1="167.84" x2="61.3" y2="167.84" style="fill:none;stroke:#00aeef;stroke-linecap:round;stroke-linejoin:round;stroke-width:2px"/><line x1="66.46" y1="167.84" x2="211.15" y2="167.84" style="fill:none;stroke:#00aeef;stroke-linecap:round;stroke-linejoin:round;stroke-width:2px;stroke-dasharray:2.58373761177063,5.16747522354126"/><line x1="213.74" y1="167.84" x2="215.03" y2="167.84" style="fill:none;stroke:#00aeef;stroke-linecap:round;stroke-linejoin:round;stroke-width:2px"/><line x1="60" y1="75.84" x2="61.3" y2="75.84" style="fill:none;stroke:#00aeef;stroke-linecap:round;stroke-linejoin:round;stroke-width:2px"/><line x1="66.44" y1="75.84" x2="210.5" y2="75.84" style="fill:none;stroke:#00aeef;stroke-linecap:round;stroke-linejoin:round;stroke-width:2px;stroke-dasharray:2.5724360942840576,5.144872188568115"/><line x1="213.07" y1="75.84" x2="214.37" y2="75.84" style="fill:none;stroke:#00aeef;stroke-linecap:round;stroke-linejoin:round;stroke-width:2px"/><g style="clip-path:url(#c)"><path d="M221.61,174.48l0.19-.14c0.47-.28.52-0.71,0-0.95a5.37,5.37,0,0,0-1.52,0,1.78,1.78,0,0,0-.47,0h0a0.51,0.51,0,0,0,0-.52,0.58,0.58,0,0,0-.85-0.24,0.5,0.5,0,0,0-.57-0.09h0a0.78,0.78,0,0,0-.57-0.09,52.42,52.42,0,0,1-8.44,4.31,8.29,8.29,0,0,0,.85-1.37,11.41,11.41,0,0,0,2.28-6.59c0.62-4-.81-8.15-2.8-11.71-0.24-.38-1.9-0.24-2.09-0.19h0a3.92,3.92,0,0,0-.33-0.62,0.77,0.77,0,0,0-1-.19,0.58,0.58,0,0,0-.62,0,0.57,0.57,0,0,0-.66,0l-0.62.62a0.28,0.28,0,0,0-.19,0c-5.55,5.45-11.09,11-17.06,16-0.43.33-.81,0.66-1.23,0.95q0.57-1.85,1-3.7c0.9-3.7,1.66-7.35,2.65-11a0.66,0.66,0,0,0-.57-0.71l0.19-.62c0.19-.76-1.8-0.76-2.42-0.76a0.6,0.6,0,0,0-.52-0.66h-0.28a0.29,0.29,0,0,0-.28-0.14H185a7.08,7.08,0,0,0-3.13.76,0.59,0.59,0,0,1,.09.14l-0.43.19,0.28,0.47s0,0,0,.09a0.64,0.64,0,0,0-.24.43c-0.19.09-.38,0.14-0.62,0.24s0,0.09.09,0.09l-0.33.14a0.63,0.63,0,0,1,.43.14,0.36,0.36,0,0,0,0,.24l-0.33.14a1.18,1.18,0,0,0,.66.28v0h0a0.51,0.51,0,0,0-.24.71v0a0.66,0.66,0,0,0,.81.19,1.67,1.67,0,0,0,.85,1c-0.62,2.56-1.18,5.12-1.8,7.73-0.19.85-.43,1.75-0.66,2.61-0.19.52-.33,1.09-0.52,1.61a22.9,22.9,0,0,1-2.28,4.88,0.59,0.59,0,0,0,.14.09c-0.14.24-.24,0.43-0.38,0.66h0.24c-0.14.24-.24,0.43-0.33,0.62a0.36,0.36,0,0,0,.28.14c0,0.14-.14.24-0.19,0.38s0.19,0.28.52,0.33v0c-0.33.62,0.19,0.81,0.66,0.76a0.17,0.17,0,0,0,.14,0,1.46,1.46,0,0,0,1,1l0.38-.14a1,1,0,0,0,.85.43c0.85-.28,1.71-0.52,2.46-0.85a19,19,0,0,0,2.18-1.14c0.19-.09.38-0.19,0.62-0.28a37.1,37.1,0,0,0,3.18-2.13q1.07-.78,2.13-1.71v0.19c-0.09,0-.19,0-0.14.09l0.14,0.28v0c-0.38-.14-0.76-0.19-0.62.19l0.14,0.24a0.31,0.31,0,0,0-.09.47,6,6,0,0,0,.71,1.18,5.42,5.42,0,0,0,1.47,1.94,4.09,4.09,0,0,0,.76.47c0.14,0.14.28,0.33,0.43,0.47a4.51,4.51,0,0,0,1.33.95c2.13,1.18,4.74,1.14,7.11,1,0.71,0,1.47-.09,2.18-0.19a16.93,16.93,0,0,0,2.65-.33,14.33,14.33,0,0,0,2.37-.9l1.61-.71a49,49,0,0,0,9-5,0.46,0.46,0,0,0,.28-0.43l1.18-.71c0.66-.38-0.24-0.85-0.66-1m-29,1,0.09,0,0.09,0.14a0.69,0.69,0,0,1-.19-0.09m14.22-6.26a12,12,0,0,1-2.28,4.27,4.09,4.09,0,0,1-.62.66,12.25,12.25,0,0,1-4.88,1.71,19,19,0,0,1-2.37.38,1,1,0,0,0-.19-0.28,2.69,2.69,0,0,0-2-.43,1.86,1.86,0,0,1-.38-0.47,0.55,0.55,0,0,0-.66-0.09,0.37,0.37,0,0,0-.38-0.09s0,0-.09,0l2.28-2c3.7-3.27,7.3-6.73,10.81-10.19a13.66,13.66,0,0,1,.71,3.41,11.21,11.21,0,0,1,0,3.08" style="fill:#00a6e9"/><path d="M185.92,149.6l-0.09.47c0,0.14.19,0.19,0.43,0.24v0.14a0.64,0.64,0,0,0,.52.81,0.58,0.58,0,0,0,.28,0,0.23,0.23,0,0,0,.19,0,5.32,5.32,0,0,0,.76,1c0.24,0.24.76,0.66,0.95,0.09v0c0.38,0.28.9,0.66,1,0l0.09-.38a0.43,0.43,0,0,0,.57-0.43l0.19-.95a0.62,0.62,0,0,0,.76-0.33l0.47-2.42v-0.14l0.24-1.14c0.14-.76-2-0.57-2.23-0.52h-0.19s-0.09-.14-0.14-0.19v0c0.19-.62-0.52-0.71-1.14-0.57a0.82,0.82,0,0,0-.57-0.09c-0.24-.19-0.43-0.24-0.47,0l-0.09.43c-0.14-.09-0.28-0.14-0.33,0v0.14a0.41,0.41,0,0,0-.28-0.14,0.39,0.39,0,0,1,.28.19V146l-0.09.09a0.74,0.74,0,0,0-.28.38,0.28,0.28,0,0,0-.24.09l-0.09.47a0.1,0.1,0,0,0-.09.09l-0.43,2.32a0.59,0.59,0,0,0,.14.09" style="fill:#00a6e9"/><rect x="177.49" y="145.09" width="45.03" height="38.72" style="fill:none"/><rect x="177.49" y="145.09" width="45.03" height="38.72" style="fill:none"/><path d="M145.64,96.18c-0.33.28-.62,0.62-0.95,0.9a0.37,0.37,0,0,0-.38-0.09c-0.43-.95-1.14-0.43-1.66.33a0.91,0.91,0,0,0-.47.14,0.9,0.9,0,0,0-.24.47,0.71,0.71,0,0,0-.52.85,0.09,0.09,0,0,0,0,.09l0.14,0.28a0.41,0.41,0,0,0-.14.28,0.56,0.56,0,0,0-.33.38c2.28,5.88,4.31,11.66,5.21,18,0.09,0.62.24,1.42,0.33,2.23-1.33-.62-2.61-1.18-3.84-1.85-2.28-1.18-4.41-2.46-6.59-3.7a69.69,69.69,0,0,0-6.54-3.22c-0.47-.19-1.9.81-2.84,1.8l-0.62-.28a0.72,0.72,0,0,0-.81.57c-0.43,0-.71.33-0.24,0.66a2.7,2.7,0,0,1-.62,0l0.43,0.24a0.51,0.51,0,0,0,.09.43,1.26,1.26,0,0,1-.57-0.14l0.52,0.33c0,0.09,0,.19,0,0.28a0.78,0.78,0,0,0,.24.71v0a0.82,0.82,0,0,0-.19.62l0.57,0.33a0,0,0,0,0,0,0l0.09,0a1.53,1.53,0,0,1-.38.33,144.07,144.07,0,0,0,17.35,9.62c1.33,0.62,2.46,1.42,3.65,1.42a8.11,8.11,0,0,0,1.42.43,1.1,1.1,0,0,0,1-.28,0.72,0.72,0,0,0,.19-0.19h0a3.92,3.92,0,0,0,1.66.24,1.64,1.64,0,0,0,1.18-.76,1.87,1.87,0,0,0,1.42-.62,7.76,7.76,0,0,0,.85-3,17.15,17.15,0,0,0,0-2.7,26.81,26.81,0,0,0-.28-3.89,22.15,22.15,0,0,0-.62-3.08,86.58,86.58,0,0,0-5.12-17.21,0.52,0.52,0,0,0-.62-0.28l-0.33-.85c-0.33-1.09-1.18-.33-1.71.09" style="fill:#00a6e9"/><rect x="129" y="100.59" width="30.47" height="29.53" transform="translate(-40.25 123.92) rotate(-41.31)" style="fill:none"/><rect x="129" y="100.59" width="30.47" height="29.53" transform="translate(-40.25 123.92) rotate(-41.31)" style="fill:none"/><path d="M257.92,192.44a2,2,0,0,0-1.18.76c-0.43.43-.85,0.9-1.23,1.33h-0.24a0.64,0.64,0,0,0-.9-0.14l-0.52.71a0.5,0.5,0,0,0-.24.09l-0.43.57s-0.09,0-.14.09q-6.75,8.74-13.37,17.54c-0.09.14,0.09,0.24,0.38,0.28l-0.28.38s0,0.14.14,0.19l-0.33.43a1,1,0,0,1,.62-0.24v0a1.06,1.06,0,0,0,.28.81,1.24,1.24,0,0,1-.24.43l0.33-.38,0.09,0.09a0.6,0.6,0,0,0,0,.28c0,0.14,0,.33.24,0.09l0-.09v0l-0.24.33c-0.14.19,0,.24,0.14,0.14a1.26,1.26,0,0,0,.28-0.24,0.41,0.41,0,0,0,.28.14l0,0c-0.14.19-.28,0.43,0,0.52a0.73,0.73,0,0,0,.52-0.33s0,0.14.09,0.19a0.89,0.89,0,0,0,1.18.19l0.47-.52h0c0.85,0.19,2,.38,2.37-0.09,1.61-1.75,3.13-3.55,4.69-5.36,4.79,4.08,9.53,8.2,14.12,12.47a0.21,0.21,0,0,0,.24,0l0.43,0.38a0.65,0.65,0,0,0,.85-0.09,1.28,1.28,0,0,0,1.42.33,0.74,0.74,0,0,0,.28-0.38h0.19a0.74,0.74,0,0,0,.38-0.28c0.38,0,.76,0,1.09.09a1.64,1.64,0,0,0,1.33-.19,0.48,0.48,0,0,0,.09-0.71l-0.33-.28c0.52-.19.95-0.47,0.43-0.9l-0.43-.38c0.33-.24.52-0.57,0.09-0.9l-0.95-.85c0.43-.38.66-0.81,0.38-1l-1-.95a0.39,0.39,0,0,0-.19-0.28c-4.41-4.08-8.91-8.1-13.51-11.94,1.52-1.94,3-3.93,4.46-5.92a0.55,0.55,0,0,0,0-.85l0.28-.38c0.38-.52,0-0.76-0.47-0.9l0.33-.43c0.76-.95-1.47-0.76-1.56-0.76h-0.09l0.81-1c0.52-.66.09-1.18-0.66-1-0.24.09-.43,0.24-0.66,0.33,0.33-.47.85-1.47-0.09-1.52" style="fill:#00a6e9"/><rect x="245.07" y="196.92" width="29.58" height="30.95" transform="translate(-66.7 289.82) rotate(-52.6)" style="fill:none"/><rect x="245.07" y="196.92" width="29.58" height="30.95" transform="translate(-66.7 289.82) rotate(-52.6)" style="fill:none"/><path d="M287,151.54c-0.52-3.18-1.8-6.3-4.31-8.29a11.84,11.84,0,0,0-2.75-2,10.58,10.58,0,0,0-5.36-2.37h-0.66a7.11,7.11,0,0,0-4,.14,9.38,9.38,0,0,0-4.41,3.37,2.72,2.72,0,0,0-.38,2l-0.43.47a0.54,0.54,0,0,0-.38.33c-0.19.28-.33,0.62-0.52,0.9-0.14-.33-0.43-0.62-0.81-0.28a3.54,3.54,0,0,0-1.28,1.23,12.16,12.16,0,0,0-.95,2.89,7.51,7.51,0,0,0-.9,2.09,7.69,7.69,0,0,0-.38,2.32c0,0.28,0,.52-0.09.81a5,5,0,0,0,0,1.18,9.34,9.34,0,0,0,.52,3.41,11.19,11.19,0,0,0,1.85,3.27,8.08,8.08,0,0,0,1.09,1.42,15.86,15.86,0,0,0,8.06,4.27,9.79,9.79,0,0,0,4.22.24l0.19,0a2.31,2.31,0,0,0,.57,0,14.87,14.87,0,0,0,7.35-4,11.28,11.28,0,0,0,1.85-2.84,2.63,2.63,0,0,1,.28-0.38,11,11,0,0,0,1.61-5.17A12.77,12.77,0,0,0,287,151.54Zm-6.07,6.07a11,11,0,0,1-2.18,2.28,9.32,9.32,0,0,1-6,1.85,11.15,11.15,0,0,1-2.46-.66l-0.95-.43-0.28-.19a11.18,11.18,0,0,1-2.51-3.41c-0.14-.33-0.24-0.66-0.38-1v-0.62a29.91,29.91,0,0,1,1-6.16,0.31,0.31,0,0,0,.28,0,4.27,4.27,0,0,1,.43-0.47,1.49,1.49,0,0,0,1.09-.24,9.45,9.45,0,0,1,1.9-2l2-.66H273a3.7,3.7,0,0,1,1,.14,10.8,10.8,0,0,1,3.6,2.18,8.9,8.9,0,0,1,1.14,1.18,14.27,14.27,0,0,1,2.23,4.88c0.14,0.47.19,1,.28,1.47A12.25,12.25,0,0,1,280.91,157.61Z" style="fill:#00a6e9"/><rect x="259.44" y="138.6" width="27.77" height="30.38" style="fill:none"/><rect x="259.44" y="138.6" width="27.77" height="30.38" style="fill:none"/><rect x="111.04" y="132.96" width="30.57" height="33.41" style="fill:none"/><path d="M140.38,174.1c-0.09.28-.19,0.52-0.28,0.81l-0.19-.76c-0.24-.9-1.09-0.57-1.33.09a6.82,6.82,0,0,0,0,2.94h0l-0.09,0c-0.38-.19-1.28.09-1.18,0.66l0.14,0.66a0.76,0.76,0,0,0-.24.52l0.09,0.38a0.92,0.92,0,0,0-.14.62,37.19,37.19,0,0,1,1.37,7.2c0,0.43,0,.85,0,1.28a4.42,4.42,0,0,1-2.32,1.33,17.34,17.34,0,0,1-3.13.19,85.47,85.47,0,0,0-13,0l-4.36-.09a1.29,1.29,0,0,0-1,.66l-0.85.14c-1,.09-1,1.52-1,2.28,0,0.19-.09.62-0.09,1a0.86,0.86,0,0,0-.81.66v0.28a0.65,0.65,0,0,0-.14.19,0.47,0.47,0,0,0,.33.66h0a0.93,0.93,0,0,0-.33.47h0.52a0.2,0.2,0,0,0,.19.14h0a2.45,2.45,0,0,0-.28.33h0.66a0.82,0.82,0,0,0,.52.28,1.2,1.2,0,0,1-.38.62h1.23a0.44,0.44,0,0,0,0,.33c6.78,0.14,13.56.43,20.33,0.38,0.57,0,1.14,0,1.71,0a6.36,6.36,0,0,0,1.66-.19,6,6,0,0,0,2.42-1.14,4.34,4.34,0,0,0,1.66-1.14,4.84,4.84,0,0,0,1.14-1.9l0,0a7.11,7.11,0,0,0,1.52-4c1.14-3.93-.33-8.72-1.28-12.47l-0.14-.28-0.28-1c-0.19-.62-0.66-0.47-1-0.19-0.09-.47-0.24-0.95-0.33-1.47-0.19-.81-0.81-1-1.28-0.28" style="fill:#00a6e9"/><rect x="111.7" y="173.58" width="33.51" height="24.6" style="fill:none"/><rect x="111.7" y="173.58" width="33.51" height="24.6" style="fill:none"/><path d="M260.15,178c-0.95-.19-1.09,1.94-1.18,2.37,0,0.19-.14.62-0.24,1a0.81,0.81,0,0,0-.81.85l-0.14.14a0.57,0.57,0,0,0,.14.66c-0.19.19-.33,0.33-0.19,0.33l0.47,0.09a0.25,0.25,0,0,0,.09.14c-0.14.09-.24,0.19-0.19,0.19l0.62,0.09a0.65,0.65,0,0,0,.47.38,2.82,2.82,0,0,1-.14.52l0.81,0.14c0,0.09,0,.14,0,0.14,7.35,1.37,14.69,2.89,22.09,3.79a0.17,0.17,0,0,0,.14,0l0.62,0.09a0.68,0.68,0,0,0,.38-0.52h0.19a0.65,0.65,0,0,0,.85-0.43,0.52,0.52,0,0,0,0-.38h0a0.23,0.23,0,0,0,0-.19,3.5,3.5,0,0,0,1.18-.81,0.72,0.72,0,0,0,0-.81l0,0c0.24-.24,1.18-1.33.24-1.47l-0.28,0c0.24-.43.33-0.95-0.33-1l-1.09-.14c0.09-.52.09-1-0.28-1l-1.28-.14a0.48,0.48,0,0,0-.33-0.19c-7.39-.95-14.65-2.51-21.9-3.74" style="fill:#00a6e9"/><rect x="267.67" y="169.39" width="8.53" height="28.34" transform="translate(60.16 434.15) rotate(-83.82)" style="fill:none"/><rect x="267.67" y="169.39" width="8.53" height="28.34" transform="translate(60.16 434.15) rotate(-83.82)" style="fill:none"/><path d="M233.42,243.06h0c0.19-.09.43-0.14,0.62-0.24,0.76-.33.71-0.95,0-1.23a12.17,12.17,0,0,0-2.28,0,1.31,1.31,0,0,0-.43,0,0.5,0.5,0,0,0-.14-0.19,0.7,0.7,0,0,0,0-.62,0.83,0.83,0,0,0-1.23-.24,0.72,0.72,0,0,0-.76-0.14l-0.09,0a0.6,0.6,0,0,0-.62-0.09,15.78,15.78,0,0,1-5.88,1.28h-0.28l-0.81-.14a9.48,9.48,0,0,1-1.94-1.71,4.89,4.89,0,0,1-1.33-2.42,8.54,8.54,0,0,1-1.09-4,15.36,15.36,0,0,1,.09-2.09,9.6,9.6,0,0,1,.43-1.56,8.73,8.73,0,0,1,.43-1.18l0.52-.66a7.54,7.54,0,0,1,1.14-.95,12,12,0,0,1,3-1.47,40.76,40.76,0,0,1,4.17-.9,32.06,32.06,0,0,1,4.27-.09c0.66,0,.62-0.47.43-0.95h0.52c1.23,0-.28-1.66-0.38-1.71l-0.14-.14a13.32,13.32,0,0,1,1.37,0c0.85,0,.95-0.71.38-1.18-0.19-.09-0.38-0.19-0.62-0.28a0.91,0.91,0,0,0,1-.66c0-1-2.13-.9-2.61-0.95l-0.95,0a0.76,0.76,0,0,0-.66-0.85H229l-0.28-.14h-1c-4.6-.19-9.72.47-13.18,3.79a10.92,10.92,0,0,0-3.08,3.51,20.52,20.52,0,0,0-2.09,9.24,13.38,13.38,0,0,0,1.56,6,8.18,8.18,0,0,0,.9,1.33,9.56,9.56,0,0,0,4.17,3.93,10.62,10.62,0,0,0,3.89,1.9c0.47,0.09.95,0.19,1.42,0.24a20.11,20.11,0,0,0,11.47-1.37c0.76-.33.28-0.95-0.19-1.33,0.52-.19,1-0.38,1.52-0.62,0.85-.38-0.43-1.09-0.71-1.18" style="fill:#00a6e9"/><rect x="209.34" y="217.56" width="25.12" height="30.38" style="fill:none"/><rect x="209.34" y="217.56" width="25.12" height="30.38" style="fill:none"/><path d="M173.36,92c3.32-.38,14-2.51,14-2.51s1-3.32.52-3.6a4.81,4.81,0,0,0-2.56-.43,0.75,0.75,0,0,0-.71-0.81l-0.38,0a0.59,0.59,0,0,0-.38-0.19l-0.52,0a0.23,0.23,0,0,0-.19,0l-13.37,1.14A0.7,0.7,0,0,1,170,86l-0.62,0a0.59,0.59,0,0,0-.38-0.28,0.82,0.82,0,0,0-.57.09,0.18,0.18,0,0,0-.09-0.09c-0.19-.09-0.38-0.14-0.43.14a1.46,1.46,0,0,1,0,.47h0a0.3,0.3,0,0,0-.14-0.24c-0.28-.09-0.33.14-0.33,0.43h0a1,1,0,0,1-.19-0.62c0,0.28,0,.52,0,0.81a1.25,1.25,0,0,0-.33.71l-0.09.09a0.68,0.68,0,0,0-.62.24v0.28l-0.28,0q-0.85,12.23-2,24.31a0.25,0.25,0,0,0,.09.14c0,0.24,0,.43,0,0.66a0.6,0.6,0,0,0,.62.43v0.28a0.14,0.14,0,0,0,0,.19,1.07,1.07,0,0,0,.47.71v0.14c0.09,0.52.38,0.57,0.85,0.52h0.28c0.28,0.62.71,1.33,1.23,1.28h0.14a0.51,0.51,0,0,0,.52,0,1.67,1.67,0,0,0,.9.47c5.4-.14,15.69-1.09,15.69-1.09a2.68,2.68,0,0,0,.14-1.23l0.47,0c1-.14,1.47-3,0.9-3.27s-8-.76-14.12-0.85q0.5-3.06.71-6.11l5.88-.52a0.6,0.6,0,0,0,.66-0.52,1.94,1.94,0,0,0,.52,0c0.62,0,.47-0.81.47-0.81l0.52,0c1.09-.09,1.66-3.46,1.09-3.7s-5.36-.62-8.86-0.9V96.56c0.09-1.52.19-3,.33-4.5" style="fill:#00a6e9"/><rect x="163.93" y="84.52" width="24.08" height="32.66" style="fill:none"/><rect x="163.93" y="84.52" width="24.08" height="32.66" style="fill:none"/><g style="clip-path:url(#d)"><path d="M283.85,103.81c-7.39.09-14.79,0.09-22.13,0.09-0.95,0-.71,2.18-0.71,2.61v0.19a1.26,1.26,0,0,0-.28.24,0.69,0.69,0,0,0-.76.62,0.6,0.6,0,0,0,0,.28,1.47,1.47,0,0,0,.09.38,0.26,0.26,0,0,0-.14.24,1,1,0,0,0,.09.52c-0.19.33-.24,0.66,0.24,0.66h0.28v0.09c-0.14.19-.19,0.38,0,0.38h0.19a1.19,1.19,0,0,1-.19.43H261a0.36,0.36,0,0,0,.19.09,0.32,0.32,0,0,1-.14.19h1q0,0.28.14,0.28c5,0,10,0,15-.09-1.71,1.42-3.41,2.8-5.17,4.08a49.2,49.2,0,0,1-8.25,4.79,1.67,1.67,0,0,0-.38,1.23v0.38l-1.71,0c-0.95,0-.85,2.09-0.9,2.56,0,0.14,0,.52-0.09.9a0.69,0.69,0,0,0-.71.66v0.28a0.25,0.25,0,0,0-.09.14,0.68,0.68,0,0,0,.19.71c-0.14.14-.24,0.28-0.14,0.28h0.43s0,0.09,0,.14-0.28.24-.14,0.24h0.47a1.55,1.55,0,0,0,.71.52h0l0.09,0a0.48,0.48,0,0,0,.19.28h0.43c0,0.19,0,.28.09,0.28q11.23,0.5,22.47.14a0.17,0.17,0,0,0,.09,0h0.62a0.5,0.5,0,0,0,.33-0.52h0a0.9,0.9,0,0,0,1-.62v-0.33l0.14-.14a0.6,0.6,0,0,0,0-.28l0.09,0a9.54,9.54,0,0,0,1.37-1c0.33-.52.09-0.81-0.33-0.9,0.33-.47.66-1.18-0.09-1.14h-0.47c0.09-.38,0-0.71-0.47-0.71l-1.14,0c0.09-.57,0-1-0.38-1l-1.18,0a0.5,0.5,0,0,0-.43-0.24c-3.18.09-6.3,0.14-9.48,0.09,4-2.84,7.63-6.16,11.38-9.29a0.56,0.56,0,0,0,0-.62,0.36,0.36,0,0,0,.09-0.19l0.81-.66c0.38-.33.81-0.9,0.28-1.28a1.63,1.63,0,0,0,.57-1,0.43,0.43,0,0,0-.14-0.33,0.8,0.8,0,0,0-.14-0.47l0.09-.14c0.24-.28.76-1.33-0.09-1.37h0c0.24-.52.47-1.33-0.33-1.28h-1c0-.52,0-1-0.47-1h-1.23a0.6,0.6,0,0,0-.43-0.19" style="fill:#00a6e9"/></g><rect x="259.86" y="103.81" width="28.82" height="24.84" style="fill:none"/><path d="M200,229.17c-0.09-1-.14-2-0.24-3a14.33,14.33,0,0,0-1.28-4.83c-1.14-2-3-2.8-5.12-3.13a5.57,5.57,0,0,0-2.7-1,6.4,6.4,0,0,0-1.33-.19c-3-.47-6.45,1.18-8.82,3.32a11.7,11.7,0,0,0-3.7,4.22A7.44,7.44,0,0,0,176,227a7.33,7.33,0,0,0-.33,1.09,14.68,14.68,0,0,0-.24,4.31,1.31,1.31,0,0,0,0,.43,0.77,0.77,0,0,1,0,.33c0.47,5,1,10,1.56,15a0.94,0.94,0,0,0,.47,0c0,0.28,0,.62.09,0.9s0.33,0.19.62,0.14a0.68,0.68,0,0,0,.33.09,0.81,0.81,0,0,0,1.28.62c0.47,0.24,1,.28,1.18-0.19,0.52,0.14.9,0,.9-0.57V248.8c1.18,0.14,2.28,0,2.23-.33-0.19-1.52-.33-3-0.47-4.5-0.09-1-.14-2-0.24-3,3.32-.09,6.59-0.33,9.91-0.62,0,2.23.14,4.46,0.19,6.68a0.75,0.75,0,0,0,.62.47v0.24a0.81,0.81,0,0,0,.71.76,0.68,0.68,0,0,0,.33-0.09s0.09,0,.14,0h0.14a2.54,2.54,0,0,0,.76,1,0.8,0.8,0,0,0,.9-0.14l0,0c0.28,0.19,1.14.62,1.18-.14V249c0.47,0.19,1,.28,1-0.43v-1c0.85,0.09,1.47,0,1.47-.28C200.57,241.31,200.71,235.15,200,229.17Zm-17,6.3c-0.09-1.28-.19-2.61-0.24-3.89a14.31,14.31,0,0,1,.14-2.84,5.41,5.41,0,0,1,.43-1.23,3.26,3.26,0,0,1,.52-0.62h0a14.54,14.54,0,0,1,3.18-2.18c0.33-.09.62-0.14,0.95-0.24l3.55-.24a2.31,2.31,0,0,1,.33.14,12.43,12.43,0,0,1,.66,3c0.28,2.13.43,4.27,0.57,6.4Q188.08,234.7,183,235.48Z" style="fill:#00a6e9"/><rect x="175.31" y="216.9" width="25.4" height="33.23" style="fill:none"/><rect x="175.31" y="216.9" width="25.4" height="33.23" style="fill:none"/><path d="M140,147.39c-0.52-3.18-1.8-6.3-4.31-8.29a11.84,11.84,0,0,0-2.75-2,10.58,10.58,0,0,0-5.36-2.37H127a7.11,7.11,0,0,0-4,.14,9.38,9.38,0,0,0-4.41,3.37,2.72,2.72,0,0,0-.38,2l-0.43.47a0.54,0.54,0,0,0-.38.33c-0.19.28-.33,0.62-0.52,0.9-0.14-.33-0.43-0.62-0.81-0.28a3.54,3.54,0,0,0-1.28,1.23,12.16,12.16,0,0,0-.95,2.89,7.51,7.51,0,0,0-.9,2.09,7.69,7.69,0,0,0-.38,2.32c0,0.28,0,.52-0.09.81a5,5,0,0,0,0,1.18,9.34,9.34,0,0,0,.52,3.41,11.19,11.19,0,0,0,1.85,3.27,8.08,8.08,0,0,0,1.09,1.42,15.86,15.86,0,0,0,8.06,4.27,9.79,9.79,0,0,0,4.22.24l0.19,0a2.31,2.31,0,0,0,.57,0,14.87,14.87,0,0,0,7.35-4,11.28,11.28,0,0,0,1.85-2.84,2.63,2.63,0,0,1,.28-0.38,11,11,0,0,0,1.61-5.17A12.77,12.77,0,0,0,140,147.39ZM134,153.45a11,11,0,0,1-2.18,2.28,9.32,9.32,0,0,1-6,1.85,11.15,11.15,0,0,1-2.46-.66l-0.95-.43-0.28-.19a11.18,11.18,0,0,1-2.51-3.41c-0.14-.33-0.24-0.66-0.38-1v-0.62a29.91,29.91,0,0,1,1-6.16,0.31,0.31,0,0,0,.28,0,4.27,4.27,0,0,1,.43-0.47,1.49,1.49,0,0,0,1.09-.24,9.45,9.45,0,0,1,1.9-2l2-.66h0.14a3.7,3.7,0,0,1,1,.14,10.8,10.8,0,0,1,3.6,2.18,8.9,8.9,0,0,1,1.14,1.18,14.27,14.27,0,0,1,2.23,4.88c0.14,0.47.19,1,.28,1.47A12.25,12.25,0,0,1,134,153.45Z" style="fill:#00a6e9"/></g><rect x="294.16" y="214.3" width="120.09" height="155.41" transform="translate(646.21 -62.2) rotate(90)" style="fill:#fff;stroke:#00aeef;stroke-linecap:round;stroke-linejoin:round;stroke-width:4px"/><line x1="291.84" y1="230.74" x2="291.84" y2="232.04" style="fill:none;stroke:#00aeef;stroke-linecap:round;stroke-linejoin:round;stroke-width:2px"/><line x1="291.84" y1="237.07" x2="291.84" y2="347.86" style="fill:none;stroke:#00aeef;stroke-linecap:round;stroke-linejoin:round;stroke-width:2px;stroke-dasharray:2.5178349018096924,5.035669803619385"/><line x1="291.84" y1="350.38" x2="291.84" y2="351.67" style="fill:none;stroke:#00aeef;stroke-linecap:round;stroke-linejoin:round;stroke-width:2px"/><line x1="417.84" y1="230.74" x2="417.84" y2="232.04" style="fill:none;stroke:#00aeef;stroke-linecap:round;stroke-linejoin:round;stroke-width:2px"/><line x1="417.84" y1="237.07" x2="417.84" y2="347.86" style="fill:none;stroke:#00aeef;stroke-linecap:round;stroke-linejoin:round;stroke-width:2px;stroke-dasharray:2.517824649810791,5.035649299621582"/><line x1="417.84" y1="350.38" x2="417.84" y2="351.67" style="fill:none;stroke:#00aeef;stroke-linecap:round;stroke-linejoin:round;stroke-width:2px"/><line x1="279.03" y1="338.83" x2="280.33" y2="338.83" style="fill:none;stroke:#00aeef;stroke-linecap:round;stroke-linejoin:round;stroke-width:2px"/><line x1="285.48" y1="338.83" x2="429.8" y2="338.83" style="fill:none;stroke:#00aeef;stroke-linecap:round;stroke-linejoin:round;stroke-width:2px;stroke-dasharray:2.577075958251953,5.154151916503906"/><line x1="432.38" y1="338.83" x2="433.67" y2="338.83" style="fill:none;stroke:#00aeef;stroke-linecap:round;stroke-linejoin:round;stroke-width:2px"/><line x1="276.37" y1="245.83" x2="277.66" y2="245.83" style="fill:none;stroke:#00aeef;stroke-linecap:round;stroke-linejoin:round;stroke-width:2px"/><line x1="282.91" y1="245.83" x2="429.75" y2="245.83" style="fill:none;stroke:#00aeef;stroke-linecap:round;stroke-linejoin:round;stroke-width:2px;stroke-dasharray:2.6222658157348633,5.244531631469727"/><line x1="432.38" y1="245.83" x2="433.67" y2="245.83" style="fill:none;stroke:#00aeef;stroke-linecap:round;stroke-linejoin:round;stroke-width:2px"/><g style="clip-path:url(#e)"><path d="M311.48,251.68l0.19-.14c0.47-.28.52-0.71,0-0.95a5.37,5.37,0,0,0-1.52,0,1.78,1.78,0,0,0-.47,0h0a0.51,0.51,0,0,0,0-.52,0.58,0.58,0,0,0-.85-0.24,0.5,0.5,0,0,0-.57-0.09h0a0.78,0.78,0,0,0-.57-0.09,52.42,52.42,0,0,1-8.44,4.31,8.29,8.29,0,0,0,.85-1.37,11.41,11.41,0,0,0,2.28-6.59c0.62-4-.81-8.15-2.8-11.71-0.24-.38-1.9-0.24-2.09-0.19h0a3.92,3.92,0,0,0-.33-0.62,0.77,0.77,0,0,0-1-.19,0.58,0.58,0,0,0-.62,0,0.57,0.57,0,0,0-.66,0l-0.62.62a0.28,0.28,0,0,0-.19,0c-5.55,5.45-11.09,11-17.06,16-0.43.33-.81,0.66-1.23,0.95q0.57-1.85,1-3.7c0.9-3.7,1.66-7.35,2.65-11a0.66,0.66,0,0,0-.57-0.71l0.19-.62c0.19-.76-1.8-0.76-2.42-0.76a0.6,0.6,0,0,0-.52-0.66h-0.28a0.29,0.29,0,0,0-.28-0.14h-0.57a7.08,7.08,0,0,0-3.13.76,0.59,0.59,0,0,1,.09.14l-0.43.19,0.28,0.47s0,0,0,.09a0.64,0.64,0,0,0-.24.43c-0.19.09-.38,0.14-0.62,0.24s0,0.09.09,0.09l-0.33.14a0.63,0.63,0,0,1,.43.14,0.36,0.36,0,0,0,0,.24l-0.33.14a1.18,1.18,0,0,0,.66.28v0h0a0.51,0.51,0,0,0-.24.71v0a0.66,0.66,0,0,0,.81.19,1.67,1.67,0,0,0,.85,1c-0.62,2.56-1.18,5.12-1.8,7.73-0.19.85-.43,1.75-0.66,2.61-0.19.52-.33,1.09-0.52,1.61a22.9,22.9,0,0,1-2.28,4.88,0.59,0.59,0,0,0,.14.09c-0.14.24-.24,0.43-0.38,0.66h0.24c-0.14.24-.24,0.43-0.33,0.62a0.36,0.36,0,0,0,.28.14c0,0.14-.14.24-0.19,0.38s0.19,0.28.52,0.33v0c-0.33.62,0.19,0.81,0.66,0.76a0.17,0.17,0,0,0,.14,0,1.46,1.46,0,0,0,1,1l0.38-.14a1,1,0,0,0,.85.43c0.85-.28,1.71-0.52,2.46-0.85a19,19,0,0,0,2.18-1.14c0.19-.09.38-0.19,0.62-0.28a37.1,37.1,0,0,0,3.18-2.13q1.07-.78,2.13-1.71v0.19c-0.09,0-.19,0-0.14.09l0.14,0.28v0c-0.38-.14-0.76-0.19-0.62.19l0.14,0.24a0.31,0.31,0,0,0-.09.47,6,6,0,0,0,.71,1.18,5.42,5.42,0,0,0,1.47,1.94,4.09,4.09,0,0,0,.76.47c0.14,0.14.28,0.33,0.43,0.47a4.51,4.51,0,0,0,1.33.95c2.13,1.18,4.74,1.14,7.11,1,0.71,0,1.47-.09,2.18-0.19a16.93,16.93,0,0,0,2.65-.33,14.33,14.33,0,0,0,2.37-.9l1.61-.71a49,49,0,0,0,9-5,0.46,0.46,0,0,0,.28-0.43l1.18-.71c0.66-.38-0.24-0.85-0.66-1m-29,1,0.09,0,0.09,0.14a0.69,0.69,0,0,1-.19-0.09m14.22-6.26a12,12,0,0,1-2.28,4.27,4.09,4.09,0,0,1-.62.66,12.25,12.25,0,0,1-4.88,1.71,19,19,0,0,1-2.37.38,1,1,0,0,0-.19-0.28,2.69,2.69,0,0,0-2-.43,1.86,1.86,0,0,1-.38-0.47,0.55,0.55,0,0,0-.66-0.09,0.37,0.37,0,0,0-.38-0.09s0,0-.09,0l2.28-2c3.7-3.27,7.3-6.73,10.81-10.19a13.66,13.66,0,0,1,.71,3.41,11.21,11.21,0,0,1,0,3.08" style="fill:#00a6e9"/><path d="M275.79,226.79l-0.09.47c0,0.14.19,0.19,0.43,0.24v0.14a0.64,0.64,0,0,0,.52.81,0.58,0.58,0,0,0,.28,0,0.23,0.23,0,0,0,.19,0,5.32,5.32,0,0,0,.76,1c0.24,0.24.76,0.66,0.95,0.09v0c0.38,0.28.9,0.66,1,0l0.09-.38a0.43,0.43,0,0,0,.57-0.43l0.19-.95a0.62,0.62,0,0,0,.76-0.33l0.47-2.42v-0.14l0.24-1.14c0.14-.76-2-0.57-2.23-0.52h-0.19s-0.09-.14-0.14-0.19v0c0.19-.62-0.52-0.71-1.14-0.57a0.82,0.82,0,0,0-.57-0.09c-0.24-.19-0.43-0.24-0.47,0l-0.09.43c-0.14-.09-0.28-0.14-0.33,0V223a0.41,0.41,0,0,0-.28-0.14,0.39,0.39,0,0,1,.28.19v0.19l-0.09.09a0.74,0.74,0,0,0-.28.38,0.28,0.28,0,0,0-.24.09l-0.09.47a0.1,0.1,0,0,0-.09.09l-0.43,2.32a0.59,0.59,0,0,0,.14.09" style="fill:#00a6e9"/><rect x="267.35" y="222.29" width="45.03" height="38.72" style="fill:none"/><rect x="267.35" y="222.29" width="45.03" height="38.72" style="fill:none"/><path d="M235.5,173.38c-0.33.28-.62,0.62-0.95,0.9a0.37,0.37,0,0,0-.38-0.09c-0.43-.95-1.14-0.43-1.66.33a0.91,0.91,0,0,0-.47.14,0.9,0.9,0,0,0-.24.47,0.71,0.71,0,0,0-.52.85,0.09,0.09,0,0,0,0,.09l0.14,0.28a0.41,0.41,0,0,0-.14.28,0.56,0.56,0,0,0-.33.38c2.28,5.88,4.31,11.66,5.21,18,0.09,0.62.24,1.42,0.33,2.23-1.33-.62-2.61-1.18-3.84-1.85-2.28-1.18-4.41-2.46-6.59-3.7a69.69,69.69,0,0,0-6.54-3.22c-0.47-.19-1.9.81-2.84,1.8l-0.62-.28a0.72,0.72,0,0,0-.81.57c-0.43,0-.71.33-0.24,0.66a2.7,2.7,0,0,1-.62,0l0.43,0.24a0.51,0.51,0,0,0,.09.43,1.26,1.26,0,0,1-.57-0.14l0.52,0.33c0,0.09,0,.19,0,0.28a0.78,0.78,0,0,0,.24.71v0a0.82,0.82,0,0,0-.19.62L215.6,194a0,0,0,0,0,0,0l0.09,0a1.53,1.53,0,0,1-.38.33A144.07,144.07,0,0,0,232.71,204c1.33,0.62,2.46,1.42,3.65,1.42a8.11,8.11,0,0,0,1.42.43,1.1,1.1,0,0,0,1-.28,0.72,0.72,0,0,0,.19-0.19h0a3.92,3.92,0,0,0,1.66.24,1.64,1.64,0,0,0,1.18-.76,1.87,1.87,0,0,0,1.42-.62,7.76,7.76,0,0,0,.85-3,17.15,17.15,0,0,0,0-2.7,26.81,26.81,0,0,0-.28-3.89,22.15,22.15,0,0,0-.62-3.08,86.58,86.58,0,0,0-5.12-17.21,0.52,0.52,0,0,0-.62-0.28l-0.33-.85c-0.33-1.09-1.18-.33-1.71.09" style="fill:#00a6e9"/><rect x="218.87" y="177.79" width="30.47" height="29.53" transform="translate(-68.85 202.46) rotate(-41.31)" style="fill:none"/><rect x="218.87" y="177.79" width="30.47" height="29.53" transform="translate(-68.85 202.46) rotate(-41.31)" style="fill:none"/><path d="M347.79,269.64a2,2,0,0,0-1.18.76c-0.43.43-.85,0.9-1.23,1.33h-0.24a0.64,0.64,0,0,0-.9-0.14l-0.52.71a0.5,0.5,0,0,0-.24.09L343,273s-0.09,0-.14.09q-6.75,8.74-13.37,17.54c-0.09.14,0.09,0.24,0.38,0.28l-0.28.38s0,0.14.14,0.19l-0.33.43a1,1,0,0,1,.62-0.24v0a1.06,1.06,0,0,0,.28.81,1.24,1.24,0,0,1-.24.43l0.33-.38,0.09,0.09a0.6,0.6,0,0,0,0,.28c0,0.14,0,.33.24,0.09l0-.09v0l-0.24.33c-0.14.19,0,.24,0.14,0.14a1.26,1.26,0,0,0,.28-0.24,0.41,0.41,0,0,0,.28.14l0,0c-0.14.19-.28,0.43,0,0.52a0.73,0.73,0,0,0,.52-0.33s0,0.14.09,0.19A0.89,0.89,0,0,0,333,294l0.47-.52h0c0.85,0.19,2,.38,2.37-0.09,1.61-1.75,3.13-3.55,4.69-5.36,4.79,4.08,9.53,8.2,14.12,12.47a0.21,0.21,0,0,0,.24,0l0.43,0.38a0.65,0.65,0,0,0,.85-0.09,1.28,1.28,0,0,0,1.42.33,0.74,0.74,0,0,0,.28-0.38h0.19a0.74,0.74,0,0,0,.38-0.28c0.38,0,.76,0,1.09.09a1.64,1.64,0,0,0,1.33-.19,0.48,0.48,0,0,0,.09-0.71l-0.33-.28c0.52-.19.95-0.47,0.43-0.9l-0.43-.38c0.33-.24.52-0.57,0.09-0.9l-0.95-.85c0.43-.38.66-0.81,0.38-1l-1-.95a0.39,0.39,0,0,0-.19-0.28c-4.41-4.08-8.91-8.1-13.51-11.94,1.52-1.94,3-3.93,4.46-5.92a0.55,0.55,0,0,0,0-.85l0.28-.38c0.38-.52,0-0.76-0.47-0.9l0.33-.43c0.76-.95-1.47-0.76-1.56-0.76h-0.09l0.81-1c0.52-.66.09-1.18-0.66-1-0.24.09-.43,0.24-0.66,0.33,0.33-.47.85-1.47-0.09-1.52" style="fill:#00a6e9"/><rect x="334.94" y="274.12" width="29.58" height="30.95" transform="translate(-92.75 391.52) rotate(-52.6)" style="fill:none"/><rect x="334.94" y="274.12" width="29.58" height="30.95" transform="translate(-92.75 391.52) rotate(-52.6)" style="fill:none"/><path d="M376.84,228.74c-0.52-3.18-1.8-6.3-4.31-8.29a11.84,11.84,0,0,0-2.75-2,10.58,10.58,0,0,0-5.36-2.37h-0.66a7.11,7.11,0,0,0-4,.14,9.38,9.38,0,0,0-4.41,3.37,2.72,2.72,0,0,0-.38,2l-0.43.47a0.54,0.54,0,0,0-.38.33c-0.19.28-.33,0.62-0.52,0.9-0.14-.33-0.43-0.62-0.81-0.28a3.54,3.54,0,0,0-1.28,1.23,12.16,12.16,0,0,0-.95,2.89,7.51,7.51,0,0,0-.9,2.09,7.69,7.69,0,0,0-.38,2.32c0,0.28,0,.52-0.09.81a5,5,0,0,0,0,1.18,9.34,9.34,0,0,0,.52,3.41,11.19,11.19,0,0,0,1.85,3.27,8.08,8.08,0,0,0,1.09,1.42,15.86,15.86,0,0,0,8.06,4.27,9.79,9.79,0,0,0,4.22.24l0.19,0a2.31,2.31,0,0,0,.57,0,14.87,14.87,0,0,0,7.35-4,11.28,11.28,0,0,0,1.85-2.84,2.63,2.63,0,0,1,.28-0.38,11,11,0,0,0,1.61-5.17A12.77,12.77,0,0,0,376.84,228.74Zm-6.07,6.07a11,11,0,0,1-2.18,2.28,9.32,9.32,0,0,1-6,1.85,11.15,11.15,0,0,1-2.46-.66l-0.95-.43-0.28-.19a11.18,11.18,0,0,1-2.51-3.41c-0.14-.33-0.24-0.66-0.38-1v-0.62a29.91,29.91,0,0,1,1-6.16,0.31,0.31,0,0,0,.28,0,4.27,4.27,0,0,1,.43-0.47,1.49,1.49,0,0,0,1.09-.24,9.45,9.45,0,0,1,1.9-2l2-.66h0.14a3.7,3.7,0,0,1,1,.14,10.8,10.8,0,0,1,3.6,2.18,8.9,8.9,0,0,1,1.14,1.18,14.27,14.27,0,0,1,2.23,4.88c0.14,0.47.19,1,.28,1.47A12.25,12.25,0,0,1,370.77,234.8Z" style="fill:#00a6e9"/><rect x="349.3" y="215.8" width="27.77" height="30.38" style="fill:none"/><rect x="349.3" y="215.8" width="27.77" height="30.38" style="fill:none"/><rect x="200.9" y="210.16" width="30.57" height="33.41" style="fill:none"/><path d="M230.24,251.3c-0.09.28-.19,0.52-0.28,0.81l-0.19-.76c-0.24-.9-1.09-0.57-1.33.09a6.82,6.82,0,0,0,0,2.94h0l-0.09,0c-0.38-.19-1.28.09-1.18,0.66l0.14,0.66a0.76,0.76,0,0,0-.24.52l0.09,0.38a0.92,0.92,0,0,0-.14.62,37.19,37.19,0,0,1,1.37,7.2c0,0.43,0,.85,0,1.28a4.42,4.42,0,0,1-2.32,1.33,17.34,17.34,0,0,1-3.13.19,85.47,85.47,0,0,0-13,0l-4.36-.09a1.29,1.29,0,0,0-1,.66l-0.85.14c-1,.09-1,1.52-1,2.28,0,0.19-.09.62-0.09,1a0.86,0.86,0,0,0-.81.66v0.28a0.65,0.65,0,0,0-.14.19,0.47,0.47,0,0,0,.33.66h0a0.93,0.93,0,0,0-.33.47h0.52a0.2,0.2,0,0,0,.19.14h0a2.45,2.45,0,0,0-.28.33h0.66a0.82,0.82,0,0,0,.52.28,1.2,1.2,0,0,1-.38.62h1.23a0.44,0.44,0,0,0,0,.33c6.78,0.14,13.56.43,20.33,0.38,0.57,0,1.14,0,1.71,0a6.36,6.36,0,0,0,1.66-.19,6,6,0,0,0,2.42-1.14A4.34,4.34,0,0,0,231.9,273a4.84,4.84,0,0,0,1.14-1.9l0,0a7.11,7.11,0,0,0,1.52-4c1.14-3.93-.33-8.72-1.28-12.47l-0.14-.28-0.28-1c-0.19-.62-0.66-0.47-1-0.19-0.09-.47-0.24-0.95-0.33-1.47-0.19-.81-0.81-1-1.28-0.28" style="fill:#00a6e9"/><rect x="201.57" y="250.78" width="33.51" height="24.6" style="fill:none"/><rect x="201.57" y="250.78" width="33.51" height="24.6" style="fill:none"/><path d="M350,255.23c-0.95-.19-1.09,1.94-1.18,2.37,0,0.19-.14.62-0.24,1a0.81,0.81,0,0,0-.81.85l-0.14.14a0.57,0.57,0,0,0,.14.66c-0.19.19-.33,0.33-0.19,0.33l0.47,0.09a0.25,0.25,0,0,0,.09.14c-0.14.09-.24,0.19-0.19,0.19l0.62,0.09a0.65,0.65,0,0,0,.47.38,2.82,2.82,0,0,1-.14.52l0.81,0.14c0,0.09,0,.14,0,0.14,7.35,1.37,14.69,2.89,22.09,3.79a0.17,0.17,0,0,0,.14,0l0.62,0.09a0.68,0.68,0,0,0,.38-0.52h0.19a0.65,0.65,0,0,0,.85-0.43,0.52,0.52,0,0,0,0-.38h0a0.23,0.23,0,0,0,0-.19,3.5,3.5,0,0,0,1.18-.81,0.72,0.72,0,0,0,0-.81l0,0c0.24-.24,1.18-1.33.24-1.47l-0.28,0c0.24-.43.33-0.95-0.33-1l-1.09-.14c0.09-.52.09-1-0.28-1l-1.28-.14a0.48,0.48,0,0,0-.33-0.19c-7.39-.95-14.65-2.51-21.9-3.74" style="fill:#00a6e9"/><rect x="357.54" y="246.59" width="8.53" height="28.34" transform="translate(63.6 592.38) rotate(-83.82)" style="fill:none"/><rect x="357.54" y="246.59" width="8.53" height="28.34" transform="translate(63.6 592.38) rotate(-83.82)" style="fill:none"/><path d="M323.28,320.26h0c0.19-.09.43-0.14,0.62-0.24,0.76-.33.71-0.95,0-1.23a12.17,12.17,0,0,0-2.28,0,1.31,1.31,0,0,0-.43,0,0.5,0.5,0,0,0-.14-0.19,0.7,0.7,0,0,0,0-.62,0.83,0.83,0,0,0-1.23-.24,0.72,0.72,0,0,0-.76-0.14l-0.09,0a0.6,0.6,0,0,0-.62-0.09,15.78,15.78,0,0,1-5.88,1.28H312.1l-0.81-.14a9.48,9.48,0,0,1-1.94-1.71,4.89,4.89,0,0,1-1.33-2.42,8.54,8.54,0,0,1-1.09-4,15.36,15.36,0,0,1,.09-2.09,9.6,9.6,0,0,1,.43-1.56,8.73,8.73,0,0,1,.43-1.18l0.52-.66a7.54,7.54,0,0,1,1.14-.95,12,12,0,0,1,3-1.47,40.76,40.76,0,0,1,4.17-.9,32.06,32.06,0,0,1,4.27-.09c0.66,0,.62-0.47.43-0.95H322c1.23,0-.28-1.66-0.38-1.71l-0.14-.14a13.32,13.32,0,0,1,1.37,0c0.85,0,.95-0.71.38-1.18-0.19-.09-0.38-0.19-0.62-0.28a0.91,0.91,0,0,0,1-.66c0-1-2.13-.9-2.61-0.95l-0.95,0a0.76,0.76,0,0,0-.66-0.85h-0.57l-0.28-.14h-1c-4.6-.19-9.72.47-13.18,3.79a10.92,10.92,0,0,0-3.08,3.51,20.52,20.52,0,0,0-2.09,9.24,13.38,13.38,0,0,0,1.56,6,8.18,8.18,0,0,0,.9,1.33,9.56,9.56,0,0,0,4.17,3.93,10.62,10.62,0,0,0,3.89,1.9c0.47,0.09.95,0.19,1.42,0.24a20.11,20.11,0,0,0,11.47-1.37c0.76-.33.28-0.95-0.19-1.33,0.52-.19,1-0.38,1.52-0.62,0.85-.38-0.43-1.09-0.71-1.18" style="fill:#00a6e9"/><rect x="299.21" y="294.76" width="25.12" height="30.38" style="fill:none"/><rect x="299.21" y="294.76" width="25.12" height="30.38" style="fill:none"/><path d="M263.23,169.21c3.32-.38,14-2.51,14-2.51s1-3.32.52-3.6a4.81,4.81,0,0,0-2.56-.43,0.75,0.75,0,0,0-.71-0.81l-0.38,0a0.59,0.59,0,0,0-.38-0.19l-0.52,0a0.23,0.23,0,0,0-.19,0l-13.37,1.14a0.7,0.7,0,0,1,.24.33l-0.62,0a0.59,0.59,0,0,0-.38-0.28,0.82,0.82,0,0,0-.57.09,0.18,0.18,0,0,0-.09-0.09c-0.19-.09-0.38-0.14-0.43.14a1.46,1.46,0,0,1,0,.47h0a0.3,0.3,0,0,0-.14-0.24c-0.28-.09-0.33.14-0.33,0.43h0a1,1,0,0,1-.19-0.62c0,0.28,0,.52,0,0.81a1.25,1.25,0,0,0-.33.71l-0.09.09a0.68,0.68,0,0,0-.62.24v0.28l-0.28,0q-0.85,12.23-2,24.31a0.25,0.25,0,0,0,.09.14c0,0.24,0,.43,0,0.66a0.6,0.6,0,0,0,.62.43v0.28a0.14,0.14,0,0,0,0,.19,1.07,1.07,0,0,0,.47.71v0.14c0.09,0.52.38,0.57,0.85,0.52h0.28c0.28,0.62.71,1.33,1.23,1.28h0.14a0.51,0.51,0,0,0,.52,0,1.67,1.67,0,0,0,.9.47c5.4-.14,15.69-1.09,15.69-1.09a2.68,2.68,0,0,0,.14-1.23l0.47,0c1-.14,1.47-3,0.9-3.27s-8-.76-14.12-0.85q0.5-3.06.71-6.11l5.88-.52a0.6,0.6,0,0,0,.66-0.52,1.94,1.94,0,0,0,.52,0c0.62,0,.47-0.81.47-0.81l0.52,0c1.09-.09,1.66-3.46,1.09-3.7s-5.36-.62-8.86-0.9v-1.47c0.09-1.52.19-3,.33-4.5" style="fill:#00a6e9"/><rect x="253.8" y="161.72" width="24.08" height="32.66" style="fill:none"/><rect x="253.8" y="161.72" width="24.08" height="32.66" style="fill:none"/><g style="clip-path:url(#f)"><path d="M373.71,181c-7.39.09-14.79,0.09-22.13,0.09-0.95,0-.71,2.18-0.71,2.61v0.19a1.26,1.26,0,0,0-.28.24,0.69,0.69,0,0,0-.76.62,0.6,0.6,0,0,0,0,.28,1.47,1.47,0,0,0,.09.38,0.26,0.26,0,0,0-.14.24,1,1,0,0,0,.09.52c-0.19.33-.24,0.66,0.24,0.66h0.28v0.09c-0.14.19-.19,0.38,0,0.38h0.19a1.19,1.19,0,0,1-.19.43h0.47a0.36,0.36,0,0,0,.19.09,0.32,0.32,0,0,1-.14.19h1q0,0.28.14,0.28c5,0,10,0,15-.09-1.71,1.42-3.41,2.8-5.17,4.08a49.2,49.2,0,0,1-8.25,4.79,1.67,1.67,0,0,0-.38,1.23v0.38l-1.71,0c-0.95,0-.85,2.09-0.9,2.56,0,0.14,0,.52-0.09.9a0.69,0.69,0,0,0-.71.66V203a0.25,0.25,0,0,0-.09.14,0.68,0.68,0,0,0,.19.71c-0.14.14-.24,0.28-0.14,0.28h0.43s0,0.09,0,.14-0.28.24-.14,0.24h0.47a1.55,1.55,0,0,0,.71.52h0l0.09,0a0.48,0.48,0,0,0,.19.28h0.43c0,0.19,0,.28.09,0.28q11.23,0.5,22.47.14a0.17,0.17,0,0,0,.09,0h0.62a0.5,0.5,0,0,0,.33-0.52h0a0.9,0.9,0,0,0,1-.62v-0.33l0.14-.14a0.6,0.6,0,0,0,0-.28l0.09,0a9.54,9.54,0,0,0,1.37-1c0.33-.52.09-0.81-0.33-0.9,0.33-.47.66-1.18-0.09-1.14h-0.47c0.09-.38,0-0.71-0.47-0.71l-1.14,0c0.09-.57,0-1-0.38-1l-1.18,0a0.5,0.5,0,0,0-.43-0.24c-3.18.09-6.3,0.14-9.48,0.09,4-2.84,7.63-6.16,11.38-9.29a0.56,0.56,0,0,0,0-.62,0.36,0.36,0,0,0,.09-0.19l0.81-.66c0.38-.33.81-0.9,0.28-1.28a1.63,1.63,0,0,0,.57-1,0.43,0.43,0,0,0-.14-0.33,0.8,0.8,0,0,0-.14-0.47l0.09-.14c0.24-.28.76-1.33-0.09-1.37h0c0.24-.52.47-1.33-0.33-1.28h-1c0-.52,0-1-0.47-1h-1.23a0.6,0.6,0,0,0-.43-0.19" style="fill:#00a6e9"/></g><rect x="349.73" y="181.01" width="28.82" height="24.84" style="fill:none"/><path d="M289.87,306.37c-0.09-1-.14-2-0.24-3a14.33,14.33,0,0,0-1.28-4.83c-1.14-2-3-2.8-5.12-3.13a5.57,5.57,0,0,0-2.7-1,6.4,6.4,0,0,0-1.33-.19c-3-.47-6.45,1.18-8.82,3.32a11.7,11.7,0,0,0-3.7,4.22,7.44,7.44,0,0,0-.81,2.51,7.33,7.33,0,0,0-.33,1.09,14.68,14.68,0,0,0-.24,4.31,1.31,1.31,0,0,0,0,.43,0.77,0.77,0,0,1,0,.33c0.47,5,1,10,1.56,15a0.94,0.94,0,0,0,.47,0c0,0.28,0,.62.09,0.9s0.33,0.19.62,0.14a0.68,0.68,0,0,0,.33.09,0.81,0.81,0,0,0,1.28.62c0.47,0.24,1,.28,1.18-0.19,0.52,0.14.9,0,.9-0.57V326c1.18,0.14,2.28,0,2.23-.33-0.19-1.52-.33-3-0.47-4.5-0.09-1-.14-2-0.24-3,3.32-.09,6.59-0.33,9.91-0.62,0,2.23.14,4.46,0.19,6.68a0.75,0.75,0,0,0,.62.47V325a0.81,0.81,0,0,0,.71.76,0.68,0.68,0,0,0,.33-0.09s0.09,0,.14,0h0.14a2.54,2.54,0,0,0,.76,1,0.8,0.8,0,0,0,.9-0.14l0,0c0.28,0.19,1.14.62,1.18-.14v-0.19c0.47,0.19,1,.28,1-0.43v-1c0.85,0.09,1.47,0,1.47-.28C290.44,318.51,290.58,312.35,289.87,306.37Zm-17,6.3c-0.09-1.28-.19-2.61-0.24-3.89a14.31,14.31,0,0,1,.14-2.84,5.41,5.41,0,0,1,.43-1.23,3.26,3.26,0,0,1,.52-0.62h0a14.54,14.54,0,0,1,3.18-2.18c0.33-.09.62-0.14,0.95-0.24l3.55-.24a2.31,2.31,0,0,1,.33.14,12.43,12.43,0,0,1,.66,3c0.28,2.13.43,4.27,0.57,6.4Q277.95,311.9,272.9,312.68Z" style="fill:#00a6e9"/><rect x="265.17" y="294.1" width="25.4" height="33.23" style="fill:none"/><rect x="265.17" y="294.1" width="25.4" height="33.23" style="fill:none"/><path d="M229.91,224.59c-0.52-3.18-1.8-6.3-4.31-8.29a11.84,11.84,0,0,0-2.75-2,10.58,10.58,0,0,0-5.36-2.37h-0.66a7.11,7.11,0,0,0-4,.14,9.38,9.38,0,0,0-4.41,3.37,2.72,2.72,0,0,0-.38,2l-0.43.47a0.54,0.54,0,0,0-.38.33c-0.19.28-.33,0.62-0.52,0.9-0.14-.33-0.43-0.62-0.81-0.28a3.54,3.54,0,0,0-1.28,1.23,12.16,12.16,0,0,0-.95,2.89,7.51,7.51,0,0,0-.9,2.09,7.69,7.69,0,0,0-.38,2.32c0,0.28,0,.52-0.09.81a5,5,0,0,0,0,1.18,9.34,9.34,0,0,0,.52,3.41,11.19,11.19,0,0,0,1.85,3.27,8.08,8.08,0,0,0,1.09,1.42,15.86,15.86,0,0,0,8.06,4.27,9.79,9.79,0,0,0,4.22.24l0.19,0a2.31,2.31,0,0,0,.57,0,14.87,14.87,0,0,0,7.35-4A11.28,11.28,0,0,0,228,235a2.63,2.63,0,0,1,.28-0.38,11,11,0,0,0,1.61-5.17A12.77,12.77,0,0,0,229.91,224.59Zm-6.07,6.07a11,11,0,0,1-2.18,2.28,9.32,9.32,0,0,1-6,1.85,11.15,11.15,0,0,1-2.46-.66l-0.95-.43L212,233.5a11.18,11.18,0,0,1-2.51-3.41c-0.14-.33-0.24-0.66-0.38-1v-0.62a29.91,29.91,0,0,1,1-6.16,0.31,0.31,0,0,0,.28,0,4.27,4.27,0,0,1,.43-0.47,1.49,1.49,0,0,0,1.09-.24,9.45,9.45,0,0,1,1.9-2l2-.66H216a3.7,3.7,0,0,1,1,.14,10.8,10.8,0,0,1,3.6,2.18,8.9,8.9,0,0,1,1.14,1.18,14.27,14.27,0,0,1,2.23,4.88c0.14,0.47.19,1,.28,1.47A12.25,12.25,0,0,1,223.84,230.65Z" style="fill:#00a6e9"/></g><rect x="294.16" y="43.66" width="120.09" height="155.41" transform="translate(475.57 -232.84) rotate(90)" style="fill:#fff;stroke:#00aeef;stroke-linecap:round;stroke-linejoin:round;stroke-width:4px"/><line x1="417.84" y1="60" x2="417.84" y2="61.3" style="fill:none;stroke:#00aeef;stroke-linecap:round;stroke-linejoin:round;stroke-width:2px"/><line x1="417.84" y1="66.32" x2="417.84" y2="176.93" style="fill:none;stroke:#00aeef;stroke-linecap:round;stroke-linejoin:round;stroke-width:2px;stroke-dasharray:2.5138237476348877,5.027647495269775"/><line x1="417.84" y1="179.45" x2="417.84" y2="180.74" style="fill:none;stroke:#00aeef;stroke-linecap:round;stroke-linejoin:round;stroke-width:2px"/><line x1="291.84" y1="64" x2="291.84" y2="65.3" style="fill:none;stroke:#00aeef;stroke-linecap:round;stroke-linejoin:round;stroke-width:2px"/><line x1="291.84" y1="70.41" x2="291.84" y2="175.22" style="fill:none;stroke:#00aeef;stroke-linecap:round;stroke-linejoin:round;stroke-width:2px;stroke-dasharray:2.5564334392547607,5.1128668785095215"/><line x1="291.84" y1="177.78" x2="291.84" y2="179.08" style="fill:none;stroke:#00aeef;stroke-linecap:round;stroke-linejoin:round;stroke-width:2px"/><line x1="277.7" y1="167.84" x2="279" y2="167.84" style="fill:none;stroke:#00aeef;stroke-linecap:round;stroke-linejoin:round;stroke-width:2px"/><line x1="284.2" y1="167.84" x2="429.78" y2="167.84" style="fill:none;stroke:#00aeef;stroke-linecap:round;stroke-linejoin:round;stroke-width:2px;stroke-dasharray:2.5996646881103516,5.199329376220703"/><line x1="432.38" y1="167.84" x2="433.67" y2="167.84" style="fill:none;stroke:#00aeef;stroke-linecap:round;stroke-linejoin:round;stroke-width:2px"/><line x1="278.37" y1="75.84" x2="279.66" y2="75.84" style="fill:none;stroke:#00aeef;stroke-linecap:round;stroke-linejoin:round;stroke-width:2px"/><line x1="284.84" y1="75.84" x2="429.79" y2="75.84" style="fill:none;stroke:#00aeef;stroke-linecap:round;stroke-linejoin:round;stroke-width:2px;stroke-dasharray:2.588376998901367,5.176753997802734"/><line x1="432.38" y1="75.84" x2="433.67" y2="75.84" style="fill:none;stroke:#00aeef;stroke-linecap:round;stroke-linejoin:round;stroke-width:2px"/><g style="clip-path:url(#g)"><path d="M313.37,174.51l0.19-.14c0.47-.28.52-0.71,0-0.95a5.37,5.37,0,0,0-1.52,0,1.78,1.78,0,0,0-.47,0h0a0.51,0.51,0,0,0,0-.52,0.58,0.58,0,0,0-.85-0.24,0.5,0.5,0,0,0-.57-0.09h0a0.78,0.78,0,0,0-.57-0.09,52.42,52.42,0,0,1-8.44,4.31,8.29,8.29,0,0,0,.85-1.37,11.41,11.41,0,0,0,2.28-6.59c0.62-4-.81-8.15-2.8-11.71-0.24-.38-1.9-0.24-2.09-0.19h0a3.92,3.92,0,0,0-.33-0.62,0.77,0.77,0,0,0-1-.19,0.58,0.58,0,0,0-.62,0,0.57,0.57,0,0,0-.66,0l-0.62.62a0.28,0.28,0,0,0-.19,0c-5.55,5.45-11.09,11-17.06,16-0.43.33-.81,0.66-1.23,0.95q0.57-1.85,1-3.7c0.9-3.7,1.66-7.35,2.65-11a0.66,0.66,0,0,0-.57-0.71l0.19-.62c0.19-.76-1.8-0.76-2.42-0.76a0.6,0.6,0,0,0-.52-0.66h-0.28a0.29,0.29,0,0,0-.28-0.14h-0.57a7.08,7.08,0,0,0-3.13.76,0.59,0.59,0,0,1,.09.14l-0.43.19,0.28,0.47s0,0,0,.09a0.64,0.64,0,0,0-.24.43c-0.19.09-.38,0.14-0.62,0.24s0,0.09.09,0.09l-0.33.14a0.63,0.63,0,0,1,.43.14,0.36,0.36,0,0,0,0,.24l-0.33.14a1.18,1.18,0,0,0,.66.28v0h0a0.51,0.51,0,0,0-.24.71v0a0.66,0.66,0,0,0,.81.19,1.67,1.67,0,0,0,.85,1c-0.62,2.56-1.18,5.12-1.8,7.73-0.19.85-.43,1.75-0.66,2.61-0.19.52-.33,1.09-0.52,1.61a22.9,22.9,0,0,1-2.28,4.88,0.59,0.59,0,0,0,.14.09c-0.14.24-.24,0.43-0.38,0.66h0.24c-0.14.24-.24,0.43-0.33,0.62a0.36,0.36,0,0,0,.28.14c0,0.14-.14.24-0.19,0.38s0.19,0.28.52,0.33v0c-0.33.62,0.19,0.81,0.66,0.76a0.17,0.17,0,0,0,.14,0,1.46,1.46,0,0,0,1,1l0.38-.14a1,1,0,0,0,.85.43c0.85-.28,1.71-0.52,2.46-0.85a19,19,0,0,0,2.18-1.14c0.19-.09.38-0.19,0.62-0.28a37.1,37.1,0,0,0,3.18-2.13q1.07-.78,2.13-1.71v0.19c-0.09,0-.19,0-0.14.09l0.14,0.28v0c-0.38-.14-0.76-0.19-0.62.19l0.14,0.24a0.31,0.31,0,0,0-.09.47,6,6,0,0,0,.71,1.18,5.42,5.42,0,0,0,1.47,1.94,4.09,4.09,0,0,0,.76.47c0.14,0.14.28,0.33,0.43,0.47a4.51,4.51,0,0,0,1.33.95c2.13,1.18,4.74,1.14,7.11,1,0.71,0,1.47-.09,2.18-0.19a16.93,16.93,0,0,0,2.65-.33,14.33,14.33,0,0,0,2.37-.9l1.61-.71a49,49,0,0,0,9-5,0.46,0.46,0,0,0,.28-0.43l1.18-.71c0.66-.38-0.24-0.85-0.66-1m-29,1,0.09,0,0.09,0.14a0.69,0.69,0,0,1-.19-0.09m14.22-6.26a12,12,0,0,1-2.28,4.27,4.09,4.09,0,0,1-.62.66,12.25,12.25,0,0,1-4.88,1.71,19,19,0,0,1-2.37.38,1,1,0,0,0-.19-0.28,2.69,2.69,0,0,0-2-.43,1.86,1.86,0,0,1-.38-0.47,0.55,0.55,0,0,0-.66-0.09,0.37,0.37,0,0,0-.38-0.09s0,0-.09,0l2.28-2c3.7-3.27,7.3-6.73,10.81-10.19a13.66,13.66,0,0,1,.71,3.41,11.21,11.21,0,0,1,0,3.08" style="fill:#00a6e9"/><path d="M277.68,149.63l-0.09.47c0,0.14.19,0.19,0.43,0.24v0.14a0.64,0.64,0,0,0,.52.81,0.58,0.58,0,0,0,.28,0,0.23,0.23,0,0,0,.19,0,5.32,5.32,0,0,0,.76,1c0.24,0.24.76,0.66,0.95,0.09v0c0.38,0.28.9,0.66,1,0l0.09-.38a0.43,0.43,0,0,0,.57-0.43l0.19-.95a0.62,0.62,0,0,0,.76-0.33l0.47-2.42v-0.14l0.24-1.14c0.14-.76-2-0.57-2.23-0.52h-0.19s-0.09-.14-0.14-0.19v0c0.19-.62-0.52-0.71-1.14-0.57a0.82,0.82,0,0,0-.57-0.09c-0.24-.19-0.43-0.24-0.47,0l-0.09.43c-0.14-.09-0.28-0.14-0.33,0v0.14a0.41,0.41,0,0,0-.28-0.14,0.39,0.39,0,0,1,.28.19V146l-0.09.09a0.74,0.74,0,0,0-.28.38,0.28,0.28,0,0,0-.24.09l-0.09.47a0.1,0.1,0,0,0-.09.09l-0.43,2.32a0.59,0.59,0,0,0,.14.09" style="fill:#00a6e9"/><rect x="269.24" y="145.13" width="45.03" height="38.72" style="fill:none"/><rect x="269.24" y="145.13" width="45.03" height="38.72" style="fill:none"/><path d="M237.39,96.21c-0.33.28-.62,0.62-0.95,0.9a0.37,0.37,0,0,0-.38-0.09c-0.43-.95-1.14-0.43-1.66.33a0.91,0.91,0,0,0-.47.14,0.9,0.9,0,0,0-.24.47,0.71,0.71,0,0,0-.52.85,0.09,0.09,0,0,0,0,.09l0.14,0.28a0.41,0.41,0,0,0-.14.28,0.56,0.56,0,0,0-.33.38c2.28,5.88,4.31,11.66,5.21,18,0.09,0.62.24,1.42,0.33,2.23-1.33-.62-2.61-1.18-3.84-1.85-2.28-1.18-4.41-2.46-6.59-3.7a69.69,69.69,0,0,0-6.54-3.22c-0.47-.19-1.9.81-2.84,1.8L218,112.8a0.72,0.72,0,0,0-.81.57c-0.43,0-.71.33-0.24,0.66a2.7,2.7,0,0,1-.62,0l0.43,0.24a0.51,0.51,0,0,0,.09.43,1.26,1.26,0,0,1-.57-0.14l0.52,0.33c0,0.09,0,.19,0,0.28a0.78,0.78,0,0,0,.24.71v0a0.82,0.82,0,0,0-.19.62l0.57,0.33a0,0,0,0,0,0,0l0.09,0a1.53,1.53,0,0,1-.38.33,144.07,144.07,0,0,0,17.35,9.62c1.33,0.62,2.46,1.42,3.65,1.42a8.11,8.11,0,0,0,1.42.43,1.1,1.1,0,0,0,1-.28,0.72,0.72,0,0,0,.19-0.19h0a3.92,3.92,0,0,0,1.66.24,1.64,1.64,0,0,0,1.18-.76,1.87,1.87,0,0,0,1.42-.62,7.76,7.76,0,0,0,.85-3,17.15,17.15,0,0,0,0-2.7,26.81,26.81,0,0,0-.28-3.89,22.15,22.15,0,0,0-.62-3.08A86.58,86.58,0,0,0,240,97.26a0.52,0.52,0,0,0-.62-0.28l-0.33-.85c-0.33-1.09-1.18-.33-1.71.09" style="fill:#00a6e9"/><rect x="220.75" y="100.62" width="30.47" height="29.53" transform="translate(-17.44 184.5) rotate(-41.31)" style="fill:none"/><rect x="220.75" y="100.62" width="30.47" height="29.53" transform="translate(-17.44 184.5) rotate(-41.31)" style="fill:none"/><path d="M349.67,192.48a2,2,0,0,0-1.18.76c-0.43.43-.85,0.9-1.23,1.33H347a0.64,0.64,0,0,0-.9-0.14l-0.52.71a0.5,0.5,0,0,0-.24.09l-0.43.57s-0.09,0-.14.09q-6.75,8.74-13.37,17.54c-0.09.14,0.09,0.24,0.38,0.28l-0.28.38s0,0.14.14,0.19l-0.33.43a1,1,0,0,1,.62-0.24v0a1.06,1.06,0,0,0,.28.81,1.24,1.24,0,0,1-.24.43l0.33-.38,0.09,0.09a0.6,0.6,0,0,0,0,.28c0,0.14,0,.33.24,0.09l0-.09v0l-0.24.33c-0.14.19,0,.24,0.14,0.14a1.26,1.26,0,0,0,.28-0.24,0.41,0.41,0,0,0,.28.14l0,0c-0.14.19-.28,0.43,0,0.52a0.73,0.73,0,0,0,.52-0.33s0,0.14.09,0.19a0.89,0.89,0,0,0,1.18.19l0.47-.52h0c0.85,0.19,2,.38,2.37-0.09,1.61-1.75,3.13-3.55,4.69-5.36,4.79,4.08,9.53,8.2,14.12,12.47a0.21,0.21,0,0,0,.24,0l0.43,0.38a0.65,0.65,0,0,0,.85-0.09,1.28,1.28,0,0,0,1.42.33,0.74,0.74,0,0,0,.28-0.38H360a0.74,0.74,0,0,0,.38-0.28c0.38,0,.76,0,1.09.09a1.64,1.64,0,0,0,1.33-.19,0.48,0.48,0,0,0,.09-0.71l-0.33-.28c0.52-.19.95-0.47,0.43-0.9l-0.43-.38c0.33-.24.52-0.57,0.09-0.9l-0.95-.85c0.43-.38.66-0.81,0.38-1l-1-.95a0.39,0.39,0,0,0-.19-0.28c-4.41-4.08-8.91-8.1-13.51-11.94,1.52-1.94,3-3.93,4.46-5.92a0.55,0.55,0,0,0,0-.85l0.28-.38c0.38-.52,0-0.76-0.47-0.9l0.33-.43c0.76-.95-1.47-0.76-1.56-0.76H350.2l0.81-1c0.52-.66.09-1.18-0.66-1-0.24.09-.43,0.24-0.66,0.33,0.33-.47.85-1.47-0.09-1.52" style="fill:#00a6e9"/><rect x="336.82" y="196.95" width="29.58" height="30.95" transform="translate(-30.71 362.72) rotate(-52.6)" style="fill:none"/><rect x="336.82" y="196.95" width="29.58" height="30.95" transform="translate(-30.71 362.72) rotate(-52.6)" style="fill:none"/><path d="M378.73,151.57c-0.52-3.18-1.8-6.3-4.31-8.29a11.84,11.84,0,0,0-2.75-2,10.58,10.58,0,0,0-5.36-2.37h-0.66a7.11,7.11,0,0,0-4,.14,9.38,9.38,0,0,0-4.41,3.37,2.72,2.72,0,0,0-.38,2l-0.43.47a0.54,0.54,0,0,0-.38.33c-0.19.28-.33,0.62-0.52,0.9-0.14-.33-0.43-0.62-0.81-0.28a3.54,3.54,0,0,0-1.28,1.23,12.16,12.16,0,0,0-.95,2.89,7.51,7.51,0,0,0-.9,2.09,7.69,7.69,0,0,0-.38,2.32c0,0.28,0,.52-0.09.81a5,5,0,0,0,0,1.18,9.34,9.34,0,0,0,.52,3.41,11.19,11.19,0,0,0,1.85,3.27,8.08,8.08,0,0,0,1.09,1.42,15.86,15.86,0,0,0,8.06,4.27,9.79,9.79,0,0,0,4.22.24l0.19,0a2.31,2.31,0,0,0,.57,0,14.87,14.87,0,0,0,7.35-4,11.28,11.28,0,0,0,1.85-2.84,2.63,2.63,0,0,1,.28-0.38,11,11,0,0,0,1.61-5.17A12.77,12.77,0,0,0,378.73,151.57Zm-6.07,6.07a11,11,0,0,1-2.18,2.28,9.32,9.32,0,0,1-6,1.85,11.15,11.15,0,0,1-2.46-.66l-0.95-.43-0.28-.19a11.18,11.18,0,0,1-2.51-3.41c-0.14-.33-0.24-0.66-0.38-1v-0.62a29.91,29.91,0,0,1,1-6.16,0.31,0.31,0,0,0,.28,0,4.27,4.27,0,0,1,.43-0.47,1.49,1.49,0,0,0,1.09-.24,9.45,9.45,0,0,1,1.9-2l2-.66h0.14a3.7,3.7,0,0,1,1,.14,10.8,10.8,0,0,1,3.6,2.18,8.9,8.9,0,0,1,1.14,1.18,14.27,14.27,0,0,1,2.23,4.88c0.14,0.47.19,1,.28,1.47A12.25,12.25,0,0,1,372.66,157.64Z" style="fill:#00a6e9"/><rect x="351.19" y="138.63" width="27.77" height="30.38" style="fill:none"/><rect x="351.19" y="138.63" width="27.77" height="30.38" style="fill:none"/><rect x="202.79" y="132.99" width="30.57" height="33.41" style="fill:none"/><path d="M232.13,174.13c-0.09.28-.19,0.52-0.28,0.81l-0.19-.76c-0.24-.9-1.09-0.57-1.33.09a6.82,6.82,0,0,0,0,2.94h0l-0.09,0c-0.38-.19-1.28.09-1.18,0.66l0.14,0.66a0.76,0.76,0,0,0-.24.52L229,179.4a0.92,0.92,0,0,0-.14.62,37.19,37.19,0,0,1,1.37,7.2c0,0.43,0,.85,0,1.28a4.42,4.42,0,0,1-2.32,1.33,17.34,17.34,0,0,1-3.13.19,85.47,85.47,0,0,0-13,0l-4.36-.09a1.29,1.29,0,0,0-1,.66l-0.85.14c-1,.09-1,1.52-1,2.28,0,0.19-.09.62-0.09,1a0.86,0.86,0,0,0-.81.66v0.28a0.65,0.65,0,0,0-.14.19,0.47,0.47,0,0,0,.33.66h0a0.93,0.93,0,0,0-.33.47H204a0.2,0.2,0,0,0,.19.14h0a2.45,2.45,0,0,0-.28.33h0.66a0.82,0.82,0,0,0,.52.28,1.2,1.2,0,0,1-.38.62H206a0.44,0.44,0,0,0,0,.33c6.78,0.14,13.56.43,20.33,0.38,0.57,0,1.14,0,1.71,0a6.36,6.36,0,0,0,1.66-.19,6,6,0,0,0,2.42-1.14,4.34,4.34,0,0,0,1.66-1.14,4.84,4.84,0,0,0,1.14-1.9l0,0a7.11,7.11,0,0,0,1.52-4c1.14-3.93-.33-8.72-1.28-12.47l-0.14-.28-0.28-1c-0.19-.62-0.66-0.47-1-0.19-0.09-.47-0.24-0.95-0.33-1.47-0.19-.81-0.81-1-1.28-0.28" style="fill:#00a6e9"/><rect x="203.45" y="173.61" width="33.51" height="24.6" style="fill:none"/><rect x="203.45" y="173.61" width="33.51" height="24.6" style="fill:none"/><path d="M351.9,178.07c-0.95-.19-1.09,1.94-1.18,2.37,0,0.19-.14.62-0.24,1a0.81,0.81,0,0,0-.81.85l-0.14.14a0.57,0.57,0,0,0,.14.66c-0.19.19-.33,0.33-0.19,0.33l0.47,0.09a0.25,0.25,0,0,0,.09.14c-0.14.09-.24,0.19-0.19,0.19l0.62,0.09a0.65,0.65,0,0,0,.47.38,2.82,2.82,0,0,1-.14.52l0.81,0.14c0,0.09,0,.14,0,0.14,7.35,1.37,14.69,2.89,22.09,3.79a0.17,0.17,0,0,0,.14,0l0.62,0.09a0.68,0.68,0,0,0,.38-0.52h0.19a0.65,0.65,0,0,0,.85-0.43,0.52,0.52,0,0,0,0-.38h0a0.23,0.23,0,0,0,0-.19,3.5,3.5,0,0,0,1.18-.81,0.72,0.72,0,0,0,0-.81l0,0c0.24-.24,1.18-1.33.24-1.47l-0.28,0c0.24-.43.33-0.95-0.33-1l-1.09-.14c0.09-.52.09-1-0.28-1l-1.28-.14a0.48,0.48,0,0,0-.33-0.19c-7.39-.95-14.65-2.51-21.9-3.74" style="fill:#00a6e9"/><rect x="359.43" y="169.42" width="8.53" height="28.34" transform="translate(142 525.4) rotate(-83.82)" style="fill:none"/><rect x="359.43" y="169.42" width="8.53" height="28.34" transform="translate(142 525.4) rotate(-83.82)" style="fill:none"/><path d="M325.17,243.1h0c0.19-.09.43-0.14,0.62-0.24,0.76-.33.71-0.95,0-1.23a12.17,12.17,0,0,0-2.28,0,1.31,1.31,0,0,0-.43,0,0.5,0.5,0,0,0-.14-0.19,0.7,0.7,0,0,0,0-.62,0.83,0.83,0,0,0-1.23-.24,0.72,0.72,0,0,0-.76-0.14l-0.09,0a0.6,0.6,0,0,0-.62-0.09,15.78,15.78,0,0,1-5.88,1.28H314l-0.81-.14a9.48,9.48,0,0,1-1.94-1.71,4.89,4.89,0,0,1-1.33-2.42,8.54,8.54,0,0,1-1.09-4,15.36,15.36,0,0,1,.09-2.09,9.6,9.6,0,0,1,.43-1.56,8.73,8.73,0,0,1,.43-1.18l0.52-.66a7.54,7.54,0,0,1,1.14-.95,12,12,0,0,1,3-1.47,40.76,40.76,0,0,1,4.17-.9,32.06,32.06,0,0,1,4.27-.09c0.66,0,.62-0.47.43-0.95h0.52c1.23,0-.28-1.66-0.38-1.71l-0.14-.14a13.32,13.32,0,0,1,1.37,0c0.85,0,.95-0.71.38-1.18-0.19-.09-0.38-0.19-0.62-0.28a0.91,0.91,0,0,0,1-.66c0-1-2.13-.9-2.61-0.95l-0.95,0a0.76,0.76,0,0,0-.66-0.85h-0.57l-0.28-.14h-1c-4.6-.19-9.72.47-13.18,3.79a10.92,10.92,0,0,0-3.08,3.51,20.52,20.52,0,0,0-2.09,9.24,13.38,13.38,0,0,0,1.56,6,8.18,8.18,0,0,0,.9,1.33,9.56,9.56,0,0,0,4.17,3.93,10.62,10.62,0,0,0,3.89,1.9c0.47,0.09.95,0.19,1.42,0.24a20.11,20.11,0,0,0,11.47-1.37c0.76-.33.28-0.95-0.19-1.33,0.52-.19,1-0.38,1.52-0.62,0.85-.38-0.43-1.09-0.71-1.18" style="fill:#00a6e9"/><rect x="301.09" y="217.6" width="25.12" height="30.38" style="fill:none"/><rect x="301.09" y="217.6" width="25.12" height="30.38" style="fill:none"/><path d="M265.12,92c3.32-.38,14-2.51,14-2.51s1-3.32.52-3.6a4.81,4.81,0,0,0-2.56-.43,0.75,0.75,0,0,0-.71-0.81l-0.38,0a0.59,0.59,0,0,0-.38-0.19l-0.52,0a0.23,0.23,0,0,0-.19,0l-13.37,1.14a0.7,0.7,0,0,1,.24.33l-0.62,0a0.59,0.59,0,0,0-.38-0.28,0.82,0.82,0,0,0-.57.09,0.18,0.18,0,0,0-.09-0.09c-0.19-.09-0.38-0.14-0.43.14a1.46,1.46,0,0,1,0,.47h0a0.3,0.3,0,0,0-.14-0.24c-0.28-.09-0.33.14-0.33,0.43h0a1,1,0,0,1-.19-0.62c0,0.28,0,.52,0,0.81a1.25,1.25,0,0,0-.33.71l-0.09.09a0.68,0.68,0,0,0-.62.24v0.28l-0.28,0q-0.85,12.23-2,24.31a0.25,0.25,0,0,0,.09.14c0,0.24,0,.43,0,0.66a0.6,0.6,0,0,0,.62.43v0.28a0.14,0.14,0,0,0,0,.19,1.07,1.07,0,0,0,.47.71v0.14c0.09,0.52.38,0.57,0.85,0.52h0.28c0.28,0.62.71,1.33,1.23,1.28h0.14a0.51,0.51,0,0,0,.52,0,1.67,1.67,0,0,0,.9.47c5.4-.14,15.69-1.09,15.69-1.09a2.68,2.68,0,0,0,.14-1.23l0.47,0c1-.14,1.47-3,0.9-3.27s-8-.76-14.12-0.85q0.5-3.06.71-6.11l5.88-.52a0.6,0.6,0,0,0,.66-0.52,1.94,1.94,0,0,0,.52,0c0.62,0,.47-0.81.47-0.81l0.52,0c1.09-.09,1.66-3.46,1.09-3.7s-5.36-.62-8.86-0.9V96.59c0.09-1.52.19-3,.33-4.5" style="fill:#00a6e9"/><rect x="255.69" y="84.55" width="24.08" height="32.66" style="fill:none"/><rect x="255.69" y="84.55" width="24.08" height="32.66" style="fill:none"/><g style="clip-path:url(#h)"><path d="M375.6,103.84c-7.39.09-14.79,0.09-22.13,0.09-0.95,0-.71,2.18-0.71,2.61v0.19a1.26,1.26,0,0,0-.28.24,0.69,0.69,0,0,0-.76.62,0.6,0.6,0,0,0,0,.28,1.47,1.47,0,0,0,.09.38,0.26,0.26,0,0,0-.14.24,1,1,0,0,0,.09.52c-0.19.33-.24,0.66,0.24,0.66h0.28v0.09c-0.14.19-.19,0.38,0,0.38h0.19a1.19,1.19,0,0,1-.19.43h0.47a0.36,0.36,0,0,0,.19.09,0.32,0.32,0,0,1-.14.19h1q0,0.28.14,0.28c5,0,10,0,15-.09-1.71,1.42-3.41,2.8-5.17,4.08a49.2,49.2,0,0,1-8.25,4.79,1.67,1.67,0,0,0-.38,1.23v0.38l-1.71,0c-0.95,0-.85,2.09-0.9,2.56,0,0.14,0,.52-0.09.9a0.69,0.69,0,0,0-.71.66v0.28a0.25,0.25,0,0,0-.09.14,0.68,0.68,0,0,0,.19.71c-0.14.14-.24,0.28-0.14,0.28h0.43s0,0.09,0,.14-0.28.24-.14,0.24h0.47a1.55,1.55,0,0,0,.71.52h0l0.09,0a0.48,0.48,0,0,0,.19.28H354c0,0.19,0,.28.09,0.28q11.23,0.5,22.47.14a0.17,0.17,0,0,0,.09,0h0.62a0.5,0.5,0,0,0,.33-0.52h0a0.9,0.9,0,0,0,1-.62v-0.33l0.14-.14a0.6,0.6,0,0,0,0-.28l0.09,0a9.54,9.54,0,0,0,1.37-1c0.33-.52.09-0.81-0.33-0.9,0.33-.47.66-1.18-0.09-1.14h-0.47c0.09-.38,0-0.71-0.47-0.71l-1.14,0c0.09-.57,0-1-0.38-1l-1.18,0a0.5,0.5,0,0,0-.43-0.24c-3.18.09-6.3,0.14-9.48,0.09,4-2.84,7.63-6.16,11.38-9.29a0.56,0.56,0,0,0,0-.62,0.36,0.36,0,0,0,.09-0.19l0.81-.66c0.38-.33.81-0.9,0.28-1.28a1.63,1.63,0,0,0,.57-1,0.43,0.43,0,0,0-.14-0.33,0.8,0.8,0,0,0-.14-0.47l0.09-.14c0.24-.28.76-1.33-0.09-1.37h0c0.24-.52.47-1.33-0.33-1.28h-1c0-.52,0-1-0.47-1h-1.23a0.6,0.6,0,0,0-.43-0.19" style="fill:#00a6e9"/></g><rect x="351.62" y="103.84" width="28.82" height="24.84" style="fill:none"/><path d="M291.76,229.21c-0.09-1-.14-2-0.24-3a14.33,14.33,0,0,0-1.28-4.83c-1.14-2-3-2.8-5.12-3.13a5.57,5.57,0,0,0-2.7-1,6.4,6.4,0,0,0-1.33-.19c-3-.47-6.45,1.18-8.82,3.32a11.7,11.7,0,0,0-3.7,4.22,7.44,7.44,0,0,0-.81,2.51,7.33,7.33,0,0,0-.33,1.09,14.68,14.68,0,0,0-.24,4.31,1.31,1.31,0,0,0,0,.43,0.77,0.77,0,0,1,0,.33c0.47,5,1,10,1.56,15a0.94,0.94,0,0,0,.47,0c0,0.28,0,.62.09,0.9s0.33,0.19.62,0.14a0.68,0.68,0,0,0,.33.09,0.81,0.81,0,0,0,1.28.62c0.47,0.24,1,.28,1.18-0.19,0.52,0.14.9,0,.9-0.57v-0.47c1.18,0.14,2.28,0,2.23-.33-0.19-1.52-.33-3-0.47-4.5-0.09-1-.14-2-0.24-3,3.32-.09,6.59-0.33,9.91-0.62,0,2.23.14,4.46,0.19,6.68a0.75,0.75,0,0,0,.62.47v0.24a0.81,0.81,0,0,0,.71.76,0.68,0.68,0,0,0,.33-0.09s0.09,0,.14,0h0.14a2.54,2.54,0,0,0,.76,1,0.8,0.8,0,0,0,.9-0.14l0,0c0.28,0.19,1.14.62,1.18-.14v-0.19c0.47,0.19,1,.28,1-0.43v-1c0.85,0.09,1.47,0,1.47-.28C292.32,241.34,292.47,235.18,291.76,229.21Zm-17,6.3c-0.09-1.28-.19-2.61-0.24-3.89a14.31,14.31,0,0,1,.14-2.84,5.41,5.41,0,0,1,.43-1.23,3.26,3.26,0,0,1,.52-0.62h0a14.54,14.54,0,0,1,3.18-2.18c0.33-.09.62-0.14,0.95-0.24l3.55-.24a2.31,2.31,0,0,1,.33.14,12.43,12.43,0,0,1,.66,3c0.28,2.13.43,4.27,0.57,6.4Q279.83,234.73,274.79,235.51Z" style="fill:#00a6e9"/><rect x="267.06" y="216.93" width="25.4" height="33.23" style="fill:none"/><rect x="267.06" y="216.93" width="25.4" height="33.23" style="fill:none"/><path d="M231.8,147.42c-0.52-3.18-1.8-6.3-4.31-8.29a11.84,11.84,0,0,0-2.75-2,10.58,10.58,0,0,0-5.36-2.37h-0.66a7.11,7.11,0,0,0-4,.14,9.38,9.38,0,0,0-4.41,3.37,2.72,2.72,0,0,0-.38,2l-0.43.47a0.54,0.54,0,0,0-.38.33c-0.19.28-.33,0.62-0.52,0.9-0.14-.33-0.43-0.62-0.81-0.28a3.54,3.54,0,0,0-1.28,1.23,12.16,12.16,0,0,0-.95,2.89,7.51,7.51,0,0,0-.9,2.09,7.69,7.69,0,0,0-.38,2.32c0,0.28,0,.52-0.09.81a5,5,0,0,0,0,1.18,9.34,9.34,0,0,0,.52,3.41,11.19,11.19,0,0,0,1.85,3.27,8.08,8.08,0,0,0,1.09,1.42,15.86,15.86,0,0,0,8.06,4.27,9.79,9.79,0,0,0,4.22.24l0.19,0a2.31,2.31,0,0,0,.57,0,14.87,14.87,0,0,0,7.35-4,11.28,11.28,0,0,0,1.85-2.84,2.63,2.63,0,0,1,.28-0.38,11,11,0,0,0,1.61-5.17A12.77,12.77,0,0,0,231.8,147.42Zm-6.07,6.07a11,11,0,0,1-2.18,2.28,9.32,9.32,0,0,1-6,1.85,11.15,11.15,0,0,1-2.46-.66l-0.95-.43-0.28-.19a11.18,11.18,0,0,1-2.51-3.41c-0.14-.33-0.24-0.66-0.38-1v-0.62a29.91,29.91,0,0,1,1-6.16,0.31,0.31,0,0,0,.28,0,4.27,4.27,0,0,1,.43-0.47,1.49,1.49,0,0,0,1.09-.24,9.45,9.45,0,0,1,1.9-2l2-.66h0.14a3.7,3.7,0,0,1,1,.14,10.8,10.8,0,0,1,3.6,2.18,8.9,8.9,0,0,1,1.14,1.18,14.27,14.27,0,0,1,2.23,4.88c0.14,0.47.19,1,.28,1.47A12.25,12.25,0,0,1,225.73,153.49Z" style="fill:#00a6e9"/></g></svg>