<svg xmlns="http://www.w3.org/2000/svg" xmlns:xlink="http://www.w3.org/1999/xlink" viewBox="0 0 472.94 385"><defs><clipPath id="a"><rect x="104.06" y="15.94" width="264.37" height="352.5" transform="translate(428.43 -44.06) rotate(90)" style="fill:#fff;stroke:#00aeef;stroke-linecap:round;stroke-linejoin:round;stroke-width:4px"/></clipPath><clipPath id="b"><rect x="319.34" y="102.38" width="40.37" height="34.79" style="fill:none"/></clipPath></defs><title>inst</title><rect x="104.06" y="15.94" width="264.37" height="352.5" transform="translate(428.43 -44.06) rotate(90)" style="fill:#fff"/><g style="clip-path:url(#a)"><path d="M265.76,201.38l0.27-.2c0.66-.4.73-1-0.07-1.33a7.52,7.52,0,0,0-2.12-.07,2.49,2.49,0,0,0-.66.07h0a0.72,0.72,0,0,0,0-.73,0.82,0.82,0,0,0-1.2-.33,0.71,0.71,0,0,0-.8-0.13h0a1.09,1.09,0,0,0-.8-0.13,73.43,73.43,0,0,1-11.82,6,11.61,11.61,0,0,0,1.2-1.93,16,16,0,0,0,3.19-9.23c0.86-5.64-1.13-11.42-3.92-16.4-0.33-.53-2.66-0.33-2.92-0.27h0a5.49,5.49,0,0,0-.46-0.86,1.08,1.08,0,0,0-1.46-.27,0.82,0.82,0,0,0-.86-0.07,0.8,0.8,0,0,0-.93,0l-0.86.86a0.4,0.4,0,0,0-.27.07c-7.77,7.64-15.54,15.4-23.9,22.44-0.6.46-1.13,0.93-1.73,1.33q0.8-2.59,1.39-5.18c1.26-5.18,2.32-10.29,3.72-15.4a0.93,0.93,0,0,0-.8-1l0.27-.86c0.27-1.06-2.52-1.06-3.39-1.06a0.83,0.83,0,0,0-.73-0.93h-0.4a0.4,0.4,0,0,0-.4-0.2h-0.8a9.92,9.92,0,0,0-4.38,1.06,0.82,0.82,0,0,1,.13.2l-0.6.27,0.4,0.66c0,0.07-.07.07-0.07,0.13a0.89,0.89,0,0,0-.33.6c-0.27.13-.53,0.2-0.86,0.33-0.13.07,0,.13,0.13,0.13l-0.46.2a0.88,0.88,0,0,1,.6.2,0.5,0.5,0,0,0-.07.33l-0.46.2a1.65,1.65,0,0,0,.93.4v0.07h0a0.72,0.72,0,0,0-.33,1v0.07a0.92,0.92,0,0,0,1.13.27,2.34,2.34,0,0,0,1.2,1.39c-0.86,3.59-1.66,7.17-2.52,10.82-0.27,1.2-.6,2.46-0.93,3.65-0.27.73-.46,1.53-0.73,2.26a32.07,32.07,0,0,1-3.19,6.84,0.82,0.82,0,0,0,.2.13c-0.2.33-.33,0.6-0.53,0.93h0.33c-0.2.33-.33,0.6-0.46,0.86a0.5,0.5,0,0,0,.4.2c-0.07.2-.2,0.33-0.27,0.53s0.27,0.4.73,0.46v0.07c-0.46.86,0.27,1.13,0.93,1.06a0.24,0.24,0,0,0,.2.07c0.4,0.8,1.06,1.53,1.46,1.39l0.53-.2a1.39,1.39,0,0,0,1.2.6c1.2-.4,2.39-0.73,3.45-1.2A26.68,26.68,0,0,0,215.3,210c0.27-.13.53-0.27,0.86-0.4a52,52,0,0,0,4.45-3q1.49-1.1,3-2.39v0.27c-0.13,0-.27,0-0.2.13l0.2,0.4v0.07c-0.53-.2-1.06-0.27-0.86.27l0.2,0.33a0.43,0.43,0,0,0-.13.66,8.46,8.46,0,0,0,1,1.66,7.59,7.59,0,0,0,2.06,2.72,5.73,5.73,0,0,0,1.06.66c0.2,0.2.4,0.46,0.6,0.66a6.31,6.31,0,0,0,1.86,1.33c3,1.66,6.64,1.59,10,1.39,1-.07,2.06-0.13,3.05-0.27a23.71,23.71,0,0,0,3.72-.46,20.08,20.08,0,0,0,3.32-1.26l2.26-1c4.51-1.66,8.63-4.45,12.62-7a0.64,0.64,0,0,0,.4-0.6l1.66-1c0.93-.53-0.33-1.2-0.93-1.39m-40.57,1.39,0.13-.07,0.13,0.2a1,1,0,0,1-.27-0.13m19.92-8.76a16.76,16.76,0,0,1-3.19,6,5.73,5.73,0,0,1-.86.93c-2.06,1.46-4.32,1.86-6.84,2.39a26.63,26.63,0,0,1-3.32.53,1.39,1.39,0,0,0-.27-0.4c-0.27-.46-1.59-0.66-2.79-0.6a2.6,2.6,0,0,1-.53-0.66,0.77,0.77,0,0,0-.93-0.13,0.52,0.52,0,0,0-.53-0.13c-0.07,0-.07.07-0.13,0.07l3.19-2.79c5.18-4.58,10.22-9.43,15.14-14.27a19.13,19.13,0,0,1,1,4.78,15.7,15.7,0,0,1,.07,4.32" style="fill:#00a6e9"/><path d="M215.77,166.52l-0.13.66c0,0.2.27,0.27,0.6,0.33v0.2a0.9,0.9,0,0,0,.73,1.13,0.81,0.81,0,0,0,.4,0,0.32,0.32,0,0,0,.27.07,7.45,7.45,0,0,0,1.06,1.46c0.33,0.33,1.06.93,1.33,0.13v-0.07c0.53,0.4,1.26.93,1.46,0l0.13-.53a0.6,0.6,0,0,0,.8-0.6l0.27-1.33a0.87,0.87,0,0,0,1.06-.46l0.66-3.39v-0.2l0.33-1.59c0.2-1.06-2.85-.8-3.12-0.73h-0.27c-0.07-.07-0.13-0.2-0.2-0.27v-0.07c0.27-.86-0.73-1-1.59-0.8a1.14,1.14,0,0,0-.8-0.13c-0.33-.27-0.6-0.33-0.66,0l-0.13.6c-0.2-.13-0.4-0.2-0.46,0v0.2a0.57,0.57,0,0,0-.4-0.2,0.55,0.55,0,0,1,.4.27v0.27l-0.13.13a1,1,0,0,0-.4.53,0.39,0.39,0,0,0-.33.13l-0.13.66a0.14,0.14,0,0,0-.13.13l-0.6,3.25a0.82,0.82,0,0,0,.2.13" style="fill:#00a6e9"/><rect x="203.95" y="160.21" width="63.08" height="54.24" style="fill:none"/><rect x="203.95" y="160.21" width="63.08" height="54.24" style="fill:none"/><path d="M159.33,91.69c-0.46.4-.86,0.86-1.33,1.26a0.52,0.52,0,0,0-.53-0.13c-0.6-1.33-1.59-.6-2.32.46a1.28,1.28,0,0,0-.66.2,1.27,1.27,0,0,0-.33.66,1,1,0,0,0-.73,1.2,0.13,0.13,0,0,0,.07.13l0.2,0.4a0.57,0.57,0,0,0-.2.4,0.79,0.79,0,0,0-.46.53c3.19,8.23,6,16.33,7.3,25.16,0.13,0.86.33,2,.46,3.12-1.86-.86-3.65-1.66-5.38-2.59-3.19-1.66-6.17-3.45-9.23-5.18A97.63,97.63,0,0,0,137,112.8c-0.66-.27-2.66,1.13-4,2.52l-0.86-.4a1,1,0,0,0-1.13.8c-0.6,0-1,.46-0.33.93a3.79,3.79,0,0,1-.86-0.07l0.6,0.33a0.72,0.72,0,0,0,.13.6,1.77,1.77,0,0,1-.8-0.2l0.73,0.46c0,0.13.07,0.27,0.07,0.4a1.1,1.1,0,0,0,.33,1v0.07a1.14,1.14,0,0,0-.27.86l0.8,0.46a0.07,0.07,0,0,0,.07.07l0.13,0.07a2.15,2.15,0,0,1-.53.46c7.83,4.85,15.87,9.76,24.3,13.48,1.86,0.86,3.45,2,5.11,2a11.36,11.36,0,0,0,2,.6,1.54,1.54,0,0,0,1.39-.4,1,1,0,0,0,.27-0.27h0.07a5.5,5.5,0,0,0,2.32.33,2.3,2.3,0,0,0,1.66-1.06,2.62,2.62,0,0,0,2-.86c0.73-.93,1.13-3.45,1.2-4.18a24,24,0,0,0,.07-3.78,37.55,37.55,0,0,0-.4-5.44,31,31,0,0,0-.86-4.32c-1.39-8.43-4.12-16.2-7.17-24.1a0.72,0.72,0,0,0-.86-0.4l-0.46-1.2c-0.46-1.53-1.66-.46-2.39.13" style="fill:#00a6e9"/><rect x="136.03" y="97.87" width="42.69" height="41.36" transform="matrix(0.75, -0.66, 0.66, 0.75, -39.1, 133.39)" style="fill:none"/><rect x="136.03" y="97.87" width="42.69" height="41.36" transform="matrix(0.75, -0.66, 0.66, 0.75, -39.1, 133.39)" style="fill:none"/><path d="M316.62,226.54A2.79,2.79,0,0,0,315,227.6c-0.6.6-1.2,1.26-1.73,1.86H312.9a0.89,0.89,0,0,0-1.26-.2l-0.73,1a0.7,0.7,0,0,0-.33.13l-0.6.8c-0.07.07-.13,0.07-0.2,0.13q-9.46,12.25-18.72,24.57c-0.13.2,0.13,0.33,0.53,0.4l-0.4.53c-0.07.07,0,.2,0.2,0.27l-0.46.6a1.4,1.4,0,0,1,.86-0.33v0.07a1.49,1.49,0,0,0,.4,1.13,1.74,1.74,0,0,1-.33.6l0.46-.53,0.13,0.13a0.84,0.84,0,0,0-.07.4c0.07,0.2.07,0.46,0.33,0.13l0.07-.13v0.07l-0.33.46c-0.2.27-.07,0.33,0.2,0.2a1.76,1.76,0,0,0,.4-0.33,0.57,0.57,0,0,0,.4.2l-0.07.07c-0.2.27-.4,0.6,0,0.73a1,1,0,0,0,.73-0.46c0.07,0.07.07,0.2,0.13,0.27a1.25,1.25,0,0,0,1.66.27l0.66-.73h0c1.2,0.27,2.79.53,3.32-.13,2.26-2.46,4.38-5,6.57-7.5,6.71,5.71,13.35,11.49,19.79,17.46a0.29,0.29,0,0,0,.33.07l0.6,0.53a0.91,0.91,0,0,0,1.2-.13,1.79,1.79,0,0,0,2,.46,1,1,0,0,0,.4-0.53H331a1,1,0,0,0,.53-0.4c0.53,0.07,1.06.07,1.53,0.13a2.3,2.3,0,0,0,1.86-.27,0.67,0.67,0,0,0,.13-1l-0.46-.4c0.73-.27,1.33-0.66.6-1.26l-0.6-.53c0.46-.33.73-0.8,0.13-1.26l-1.33-1.2c0.6-.53.93-1.13,0.53-1.46l-1.46-1.33a0.55,0.55,0,0,0-.27-0.4C326,255,319.74,249.38,313.3,244c2.12-2.72,4.25-5.51,6.24-8.3a0.77,0.77,0,0,0-.07-1.2l0.4-.53c0.53-.73,0-1.06-0.66-1.26l0.46-.6c1.06-1.33-2.06-1.06-2.19-1.06h-0.13l1.13-1.46c0.73-.93.13-1.66-0.93-1.39-0.33.13-.6,0.33-0.93,0.46,0.46-.66,1.2-2.06-0.13-2.12" style="fill:#00a6e9"/><rect x="298.62" y="232.81" width="41.43" height="43.36" transform="translate(-76.79 353.59) rotate(-52.6)" style="fill:none"/><rect x="298.62" y="232.81" width="41.43" height="43.36" transform="translate(-76.79 353.59) rotate(-52.6)" style="fill:none"/><path d="M357.32,169.24c-0.73-4.45-2.52-8.83-6-11.62a16.58,16.58,0,0,0-3.85-2.85,14.82,14.82,0,0,0-7.5-3.32H339a10,10,0,0,0-5.58.2c-2.72.86-4.38,2.59-6.17,4.71a3.82,3.82,0,0,0-.53,2.79l-0.6.66a0.76,0.76,0,0,0-.53.46c-0.27.4-.46,0.86-0.73,1.26-0.2-.46-0.6-0.86-1.13-0.4a5,5,0,0,0-1.79,1.73,17,17,0,0,0-1.33,4.05,10.51,10.51,0,0,0-1.26,2.92,10.77,10.77,0,0,0-.53,3.25c-0.07.4-.07,0.73-0.13,1.13a7,7,0,0,0-.07,1.66,13.09,13.09,0,0,0,.73,4.78,15.68,15.68,0,0,0,2.59,4.58,11.31,11.31,0,0,0,1.53,2,22.22,22.22,0,0,0,11.29,6,13.71,13.71,0,0,0,5.91.33l0.27-.07a3.23,3.23,0,0,0,.8-0.07A20.83,20.83,0,0,0,352,187.77a15.81,15.81,0,0,0,2.59-4,3.68,3.68,0,0,1,.4-0.53,15.45,15.45,0,0,0,2.26-7.24A17.89,17.89,0,0,0,357.32,169.24Zm-8.5,8.5a15.42,15.42,0,0,1-3.05,3.19,13.06,13.06,0,0,1-8.37,2.59,15.62,15.62,0,0,1-3.45-.93l-1.33-.6-0.4-.27a15.66,15.66,0,0,1-3.52-4.78c-0.2-.46-0.33-0.93-0.53-1.39v-0.86c0-2.92.86-5.84,1.46-8.63A0.44,0.44,0,0,0,330,166a6,6,0,0,1,.6-0.66,2.09,2.09,0,0,0,1.53-.33,13.24,13.24,0,0,1,2.66-2.79l2.79-.93h0.2a5.18,5.18,0,0,1,1.46.2,15.12,15.12,0,0,1,5,3.05,12.47,12.47,0,0,1,1.59,1.66A20,20,0,0,1,349,173c0.2,0.66.27,1.39,0.4,2.06A17.17,17.17,0,0,1,348.82,177.74Z" style="fill:#00a6e9"/><rect x="318.75" y="151.11" width="38.91" height="42.56" style="fill:none"/><rect x="318.75" y="151.11" width="38.91" height="42.56" style="fill:none"/><rect x="110.86" y="143.21" width="42.82" height="46.81" style="fill:none"/><path d="M152,200.84c-0.13.4-.27,0.73-0.4,1.13l-0.27-1.06c-0.33-1.26-1.53-.8-1.86.13a9.55,9.55,0,0,0-.07,4.12h0l-0.13-.07c-0.53-.27-1.79.13-1.66,0.93l0.2,0.93a1.07,1.07,0,0,0-.33.73l0.13,0.53a1.29,1.29,0,0,0-.2.86,52.09,52.09,0,0,1,1.93,10.09c0,0.6.07,1.2,0.07,1.79a6.19,6.19,0,0,1-3.25,1.86,24.28,24.28,0,0,1-4.38.27,119.72,119.72,0,0,0-18.26,0l-6.11-.13a1.8,1.8,0,0,0-1.46.93l-1.2.2c-1.39.13-1.39,2.12-1.46,3.19,0,0.27-.13.86-0.13,1.39a1.2,1.2,0,0,0-1.13.93V230a0.92,0.92,0,0,0-.2.27,0.66,0.66,0,0,0,.46.93h0.07a1.3,1.3,0,0,0-.46.66h0.73a0.28,0.28,0,0,0,.27.2h0a3.43,3.43,0,0,0-.4.46h0.93a1.15,1.15,0,0,0,.73.4,1.69,1.69,0,0,1-.53.86h1.73a0.62,0.62,0,0,0,.07.46c9.49,0.2,19,.6,28.48.53,0.8,0,1.59,0,2.39-.07a8.91,8.91,0,0,0,2.32-.27,8.36,8.36,0,0,0,3.39-1.59,6.08,6.08,0,0,0,2.32-1.59,6.78,6.78,0,0,0,1.59-2.66l0.07-.07a10,10,0,0,0,2.12-5.58c1.59-5.51-.46-12.22-1.79-17.46l-0.2-.4-0.4-1.39c-0.27-.86-0.93-0.66-1.46-0.27-0.13-.66-0.33-1.33-0.46-2.06-0.27-1.13-1.13-1.46-1.79-.4" style="fill:#00a6e9"/><rect x="111.79" y="200.11" width="46.94" height="34.46" style="fill:none"/><rect x="111.79" y="200.11" width="46.94" height="34.46" style="fill:none"/><path d="M319.74,206.36c-1.33-.27-1.53,2.72-1.66,3.32-0.07.27-.2,0.86-0.33,1.46a1.14,1.14,0,0,0-1.13,1.2l-0.2.2a0.8,0.8,0,0,0,.2.93c-0.27.27-.46,0.46-0.27,0.46l0.66,0.13a0.35,0.35,0,0,0,.13.2c-0.2.13-.33,0.27-0.27,0.27l0.86,0.13a0.91,0.91,0,0,0,.66.53,4,4,0,0,1-.2.73l1.13,0.2c0,0.13,0,.2.07,0.2,10.29,1.93,20.58,4.05,30.94,5.31a0.24,0.24,0,0,0,.2-0.07l0.86,0.13a1,1,0,0,0,.53-0.73h0.27a0.92,0.92,0,0,0,1.2-.6,0.73,0.73,0,0,0,0-.53h0a0.32,0.32,0,0,0,.07-0.27,4.9,4.9,0,0,0,1.66-1.13,1,1,0,0,0-.07-1.13l0.07-.07c0.33-.33,1.66-1.86.33-2.06l-0.4-.07c0.33-.6.46-1.33-0.46-1.39l-1.53-.2c0.13-.73.13-1.39-0.4-1.46l-1.79-.2a0.67,0.67,0,0,0-.46-0.27c-10.36-1.33-20.52-3.52-30.67-5.25" style="fill:#00a6e9"/><rect x="330.28" y="194.25" width="11.95" height="39.7" transform="translate(87.19 525.35) rotate(-83.82)" style="fill:none"/><rect x="330.28" y="194.25" width="11.95" height="39.7" transform="translate(87.19 525.35) rotate(-83.82)" style="fill:none"/><path d="M282.3,297.45h-0.07c0.27-.13.6-0.2,0.86-0.33,1.06-.46,1-1.33-0.07-1.73a17,17,0,0,0-3.19-.07,1.84,1.84,0,0,0-.6.07,0.7,0.7,0,0,0-.2-0.27,1,1,0,0,0,0-.86c-0.4-.8-1.13-0.6-1.73-0.33a1,1,0,0,0-1.06-.2l-0.13.07a0.84,0.84,0,0,0-.86-0.13,22.11,22.11,0,0,1-8.23,1.79h-0.4l-1.13-.2a13.28,13.28,0,0,1-2.72-2.39,6.84,6.84,0,0,1-1.86-3.39,12,12,0,0,1-1.53-5.64,21.51,21.51,0,0,1,.13-2.92,13.44,13.44,0,0,1,.6-2.19,12.23,12.23,0,0,1,.6-1.66l0.73-.93a10.57,10.57,0,0,1,1.59-1.33,16.77,16.77,0,0,1,4.25-2.06,57.1,57.1,0,0,1,5.84-1.26,44.9,44.9,0,0,1,6-.13c0.93,0,.86-0.66.6-1.33h0.73c1.73,0.07-.4-2.32-0.53-2.39l-0.2-.2a18.66,18.66,0,0,1,1.93.07c1.2,0.07,1.33-1,.53-1.66-0.27-.13-0.53-0.27-0.86-0.4,0.8-.07,1.46-0.33,1.46-0.93,0.07-1.39-3-1.26-3.65-1.33l-1.33-.07a1.06,1.06,0,0,0-.93-1.2h-0.8l-0.4-.2H274.2c-6.44-.27-13.61.66-18.46,5.31a15.29,15.29,0,0,0-4.32,4.91,28.75,28.75,0,0,0-2.92,12.95,18.74,18.74,0,0,0,2.19,8.43,11.46,11.46,0,0,0,1.26,1.86,13.39,13.39,0,0,0,5.84,5.51,14.87,14.87,0,0,0,5.44,2.66c0.66,0.13,1.33.27,2,.33a28.17,28.17,0,0,0,16.07-1.93c1.06-.46.4-1.33-0.27-1.86,0.73-.27,1.39-0.53,2.12-0.86,1.2-.53-0.6-1.53-1-1.66" style="fill:#00a6e9"/><rect x="248.57" y="261.73" width="35.19" height="42.56" style="fill:none"/><rect x="248.57" y="261.73" width="35.19" height="42.56" style="fill:none"/><path d="M198.17,85.85c4.65-.53,19.59-3.52,19.59-3.52s1.39-4.65.73-5a6.74,6.74,0,0,0-3.59-.6,1.05,1.05,0,0,0-1-1.13l-0.53.07a0.82,0.82,0,0,0-.53-0.27l-0.73.07a0.32,0.32,0,0,0-.27-0.07L193.13,77a1,1,0,0,1,.33.46l-0.86.07a0.82,0.82,0,0,0-.53-0.4,1.14,1.14,0,0,0-.8.13,0.25,0.25,0,0,0-.13-0.13c-0.27-.13-0.53-0.2-0.6.2a2,2,0,0,1-.07.66h0a0.41,0.41,0,0,0-.2-0.33c-0.4-.13-0.46.2-0.46,0.6h-0.07a1.46,1.46,0,0,1-.27-0.86c0,0.4-.07.73-0.07,1.13a1.74,1.74,0,0,0-.46,1l-0.13.13a1,1,0,0,0-.86.33v0.4l-0.4-.07q-1.2,17.13-2.79,34.06a0.35,0.35,0,0,0,.13.2c0,0.33-.07.6-0.07,0.93a0.84,0.84,0,0,0,.86.6v0.4a0.2,0.2,0,0,0,0,.27,1.5,1.5,0,0,0,.66,1v0.2c0.13,0.73.53,0.8,1.2,0.73h0.4c0.4,0.86,1,1.86,1.73,1.79h0.2a0.72,0.72,0,0,0,.73,0,2.34,2.34,0,0,0,1.26.66c7.57-.2,22-1.53,22-1.53a3.76,3.76,0,0,0,.2-1.73l0.66-.07c1.46-.2,2.06-4.25,1.26-4.58s-11.22-1.06-19.79-1.2q0.7-4.28,1-8.56l8.23-.73a0.84,0.84,0,0,0,.93-0.73,2.72,2.72,0,0,0,.73-0.07c0.86-.07.66-1.13,0.66-1.13l0.73-.07c1.53-.13,2.32-4.85,1.53-5.18s-7.5-.86-12.42-1.26V92.22c0.13-2.12.27-4.18,0.46-6.31" style="fill:#00a6e9"/><rect x="184.96" y="75.36" width="33.73" height="45.75" style="fill:none"/><rect x="184.96" y="75.36" width="33.73" height="45.75" style="fill:none"/><g style="clip-path:url(#b)"><path d="M352.94,102.38c-10.36.13-20.72,0.13-31,.13-1.33,0-1,3.05-1,3.65v0.27a1.76,1.76,0,0,0-.4.33,1,1,0,0,0-1.06.86,0.84,0.84,0,0,0,.07.4,2.05,2.05,0,0,0,.13.53,0.37,0.37,0,0,0-.2.33,1.43,1.43,0,0,0,.13.73c-0.27.46-.33,0.93,0.33,0.93h0.4v0.13c-0.2.27-.27,0.53,0,0.53h0.27a1.66,1.66,0,0,1-.27.6H321a0.5,0.5,0,0,0,.27.13,0.45,0.45,0,0,1-.2.27h1.46q0,0.4.2,0.4c7,0,14-.07,21-0.13-2.39,2-4.78,3.92-7.24,5.71A68.93,68.93,0,0,1,325,124.89a2.34,2.34,0,0,0-.53,1.73v0.53l-2.39-.07c-1.33,0-1.2,2.92-1.26,3.59,0,0.2-.07.73-0.13,1.26a1,1,0,0,0-1,.93v0.4a0.35,0.35,0,0,0-.13.2,1,1,0,0,0,.27,1c-0.2.2-.33,0.4-0.2,0.4h0.6c0,0.07.07,0.13,0.07,0.2-0.2.13-.4,0.33-0.2,0.33h0.66a2.17,2.17,0,0,0,1,.73h0l0.13,0.07a0.67,0.67,0,0,0,.27.4h0.6c0,0.27.07,0.4,0.13,0.4q15.74,0.7,31.47.2a0.23,0.23,0,0,0,.13-0.07h0.86a0.71,0.71,0,0,0,.46-0.73h0.07a1.26,1.26,0,0,0,1.39-.86V135l0.2-.2a0.84,0.84,0,0,0,.07-0.4l0.13-.07a13.37,13.37,0,0,0,1.93-1.46c0.46-.73.13-1.13-0.46-1.26,0.46-.66.93-1.66-0.13-1.59h-0.66c0.13-.53.07-1-0.66-1l-1.59.07c0.13-.8.07-1.46-0.53-1.46l-1.66.07a0.7,0.7,0,0,0-.6-0.33c-4.45.13-8.83,0.2-13.28,0.13,5.58-4,10.69-8.63,15.93-13a0.79,0.79,0,0,0,0-.86,0.5,0.5,0,0,0,.13-0.27l1.13-.93c0.53-.46,1.13-1.26.4-1.79a2.28,2.28,0,0,0,.8-1.46,0.6,0.6,0,0,0-.2-0.46,1.12,1.12,0,0,0-.2-0.66l0.13-.2c0.33-.4,1.06-1.86-0.13-1.93h0c0.33-.73.66-1.86-0.46-1.79h-1.46c0-.73-0.07-1.39-0.66-1.39h-1.73a0.84,0.84,0,0,0-.6-0.27" style="fill:#00a6e9"/></g><rect x="319.34" y="102.38" width="40.37" height="34.79" style="fill:none"/><path d="M235.49,278c-0.13-1.39-.2-2.79-0.33-4.18a20.08,20.08,0,0,0-1.79-6.77c-1.59-2.85-4.25-3.92-7.17-4.38a7.81,7.81,0,0,0-3.78-1.46,9,9,0,0,0-1.86-.27c-4.25-.66-9,1.66-12.35,4.65a16.39,16.39,0,0,0-5.18,5.91,10.42,10.42,0,0,0-1.13,3.52,10.26,10.26,0,0,0-.46,1.53,20.57,20.57,0,0,0-.33,6,1.84,1.84,0,0,0,.07.6,1.08,1.08,0,0,1,0,.46c0.66,7,1.39,14,2.19,21a1.32,1.32,0,0,0,.66.07c0.07,0.4.07,0.86,0.13,1.26s0.46,0.27.86,0.2a1,1,0,0,0,.46.13,1.14,1.14,0,0,0,1.79.86c0.66,0.33,1.39.4,1.66-.27,0.73,0.2,1.26,0,1.26-.8v-0.66c1.66,0.2,3.19.07,3.12-.46-0.27-2.12-.46-4.18-0.66-6.31-0.13-1.39-.2-2.79-0.33-4.18,4.65-.13,9.23-0.46,13.88-0.86,0.07,3.12.2,6.24,0.27,9.36a1.06,1.06,0,0,0,.86.66V304a1.13,1.13,0,0,0,1,1.06,1,1,0,0,0,.46-0.13c0.07,0,.13.07,0.2,0.07h0.2a3.56,3.56,0,0,0,1.06,1.39,1.12,1.12,0,0,0,1.26-.2l0.07,0.07c0.4,0.27,1.59.86,1.66-.2v-0.27c0.66,0.27,1.39.4,1.39-.6v-1.46c1.2,0.13,2.06,0,2.06-.4C236.28,295,236.48,286.36,235.49,278Zm-23.77,8.83c-0.13-1.79-.27-3.65-0.33-5.44a20,20,0,0,1,.2-4,7.58,7.58,0,0,1,.6-1.73,4.57,4.57,0,0,1,.73-0.86h0a20.36,20.36,0,0,1,4.45-3.05c0.46-.13.86-0.2,1.33-0.33l5-.33a3.24,3.24,0,0,1,.46.2,17.41,17.41,0,0,1,.93,4.18c0.4,3,.6,6,0.8,9Q218.79,285.73,211.72,286.83Z" style="fill:#00a6e9"/><rect x="200.9" y="260.8" width="35.59" height="46.54" style="fill:none"/><rect x="200.9" y="260.8" width="35.59" height="46.54" style="fill:none"/><path d="M151.5,163.43c-0.73-4.45-2.52-8.83-6-11.62a16.58,16.58,0,0,0-3.85-2.85,14.82,14.82,0,0,0-7.5-3.32h-0.93a10,10,0,0,0-5.58.2c-2.72.86-4.38,2.59-6.17,4.71a3.82,3.82,0,0,0-.53,2.79l-0.6.66a0.76,0.76,0,0,0-.53.46c-0.27.4-.46,0.86-0.73,1.26-0.2-.46-0.6-0.86-1.13-0.4a5,5,0,0,0-1.79,1.73,17,17,0,0,0-1.33,4.05,10.51,10.51,0,0,0-1.26,2.92,10.77,10.77,0,0,0-.53,3.25c-0.07.4-.07,0.73-0.13,1.13a7,7,0,0,0-.07,1.66,13.09,13.09,0,0,0,.73,4.78,15.68,15.68,0,0,0,2.59,4.58,11.31,11.31,0,0,0,1.53,2,22.22,22.22,0,0,0,11.29,6,13.71,13.71,0,0,0,5.91.33l0.27-.07a3.23,3.23,0,0,0,.8-0.07,14.29,14.29,0,0,0,6.64-2.72,14.16,14.16,0,0,0,3.65-2.92,15.81,15.81,0,0,0,2.59-4,3.68,3.68,0,0,1,.4-0.53,15.45,15.45,0,0,0,2.26-7.24A17.89,17.89,0,0,0,151.5,163.43Zm-8.5,8.5a15.42,15.42,0,0,1-3.05,3.19,13.06,13.06,0,0,1-8.37,2.59,15.62,15.62,0,0,1-3.45-.93l-1.33-.6-0.4-.27a15.66,15.66,0,0,1-3.52-4.78c-0.2-.46-0.33-0.93-0.53-1.39v-0.86c0-2.92.86-5.84,1.46-8.63a0.44,0.44,0,0,0,.4-0.07,6,6,0,0,1,.6-0.66,2.09,2.09,0,0,0,1.53-.33,13.24,13.24,0,0,1,2.66-2.79l2.79-.93H132a5.18,5.18,0,0,1,1.46.2,15.12,15.12,0,0,1,5,3.05,12.47,12.47,0,0,1,1.59,1.66,20,20,0,0,1,3.12,6.84c0.2,0.66.27,1.39,0.4,2.06A17.17,17.17,0,0,1,143,171.93Z" style="fill:#00a6e9"/></g><rect x="104.06" y="15.94" width="264.37" height="352.5" transform="translate(428.43 -44.06) rotate(90)" style="fill:none;stroke:#00aeef;stroke-linecap:round;stroke-linejoin:round;stroke-width:4px"/><line x1="412.4" y1="192.78" x2="60.4" y2="192.78" style="fill:none;stroke:#00aeef;stroke-linecap:round;stroke-linejoin:round;stroke-width:2px;opacity:0.5"/><line x1="235.4" y1="60.78" x2="235.4" y2="324.78" style="fill:none;stroke:#00aeef;stroke-linecap:round;stroke-linejoin:round;stroke-width:2px;opacity:0.5"/><path d="M76.82,180.12h128a6.23,6.23,0,0,0-1,4.23c0.37,2.1,1.93,2.5,2,4.33,0.08,2.21-2.16,2.9-1.83,4.83,0.28,1.67,2.09,1.95,2,3.33s-1.58,1.5-2,3a4.24,4.24,0,0,0,.83,3.33h-128a3.94,3.94,0,0,0,1.25-3.12c-0.3-1.55-2.09-1.89-2.12-3.25s1.66-1.61,1.75-3.12-1.46-2.63-1.62-4.25c-0.19-1.85,2-3.34,1.75-5C77.57,183,76.12,180.93,76.82,180.12Z" style="fill:#fff;fill-opacity:0.35000000000000003;stroke:#00aeef;stroke-linecap:round;stroke-linejoin:round;stroke-width:2px"/><path d="M279.31,180.12h128a6.23,6.23,0,0,0-1,4.23c0.37,2.1,1.93,2.5,2,4.33,0.08,2.21-2.16,2.9-1.83,4.83,0.28,1.67,2.09,1.95,2,3.33s-1.58,1.5-2,3a4.24,4.24,0,0,0,.83,3.33h-128a3.94,3.94,0,0,0,1.25-3.12c-0.3-1.55-2.09-1.89-2.12-3.25s1.66-1.61,1.75-3.12-1.46-2.63-1.62-4.25c-0.19-1.85,2-3.34,1.75-5C280.06,183,278.61,180.93,279.31,180.12Z" style="fill:#fff;fill-opacity:0.35000000000000003;stroke:#00aeef;stroke-linecap:round;stroke-linejoin:round;stroke-width:2px"/><path d="M225.43,170.31v-98a6.23,6.23,0,0,0,4.23,1c2.1-.37,2.5-1.93,4.33-2,2.21-.08,2.9,2.16,4.83,1.83,1.67-.28,1.95-2.09,3.33-2s1.5,1.58,3,2a4.24,4.24,0,0,0,3.33-.83v98a3.94,3.94,0,0,0-3.12-1.25c-1.55.3-1.89,2.09-3.25,2.13s-1.61-1.66-3.12-1.75-2.63,1.46-4.25,1.63c-1.85.19-3.34-2-5-1.75C228.33,169.56,226.24,171,225.43,170.31Z" style="fill:#fff;fill-opacity:0.35000000000000003;stroke:#00aeef;stroke-linecap:round;stroke-linejoin:round;stroke-width:2px"/><path d="M225.43,317.3v-98a6.23,6.23,0,0,0,4.23,1c2.1-.37,2.5-1.93,4.33-2,2.21-.08,2.9,2.16,4.83,1.83,1.67-.28,1.95-2.09,3.33-2s1.5,1.58,3,2a4.24,4.24,0,0,0,3.33-.83v98a3.94,3.94,0,0,0-3.12-1.25c-1.55.3-1.89,2.09-3.25,2.13s-1.61-1.66-3.12-1.75-2.63,1.46-4.25,1.63c-1.85.19-3.34-2-5-1.75C228.33,316.55,226.24,318,225.43,317.3Z" style="fill:#fff;fill-opacity:0.35000000000000003;stroke:#00aeef;stroke-linecap:round;stroke-linejoin:round;stroke-width:2px"/></svg>