<svg xmlns="http://www.w3.org/2000/svg" xmlns:xlink="http://www.w3.org/1999/xlink" viewBox="0 0 505.06 437.08"><defs><clipPath id="a"><rect x="75.75" y="241.81" width="94.5" height="125.99" transform="translate(427.8 181.81) rotate(90)" style="fill:#fff;stroke:#00aeef;stroke-linecap:round;stroke-linejoin:round;stroke-width:4px"/></clipPath><clipPath id="b"><rect x="245.14" y="193.32" width="28.82" height="24.84" style="fill:none"/></clipPath><clipPath id="c"><rect x="75.75" y="44.25" width="94.5" height="125.99" transform="translate(230.24 -15.75) rotate(90)" style="fill:#fff;stroke:#00aeef;stroke-linecap:round;stroke-linejoin:round;stroke-width:4px"/></clipPath><clipPath id="d"><rect x="245.14" y="90.25" width="28.82" height="24.84" style="fill:none"/></clipPath><clipPath id="e"><rect x="292.55" y="44.25" width="94.5" height="125.99" transform="translate(447.04 -232.55) rotate(90)" style="fill:#fff;stroke:#00aeef;stroke-linecap:round;stroke-linejoin:round;stroke-width:4px"/></clipPath><clipPath id="f"><rect x="335.94" y="90.25" width="28.82" height="24.84" style="fill:none"/></clipPath><clipPath id="g"><rect x="289.6" y="245.35" width="94.5" height="125.99" transform="translate(645.2 -28.5) rotate(90)" style="fill:#fff;stroke:#00aeef;stroke-linecap:round;stroke-linejoin:round;stroke-width:4px"/></clipPath><clipPath id="h"><rect x="333" y="196.86" width="28.82" height="24.84" style="fill:none"/></clipPath></defs><title>inst</title><rect x="75.75" y="241.81" width="94.5" height="125.99" transform="translate(427.8 181.81) rotate(90)" style="fill:#fff"/><g style="clip-path:url(#a)"><path d="M206.89,264l0.19-.14c0.47-.28.52-0.71,0-0.95a5.37,5.37,0,0,0-1.52,0,1.78,1.78,0,0,0-.47,0h0a0.51,0.51,0,0,0,0-.52,0.58,0.58,0,0,0-.85-0.24,0.5,0.5,0,0,0-.57-0.09h0a0.78,0.78,0,0,0-.57-0.09,52.42,52.42,0,0,1-8.44,4.31,8.29,8.29,0,0,0,.85-1.37,11.41,11.41,0,0,0,2.28-6.59c0.62-4-.81-8.15-2.8-11.71-0.24-.38-1.9-0.24-2.09-0.19h0a3.92,3.92,0,0,0-.33-0.62,0.77,0.77,0,0,0-1-.19,0.58,0.58,0,0,0-.62,0,0.57,0.57,0,0,0-.66,0l-0.62.62a0.28,0.28,0,0,0-.19,0c-5.55,5.45-11.09,11-17.06,16-0.43.33-.81,0.66-1.23,0.95q0.57-1.85,1-3.7c0.9-3.7,1.66-7.35,2.65-11a0.66,0.66,0,0,0-.57-0.71l0.19-.62c0.19-.76-1.8-0.76-2.42-0.76a0.6,0.6,0,0,0-.52-0.66h-0.28a0.29,0.29,0,0,0-.28-0.14H170.3a7.08,7.08,0,0,0-3.13.76,0.59,0.59,0,0,1,.09.14l-0.43.19,0.28,0.47s0,0,0,.09a0.64,0.64,0,0,0-.24.43c-0.19.09-.38,0.14-0.62,0.24s0,0.09.09,0.09l-0.33.14a0.63,0.63,0,0,1,.43.14,0.36,0.36,0,0,0,0,.24l-0.33.14a1.18,1.18,0,0,0,.66.28v0h0a0.51,0.51,0,0,0-.24.71v0a0.66,0.66,0,0,0,.81.19,1.67,1.67,0,0,0,.85,1c-0.62,2.56-1.18,5.12-1.8,7.73-0.19.85-.43,1.75-0.66,2.61-0.19.52-.33,1.09-0.52,1.61a22.9,22.9,0,0,1-2.28,4.88,0.59,0.59,0,0,0,.14.09c-0.14.24-.24,0.43-0.38,0.66h0.24c-0.14.24-.24,0.43-0.33,0.62a0.36,0.36,0,0,0,.28.14c0,0.14-.14.24-0.19,0.38s0.19,0.28.52,0.33v0c-0.33.62,0.19,0.81,0.66,0.76a0.17,0.17,0,0,0,.14,0,1.46,1.46,0,0,0,1,1l0.38-.14a1,1,0,0,0,.85.43c0.85-.28,1.71-0.52,2.46-0.85a19,19,0,0,0,2.18-1.14c0.19-.09.38-0.19,0.62-0.28a37.1,37.1,0,0,0,3.18-2.13q1.07-.78,2.13-1.71v0.19c-0.09,0-.19,0-0.14.09l0.14,0.28v0c-0.38-.14-0.76-0.19-0.62.19l0.14,0.24a0.31,0.31,0,0,0-.09.47,6,6,0,0,0,.71,1.18,5.42,5.42,0,0,0,1.47,1.94,4.09,4.09,0,0,0,.76.47c0.14,0.14.28,0.33,0.43,0.47a4.51,4.51,0,0,0,1.33.95c2.13,1.18,4.74,1.14,7.11,1,0.71,0,1.47-.09,2.18-0.19a16.93,16.93,0,0,0,2.65-.33,14.33,14.33,0,0,0,2.37-.9l1.61-.71a49,49,0,0,0,9-5,0.46,0.46,0,0,0,.28-0.43l1.18-.71c0.66-.38-0.24-0.85-0.66-1m-29,1,0.09,0,0.09,0.14a0.69,0.69,0,0,1-.19-0.09m14.22-6.26a12,12,0,0,1-2.28,4.27,4.09,4.09,0,0,1-.62.66,12.25,12.25,0,0,1-4.88,1.71,19,19,0,0,1-2.37.38,1,1,0,0,0-.19-0.28,2.69,2.69,0,0,0-2-.43,1.86,1.86,0,0,1-.38-0.47,0.55,0.55,0,0,0-.66-0.09,0.37,0.37,0,0,0-.38-0.09s0,0-.09,0l2.28-2c3.7-3.27,7.3-6.73,10.81-10.19a13.66,13.66,0,0,1,.71,3.41,11.21,11.21,0,0,1,0,3.08" style="fill:#00a6e9"/><path d="M171.2,239.1l-0.09.47c0,0.14.19,0.19,0.43,0.24V240a0.64,0.64,0,0,0,.52.81,0.58,0.58,0,0,0,.28,0,0.23,0.23,0,0,0,.19,0,5.32,5.32,0,0,0,.76,1c0.24,0.24.76,0.66,0.95,0.09v0c0.38,0.28.9,0.66,1,0l0.09-.38a0.43,0.43,0,0,0,.57-0.43l0.19-.95a0.62,0.62,0,0,0,.76-0.33l0.47-2.42v-0.14l0.24-1.14c0.14-.76-2-0.57-2.23-0.52h-0.19s-0.09-.14-0.14-0.19v0c0.19-.62-0.52-0.71-1.14-0.57a0.82,0.82,0,0,0-.57-0.09c-0.24-.19-0.43-0.24-0.47,0l-0.09.43c-0.14-.09-0.28-0.14-0.33,0v0.14a0.41,0.41,0,0,0-.28-0.14,0.39,0.39,0,0,1,.28.19v0.19l-0.09.09a0.74,0.74,0,0,0-.28.38,0.28,0.28,0,0,0-.24.09l-0.09.47a0.1,0.1,0,0,0-.09.09L171.2,239a0.59,0.59,0,0,0,.14.09" style="fill:#00a6e9"/><rect x="162.76" y="234.6" width="45.03" height="38.72" style="fill:none"/><rect x="162.76" y="234.6" width="45.03" height="38.72" style="fill:none"/><path d="M130.91,185.68c-0.33.28-.62,0.62-0.95,0.9a0.37,0.37,0,0,0-.38-0.09c-0.43-.95-1.14-0.43-1.66.33a0.91,0.91,0,0,0-.47.14,0.9,0.9,0,0,0-.24.47,0.71,0.71,0,0,0-.52.85,0.09,0.09,0,0,0,0,.09l0.14,0.28a0.41,0.41,0,0,0-.14.28,0.56,0.56,0,0,0-.33.38c2.28,5.88,4.31,11.66,5.21,18,0.09,0.62.24,1.42,0.33,2.23-1.33-.62-2.61-1.18-3.84-1.85-2.28-1.18-4.41-2.46-6.59-3.7a69.69,69.69,0,0,0-6.54-3.22c-0.47-.19-1.9.81-2.84,1.8l-0.62-.28a0.72,0.72,0,0,0-.81.57c-0.43,0-.71.33-0.24,0.66a2.7,2.7,0,0,1-.62,0l0.43,0.24a0.51,0.51,0,0,0,.09.43,1.26,1.26,0,0,1-.57-0.14l0.52,0.33c0,0.09,0,.19,0,0.28a0.78,0.78,0,0,0,.24.71v0a0.82,0.82,0,0,0-.19.62L111,206.3a0,0,0,0,0,0,0l0.09,0a1.53,1.53,0,0,1-.38.33,144.07,144.07,0,0,0,17.35,9.62c1.33,0.62,2.46,1.42,3.65,1.42a8.11,8.11,0,0,0,1.42.43,1.1,1.1,0,0,0,1-.28,0.72,0.72,0,0,0,.19-0.19h0a3.92,3.92,0,0,0,1.66.24,1.64,1.64,0,0,0,1.18-.76,1.87,1.87,0,0,0,1.42-.62,7.76,7.76,0,0,0,.85-3,17.15,17.15,0,0,0,0-2.7,26.81,26.81,0,0,0-.28-3.89,22.15,22.15,0,0,0-.62-3.08,86.58,86.58,0,0,0-5.12-17.21,0.52,0.52,0,0,0-.62-0.28l-0.33-.85c-0.33-1.09-1.18-.33-1.71.09" style="fill:#00a6e9"/><rect x="114.27" y="190.09" width="30.47" height="29.53" transform="translate(-103.01 136.47) rotate(-41.31)" style="fill:none"/><rect x="114.27" y="190.09" width="30.47" height="29.53" transform="translate(-103.01 136.47) rotate(-41.31)" style="fill:none"/><path d="M243.19,281.95a2,2,0,0,0-1.18.76c-0.43.43-.85,0.9-1.23,1.33h-0.24a0.64,0.64,0,0,0-.9-0.14l-0.52.71a0.5,0.5,0,0,0-.24.09l-0.43.57s-0.09,0-.14.09q-6.75,8.74-13.37,17.54c-0.09.14,0.09,0.24,0.38,0.28l-0.28.38s0,0.14.14,0.19l-0.33.43a1,1,0,0,1,.62-0.24v0a1.06,1.06,0,0,0,.28.81,1.24,1.24,0,0,1-.24.43l0.33-.38,0.09,0.09a0.6,0.6,0,0,0,0,.28c0,0.14,0,.33.24,0.09l0-.09v0l-0.24.33c-0.14.19,0,.24,0.14,0.14a1.26,1.26,0,0,0,.28-0.24,0.41,0.41,0,0,0,.28.14l0,0c-0.14.19-.28,0.43,0,0.52a0.73,0.73,0,0,0,.52-0.33s0,0.14.09,0.19a0.89,0.89,0,0,0,1.18.19l0.47-.52h0c0.85,0.19,2,.38,2.37-0.09,1.61-1.75,3.13-3.55,4.69-5.36,4.79,4.08,9.53,8.2,14.12,12.47a0.21,0.21,0,0,0,.24,0l0.43,0.38a0.65,0.65,0,0,0,.85-0.09,1.28,1.28,0,0,0,1.42.33,0.74,0.74,0,0,0,.28-0.38h0.19a0.74,0.74,0,0,0,.38-0.28c0.38,0,.76,0,1.09.09a1.64,1.64,0,0,0,1.33-.19,0.48,0.48,0,0,0,.09-0.71l-0.33-.28c0.52-.19.95-0.47,0.43-0.9l-0.43-.38c0.33-.24.52-0.57,0.09-0.9l-0.95-.85c0.43-.38.66-0.81,0.38-1l-1-.95a0.39,0.39,0,0,0-.19-0.28c-4.41-4.08-8.91-8.1-13.51-11.94,1.52-1.94,3-3.93,4.46-5.92a0.55,0.55,0,0,0,0-.85l0.28-.38c0.38-.52,0-0.76-0.47-0.9l0.33-.43c0.76-.95-1.47-0.76-1.56-0.76h-0.09l0.81-1c0.52-.66.09-1.18-0.66-1-0.24.09-.43,0.24-0.66,0.33,0.33-.47.85-1.47-0.09-1.52" style="fill:#00a6e9"/><rect x="230.34" y="286.43" width="29.58" height="30.95" transform="translate(-143.59 313.26) rotate(-52.6)" style="fill:none"/><rect x="230.34" y="286.43" width="29.58" height="30.95" transform="translate(-143.59 313.26) rotate(-52.6)" style="fill:none"/><path d="M272.25,241c-0.52-3.18-1.8-6.3-4.31-8.29a11.84,11.84,0,0,0-2.75-2,10.58,10.58,0,0,0-5.36-2.37h-0.66a7.11,7.11,0,0,0-4,.14,9.38,9.38,0,0,0-4.41,3.37,2.72,2.72,0,0,0-.38,2l-0.43.47a0.54,0.54,0,0,0-.38.33c-0.19.28-.33,0.62-0.52,0.9-0.14-.33-0.43-0.62-0.81-0.28a3.54,3.54,0,0,0-1.28,1.23,12.16,12.16,0,0,0-.95,2.89,7.51,7.51,0,0,0-.9,2.09,7.69,7.69,0,0,0-.38,2.32c0,0.28,0,.52-0.09.81a5,5,0,0,0,0,1.18,9.34,9.34,0,0,0,.52,3.41,11.19,11.19,0,0,0,1.85,3.27,8.08,8.08,0,0,0,1.09,1.42,15.86,15.86,0,0,0,8.06,4.27,9.79,9.79,0,0,0,4.22.24l0.19,0a2.31,2.31,0,0,0,.57,0,14.87,14.87,0,0,0,7.35-4,11.28,11.28,0,0,0,1.85-2.84,2.63,2.63,0,0,1,.28-0.38,11,11,0,0,0,1.61-5.17A12.77,12.77,0,0,0,272.25,241Zm-6.07,6.07a11,11,0,0,1-2.18,2.28,9.32,9.32,0,0,1-6,1.85,11.15,11.15,0,0,1-2.46-.66l-0.95-.43-0.28-.19a11.18,11.18,0,0,1-2.51-3.41c-0.14-.33-0.24-0.66-0.38-1v-0.62a29.91,29.91,0,0,1,1-6.16,0.31,0.31,0,0,0,.28,0,4.27,4.27,0,0,1,.43-0.47,1.49,1.49,0,0,0,1.09-.24,9.45,9.45,0,0,1,1.9-2l2-.66h0.14a3.7,3.7,0,0,1,1,.14,10.8,10.8,0,0,1,3.6,2.18,8.9,8.9,0,0,1,1.14,1.18,14.27,14.27,0,0,1,2.23,4.88c0.14,0.47.19,1,.28,1.47A12.25,12.25,0,0,1,266.18,247.11Z" style="fill:#00a6e9"/><rect x="244.71" y="228.11" width="27.77" height="30.38" style="fill:none"/><rect x="244.71" y="228.11" width="27.77" height="30.38" style="fill:none"/><rect x="96.31" y="222.46" width="30.57" height="33.41" style="fill:none"/><path d="M125.65,263.61c-0.09.28-.19,0.52-0.28,0.81l-0.19-.76c-0.24-.9-1.09-0.57-1.33.09a6.82,6.82,0,0,0,0,2.94h0l-0.09,0c-0.38-.19-1.28.09-1.18,0.66l0.14,0.66a0.76,0.76,0,0,0-.24.52l0.09,0.38a0.92,0.92,0,0,0-.14.62,37.19,37.19,0,0,1,1.37,7.2c0,0.43,0,.85,0,1.28a4.42,4.42,0,0,1-2.32,1.33,17.34,17.34,0,0,1-3.13.19,85.47,85.47,0,0,0-13,0l-4.36-.09a1.29,1.29,0,0,0-1,.66l-0.85.14c-1,.09-1,1.52-1,2.28,0,0.19-.09.62-0.09,1a0.86,0.86,0,0,0-.81.66v0.28a0.65,0.65,0,0,0-.14.19,0.47,0.47,0,0,0,.33.66h0a0.93,0.93,0,0,0-.33.47h0.52a0.2,0.2,0,0,0,.19.14h0a2.45,2.45,0,0,0-.28.33h0.66a0.82,0.82,0,0,0,.52.28,1.2,1.2,0,0,1-.38.62h1.23a0.44,0.44,0,0,0,0,.33c6.78,0.14,13.56.43,20.33,0.38,0.57,0,1.14,0,1.71,0a6.36,6.36,0,0,0,1.66-.19,6,6,0,0,0,2.42-1.14,4.34,4.34,0,0,0,1.66-1.14,4.84,4.84,0,0,0,1.14-1.9l0,0a7.11,7.11,0,0,0,1.52-4c1.14-3.93-.33-8.72-1.28-12.47l-0.14-.28-0.28-1c-0.19-.62-0.66-0.47-1-0.19-0.09-.47-0.24-0.95-0.33-1.47-0.19-.81-0.81-1-1.28-0.28" style="fill:#00a6e9"/><rect x="96.97" y="263.08" width="33.51" height="24.6" style="fill:none"/><rect x="96.97" y="263.08" width="33.51" height="24.6" style="fill:none"/><path d="M245.42,267.54c-0.95-.19-1.09,1.94-1.18,2.37,0,0.19-.14.62-0.24,1a0.81,0.81,0,0,0-.81.85l-0.14.14a0.57,0.57,0,0,0,.14.66c-0.19.19-.33,0.33-0.19,0.33l0.47,0.09a0.25,0.25,0,0,0,.09.14c-0.14.09-.24,0.19-0.19,0.19l0.62,0.09a0.65,0.65,0,0,0,.47.38,2.82,2.82,0,0,1-.14.52l0.81,0.14c0,0.09,0,.14,0,0.14,7.35,1.37,14.69,2.89,22.09,3.79a0.17,0.17,0,0,0,.14,0l0.62,0.09a0.68,0.68,0,0,0,.38-0.52h0.19a0.65,0.65,0,0,0,.85-0.43,0.52,0.52,0,0,0,0-.38h0a0.23,0.23,0,0,0,0-.19,3.5,3.5,0,0,0,1.18-.81,0.72,0.72,0,0,0,0-.81l0,0c0.24-.24,1.18-1.33.24-1.47l-0.28,0c0.24-.43.33-0.95-0.33-1l-1.09-.14c0.09-.52.09-1-0.28-1l-1.28-.14a0.48,0.48,0,0,0-.33-0.19c-7.39-.95-14.65-2.51-21.9-3.74" style="fill:#00a6e9"/><rect x="252.95" y="258.9" width="8.53" height="28.34" transform="translate(-41.97 499.37) rotate(-83.82)" style="fill:none"/><rect x="252.95" y="258.9" width="8.53" height="28.34" transform="translate(-41.97 499.37) rotate(-83.82)" style="fill:none"/><path d="M218.69,332.57h0c0.19-.09.43-0.14,0.62-0.24,0.76-.33.71-0.95,0-1.23a12.17,12.17,0,0,0-2.28,0,1.31,1.31,0,0,0-.43,0,0.5,0.5,0,0,0-.14-0.19,0.7,0.7,0,0,0,0-.62,0.83,0.83,0,0,0-1.23-.24,0.72,0.72,0,0,0-.76-0.14l-0.09,0a0.6,0.6,0,0,0-.62-0.09,15.78,15.78,0,0,1-5.88,1.28H207.5L206.7,331a9.48,9.48,0,0,1-1.94-1.71,4.89,4.89,0,0,1-1.33-2.42,8.54,8.54,0,0,1-1.09-4,15.36,15.36,0,0,1,.09-2.09,9.6,9.6,0,0,1,.43-1.56,8.73,8.73,0,0,1,.43-1.18l0.52-.66a7.54,7.54,0,0,1,1.14-.95,12,12,0,0,1,3-1.47,40.76,40.76,0,0,1,4.17-.9,32.06,32.06,0,0,1,4.27-.09c0.66,0,.62-0.47.43-0.95h0.52c1.23,0-.28-1.66-0.38-1.71l-0.14-.14a13.32,13.32,0,0,1,1.37,0c0.85,0,.95-0.71.38-1.18-0.19-.09-0.38-0.19-0.62-0.28a0.91,0.91,0,0,0,1-.66c0-1-2.13-.9-2.61-0.95l-0.95,0a0.76,0.76,0,0,0-.66-0.85h-0.57l-0.28-.14h-1c-4.6-.19-9.72.47-13.18,3.79a10.92,10.92,0,0,0-3.08,3.51,20.52,20.52,0,0,0-2.09,9.24,13.38,13.38,0,0,0,1.56,6A8.18,8.18,0,0,0,197,331a9.56,9.56,0,0,0,4.17,3.93,10.62,10.62,0,0,0,3.89,1.9c0.47,0.09.95,0.19,1.42,0.24A20.11,20.11,0,0,0,218,335.65c0.76-.33.28-0.95-0.19-1.33,0.52-.19,1-0.38,1.52-0.62,0.85-.38-0.43-1.09-0.71-1.18" style="fill:#00a6e9"/><rect x="194.61" y="307.07" width="25.12" height="30.38" style="fill:none"/><rect x="194.61" y="307.07" width="25.12" height="30.38" style="fill:none"/><path d="M158.64,181.51c3.32-.38,14-2.51,14-2.51s1-3.32.52-3.6a4.81,4.81,0,0,0-2.56-.43,0.75,0.75,0,0,0-.71-0.81l-0.38,0a0.59,0.59,0,0,0-.38-0.19l-0.52,0a0.23,0.23,0,0,0-.19,0L155,175.16a0.7,0.7,0,0,1,.24.33l-0.62,0a0.59,0.59,0,0,0-.38-0.28,0.82,0.82,0,0,0-.57.09,0.18,0.18,0,0,0-.09-0.09c-0.19-.09-0.38-0.14-0.43.14a1.46,1.46,0,0,1,0,.47h0a0.3,0.3,0,0,0-.14-0.24c-0.28-.09-0.33.14-0.33,0.43h0a1,1,0,0,1-.19-0.62c0,0.28,0,.52,0,0.81a1.25,1.25,0,0,0-.33.71l-0.09.09a0.68,0.68,0,0,0-.62.24v0.28l-0.28,0q-0.85,12.23-2,24.31a0.25,0.25,0,0,0,.09.14c0,0.24,0,.43,0,0.66a0.6,0.6,0,0,0,.62.43v0.28a0.14,0.14,0,0,0,0,.19,1.07,1.07,0,0,0,.47.71v0.14c0.09,0.52.38,0.57,0.85,0.52h0.28c0.28,0.62.71,1.33,1.23,1.28h0.14a0.51,0.51,0,0,0,.52,0,1.67,1.67,0,0,0,.9.47c5.4-.14,15.69-1.09,15.69-1.09a2.68,2.68,0,0,0,.14-1.23l0.47,0c1-.14,1.47-3,0.9-3.27s-8-.76-14.12-0.85q0.5-3.06.71-6.11l5.88-.52a0.6,0.6,0,0,0,.66-0.52,1.94,1.94,0,0,0,.52,0c0.62,0,.47-0.81.47-0.81l0.52,0c1.09-.09,1.66-3.46,1.09-3.7s-5.36-.62-8.86-0.9v-1.47c0.09-1.52.19-3,.33-4.5" style="fill:#00a6e9"/><rect x="149.2" y="174.03" width="24.08" height="32.66" style="fill:none"/><rect x="149.2" y="174.03" width="24.08" height="32.66" style="fill:none"/><g style="clip-path:url(#b)"><path d="M269.12,193.32c-7.39.09-14.79,0.09-22.13,0.09-0.95,0-.71,2.18-0.71,2.61v0.19a1.26,1.26,0,0,0-.28.24,0.69,0.69,0,0,0-.76.62,0.6,0.6,0,0,0,0,.28,1.47,1.47,0,0,0,.09.38,0.26,0.26,0,0,0-.14.24,1,1,0,0,0,.09.52c-0.19.33-.24,0.66,0.24,0.66h0.28v0.09c-0.14.19-.19,0.38,0,0.38H246a1.19,1.19,0,0,1-.19.43h0.47a0.36,0.36,0,0,0,.19.09,0.32,0.32,0,0,1-.14.19h1q0,0.28.14,0.28c5,0,10,0,15-.09-1.71,1.42-3.41,2.8-5.17,4.08a49.2,49.2,0,0,1-8.25,4.79,1.67,1.67,0,0,0-.38,1.23V211l-1.71,0c-0.95,0-.85,2.09-0.9,2.56,0,0.14,0,.52-0.09.9a0.69,0.69,0,0,0-.71.66v0.28a0.25,0.25,0,0,0-.09.14,0.68,0.68,0,0,0,.19.71c-0.14.14-.24,0.28-0.14,0.28h0.43s0,0.09,0,.14-0.28.24-.14,0.24h0.47a1.55,1.55,0,0,0,.71.52h0l0.09,0a0.48,0.48,0,0,0,.19.28h0.43c0,0.19,0,.28.09,0.28q11.23,0.5,22.47.14a0.17,0.17,0,0,0,.09,0h0.62a0.5,0.5,0,0,0,.33-0.52h0a0.9,0.9,0,0,0,1-.62v-0.33l0.14-.14a0.6,0.6,0,0,0,0-.28l0.09,0a9.54,9.54,0,0,0,1.37-1c0.33-.52.09-0.81-0.33-0.9,0.33-.47.66-1.18-0.09-1.14H273c0.09-.38,0-0.71-0.47-0.71l-1.14,0c0.09-.57,0-1-0.38-1l-1.18,0a0.5,0.5,0,0,0-.43-0.24c-3.18.09-6.3,0.14-9.48,0.09,4-2.84,7.63-6.16,11.38-9.29a0.56,0.56,0,0,0,0-.62,0.36,0.36,0,0,0,.09-0.19l0.81-.66c0.38-.33.81-0.9,0.28-1.28a1.63,1.63,0,0,0,.57-1,0.43,0.43,0,0,0-.14-0.33,0.8,0.8,0,0,0-.14-0.47l0.09-.14c0.24-.28.76-1.33-0.09-1.37h0c0.24-.52.47-1.33-0.33-1.28h-1c0-.52,0-1-0.47-1h-1.23a0.6,0.6,0,0,0-.43-0.19" style="fill:#00a6e9"/></g><rect x="245.14" y="193.32" width="28.82" height="24.84" style="fill:none"/><path d="M185.27,318.68c-0.09-1-.14-2-0.24-3a14.33,14.33,0,0,0-1.28-4.83c-1.14-2-3-2.8-5.12-3.13a5.57,5.57,0,0,0-2.7-1,6.4,6.4,0,0,0-1.33-.19c-3-.47-6.45,1.18-8.82,3.32a11.7,11.7,0,0,0-3.7,4.22,7.44,7.44,0,0,0-.81,2.51,7.33,7.33,0,0,0-.33,1.09,14.68,14.68,0,0,0-.24,4.31,1.31,1.31,0,0,0,0,.43,0.77,0.77,0,0,1,0,.33c0.47,5,1,10,1.56,15a0.94,0.94,0,0,0,.47,0c0,0.28,0,.62.09,0.9s0.33,0.19.62,0.14a0.68,0.68,0,0,0,.33.09,0.81,0.81,0,0,0,1.28.62c0.47,0.24,1,.28,1.18-0.19,0.52,0.14.9,0,.9-0.57V338.3c1.18,0.14,2.28,0,2.23-.33-0.19-1.52-.33-3-0.47-4.5-0.09-1-.14-2-0.24-3,3.32-.09,6.59-0.33,9.91-0.62,0,2.23.14,4.46,0.19,6.68a0.75,0.75,0,0,0,.62.47v0.24a0.81,0.81,0,0,0,.71.76,0.68,0.68,0,0,0,.33-0.09s0.09,0,.14,0h0.14a2.54,2.54,0,0,0,.76,1,0.8,0.8,0,0,0,.9-0.14l0,0c0.28,0.19,1.14.62,1.18-.14v-0.19c0.47,0.19,1,.28,1-0.43v-1c0.85,0.09,1.47,0,1.47-.28C185.84,330.81,186,324.65,185.27,318.68Zm-17,6.3c-0.09-1.28-.19-2.61-0.24-3.89a14.31,14.31,0,0,1,.14-2.84,5.41,5.41,0,0,1,.43-1.23,3.26,3.26,0,0,1,.52-0.62h0a14.54,14.54,0,0,1,3.18-2.18c0.33-.09.62-0.14,0.95-0.24l3.55-.24a2.31,2.31,0,0,1,.33.14,12.43,12.43,0,0,1,.66,3c0.28,2.13.43,4.27,0.57,6.4Q173.35,324.2,168.31,325Z" style="fill:#00a6e9"/><rect x="160.58" y="306.41" width="25.4" height="33.23" style="fill:none"/><rect x="160.58" y="306.41" width="25.4" height="33.23" style="fill:none"/><path d="M125.32,236.89c-0.52-3.18-1.8-6.3-4.31-8.29a11.84,11.84,0,0,0-2.75-2,10.58,10.58,0,0,0-5.36-2.37h-0.66a7.11,7.11,0,0,0-4,.14,9.38,9.38,0,0,0-4.41,3.37,2.72,2.72,0,0,0-.38,2l-0.43.47a0.54,0.54,0,0,0-.38.33c-0.19.28-.33,0.62-0.52,0.9-0.14-.33-0.43-0.62-0.81-0.28a3.54,3.54,0,0,0-1.28,1.23,12.16,12.16,0,0,0-.95,2.89,7.51,7.51,0,0,0-.9,2.09,7.69,7.69,0,0,0-.38,2.32c0,0.28,0,.52-0.09.81a5,5,0,0,0,0,1.18,9.34,9.34,0,0,0,.52,3.41,11.19,11.19,0,0,0,1.85,3.27,8.08,8.08,0,0,0,1.09,1.42A15.86,15.86,0,0,0,109.2,254a9.79,9.79,0,0,0,4.22.24l0.19,0a2.31,2.31,0,0,0,.57,0,10.2,10.2,0,0,0,4.74-1.94,10.11,10.11,0,0,0,2.61-2.09,11.28,11.28,0,0,0,1.85-2.84,2.63,2.63,0,0,1,.28-0.38,11,11,0,0,0,1.61-5.17A12.77,12.77,0,0,0,125.32,236.89ZM119.25,243a11,11,0,0,1-2.18,2.28,9.32,9.32,0,0,1-6,1.85,11.15,11.15,0,0,1-2.46-.66l-0.95-.43-0.28-.19a11.18,11.18,0,0,1-2.51-3.41c-0.14-.33-0.24-0.66-0.38-1v-0.62a29.91,29.91,0,0,1,1-6.16,0.31,0.31,0,0,0,.28,0,4.27,4.27,0,0,1,.43-0.47,1.49,1.49,0,0,0,1.09-.24,9.45,9.45,0,0,1,1.9-2l2-.66h0.14a3.7,3.7,0,0,1,1,.14,10.8,10.8,0,0,1,3.6,2.18,8.9,8.9,0,0,1,1.14,1.18,14.27,14.27,0,0,1,2.23,4.88c0.14,0.47.19,1,.28,1.47A12.25,12.25,0,0,1,119.25,243Z" style="fill:#00a6e9"/></g><rect x="75.75" y="241.81" width="94.5" height="125.99" transform="translate(427.8 181.81) rotate(90)" style="fill:none;stroke:#00aeef;stroke-linecap:round;stroke-linejoin:round;stroke-width:4px"/><rect x="75.75" y="44.25" width="94.5" height="125.99" transform="translate(230.24 -15.75) rotate(90)" style="fill:#fff"/><g style="clip-path:url(#c)"><path d="M206.89,160.92l0.19-.14c0.47-.28.52-0.71,0-0.95a5.37,5.37,0,0,0-1.52,0,1.78,1.78,0,0,0-.47,0h0a0.51,0.51,0,0,0,0-.52,0.58,0.58,0,0,0-.85-0.24,0.5,0.5,0,0,0-.57-0.09h0a0.78,0.78,0,0,0-.57-0.09,52.42,52.42,0,0,1-8.44,4.31,8.29,8.29,0,0,0,.85-1.37,11.41,11.41,0,0,0,2.28-6.59c0.62-4-.81-8.15-2.8-11.71-0.24-.38-1.9-0.24-2.09-0.19h0a3.92,3.92,0,0,0-.33-0.62,0.77,0.77,0,0,0-1-.19,0.58,0.58,0,0,0-.62,0,0.57,0.57,0,0,0-.66,0l-0.62.62a0.28,0.28,0,0,0-.19,0c-5.55,5.45-11.09,11-17.06,16-0.43.33-.81,0.66-1.23,0.95q0.57-1.85,1-3.7c0.9-3.7,1.66-7.35,2.65-11a0.66,0.66,0,0,0-.57-0.71l0.19-.62c0.19-.76-1.8-0.76-2.42-0.76a0.6,0.6,0,0,0-.52-0.66h-0.28a0.29,0.29,0,0,0-.28-0.14H170.3a7.08,7.08,0,0,0-3.13.76,0.59,0.59,0,0,1,.09.14l-0.43.19,0.28,0.47s0,0,0,.09a0.64,0.64,0,0,0-.24.43c-0.19.09-.38,0.14-0.62,0.24s0,0.09.09,0.09l-0.33.14a0.63,0.63,0,0,1,.43.14,0.36,0.36,0,0,0,0,.24l-0.33.14a1.18,1.18,0,0,0,.66.28v0h0a0.51,0.51,0,0,0-.24.71v0a0.66,0.66,0,0,0,.81.19,1.67,1.67,0,0,0,.85,1c-0.62,2.56-1.18,5.12-1.8,7.73-0.19.85-.43,1.75-0.66,2.61-0.19.52-.33,1.09-0.52,1.61a22.9,22.9,0,0,1-2.28,4.88,0.59,0.59,0,0,0,.14.09c-0.14.24-.24,0.43-0.38,0.66h0.24c-0.14.24-.24,0.43-0.33,0.62a0.36,0.36,0,0,0,.28.14c0,0.14-.14.24-0.19,0.38s0.19,0.28.52,0.33v0c-0.33.62,0.19,0.81,0.66,0.76a0.17,0.17,0,0,0,.14,0,1.46,1.46,0,0,0,1,1l0.38-.14a1,1,0,0,0,.85.43c0.85-.28,1.71-0.52,2.46-0.85a19,19,0,0,0,2.18-1.14c0.19-.09.38-0.19,0.62-0.28a37.1,37.1,0,0,0,3.18-2.13q1.07-.78,2.13-1.71v0.19c-0.09,0-.19,0-0.14.09l0.14,0.28v0c-0.38-.14-0.76-0.19-0.62.19l0.14,0.24a0.31,0.31,0,0,0-.09.47,6,6,0,0,0,.71,1.18,5.42,5.42,0,0,0,1.47,1.94,4.09,4.09,0,0,0,.76.47c0.14,0.14.28,0.33,0.43,0.47a4.51,4.51,0,0,0,1.33.95c2.13,1.18,4.74,1.14,7.11,1,0.71,0,1.47-.09,2.18-0.19a16.93,16.93,0,0,0,2.65-.33,14.33,14.33,0,0,0,2.37-.9l1.61-.71a49,49,0,0,0,9-5,0.46,0.46,0,0,0,.28-0.43l1.18-.71c0.66-.38-0.24-0.85-0.66-1m-29,1,0.09,0,0.09,0.14a0.69,0.69,0,0,1-.19-0.09M191.91,156a12,12,0,0,1-2.28,4.27,4.09,4.09,0,0,1-.62.66,12.25,12.25,0,0,1-4.88,1.71,19,19,0,0,1-2.37.38,1,1,0,0,0-.19-0.28,2.69,2.69,0,0,0-2-.43,1.86,1.86,0,0,1-.38-0.47,0.55,0.55,0,0,0-.66-0.09,0.37,0.37,0,0,0-.38-0.09s0,0-.09,0l2.28-2c3.7-3.27,7.3-6.73,10.81-10.19a13.66,13.66,0,0,1,.71,3.41,11.21,11.21,0,0,1,0,3.08" style="fill:#00a6e9"/><path d="M171.2,136l-0.09.47c0,0.14.19,0.19,0.43,0.24v0.14a0.64,0.64,0,0,0,.52.81,0.58,0.58,0,0,0,.28,0,0.23,0.23,0,0,0,.19,0,5.32,5.32,0,0,0,.76,1c0.24,0.24.76,0.66,0.95,0.09v0c0.38,0.28.9,0.66,1,0l0.09-.38a0.43,0.43,0,0,0,.57-0.43l0.19-.95a0.62,0.62,0,0,0,.76-0.33l0.47-2.42v-0.14l0.24-1.14c0.14-.76-2-0.57-2.23-0.52h-0.19s-0.09-.14-0.14-0.19v0c0.19-.62-0.52-0.71-1.14-0.57a0.82,0.82,0,0,0-.57-0.09c-0.24-.19-0.43-0.24-0.47,0l-0.09.43c-0.14-.09-0.28-0.14-0.33,0v0.14a0.41,0.41,0,0,0-.28-0.14,0.39,0.39,0,0,1,.28.19v0.19l-0.09.09a0.74,0.74,0,0,0-.28.38,0.28,0.28,0,0,0-.24.09l-0.09.47a0.1,0.1,0,0,0-.09.09l-0.43,2.32a0.59,0.59,0,0,0,.14.09" style="fill:#00a6e9"/><rect x="162.76" y="131.54" width="45.03" height="38.72" style="fill:none"/><rect x="162.76" y="131.54" width="45.03" height="38.72" style="fill:none"/><path d="M130.91,82.62c-0.33.28-.62,0.62-0.95,0.9a0.37,0.37,0,0,0-.38-0.09c-0.43-.95-1.14-0.43-1.66.33a0.91,0.91,0,0,0-.47.14,0.9,0.9,0,0,0-.24.47,0.71,0.71,0,0,0-.52.85,0.09,0.09,0,0,0,0,.09l0.14,0.28a0.41,0.41,0,0,0-.14.28,0.56,0.56,0,0,0-.33.38c2.28,5.88,4.31,11.66,5.21,18,0.09,0.62.24,1.42,0.33,2.23-1.33-.62-2.61-1.18-3.84-1.85-2.28-1.18-4.41-2.46-6.59-3.7A69.69,69.69,0,0,0,115,97.7c-0.47-.19-1.9.81-2.84,1.8l-0.62-.28a0.72,0.72,0,0,0-.81.57c-0.43,0-.71.33-0.24,0.66a2.7,2.7,0,0,1-.62,0l0.43,0.24a0.51,0.51,0,0,0,.09.43,1.26,1.26,0,0,1-.57-0.14l0.52,0.33c0,0.09,0,.19,0,0.28a0.78,0.78,0,0,0,.24.71v0a0.82,0.82,0,0,0-.19.62l0.57,0.33a0,0,0,0,0,0,0l0.09,0a1.53,1.53,0,0,1-.38.33,144.07,144.07,0,0,0,17.35,9.62c1.33,0.62,2.46,1.42,3.65,1.42a8.11,8.11,0,0,0,1.42.43,1.1,1.1,0,0,0,1-.28,0.72,0.72,0,0,0,.19-0.19h0a3.92,3.92,0,0,0,1.66.24,1.64,1.64,0,0,0,1.18-.76,1.87,1.87,0,0,0,1.42-.62,7.76,7.76,0,0,0,.85-3,17.15,17.15,0,0,0,0-2.7,26.81,26.81,0,0,0-.28-3.89,22.15,22.15,0,0,0-.62-3.08,86.58,86.58,0,0,0-5.12-17.21,0.52,0.52,0,0,0-.62-0.28l-0.33-.85c-0.33-1.09-1.18-.33-1.71.09" style="fill:#00a6e9"/><rect x="114.27" y="87.03" width="30.47" height="29.53" transform="translate(-34.97 110.83) rotate(-41.31)" style="fill:none"/><rect x="114.27" y="87.03" width="30.47" height="29.53" transform="translate(-34.97 110.83) rotate(-41.31)" style="fill:none"/><path d="M243.19,178.89a2,2,0,0,0-1.18.76c-0.43.43-.85,0.9-1.23,1.33h-0.24a0.64,0.64,0,0,0-.9-0.14l-0.52.71a0.5,0.5,0,0,0-.24.09l-0.43.57s-0.09,0-.14.09q-6.75,8.74-13.37,17.54c-0.09.14,0.09,0.24,0.38,0.28l-0.28.38s0,0.14.14,0.19l-0.33.43a1,1,0,0,1,.62-0.24v0a1.06,1.06,0,0,0,.28.81,1.24,1.24,0,0,1-.24.43l0.33-.38,0.09,0.09a0.6,0.6,0,0,0,0,.28c0,0.14,0,.33.24,0.09l0-.09v0l-0.24.33c-0.14.19,0,.24,0.14,0.14a1.26,1.26,0,0,0,.28-0.24,0.41,0.41,0,0,0,.28.14l0,0c-0.14.19-.28,0.43,0,0.52a0.73,0.73,0,0,0,.52-0.33s0,0.14.09,0.19a0.89,0.89,0,0,0,1.18.19l0.47-.52h0c0.85,0.19,2,.38,2.37-0.09,1.61-1.75,3.13-3.55,4.69-5.36,4.79,4.08,9.53,8.2,14.12,12.47a0.21,0.21,0,0,0,.24,0l0.43,0.38a0.65,0.65,0,0,0,.85-0.09,1.28,1.28,0,0,0,1.42.33,0.74,0.74,0,0,0,.28-0.38h0.19a0.74,0.74,0,0,0,.38-0.28c0.38,0,.76,0,1.09.09a1.64,1.64,0,0,0,1.33-.19,0.48,0.48,0,0,0,.09-0.71L256,208.6c0.52-.19.95-0.47,0.43-0.9l-0.43-.38c0.33-.24.52-0.57,0.09-0.9l-0.95-.85c0.43-.38.66-0.81,0.38-1l-1-.95a0.39,0.39,0,0,0-.19-0.28c-4.41-4.08-8.91-8.1-13.51-11.94,1.52-1.94,3-3.93,4.46-5.92a0.55,0.55,0,0,0,0-.85l0.28-.38c0.38-.52,0-0.76-0.47-0.9l0.33-.43c0.76-.95-1.47-0.76-1.56-0.76h-0.09l0.81-1c0.52-.66.09-1.18-0.66-1-0.24.09-.43,0.24-0.66,0.33,0.33-.47.85-1.47-0.09-1.52" style="fill:#00a6e9"/><rect x="230.34" y="183.36" width="29.58" height="30.95" transform="translate(-61.72 272.8) rotate(-52.6)" style="fill:none"/><rect x="230.34" y="183.36" width="29.58" height="30.95" transform="translate(-61.72 272.8) rotate(-52.6)" style="fill:none"/><path d="M272.25,138c-0.52-3.18-1.8-6.3-4.31-8.29a11.84,11.84,0,0,0-2.75-2,10.58,10.58,0,0,0-5.36-2.37h-0.66a7.11,7.11,0,0,0-4,.14,9.38,9.38,0,0,0-4.41,3.37,2.72,2.72,0,0,0-.38,2l-0.43.47a0.54,0.54,0,0,0-.38.33c-0.19.28-.33,0.62-0.52,0.9-0.14-.33-0.43-0.62-0.81-0.28a3.54,3.54,0,0,0-1.28,1.23,12.16,12.16,0,0,0-.95,2.89,7.51,7.51,0,0,0-.9,2.09,7.69,7.69,0,0,0-.38,2.32c0,0.28,0,.52-0.09.81a5,5,0,0,0,0,1.18,9.34,9.34,0,0,0,.52,3.41,11.19,11.19,0,0,0,1.85,3.27,8.08,8.08,0,0,0,1.09,1.42,15.86,15.86,0,0,0,8.06,4.27,9.79,9.79,0,0,0,4.22.24l0.19,0a2.31,2.31,0,0,0,.57,0,14.87,14.87,0,0,0,7.35-4,11.28,11.28,0,0,0,1.85-2.84,2.63,2.63,0,0,1,.28-0.38,11,11,0,0,0,1.61-5.17A12.77,12.77,0,0,0,272.25,138Zm-6.07,6.07a11,11,0,0,1-2.18,2.28,9.32,9.32,0,0,1-6,1.85,11.15,11.15,0,0,1-2.46-.66l-0.95-.43-0.28-.19a11.18,11.18,0,0,1-2.51-3.41c-0.14-.33-0.24-0.66-0.38-1v-0.62a29.91,29.91,0,0,1,1-6.16,0.31,0.31,0,0,0,.28,0,4.27,4.27,0,0,1,.43-0.47,1.49,1.49,0,0,0,1.09-.24,9.45,9.45,0,0,1,1.9-2l2-.66h0.14a3.7,3.7,0,0,1,1,.14,10.8,10.8,0,0,1,3.6,2.18,8.9,8.9,0,0,1,1.14,1.18,14.27,14.27,0,0,1,2.23,4.88c0.14,0.47.19,1,.28,1.47A12.25,12.25,0,0,1,266.18,144.05Z" style="fill:#00a6e9"/><rect x="244.71" y="125.04" width="27.77" height="30.38" style="fill:none"/><rect x="244.71" y="125.04" width="27.77" height="30.38" style="fill:none"/><rect x="96.31" y="119.4" width="30.57" height="33.41" style="fill:none"/><path d="M125.65,160.54c-0.09.28-.19,0.52-0.28,0.81l-0.19-.76c-0.24-.9-1.09-0.57-1.33.09a6.82,6.82,0,0,0,0,2.94h0l-0.09,0c-0.38-.19-1.28.09-1.18,0.66l0.14,0.66a0.76,0.76,0,0,0-.24.52l0.09,0.38a0.92,0.92,0,0,0-.14.62,37.19,37.19,0,0,1,1.37,7.2c0,0.43,0,.85,0,1.28a4.42,4.42,0,0,1-2.32,1.33,17.34,17.34,0,0,1-3.13.19,85.47,85.47,0,0,0-13,0l-4.36-.09a1.29,1.29,0,0,0-1,.66l-0.85.14c-1,.09-1,1.52-1,2.28,0,0.19-.09.62-0.09,1a0.86,0.86,0,0,0-.81.66v0.28a0.65,0.65,0,0,0-.14.19,0.47,0.47,0,0,0,.33.66h0a0.93,0.93,0,0,0-.33.47h0.52a0.2,0.2,0,0,0,.19.14h0a2.45,2.45,0,0,0-.28.33h0.66a0.82,0.82,0,0,0,.52.28,1.2,1.2,0,0,1-.38.62h1.23a0.44,0.44,0,0,0,0,.33c6.78,0.14,13.56.43,20.33,0.38,0.57,0,1.14,0,1.71,0a6.36,6.36,0,0,0,1.66-.19,6,6,0,0,0,2.42-1.14,4.34,4.34,0,0,0,1.66-1.14,4.84,4.84,0,0,0,1.14-1.9l0,0a7.11,7.11,0,0,0,1.52-4c1.14-3.93-.33-8.72-1.28-12.47l-0.14-.28-0.28-1c-0.19-.62-0.66-0.47-1-0.19-0.09-.47-0.24-0.95-0.33-1.47-0.19-.81-0.81-1-1.28-0.28" style="fill:#00a6e9"/><rect x="96.97" y="160.02" width="33.51" height="24.6" style="fill:none"/><rect x="96.97" y="160.02" width="33.51" height="24.6" style="fill:none"/><path d="M245.42,164.48c-0.95-.19-1.09,1.94-1.18,2.37,0,0.19-.14.62-0.24,1a0.81,0.81,0,0,0-.81.85l-0.14.14a0.57,0.57,0,0,0,.14.66c-0.19.19-.33,0.33-0.19,0.33l0.47,0.09a0.25,0.25,0,0,0,.09.14c-0.14.09-.24,0.19-0.19,0.19L244,170.4a0.65,0.65,0,0,0,.47.38,2.82,2.82,0,0,1-.14.52l0.81,0.14c0,0.09,0,.14,0,0.14,7.35,1.37,14.69,2.89,22.09,3.79a0.17,0.17,0,0,0,.14,0l0.62,0.09a0.68,0.68,0,0,0,.38-0.52h0.19a0.65,0.65,0,0,0,.85-0.43,0.52,0.52,0,0,0,0-.38h0a0.23,0.23,0,0,0,0-.19,3.5,3.5,0,0,0,1.18-.81,0.72,0.72,0,0,0,0-.81l0,0c0.24-.24,1.18-1.33.24-1.47l-0.28,0c0.24-.43.33-0.95-0.33-1l-1.09-.14c0.09-.52.09-1-0.28-1l-1.28-.14a0.48,0.48,0,0,0-.33-0.19c-7.39-.95-14.65-2.51-21.9-3.74" style="fill:#00a6e9"/><rect x="252.95" y="155.83" width="8.53" height="28.34" transform="translate(60.49 407.41) rotate(-83.82)" style="fill:none"/><rect x="252.95" y="155.83" width="8.53" height="28.34" transform="translate(60.49 407.41) rotate(-83.82)" style="fill:none"/><path d="M218.69,229.51h0c0.19-.09.43-0.14,0.62-0.24,0.76-.33.71-0.95,0-1.23a12.17,12.17,0,0,0-2.28,0,1.31,1.31,0,0,0-.43,0,0.5,0.5,0,0,0-.14-0.19,0.7,0.7,0,0,0,0-.62,0.83,0.83,0,0,0-1.23-.24,0.72,0.72,0,0,0-.76-0.14l-0.09,0a0.6,0.6,0,0,0-.62-0.09,15.78,15.78,0,0,1-5.88,1.28H207.5l-0.81-.14a9.48,9.48,0,0,1-1.94-1.71,4.89,4.89,0,0,1-1.33-2.42,8.54,8.54,0,0,1-1.09-4,15.36,15.36,0,0,1,.09-2.09,9.6,9.6,0,0,1,.43-1.56,8.73,8.73,0,0,1,.43-1.18l0.52-.66a7.54,7.54,0,0,1,1.14-.95,12,12,0,0,1,3-1.47,40.76,40.76,0,0,1,4.17-.9,32.06,32.06,0,0,1,4.27-.09c0.66,0,.62-0.47.43-0.95h0.52c1.23,0-.28-1.66-0.38-1.71l-0.14-.14a13.32,13.32,0,0,1,1.37,0c0.85,0,.95-0.71.38-1.18-0.19-.09-0.38-0.19-0.62-0.28a0.91,0.91,0,0,0,1-.66c0-1-2.13-.9-2.61-0.95l-0.95,0a0.76,0.76,0,0,0-.66-0.85h-0.57l-0.28-.14h-1c-4.6-.19-9.72.47-13.18,3.79a10.92,10.92,0,0,0-3.08,3.51,20.52,20.52,0,0,0-2.09,9.24,13.38,13.38,0,0,0,1.56,6,8.18,8.18,0,0,0,.9,1.33,9.56,9.56,0,0,0,4.17,3.93,10.62,10.62,0,0,0,3.89,1.9c0.47,0.09.95,0.19,1.42,0.24A20.11,20.11,0,0,0,218,232.59c0.76-.33.28-0.95-0.19-1.33,0.52-.19,1-0.38,1.52-0.62,0.85-.38-0.43-1.09-0.71-1.18" style="fill:#00a6e9"/><rect x="194.61" y="204.01" width="25.12" height="30.38" style="fill:none"/><rect x="194.61" y="204.01" width="25.12" height="30.38" style="fill:none"/><path d="M158.64,78.45c3.32-.38,14-2.51,14-2.51s1-3.32.52-3.6a4.81,4.81,0,0,0-2.56-.43,0.75,0.75,0,0,0-.71-0.81l-0.38,0a0.59,0.59,0,0,0-.38-0.19l-0.52,0a0.23,0.23,0,0,0-.19,0L155,72.1a0.7,0.7,0,0,1,.24.33l-0.62,0a0.59,0.59,0,0,0-.38-0.28,0.82,0.82,0,0,0-.57.09,0.18,0.18,0,0,0-.09-0.09c-0.19-.09-0.38-0.14-0.43.14a1.46,1.46,0,0,1,0,.47h0a0.3,0.3,0,0,0-.14-0.24c-0.28-.09-0.33.14-0.33,0.43h0a1,1,0,0,1-.19-0.62c0,0.28,0,.52,0,0.81a1.25,1.25,0,0,0-.33.71L152,74a0.68,0.68,0,0,0-.62.24v0.28l-0.28,0q-0.85,12.23-2,24.31a0.25,0.25,0,0,0,.09.14c0,0.24,0,.43,0,0.66a0.6,0.6,0,0,0,.62.43v0.28a0.14,0.14,0,0,0,0,.19,1.07,1.07,0,0,0,.47.71v0.14c0.09,0.52.38,0.57,0.85,0.52h0.28c0.28,0.62.71,1.33,1.23,1.28h0.14a0.51,0.51,0,0,0,.52,0,1.67,1.67,0,0,0,.9.47c5.4-.14,15.69-1.09,15.69-1.09a2.68,2.68,0,0,0,.14-1.23l0.47,0c1-.14,1.47-3,0.9-3.27s-8-.76-14.12-0.85q0.5-3.06.71-6.11l5.88-.52a0.6,0.6,0,0,0,.66-0.52,1.94,1.94,0,0,0,.52,0c0.62,0,.47-0.81.47-0.81l0.52,0c1.09-.09,1.66-3.46,1.09-3.7s-5.36-.62-8.86-0.9V83c0.09-1.52.19-3,.33-4.5" style="fill:#00a6e9"/><rect x="149.2" y="70.96" width="24.08" height="32.66" style="fill:none"/><rect x="149.2" y="70.96" width="24.08" height="32.66" style="fill:none"/><g style="clip-path:url(#d)"><path d="M269.12,90.25c-7.39.09-14.79,0.09-22.13,0.09-0.95,0-.71,2.18-0.71,2.61v0.19a1.26,1.26,0,0,0-.28.24,0.69,0.69,0,0,0-.76.62,0.6,0.6,0,0,0,0,.28,1.47,1.47,0,0,0,.09.38,0.26,0.26,0,0,0-.14.24,1,1,0,0,0,.09.52c-0.19.33-.24,0.66,0.24,0.66h0.28v0.09c-0.14.19-.19,0.38,0,0.38H246a1.19,1.19,0,0,1-.19.43h0.47a0.36,0.36,0,0,0,.19.09,0.32,0.32,0,0,1-.14.19h1q0,0.28.14,0.28c5,0,10,0,15-.09-1.71,1.42-3.41,2.8-5.17,4.08a49.2,49.2,0,0,1-8.25,4.79,1.67,1.67,0,0,0-.38,1.23v0.38l-1.71,0c-0.95,0-.85,2.09-0.9,2.56,0,0.14,0,.52-0.09.9a0.69,0.69,0,0,0-.71.66v0.28a0.25,0.25,0,0,0-.09.14,0.68,0.68,0,0,0,.19.71c-0.14.14-.24,0.28-0.14,0.28h0.43s0,0.09,0,.14-0.28.24-.14,0.24h0.47a1.55,1.55,0,0,0,.71.52h0l0.09,0a0.48,0.48,0,0,0,.19.28h0.43c0,0.19,0,.28.09,0.28q11.23,0.5,22.47.14a0.17,0.17,0,0,0,.09,0h0.62a0.5,0.5,0,0,0,.33-0.52h0a0.9,0.9,0,0,0,1-.62v-0.33l0.14-.14a0.6,0.6,0,0,0,0-.28l0.09,0a9.54,9.54,0,0,0,1.37-1c0.33-.52.09-0.81-0.33-0.9,0.33-.47.66-1.18-0.09-1.14H273c0.09-.38,0-0.71-0.47-0.71l-1.14,0c0.09-.57,0-1-0.38-1l-1.18,0a0.5,0.5,0,0,0-.43-0.24c-3.18.09-6.3,0.14-9.48,0.09,4-2.84,7.63-6.16,11.38-9.29a0.56,0.56,0,0,0,0-.62,0.36,0.36,0,0,0,.09-0.19l0.81-.66c0.38-.33.81-0.9,0.28-1.28a1.63,1.63,0,0,0,.57-1,0.43,0.43,0,0,0-.14-0.33,0.8,0.8,0,0,0-.14-0.47l0.09-.14c0.24-.28.76-1.33-0.09-1.37h0c0.24-.52.47-1.33-0.33-1.28h-1c0-.52,0-1-0.47-1h-1.23a0.6,0.6,0,0,0-.43-0.19" style="fill:#00a6e9"/></g><rect x="245.14" y="90.25" width="28.82" height="24.84" style="fill:none"/><path d="M185.27,215.62c-0.09-1-.14-2-0.24-3a14.33,14.33,0,0,0-1.28-4.83c-1.14-2-3-2.8-5.12-3.13a5.57,5.57,0,0,0-2.7-1,6.4,6.4,0,0,0-1.33-.19c-3-.47-6.45,1.18-8.82,3.32a11.7,11.7,0,0,0-3.7,4.22,7.44,7.44,0,0,0-.81,2.51,7.33,7.33,0,0,0-.33,1.09,14.68,14.68,0,0,0-.24,4.31,1.31,1.31,0,0,0,0,.43,0.77,0.77,0,0,1,0,.33c0.47,5,1,10,1.56,15a0.94,0.94,0,0,0,.47,0c0,0.28,0,.62.09,0.9s0.33,0.19.62,0.14a0.68,0.68,0,0,0,.33.09,0.81,0.81,0,0,0,1.28.62c0.47,0.24,1,.28,1.18-0.19,0.52,0.14.9,0,.9-0.57v-0.47c1.18,0.14,2.28,0,2.23-.33-0.19-1.52-.33-3-0.47-4.5-0.09-1-.14-2-0.24-3,3.32-.09,6.59-0.33,9.91-0.62,0,2.23.14,4.46,0.19,6.68a0.75,0.75,0,0,0,.62.47v0.24a0.81,0.81,0,0,0,.71.76,0.68,0.68,0,0,0,.33-0.09s0.09,0,.14,0h0.14a2.54,2.54,0,0,0,.76,1,0.8,0.8,0,0,0,.9-0.14l0,0c0.28,0.19,1.14.62,1.18-.14v-0.19c0.47,0.19,1,.28,1-0.43v-1c0.85,0.09,1.47,0,1.47-.28C185.84,227.75,186,221.59,185.27,215.62Zm-17,6.3c-0.09-1.28-.19-2.61-0.24-3.89a14.31,14.31,0,0,1,.14-2.84,5.41,5.41,0,0,1,.43-1.23,3.26,3.26,0,0,1,.52-0.62h0a14.54,14.54,0,0,1,3.18-2.18c0.33-.09.62-0.14,0.95-0.24l3.55-.24a2.31,2.31,0,0,1,.33.14,12.43,12.43,0,0,1,.66,3c0.28,2.13.43,4.27,0.57,6.4Q173.35,221.14,168.31,221.92Z" style="fill:#00a6e9"/><rect x="160.58" y="203.34" width="25.4" height="33.23" style="fill:none"/><rect x="160.58" y="203.34" width="25.4" height="33.23" style="fill:none"/><path d="M125.32,133.83c-0.52-3.18-1.8-6.3-4.31-8.29a11.84,11.84,0,0,0-2.75-2,10.58,10.58,0,0,0-5.36-2.37h-0.66a7.11,7.11,0,0,0-4,.14,9.38,9.38,0,0,0-4.41,3.37,2.72,2.72,0,0,0-.38,2l-0.43.47a0.54,0.54,0,0,0-.38.33c-0.19.28-.33,0.62-0.52,0.9-0.14-.33-0.43-0.62-0.81-0.28a3.54,3.54,0,0,0-1.28,1.23,12.16,12.16,0,0,0-.95,2.89,7.51,7.51,0,0,0-.9,2.09,7.69,7.69,0,0,0-.38,2.32c0,0.28,0,.52-0.09.81a5,5,0,0,0,0,1.18,9.34,9.34,0,0,0,.52,3.41,11.19,11.19,0,0,0,1.85,3.27,8.08,8.08,0,0,0,1.09,1.42,15.86,15.86,0,0,0,8.06,4.27,9.79,9.79,0,0,0,4.22.24l0.19,0a2.31,2.31,0,0,0,.57,0,10.2,10.2,0,0,0,4.74-1.94,10.11,10.11,0,0,0,2.61-2.09,11.28,11.28,0,0,0,1.85-2.84,2.63,2.63,0,0,1,.28-0.38,11,11,0,0,0,1.61-5.17A12.77,12.77,0,0,0,125.32,133.83Zm-6.07,6.07a11,11,0,0,1-2.18,2.28,9.32,9.32,0,0,1-6,1.85,11.15,11.15,0,0,1-2.46-.66l-0.95-.43-0.28-.19a11.18,11.18,0,0,1-2.51-3.41c-0.14-.33-0.24-0.66-0.38-1v-0.62a29.91,29.91,0,0,1,1-6.16,0.31,0.31,0,0,0,.28,0,4.27,4.27,0,0,1,.43-0.47,1.49,1.49,0,0,0,1.09-.24,9.45,9.45,0,0,1,1.9-2l2-.66h0.14a3.7,3.7,0,0,1,1,.14,10.8,10.8,0,0,1,3.6,2.18,8.9,8.9,0,0,1,1.14,1.18,14.27,14.27,0,0,1,2.23,4.88c0.14,0.47.19,1,.28,1.47A12.25,12.25,0,0,1,119.25,139.9Z" style="fill:#00a6e9"/></g><rect x="75.75" y="44.25" width="94.5" height="125.99" transform="translate(230.24 -15.75) rotate(90)" style="fill:none;stroke:#00aeef;stroke-linecap:round;stroke-linejoin:round;stroke-width:4px"/><rect x="292.55" y="44.25" width="94.5" height="125.99" transform="translate(447.04 -232.55) rotate(90)" style="fill:#fff"/><g style="clip-path:url(#e)"><path d="M297.69,160.92l0.19-.14c0.47-.28.52-0.71,0-0.95a5.37,5.37,0,0,0-1.52,0,1.78,1.78,0,0,0-.47,0h0a0.51,0.51,0,0,0,0-.52,0.58,0.58,0,0,0-.85-0.24,0.5,0.5,0,0,0-.57-0.09h0a0.78,0.78,0,0,0-.57-0.09,52.42,52.42,0,0,1-8.44,4.31,8.29,8.29,0,0,0,.85-1.37,11.41,11.41,0,0,0,2.28-6.59c0.62-4-.81-8.15-2.8-11.71-0.24-.38-1.9-0.24-2.09-0.19h0a3.92,3.92,0,0,0-.33-0.62,0.77,0.77,0,0,0-1-.19,0.58,0.58,0,0,0-.62,0,0.57,0.57,0,0,0-.66,0l-0.62.62a0.28,0.28,0,0,0-.19,0c-5.55,5.45-11.09,11-17.06,16-0.43.33-.81,0.66-1.23,0.95q0.57-1.85,1-3.7c0.9-3.7,1.66-7.35,2.65-11a0.66,0.66,0,0,0-.57-0.71l0.19-.62c0.19-.76-1.8-0.76-2.42-0.76a0.6,0.6,0,0,0-.52-0.66H262a0.29,0.29,0,0,0-.28-0.14H261.1a7.08,7.08,0,0,0-3.13.76,0.59,0.59,0,0,1,.09.14l-0.43.19,0.28,0.47s0,0,0,.09a0.64,0.64,0,0,0-.24.43c-0.19.09-.38,0.14-0.62,0.24s0,0.09.09,0.09l-0.33.14a0.63,0.63,0,0,1,.43.14,0.36,0.36,0,0,0,0,.24l-0.33.14a1.18,1.18,0,0,0,.66.28v0h0a0.51,0.51,0,0,0-.24.71v0a0.66,0.66,0,0,0,.81.19,1.67,1.67,0,0,0,.85,1c-0.62,2.56-1.18,5.12-1.8,7.73-0.19.85-.43,1.75-0.66,2.61-0.19.52-.33,1.09-0.52,1.61a22.9,22.9,0,0,1-2.28,4.88,0.59,0.59,0,0,0,.14.09c-0.14.24-.24,0.43-0.38,0.66h0.24c-0.14.24-.24,0.43-0.33,0.62a0.36,0.36,0,0,0,.28.14c0,0.14-.14.24-0.19,0.38s0.19,0.28.52,0.33v0c-0.33.62,0.19,0.81,0.66,0.76a0.17,0.17,0,0,0,.14,0,1.46,1.46,0,0,0,1,1l0.38-.14a1,1,0,0,0,.85.43c0.85-.28,1.71-0.52,2.46-0.85a19,19,0,0,0,2.18-1.14c0.19-.09.38-0.19,0.62-0.28a37.1,37.1,0,0,0,3.18-2.13q1.07-.78,2.13-1.71v0.19c-0.09,0-.19,0-0.14.09l0.14,0.28v0c-0.38-.14-0.76-0.19-0.62.19l0.14,0.24a0.31,0.31,0,0,0-.09.47,6,6,0,0,0,.71,1.18,5.42,5.42,0,0,0,1.47,1.94,4.09,4.09,0,0,0,.76.47c0.14,0.14.28,0.33,0.43,0.47a4.51,4.51,0,0,0,1.33.95c2.13,1.18,4.74,1.14,7.11,1,0.71,0,1.47-.09,2.18-0.19a16.93,16.93,0,0,0,2.65-.33,14.33,14.33,0,0,0,2.37-.9l1.61-.71a49,49,0,0,0,9-5,0.46,0.46,0,0,0,.28-0.43l1.18-.71c0.66-.38-0.24-0.85-0.66-1m-29,1,0.09,0,0.09,0.14a0.69,0.69,0,0,1-.19-0.09M282.72,156a12,12,0,0,1-2.28,4.27,4.09,4.09,0,0,1-.62.66,12.25,12.25,0,0,1-4.88,1.71,19,19,0,0,1-2.37.38,1,1,0,0,0-.19-0.28,2.69,2.69,0,0,0-2-.43,1.86,1.86,0,0,1-.38-0.47,0.55,0.55,0,0,0-.66-0.09,0.37,0.37,0,0,0-.38-0.09s0,0-.09,0l2.28-2c3.7-3.27,7.3-6.73,10.81-10.19a13.66,13.66,0,0,1,.71,3.41,11.21,11.21,0,0,1,0,3.08" style="fill:#00a6e9"/><path d="M262,136l-0.09.47c0,0.14.19,0.19,0.43,0.24v0.14a0.64,0.64,0,0,0,.52.81,0.58,0.58,0,0,0,.28,0,0.23,0.23,0,0,0,.19,0,5.32,5.32,0,0,0,.76,1c0.24,0.24.76,0.66,0.95,0.09v0c0.38,0.28.9,0.66,1,0l0.09-.38a0.43,0.43,0,0,0,.57-0.43l0.19-.95a0.62,0.62,0,0,0,.76-0.33l0.47-2.42v-0.14l0.24-1.14c0.14-.76-2-0.57-2.23-0.52H266s-0.09-.14-0.14-0.19v0c0.19-.62-0.52-0.71-1.14-0.57a0.82,0.82,0,0,0-.57-0.09c-0.24-.19-0.43-0.24-0.47,0l-0.09.43c-0.14-.09-0.28-0.14-0.33,0v0.14a0.41,0.41,0,0,0-.28-0.14,0.39,0.39,0,0,1,.28.19v0.19l-0.09.09a0.74,0.74,0,0,0-.28.38,0.28,0.28,0,0,0-.24.09l-0.09.47a0.1,0.1,0,0,0-.09.09L262,135.9a0.59,0.59,0,0,0,.14.09" style="fill:#00a6e9"/><rect x="253.57" y="131.54" width="45.03" height="38.72" style="fill:none"/><rect x="253.57" y="131.54" width="45.03" height="38.72" style="fill:none"/><path d="M221.72,82.62c-0.33.28-.62,0.62-0.95,0.9a0.37,0.37,0,0,0-.38-0.09c-0.43-.95-1.14-0.43-1.66.33a0.91,0.91,0,0,0-.47.14,0.9,0.9,0,0,0-.24.47,0.71,0.71,0,0,0-.52.85,0.09,0.09,0,0,0,0,.09l0.14,0.28a0.41,0.41,0,0,0-.14.28,0.56,0.56,0,0,0-.33.38c2.28,5.88,4.31,11.66,5.21,18,0.09,0.62.24,1.42,0.33,2.23-1.33-.62-2.61-1.18-3.84-1.85-2.28-1.18-4.41-2.46-6.59-3.7a69.69,69.69,0,0,0-6.54-3.22c-0.47-.19-1.9.81-2.84,1.8l-0.62-.28a0.72,0.72,0,0,0-.81.57c-0.43,0-.71.33-0.24,0.66a2.7,2.7,0,0,1-.62,0l0.43,0.24a0.51,0.51,0,0,0,.09.43,1.26,1.26,0,0,1-.57-0.14l0.52,0.33c0,0.09,0,.19,0,0.28a0.78,0.78,0,0,0,.24.71v0a0.82,0.82,0,0,0-.19.62l0.57,0.33a0,0,0,0,0,0,0l0.09,0a1.53,1.53,0,0,1-.38.33,144.07,144.07,0,0,0,17.35,9.62c1.33,0.62,2.46,1.42,3.65,1.42a8.11,8.11,0,0,0,1.42.43,1.1,1.1,0,0,0,1-.28,0.72,0.72,0,0,0,.19-0.19h0a3.92,3.92,0,0,0,1.66.24,1.64,1.64,0,0,0,1.18-.76,1.87,1.87,0,0,0,1.42-.62,7.76,7.76,0,0,0,.85-3,17.15,17.15,0,0,0,0-2.7,26.81,26.81,0,0,0-.28-3.89,22.15,22.15,0,0,0-.62-3.08,86.58,86.58,0,0,0-5.12-17.21,0.52,0.52,0,0,0-.62-0.28l-0.33-.85c-0.33-1.09-1.18-.33-1.71.09" style="fill:#00a6e9"/><rect x="205.08" y="87.03" width="30.47" height="29.53" transform="translate(-12.37 170.77) rotate(-41.31)" style="fill:none"/><rect x="205.08" y="87.03" width="30.47" height="29.53" transform="translate(-12.37 170.77) rotate(-41.31)" style="fill:none"/><path d="M334,178.89a2,2,0,0,0-1.18.76c-0.43.43-.85,0.9-1.23,1.33h-0.24a0.64,0.64,0,0,0-.9-0.14l-0.52.71a0.5,0.5,0,0,0-.24.09l-0.43.57s-0.09,0-.14.09q-6.75,8.74-13.37,17.54c-0.09.14,0.09,0.24,0.38,0.28l-0.28.38s0,0.14.14,0.19l-0.33.43a1,1,0,0,1,.62-0.24v0a1.06,1.06,0,0,0,.28.81,1.24,1.24,0,0,1-.24.43l0.33-.38,0.09,0.09a0.6,0.6,0,0,0,0,.28c0,0.14,0,.33.24,0.09l0-.09v0l-0.24.33c-0.14.19,0,.24,0.14,0.14a1.26,1.26,0,0,0,.28-0.24,0.41,0.41,0,0,0,.28.14l0,0c-0.14.19-.28,0.43,0,0.52a0.73,0.73,0,0,0,.52-0.33s0,0.14.09,0.19a0.89,0.89,0,0,0,1.18.19l0.47-.52h0c0.85,0.19,2,.38,2.37-0.09,1.61-1.75,3.13-3.55,4.69-5.36,4.79,4.08,9.53,8.2,14.12,12.47a0.21,0.21,0,0,0,.24,0l0.43,0.38a0.65,0.65,0,0,0,.85-0.09,1.28,1.28,0,0,0,1.42.33,0.74,0.74,0,0,0,.28-0.38h0.19a0.74,0.74,0,0,0,.38-0.28c0.38,0,.76,0,1.09.09a1.64,1.64,0,0,0,1.33-.19,0.48,0.48,0,0,0,.09-0.71l-0.33-.28c0.52-.19.95-0.47,0.43-0.9l-0.43-.38c0.33-.24.52-0.57,0.09-0.9l-0.95-.85c0.43-.38.66-0.81,0.38-1l-1-.95a0.39,0.39,0,0,0-.19-0.28c-4.41-4.08-8.91-8.1-13.51-11.94,1.52-1.94,3-3.93,4.46-5.92a0.55,0.55,0,0,0,0-.85l0.28-.38c0.38-.52,0-0.76-0.47-0.9l0.33-.43c0.76-.95-1.47-0.76-1.56-0.76h-0.09l0.81-1c0.52-.66.09-1.18-0.66-1-0.24.09-.43,0.24-0.66,0.33,0.33-.47.85-1.47-0.09-1.52" style="fill:#00a6e9"/><rect x="321.15" y="183.36" width="29.58" height="30.95" transform="translate(-26.07 344.93) rotate(-52.6)" style="fill:none"/><rect x="321.15" y="183.36" width="29.58" height="30.95" transform="translate(-26.07 344.93) rotate(-52.6)" style="fill:none"/><path d="M363.05,138c-0.52-3.18-1.8-6.3-4.31-8.29a11.84,11.84,0,0,0-2.75-2,10.58,10.58,0,0,0-5.36-2.37H350a7.11,7.11,0,0,0-4,.14,9.38,9.38,0,0,0-4.41,3.37,2.72,2.72,0,0,0-.38,2l-0.43.47a0.54,0.54,0,0,0-.38.33c-0.19.28-.33,0.62-0.52,0.9-0.14-.33-0.43-0.62-0.81-0.28a3.54,3.54,0,0,0-1.28,1.23,12.16,12.16,0,0,0-.95,2.89,7.51,7.51,0,0,0-.9,2.09,7.69,7.69,0,0,0-.38,2.32c0,0.28,0,.52-0.09.81a5,5,0,0,0,0,1.18,9.34,9.34,0,0,0,.52,3.41,11.19,11.19,0,0,0,1.85,3.27,8.08,8.08,0,0,0,1.09,1.42,15.86,15.86,0,0,0,8.06,4.27,9.79,9.79,0,0,0,4.22.24l0.19,0a2.31,2.31,0,0,0,.57,0,14.87,14.87,0,0,0,7.35-4,11.28,11.28,0,0,0,1.85-2.84,2.63,2.63,0,0,1,.28-0.38,11,11,0,0,0,1.61-5.17A12.77,12.77,0,0,0,363.05,138ZM357,144.05a11,11,0,0,1-2.18,2.28,9.32,9.32,0,0,1-6,1.85,11.15,11.15,0,0,1-2.46-.66l-0.95-.43-0.28-.19a11.18,11.18,0,0,1-2.51-3.41c-0.14-.33-0.24-0.66-0.38-1v-0.62a29.91,29.91,0,0,1,1-6.16,0.31,0.31,0,0,0,.28,0,4.27,4.27,0,0,1,.43-0.47,1.49,1.49,0,0,0,1.09-.24,9.45,9.45,0,0,1,1.9-2l2-.66h0.14a3.7,3.7,0,0,1,1,.14,10.8,10.8,0,0,1,3.6,2.18,8.9,8.9,0,0,1,1.14,1.18,14.27,14.27,0,0,1,2.23,4.88c0.14,0.47.19,1,.28,1.47A12.25,12.25,0,0,1,357,144.05Z" style="fill:#00a6e9"/><rect x="335.52" y="125.04" width="27.77" height="30.38" style="fill:none"/><rect x="335.52" y="125.04" width="27.77" height="30.38" style="fill:none"/><rect x="187.12" y="119.4" width="30.57" height="33.41" style="fill:none"/><path d="M216.45,160.54c-0.09.28-.19,0.52-0.28,0.81l-0.19-.76c-0.24-.9-1.09-0.57-1.33.09a6.82,6.82,0,0,0,0,2.94h0l-0.09,0c-0.38-.19-1.28.09-1.18,0.66l0.14,0.66a0.76,0.76,0,0,0-.24.52l0.09,0.38a0.92,0.92,0,0,0-.14.62,37.19,37.19,0,0,1,1.37,7.2c0,0.43,0,.85,0,1.28a4.42,4.42,0,0,1-2.32,1.33,17.34,17.34,0,0,1-3.13.19,85.47,85.47,0,0,0-13,0l-4.36-.09a1.29,1.29,0,0,0-1,.66l-0.85.14c-1,.09-1,1.52-1,2.28,0,0.19-.09.62-0.09,1a0.86,0.86,0,0,0-.81.66v0.28a0.65,0.65,0,0,0-.14.19,0.47,0.47,0,0,0,.33.66h0a0.93,0.93,0,0,0-.33.47h0.52a0.2,0.2,0,0,0,.19.14h0a2.45,2.45,0,0,0-.28.33h0.66a0.82,0.82,0,0,0,.52.28,1.2,1.2,0,0,1-.38.62h1.23a0.44,0.44,0,0,0,0,.33c6.78,0.14,13.56.43,20.33,0.38,0.57,0,1.14,0,1.71,0a6.36,6.36,0,0,0,1.66-.19,6,6,0,0,0,2.42-1.14,4.34,4.34,0,0,0,1.66-1.14,4.84,4.84,0,0,0,1.14-1.9l0,0a7.11,7.11,0,0,0,1.52-4c1.14-3.93-.33-8.72-1.28-12.47l-0.14-.28-0.28-1c-0.19-.62-0.66-0.47-1-0.19-0.09-.47-0.24-0.95-0.33-1.47-0.19-.81-0.81-1-1.28-0.28" style="fill:#00a6e9"/><rect x="187.78" y="160.02" width="33.51" height="24.6" style="fill:none"/><rect x="187.78" y="160.02" width="33.51" height="24.6" style="fill:none"/><path d="M336.23,164.48c-0.95-.19-1.09,1.94-1.18,2.37,0,0.19-.14.62-0.24,1a0.81,0.81,0,0,0-.81.85l-0.14.14a0.57,0.57,0,0,0,.14.66c-0.19.19-.33,0.33-0.19,0.33l0.47,0.09a0.25,0.25,0,0,0,.09.14c-0.14.09-.24,0.19-0.19,0.19l0.62,0.09a0.65,0.65,0,0,0,.47.38,2.82,2.82,0,0,1-.14.52l0.81,0.14c0,0.09,0,.14,0,0.14,7.35,1.37,14.69,2.89,22.09,3.79a0.17,0.17,0,0,0,.14,0l0.62,0.09a0.68,0.68,0,0,0,.38-0.52h0.19a0.65,0.65,0,0,0,.85-0.43,0.52,0.52,0,0,0,0-.38h0a0.23,0.23,0,0,0,0-.19,3.5,3.5,0,0,0,1.18-.81,0.72,0.72,0,0,0,0-.81l0,0c0.24-.24,1.18-1.33.24-1.47l-0.28,0c0.24-.43.33-0.95-0.33-1L360,169.6c0.09-.52.09-1-0.28-1l-1.28-.14a0.48,0.48,0,0,0-.33-0.19c-7.39-.95-14.65-2.51-21.9-3.74" style="fill:#00a6e9"/><rect x="343.75" y="155.83" width="8.53" height="28.34" transform="translate(141.52 497.69) rotate(-83.82)" style="fill:none"/><rect x="343.75" y="155.83" width="8.53" height="28.34" transform="translate(141.52 497.69) rotate(-83.82)" style="fill:none"/><path d="M309.5,229.51h0c0.19-.09.43-0.14,0.62-0.24,0.76-.33.71-0.95,0-1.23a12.17,12.17,0,0,0-2.28,0,1.31,1.31,0,0,0-.43,0,0.5,0.5,0,0,0-.14-0.19,0.7,0.7,0,0,0,0-.62,0.83,0.83,0,0,0-1.23-.24,0.72,0.72,0,0,0-.76-0.14l-0.09,0a0.6,0.6,0,0,0-.62-0.09,15.78,15.78,0,0,1-5.88,1.28h-0.28l-0.81-.14a9.48,9.48,0,0,1-1.94-1.71,4.89,4.89,0,0,1-1.33-2.42,8.54,8.54,0,0,1-1.09-4,15.36,15.36,0,0,1,.09-2.09,9.6,9.6,0,0,1,.43-1.56,8.73,8.73,0,0,1,.43-1.18l0.52-.66a7.54,7.54,0,0,1,1.14-.95,12,12,0,0,1,3-1.47A40.76,40.76,0,0,1,303,211a32.06,32.06,0,0,1,4.27-.09c0.66,0,.62-0.47.43-0.95h0.52c1.23,0-.28-1.66-0.38-1.71l-0.14-.14a13.32,13.32,0,0,1,1.37,0c0.85,0,.95-0.71.38-1.18-0.19-.09-0.38-0.19-0.62-0.28a0.91,0.91,0,0,0,1-.66c0-1-2.13-.9-2.61-0.95l-0.95,0a0.76,0.76,0,0,0-.66-0.85H305l-0.28-.14h-1c-4.6-.19-9.72.47-13.18,3.79a10.92,10.92,0,0,0-3.08,3.51,20.52,20.52,0,0,0-2.09,9.24,13.38,13.38,0,0,0,1.56,6,8.18,8.18,0,0,0,.9,1.33,9.56,9.56,0,0,0,4.17,3.93,10.62,10.62,0,0,0,3.89,1.9c0.47,0.09.95,0.19,1.42,0.24a20.11,20.11,0,0,0,11.47-1.37c0.76-.33.28-0.95-0.19-1.33,0.52-.19,1-0.38,1.52-0.62,0.85-.38-0.43-1.09-0.71-1.18" style="fill:#00a6e9"/><rect x="285.42" y="204.01" width="25.12" height="30.38" style="fill:none"/><rect x="285.42" y="204.01" width="25.12" height="30.38" style="fill:none"/><path d="M249.44,78.45c3.32-.38,14-2.51,14-2.51s1-3.32.52-3.6a4.81,4.81,0,0,0-2.56-.43,0.75,0.75,0,0,0-.71-0.81l-0.38,0a0.59,0.59,0,0,0-.38-0.19l-0.52,0a0.23,0.23,0,0,0-.19,0L245.84,72.1a0.7,0.7,0,0,1,.24.33l-0.62,0a0.59,0.59,0,0,0-.38-0.28,0.82,0.82,0,0,0-.57.09,0.18,0.18,0,0,0-.09-0.09c-0.19-.09-0.38-0.14-0.43.14a1.46,1.46,0,0,1,0,.47h0a0.3,0.3,0,0,0-.14-0.24c-0.28-.09-0.33.14-0.33,0.43h0a1,1,0,0,1-.19-0.62c0,0.28,0,.52,0,0.81a1.25,1.25,0,0,0-.33.71l-0.09.09a0.68,0.68,0,0,0-.62.24v0.28l-0.28,0q-0.85,12.23-2,24.31a0.25,0.25,0,0,0,.09.14c0,0.24,0,.43,0,0.66a0.6,0.6,0,0,0,.62.43v0.28a0.14,0.14,0,0,0,0,.19,1.07,1.07,0,0,0,.47.71v0.14c0.09,0.52.38,0.57,0.85,0.52h0.28c0.28,0.62.71,1.33,1.23,1.28h0.14a0.51,0.51,0,0,0,.52,0,1.67,1.67,0,0,0,.9.47c5.4-.14,15.69-1.09,15.69-1.09a2.68,2.68,0,0,0,.14-1.23l0.47,0c1-.14,1.47-3,0.9-3.27s-8-.76-14.12-0.85q0.5-3.06.71-6.11l5.88-.52a0.6,0.6,0,0,0,.66-0.52,1.94,1.94,0,0,0,.52,0c0.62,0,.47-0.81.47-0.81l0.52,0c1.09-.09,1.66-3.46,1.09-3.7s-5.36-.62-8.86-0.9V83c0.09-1.52.19-3,.33-4.5" style="fill:#00a6e9"/><rect x="240.01" y="70.96" width="24.08" height="32.66" style="fill:none"/><rect x="240.01" y="70.96" width="24.08" height="32.66" style="fill:none"/><g style="clip-path:url(#f)"><path d="M359.93,90.25c-7.39.09-14.79,0.09-22.13,0.09-0.95,0-.71,2.18-0.71,2.61v0.19a1.26,1.26,0,0,0-.28.24A0.69,0.69,0,0,0,336,94a0.6,0.6,0,0,0,0,.28,1.47,1.47,0,0,0,.09.38,0.26,0.26,0,0,0-.14.24,1,1,0,0,0,.09.52c-0.19.33-.24,0.66,0.24,0.66h0.28v0.09c-0.14.19-.19,0.38,0,0.38h0.19a1.19,1.19,0,0,1-.19.43h0.47a0.36,0.36,0,0,0,.19.09,0.32,0.32,0,0,1-.14.19h1q0,0.28.14,0.28c5,0,10,0,15-.09-1.71,1.42-3.41,2.8-5.17,4.08a49.2,49.2,0,0,1-8.25,4.79,1.67,1.67,0,0,0-.38,1.23v0.38l-1.71,0c-0.95,0-.85,2.09-0.9,2.56,0,0.14,0,.52-0.09.9a0.69,0.69,0,0,0-.71.66v0.28a0.25,0.25,0,0,0-.09.14,0.68,0.68,0,0,0,.19.71c-0.14.14-.24,0.28-0.14,0.28h0.43s0,0.09,0,.14-0.28.24-.14,0.24h0.47a1.55,1.55,0,0,0,.71.52h0l0.09,0a0.48,0.48,0,0,0,.19.28h0.43c0,0.19,0,.28.09,0.28q11.23,0.5,22.47.14a0.17,0.17,0,0,0,.09,0h0.62a0.5,0.5,0,0,0,.33-0.52h0a0.9,0.9,0,0,0,1-.62v-0.33l0.14-.14a0.6,0.6,0,0,0,0-.28l0.09,0a9.54,9.54,0,0,0,1.37-1c0.33-.52.09-0.81-0.33-0.9,0.33-.47.66-1.18-0.09-1.14h-0.47c0.09-.38,0-0.71-0.47-0.71l-1.14,0c0.09-.57,0-1-0.38-1l-1.18,0a0.5,0.5,0,0,0-.43-0.24c-3.18.09-6.3,0.14-9.48,0.09,4-2.84,7.63-6.16,11.38-9.29a0.56,0.56,0,0,0,0-.62,0.36,0.36,0,0,0,.09-0.19l0.81-.66c0.38-.33.81-0.9,0.28-1.28a1.63,1.63,0,0,0,.57-1,0.43,0.43,0,0,0-.14-0.33,0.8,0.8,0,0,0-.14-0.47l0.09-.14c0.24-.28.76-1.33-0.09-1.37h0c0.24-.52.47-1.33-0.33-1.28h-1c0-.52,0-1-0.47-1h-1.23a0.6,0.6,0,0,0-.43-0.19" style="fill:#00a6e9"/></g><rect x="335.94" y="90.25" width="28.82" height="24.84" style="fill:none"/><path d="M276.08,215.62c-0.09-1-.14-2-0.24-3a14.33,14.33,0,0,0-1.28-4.83c-1.14-2-3-2.8-5.12-3.13a5.57,5.57,0,0,0-2.7-1,6.4,6.4,0,0,0-1.33-.19c-3-.47-6.45,1.18-8.82,3.32a11.7,11.7,0,0,0-3.7,4.22,7.44,7.44,0,0,0-.81,2.51,7.33,7.33,0,0,0-.33,1.09,14.68,14.68,0,0,0-.24,4.31,1.31,1.31,0,0,0,0,.43,0.77,0.77,0,0,1,0,.33c0.47,5,1,10,1.56,15a0.94,0.94,0,0,0,.47,0c0,0.28,0,.62.09,0.9s0.33,0.19.62,0.14a0.68,0.68,0,0,0,.33.09,0.81,0.81,0,0,0,1.28.62c0.47,0.24,1,.28,1.18-0.19,0.52,0.14.9,0,.9-0.57v-0.47c1.18,0.14,2.28,0,2.23-.33-0.19-1.52-.33-3-0.47-4.5-0.09-1-.14-2-0.24-3,3.32-.09,6.59-0.33,9.91-0.62,0,2.23.14,4.46,0.19,6.68a0.75,0.75,0,0,0,.62.47v0.24a0.81,0.81,0,0,0,.71.76,0.68,0.68,0,0,0,.33-0.09s0.09,0,.14,0h0.14a2.54,2.54,0,0,0,.76,1,0.8,0.8,0,0,0,.9-0.14l0,0c0.28,0.19,1.14.62,1.18-.14v-0.19c0.47,0.19,1,.28,1-0.43v-1c0.85,0.09,1.47,0,1.47-.28C276.65,227.75,276.79,221.59,276.08,215.62Zm-17,6.3c-0.09-1.28-.19-2.61-0.24-3.89a14.31,14.31,0,0,1,.14-2.84,5.41,5.41,0,0,1,.43-1.23,3.26,3.26,0,0,1,.52-0.62h0a14.54,14.54,0,0,1,3.18-2.18c0.33-.09.62-0.14,0.95-0.24l3.55-.24a2.31,2.31,0,0,1,.33.14,12.43,12.43,0,0,1,.66,3c0.28,2.13.43,4.27,0.57,6.4Q264.16,221.14,259.11,221.92Z" style="fill:#00a6e9"/><rect x="251.39" y="203.34" width="25.4" height="33.23" style="fill:none"/><rect x="251.39" y="203.34" width="25.4" height="33.23" style="fill:none"/><path d="M216.12,133.83c-0.52-3.18-1.8-6.3-4.31-8.29a11.84,11.84,0,0,0-2.75-2,10.58,10.58,0,0,0-5.36-2.37H203a7.11,7.11,0,0,0-4,.14,9.38,9.38,0,0,0-4.41,3.37,2.72,2.72,0,0,0-.38,2l-0.43.47a0.54,0.54,0,0,0-.38.33c-0.19.28-.33,0.62-0.52,0.9-0.14-.33-0.43-0.62-0.81-0.28a3.54,3.54,0,0,0-1.28,1.23,12.16,12.16,0,0,0-.95,2.89,7.51,7.51,0,0,0-.9,2.09,7.69,7.69,0,0,0-.38,2.32c0,0.28,0,.52-0.09.81a5,5,0,0,0,0,1.18A9.34,9.34,0,0,0,189,142a11.19,11.19,0,0,0,1.85,3.27,8.08,8.08,0,0,0,1.09,1.42,15.86,15.86,0,0,0,8.06,4.27,9.79,9.79,0,0,0,4.22.24l0.19,0a2.31,2.31,0,0,0,.57,0,14.87,14.87,0,0,0,7.35-4,11.28,11.28,0,0,0,1.85-2.84,2.63,2.63,0,0,1,.28-0.38,11,11,0,0,0,1.61-5.17A12.77,12.77,0,0,0,216.12,133.83Zm-6.07,6.07a11,11,0,0,1-2.18,2.28,9.32,9.32,0,0,1-6,1.85,11.15,11.15,0,0,1-2.46-.66l-0.95-.43-0.28-.19a11.18,11.18,0,0,1-2.51-3.41c-0.14-.33-0.24-0.66-0.38-1v-0.62a29.91,29.91,0,0,1,1-6.16,0.31,0.31,0,0,0,.28,0,4.27,4.27,0,0,1,.43-0.47,1.49,1.49,0,0,0,1.09-.24,9.45,9.45,0,0,1,1.9-2l2-.66h0.14a3.7,3.7,0,0,1,1,.14,10.8,10.8,0,0,1,3.6,2.18,8.9,8.9,0,0,1,1.14,1.18,14.27,14.27,0,0,1,2.23,4.88c0.14,0.47.19,1,.28,1.47A12.25,12.25,0,0,1,210.06,139.9Z" style="fill:#00a6e9"/></g><rect x="292.55" y="44.25" width="94.5" height="125.99" transform="translate(447.04 -232.55) rotate(90)" style="fill:none;stroke:#00aeef;stroke-linecap:round;stroke-linejoin:round;stroke-width:4px"/><rect x="383.02" y="301.2" width="100" height="14.3" transform="translate(741.37 -124.67) rotate(90)" style="fill:#fff;stroke:#00aeef;stroke-linecap:round;stroke-linejoin:round;stroke-width:3.6500963739854444px"/><rect x="289.6" y="245.35" width="94.5" height="125.99" transform="translate(645.2 -28.5) rotate(90)" style="fill:#fff"/><g style="clip-path:url(#g)"><path d="M294.75,267.53l0.19-.14c0.47-.28.52-0.71,0-0.95a5.37,5.37,0,0,0-1.52,0,1.78,1.78,0,0,0-.47,0h0a0.51,0.51,0,0,0,0-.52,0.58,0.58,0,0,0-.85-0.24,0.5,0.5,0,0,0-.57-0.09h0a0.78,0.78,0,0,0-.57-0.09,52.42,52.42,0,0,1-8.44,4.31,8.29,8.29,0,0,0,.85-1.37,11.41,11.41,0,0,0,2.28-6.59c0.62-4-.81-8.15-2.8-11.71-0.24-.38-1.9-0.24-2.09-0.19h0a3.92,3.92,0,0,0-.33-0.62,0.77,0.77,0,0,0-1-.19,0.58,0.58,0,0,0-.62,0,0.57,0.57,0,0,0-.66,0l-0.62.62a0.28,0.28,0,0,0-.19,0c-5.55,5.45-11.09,11-17.06,16-0.43.33-.81,0.66-1.23,0.95q0.57-1.85,1-3.7c0.9-3.7,1.66-7.35,2.65-11a0.66,0.66,0,0,0-.57-0.71l0.19-.62c0.19-.76-1.8-0.76-2.42-0.76a0.6,0.6,0,0,0-.52-0.66H259a0.29,0.29,0,0,0-.28-0.14h-0.57a7.08,7.08,0,0,0-3.13.76,0.59,0.59,0,0,1,.09.14l-0.43.19L255,250.7s0,0,0,.09a0.64,0.64,0,0,0-.24.43c-0.19.09-.38,0.14-0.62,0.24s0,0.09.09,0.09l-0.33.14a0.63,0.63,0,0,1,.43.14,0.36,0.36,0,0,0,0,.24l-0.33.14a1.18,1.18,0,0,0,.66.28v0h0a0.51,0.51,0,0,0-.24.71v0a0.66,0.66,0,0,0,.81.19,1.67,1.67,0,0,0,.85,1c-0.62,2.56-1.18,5.12-1.8,7.73-0.19.85-.43,1.75-0.66,2.61-0.19.52-.33,1.09-0.52,1.61a22.9,22.9,0,0,1-2.28,4.88,0.59,0.59,0,0,0,.14.09c-0.14.24-.24,0.43-0.38,0.66h0.24c-0.14.24-.24,0.43-0.33,0.62a0.36,0.36,0,0,0,.28.14c0,0.14-.14.24-0.19,0.38s0.19,0.28.52,0.33v0c-0.33.62,0.19,0.81,0.66,0.76a0.17,0.17,0,0,0,.14,0,1.46,1.46,0,0,0,1,1l0.38-.14a1,1,0,0,0,.85.43c0.85-.28,1.71-0.52,2.46-0.85a19,19,0,0,0,2.18-1.14c0.19-.09.38-0.19,0.62-0.28a37.1,37.1,0,0,0,3.18-2.13q1.07-.78,2.13-1.71v0.19c-0.09,0-.19,0-0.14.09l0.14,0.28v0c-0.38-.14-0.76-0.19-0.62.19l0.14,0.24a0.31,0.31,0,0,0-.09.47,6,6,0,0,0,.71,1.18,5.42,5.42,0,0,0,1.47,1.94,4.09,4.09,0,0,0,.76.47c0.14,0.14.28,0.33,0.43,0.47a4.51,4.51,0,0,0,1.33.95c2.13,1.18,4.74,1.14,7.11,1,0.71,0,1.47-.09,2.18-0.19a16.93,16.93,0,0,0,2.65-.33,14.33,14.33,0,0,0,2.37-.9l1.61-.71a49,49,0,0,0,9-5,0.46,0.46,0,0,0,.28-0.43l1.18-.71c0.66-.38-0.24-0.85-0.66-1m-29,1,0.09,0,0.09,0.14a0.69,0.69,0,0,1-.19-0.09m14.22-6.26a12,12,0,0,1-2.28,4.27,4.09,4.09,0,0,1-.62.66,12.25,12.25,0,0,1-4.88,1.71,19,19,0,0,1-2.37.38,1,1,0,0,0-.19-0.28,2.69,2.69,0,0,0-2-.43,1.86,1.86,0,0,1-.38-0.47,0.55,0.55,0,0,0-.66-0.09,0.37,0.37,0,0,0-.38-0.09s0,0-.09,0l2.28-2c3.7-3.27,7.3-6.73,10.81-10.19a13.66,13.66,0,0,1,.71,3.41,11.21,11.21,0,0,1,0,3.08" style="fill:#00a6e9"/><path d="M259.06,242.65l-0.09.47c0,0.14.19,0.19,0.43,0.24v0.14a0.64,0.64,0,0,0,.52.81,0.58,0.58,0,0,0,.28,0,0.23,0.23,0,0,0,.19,0,5.32,5.32,0,0,0,.76,1c0.24,0.24.76,0.66,0.95,0.09v0c0.38,0.28.9,0.66,1,0l0.09-.38a0.43,0.43,0,0,0,.57-0.43l0.19-.95a0.62,0.62,0,0,0,.76-0.33l0.47-2.42V240.8l0.24-1.14c0.14-.76-2-0.57-2.23-0.52H263s-0.09-.14-0.14-0.19v0c0.19-.62-0.52-0.71-1.14-0.57a0.82,0.82,0,0,0-.57-0.09c-0.24-.19-0.43-0.24-0.47,0l-0.09.43c-0.14-.09-0.28-0.14-0.33,0v0.14a0.41,0.41,0,0,0-.28-0.14,0.39,0.39,0,0,1,.28.19V239l-0.09.09a0.74,0.74,0,0,0-.28.38,0.28,0.28,0,0,0-.24.09l-0.09.47a0.1,0.1,0,0,0-.09.09l-0.43,2.32a0.59,0.59,0,0,0,.14.09" style="fill:#00a6e9"/><rect x="250.62" y="238.14" width="45.03" height="38.72" style="fill:none"/><rect x="250.62" y="238.14" width="45.03" height="38.72" style="fill:none"/><path d="M218.77,189.23c-0.33.28-.62,0.62-0.95,0.9a0.37,0.37,0,0,0-.38-0.09c-0.43-.95-1.14-0.43-1.66.33a0.91,0.91,0,0,0-.47.14,0.9,0.9,0,0,0-.24.47,0.71,0.71,0,0,0-.52.85,0.09,0.09,0,0,0,0,.09l0.14,0.28a0.41,0.41,0,0,0-.14.28,0.56,0.56,0,0,0-.33.38c2.28,5.88,4.31,11.66,5.21,18,0.09,0.62.24,1.42,0.33,2.23-1.33-.62-2.61-1.18-3.84-1.85-2.28-1.18-4.41-2.46-6.59-3.7a69.69,69.69,0,0,0-6.54-3.22c-0.47-.19-1.9.81-2.84,1.8l-0.62-.28a0.72,0.72,0,0,0-.81.57c-0.43,0-.71.33-0.24,0.66a2.7,2.7,0,0,1-.62,0l0.43,0.24a0.51,0.51,0,0,0,.09.43,1.26,1.26,0,0,1-.57-0.14l0.52,0.33c0,0.09,0,.19,0,0.28a0.78,0.78,0,0,0,.24.71v0a0.82,0.82,0,0,0-.19.62l0.57,0.33a0,0,0,0,0,0,0l0.09,0a1.53,1.53,0,0,1-.38.33A144.07,144.07,0,0,0,216,219.9c1.33,0.62,2.46,1.42,3.65,1.42a8.11,8.11,0,0,0,1.42.43,1.1,1.1,0,0,0,1-.28,0.72,0.72,0,0,0,.19-0.19h0a3.92,3.92,0,0,0,1.66.24,1.64,1.64,0,0,0,1.18-.76,1.87,1.87,0,0,0,1.42-.62,7.76,7.76,0,0,0,.85-3,17.15,17.15,0,0,0,0-2.7,26.81,26.81,0,0,0-.28-3.89,22.15,22.15,0,0,0-.62-3.08,86.58,86.58,0,0,0-5.12-17.21,0.52,0.52,0,0,0-.62-0.28l-0.33-.85c-0.33-1.09-1.18-.33-1.71.09" style="fill:#00a6e9"/><rect x="202.13" y="193.64" width="30.47" height="29.53" transform="translate(-83.48 195.36) rotate(-41.31)" style="fill:none"/><rect x="202.13" y="193.64" width="30.47" height="29.53" transform="translate(-83.48 195.36) rotate(-41.31)" style="fill:none"/><path d="M331.05,285.49a2,2,0,0,0-1.18.76c-0.43.43-.85,0.9-1.23,1.33H328.4a0.64,0.64,0,0,0-.9-0.14l-0.52.71a0.5,0.5,0,0,0-.24.09l-0.43.57s-0.09,0-.14.09q-6.75,8.74-13.37,17.54c-0.09.14,0.09,0.24,0.38,0.28l-0.28.38s0,0.14.14,0.19l-0.33.43a1,1,0,0,1,.62-0.24v0a1.06,1.06,0,0,0,.28.81,1.24,1.24,0,0,1-.24.43l0.33-.38,0.09,0.09a0.6,0.6,0,0,0,0,.28c0,0.14,0,.33.24,0.09l0-.09v0l-0.24.33c-0.14.19,0,.24,0.14,0.14a1.26,1.26,0,0,0,.28-0.24,0.41,0.41,0,0,0,.28.14l0,0c-0.14.19-.28,0.43,0,0.52a0.73,0.73,0,0,0,.52-0.33s0,0.14.09,0.19a0.89,0.89,0,0,0,1.18.19l0.47-.52h0c0.85,0.19,2,.38,2.37-0.09,1.61-1.75,3.13-3.55,4.69-5.36,4.79,4.08,9.53,8.2,14.12,12.47a0.21,0.21,0,0,0,.24,0l0.43,0.38a0.65,0.65,0,0,0,.85-0.09,1.28,1.28,0,0,0,1.42.33,0.74,0.74,0,0,0,.28-0.38h0.19a0.74,0.74,0,0,0,.38-0.28c0.38,0,.76,0,1.09.09a1.64,1.64,0,0,0,1.33-.19,0.48,0.48,0,0,0,.09-0.71l-0.33-.28c0.52-.19.95-0.47,0.43-0.9l-0.43-.38c0.33-.24.52-0.57,0.09-0.9l-0.95-.85c0.43-.38.66-0.81,0.38-1l-1-.95a0.39,0.39,0,0,0-.19-0.28c-4.41-4.08-8.91-8.1-13.51-11.94,1.52-1.94,3-3.93,4.46-5.92a0.55,0.55,0,0,0,0-.85l0.28-.38c0.38-.52,0-0.76-0.47-0.9l0.33-.43c0.76-.95-1.47-0.76-1.56-0.76h-0.09l0.81-1c0.52-.66.09-1.18-0.66-1-0.24.09-.43,0.24-0.66,0.33,0.33-.47.85-1.47-0.09-1.52" style="fill:#00a6e9"/><rect x="318.2" y="289.97" width="29.58" height="30.95" transform="translate(-111.91 384.45) rotate(-52.6)" style="fill:none"/><rect x="318.2" y="289.97" width="29.58" height="30.95" transform="translate(-111.91 384.45) rotate(-52.6)" style="fill:none"/><path d="M360.11,244.59c-0.52-3.18-1.8-6.3-4.31-8.29a11.84,11.84,0,0,0-2.75-2,10.58,10.58,0,0,0-5.36-2.37H347a7.11,7.11,0,0,0-4,.14,9.38,9.38,0,0,0-4.41,3.37,2.72,2.72,0,0,0-.38,2l-0.43.47a0.54,0.54,0,0,0-.38.33c-0.19.28-.33,0.62-0.52,0.9-0.14-.33-0.43-0.62-0.81-0.28a3.54,3.54,0,0,0-1.28,1.23,12.16,12.16,0,0,0-.95,2.89A7.51,7.51,0,0,0,333,245a7.69,7.69,0,0,0-.38,2.32c0,0.28,0,.52-0.09.81a5,5,0,0,0,0,1.18,9.34,9.34,0,0,0,.52,3.41,11.19,11.19,0,0,0,1.85,3.27,8.08,8.08,0,0,0,1.09,1.42A15.86,15.86,0,0,0,344,261.7a9.79,9.79,0,0,0,4.22.24l0.19,0a2.31,2.31,0,0,0,.57,0,14.87,14.87,0,0,0,7.35-4,11.28,11.28,0,0,0,1.85-2.84,2.63,2.63,0,0,1,.28-0.38,11,11,0,0,0,1.61-5.17A12.77,12.77,0,0,0,360.11,244.59ZM354,250.66a11,11,0,0,1-2.18,2.28,9.32,9.32,0,0,1-6,1.85,11.15,11.15,0,0,1-2.46-.66l-0.95-.43-0.28-.19a11.18,11.18,0,0,1-2.51-3.41c-0.14-.33-0.24-0.66-0.38-1v-0.62a29.91,29.91,0,0,1,1-6.16,0.31,0.31,0,0,0,.28,0,4.27,4.27,0,0,1,.43-0.47,1.49,1.49,0,0,0,1.09-.24,9.45,9.45,0,0,1,1.9-2l2-.66h0.14a3.7,3.7,0,0,1,1,.14,10.8,10.8,0,0,1,3.6,2.18,8.9,8.9,0,0,1,1.14,1.18,14.27,14.27,0,0,1,2.23,4.88c0.14,0.47.19,1,.28,1.47A12.25,12.25,0,0,1,354,250.66Z" style="fill:#00a6e9"/><rect x="332.57" y="231.65" width="27.77" height="30.38" style="fill:none"/><rect x="332.57" y="231.65" width="27.77" height="30.38" style="fill:none"/><rect x="184.17" y="226.01" width="30.57" height="33.41" style="fill:none"/><path d="M213.51,267.15c-0.09.28-.19,0.52-0.28,0.81L213,267.2c-0.24-.9-1.09-0.57-1.33.09a6.82,6.82,0,0,0,0,2.94h0l-0.09,0c-0.38-.19-1.28.09-1.18,0.66l0.14,0.66a0.76,0.76,0,0,0-.24.52l0.09,0.38a0.92,0.92,0,0,0-.14.62,37.19,37.19,0,0,1,1.37,7.2c0,0.43,0,.85,0,1.28a4.42,4.42,0,0,1-2.32,1.33,17.34,17.34,0,0,1-3.13.19,85.47,85.47,0,0,0-13,0l-4.36-.09a1.29,1.29,0,0,0-1,.66l-0.85.14c-1,.09-1,1.52-1,2.28,0,0.19-.09.62-0.09,1a0.86,0.86,0,0,0-.81.66V288a0.65,0.65,0,0,0-.14.19,0.47,0.47,0,0,0,.33.66h0a0.93,0.93,0,0,0-.33.47h0.52a0.2,0.2,0,0,0,.19.14h0a2.45,2.45,0,0,0-.28.33H186a0.82,0.82,0,0,0,.52.28,1.2,1.2,0,0,1-.38.62h1.23a0.44,0.44,0,0,0,0,.33c6.78,0.14,13.56.43,20.33,0.38,0.57,0,1.14,0,1.71,0a6.36,6.36,0,0,0,1.66-.19,6,6,0,0,0,2.42-1.14,4.34,4.34,0,0,0,1.66-1.14,4.84,4.84,0,0,0,1.14-1.9l0,0a7.11,7.11,0,0,0,1.52-4c1.14-3.93-.33-8.72-1.28-12.47l-0.14-.28-0.28-1c-0.19-.62-0.66-0.47-1-0.19-0.09-.47-0.24-0.95-0.33-1.47-0.19-.81-0.81-1-1.28-0.28" style="fill:#00a6e9"/><rect x="184.83" y="266.63" width="33.51" height="24.6" style="fill:none"/><rect x="184.83" y="266.63" width="33.51" height="24.6" style="fill:none"/><path d="M333.28,271.09c-0.95-.19-1.09,1.94-1.18,2.37,0,0.19-.14.62-0.24,1a0.81,0.81,0,0,0-.81.85l-0.14.14a0.57,0.57,0,0,0,.14.66c-0.19.19-.33,0.33-0.19,0.33l0.47,0.09a0.25,0.25,0,0,0,.09.14c-0.14.09-.24,0.19-0.19,0.19l0.62,0.09a0.65,0.65,0,0,0,.47.38,2.82,2.82,0,0,1-.14.52l0.81,0.14c0,0.09,0,.14,0,0.14,7.35,1.37,14.69,2.89,22.09,3.79a0.17,0.17,0,0,0,.14,0l0.62,0.09a0.68,0.68,0,0,0,.38-0.52h0.19a0.65,0.65,0,0,0,.85-0.43,0.52,0.52,0,0,0,0-.38h0a0.23,0.23,0,0,0,0-.19,3.5,3.5,0,0,0,1.18-.81,0.72,0.72,0,0,0,0-.81l0,0c0.24-.24,1.18-1.33.24-1.47l-0.28,0c0.24-.43.33-0.95-0.33-1l-1.09-.14c0.09-.52.09-1-0.28-1l-1.28-.14a0.48,0.48,0,0,0-.33-0.19c-7.39-.95-14.65-2.51-21.9-3.74" style="fill:#00a6e9"/><rect x="340.81" y="262.44" width="8.53" height="28.34" transform="translate(32.91 589.89) rotate(-83.82)" style="fill:none"/><rect x="340.81" y="262.44" width="8.53" height="28.34" transform="translate(32.91 589.89) rotate(-83.82)" style="fill:none"/><path d="M306.55,336.11h0c0.19-.09.43-0.14,0.62-0.24,0.76-.33.71-0.95,0-1.23a12.17,12.17,0,0,0-2.28,0,1.31,1.31,0,0,0-.43,0,0.5,0.5,0,0,0-.14-0.19,0.7,0.7,0,0,0,0-.62,0.83,0.83,0,0,0-1.23-.24,0.72,0.72,0,0,0-.76-0.14l-0.09,0a0.6,0.6,0,0,0-.62-0.09,15.78,15.78,0,0,1-5.88,1.28h-0.28l-0.81-.14a9.48,9.48,0,0,1-1.94-1.71,4.89,4.89,0,0,1-1.33-2.42,8.54,8.54,0,0,1-1.09-4,15.36,15.36,0,0,1,.09-2.09,9.6,9.6,0,0,1,.43-1.56,8.73,8.73,0,0,1,.43-1.18l0.52-.66a7.54,7.54,0,0,1,1.14-.95,12,12,0,0,1,3-1.47,40.76,40.76,0,0,1,4.17-.9,32.06,32.06,0,0,1,4.27-.09c0.66,0,.62-0.47.43-0.95h0.52c1.23,0-.28-1.66-0.38-1.71l-0.14-.14a13.32,13.32,0,0,1,1.37,0c0.85,0,.95-0.71.38-1.18-0.19-.09-0.38-0.19-0.62-0.28a0.91,0.91,0,0,0,1-.66c0-1-2.13-.9-2.61-0.95l-0.95,0a0.76,0.76,0,0,0-.66-0.85h-0.57l-0.28-.14h-1c-4.6-.19-9.72.47-13.18,3.79a10.92,10.92,0,0,0-3.08,3.51,20.52,20.52,0,0,0-2.09,9.24,13.38,13.38,0,0,0,1.56,6,8.18,8.18,0,0,0,.9,1.33,9.56,9.56,0,0,0,4.17,3.93,10.62,10.62,0,0,0,3.89,1.9c0.47,0.09.95,0.19,1.42,0.24a20.11,20.11,0,0,0,11.47-1.37c0.76-.33.28-0.95-0.19-1.33,0.52-.19,1-0.38,1.52-0.62,0.85-.38-0.43-1.09-0.71-1.18" style="fill:#00a6e9"/><rect x="282.47" y="310.61" width="25.12" height="30.38" style="fill:none"/><rect x="282.47" y="310.61" width="25.12" height="30.38" style="fill:none"/><path d="M246.5,185.06c3.32-.38,14-2.51,14-2.51s1-3.32.52-3.6a4.81,4.81,0,0,0-2.56-.43,0.75,0.75,0,0,0-.71-0.81l-0.38,0a0.59,0.59,0,0,0-.38-0.19l-0.52,0a0.23,0.23,0,0,0-.19,0l-13.37,1.14a0.7,0.7,0,0,1,.24.33l-0.62,0a0.59,0.59,0,0,0-.38-0.28,0.82,0.82,0,0,0-.57.09,0.18,0.18,0,0,0-.09-0.09c-0.19-.09-0.38-0.14-0.43.14a1.46,1.46,0,0,1,0,.47h0a0.3,0.3,0,0,0-.14-0.24c-0.28-.09-0.33.14-0.33,0.43h0a1,1,0,0,1-.19-0.62c0,0.28,0,.52,0,0.81a1.25,1.25,0,0,0-.33.71l-0.09.09a0.68,0.68,0,0,0-.62.24v0.28l-0.28,0q-0.85,12.23-2,24.31a0.25,0.25,0,0,0,.09.14c0,0.24,0,.43,0,0.66a0.6,0.6,0,0,0,.62.43v0.28a0.14,0.14,0,0,0,0,.19,1.07,1.07,0,0,0,.47.71V208c0.09,0.52.38,0.57,0.85,0.52h0.28c0.28,0.62.71,1.33,1.23,1.28h0.14a0.51,0.51,0,0,0,.52,0,1.67,1.67,0,0,0,.9.47c5.4-.14,15.69-1.09,15.69-1.09a2.68,2.68,0,0,0,.14-1.23l0.47,0c1-.14,1.47-3,0.9-3.27s-8-.76-14.12-0.85q0.5-3.06.71-6.11l5.88-.52a0.6,0.6,0,0,0,.66-0.52,1.94,1.94,0,0,0,.52,0c0.62,0,.47-0.81.47-0.81l0.52,0c1.09-.09,1.66-3.46,1.09-3.7s-5.36-.62-8.86-0.9v-1.47c0.09-1.52.19-3,.33-4.5" style="fill:#00a6e9"/><rect x="237.07" y="177.57" width="24.08" height="32.66" style="fill:none"/><rect x="237.07" y="177.57" width="24.08" height="32.66" style="fill:none"/><g style="clip-path:url(#h)"><path d="M357,196.86c-7.39.09-14.79,0.09-22.13,0.09-0.95,0-.71,2.18-0.71,2.61v0.19a1.26,1.26,0,0,0-.28.24,0.69,0.69,0,0,0-.76.62,0.6,0.6,0,0,0,0,.28,1.47,1.47,0,0,0,.09.38,0.26,0.26,0,0,0-.14.24,1,1,0,0,0,.09.52c-0.19.33-.24,0.66,0.24,0.66h0.28v0.09c-0.14.19-.19,0.38,0,0.38h0.19a1.19,1.19,0,0,1-.19.43h0.47a0.36,0.36,0,0,0,.19.09,0.32,0.32,0,0,1-.14.19h1q0,0.28.14,0.28c5,0,10,0,15-.09-1.71,1.42-3.41,2.8-5.17,4.08a49.2,49.2,0,0,1-8.25,4.79,1.67,1.67,0,0,0-.38,1.23v0.38l-1.71,0c-0.95,0-.85,2.09-0.9,2.56,0,0.14,0,.52-0.09.9a0.69,0.69,0,0,0-.71.66v0.28a0.25,0.25,0,0,0-.09.14,0.68,0.68,0,0,0,.19.71c-0.14.14-.24,0.28-0.14,0.28h0.43s0,0.09,0,.14-0.28.24-.14,0.24H334a1.55,1.55,0,0,0,.71.52h0l0.09,0a0.48,0.48,0,0,0,.19.28h0.43c0,0.19,0,.28.09,0.28q11.23,0.5,22.47.14a0.17,0.17,0,0,0,.09,0h0.62a0.5,0.5,0,0,0,.33-0.52h0a0.9,0.9,0,0,0,1-.62v-0.33l0.14-.14a0.6,0.6,0,0,0,0-.28l0.09,0a9.54,9.54,0,0,0,1.37-1c0.33-.52.09-0.81-0.33-0.9,0.33-.47.66-1.18-0.09-1.14h-0.47c0.09-.38,0-0.71-0.47-0.71l-1.14,0c0.09-.57,0-1-0.38-1l-1.18,0a0.5,0.5,0,0,0-.43-0.24c-3.18.09-6.3,0.14-9.48,0.09,4-2.84,7.63-6.16,11.38-9.29a0.56,0.56,0,0,0,0-.62,0.36,0.36,0,0,0,.09-0.19l0.81-.66c0.38-.33.81-0.9,0.28-1.28a1.63,1.63,0,0,0,.57-1,0.43,0.43,0,0,0-.14-0.33,0.8,0.8,0,0,0-.14-0.47l0.09-.14c0.24-.28.76-1.33-0.09-1.37h0c0.24-.52.47-1.33-0.33-1.28h-1c0-.52,0-1-0.47-1H357.5a0.6,0.6,0,0,0-.43-0.19" style="fill:#00a6e9"/></g><rect x="333" y="196.86" width="28.82" height="24.84" style="fill:none"/><path d="M273.14,322.23c-0.09-1-.14-2-0.24-3a14.33,14.33,0,0,0-1.28-4.83c-1.14-2-3-2.8-5.12-3.13a5.57,5.57,0,0,0-2.7-1,6.4,6.4,0,0,0-1.33-.19c-3-.47-6.45,1.18-8.82,3.32a11.7,11.7,0,0,0-3.7,4.22,7.44,7.44,0,0,0-.81,2.51,7.33,7.33,0,0,0-.33,1.09,14.68,14.68,0,0,0-.24,4.31,1.31,1.31,0,0,0,0,.43,0.77,0.77,0,0,1,0,.33c0.47,5,1,10,1.56,15a0.94,0.94,0,0,0,.47,0c0,0.28,0,.62.09,0.9s0.33,0.19.62,0.14a0.68,0.68,0,0,0,.33.09,0.81,0.81,0,0,0,1.28.62c0.47,0.24,1,.28,1.18-0.19,0.52,0.14.9,0,.9-0.57v-0.47c1.18,0.14,2.28,0,2.23-.33-0.19-1.52-.33-3-0.47-4.5-0.09-1-.14-2-0.24-3,3.32-.09,6.59-0.33,9.91-0.62,0,2.23.14,4.46,0.19,6.68a0.75,0.75,0,0,0,.62.47v0.24a0.81,0.81,0,0,0,.71.76,0.68,0.68,0,0,0,.33-0.09s0.09,0,.14,0h0.14a2.54,2.54,0,0,0,.76,1,0.8,0.8,0,0,0,.9-0.14l0,0c0.28,0.19,1.14.62,1.18-.14v-0.19c0.47,0.19,1,.28,1-0.43v-1c0.85,0.09,1.47,0,1.47-.28C273.7,334.36,273.85,328.2,273.14,322.23Zm-17,6.3c-0.09-1.28-.19-2.61-0.24-3.89a14.31,14.31,0,0,1,.14-2.84,5.41,5.41,0,0,1,.43-1.23A3.26,3.26,0,0,1,257,320h0a14.54,14.54,0,0,1,3.18-2.18c0.33-.09.62-0.14,0.95-0.24l3.55-.24a2.31,2.31,0,0,1,.33.14,12.43,12.43,0,0,1,.66,3c0.28,2.13.43,4.27,0.57,6.4Q261.21,327.75,256.17,328.53Z" style="fill:#00a6e9"/><rect x="248.44" y="309.95" width="25.4" height="33.23" style="fill:none"/><rect x="248.44" y="309.95" width="25.4" height="33.23" style="fill:none"/><path d="M213.18,240.44c-0.52-3.18-1.8-6.3-4.31-8.29a11.84,11.84,0,0,0-2.75-2,10.58,10.58,0,0,0-5.36-2.37H200.1a7.11,7.11,0,0,0-4,.14,9.38,9.38,0,0,0-4.41,3.37,2.72,2.72,0,0,0-.38,2l-0.43.47a0.54,0.54,0,0,0-.38.33c-0.19.28-.33,0.62-0.52,0.9-0.14-.33-0.43-0.62-0.81-0.28a3.54,3.54,0,0,0-1.28,1.23,12.16,12.16,0,0,0-.95,2.89,7.51,7.51,0,0,0-.9,2.09,7.69,7.69,0,0,0-.38,2.32c0,0.28,0,.52-0.09.81a5,5,0,0,0,0,1.18,9.34,9.34,0,0,0,.52,3.41,11.19,11.19,0,0,0,1.85,3.27,8.08,8.08,0,0,0,1.09,1.42,15.86,15.86,0,0,0,8.06,4.27,9.79,9.79,0,0,0,4.22.24l0.19,0a2.31,2.31,0,0,0,.57,0,14.87,14.87,0,0,0,7.35-4,11.28,11.28,0,0,0,1.85-2.84,2.63,2.63,0,0,1,.28-0.38,11,11,0,0,0,1.61-5.17A12.77,12.77,0,0,0,213.18,240.44Zm-6.07,6.07a11,11,0,0,1-2.18,2.28,9.32,9.32,0,0,1-6,1.85,11.15,11.15,0,0,1-2.46-.66l-0.95-.43-0.28-.19a11.18,11.18,0,0,1-2.51-3.41c-0.14-.33-0.24-0.66-0.38-1v-0.62a29.91,29.91,0,0,1,1-6.16,0.31,0.31,0,0,0,.28,0,4.27,4.27,0,0,1,.43-0.47,1.49,1.49,0,0,0,1.09-.24,9.45,9.45,0,0,1,1.9-2l2-.66h0.14a3.7,3.7,0,0,1,1,.14,10.8,10.8,0,0,1,3.6,2.18,8.9,8.9,0,0,1,1.14,1.18,14.27,14.27,0,0,1,2.23,4.88c0.14,0.47.19,1,.28,1.47A12.25,12.25,0,0,1,207.11,246.51Z" style="fill:#00a6e9"/></g><rect x="289.6" y="245.35" width="94.5" height="125.99" transform="translate(645.2 -28.5) rotate(90)" style="fill:none;stroke:#00aeef;stroke-linecap:round;stroke-linejoin:round;stroke-width:4px"/><rect x="271.85" y="196.79" width="130" height="15.48" style="fill:#fff;stroke:#00aeef;stroke-linecap:round;stroke-linejoin:round;stroke-width:4.330041150275831px"/><line x1="413.5" y1="380" x2="413.5" y2="377" style="fill:none;stroke:#00aeef;stroke-linecap:round;stroke-linejoin:round"/><line x1="413.5" y1="364" x2="413.5" y2="223" style="fill:none;stroke:#00aeef;stroke-linecap:round;stroke-linejoin:round;stroke-dasharray:5,13"/><line x1="413.5" y1="217" x2="413.5" y2="214" style="fill:none;stroke:#00aeef;stroke-linecap:round;stroke-linejoin:round"/><path d="M423.69,400.85a6.8,6.8,0,0,0-7.1-2.1l-2.79-3.44,9.26-13.21a2.53,2.53,0,0,0-.33-3.35L421,377.38l-10.88,13.43-10.88-13.43-1.69,1.37a2.53,2.53,0,0,0-.33,3.35l9.26,13.21-2.79,3.44a6.8,6.8,0,0,0-7.1,2.1,6.6,6.6,0,1,0,11.69,3.46,6.65,6.65,0,0,0-.15-0.71l2-3,2,3a6.67,6.67,0,0,0-.14.71A6.6,6.6,0,1,0,423.69,400.85Zm-19.59,6a3.07,3.07,0,0,1-4.22.44A3,3,0,1,1,404.1,406.89Zm6.06-9.68a1.8,1.8,0,1,1,1.8-1.8A1.8,1.8,0,0,1,410.16,397.2Zm10.29,10.13a3.06,3.06,0,0,1-4.22-.44,3,3,0,0,1,.44-4.22A3,3,0,1,1,420.45,407.33Z" style="fill:#fff;stroke:#00aeef;stroke-linecap:round;stroke-linejoin:round;stroke-width:2.155355465244201px"/><line x1="420" y1="231.5" x2="417" y2="231.5" style="fill:none;stroke:#00aeef;stroke-linecap:round;stroke-linejoin:round"/><line x1="404" y1="231.5" x2="263" y2="231.5" style="fill:none;stroke:#00aeef;stroke-linecap:round;stroke-linejoin:round;stroke-dasharray:5,13"/><line x1="257" y1="231.5" x2="254" y2="231.5" style="fill:none;stroke:#00aeef;stroke-linecap:round;stroke-linejoin:round"/><path d="M442.72,218.46a6.8,6.8,0,0,0-2.1,7.1l-3.44,2.79L424,219.09a2.53,2.53,0,0,0-3.35.33l-1.37,1.69L432.68,232l-13.43,10.88,1.37,1.69a2.53,2.53,0,0,0,3.35.33l13.21-9.26,3.44,2.79a6.8,6.8,0,0,0,2.1,7.1,6.6,6.6,0,1,0,3.46-11.69,6.65,6.65,0,0,0-.71.15l-3-2,3-2a6.67,6.67,0,0,0,.71.14A6.6,6.6,0,1,0,442.72,218.46Zm6,19.59a3.07,3.07,0,0,1,.44,4.22A3,3,0,1,1,448.75,238.05ZM439.07,232a1.8,1.8,0,1,1-1.8-1.8A1.8,1.8,0,0,1,439.07,232ZM449.2,221.7a3.06,3.06,0,0,1-.44,4.22,3,3,0,0,1-4.22-.44A3,3,0,1,1,449.2,221.7Z" style="fill:#fff;stroke:#00aeef;stroke-linecap:round;stroke-linejoin:round;stroke-width:2.155355465244201px"/></svg>