<svg xmlns="http://www.w3.org/2000/svg" viewBox="0 0 637.47 362"><title>inst</title><path d="M566.51,67H528.9a11.06,11.06,0,0,0-7.1,2.5C517.42,73.19,518,79,518,79.44V100h-4.16l-5.35-28.93A13.5,13.5,0,0,0,495.39,60H420.49a13.5,13.5,0,0,0-13.15,11.07L402,100H398V79.11A11.67,11.67,0,0,0,395,70.65,11.39,11.39,0,0,0,386.41,67H348.79c-4,0-7.83.33-10.49,3.5A14.46,14.46,0,0,0,335,79.44V100h-2l-5.35-28.93A13.5,13.5,0,0,0,314.5,60H239.59a13.5,13.5,0,0,0-13.15,11.07L221.1,100h-3l-18.46,1.89c-2.91.61-3.54,3.18-3.54,6.16V248.58c0,3,.65,5.54,3.56,6.16L218,258h3.1l5.3,30.3c1.18,6.33,6.7,12.7,13.15,12.7H314.5c6.44,0,12-6.37,13.15-12.7L333,258H335v18.53A13.22,13.22,0,0,0,349.69,290h36a12.35,12.35,0,0,0,8.66-3.33A12.51,12.51,0,0,0,398,277.1V258h4l5.3,30.3c1.18,6.33,6.7,12.7,13.15,12.7h74.91c6.44,0,12-6.37,13.15-12.7l5.3-30.3H518v18.76a12.17,12.17,0,0,0,2.33,8.58,12.42,12.42,0,0,0,9.17,4.67h36.27A11.92,11.92,0,0,0,577,277.1v-198a11.59,11.59,0,0,0-3.5-9.36A11.05,11.05,0,0,0,566.51,67Z" style="fill:#eaf5f8;stroke:#00aeef;stroke-linecap:round;stroke-linejoin:round;stroke-width:4px"/><line x1="573.93" y1="258.17" x2="572.43" y2="258.17" style="fill:none;stroke:#00aeef;stroke-linecap:round;stroke-linejoin:round;stroke-width:2px"/><line x1="566.4" y1="258.17" x2="225.97" y2="258.17" style="fill:none;stroke:#00aeef;stroke-linecap:round;stroke-linejoin:round;stroke-width:2px;stroke-dasharray:3.012716770172119,6.025433540344238"/><polyline points="222.95 258.17 221.45 258.17 221.45 256.67" style="fill:none;stroke:#00aeef;stroke-linecap:round;stroke-linejoin:round;stroke-width:2px"/><line x1="221.45" y1="250.78" x2="221.45" y2="103.62" style="fill:none;stroke:#00aeef;stroke-linecap:round;stroke-linejoin:round;stroke-width:2px;stroke-dasharray:2.9432742595672607,5.8865485191345215"/><polyline points="221.45 100.67 221.45 99.17 222.95 99.17" style="fill:none;stroke:#00aeef;stroke-linecap:round;stroke-linejoin:round;stroke-width:2px"/><line x1="228.95" y1="99.17" x2="567.43" y2="99.17" style="fill:none;stroke:#00aeef;stroke-linecap:round;stroke-linejoin:round;stroke-width:2px;stroke-dasharray:2.9954755306243896,5.990951061248779"/><line x1="570.43" y1="99.17" x2="571.93" y2="99.17" style="fill:none;stroke:#00aeef;stroke-linecap:round;stroke-linejoin:round;stroke-width:2px"/><line x1="333.96" y1="258.14" x2="333.96" y2="256.64" style="fill:none;stroke:#00aeef;stroke-linecap:round;stroke-linejoin:round;stroke-width:2px"/><line x1="333.96" y1="250.72" x2="333.96" y2="102.68" style="fill:none;stroke:#00aeef;stroke-linecap:round;stroke-linejoin:round;stroke-width:2px;stroke-dasharray:2.9607231616973877,5.921446323394775"/><line x1="333.96" y1="99.72" x2="333.96" y2="98.22" style="fill:none;stroke:#00aeef;stroke-linecap:round;stroke-linejoin:round;stroke-width:2px"/><line x1="400.55" y1="98.22" x2="400.55" y2="99.72" style="fill:none;stroke:#00aeef;stroke-linecap:round;stroke-linejoin:round;stroke-width:2px"/><line x1="400.55" y1="105.65" x2="400.55" y2="253.68" style="fill:none;stroke:#00aeef;stroke-linecap:round;stroke-linejoin:round;stroke-width:2px;stroke-dasharray:2.9607231616973877,5.921446323394775"/><line x1="400.55" y1="256.64" x2="400.55" y2="258.14" style="fill:none;stroke:#00aeef;stroke-linecap:round;stroke-linejoin:round;stroke-width:2px"/><line x1="515.12" y1="98.22" x2="515.12" y2="99.72" style="fill:none;stroke:#00aeef;stroke-linecap:round;stroke-linejoin:round;stroke-width:2px"/><line x1="515.12" y1="105.65" x2="515.12" y2="253.68" style="fill:none;stroke:#00aeef;stroke-linecap:round;stroke-linejoin:round;stroke-width:2px;stroke-dasharray:2.9607231616973877,5.921446323394775"/><line x1="515.12" y1="256.64" x2="515.12" y2="258.14" style="fill:none;stroke:#00aeef;stroke-linecap:round;stroke-linejoin:round;stroke-width:2px"/><path d="M142,174.73L74.35,197.47l-9.66-9.27a3.07,3.07,0,0,1-.94-2.12L60,70a4.61,4.61,0,0,1,4.36-4.75l75.95-4a6.06,6.06,0,0,1,2.37.35l11.53,4.14Z" style="fill:#fff;stroke:#00aeef;stroke-linecap:round;stroke-linejoin:round;stroke-width:4px"/><path d="M151.27,182.1L77.17,197.74a3.07,3.07,0,0,1-3.7-2.91L69.78,73a3.07,3.07,0,0,1,2.9-3.16l80.1-4.32a4.61,4.61,0,0,1,4.85,4.77L153.7,179.21A3.07,3.07,0,0,1,151.27,182.1Z" style="fill:#fff;stroke:#00aeef;stroke-linecap:round;stroke-linejoin:round;stroke-width:4px"/><line x1="62.74" y1="66.22" x2="70.44" y2="70.37" style="fill:#fff;stroke:#00aeef;stroke-linecap:round;stroke-linejoin:round;stroke-width:4px"/><path d="M207,169.05L194.22,134.8a2.45,2.45,0,0,0-4.62.08l-3.29,9.8-27.74-21.59a3.27,3.27,0,0,0-4.59.57l-8.54,11a3.27,3.27,0,0,0,.57,4.59l27.74,21.59-8.33,5.27a2.45,2.45,0,0,0,1,4.51l36.24,4A4.09,4.09,0,0,0,207,169.05Z" style="fill:#fff;stroke:#00aeef;stroke-linecap:round;stroke-linejoin:round;stroke-width:4px"/></svg>