<svg xmlns="http://www.w3.org/2000/svg" viewBox="0 0 577.06 430"><title>inst</title><path d="M293.64,86.92c0-3.22-.58-5.89-2.81-8.21a10.64,10.64,0,0,0-8.33-3.4H244.88c-4,0-8.08.08-10.74,3.25a15.59,15.59,0,0,0-3.5,8.69v18.06h63V86.92Z" style="fill:#eaf5f8;stroke:#00aeef;stroke-linecap:round;stroke-linejoin:round;stroke-width:4px"/><path d="M404.63,79.12a13.27,13.27,0,0,0-13.15-10.81H316.58a13.27,13.27,0,0,0-13.15,10.81l-4.89,26.19h111Z" style="fill:#eaf5f8;stroke:#00aeef;stroke-linecap:round;stroke-linejoin:round;stroke-width:4px"/><path d="M472.64,86.92c0-3.28.45-6.37-1.33-8.44-2-2.33-4-3.17-8.7-3.17H425c-2.51.17-5.85,0-8,2.33-2.83,2.83-3.17,5.5-3.33,9.61v18.06h59V86.92Z" style="fill:#eaf5f8;stroke:#00aeef;stroke-linecap:round;stroke-linejoin:round;stroke-width:4px"/><path d="M223.74,79.12A13.27,13.27,0,0,0,210.6,68.31H135.69a13.27,13.27,0,0,0-13.15,10.81l-4.89,26.19h111Z" style="fill:#eaf5f8;stroke:#00aeef;stroke-linecap:round;stroke-linejoin:round;stroke-width:4px"/><path d="M84.14,138.31l-18.71,1.64c-2.91.61-3.79,2.93-3.79,5.91V286.39c0,3,.9,5.79,3.81,6.41l18.69,3.51h0.5v-158h-0.5Z" style="fill:#eaf5f8;stroke:#00aeef;stroke-linecap:round;stroke-linejoin:round;stroke-width:4px"/><path d="M122.54,356.52c1.18,6.33,6.7,12.78,13.15,12.78H210.6c6.44,0,12-6.45,13.15-12.78l4.92-28.22h-111Z" style="fill:#eaf5f8;stroke:#00aeef;stroke-linecap:round;stroke-linejoin:round;stroke-width:4px"/><path d="M413.64,328.31v16.26a14.1,14.1,0,0,0,2.58,8.83,11.31,11.31,0,0,0,9.42,4.92h36.27c2.1,0,7-.25,9-3s1.75-7.25,1.75-10.4v-16.6h-59Z" style="fill:#eaf5f8;stroke:#00aeef;stroke-linecap:round;stroke-linejoin:round;stroke-width:4px"/><path d="M303.43,356.52c1.18,6.33,6.7,12.78,13.15,12.78h74.91c6.44,0,12-6.45,13.15-12.78l4.92-28.22h-111Z" style="fill:#eaf5f8;stroke:#00aeef;stroke-linecap:round;stroke-linejoin:round;stroke-width:4px"/><path d="M230.64,344.34a14.88,14.88,0,0,0,4.25,10.06c4.35,4.23,10.13,3.92,10.9,3.92h36a12.18,12.18,0,0,0,8.08-4,13.19,13.19,0,0,0,3.75-9.4v-16.6h-63v16Z" style="fill:#eaf5f8;stroke:#00aeef;stroke-linecap:round;stroke-linejoin:round;stroke-width:4px"/><polygon points="472.64 296.87 472.64 135.64 472.64 135.31 413.64 135.31 413.64 138.31 409.98 138.31 409.52 135.31 298.54 135.31 298.08 138.31 293.64 138.31 293.64 135.31 230.64 135.31 230.64 138.31 229.09 138.31 228.63 135.31 117.65 135.31 117.19 138.31 114.64 138.31 114.64 296.31 117.24 296.31 117.62 298.31 228.66 298.31 229.04 296.31 230.64 296.31 230.64 298.31 293.64 298.31 293.64 296.31 298.13 296.31 298.51 298.31 409.56 298.31 409.93 296.31 413.64 296.31 413.64 298.31 472.64 298.31 472.64 296.87" style="fill:#eaf5f8;stroke:#00aeef;stroke-linecap:round;stroke-linejoin:round;stroke-width:4px"/><line x1="230.05" y1="296.95" x2="230.05" y2="295.45" style="fill:none;stroke:#00aeef;stroke-linecap:round;stroke-linejoin:round;stroke-width:2px"/><line x1="230.05" y1="289.29" x2="230.05" y2="144.61" style="fill:none;stroke:#00aeef;stroke-linecap:round;stroke-linejoin:round;stroke-width:2px;stroke-dasharray:3.07836651802063,6.15673303604126"/><line x1="230.05" y1="141.53" x2="230.05" y2="140.03" style="fill:none;stroke:#00aeef;stroke-linecap:round;stroke-linejoin:round;stroke-width:2px"/><line x1="295.64" y1="140.03" x2="295.64" y2="141.53" style="fill:none;stroke:#00aeef;stroke-linecap:round;stroke-linejoin:round;stroke-width:2px"/><line x1="295.64" y1="147.69" x2="295.64" y2="292.37" style="fill:none;stroke:#00aeef;stroke-linecap:round;stroke-linejoin:round;stroke-width:2px;stroke-dasharray:3.07836651802063,6.15673303604126"/><line x1="295.64" y1="295.45" x2="295.64" y2="296.95" style="fill:none;stroke:#00aeef;stroke-linecap:round;stroke-linejoin:round;stroke-width:2px"/><line x1="411.21" y1="140.03" x2="411.21" y2="141.53" style="fill:none;stroke:#00aeef;stroke-linecap:round;stroke-linejoin:round;stroke-width:2px"/><line x1="411.21" y1="147.69" x2="411.21" y2="292.37" style="fill:none;stroke:#00aeef;stroke-linecap:round;stroke-linejoin:round;stroke-width:2px;stroke-dasharray:3.07836651802063,6.15673303604126"/><line x1="411.21" y1="295.45" x2="411.21" y2="296.95" style="fill:none;stroke:#00aeef;stroke-linecap:round;stroke-linejoin:round;stroke-width:2px"/><polygon points="414 297 409.93 297 409.23 301 414 301 414 297" style="fill:none"/><polygon points="229.09 139 231 139 231 134 228.17 134 229.09 139" style="fill:none"/><polygon points="231 297 229.04 297 228.34 301 231 301 231 297" style="fill:none"/><polygon points="298.13 297 294 297 294 301 298.83 301 298.13 297" style="fill:none"/><polygon points="409.98 139 414 139 414 134 409.06 134 409.98 139" style="fill:none"/><polygon points="294 139 298.08 139 299.01 134 294 134 294 139" style="fill:none"/><line x1="82" y1="312.5" x2="85" y2="312.5" style="fill:none;stroke:#00aeef;stroke-linecap:round;stroke-linejoin:round"/><line x1="97" y1="312.5" x2="498" y2="312.5" style="fill:none;stroke:#00aeef;stroke-linecap:round;stroke-linejoin:round;stroke-dasharray:5,13"/><line x1="505" y1="312.5" x2="507" y2="312.5" style="fill:none;stroke:#00aeef;stroke-linecap:round;stroke-linejoin:round"/><line x1="104.5" y1="93" x2="104.5" y2="95" style="fill:none;stroke:#00aeef;stroke-linecap:round;stroke-linejoin:round"/><line x1="104.5" y1="108" x2="104.5" y2="334" style="fill:none;stroke:#00aeef;stroke-linecap:round;stroke-linejoin:round;stroke-dasharray:5,13"/><line x1="104.5" y1="340" x2="104.5" y2="343" style="fill:none;stroke:#00aeef;stroke-linecap:round;stroke-linejoin:round"/><line x1="508" y1="123.5" x2="506" y2="123.5" style="fill:none;stroke:#00aeef;stroke-linecap:round;stroke-linejoin:round"/><line x1="493" y1="123.5" x2="91" y2="123.5" style="fill:none;stroke:#00aeef;stroke-linecap:round;stroke-linejoin:round;stroke-dasharray:5,13"/><line x1="85" y1="123.5" x2="82" y2="123.5" style="fill:none;stroke:#00aeef;stroke-linecap:round;stroke-linejoin:round"/><path d="M90.4,70.75a6.8,6.8,0,0,0,7.1,2.1l2.79,3.44L91,89.5a2.53,2.53,0,0,0,.33,3.35L93,94.22l10.88-13.43L114.8,94.22l1.69-1.37a2.53,2.53,0,0,0,.33-3.35l-9.26-13.21,2.79-3.44a6.8,6.8,0,0,0,7.1-2.1,6.6,6.6,0,1,0-11.69-3.46,6.65,6.65,0,0,0,.15.71l-2,3-2-3a6.67,6.67,0,0,0,.14-0.71A6.6,6.6,0,1,0,90.4,70.75Zm19.59-6a3.07,3.07,0,0,1,4.22-.44A3,3,0,1,1,110,64.71Zm-6.06,9.68a1.8,1.8,0,1,1-1.8,1.8A1.8,1.8,0,0,1,103.93,74.4ZM93.64,64.27a3.06,3.06,0,0,1,4.22.44,3,3,0,0,1-.44,4.22A3,3,0,1,1,93.64,64.27Z" style="fill:#fff;stroke:#00aeef;stroke-linecap:round;stroke-linejoin:round;stroke-width:2.155355465244201px"/><path d="M70.75,328.35a6.8,6.8,0,0,0,2.1-7.1l3.44-2.79,13.21,9.26a2.53,2.53,0,0,0,3.35-.33l1.37-1.69L80.78,314.82l13.43-10.88-1.37-1.69a2.53,2.53,0,0,0-3.35-.33l-13.21,9.26-3.44-2.79a6.8,6.8,0,0,0-2.1-7.1A6.6,6.6,0,1,0,67.29,313a6.65,6.65,0,0,0,.71-0.15l3,2-3,2a6.67,6.67,0,0,0-.71-0.14A6.6,6.6,0,1,0,70.75,328.35Zm-6-19.59a3.07,3.07,0,0,1-.44-4.22A3,3,0,1,1,64.71,308.76Zm9.68,6.06a1.8,1.8,0,1,1,1.8,1.8A1.8,1.8,0,0,1,74.4,314.82ZM64.27,325.11a3.06,3.06,0,0,1,.44-4.22,3,3,0,0,1,4.22.44A3,3,0,1,1,64.27,325.11Z" style="fill:#fff;stroke:#00aeef;stroke-linecap:round;stroke-linejoin:round;stroke-width:2.155355465244201px"/><path d="M524.63,110.07a6.8,6.8,0,0,0-2.1,7.1L519.1,120l-13.21-9.26a2.53,2.53,0,0,0-3.35.33l-1.37,1.69L514.6,123.6l-13.43,10.88,1.37,1.69a2.53,2.53,0,0,0,3.35.33l13.21-9.26,3.44,2.79a6.8,6.8,0,0,0,2.1,7.1,6.6,6.6,0,1,0,3.46-11.69,6.65,6.65,0,0,0-.71.15l-3-2,3-2a6.67,6.67,0,0,0,.71.14A6.6,6.6,0,1,0,524.63,110.07Zm6,19.59a3.07,3.07,0,0,1,.44,4.22A3,3,0,1,1,530.67,129.67ZM521,123.6a1.8,1.8,0,1,1-1.8-1.8A1.8,1.8,0,0,1,521,123.6Zm10.13-10.29a3.06,3.06,0,0,1-.44,4.22,3,3,0,0,1-4.22-.44A3,3,0,1,1,531.11,113.32Z" style="fill:#fff;stroke:#00aeef;stroke-linecap:round;stroke-linejoin:round;stroke-width:2.155355465244201px"/></svg>