<svg xmlns="http://www.w3.org/2000/svg" viewBox="0 0 480.53 432"><title>inst</title><polygon points="176.45 64 178 64 178 59 175.53 59 176.45 64" style="fill:none"/><polygon points="357.34 64 361 64 361 59 356.42 59 357.34 64" style="fill:none"/><polygon points="241 64 245.44 64 246.37 59 241 59 241 64" style="fill:none"/><polygon points="416 223.3 416 62.07 416 61.74 357 61.74 357 64.74 353.34 64.74 352.88 61.74 241.9 61.74 241.44 64.74 237 64.74 237 61.74 174 61.74 174 64.74 172.45 64.74 171.99 61.74 61.01 61.74 60.55 64.74 58 64.74 58 222.74 60.6 222.74 60.98 224.74 172.02 224.74 172.4 222.74 174 222.74 174 224.74 237 224.74 237 222.74 241.49 222.74 241.87 224.74 352.91 224.74 353.29 222.74 357 222.74 357 224.74 416 224.74 416 223.3" style="fill:#eaf5f8;stroke:#00aeef;stroke-linecap:round;stroke-linejoin:round;stroke-width:4px"/><line x1="173.41" y1="223.39" x2="173.41" y2="221.89" style="fill:none;stroke:#00aeef;stroke-linecap:round;stroke-linejoin:round;stroke-width:2px"/><line x1="173.41" y1="215.73" x2="173.41" y2="71.05" style="fill:none;stroke:#00aeef;stroke-linecap:round;stroke-linejoin:round;stroke-width:2px;stroke-dasharray:3.07836651802063,6.15673303604126"/><line x1="173.41" y1="67.97" x2="173.41" y2="66.47" style="fill:none;stroke:#00aeef;stroke-linecap:round;stroke-linejoin:round;stroke-width:2px"/><line x1="239" y1="66.47" x2="239" y2="67.97" style="fill:none;stroke:#00aeef;stroke-linecap:round;stroke-linejoin:round;stroke-width:2px"/><line x1="239" y1="74.12" x2="239" y2="218.81" style="fill:none;stroke:#00aeef;stroke-linecap:round;stroke-linejoin:round;stroke-width:2px;stroke-dasharray:3.07836651802063,6.15673303604126"/><line x1="239" y1="221.89" x2="239" y2="223.39" style="fill:none;stroke:#00aeef;stroke-linecap:round;stroke-linejoin:round;stroke-width:2px"/><line x1="354.57" y1="66.47" x2="354.57" y2="67.97" style="fill:none;stroke:#00aeef;stroke-linecap:round;stroke-linejoin:round;stroke-width:2px"/><line x1="354.57" y1="74.12" x2="354.57" y2="218.81" style="fill:none;stroke:#00aeef;stroke-linecap:round;stroke-linejoin:round;stroke-width:2px;stroke-dasharray:3.07836651802063,6.15673303604126"/><line x1="354.57" y1="221.89" x2="354.57" y2="223.39" style="fill:none;stroke:#00aeef;stroke-linecap:round;stroke-linejoin:round;stroke-width:2px"/><polygon points="357 224 353.29 224 352.59 228 357 228 357 224" style="fill:none"/><polygon points="174 224 172.4 224 171.7 228 174 228 174 224" style="fill:none"/><polygon points="241.49 224 237 224 237 228 242.19 228 241.49 224" style="fill:none"/><polygon points="422 367.3 422 206.07 422 205.74 363 205.74 363 208.74 359.34 208.74 358.88 205.74 247.9 205.74 247.44 208.74 243 208.74 243 205.74 180 205.74 180 208.74 178.45 208.74 177.99 205.74 67.01 205.74 66.55 208.74 64 208.74 64 366.74 66.6 366.74 66.98 368.74 178.02 368.74 178.4 366.74 180 366.74 180 368.74 243 368.74 243 366.74 247.49 366.74 247.87 368.74 358.91 368.74 359.29 366.74 363 366.74 363 368.74 422 368.74 422 367.3" style="fill:#eaf5f8;fill-opacity:0.8;stroke:#00aeef;stroke-linecap:round;stroke-linejoin:round;stroke-width:4px"/><line x1="179.41" y1="367.39" x2="179.41" y2="365.89" style="fill:none;stroke:#00aeef;stroke-linecap:round;stroke-linejoin:round;stroke-width:2px"/><line x1="179.41" y1="359.73" x2="179.41" y2="215.05" style="fill:none;stroke:#00aeef;stroke-linecap:round;stroke-linejoin:round;stroke-width:2px;stroke-dasharray:3.07836651802063,6.15673303604126"/><line x1="179.41" y1="211.97" x2="179.41" y2="210.47" style="fill:none;stroke:#00aeef;stroke-linecap:round;stroke-linejoin:round;stroke-width:2px"/><line x1="245" y1="210.47" x2="245" y2="211.97" style="fill:none;stroke:#00aeef;stroke-linecap:round;stroke-linejoin:round;stroke-width:2px"/><line x1="245" y1="218.12" x2="245" y2="362.81" style="fill:none;stroke:#00aeef;stroke-linecap:round;stroke-linejoin:round;stroke-width:2px;stroke-dasharray:3.07836651802063,6.15673303604126"/><line x1="245" y1="365.89" x2="245" y2="367.39" style="fill:none;stroke:#00aeef;stroke-linecap:round;stroke-linejoin:round;stroke-width:2px"/><line x1="360.57" y1="210.47" x2="360.57" y2="211.97" style="fill:none;stroke:#00aeef;stroke-linecap:round;stroke-linejoin:round;stroke-width:2px"/><line x1="360.57" y1="218.12" x2="360.57" y2="362.81" style="fill:none;stroke:#00aeef;stroke-linecap:round;stroke-linejoin:round;stroke-width:2px;stroke-dasharray:3.07836651802063,6.15673303604126"/><line x1="360.57" y1="365.89" x2="360.57" y2="367.39" style="fill:none;stroke:#00aeef;stroke-linecap:round;stroke-linejoin:round;stroke-width:2px"/><polygon points="363 368 359.29 368 358.59 372 363 372 363 368" style="fill:none"/><polygon points="178.45 210 180 210 180 205 177.53 205 178.45 210" style="fill:none"/><polygon points="180 368 178.4 368 177.7 372 180 372 180 368" style="fill:none"/><polygon points="247.49 368 243 368 243 372 248.19 372 247.49 368" style="fill:none"/><polygon points="359.34 210 363 210 363 205 358.42 205 359.34 210" style="fill:none"/><polygon points="243 210 247.44 210 248.37 205 243 205 243 210" style="fill:none"/></svg>