<svg xmlns="http://www.w3.org/2000/svg" viewBox="0 0 576.49 431"><title>inst</title><path d="M77.28,290l6.57,4.57a1,1,0,0,0,1.39-.25l9.14-13.13a1,1,0,0,0-.25-1.39l-6.57-4.57c-20.07-14-30.88-36.73-28.23-59.38,2.53-21.61,19-37.72,25.53-43.06L89.35,185a2,2,0,0,0,3.79-.11l21.78-44.07a1,1,0,0,0-1-1.32l-45.88,8.6a2,2,0,0,0-1.28,3.5L76,159.65c-9.17,7.29-31.18,25.75-34.51,54.11C38,243,51.75,272.24,77.28,290Z" style="fill:#fff;stroke:#00aeef;stroke-linecap:round;stroke-linejoin:round;stroke-width:4px"/><polygon points="404 223 400.62 223 399.92 227 404 227 404 223" style="fill:none"/><polygon points="221 223 219.72 223 219.03 227 221 227 221 223" style="fill:none"/><polygon points="288.81 223 284 223 284 227 289.51 227 288.81 223" style="fill:none"/><polygon points="463.32 222.06 463.32 60.83 463.32 60.5 404.32 60.5 404.32 63.5 400.67 63.5 400.2 60.5 289.23 60.5 288.76 63.5 284.32 63.5 284.32 60.5 221.32 60.5 221.32 63.5 219.77 63.5 219.31 60.5 108.33 60.5 107.87 63.5 105.32 63.5 105.32 221.5 107.92 221.5 108.3 223.5 219.35 223.5 219.73 221.5 221.32 221.5 221.32 223.5 284.32 223.5 284.32 221.5 288.81 221.5 289.19 223.5 400.24 223.5 400.62 221.5 404.32 221.5 404.32 223.5 463.32 223.5 463.32 222.06" style="fill:#eaf5f8;stroke:#00aeef;stroke-linecap:round;stroke-linejoin:round;stroke-width:4px"/><line x1="220.74" y1="222.14" x2="220.74" y2="220.64" style="fill:none;stroke:#00aeef;stroke-linecap:round;stroke-linejoin:round;stroke-width:2px"/><line x1="220.74" y1="214.49" x2="220.74" y2="69.8" style="fill:none;stroke:#00aeef;stroke-linecap:round;stroke-linejoin:round;stroke-width:2px;stroke-dasharray:3.07836651802063,6.15673303604126"/><line x1="220.74" y1="66.72" x2="220.74" y2="65.22" style="fill:none;stroke:#00aeef;stroke-linecap:round;stroke-linejoin:round;stroke-width:2px"/><line x1="286.33" y1="65.22" x2="286.33" y2="66.72" style="fill:none;stroke:#00aeef;stroke-linecap:round;stroke-linejoin:round;stroke-width:2px"/><line x1="286.33" y1="72.88" x2="286.33" y2="217.56" style="fill:none;stroke:#00aeef;stroke-linecap:round;stroke-linejoin:round;stroke-width:2px;stroke-dasharray:3.07836651802063,6.15673303604126"/><line x1="286.33" y1="220.64" x2="286.33" y2="222.14" style="fill:none;stroke:#00aeef;stroke-linecap:round;stroke-linejoin:round;stroke-width:2px"/><line x1="401.89" y1="65.22" x2="401.89" y2="66.72" style="fill:none;stroke:#00aeef;stroke-linecap:round;stroke-linejoin:round;stroke-width:2px"/><line x1="401.89" y1="72.88" x2="401.89" y2="217.56" style="fill:none;stroke:#00aeef;stroke-linecap:round;stroke-linejoin:round;stroke-width:2px;stroke-dasharray:3.07836651802063,6.15673303604126"/><line x1="401.89" y1="220.64" x2="401.89" y2="222.14" style="fill:none;stroke:#00aeef;stroke-linecap:round;stroke-linejoin:round;stroke-width:2px"/><polygon points="219.77 65 221 65 221 60 218.85 60 219.77 65" style="fill:none"/><polygon points="400.67 65 404 65 404 60 399.74 60 400.67 65" style="fill:none"/><polygon points="284 65 288.76 65 289.69 60 284 60 284 65" style="fill:none"/><polygon points="225.77 209 227 209 227 204 224.85 204 225.77 209" style="fill:none"/><polygon points="469.32 366.06 469.32 204.83 469.32 204.5 410.32 204.5 410.32 207.5 406.67 207.5 406.2 204.5 295.23 204.5 294.76 207.5 290.32 207.5 290.32 204.5 227.32 204.5 227.32 207.5 225.77 207.5 225.31 204.5 114.33 204.5 113.87 207.5 111.32 207.5 111.32 365.5 113.92 365.5 114.3 367.5 225.35 367.5 225.73 365.5 227.32 365.5 227.32 367.5 290.32 367.5 290.32 365.5 294.81 365.5 295.19 367.5 406.24 367.5 406.62 365.5 410.32 365.5 410.32 367.5 469.32 367.5 469.32 366.06" style="fill:#eaf5f8;fill-opacity:0.9;stroke:#00aeef;stroke-linecap:round;stroke-linejoin:round;stroke-width:4px"/><line x1="226.74" y1="366.14" x2="226.74" y2="364.64" style="fill:none;stroke:#00aeef;stroke-linecap:round;stroke-linejoin:round;stroke-width:2px"/><line x1="226.74" y1="358.49" x2="226.74" y2="213.8" style="fill:none;stroke:#00aeef;stroke-linecap:round;stroke-linejoin:round;stroke-width:2px;stroke-dasharray:3.07836651802063,6.15673303604126"/><line x1="226.74" y1="210.72" x2="226.74" y2="209.22" style="fill:none;stroke:#00aeef;stroke-linecap:round;stroke-linejoin:round;stroke-width:2px"/><line x1="292.33" y1="209.22" x2="292.33" y2="210.72" style="fill:none;stroke:#00aeef;stroke-linecap:round;stroke-linejoin:round;stroke-width:2px"/><line x1="292.33" y1="216.88" x2="292.33" y2="361.56" style="fill:none;stroke:#00aeef;stroke-linecap:round;stroke-linejoin:round;stroke-width:2px;stroke-dasharray:3.07836651802063,6.15673303604126"/><line x1="292.33" y1="364.64" x2="292.33" y2="366.14" style="fill:none;stroke:#00aeef;stroke-linecap:round;stroke-linejoin:round;stroke-width:2px"/><line x1="407.89" y1="209.22" x2="407.89" y2="210.72" style="fill:none;stroke:#00aeef;stroke-linecap:round;stroke-linejoin:round;stroke-width:2px"/><line x1="407.89" y1="216.88" x2="407.89" y2="361.56" style="fill:none;stroke:#00aeef;stroke-linecap:round;stroke-linejoin:round;stroke-width:2px;stroke-dasharray:3.07836651802063,6.15673303604126"/><line x1="407.89" y1="364.64" x2="407.89" y2="366.14" style="fill:none;stroke:#00aeef;stroke-linecap:round;stroke-linejoin:round;stroke-width:2px"/><polygon points="410 367 406.62 367 405.92 371 410 371 410 367" style="fill:none"/><polygon points="227 367 225.72 367 225.03 371 227 371 227 367" style="fill:none"/><polygon points="294.81 367 290 367 290 371 295.51 371 294.81 367" style="fill:none"/><polygon points="406.67 209 410 209 410 204 405.74 204 406.67 209" style="fill:none"/><polygon points="290 209 294.76 209 295.69 204 290 204 290 209" style="fill:none"/><path d="M454.16,216.07h-118a6.23,6.23,0,0,0,1-4.23c-0.37-2.1-1.93-2.5-2-4.33-0.08-2.21,2.16-2.9,1.83-4.83-0.28-1.67-2.09-1.95-2-3.33s1.58-1.5,2-3a4.24,4.24,0,0,0-.83-3.33h118a3.94,3.94,0,0,0-1.25,3.13c0.3,1.55,2.09,1.89,2.13,3.25s-1.66,1.61-1.75,3.13,1.46,2.63,1.63,4.25c0.19,1.85-2,3.34-1.75,5C453.41,213.16,454.86,215.25,454.16,216.07Z" style="fill:#fff;fill-opacity:0.35000000000000003;stroke:#00aeef;stroke-linecap:round;stroke-linejoin:round;stroke-width:2px"/><path d="M135.2,193h188a6.23,6.23,0,0,0-1,4.23c0.37,2.1,1.93,2.5,2,4.33,0.08,2.21-2.16,2.9-1.83,4.83,0.28,1.67,2.09,1.95,2,3.33s-1.58,1.5-2,3a4.24,4.24,0,0,0,.83,3.33h-188a3.94,3.94,0,0,0,1.25-3.12c-0.3-1.55-2.09-1.89-2.12-3.25s1.66-1.61,1.75-3.12-1.46-2.63-1.62-4.25c-0.19-1.85,2-3.34,1.75-5C135.95,195.9,134.49,193.81,135.2,193Z" style="fill:#fff;fill-opacity:0.35000000000000003;stroke:#00aeef;stroke-linecap:round;stroke-linejoin:round;stroke-width:2px"/><path d="M503.74,158.78l-6.24-5a1,1,0,0,0-1.41.15l-10,12.47a1,1,0,0,0,.15,1.41l6.24,5c19.06,15.32,28.29,38.76,24.09,61.18-4,21.38-21.57,36.33-28.43,41.2l-3.64-12.45a2,2,0,0,0-3.79-.15L456,305.07a1,1,0,0,0,.87,1.38L503.19,301a2,2,0,0,0,1.52-3.41l-8.6-8.68c9.65-6.65,32.88-23.55,38.14-51.62C539.68,208.35,528,178.26,503.74,158.78Z" style="fill:#fff;stroke:#00aeef;stroke-linecap:round;stroke-linejoin:round;stroke-width:4px"/></svg>