<svg xmlns="http://www.w3.org/2000/svg" xmlns:xlink="http://www.w3.org/1999/xlink" viewBox="0 0 504 504"><defs><style>.a{fill:none;}.b{fill:#00a6e9;}.c{clip-path:url(#a);}.d{clip-path:url(#c);}.e{clip-path:url(#e);}.f{clip-path:url(#g);}.g{clip-path:url(#i);}</style><clipPath id="a"><rect class="a" x="111.64" y="252.07" width="29.45" height="40.14" transform="translate(-173.62 278.43) rotate(-66.29)"/></clipPath><clipPath id="c"><rect class="a" x="128.93" y="215.39" width="29.75" height="40.34" transform="translate(-131.85 222.16) rotate(-55.81)"/></clipPath><clipPath id="e"><rect class="a" x="159.23" y="179.46" width="34.05" height="44.49" transform="translate(-76.5 113.01) rotate(-29.52)"/></clipPath><clipPath id="g"><rect class="a" x="202.55" y="157.69" width="32.53" height="43.82" transform="translate(-47.75 84.31) rotate(-19.71)"/></clipPath><clipPath id="i"><rect class="a" x="247.06" y="143.67" width="35.04" height="40.64" transform="translate(-27.78 57.11) rotate(-11.71)"/></clipPath></defs><title>learn</title><path class="b" d="M378.48,180l.14-1.06c.08-.63-.16-1.35-.81-1.38,0-.27,0-.53,0-.8a2.46,2.46,0,0,0-.47-1.78c-.68-.56-1,0-1.23.64-.06-.19-.11-.38-.19-.56-.55-.86-1.41-.77-1.56.31,0,.2,0,.41-.07.61a2.66,2.66,0,0,0-.45-.33.65.65,0,0,0-.85.39c0,.13,0,.26,0,.39-.59-.52-1.42-1-1.56,0,0,.4-.1.79-.14,1.19-.45-.12-.86,0-1,.65a116,116,0,0,1-3.08,17.41,133.56,133.56,0,0,1-8.83,24.61,139.52,139.52,0,0,1-15.23,25,135.55,135.55,0,0,1-21.66,21.88,149.19,149.19,0,0,1-28.21,17.58,241.14,241.14,0,0,1-23,9.69c-4.88,1.72-9.79,3.34-14.71,4.91A281.26,281.26,0,0,1,222.86,308a177,177,0,0,1-25,3.18,122.16,122.16,0,0,1-16.56-.31,102.17,102.17,0,0,1-12.14-1.81c-.69-.16-1.39-.31-2.08-.48h0c-.69-.16-1.38-.31-2.07-.48-.3-.06-.54.39-.7,1.1l-.39-.09a.74.74,0,0,0-.86.25l-.94-.22c-1.4-.3-.67,1.69-.49,2.16s.44,1,.68,1.44c-.59.43-.15,1.68.52,2.46-.25.49-.29,1.06.3,1.19l.25.05c-.07.27-.11.48-.08.49,2.37.5,4.72,1,7.08,1.4l2.16.41c-.05.29-.09.51-.1.51a110,110,0,0,0,16,1.48q3.25.11,6.51,0A103.09,103.09,0,0,0,207.5,320a191.2,191.2,0,0,0,25.12-4.43c2.44-.59,4.88-1.22,7.3-1.87l1.41-.37c1-.27,2-.57,3.06-.85l.81-.23c7.3-2,14.56-4.32,21.73-6.75a248.32,248.32,0,0,0,36.32-15.1q6.28-3.31,12.18-7.17a136.39,136.39,0,0,0,12.23-8.74,134.32,134.32,0,0,0,13.73-12.75A138.8,138.8,0,0,0,353,247.9a140.86,140.86,0,0,0,15.49-27.19c.65-1.5,1.27-3,1.86-4.52a136.93,136.93,0,0,0,4.58-13.3,67.24,67.24,0,0,0,2.17-8.64,85.66,85.66,0,0,0,2.15-13.2C379.33,180.67,378.93,180.24,378.48,180Z"/><path class="b" d="M378.52,183.25a.75.75,0,0,0-.21-1c-.06-.4-.25-.72-.55-.74-.26-1-.74-1.85-1.19-1.75q-15.34,3-30.36,7.4-14.53,4.18-28.71,9.45-13.52,5-26.6,11.07c-3,1.35-6,2.73-9,4.15a415.93,415.93,0,0,0-43.71,24.26,545.74,545.74,0,0,0-45.63,33.1c-.32.25-.15.95.21,1.65l-.07.05c-.38.31,0,1.08.6,1.56-.13.39,0,.87.24.86,0,.17,0,.27.11.21l.34-.27.13.05c0,.18,0,.28.18.18,0,.18,0,.34,0,.39l.23-.18s0,0,0,.06l.38-.3h.06a.54.54,0,0,0,.53-.08h0c.08.19.14.36.09.4l.33-.26,0,0q7.54-6,15.19-11.78c11.28-8.48,22.83-16.59,34.79-24.08q6.58-4,13.25-7.88l1.92-1.1.59-.34q4.85-2.72,9.77-5.31l3.17-1.66,1.16-.6,3-1.5,1.82-.91a392.39,392.39,0,0,1,38-16.42l14.14-4.95q14.64-4.81,29.59-8.51s-.05,0-.09-.09q7.3-1.78,14.66-3.28s0,0,0-.05l.37-.08s0-.17,0-.36h0a.3.3,0,0,0,.13-.1.49.49,0,0,0,.25-.19.53.53,0,0,0,.35-.32l.07,0,.46-.1c.07,0,0-.1-.21-.19l.52-.11C378.93,183.6,378.74,183.42,378.52,183.25Z"/><path class="b" d="M375.91,178.66a.39.39,0,0,0,0-.07l.67-.09c-.1,0-.24-.09-.38-.21a.35.35,0,0,0,0-.14.74.74,0,0,0-.18-1c-.05-.46-.26-.85-.62-.89-.26-1-.72-1.89-1.22-1.82l-19.32,2.65q-12.1,1.88-24.07,4.43-17.56,3.54-34.86,8.1a485.41,485.41,0,0,0-50.5,15.87c-27.25,10.14-53.69,25.09-71.54,48.55a94.35,94.35,0,0,0-14,25.08,136.79,136.79,0,0,0-7.19,34.61c-2,22.9-.45,46-1.13,68.91a2.77,2.77,0,0,0,.25,1c0,.29,0,.58,0,.88a1.59,1.59,0,0,0,.5.9c0,.21,0,.41,0,.62s.17.38.37.32c0,.06,0,.12,0,.18,0,.27.17.06.34-.22l.11.05c0,.05,0,.11,0,.16s.13.13.29,0c0,.17,0,.34,0,.51a1.3,1.3,0,0,1,.08-.38l.12-.08,0,0a.5.5,0,0,0,.16.1.54.54,0,0,0,.35,0l.17-.05h.12a.41.41,0,0,0,.13-.07.49.49,0,0,0,.2,0,1,1,0,0,1,.1.4c0-.15,0-.3,0-.45a.26.26,0,0,0,.09-.18c.14.22.27.4.27.36s0-.3,0-.45l.13-.08c.29.19.61.21.62-.21,0-.07,0-.14,0-.21a.79.79,0,0,0,.4-.6c.94-21.55-.6-43.15.87-64.68a148,148,0,0,1,5-31.12,97.37,97.37,0,0,1,6.31-16.22A99.25,99.25,0,0,1,178.15,258a113.72,113.72,0,0,1,11.15-12.55,139.12,139.12,0,0,1,23.34-17.89l1.27-.77,2-1.17c.86-.5,1.73-1,2.6-1.49l.55-.31q5.43-3,11.05-5.67a297.27,297.27,0,0,1,35.84-13.82q2.58-.82,5.18-1.62,17.07-5.29,34.41-9.58,12.35-3.06,24.8-5.59,12.27-2.47,24.63-4.59s0,0,.06-.06q9.87-1.58,19.79-2.85a2.86,2.86,0,0,0,0-.41h0a.31.31,0,0,0,.14-.1.49.49,0,0,0,.24-.16.58.58,0,0,0,.4-.25.43.43,0,0,0,.23-.19l.43-.06S376.09,178.76,375.91,178.66Z"/><path class="b" d="M189,278.64a.52.52,0,0,0,0-.14h0a.63.63,0,0,0,0-.15l.35-.36a.56.56,0,0,1-.37.1l0-.08a.29.29,0,0,0,0-.12.43.43,0,0,0-.07-.1c.15-.18.07-.21-.1-.16l0,0,.15-.15c.16-.16.05-.21-.13-.2,0-.2-.17-.33-.42-.35-.14-.5-.69-.93-1.07-.54l-.06.06a1.14,1.14,0,0,0-.28-.05c-.79-.55-1.73-.94-2.1-.58a107.62,107.62,0,0,0-10.68,12.32c-.09.12,0,.3.1.5l-.35.46c-.26.35,0,.67.48.94l-.25.33a.34.34,0,0,0-.07.17l-.46.6c-.31.42.11.54.53.57l-.16.21c-.35.47-.23.79.38.81a3.43,3.43,0,0,0,1.15-.29c-.11.26-.11.55.28.67s.9-.33,1.25-.7l.11,0a.55.55,0,0,0,.7-.1l.19-.22a.21.21,0,0,0,.13-.07l.5-.67,9.41-10.89.68-.69s0-.07,0-.11l.26-.27a.76.76,0,0,0-.17-.13l.45-.46S189.17,278.72,189,278.64Z"/><g class="c"><g class="c"><path class="b" d="M145.12,264.95c-.24.23-.46.48-.68.73l.16-.89c.19-1.1-.94-1.14-1.49-.55a7.8,7.8,0,0,0-1.46,3.19h0l-.05-.09c-.3-.37-1.46-.52-1.58.14l-.15.83a.71.71,0,0,0-.51.46l-.09.48a.93.93,0,0,0-.42.58,47,47,0,0,1-2,8.55c-.18.46-.37.93-.57,1.39a5.21,5.21,0,0,1-3.19.32,18.1,18.1,0,0,1-3.51-1.33,102.07,102.07,0,0,0-14.31-6.3l-4.74-2.18a1.49,1.49,0,0,0-1.46.21l-1-.29c-1.16-.39-1.8,1.18-2.24,2-.11.2-.36.6-.58,1a1,1,0,0,0-1.21.34,1.05,1.05,0,0,0-.13.3.57.57,0,0,0-.23.11c-.22.21-.33.73,0,.9l.06,0c-.37.17-.66.34-.57.38l.56.27a.22.22,0,0,0,.13.22h0a1.48,1.48,0,0,0-.46.22l.73.35a.87.87,0,0,0,.44.56c-.3.29-.59.55-.72.5l1,.41s0,0,0,0l.35.16c-.11.2-.18.36-.12.39,7.35,3.41,14.68,7,22.11,10.21a19.16,19.16,0,0,0,1.88.74,9.09,9.09,0,0,0,1.93.6,7.34,7.34,0,0,0,3.18-.08,5.81,5.81,0,0,0,2.38-.42,6.55,6.55,0,0,0,2.15-1.52l.1,0a8.77,8.77,0,0,0,3.57-3.63c3.17-3.77,3.82-9.72,4.57-14.26a1,1,0,0,0,0-.39l.18-1.25c.12-.78-.49-.83-1.07-.71q.17-.88.33-1.76c.18-1-.38-1.5-1.29-.92"/></g></g><g class="d"><g class="d"><path class="b" d="M133,232.09c1.89-3.65,7.15-16.06,7.15-16.06s-2.73-3.32-3.31-3.05a6.22,6.22,0,0,0-2.19,2.36.93.93,0,0,0-1.32.15l-.22.4a.61.61,0,0,0-.44.27l-.32.56a.42.42,0,0,0-.19.13L124,231.33s.25,0,.53,0l-.37.66a.76.76,0,0,0-.53.17.78.78,0,0,0-.28.64.41.41,0,0,0-.18,0c-.22.12-.43.28-.13.52l.48.38h0c-.14-.05-.26-.07-.33,0-.31.24-.07.45.17.64l0,0v.07a1.56,1.56,0,0,1-.79-.23l.78.6a1.84,1.84,0,0,0,.49.84,1,1,0,0,0,.05.17c-.18.35-.29.68-.18.77l.3.23-.24.26q11.86,9.25,23.47,18.79c.05,0,.14,0,.24,0l.62.5c.21.17.55,0,.85-.33l0,0a2.34,2.34,0,0,0,.24.16c0,.1.08.12.19.11a1.09,1.09,0,0,0,1.06,0l.15.09c.61.28.84,0,1.13-.51l.18-.3c.8.12,1.83.16,2.18-.37l.1-.15c.22-.14.38-.32.36-.53a2,2,0,0,0,1.11-.61c3.61-5.63,9.79-16.81,9.79-16.81s-.66-.85-1.17-1l.28-.55c.59-1.14-2.08-3.59-2.74-3.2s-6.36,7.67-10.69,13.88q-2.82-2.6-5.79-5l3.55-6.34c.28-.5.18-.8-.09-1,.11-.18.2-.36.31-.53.36-.63-.51-1-.51-1l.3-.56c.66-1.17-2.38-4.07-3-3.72s-4.34,5-7,8.43c-.51-.34-1-.7-1.52-1L133,232.09m-8.17,0-.05.07-.26-.1.31,0"/></g></g><g class="e"><g class="e"><path class="b" d="M187.38,188.7c-.74-1.12-1.49-2.23-2.27-3.32a18.19,18.19,0,0,0-4.7-4.79c-2.64-1.61-5.38-1.25-8-.26a7.31,7.31,0,0,0-3.84.58,8,8,0,0,0-1.69.68c-3.83,1.47-6.75,5.6-8.11,9.67a15.85,15.85,0,0,0-1.54,7.38,11.06,11.06,0,0,0,.69,3.44,12.78,12.78,0,0,0,.3,1.47,18.93,18.93,0,0,0,2.56,5.21l.32.45.24.37q5.79,8.29,11.76,16.47s.28-.08.59-.25l.69,1c.13.19.49,0,.82-.24a.86.86,0,0,0,.42-.11,1.67,1.67,0,0,0,1.33.42,1.27,1.27,0,0,0,.56-.55c.73,0,1.33-.34,1.23-1,.68-.2,1.07-.6.69-1.25-.09-.19-.19-.37-.28-.55,1.48-.62,2.68-1.44,2.39-1.86q-1.77-2.46-3.52-4.93l-2.22-3.32q5.67-3.46,11.12-7.25l4.64,7.66c.12.2.59.22,1,.12l.18.3a1,1,0,0,0,1.67.07l.17,0,0,0a3.29,3.29,0,0,0,1.55.65,1,1,0,0,0,.93-.73h.09c.42,0,1.74-.07,1.28-.94l-.12-.23c.66-.08,1.35-.35.92-1.14l-.65-1.2c1-.44,1.73-.95,1.53-1.28-4.11-6.86-8-14.19-12.78-20.69M168.92,203a19.22,19.22,0,0,1-1.71-3.39,8.65,8.65,0,0,1-.3-1.72c0-.35.09-.71.16-1.06h0a20.71,20.71,0,0,1,2.24-4.63,12.15,12.15,0,0,1,1-.89l4-2.6c.16,0,.32-.05.48-.09a22.28,22.28,0,0,1,2.76,3q2.57,3.47,4.87,7.11-5.26,4.36-10.62,8.61c-1-1.45-1.9-2.9-2.83-4.36"/></g></g><g class="f"><g class="f"><path class="b" d="M239.41,188.88c-2.51-5.7-6.83-10.76-13.22-12.09-.24,0-.47-.08-.71-.11A11.35,11.35,0,0,0,227,172.1a11.2,11.2,0,0,0,.76-3.4,7.12,7.12,0,0,0-2.36-5.86,6.21,6.21,0,0,0-2.41-2.63,9.81,9.81,0,0,0-6.54-1,10.3,10.3,0,0,0-4.35-.06,12.58,12.58,0,0,0-3.13.74,16.89,16.89,0,0,0-7.48,4.68.85.85,0,0,0-1-.24,2.16,2.16,0,0,0-.38.19.63.63,0,0,0-.29-.09,1.12,1.12,0,0,0-.81.57c-.32-.11-.55-.14-.49,0l.23.58a.39.39,0,0,0-.13.12c-.19-.1-.54-.26-.44,0l.27.69v0a.85.85,0,0,0-.24,1c-.25.2-.44.38-.4.47l.23.59c-.21.08-.35.16-.34.2q6.18,15.52,12.64,30.92s.05,0,.08.07l.38.91c.07.17.45.16.85.06l.19.46a1,1,0,0,0,1.42.38h0l.16,0a3.47,3.47,0,0,0,1.64.79.93.93,0,0,0,.82-.5l.14,0c.41.13,2.25.43,1.8-.76l0-.08c.78,0,1.87-.06,1.44-1.08l-.61-1.45c.81-.3,1.33-.66,1.2-1l-.67-1.6a.72.72,0,0,0,.06-.66c-1.28-3.13-2.55-6.27-3.83-9.4a.88.88,0,0,0,.59-.22l.24-.2.47-.1a1.27,1.27,0,0,0,1-.15l.12-.09a11.91,11.91,0,0,1,5.5.07l.07,0a15.9,15.9,0,0,1,2.53,1.61,22,22,0,0,1,4.75,7.14c.11.24.48.31.88.28.08.17.17.34.25.51a.87.87,0,0,0,1.37.44,1.58,1.58,0,0,0,.14-.1.86.86,0,0,0,.33,0,4.3,4.3,0,0,0,1.76,1.1.94.94,0,0,0,1.08-.58c.45.17,2.57.83,2-.46l-.25-.58c.67,0,1.29-.17.94-1-.23-.52-.48-1-.74-1.53.84-.12,1.69-.37,1.44-.95s-.45-1-.69-1.48a.68.68,0,0,0,.19-.78M211.66,168.8A11.91,11.91,0,0,1,213,168a14.75,14.75,0,0,1,4.23-1l0,0c.11.15.22.28.32.44a6.73,6.73,0,0,1,.45,1.17,10,10,0,0,1-.7,3,26.15,26.15,0,0,1-4.76,5.75l-.07,0-.51.15-3-7.49a19.73,19.73,0,0,0,2.69-1.31"/></g></g><g class="g"><g class="g"><path class="b" d="M284.48,173.67c-2.23-10.18-4.33-20.38-6.47-30.58-.27-1.29-3.2-.38-3.8-.26l-.27,0a.73.73,0,0,0-.4-.31,1,1,0,0,0-1.43-.71l-.47.2a.79.79,0,0,0-.39-.14,1.31,1.31,0,0,0-.66.28c-.48-.18-.95-.12-.82.51l.08.4-.15,0c-.31-.12-.54-.13-.49.11l.06.29c-.34,0-.62-.06-.63-.12l.14.67a.8.8,0,0,0-.08.3c-.15,0-.26-.08-.28-.14l.25,1.08s0,0,0,0l.07.33c-.23.05-.39.15-.36.29,1.46,6.9,2.91,13.81,4.43,20.7-2.43-1.93-4.83-3.9-7.08-5.94a67.62,67.62,0,0,1-9-10,2.44,2.44,0,0,0-1.82-.18l-.55.08c-.14-.8-.28-1.59-.41-2.38-.24-1.3-3.11-.61-3.77-.53-.19,0-.71.05-1.29.14-.17-.53-.47-.88-1.1-.78a2,2,0,0,0-.38.1.59.59,0,0,0-.21-.1,1,1,0,0,0-.92.47c-.25-.16-.44-.24-.42-.13l.1.6a.39.39,0,0,0-.15.12c-.16-.16-.39-.35-.35-.11s.07.43.1.64l-.11.13a.89.89,0,0,0-.42,1h0a.81.81,0,0,0,0,.15c-.2.13-.33.26-.32.35l.12.57c-.22.06-.38.13-.37.2q2.54,15.66,6.23,31.09a.19.19,0,0,0,.12.12c.06.27.12.54.19.8s.4.33.79.31v.05c.14.61.46,1.21,1.13,1.21a1.06,1.06,0,0,0,.43-.1,1.18,1.18,0,0,0,.26.12.82.82,0,0,0,.41,0l.1.11a10.14,10.14,0,0,0,1.86,1.57c.79.29,1.16-.11,1.17-.73.74.3,1.79.55,1.55-.47l-.16-.64c.56,0,1-.13.85-.87-.13-.52-.25-1-.38-1.57.79-.05,1.43-.25,1.31-.79s-.26-1.11-.39-1.67a.68.68,0,0,0,.2-.65q-1.54-6.5-2.86-13c5,4.67,10.68,8.81,16.06,13,.18.15.56,0,.88-.16a1.22,1.22,0,0,0,.32.09l1.14.89c.56.44,1.45.84,1.81,0a2.22,2.22,0,0,0,1.58.46.87.87,0,0,0,.43-.28,1,1,0,0,0,.63-.35l.19.09c.46.22,2,.68,1.86-.52v0c.78.17,2,.29,1.69-.84l-.33-1.43c.75-.12,1.36-.38,1.24-.91s-.25-1.14-.38-1.72a.76.76,0,0,0,.13-.61"/></g></g><path class="b" d="M256.26,250.41c.15-.4.15-.88-.19-1,0-.39-.17-.72-.44-.77l-.15,0c-.12-.67-.36-1.25-.73-1.3a74.07,74.07,0,0,0-11.7-1.09,57.72,57.72,0,0,0-14.51,2.12,56.82,56.82,0,0,0-10.95,4.23c-4.23,2.16-2.48,1.2-7.76,4.82a1,1,0,0,0-.22.68l-.77.55c-.32.23-.19.83.11,1.32a.77.77,0,0,0,.43,1c-.09.25-.14.49-.06.44l.19-.13a.31.31,0,0,0,.31,0c0,.06,0,.09.12.1l-.12.29.56-.38.13,0a1,1,0,0,0,.26,0c.15.08.3.13.39.08l.2-.14h.06c.32-.23.65-.44,1-.67,1.36-.88,2.72-1.72,4.1-2.52,0,0,.07.08.09.08a57.09,57.09,0,0,1,10.77-4.81c.53-.18,1.07-.35,1.61-.51l3-.66.28,0,.53-.13,2.46-.54c.52-.07,1-.14,1.57-.19l5.59-.35h.09l.59,0,.27,0a55.64,55.64,0,0,1,10.79,1.09s0,0,.06-.11l.35.06c.09,0,.18-.09.26-.22a.91.91,0,0,0,.3-.14l.15-.07.1,0,.45.08c.17,0,.07-.06-.09-.16h0l.67.12c-.11,0-.2-.19-.29-.37a.36.36,0,0,0,0-.07l.26,0C256.79,251.05,256.52,250.64,256.26,250.41Z"/><path class="b" d="M315.79,215.62a.66.66,0,0,0-.36-.77c-.07-.53-.23-1.06-.44-1.1a32.92,32.92,0,0,0-11.69-2,66.71,66.71,0,0,0-11.47.16L284.29,213a39.46,39.46,0,0,0-14.47,5.35.39.39,0,0,0-.18.31l-.09,0c-.46.21-.49,1,0,.92-.16.21-.26.44,0,.36l.3-.09c-.14.18-.21.34,0,.33,0,.09-.05.15,0,.14l.24-.07a.55.55,0,0,0-.07.12h0s0,0,0,0l.63-.2a.34.34,0,0,0,.23,0l6.23-2h0A87.14,87.14,0,0,1,289.83,216a61.07,61.07,0,0,1,6.42,0c1.67-.23,3.33-.38,5-.46A85.9,85.9,0,0,1,314.8,217s.1-.06.15-.16a.92.92,0,0,0,.23-.16l.07,0h0l.34.06c.11,0,.05,0-.07-.09h0l.24,0-.13-.12a.19.19,0,0,0,0-.08c.18,0,.17-.14.07-.27C316,216.11,316,215.83,315.79,215.62Z"/></svg>