<?xml version="1.0" encoding="utf-8"?>
<!-- Generator: Adobe Illustrator 21.0.0, SVG Export Plug-In . SVG Version: 6.00 Build 0)  -->
<svg version="1.1" id="Layer_1" xmlns="http://www.w3.org/2000/svg" xmlns:xlink="http://www.w3.org/1999/xlink" x="0px" y="0px"
	 viewBox="0 0 504 504" style="enable-background:new 0 0 504 504;" xml:space="preserve">
<style type="text/css">
	.st0{fill:#00A6E9;}
	.st1{fill:none;}
	.st2{fill:#0082C3;}
	.st3{clip-path:url(#SVGID_2_);}
</style>
<title>logo</title>
<path class="st0" d="M297.9,267.1l0.4-0.3c1-0.6,1.1-1.5-0.1-2c-1-0.2-2.1-0.2-3.2-0.1c-0.3,0-0.6,0-1,0.1l0,0
	c0.2-0.3,0.2-0.8,0-1.1c-0.4-0.8-1.1-0.8-1.8-0.5c-0.3-0.3-0.8-0.4-1.2-0.2H291c-0.3-0.2-0.8-0.3-1.2-0.2
	c-5.7,3.6-11.6,6.6-17.8,9.1c0.7-0.9,1.3-1.9,1.8-2.9c3-4,4.7-8.9,4.8-13.9c1.3-8.5-1.7-17.2-5.9-24.7c-0.5-0.8-4-0.5-4.4-0.4l0,0
	c-0.2-0.4-0.4-0.9-0.7-1.3c-0.4-0.8-1.3-0.7-2.2-0.4c-0.4-0.3-0.9-0.3-1.3-0.1c-0.4-0.3-1-0.3-1.4,0l-1.3,1.3c-0.1,0-0.3,0-0.4,0.1
	c-11.7,11.5-23.4,23.2-36,33.8c-0.9,0.7-1.7,1.4-2.6,2c0.8-2.6,1.5-5.2,2.1-7.8c1.9-7.8,3.5-15.5,5.6-23.2c0.2-0.7-0.5-1.3-1.2-1.5
	l0.4-1.3c0.4-1.6-3.8-1.6-5.1-1.6c0-0.7-0.4-1.4-1.1-1.4h-0.6c-0.1-0.2-0.3-0.3-0.6-0.3h-1.1h-0.1c-2.3,0-4.6,0.6-6.6,1.6
	c0,0,0.1,0.1,0.2,0.3l-0.9,0.4c0,0,0.3,0.5,0.6,1c0,0.1-0.1,0.1-0.1,0.2c-0.3,0.2-0.4,0.5-0.5,0.9c-0.4,0.2-0.8,0.3-1.3,0.5
	c-0.2,0.1,0,0.2,0.2,0.2l-0.7,0.3c0.2-0.1,0.5,0.1,0.9,0.3c-0.1,0.1-0.1,0.3-0.1,0.5l-0.7,0.3c-0.2,0.1,0.7,0.4,1.4,0.6
	c0,0,0,0,0,0.1l0,0c-0.6,0.3-0.8,1-0.5,1.5c0,0,0,0.1,0,0.1c0.4,0.6,1.1,0.6,1.7,0.4c0.4,1,1.2,2,1.8,2.1
	c-1.3,5.4-2.5,10.8-3.8,16.3c-0.4,1.8-0.9,3.7-1.4,5.5c-0.4,1.1-0.7,2.3-1.1,3.4c-1.2,3.6-2.8,7.1-4.8,10.3c0,0,0.1,0.1,0.3,0.2
	c-0.3,0.5-0.5,0.9-0.8,1.4h0.1h0.4c-0.3,0.5-0.5,0.9-0.7,1.3c0,0.1,0.2,0.2,0.6,0.3c-0.1,0.3-0.3,0.5-0.4,0.8
	c-0.1,0.3,0.4,0.6,1.1,0.7v0.1c-0.7,1.3,0.4,1.7,1.4,1.6c0.1,0.1,0.2,0.1,0.3,0.1c0.6,1.2,1.6,2.3,2.2,2.1l0.8-0.3
	c0.6,0.6,1.3,1.1,1.8,0.9c1.8-0.6,3.6-1.1,5.2-1.8c1.6-0.7,3.1-1.5,4.6-2.4c0.4-0.2,0.8-0.4,1.3-0.6c2.3-1.4,4.6-2.9,6.7-4.5
	c1.5-1.1,3-2.3,4.5-3.6v0.1c0,0.1,0,0.2,0,0.3c-0.2,0-0.4,0-0.3,0.2l0.3,0.6v0.1c-0.8-0.3-1.6-0.4-1.3,0.4l0.3,0.5
	c-0.3,0.2-0.5,0.5-0.2,1c0.4,0.9,0.9,1.7,1.5,2.5c0.7,1.6,1.8,3,3.1,4.1c0.5,0.4,1,0.7,1.6,1c0.3,0.3,0.6,0.7,0.9,1
	c0.8,0.8,1.7,1.5,2.8,2c4.5,2.5,10,2.4,15,2.1c1.5-0.1,3.1-0.2,4.6-0.4c1.9-0.1,3.7-0.3,5.6-0.7c1.7-0.5,3.4-1.1,5-1.9
	c1.1-0.5,2.3-1,3.4-1.5c6.8-2.5,13-6.7,19-10.5c0.4-0.2,0.6-0.5,0.6-0.9l2.5-1.5c1.4-0.8-0.5-1.8-1.4-2.1 M236.3,269.9l0.2-0.1
	l0.2,0.3C236.5,270,236.4,270,236.3,269.9 M266.3,256.7c-1,3.3-2.6,6.4-4.8,9c-0.4,0.5-0.8,1-1.3,1.4c-3.1,2.2-6.5,2.8-10.3,3.6
	c-1.6,0.3-3.3,0.7-5,0.8c-0.1-0.2-0.2-0.4-0.4-0.6c-0.4-0.7-2.4-1-4.2-0.9c-0.3-0.3-0.6-0.6-0.8-1c-0.3-0.4-0.8-0.4-1.4-0.2
	c-0.2-0.2-0.5-0.3-0.8-0.2c-0.1,0-0.1,0.1-0.2,0.1c1.6-1.4,3.2-2.8,4.8-4.2c7.8-6.9,15.4-14.2,22.8-21.5c0.8,2.3,1.3,4.7,1.5,7.2
	C266.6,252.4,266.5,254.6,266.3,256.7"/>
<path class="st0" d="M222.6,214.6l-0.2,1c0,0.3,0.4,0.4,0.9,0.5v0.3c-0.2,0.8,0.3,1.6,1.1,1.7c0.2,0,0.4,0.1,0.6,0
	c0.1,0.1,0.2,0.1,0.4,0.1c0.4,0.8,1,1.5,1.6,2.2c0.5,0.5,1.6,1.4,2,0.2v-0.1c0.8,0.6,1.9,1.4,2.2,0l0.2-0.8c0.6,0.1,1,0,1.2-0.9
	l0.4-2c0.8,0.1,1.4-0.1,1.6-0.7l1-5.1c0-0.1,0-0.2,0-0.3l0.5-2.4c0.3-1.6-4.3-1.2-4.7-1.1h-0.4c-0.1-0.1-0.2-0.3-0.3-0.4v-0.1
	c0.4-1.3-1.1-1.5-2.4-1.2c-0.4-0.2-0.8-0.3-1.2-0.2c-0.5-0.4-0.9-0.5-1,0l-0.2,0.9c-0.3-0.2-0.6-0.3-0.7,0v0.3
	c-0.2-0.2-0.4-0.3-0.6-0.3c0.2,0,0.5,0.2,0.6,0.4v0.2c0,0,0,0.1,0,0.1v0.1c-0.1,0.1-0.1,0.1-0.2,0.2c-0.3,0.2-0.5,0.5-0.6,0.8
	c-0.3,0-0.4,0.1-0.5,0.2l-0.2,1c-0.1,0-0.2,0.1-0.2,0.2l-0.9,4.9c0,0,0.1,0.1,0.3,0.2"/>
<rect x="204.8" y="205.1" class="st1" width="95" height="81.7"/>
<rect x="204.8" y="205.1" class="st1" width="95" height="81.7"/>
<path class="st0" d="M137.6,101.9c-0.7,0.6-1.3,1.3-2,1.9c-0.2-0.2-0.5-0.3-0.8-0.2c-0.9-2-2.4-0.9-3.5,0.7c-0.3,0-0.7,0.1-1,0.3
	c-0.3,0.3-0.4,0.6-0.5,1c-0.8,0.2-1.3,1-1.1,1.8c0,0.1,0,0.1,0.1,0.2c0.1,0.2,0.2,0.4,0.3,0.6c-0.2,0.2-0.3,0.4-0.3,0.6
	c-0.4,0.3-0.8,0.6-0.7,0.8c4.8,12.4,9.1,24.6,11,37.9c0.2,1.3,0.5,3,0.7,4.7c-2.8-1.3-5.5-2.5-8.1-3.9c-4.8-2.5-9.3-5.2-13.9-7.8
	c-4.5-2.5-9.1-4.8-13.8-6.8c-1-0.4-4,1.7-6,3.8l-1.3-0.6c-0.8-0.3-1.4,0.5-1.7,1.2c-0.9,0-1.5,0.7-0.5,1.4c-0.4,0-0.9,0-1.3-0.1
	l0.9,0.5c-0.1,0.2,0,0.6,0.2,0.9c-0.4,0-0.8-0.1-1.2-0.3l1.1,0.7c0,0.2,0.1,0.4,0.1,0.6c-0.1,0.6,0.1,1.1,0.5,1.5c0,0,0,0,0,0.1
	c-0.3,0.6-0.6,1.2-0.4,1.3l1.2,0.7c0,0,0,0.1,0.1,0.1l0.2,0.1c-0.4,0.4-0.7,0.7-0.8,0.7c11.8,7.3,23.9,14.7,36.6,20.3
	c2.8,1.3,5.2,3,7.7,3c1,0.4,2,0.7,3,0.9c0.8,0.2,1.5-0.1,2.1-0.6c0.2-0.1,0.3-0.3,0.4-0.4h0.1c1.1,0.4,2.3,0.6,3.5,0.5
	c1-0.1,1.9-0.7,2.5-1.6c1.1,0,2.2-0.4,3-1.3c1.1-1.4,1.7-5.2,1.8-6.3c0.2-1.9,0.2-3.8,0.1-5.7c0-2.7-0.2-5.5-0.6-8.2
	c-0.3-2.2-0.7-4.4-1.3-6.5c-2.1-12.7-6.2-24.4-10.8-36.3c-0.2-0.5-0.7-0.7-1.3-0.6l-0.7-1.8C140.5,99.4,138.7,101,137.6,101.9"/>
<rect x="102.5" y="111.2" transform="matrix(0.7511 -0.6601 0.6601 0.7511 -60.4531 124.3153)" class="st1" width="64.3" height="62.3"/>
<rect x="102.5" y="111.2" transform="matrix(0.7511 -0.6601 0.6601 0.7511 -60.4531 124.3153)" class="st1" width="64.3" height="62.3"/>
<path class="st0" d="M374.5,305c-1,0.2-1.9,0.8-2.5,1.6c-0.9,0.9-1.8,1.9-2.6,2.8c-0.2,0-0.4,0-0.5,0c-0.6-0.5-1.4-0.9-1.9-0.3
	l-1.1,1.5c-0.2,0-0.3,0.1-0.5,0.2l-0.9,1.2c-0.1,0.1-0.2,0.1-0.3,0.2c-9.5,12.3-18.9,24.6-28.2,37c-0.2,0.3,0.2,0.5,0.8,0.6
	l-0.6,0.8c-0.1,0.1,0,0.3,0.3,0.4l-0.7,0.9c0.4-0.3,0.8-0.5,1.3-0.5v0.1c-0.1,0.6,0.2,1.2,0.6,1.7c-0.1,0.3-0.3,0.7-0.5,0.9l0.7-0.8
	l0.2,0.2c-0.1,0.2-0.1,0.4-0.1,0.6c0.1,0.3,0.1,0.7,0.5,0.2l0.1-0.2c0,0,0,0,0,0.1l-0.5,0.7c-0.3,0.4-0.1,0.5,0.3,0.3
	c0.2-0.1,0.4-0.3,0.6-0.5c0.2,0.2,0.4,0.3,0.6,0.3l-0.1,0.1c-0.3,0.4-0.6,0.9,0,1.1c0.3,0.1,0.7-0.3,1.1-0.7
	c0.1,0.1,0.1,0.3,0.2,0.4c0.5,0.6,1.9,1.1,2.5,0.4l1-1.1l0,0c1.8,0.4,4.2,0.8,5-0.2c3.4-3.7,6.6-7.5,9.9-11.3
	c10.1,8.6,20.1,17.3,29.8,26.3c0.1,0.1,0.3,0.2,0.5,0.1l0.9,0.8c0.6,0.4,1.3,0.3,1.8-0.2c0.8,0.7,2.1,1.3,3,0.7
	c0.3-0.2,0.5-0.5,0.6-0.8c0.1,0,0.2,0,0.4,0c0.3-0.1,0.6-0.3,0.8-0.6c0.8,0.1,1.6,0.1,2.3,0.2c0.9,0.3,2,0.1,2.8-0.4
	c0.5-0.4,0.6-1,0.2-1.5l-0.7-0.6c1.1-0.4,2-1,0.9-1.9l-0.9-0.8c0.7-0.5,1.1-1.2,0.2-1.9l-2-1.8c0.9-0.8,1.4-1.7,0.8-2.2l-2.2-2
	c0-0.2-0.2-0.5-0.4-0.6c-9.3-8.6-18.8-17.1-28.5-25.2c3.2-4.1,6.4-8.3,9.4-12.5c0.6-0.8,0.4-1.4-0.1-1.8l0.6-0.8
	c0.8-1.1,0-1.6-1-1.9l0.7-0.9c1.6-2-3.1-1.6-3.3-1.6h-0.2l1.7-2.2c1.1-1.4,0.2-2.5-1.4-2.1c-0.5,0.2-0.9,0.5-1.4,0.7
	c0.7-1,1.8-3.1-0.2-3.2"/>
<rect x="347.4" y="314.4" transform="matrix(0.6074 -0.7944 0.7944 0.6074 -127.0694 437.0571)" class="st1" width="62.4" height="65.3"/>
<rect x="347.4" y="314.4" transform="matrix(0.6074 -0.7944 0.7944 0.6074 -127.0694 437.0571)" class="st1" width="62.4" height="65.3"/>
<path class="st0" d="M435.8,218.7c-1.1-6.7-3.8-13.3-9.1-17.5c-1.7-1.7-3.6-3.1-5.8-4.3c-3.2-2.7-7.1-4.4-11.3-5c-0.4,0-0.9,0-1.4,0
	c-2.8-0.7-5.7-0.6-8.4,0.3c-4.1,1.3-6.6,3.9-9.3,7.1c-0.8,1.3-1.1,2.8-0.8,4.2l-0.9,1c-0.4,0.1-0.7,0.4-0.8,0.7
	c-0.4,0.6-0.7,1.3-1.1,1.9c-0.3-0.7-0.9-1.3-1.7-0.6c-1.1,0.6-2,1.5-2.7,2.6c-0.9,1.9-1.6,4-2,6.1c-0.8,1.3-1.5,2.8-1.9,4.4
	c-0.5,1.6-0.8,3.2-0.8,4.9c-0.1,0.6-0.1,1.1-0.2,1.7c-0.1,0.8-0.2,1.7-0.1,2.5c-0.1,2.4,0.3,4.9,1.1,7.2c0.9,2.5,2.2,4.8,3.9,6.9
	c0.7,1.1,1.4,2.1,2.3,3c3.3,3.5,7.4,6.1,12,7.6c1.6,0.6,3.3,1.1,5,1.4c2.9,0.8,6,1,8.9,0.5l0.4-0.1c0.4,0,0.8,0,1.2-0.1
	c3.6-0.5,7.1-1.9,10-4.1c2.1-1.2,3.9-2.6,5.5-4.4c1.6-1.8,2.9-3.8,3.9-6c0.2-0.3,0.4-0.6,0.6-0.8c2-3.3,3.2-7,3.4-10.9
	C436.4,225.5,436.4,222,435.8,218.7z M423,231.5c-1.3,1.8-2.8,3.4-4.6,4.8c-3.6,2.7-8.1,4.1-12.6,3.9c-1.8-0.3-3.5-0.7-5.2-1.4
	c-0.7-0.3-1.3-0.6-2-0.9l-0.6-0.4c-2.2-2-4-4.5-5.3-7.2c-0.3-0.7-0.5-1.4-0.8-2.1c0-0.4,0-0.8,0-1.3c0-4.4,1.3-8.8,2.2-13
	c0.2,0.1,0.4,0,0.6-0.1c0.3-0.4,0.6-0.7,0.9-1c0.8,0.1,1.6,0,2.3-0.5c1.1-1.6,2.5-3,4-4.2l4.2-1.4h0.3c0.8,0,1.5,0.1,2.2,0.3
	c2.8,1,5.4,2.6,7.6,4.6c0.9,0.8,1.7,1.6,2.4,2.5c2.2,3.1,3.8,6.6,4.7,10.3c0.3,1,0.4,2.1,0.6,3.1C423.7,228.9,423.4,230.2,423,231.5
	z"/>
<rect x="377.7" y="191.4" class="st1" width="58.6" height="64.1"/>
<rect x="377.7" y="191.4" class="st1" width="58.6" height="64.1"/>
<path class="st0" d="M98.3,179.9c-3-0.7-6.2-0.6-9.2,0.3c-4.5,1.4-7.2,4.3-10.2,7.8c-0.9,1-1,2.8-0.9,4.7l-1,1.1
	c-0.4,0.1-0.7,0.4-0.9,0.7c-0.4,0.7-0.8,1.4-1.3,2.1c-0.4-0.7-1-1.4-1.8-0.7c-1.2,0.7-2.2,1.6-2.9,2.8c-1,2.1-1.8,4.4-2.2,6.7
	c-1,1.5-1.7,3.1-2.1,4.9c-0.6,1.7-0.9,3.5-0.9,5.4c-0.1,0.6-0.2,1.3-0.2,1.9c-0.1,0.9-0.2,1.8-0.1,2.7c-0.1,2.7,0.3,5.4,1.3,8
	c1,2.8,2.4,5.3,4.3,7.6c0.7,1.2,1.6,2.3,2.5,3.3c3.6,3.9,8.1,6.8,13.2,8.4c1.8,0.7,3.6,1.2,5.5,1.6c3.2,0.9,6.6,1.1,9.9,0.6l0.5-0.1
	c0.4,0,0.9,0,1.3-0.1c4-0.5,7.8-2.1,11-4.5c2.3-1.3,4.3-2.9,6.1-4.8c1.8-2,3.2-4.2,4.3-6.6c0.2-0.3,0.5-0.6,0.6-0.9
	c2.2-3.6,3.6-7.7,3.8-11.9c0.6-3.7,0.6-7.5,0-11.3c-1.3-7.4-4.1-14.6-10-19.3c-1.9-1.8-4-3.4-6.3-4.7c-3.5-3-7.9-4.9-12.4-5.5
	C99.4,180,98.9,180,98.3,179.9 M80.4,218.6c0-4.9,1.4-9.6,2.5-14.3c0.2,0.1,0.5,0,0.7-0.1c0.3-0.4,0.6-0.8,1-1.1
	c0.9,0.1,1.8,0,2.5-0.5c1.3-1.7,2.7-3.3,4.4-4.6l4.6-1.5h0.2c0.8,0,1.7,0.1,2.5,0.3c3.1,1.1,5.9,2.8,8.3,5c0.9,0.8,1.8,1.7,2.7,2.7
	c2.4,3.4,4.1,7.2,5.2,11.3c0.3,1.1,0.5,2.3,0.6,3.5c-0.2,1.5-0.5,3-1,4.5c-1.4,2-3.1,3.7-5,5.2c-4,3-8.9,4.5-13.8,4.3
	c-2-0.3-3.9-0.8-5.8-1.6c-0.7-0.3-1.5-0.6-2.2-1l-0.6-0.5c-2.4-2.2-4.4-4.9-5.8-7.9c-0.3-0.7-0.6-1.5-0.8-2.3
	C80.5,219.4,80.5,219,80.4,218.6"/>
<rect x="64.6" y="179.5" class="st1" width="64.5" height="70.5"/>
<rect x="64.6" y="179.5" class="st1" width="64.5" height="70.5"/>
<path class="st0" d="M126.5,266.3c-0.2,0.6-0.4,1.1-0.6,1.7l-0.4-1.6c-0.5-1.9-2.3-1.2-2.8,0.2c-0.5,2-0.5,4.1-0.1,6.2l0,0l-0.2-0.1
	c-0.8-0.4-2.7,0.2-2.5,1.4l0.3,1.4c-0.3,0.3-0.5,0.7-0.5,1.1l0.2,0.8c-0.3,0.4-0.3,0.8-0.3,1.3c1.2,4.9,2.7,10.1,2.9,15.2
	c0,0.9,0.1,1.8,0.1,2.7c-1.3,1.4-3,2.4-4.9,2.8c-2.2,0.3-4.4,0.5-6.6,0.4c-9.2-0.7-18.4-0.7-27.5,0l-9.2-0.2c-0.9,0-1.7,0.6-2.2,1.4
	l-1.8,0.3c-2.1,0.2-2.1,3.2-2.2,4.8c0,0.4-0.2,1.3-0.2,2.1c-0.8,0-1.5,0.6-1.7,1.4c0,0.2,0,0.4,0,0.6c-0.1,0.1-0.2,0.2-0.3,0.4
	c-0.2,0.5,0,1.4,0.7,1.4h0.1c-0.5,0.5-0.8,1-0.7,1h1.1c0.1,0.2,0.2,0.3,0.4,0.3l0,0c-0.4,0.4-0.6,0.7-0.6,0.7h1.4
	c0.3,0.3,0.7,0.6,1.1,0.6c-0.3,0.7-0.6,1.3-0.8,1.3h1.9l0,0h0.7c0,0.4,0,0.7,0.1,0.7c14.3,0.3,28.6,0.9,42.9,0.8
	c1.2,0,2.4,0,3.6-0.1c1.2,0,2.4-0.1,3.5-0.4c1.8-0.4,3.6-1.2,5.1-2.4c1.3-0.5,2.5-1.3,3.5-2.4c1.1-1.1,1.9-2.5,2.4-4l0.1-0.1
	c1.9-2.4,3-5.3,3.2-8.4c2.4-8.3-0.7-18.4-2.7-26.3c-0.1-0.2-0.2-0.4-0.3-0.6l-0.6-2.1c-0.4-1.3-1.4-1-2.2-0.4c-0.2-1-0.5-2-0.7-3.1
	c-0.4-1.7-1.7-2.2-2.7-0.6"/>
<rect x="66" y="265.2" class="st1" width="70.7" height="51.9"/>
<rect x="66" y="265.2" class="st1" width="70.7" height="51.9"/>
<path class="st0" d="M379.2,274.6c-2-0.4-2.3,4.1-2.5,5c-0.1,0.4-0.3,1.3-0.5,2.2c-1,0-1.7,0.8-1.7,1.8c-0.1,0.1-0.2,0.2-0.3,0.3
	c-0.2,0.5-0.1,1.1,0.3,1.4c-0.4,0.4-0.7,0.7-0.4,0.7l1,0.2c0,0.1,0.1,0.2,0.2,0.3c-0.3,0.2-0.5,0.4-0.4,0.4l1.3,0.2
	c0.2,0.4,0.5,0.7,1,0.8c-0.1,0.6-0.3,1.1-0.3,1.1l1.7,0.3c0,0.2,0,0.3,0.1,0.3c15.5,2.9,31,6.1,46.6,8c0.1,0,0.2,0,0.3-0.1l1.3,0.2
	c0.3,0,0.6-0.5,0.8-1.1h0.4c0.9,0.1,1.5,0,1.8-0.9c0.1-0.3,0.1-0.5,0-0.8l0,0c0.1-0.1,0.1-0.2,0.1-0.4c1-0.4,1.8-1,2.5-1.7
	c0.3-0.5,0.3-1.2-0.1-1.7l0.1-0.1c0.5-0.5,2.5-2.8,0.5-3.1l-0.6-0.1c0.5-0.9,0.7-2-0.7-2.1l-2.3-0.3c0.2-1.1,0.2-2.1-0.6-2.2
	l-2.7-0.3c-0.2-0.2-0.4-0.4-0.7-0.4C409.8,280.5,394.5,277.2,379.2,274.6"/>
<rect x="395.1" y="256.4" transform="matrix(0.1077 -0.9942 0.9942 0.1077 75.9174 657.1838)" class="st1" width="18" height="59.8"/>
<rect x="395.1" y="256.4" transform="matrix(0.1077 -0.9942 0.9942 0.1077 75.9174 657.1838)" class="st1" width="18" height="59.8"/>
<path class="st0" d="M322.8,411.8h-0.1c0.4-0.2,0.9-0.3,1.3-0.5c1.6-0.7,1.5-2-0.1-2.6c-1.6-0.2-3.2-0.2-4.8-0.1
	c-0.3,0-0.6,0-0.9,0.1c-0.1-0.1-0.1-0.3-0.3-0.4c0.2-0.4,0.2-0.9,0-1.3c-0.6-1.2-1.7-0.9-2.6-0.5c-0.4-0.4-1-0.5-1.6-0.3l-0.2,0.1
	c-0.4-0.3-0.9-0.4-1.3-0.2c-3.9,1.7-8.2,2.6-12.4,2.7h-0.4h-0.2c-0.6-0.1-1.1-0.2-1.7-0.3c-1.5-1-2.9-2.2-4.1-3.6
	c-1.4-1.4-2.4-3.2-2.8-5.1c-1.5-2.6-2.2-5.5-2.3-8.5c0-1.5,0-2.9,0.2-4.4c0.2-1.1,0.5-2.2,0.9-3.3c0.2-0.9,0.6-1.7,0.9-2.5
	c0.4-0.5,0.7-0.9,1.1-1.4c0.7-0.7,1.5-1.4,2.4-2c2-1.3,4.1-2.4,6.4-3.1c2.9-0.8,5.8-1.4,8.8-1.9c3-0.3,6-0.3,9-0.2
	c1.4,0,1.3-1,0.9-2h1.1c2.6,0.1-0.6-3.5-0.8-3.6l-0.3-0.3c1,0,1.9,0,2.9,0.1c1.8,0.1,2-1.5,0.8-2.5c-0.4-0.2-0.8-0.4-1.3-0.6
	c1.2-0.1,2.2-0.5,2.2-1.4c0.1-2.1-4.5-1.9-5.5-2l-2-0.1c0.1-0.9-0.5-1.7-1.4-1.8c-0.1,0-0.1,0-0.2,0h-1c-0.2-0.1-0.4-0.2-0.6-0.3
	h-2.2c-9.7-0.4-20.5,1-27.8,8c-2.7,2-4.9,4.5-6.5,7.4c-1.2,2.2-2.1,4.6-2.7,7c-1.5,4-2,8.3-1.7,12.5c0.1,4.4,1.2,8.8,3.3,12.7
	c0.5,1,1.2,1.9,1.9,2.8c2,3.6,5.1,6.5,8.8,8.3c2.4,1.9,5.2,3.2,8.2,4c1,0.2,2,0.4,3,0.5c6.3,1.5,12.8,1.1,18.9-1
	c1.8-0.5,3.6-1.1,5.3-1.9c1.6-0.7,0.6-2-0.4-2.8c1.1-0.4,2.1-0.8,3.2-1.3c1.8-0.8-0.9-2.3-1.5-2.5"/>
<rect x="272" y="358" class="st1" width="53" height="64.1"/>
<rect x="272" y="358" class="st1" width="53" height="64.1"/>
<path class="st0" d="M196.1,93.1c7-0.8,29.5-5.3,29.5-5.3s2.1-7,1.1-7.6c-1.7-0.8-3.6-1.1-5.4-0.9c0-0.8-0.6-1.8-1.5-1.7l-0.8,0.1
	c-0.2-0.2-0.5-0.4-0.8-0.4l-1.1,0.1c-0.1-0.1-0.2-0.1-0.4-0.1l-28.2,2.4c0.1,0,0.3,0.3,0.5,0.7l-1.3,0.1c-0.2-0.3-0.4-0.5-0.8-0.6
	c-0.4-0.1-0.8,0-1.2,0.2c-0.1-0.1-0.1-0.2-0.2-0.2c-0.4-0.2-0.8-0.3-0.9,0.3c0,0.4,0,0.7-0.1,1l0,0c0-0.3-0.2-0.4-0.3-0.5
	c-0.6-0.2-0.7,0.3-0.7,0.9l0,0l0,0h-0.1c-0.3-0.4-0.4-0.9-0.4-1.3c0,0.6-0.1,1.1-0.1,1.7c-0.4,0.4-0.6,0.9-0.7,1.5
	c-0.1,0.1-0.1,0.1-0.2,0.2c-0.7,0.1-1.3,0.2-1.3,0.5c0,0.3,0,0.4,0,0.6l-0.6-0.1c-1.2,17.2-2.6,34.3-4.2,51.3c0,0.1,0.1,0.2,0.2,0.3
	c0,0.5-0.1,0.9-0.1,1.4s0.6,0.8,1.3,0.9c0,0,0,0,0,0.1c0,0.2,0,0.3,0,0.5c-0.1,0.1-0.1,0.2,0,0.4c0.1,0.6,0.5,1.2,1,1.5
	c0,0.1,0,0.2,0,0.3c0.2,1.1,0.8,1.2,1.8,1.1h0.6c0.6,1.3,1.5,2.8,2.6,2.7h0.3c0.3,0.2,0.8,0.2,1.1,0c0.5,0.5,1.2,0.9,1.9,1
	c11.4-0.3,33.1-2.3,33.1-2.3c0.3-0.8,0.4-1.7,0.3-2.6l1-0.1c2.2-0.3,3.1-6.4,1.9-6.9c-1.2-0.6-16.9-1.6-29.8-1.8
	c0.7-4.3,1.2-8.6,1.5-12.9l12.4-1.1c1-0.1,1.3-0.5,1.4-1.1c0.4,0,0.7,0,1.1-0.1c1.3-0.1,1-1.7,1-1.7l1.1-0.1
	c2.3-0.2,3.5-7.3,2.3-7.8c-1.1-0.6-11.3-1.3-18.7-1.9c0-1.1,0-2.1,0-3.1c0.2-3.2,0.4-6.3,0.7-9.5"/>
<path class="st2" d="M188.3,81.5h-0.2c0-0.2-0.1-0.3-0.1-0.5L188.3,81.5"/>
<rect x="176.2" y="77.3" class="st1" width="50.8" height="68.9"/>
<rect x="176.2" y="77.3" class="st1" width="50.8" height="68.9"/>
<g>
	<defs>
		<rect id="SVGID_1_" x="378.6" y="118" width="60.8" height="52.4"/>
	</defs>
	<clipPath id="SVGID_2_">
		<use xlink:href="#SVGID_1_"  style="overflow:visible;"/>
	</clipPath>
	<g class="st3">
		<path class="st0" d="M429.2,118c-15.6,0.2-31.2,0.2-46.7,0.2c-2,0-1.5,4.6-1.5,5.5c0,0.1,0,0.2,0,0.4c-0.2,0.1-0.4,0.3-0.6,0.5
			c-0.8-0.1-1.5,0.5-1.6,1.3c0,0.2,0,0.4,0.1,0.6c0,0.2,0.1,0.5,0.2,0.8c-0.2,0.1-0.3,0.3-0.3,0.5c0,0.4,0,0.7,0.2,1.1
			c-0.4,0.7-0.5,1.4,0.5,1.4h0.6c0,0.1,0,0.2,0,0.2c-0.3,0.4-0.4,0.8,0,0.8h0.4c-0.2,0.5-0.3,0.9-0.4,0.9h1c0.1,0.1,0.3,0.2,0.4,0.2
			c-0.1,0.2-0.2,0.4-0.3,0.4h1.7h0.5c0,0.4,0.1,0.6,0.3,0.6c10.5,0,21.1-0.1,31.7-0.2c-3.6,3-7.2,5.9-10.9,8.6
			c-5.4,3.9-11.3,7.3-17.4,10.1c-0.6,0.7-0.9,1.7-0.8,2.6c0,0.3,0,0.6,0,0.8l-3.6-0.1c-2,0-1.8,4.4-1.9,5.4c0,0.3-0.1,1.1-0.2,1.9
			c-0.8,0.1-1.4,0.4-1.5,1.4c0,0.2,0,0.4,0,0.6c-0.1,0.1-0.2,0.2-0.2,0.3c-0.2,0.5,0,1.1,0.4,1.5c-0.3,0.3-0.5,0.6-0.3,0.6h0.9
			c0,0.1,0.1,0.2,0.1,0.3c-0.3,0.2-0.6,0.5-0.3,0.5h1c0.4,0.5,0.9,0.9,1.5,1.1l0,0l0.2,0.1c0.1,0.3,0.3,0.6,0.4,0.6h0.9
			c0,0.4,0.1,0.6,0.2,0.6c15.8,0.7,31.6,0.8,47.4,0.3c0.1,0,0.2-0.1,0.2-0.1h1.3c0.4,0,0.6-0.5,0.7-1.1h0.1c0.9,0,1.9-0.3,2.1-1.3
			c0-0.2,0-0.4,0-0.7c0.1-0.1,0.2-0.2,0.3-0.3c0.1-0.2,0.1-0.4,0.1-0.6l0.2-0.1c1-0.6,2-1.4,2.9-2.2c0.7-1.1,0.2-1.7-0.7-1.9
			c0.7-1,1.4-2.5-0.2-2.4h-1c0.2-0.8,0.1-1.5-1-1.5l-2.4,0.1c0.2-1.2,0.1-2.2-0.8-2.2l-2.5,0.1c-0.2-0.3-0.5-0.5-0.9-0.5
			c-6.7,0.2-13.3,0.3-20,0.2c8.4-6,16.1-13,24-19.6c0.3-0.2,0.2-0.8,0-1.3c0.1-0.1,0.2-0.3,0.2-0.4l1.7-1.4c0.8-0.7,1.7-1.9,0.6-2.7
			c0.6-0.5,1.1-1.3,1.2-2.2c0-0.3-0.1-0.5-0.3-0.7c0-0.4-0.1-0.7-0.3-1l0.2-0.3c0.5-0.6,1.6-2.8-0.2-2.9l0,0c0.5-1.1,1-2.8-0.7-2.7
			h-2.2c0-1.1-0.1-2.1-1-2.1h-2.6c-0.2-0.2-0.5-0.4-0.9-0.4"/>
	</g>
</g>
<rect x="378.6" y="118" class="st1" width="60.8" height="52.4"/>
<path class="st0" d="M252.3,382.5c-0.2-2.1-0.3-4.2-0.5-6.3c-0.3-3.5-1.2-7-2.7-10.2c-2.4-4.3-6.4-5.9-10.8-6.6
	c-1.7-1.2-3.6-2-5.7-2.2c-0.9-0.2-1.9-0.4-2.8-0.4c-6.4-1-13.6,2.5-18.6,7c-3.3,2.3-6,5.4-7.8,8.9c-0.9,1.6-1.4,3.4-1.7,5.3
	c-0.3,0.7-0.5,1.5-0.7,2.3c-0.6,3-0.8,6.1-0.5,9.1c0,0.3,0,0.6,0.1,0.9c0.1,0.3,0,0.5,0,0.7c1,10.6,2.1,21.1,3.3,31.7
	c0,0.1,0.5,0.1,1,0.1c0.1,0.6,0.1,1.3,0.2,1.9c0,0.4,0.7,0.4,1.3,0.3c0.2,0.1,0.4,0.2,0.7,0.2c0.3,0.7,0.9,1.5,1.5,1.6
	c0.4,0,0.8-0.1,1.2-0.3c1,0.5,2.1,0.6,2.5-0.4c1.1,0.3,1.9,0,1.9-1.2c0-0.3,0-0.7,0-1c2.5,0.3,4.8,0.1,4.7-0.7
	c-0.4-3.2-0.7-6.3-1-9.5c-0.2-2.1-0.3-4.2-0.5-6.3c7-0.2,13.9-0.7,20.9-1.3c0.1,4.7,0.3,9.4,0.4,14.1c0,0.4,0.6,0.8,1.3,1
	c0,0.2,0,0.4,0,0.5c0,0.8,0.7,1.5,1.5,1.6c0.3,0,0.5-0.1,0.7-0.2c0.1,0,0.2,0.1,0.3,0.1h0.3c0.3,0.8,0.9,1.5,1.6,2.1
	c0.6,0.3,1.4,0.2,1.9-0.3l0.1,0.1c0.6,0.4,2.4,1.3,2.5-0.3v-0.4c1,0.4,2.1,0.6,2.1-0.9v-2.2c1.8,0.2,3.1,0,3.1-0.6
	C253.5,408.1,253.8,395.1,252.3,382.5z M216.5,395.8c-0.2-2.7-0.4-5.5-0.5-8.2c-0.1-2,0-4,0.3-6c0.2-0.9,0.5-1.8,0.9-2.6
	c0.3-0.5,0.7-0.9,1.1-1.3l0,0c2-1.8,4.3-3.4,6.7-4.6c0.7-0.2,1.3-0.3,2-0.5l7.5-0.5c0.3,0.1,0.5,0.2,0.7,0.3c0.7,2,1.2,4.1,1.4,6.3
	c0.6,4.5,0.9,9,1.2,13.5C230.7,393.5,223.6,394.7,216.5,395.8z"/>
<rect x="200.2" y="356.6" class="st1" width="53.6" height="70.1"/>
<rect x="200.2" y="356.6" class="st1" width="53.6" height="70.1"/>
</svg>
