<svg xmlns="http://www.w3.org/2000/svg" xmlns:xlink="http://www.w3.org/1999/xlink" viewBox="0 0 504 504"><defs><style>.a{fill:none;}.b{fill:#00a6e9;}.c{fill:#fff;}.d{clip-path:url(#a);}.e{clip-path:url(#c);}.f{clip-path:url(#d);}.g{clip-path:url(#e);}.h{clip-path:url(#g);}.i{clip-path:url(#i);}</style><clipPath id="a"><rect class="a" x="131.7" y="321.34" width="42.2" height="35.86" transform="translate(-219.24 332.89) rotate(-64.77)"/></clipPath><clipPath id="c"><rect class="a" x="175.46" y="337.96" width="44.31" height="36.37" transform="translate(-201.03 439.69) rotate(-72.81)"/></clipPath><clipPath id="d"><rect class="a" x="175.46" y="337.96" width="44.31" height="36.37" transform="translate(-201.03 439.69) rotate(-72.81)"/></clipPath><clipPath id="e"><rect class="a" x="231.3" y="340.14" width="35.35" height="46.19" transform="translate(-8.63 6.07) rotate(-1.37)"/></clipPath><clipPath id="g"><rect class="a" x="281.29" y="334.1" width="33.78" height="45.51" transform="translate(-77.8 83.18) rotate(-14.07)"/></clipPath><clipPath id="i"><rect class="a" x="323.26" y="320.1" width="30.9" height="41.89" transform="translate(-108.96 166.04) rotate(-23.84)"/></clipPath></defs><title>share</title><path class="b" d="M172.09,211.72c.06-.09,0-.14-.11-.12h0l0,0,.19,0c.13,0,0,0-.18,0a.4.4,0,0,0,0-.12c.16-.14.21-.31-.16-.29h0c0-.32-.18-.73-.5-.74l-.64-.07c-.54-.61-1.25-1.14-1.55-1.07l-3.65.89h-.15l-5.2,1.29a132.72,132.72,0,0,0-15.36,4.85c-1.38.54-2.75,1.13-4.12,1.75l-1.66.76-.17.08c-8.67,4.09-16.39,9.7-21.67,18-.1.16-.2.34-.3.5l-.28.41a88,88,0,0,0-4.59,8.8l-.23.47,0,.05c-.46.93-.93,1.85-1.43,2.75a30.53,30.53,0,0,1-2,3.19c-.27.34-.53.68-.82,1a38.67,38.67,0,0,1-4.26,4.26c-7.66,6.9-16,13-24.21,19.29C63.48,289.25,47.58,300.25,31.43,311c-.19.13-.13.48.05.89l-.31.21c-.3.2.36,1.05,1.08,1.57a.6.6,0,0,0,.4.84c0,.15.1.24.23.16l.19-.13a.2.2,0,0,0,.23.14c0,.1,0,.17,0,.19l.22-.15s0,.08,0,.09l.66-.44a.79.79,0,0,0,.15.17q10.49-6.77,20.68-14,8.68-5.92,17-12.31,8.47-6.2,16.75-12.67c6.43-5.05,13.26-9.94,19.14-15.66a36.82,36.82,0,0,0,7.3-10q1.78-3.93,3.73-7.77l.33-.59a40.31,40.31,0,0,1,2.46-3.85l.15-.2a40.29,40.29,0,0,1,3.21-3.84l-.13-.08.24-.26.06-.06a29.47,29.47,0,0,1,2.72-2.21c.3-.29.62-.56.93-.84.55-.37,1.1-.74,1.68-1.08.89-.84,1.81-1.62,2.76-2.36h0l1.26-.79c.52-.31,1-.63,1.58-.91a106.72,106.72,0,0,1,22.12-8.8c2.54-.72,5.08-1.39,7.6-2a.11.11,0,0,0,.07-.07l.26-.07c.06,0,.07-.09.07-.2l2.47-.61,2.55-.61h0l.2,0c.08,0,.14-.14.17-.28l0-.06a1.16,1.16,0,0,0,.29-.47l.13,0C172.29,211.75,172.22,211.73,172.09,211.72Z"/><path class="b" d="M199.08,163.91c.12-.14.05-.2-.08-.21l.08-.09c.14-.18.08-.27-.07-.32s-.17-.29-.39-.34c-.2-.5-.76-1-1.21-.53l0,0a.67.67,0,0,0-.19,0c-.66-.52-1.41-.88-1.67-.58-5,5.78-9.69,11.58-13.48,18.23-1,1.82-2,3.66-2.94,5.52-1.57,2.94-3,5.95-4.28,9a112.48,112.48,0,0,0-6.43,21.3,85.93,85.93,0,0,0-1.61,9.72,123,123,0,0,0-.63,15.13,45.58,45.58,0,0,0,1,10,8.77,8.77,0,0,0,.95,2.51,4.38,4.38,0,0,0,1.82,1.65,8.14,8.14,0,0,0,1.83,1.1.78.78,0,0,0,.45,0l.51.33c.27.17.38,0,.38-.25l.1.07c.19.12.26,0,.26-.14l.31.18s-.2-.3-.37-.52v0h0a.28.28,0,0,0,.28,0l.44.26a3.7,3.7,0,0,1-.37-.32l0,0a.52.52,0,0,0,.2-.08.45.45,0,0,0,.13-.12l0-.06a.45.45,0,0,1,.33,0l-.26-.12a.47.47,0,0,0,0-.15V255l.36.22c.14.08,0-.07-.21-.24.14,0,.21,0,.07-.13l-.16-.12a.45.45,0,0,0,.08-.11c.32.11.73.17.3-.13-.11-.08-.2-.16-.3-.24a.66.66,0,0,0-.16-.74l-.16-.14a1.12,1.12,0,0,0-.25-.6c-.11-.08-.19-.16-.29-.24a2,2,0,0,0-.67-1.13,10.38,10.38,0,0,1-1.08-1.35c-.15-.68-.26-1.4-.36-2.16-1.48-11.16-.25-23,2.2-33.87q.6-2.69,1.34-5.32a111.69,111.69,0,0,1,5.73-15.68c.42-1,.86-2,1.32-2.94l.23-.45c.1-.22.21-.44.31-.66.54-1.1,1.1-2.19,1.69-3.26l.63-1.11c.32-.56.64-1.13,1-1.69.24-.4.49-.8.73-1.2a107.08,107.08,0,0,1,7.55-10.82l0-.05.14-.18c1.4-1.73,2.83-3.42,4.33-5.07,0,0-.07-.14-.2-.27l.3-.36a.37.37,0,0,0,.07-.24.54.54,0,0,0,0-.21.61.61,0,0,0,.05-.15l.32-.36a1.07,1.07,0,0,1-.21.14A.37.37,0,0,0,199,164Z"/><path class="b" d="M212.23,255.88a7.41,7.41,0,0,0-.6-1.74,9.22,9.22,0,0,0-1.15-2.43,8.59,8.59,0,0,0-6-3.51,13.86,13.86,0,0,0-1.86-.29,31.28,31.28,0,0,0-6.19.25c-13.59,1.45-27.16,3.2-40.74,4.82-.17,0-.27.23-.32.53l-.52.06,0,0-.57.07c-.48.06-.38.63-.06,1.26h0c-.6.09-.11.84.51,1.4-.25.15-.11.55.18.78,0,.24.09.47.35.44l.44-.05h0a1.8,1.8,0,0,0,.06.33l14.34-1.69s0,0,.05,0q13.26-1.59,26.54-3.09l2.3-.25c1,0,2.07-.06,3.14,0l2.61.47a16.74,16.74,0,0,1,1.79.75l.3.3.34.39a6.06,6.06,0,0,1,1,1.65,5,5,0,0,1-.09.66,3.09,3.09,0,0,1-.12,1.53,5.25,5.25,0,0,1-1.19,1.27,18.93,18.93,0,0,1-2.53,1.67l-21.71,12.64-21.71,12.65q-8.54,5-17.16,10c-1.08.59-2.17,1.16-3.28,1.67a24.31,24.31,0,0,1-10,1.75c-1.92-.08-3.86-.26-5.79-.16l-2.21.24a9.07,9.07,0,0,0-3,1.08,16,16,0,0,0-2.67,1.27c-.17.1-.15.39,0,.74l-.33.25c-.32.25.31,1.06,1,1.65a.65.65,0,0,0,.09.83c0,.26.1.47.38.31l.37-.2a.44.44,0,0,0,0,.11c0,.22,0,.42,0,.44l.24-.14v0l.29-.16.11,0a.47.47,0,0,0,.22.07,1.56,1.56,0,0,1,.1.21l.26-.14,0,0a13.74,13.74,0,0,1,3.45-1.54l.27,0,.53-.15h.06a42.6,42.6,0,0,1,5.3,0c.68,0,1.36,0,2,.05a26.15,26.15,0,0,0,4.94-.27,24.85,24.85,0,0,0,5.7-1.71c.67-.27,1.34-.57,2-.88,4.36-2.1,8.55-4.81,12.69-7.23q18.08-10.56,36.16-21.1l14.56-8.48a14.34,14.34,0,0,0,1.92-1.23,10,10,0,0,0,1.55-1.34c.14-.14.26-.3.38-.45a4.81,4.81,0,0,0,1.25-1.77,7.46,7.46,0,0,0,0-4.68Z"/><path class="b" d="M112.66,308.35s-.13-.07-.27-.17a.28.28,0,0,0,0-.11.56.56,0,0,0-.2-.81c-.08-.35-.25-.65-.53-.69-.29-.91-.81-1.78-1.11-1.61s-.9.52-1.35.78a.43.43,0,0,0-.24,0C93.58,314.46,79.78,326,66.83,337.86c-.16.15-.13.45,0,.79l-.34.34c-.27.29.3,1,1,1.47a.59.59,0,0,0,.1.82c.05.34.33.65.65.35l.15-.14a3.49,3.49,0,0,0,.22.51l.3-.27a.6.6,0,0,1,.06.17l.31-.28.23.26.39-.36s0,.07,0,.08q8.49-7.82,17.51-15Q89,325.31,90.67,324L92,323q1.5-1.15,3-2.28,3.26-2.42,6.59-4.74c2.18-1.49,4.38-3,6.61-4.37l0-.07.72-.48s0,0-.08,0c.79-.47,1.59-.94,2.39-1.4.06,0,.05-.15,0-.29l.16-.09a.29.29,0,0,0,.09-.09.58.58,0,0,0,.09-.09l.21-.13a.33.33,0,0,0,.09-.09l.5-.3s0,0,0-.08Z"/><path class="b" d="M258.66,160.55a3.92,3.92,0,0,0-.15-.39,5.17,5.17,0,0,0-.64-1,6,6,0,0,0-1.24-1.64,7.34,7.34,0,0,0-1.94-2.33,31.89,31.89,0,0,0-13.37-5.47,48.92,48.92,0,0,0-16.35,0,71.94,71.94,0,0,0-10.35,2.45,50.19,50.19,0,0,0-5,1.72,16.79,16.79,0,0,0-5,2.37c-1.53.59-3.06,1.21-4.56,1.83-.18.07-.09.44.17.91l-.7.28c-.76.31.25,1.36,1.44,2.15l-.17.1a.7.7,0,0,0-.13,1.11,1,1,0,0,0,.47.23.88.88,0,0,0,1.16.46l.2-.08c.12.28.27.51.38.47l.51-.21h0l2.34-.95,2.84-1.09c.06.07.12.12.16.11a94.09,94.09,0,0,1,19.1-5.17,45.26,45.26,0,0,1,11.78.07A31.52,31.52,0,0,1,251.15,161c.26.18.53.37.79.58a3.68,3.68,0,0,1,.7,2l-.1.8c-.34,1.12-.8,2.22-1.17,3.34a135,135,0,0,1-13.56,29.09c-.22.34-.43.7-.65,1L237,198c-2.51,3.8-5.23,7.46-8,11.1-.25.33-.48.67-.69,1a9.43,9.43,0,0,0-2.05,5c0,.31,0,.62,0,.92-.51,2.42.24,5,1.08,7.46a10.78,10.78,0,0,0-1.85,1,10.53,10.53,0,0,0-4.26,3,7,7,0,0,0-1,1.75c-.09.13-.18.24-.26.38a8,8,0,0,0-.94,5.86,6,6,0,0,0,.48,3.18c.78,1.64,2.2,2.73,3.4,4.06a3.2,3.2,0,0,1,.84.89l-.55,1.68-.17.15-1.2,1.19c-1.36,1.28-3.25,2.36-4.19,4a7.48,7.48,0,0,0-.36.74,6.62,6.62,0,0,0-.86,1.42,7,7,0,0,0,0,5,15.59,15.59,0,0,0,1.44,4.83,21.33,21.33,0,0,1,.79,2.13,4.2,4.2,0,0,1-.21,1.59s-.08.11-.13.15a25.52,25.52,0,0,1-3.74,3.88,15.08,15.08,0,0,0-3.18,4.44,17,17,0,0,0-2,4.93c-1.16,5-.59,10.13.34,15.13a49.26,49.26,0,0,1-12.34-5.89,71.74,71.74,0,0,1-6.81-4.93,37,37,0,0,1-5.57-5.75c-.5-.68-1-1.38-1.48-2.1a.53.53,0,0,0-.26-.22l-.65-.92c-.36-.51-.62-.11-.8.37l-.23-.3c-.46-.65-.91-.48-1.09.23,0,.16,0,.33,0,.49l0-.06c-.43-.62-.84-.28-1,.19-.32-.3-.67-.46-1-.25s-.24.69,0,1.14l-.06,0c-.57-.16-1.23.14-.74.83s.81,1.13,1.21,1.68c-.26.14-.35.39-.07.81a31.24,31.24,0,0,0,4.13,5.47l.18.19c.17.18.33.36.51.54l.05,0c.22.23.42.46.65.68l3.08,2.82A67.44,67.44,0,0,0,203.78,300a33,33,0,0,0,9.86,2.78c.11,0,.17-.08.19-.2l.31,0h0l.6.09a.24.24,0,0,0,0-.15l-.05-.26h.07a.4.4,0,0,0,.2,0,.81.81,0,0,0,.65-.36l.25,0h0l-.09-.46a.34.34,0,0,0,.19-.15l.34,0a.17.17,0,0,0,.14-.16l-.07-.35a.69.69,0,0,0,.31-.63q-.19-.89-.37-1.79a1.8,1.8,0,0,0,0-.28l-.23-1.1a42.17,42.17,0,0,1-.83-12.6,14.08,14.08,0,0,1,.67-1.73c-.05-.38-.08-.75-.1-1.11l.47-2a11.36,11.36,0,0,1,.83-1.72l.58-.86a21.18,21.18,0,0,1,2.82-3c.48-.43.93-.86,1.35-1.3.18-.18.37-.35.55-.54a7.6,7.6,0,0,0,2-3.31,5.69,5.69,0,0,0,.43-2.55,9.39,9.39,0,0,0-.51-2.34,30.42,30.42,0,0,0-1.82-5.59,5.15,5.15,0,0,1,.8-2.36,4.79,4.79,0,0,1,.12-1.9c1.34-1.38,3-2.48,4.27-4l.12-.16.31-.32a7,7,0,0,0,1.65-3,4.51,4.51,0,0,0,.29-2.84,3.81,3.81,0,0,0-.38-.95,4.31,4.31,0,0,0-.37-1.59,3.9,3.9,0,0,0-.45-.72,5.3,5.3,0,0,0-1-2.13,15.34,15.34,0,0,0-2-2l.2-4.12.12-.21,0,0a5.15,5.15,0,0,1,.3-.46c.26-.2.52-.39.79-.56a6.92,6.92,0,0,1,1.25-.56c.11-.1.24-.18.35-.27a20.53,20.53,0,0,1,4.24-1.16l0-.05,0-.1.4-.08v0l-.09-.35h.07a.76.76,0,0,0,.61-.6l.11,0h0l0-.16.39,0q.09,0,.06-.1c0-.15-.08-.29-.12-.44l.08,0c.13,0,.31-.15.27-.32-.34-1.38-.73-2.73-1.17-4.08a19,19,0,0,1-.89-3,4.76,4.76,0,0,1-.27-1.47l.19-.9c0-.08,0-.17.07-.25v-.05l.57-2.68a12.17,12.17,0,0,1,.75-1.11A166,166,0,0,0,244.73,198a137.38,137.38,0,0,0,8.05-15.61,118.39,118.39,0,0,0,6.17-17.15c.07-.26.12-.52.16-.78A4.46,4.46,0,0,0,258.66,160.55Z"/><path class="b" d="M235.34,179.87l-.11,0,.06-.07c.12-.12.09-.18,0-.21.17-.16.08-.26-.09-.31a.52.52,0,0,0-.36-.47c-.2-.48-.62-1-.91-.75l-.14.11a.61.61,0,0,0-.5-.11c-.41-.28-.8-.42-1-.26l-1.19,1c-.35-.25-.65-.36-.75-.15l-.43.89h0l-.07.14c-.41-.24-.77-.31-.9,0l-.21.58a.21.21,0,0,0-.15.12,6.65,6.65,0,0,0-.32.73l-4.32,3.58c-.14.11-.1.29,0,.49l-.31.26c-.32.26-.06.57.37.86l-.72.6c-.22.18,0,.51.24.53-.15,0,.16.06.74.18a.32.32,0,0,0,.25.3,21.9,21.9,0,0,0,6.49.84l.43.06a.85.85,0,0,0,.66,0,1.47,1.47,0,0,0,.35-.14l.14,0a.5.5,0,0,0,.52-.3l0,0a.47.47,0,0,0,.29-.25,2.16,2.16,0,0,0,.38-.83c.66-1,.47-2.82.18-4.42l.83-1.86.11-.09v0l.33-.28s-.09-.06-.18-.15l.25-.56Z"/><path class="b" d="M202.67,202a5.51,5.51,0,0,0-.65-1.5,6.15,6.15,0,0,0-.42-.72,4.93,4.93,0,0,0-.45-.54l0-.06a14.47,14.47,0,0,0-6-4.4c-.28-.59-.71-1.07-1-.68l-.12.14c-.24-.17-.44-.25-.52-.14l-.09.11c-.27-.14-.49-.18-.6-.05l-.3.36a2.58,2.58,0,0,0-2.93,1.67,3,3,0,0,0-.47,1,2.94,2.94,0,0,0,0,1.46,11.52,11.52,0,0,0-1.53,2.88c-.09.17-.2.33-.29.5a2.35,2.35,0,0,0-.34,1.11,1.51,1.51,0,0,0,.32,1,2.14,2.14,0,0,0,.31.31,1.33,1.33,0,0,0,.27,1.05,1.38,1.38,0,0,0,.7.42,1.77,1.77,0,0,0,.4.32c.5.16,1,.3,1.53.44a15.19,15.19,0,0,0,2.75.68l.48.11a13.85,13.85,0,0,0,1.85.37c1.66.32,3.47.46,4.85-.41a3.33,3.33,0,0,0,.78-.57l.2-.08a3.61,3.61,0,0,0,.75-.75,3,3,0,0,0,.85-1.62A3.8,3.8,0,0,0,202.67,202Zm-11.35.52a2,2,0,0,0-.08.67l-.21-.07C191.11,202.94,191.21,202.74,191.31,202.54Z"/><path class="b" d="M211.1,233.26l.19-.28c.61.25.74.29,0,0h0a.12.12,0,0,0,.09,0,19.11,19.11,0,0,0,2.18-4.15,5.66,5.66,0,0,0,0-5.21,9.52,9.52,0,0,0-1.85-2.91c-.65-1.08-1.53-2-2.67-2a.81.81,0,0,0-.41-.44l-.09-.21c.41-.51.33-.5-.06-.14-.38-.8-.89-1.43-1.24-1,1.64-2.06.68-1.15-1,.65-.15,0-.27,0-.33.06-.38.56-.79,1.09-1.2,1.62-.88,1-1.8,2-2.57,2.95a35.2,35.2,0,0,1-2.62,2.47l-.36.35a1.73,1.73,0,0,0-.32.77l-.25.24a1.06,1.06,0,0,0-.25.85,1.21,1.21,0,0,0,.39.73,1.42,1.42,0,0,0-.31.76.78.78,0,0,0,.33.77l.24.16.65.32.07.07.17.13q4.08,2.19,8.34,4a1.36,1.36,0,0,0,.53.06l.57.23a.44.44,0,0,0,.44-.11l.06-.1a.27.27,0,0,0,.24,0l.32.09h0l.15-.23c.18,0,.25.05.15,0h0Zm-7.19-6.16a2,2,0,0,0,.28.24l-.35-.18Zm1,.63,0,0-.07,0Z"/><path class="b" d="M182.18,233.45s0-.05-.06-.08c-.1-2-.2-3-.17-.94l0,0c-.09-1.37-.17-1.78-.13-.07h0c0-.06,0-.12,0-.18,0-.68-.09-.88-.09-.3a.4.4,0,0,0-.34-.23c-.18-.71-.49-1.42-.94-1.41a10.3,10.3,0,0,0-3.82.36,3.39,3.39,0,0,0-.55-.81,4.79,4.79,0,0,0-.38-.85,6.56,6.56,0,0,0-3-2.23c-.46-.22-.45.35-.4.7l-.31-.16c-.21-.1-.3.08-.33.27l-.1-.05c-.11-.05-.65-.18-.58.18.06.2.09.41.14.61-.31-.11-.68-.16-.6.26a21.52,21.52,0,0,1,.44,5,3.71,3.71,0,0,0-.76.44,2.94,2.94,0,0,0-.9,1.17c-1.13,1.31-.82,3.47-.81,5.1s-.29,3.5,1,4.75l.38.34a2.47,2.47,0,0,0,1,1.31,1.83,1.83,0,0,0,1.13.54l0,0a2.43,2.43,0,0,0,1.64,0c1,.47,2.45,0,4.25-1.44l2.2-.77a1.57,1.57,0,0,0,.52-.21l.11,0,.05-.08.13-.09.08-.08a2.74,2.74,0,0,0,1.06-.7l.22-.6c0-.06,0-.12,0-.18C183.51,239.79,182.1,229.93,182.18,233.45Zm-10,9.48a1.83,1.83,0,0,0,.41.1l-.37.07h0C172.18,243,172.18,243,172.18,242.93Z"/><path class="b" d="M227.76,156.71a2.07,2.07,0,0,0-.11-.23,2.3,2.3,0,0,0-.46-1,3,3,0,0,0-.54-.76,3.52,3.52,0,0,0-3.68-1.92l0,0a5.44,5.44,0,0,0-2.74-.06,5.07,5.07,0,0,0-5.11,2c0,.06-.09.14-.13.21a49.14,49.14,0,0,0-5.14,3.59.42.42,0,0,0,0,.52l0,0-.35.27a.31.31,0,0,0-.21.39,13.79,13.79,0,0,0,.89,1.68h0a11.72,11.72,0,0,0,1,1.68.52.52,0,0,0,0,.06c0,.23.23.42.5.57l.14.15a.43.43,0,0,0,.21.64l.26.11a.3.3,0,0,0,.12.15l1.22.52.06,0a9.82,9.82,0,0,0,1.9,1,1.16,1.16,0,0,0,.55,0l4.14,1.78a1,1,0,0,0,.86-.13l.08.12c.23.35.28.11.24-.17l.11,0,0,0c.21.32.24.14.19-.11h.07c.09.11.19.21.28.21-.09,0-.19-.09-.28-.21.15,0,.23-.14.26-.3a.34.34,0,0,0,.13-.21l0,0a.68.68,0,0,0,.11-.13c.15,0,.27,0,.25,0l-.1-.16,0,0a.38.38,0,0,1,.22.13l-.2-.31a.29.29,0,0,0,0-.07c.08-.07.11-.18,0-.33l-.23-.34a.75.75,0,0,0,0-.09l-.11-.14h0c-.37-.56-.8-1.25-1.18-2-.09-.23-.16-.47-.23-.7,0,0,0-.06,0-.09l0,0a5.18,5.18,0,0,1-.16-1.88V161h0l.91.17.4.12a5.28,5.28,0,0,0,2.44.11,3,3,0,0,0,.52-.16h.1a2.64,2.64,0,0,0,2.17-1.88A2.36,2.36,0,0,0,227.76,156.71Z"/><path class="b" d="M215.1,278.88c-.07,0-.16,0-.26-.11a.24.24,0,0,0,0-.3.33.33,0,0,0,0-.45l-.1-.09a.62.62,0,0,0-.2-.43l-.27-.23a1.82,1.82,0,0,0-.39-.63l-1.11-.82a.37.37,0,0,0-.52.09l-.06,0c-.24-.27-.58-.62-.87-.5s-.37.45-.19.73c-.08,0-.13.14-.13.3-.94.3-1.88.59-2.82.85-.12,0-.21,0-.25.06a63,63,0,0,1-8.84,1.74c-.44.08-.32.47,0,.92l-.43.07c-.7.12.24.91.33,1l.71.5c-.26.15-.49.49-.16.73l10.76,7.62,0,0,.53.38a.4.4,0,0,0,.58,0l.33.24c.1.07.07-.09,0-.25l.08,0,.21.15c.1.07.08-.07,0-.22s.17-.11.22-.24a.45.45,0,0,0,.11-.14l.13-.13.09-.08c.18,0,.31,0,.27-.07l-.08-.15,0-.07.11.06a.28.28,0,0,1,.09.08c-.07-.13-.14-.26-.21-.4a.34.34,0,0,0,0-.39,16.83,16.83,0,0,1-1.67-5.18,14.08,14.08,0,0,1,0-2.71c.85-.25,1.7-.51,2.55-.8,0,0,0,0,0,0l.29-.09s0-.12,0-.24l.08,0c.06,0,.1-.11.12-.22a.74.74,0,0,0,0-.12l.08-.06.44-.16s0,0,0-.08l0-.05Z"/><path class="b" d="M471.67,353.84l-.29-.3a1.28,1.28,0,0,0-.06-1l-.26-.27a1.89,1.89,0,0,0-.24-1.14c-9.88-10.12-19.4-20.43-28.4-31.35-7.44-9-14.63-18.22-21.73-27.51-3-3.87-6.32-7.79-8.88-12.09-.55-1-1.07-2-1.54-3.07-.17-.39-.33-.78-.48-1.17-1.56-4.87-2.09-9.94-3.73-14.83-.15-.44-.31-.88-.47-1.31a42.1,42.1,0,0,0-3-6.84c-.57-1-1.23-2.06-1.91-3.06l-.55-.8-.44-.61-.36-.5c-.23-.31-.49-.6-.73-.9l-.18-.25a67.27,67.27,0,0,0-10.75-11.17,105.06,105.06,0,0,0-8.91-6.51q-4.55-2.95-9.29-5.58a20.13,20.13,0,0,0-8.9-3.65c-.25-.06-.38,0-.44.17l-1.29-.68c-.5-.26-.7.15-.56.57a1.87,1.87,0,0,0,.31.53.41.41,0,0,0-.41.2c-.28.51.68,1,1,1.14a.5.5,0,0,0-.16.05c-.2.16-.32.62-.05.8l.2.13a.44.44,0,0,0,.22.32c5.19,3.27,10.66,6,15.88,9.22q3.18,2,6.2,4.12l.85.61c.56.41,1.1.83,1.65,1.25a49.94,49.94,0,0,1,5.12,4.63,67.79,67.79,0,0,1,7.38,8l.54,1.1,0,0h0l5.55,11.21.28.83c.21.92.41,1.85.61,2.77.28,1.42.55,2.84.86,4.25.11.55.22,1.1.32,1.65,1.67,6.93,5.55,12.58,9.75,18.21q10.57,14.15,21.65,27.92,7.42,9.23,15.29,18.08Q458,344.43,465,351.48q1.83,1.9,3.68,3.78a.39.39,0,0,0,.55.06l.33.34s.06-.11.07-.29h.09l.18.18s.07-.11.09-.29l.12,0,.32.33a.83.83,0,0,1-.17-.34h0a.38.38,0,0,0,.23,0l.23.23a.79.79,0,0,1-.16-.27.66.66,0,0,0,.21-.26l.2.2c.1.1,0-.06-.14-.24.11,0,.16-.12.09-.23h0a.75.75,0,0,0,.29,0c.28.2.36,0,0-.34l0,0C471.6,354.36,472,354.22,471.67,353.84Z"/><path class="b" d="M391.37,325.05l-.3-.3c.37-.75.59-1.55.25-1.87a14.26,14.26,0,0,0-3.53-2.65,12.89,12.89,0,0,0-2.46-.89c-.53-.18-1.08-.34-1.64-.48-.78-.19-1.56-.35-2.35-.51-1.64-.37-3.23-.69-4.8-1.11l-.55-.18-.8-.29-.44-.18-.83-.36-.46-.21a19,19,0,0,1-2.51-1.45,62.91,62.91,0,0,1-6.93-5.82c-1.23-1.15-2.46-2.31-3.69-3.46-7.15-6.86-14.25-13.77-21.39-20.65-8.13-7.83-16.29-15.63-24.4-23.49a14.42,14.42,0,0,1-2.14-2.53l0-.26q0-.22,0-.45a5,5,0,0,1,.26-.43,5.16,5.16,0,0,1,.33-1.27,7,7,0,0,1,.53-.58c.2-.17.4-.33.61-.47a7.32,7.32,0,0,1,.82-.48l.33-.13a8.92,8.92,0,0,1,.92-.28l5,.32c.66.16,1.32.35,2,.56q7.68,2.77,15.33,5.64,13,4.92,26,9.75s0-.1,0-.22l.34.13a1,1,0,0,1,0-.37.43.43,0,0,0,.21-.07.38.38,0,0,0,.4-.2.54.54,0,0,0,.25-.17c.09,0,.15,0,.14-.07a.36.36,0,0,0,.2,0l.22.09s-.13-.19-.27-.38a.59.59,0,0,0,.05-.12l.26.09c.14.05.31-.17.23-.3a1.22,1.22,0,0,0-.35-.33,1,1,0,0,0-.2-.92c0-.48-.13-.9-.32-1l-.44-.2c-.13-.43-.3-.75-.48-.82l-9.41-3.57c-4.08-1.79-5.47-2.27-15.72-6.09-5-1.89-10.08-3.91-15.19-5.62a28.21,28.21,0,0,0-2.75-.77l-.57-.14c-2.64-.59-5.87-.75-8.19.92a8,8,0,0,0-4,3.42,4.85,4.85,0,0,0-.2.45,5.49,5.49,0,0,0-.69,4.38,4.84,4.84,0,0,0,.56,2.44,12.62,12.62,0,0,0,2,2.63q3.1,3.11,6.32,6.09,2.2,2.14,4.45,4.24L332.77,285l16.12,15.5c5.08,4.89,10.25,10.19,15.63,14.94a31.7,31.7,0,0,0,6.73,4.72,20.11,20.11,0,0,0,4.28,1.75c1.9.53,3.85.82,5.77,1.25a16.33,16.33,0,0,1,5.76,2.26,10.45,10.45,0,0,1,1.39,1.32.21.21,0,0,0,.32,0l.42.37s0-.14,0-.27l.18.17a.54.54,0,0,1,.08-.16h0c.18.12.31.09.4,0,.08.09.17.17.25.26a.87.87,0,0,1-.18-.33l.12-.07.33.3a.85.85,0,0,1-.17-.43l0,0,.1,0,.24.22c.16.15.07-.13-.05-.39a.5.5,0,0,0,.17-.12l.09.08c.38.34.48,0,.37-.4C391.47,325.71,391.66,325.35,391.37,325.05Z"/><path class="b" d="M430.39,368.47c.14,0,.34-.19.25-.32l-.41-.55a1,1,0,0,0-.07-.71l-.22-.29a1.47,1.47,0,0,0-.23-.65c-4.53-6.11-9.18-12-14.17-17.7-2.27-2.65-4.58-5.26-7-7.82-6.35-6.79-13-13.31-19.47-20-.37-.38-.67-.29-.76.24a1.3,1.3,0,0,0,0,.28c-.34-.34-.58-.13-.65.17-.28-.21-.61-.31-.77.12a.81.81,0,0,0,.19.65l-.14,0c-.41,0-.86.24-.44.67l1,1.05c-.29.13-.41.36-.1.68l.4.41,0,.06q1.78,1.84,3.58,3.66l2,2.05,3.95,4,.48.49c3.15,3.21,6.3,6.43,9.37,9.71q1.26,1.35,2.49,2.71c4.91,5.44,9.53,11.08,14,16.85q2,2.54,3.91,5.12c.2.27.43.17.57,0l.33.43a1.46,1.46,0,0,0,0-.36.26.26,0,0,0,.16,0l.21.25a3.08,3.08,0,0,0,0-.36H429l.18.24s0-.08.09-.17a3.5,3.5,0,0,1,.25.28l-.23-.31.16-.18h0a.68.68,0,0,0,.22-.12l.24.32a2.39,2.39,0,0,1-.17-.38l.05-.09c.11,0,.17-.07.12-.14l-.06-.08h0a.66.66,0,0,0,.33,0c.19.16.35.24.11-.08l-.16-.22,0,0A1,1,0,0,0,430.39,368.47Z"/><path class="b" d="M352.69,242c.53-1.3,1-2.61,1.5-3.94,3.13-9.09,5.66-18.81,5.53-28.48a40.27,40.27,0,0,0-4.4-17.92l-.05-.1c-.15-.3-.29-.6-.44-.9a42.57,42.57,0,0,0-6.34-8.75c-.5-.54-1-1.06-1.54-1.59h0c-.53-.55-1.06-1.09-1.61-1.63a72.11,72.11,0,0,0-6-5.34c-1.31-1.07-2.65-2.11-4-3.1a70.72,70.72,0,0,0-26-11.88c-.75-.16-1.53-.32-2.32-.46l-.46-.11c-3.45-.73-7.5-1.48-11-.54a16.44,16.44,0,0,0-8.73,6.09c-2.63,3.31-5.18,6.7-7.68,10.11-4.2,5.75-8.21,11.63-11.9,17.73A103.85,103.85,0,0,0,261,202.84,50.36,50.36,0,0,0,257.21,213a21.14,21.14,0,0,0-.13,10.24h0a17.5,17.5,0,0,0,.46,2.15c.29,1,.76,2,1.16,3.07a5.75,5.75,0,0,1,0,1.38,13.11,13.11,0,0,1-1.5,4.34c-.44.75-.9,1.48-1.3,2.16a4.09,4.09,0,0,1-1.13,1.48,4.41,4.41,0,0,1-.81.38l-1.09.2a.37.37,0,0,0-.27.19c-.62.13-1.25.23-1.79.35s-.5.54-.31.92c.05.1.09.2.14.3l-.65.13a.47.47,0,0,0-.31.58,6,6,0,0,1,.85,1.84.72.72,0,0,0-.06.66c.09.14.17.28.25.43a7,7,0,0,1-.68,3.3q-.68,1.81-1.49,3.58a21.74,21.74,0,0,0-1.71,5.48c-.27,1.91.44,3.33.63,5.16a5.08,5.08,0,0,1-.11,2.12,13.15,13.15,0,0,1-3.24,3q-8.2,5.47-16.21,11.21a12.4,12.4,0,0,0-2.65,2.57,8.57,8.57,0,0,0-.57,1,7.33,7.33,0,0,0-1.1,1.87,12.38,12.38,0,0,0-.56,4.56q.17,6.82.5,13.64a3.26,3.26,0,0,0,.3,1.62,4,4,0,0,0,1.14,1.64,3.18,3.18,0,0,0,.91,1.93,2.64,2.64,0,0,0,.68.8,2.84,2.84,0,0,0,1,.51,2.68,2.68,0,0,0,1.56.65,74.77,74.77,0,0,0,8.63.16,184.78,184.78,0,0,0,29.26-2,100.67,100.67,0,0,0,18.09-4.33c9-3.14,17.53-7.84,25.76-12.64,3.73-2.18,7.4-4.44,11.05-6.74l.17-.11.27-.17,2.75-1.75c.11-.07,1.23-.85,1.92-1.29.05,0,.07,0,.06,0a1.43,1.43,0,0,1,.48-.24,1,1,0,0,1-.13-.14c.2-.11.36-.17.41-.14a.82.82,0,0,1-.21-.23.79.79,0,0,0,.14-.2l0,0v0h0l.69-.43-.24-.13c.18.08.27.11.15,0h0l-.21-.15a.09.09,0,0,0,0-.1l.44-.28-.42-.14h0c.36.07.65.08.41-.09h0a3.38,3.38,0,0,0-.43-.23.77.77,0,0,0-.13-1h0a1.07,1.07,0,0,0-.26-.14,1.48,1.48,0,0,0-.32-.89h0a.84.84,0,0,0-.54-.22,3.69,3.69,0,0,0-1.1-1.84h0l-.35,0-1.77,1.12a.68.68,0,0,0-.29.09c-6.77,4.29-13.55,8.58-20.53,12.5-3.52,2-7.08,3.82-10.73,5.52-10.09,4.7-20.82,7.18-31.84,8.55a191.85,191.85,0,0,1-22.53,1.11c-2.68.08-5.35,0-8-.12l-.25-5.34a29.1,29.1,0,0,1,.13-8.83,6.86,6.86,0,0,1,.12-1.34,9.06,9.06,0,0,1,1.93-2.71l.55-.43c.52-.39,1.05-.76,1.58-1.14l4.88-3.4c3.39-2.29,6.82-4.53,10.13-6.93a15.77,15.77,0,0,0,1.32-1.07,9.81,9.81,0,0,0,1.74-1.65l.22-.21a5.93,5.93,0,0,0,1.28-2.2c1.34-2.74-.6-5.28-.25-8.1a15.82,15.82,0,0,1,1.15-4c.53-1.23,1.12-2.45,1.58-3.71a17.06,17.06,0,0,0,1-3c.24-1.21-.05-2.28.1-3.36l.4-.1a4.91,4.91,0,0,0,1.55-.65,2.67,2.67,0,0,0,.44-.41,2.91,2.91,0,0,0,.31-.22,4.28,4.28,0,0,0,.74-.94,6.57,6.57,0,0,0,.77-1.11,53,53,0,0,0,2.75-5.1,15.21,15.21,0,0,0,.63-1.61,7.5,7.5,0,0,0,.62-3.62A13.8,13.8,0,0,0,264,227a17.61,17.61,0,0,1-1.19-5,25.39,25.39,0,0,1,.85-8.23,57.88,57.88,0,0,1,2.54-6.86c.24-.56.51-1.1.77-1.65.64-1.28,1.31-2.55,2-3.79a176.92,176.92,0,0,1,10.59-17q1.9-2.74,3.86-5.43l1.17-1.59.12-.16,2.24-3c1.53-2,3.05-4.08,4.66-6a23.6,23.6,0,0,1,1.81-2c.21-.1.41-.21.63-.29l.17-.2c.22-.1.42-.21.65-.29a8.35,8.35,0,0,1,1.12-1.2,11.57,11.57,0,0,1,1.13-.6,6,6,0,0,1,1.77-.32,20.5,20.5,0,0,1,6,.22,35.92,35.92,0,0,1,3.48.93A71.66,71.66,0,0,1,325.88,172c7.21,4.25,14.13,9.69,19.25,16.39a38.16,38.16,0,0,1,5.37,9.09,42.41,42.41,0,0,1,1.93,6.3,38.37,38.37,0,0,1,.75,7,56.4,56.4,0,0,1-.54,8.19c-.08.43-.16.87-.25,1.3A45.84,45.84,0,0,1,351,226.8a110,110,0,0,1-4.14,12.84c-1.29,3.31-2.9,6.49-4.17,9.81-.31.81-.52,1.84-.85,2.77a2.62,2.62,0,0,1-1.35,1c-.46.15-.4.58-.07,1.09a2.61,2.61,0,0,1-.68.33c-1,.33.58,1.33.72,1.41l.1.05a6,6,0,0,1-.52.71l-.12.33.24.58c.12.27.56.37,1.09.39.1.31.64.41,1.25.37.12.32.39.6.65.54a2.82,2.82,0,0,0,1.33-.57,2.54,2.54,0,0,0,.39-.22c.19.16.36.27.4.23s.2-.26.29-.39l.11.08a6.69,6.69,0,0,0,.84-1.26c.06.06.1.11.09.14a21.51,21.51,0,0,0,1.05-2.74c.06,0,.11,0,.12,0,.47-1.43,1-2.83,1.55-4.21l.47-1q1.54-3.41,2.87-6.89v0Z"/><path class="b" d="M295.82,198.47a6.16,6.16,0,0,0,.69-2.89q0-.74,0-1.49l-.08-2a14.84,14.84,0,0,0-.17-4.15v0l0-.09a2.74,2.74,0,0,0-.53-1.53,1.15,1.15,0,0,0-.44-.58,1.87,1.87,0,0,0-.38-.57,1.56,1.56,0,0,0-.66-.36,5.76,5.76,0,0,0-1.27-.21,3.2,3.2,0,0,0-.47-.17c-2.39-.66-7.58.31-10,.56-.32,0-.23.37,0,.78l-.53.07c-.7.07.38.89.38.89a7,7,0,0,0,.67.43c-.31.05-.52.24-.39.58.06.18.3.25.56.27a.53.53,0,0,0,.56.28l.13,0a4.94,4.94,0,0,0-.72,2.67,3.55,3.55,0,0,0,.26,1.32c-.06.12-.11.24-.16.36a11,11,0,0,0-.68,1.35c-.56,1.37-1.28,4.14-.26,5.44a3.17,3.17,0,0,0,.52.51,3.84,3.84,0,0,0,.08.38,1.52,1.52,0,0,0,.89,1,1.49,1.49,0,0,0,.69.46,2.36,2.36,0,0,0,.76.11,3,3,0,0,0,1.23.12l.38,0a9.15,9.15,0,0,0,1.64-.08,25.58,25.58,0,0,0,2.71-.28,6.46,6.46,0,0,0,1.86-.59,3.87,3.87,0,0,0,1.44-1.06l.1-.1c.12,0,.22,0,.26,0,.22-.29.42-.57.6-.86l0,0A5.34,5.34,0,0,0,295.82,198.47Z"/><path class="b" d="M335.8,236.4a4.06,4.06,0,0,0,.4.06Z"/><path class="b" d="M335.94,236.66a4.68,4.68,0,0,0,1.3.16l-.82-.11Z"/><path class="b" d="M346.18,236.61a19.23,19.23,0,0,0-.63-2.55,12.63,12.63,0,0,0-.81-2.09,8.39,8.39,0,0,0-1.69-2.57l0,0a10.07,10.07,0,0,0-3.21-2.84l.11-.07.21-.11h0l.17-.1s-.12,0-.22,0c.11-.09.08-.17,0-.24.21-.15.11-.33-.09-.45a.74.74,0,0,0-.42-.62c-.23-.65-.72-1.28-1-1.08l-.3.21c-.19-.11-.36-.14-.48,0l-.06,0c-.31-.19-.6-.28-.8-.17-.7.4-1.39.8-2.06,1.22l-.32,0a.4.4,0,0,0-.12,0c-.51-.07-1-.12-1.6-.17s-.13.64-.06.8l.06.09-.24,0c-.93-.07-.29.69.07.95-.17.15-.35.29-.51.45a10.46,10.46,0,0,0-2.35,3.07l0,.07,0,0c-.55.82-1,2-.34,2.91a3.47,3.47,0,0,0,.69.66s0,0,0,0a1.82,1.82,0,0,0,1.09,1.51,2.36,2.36,0,0,0,.61.43,4.09,4.09,0,0,0,1.13.3l.46.07a17,17,0,0,0,2.61.43l-.21-.05,1.63.22h-.12c2.54.38,5.08.67,7.65.86.08,0,.12,0,.11-.13h0l.2,0c.08,0,.11,0,.1-.13l0-.1c.11,0,.17-.14.2-.28v0a.94.94,0,0,0,.17-.19l.12-.07h0s.27,0,.26,0l0-.13h.17Zm-7.39-4a1.2,1.2,0,0,0,.28.1h-.31A.7.7,0,0,0,338.8,232.57Zm-3.57,3.87c.33,0,.66.08,1,.11l-.48-.15h.06l-.09,0-.24-.08.94.16h-.22l.51.07-.23,0-.25,0,.14,0a5.43,5.43,0,0,1-.72,0Z"/><path class="b" d="M340.28,183.41a6.16,6.16,0,0,0-.09-3.69,10.44,10.44,0,0,0-1.39-3.55,4,4,0,0,0-.33-.52,1,1,0,0,0-.25-.22c-.08-.14-.17-.28-.25-.4-.67-.94-2.93-1.1-4.3-1.1l-.85-.07a6.7,6.7,0,0,0-1.45-.68,1.61,1.61,0,0,0-.72-.11,3.13,3.13,0,0,0-1.37-.36c-1.16,0-2.18,1.78-2.7,2.87a7.13,7.13,0,0,0-1.18,4.34,4.06,4.06,0,0,0,1,2.21,6.32,6.32,0,0,0,2.75,3,7.85,7.85,0,0,0,.81.51,11.28,11.28,0,0,0,4.42,1.34,6.17,6.17,0,0,0,1.92,0,3.88,3.88,0,0,0,2.48-1,3,3,0,0,0,.57-.74,4.23,4.23,0,0,0,.84-1.64Z"/><path class="b" d="M302.92,239c.55-.76.31-2.13.29-3.06a18.71,18.71,0,0,0-.25-3.8,12,12,0,0,0-.37-2.54c0-.06,0-.12,0-.17a3.15,3.15,0,0,0-.48-1.23,2.13,2.13,0,0,0-.62-.92,2.87,2.87,0,0,0-.57-.88,3.47,3.47,0,0,0-2.66-.64c-1.66-.52-3.69.06-5.26.54-2,.6-4.74,1.48-6.18,3a4.26,4.26,0,0,0-1.26,3.73,3.74,3.74,0,0,0,.14,1.75l-.26.24c-.82.46-1.1.67-.4.36-.22.21-.06.68.27,1.16l-.21.19c-.29.27.27.82.87,1.2a.49.49,0,0,0-.12.4c-.1.06-.11.07,0,0a.5.5,0,0,0,.13.24c-.22.13-.22.16.06,0a.77.77,0,0,0,.26.13c.08.19.23.33.44.24l.09-.09h0l.07-.06a.3.3,0,0,0,.14.1.84.84,0,0,0,.15.25l.24-.12s0,0,0,0l.67-.34q.22.19.46.36l.06,0a8.1,8.1,0,0,0,3.77,1.67c.32.09.65.15,1,.22,0,.13.07.25.11.38a.62.62,0,0,0,.49.35v0c.07.22.36.36.53.12l0-.05a.25.25,0,0,0,.2.09l.12.25.19-.24c0,.09.09.15.1.14l.51-.72a.51.51,0,0,0,.23,0l.12.14.15-.19a2.83,2.83,0,0,0,1.16-.12,1.5,1.5,0,0,0,.52-.16,1.58,1.58,0,0,0,.48-.44,1.66,1.66,0,0,0,.71-.45,2,2,0,0,0,.83.2,1.37,1.37,0,0,0,1.39,0,1.08,1.08,0,0,0,.66-.54A1.23,1.23,0,0,0,302.92,239Z"/><path class="b" d="M263.38,257.87l.22-.3s0-.07-.13-.15l.29-.38a.1.1,0,0,0-.07-.11l-.38-.25v0c.08-.21.13-.53,0-.63l-.19-.14a.75.75,0,0,0-.19-.42l-.38-.27a2.71,2.71,0,0,0-.67-.94,13,13,0,0,0-1.43-1.08.55.55,0,0,0-.3-.65c-.09-.34-.28-.64-.57-.59-.22-.66-.54-1.23-.88-1l-.52.36a.31.31,0,0,0-.25,0l-.1.06c-.38-.26-.72-.39-.91-.26l-.31.19a9.43,9.43,0,0,0-4.07-.69.42.42,0,0,0-.34.09c-.53-.12-1.06-.23-1.59-.33s-.1.8.06,1l-.29-.07c-.56-.12-.63.33-.39.7a3.14,3.14,0,0,0,1.09.83.45.45,0,0,0-.31.21c-.2.39,0,.65.4.74a.46.46,0,0,0,.39.44h0a4.84,4.84,0,0,0-.43.79c0,.09-.07.19-.1.28a5.48,5.48,0,0,0-.61,1.35,6.79,6.79,0,0,0-.32,2.85A5.89,5.89,0,0,0,251,262l.07.24a4.86,4.86,0,0,0,1.36,2.48c.06,0,.14.07.21.11a4.35,4.35,0,0,0,.38.43,1.92,1.92,0,0,0,1.15.51,1.34,1.34,0,0,0,1.17.37,1.16,1.16,0,0,0,.4-.18h0a.75.75,0,0,0,.15-.06c.39,0,.35,0,.75-.15l.24-.22.11,0a6,6,0,0,0,2-1.82,6.08,6.08,0,0,0,1.73-2.23l.7-1C262.63,259.2,263.49,258.09,263.38,257.87Z"/><path class="b" d="M297.07,281.67a5.06,5.06,0,0,0-.8-2,7.86,7.86,0,0,0-1.14-1.54,8.38,8.38,0,0,0-1.12-1.4,8.64,8.64,0,0,0-1.83-1.34.5.5,0,0,0-.31-.29c-.19-.51-.57-1-.94-.92l-.49.1h0l-.2,0c-.33-.26-.64-.42-.82-.38l-.82.19L288,274a15,15,0,0,0-1.81-.11,16.33,16.33,0,0,0-5,.16c-.93.17-1.56.62-1.63,1.33a1.21,1.21,0,0,0-.34,1.56,2.85,2.85,0,0,0-1,1.36,2.34,2.34,0,0,0-.22,2.74,4.47,4.47,0,0,0,.64.78,2.89,2.89,0,0,0,1.91,2.07,24.89,24.89,0,0,0,3.29,1.43,3.91,3.91,0,0,1,.5.29,2.26,2.26,0,0,0,.24.78,1.87,1.87,0,0,0,.58.64,6.46,6.46,0,0,0,.26.64c.12.24.1.34.3.54a1.2,1.2,0,0,0,.48.26,1.07,1.07,0,0,0,.94.42l.13,0,.1.08a1.42,1.42,0,0,0,.49.08,7.44,7.44,0,0,0,1.32-.41,7.57,7.57,0,0,0,1.12-.5,16.08,16.08,0,0,0,3.33-1.62,6.52,6.52,0,0,0,2.57-1.88l.11-.09a2,2,0,0,0,.69-.69A2.44,2.44,0,0,0,297.07,281.67Zm-3.68,0a3,3,0,0,1-.5.47c0-.07,0-.14,0-.21a5.14,5.14,0,0,0,.43-1.13l.08.1A1.88,1.88,0,0,1,293.39,281.66Zm-5.89,3.14-.09-.16.21.06,0,0Zm-4.2-3.43a8,8,0,0,0,2.12.74l.41.58-.1-.08a12.89,12.89,0,0,0-1.15-.6l-1.3-.51S283.28,281.42,283.29,281.38Z"/><path class="b" d="M263.61,301.76a1.93,1.93,0,0,0,.19-1.46,1.7,1.7,0,0,0-.31-.59,1.82,1.82,0,0,0-.6-1.3,2.21,2.21,0,0,0-.82-1.1,3,3,0,0,0-.73-1,3.55,3.55,0,0,0-2.11-.55c-2.32,0-6.27,1.63-8.36,2.51l-.2.06,0,0c-.43.18-.77.32-1,.39a.38.38,0,0,0-.22.24l-.26.11a.35.35,0,0,0-.16.07c-.45.19-.8.35-1,.42s-.09.31.06.64l-.44.16c-.45.16-.12.7.43,1.23a21.68,21.68,0,0,0-2.28,1.92c-.12.1-.12.28,0,.5l-.53.44c-.27.23.44.9,1.23,1.43l-.06,0c-.44.37-.25.7.12.9a.59.59,0,0,0,.78.44l.06,0c.08.22.19.41.28.37l.32-.14s0,0,.06,0l.34-.15c.08.09.14.15.16.15a24,24,0,0,1,6.24-2.17c.47-.09.94-.15,1.41-.21a19.34,19.34,0,0,0,3.52-.45,5.3,5.3,0,0,0,2.18-.81l.14-.07a2.41,2.41,0,0,0,.89-.87A2.19,2.19,0,0,0,263.61,301.76Z"/><path class="b" d="M178.61,136.49c.38.05.75.09.85.26l-.58-.89a.79.79,0,0,0,.09-.33.7.7,0,0,0,.07-.87.78.78,0,0,0,0-.13c.18-.17.3-.33.24-.43l-.12-.19c.13-.11.2-.21.16-.29a49.91,49.91,0,0,0-6.68-8.89l0,0q-.53-.57-1.08-1.13l-.09-.09c-.29-.29-.58-.57-.88-.85a35.91,35.91,0,0,0-2.77-2.3,50,50,0,0,0-9.33-5.75c-.23-.11-.61.13-.87.41h-.23l-1-.54c-.61-.31-1.53-.43-1.59.52a.71.71,0,0,0,0,.26,4.08,4.08,0,0,0-1,0c-.74.08-1.3.91-.41,1.38l1.43.76a.69.69,0,0,0-.16.41l-.54.14c-.1,0-2.6.87-1.33,1.53l.7.37c-.47.38-.85.9-.14,1.28a54,54,0,0,1,9.11,5.83c3.8,3.14,6.85,7.22,9.79,11.15.68.92,2.14.13,3-.22l.33.45c.44.6,1.42.17,1.94-.41a.73.73,0,0,0,.2,0,.84.84,0,0,0,.14-.09c.52.18,1,.2.71-.3l-.23-.36c.41.13.8.19.76.14l-.48-.74Z"/><path class="b" d="M253.91,104a92.42,92.42,0,0,0-1.68-12.49,1.44,1.44,0,0,0-.46,0c-.5-2.46-1.06-4.91-1.66-7.39,0-.14-.18-.18-.38-.17a.77.77,0,0,0-.65-.54c-.22-.45-.55-.9-.93-1a1.34,1.34,0,0,0-.87.28,1.29,1.29,0,0,0-.31-.1.93.93,0,0,0-.38,0c-.44-.26-.85-.49-1.16-.66s-2.31-1.15-2,.18c.1.36.19.72.28,1.08-.56,0-1.07.12-.89.85.14.51.27,1,.4,1.55,0,0,0,0,0,.06l.1.38c-.58.18-1,.45-.9.91s.23.88.34,1.31a.76.76,0,0,0,0,.42c.71,2.59,1.3,5.21,1.78,7.85.15.9.29,1.81.41,2.72a92.11,92.11,0,0,1,.8,12.58.58.58,0,0,0,.32.5c0,.39,0,.79,0,1.18,0,.59,1.87.4,3.48-.18a1,1,0,0,0,.77.71,2.36,2.36,0,0,0,1.31-.74.83.83,0,0,0,.37-.05c.33.16.63.21.62-.08l0-.58c.27.11.5.2.5.26,0-.26,0-.52,0-.77.21.09.38.17.38.25,0-.82,0-1.65,0-2.47a.27.27,0,0,0,0-.11c0-.15,0-.3,0-.45s0,0,0,0c0-.34,0-.68,0-1q0-1.74-.11-3.48a1.76,1.76,0,0,1,.47,0c0-.27-.07-.53-.1-.8Z"/><path class="b" d="M344.82,113a1.23,1.23,0,0,0,0-.2.87.87,0,0,0,.12-.44c.25-.25.49-.51.75-.76a2.26,2.26,0,0,1-.6.24s0,0,0,0l0,0a.6.6,0,0,0,.16-.36l.21-.2c.24-.25.1-.35-.18-.36l.18-.17c.32-.34.1-.51-.26-.56a1.12,1.12,0,0,0-.47-.77.63.63,0,0,0-.35,0,2.39,2.39,0,0,0-.39-.56c-.48-.49-.92-.36-1.42.07l-.07,0a.9.9,0,0,0-.3,0c-.68-.57-1.73-1.65-2.64-1a11.44,11.44,0,0,0-4.74,4.2,33.1,33.1,0,0,0-3.53,5.24c-1.2,2.11-2.28,4.27-3.31,6.46-1.16,2.36-2.26,4.75-3.34,7.14-.29.65.51,1.23,1.3,1.64l-.52,1.18c-.39.88.36,1.16,1.08,1.25-.2.77.76.95,1.69.76a.91.91,0,0,0,1.61.13c.24.15.48.16.62-.14l0-.08a2,2,0,0,0,.51.27l.27-.61a2.07,2.07,0,0,1,.29.17l.29-.63.16,0a112.93,112.93,0,0,1,5.73-11.68l2.29-3.62c.27-.39.56-.77.84-1.14a37.3,37.3,0,0,1,4.33-4.67s-.07,0-.15,0c.19-.18.37-.37.56-.54C345.53,113.33,345.18,113.16,344.82,113Z"/><path class="b" d="M391.29,169a.93.93,0,0,0-.07-.36l.19-.05a.53.53,0,0,0,.25-.16l.07,0c.11,0,.15-.21.16-.44a.73.73,0,0,0,.13-.4.88.88,0,0,0,.18-.56l0,0a2.77,2.77,0,0,1,.51-.33l-.38.11a.39.39,0,0,0,0-.08.61.61,0,0,0,0-.24c.3-.24.46-.55.08-.51.25-.11.42-.3.22-.58a.43.43,0,0,0-.36-.12.77.77,0,0,0-.75-.67c-.22-.51-.64-1.14-1.11-1l-1.17.29c-1-.83-2.05-1.47-2.54-1.33A59.91,59.91,0,0,0,373.8,167q-3,1.58-6,3.21c-.69.37-.56.88-.2,1.36l-.77.45c-1.15.61.49,1.58.92,1.82l.46.22c-.45.26-.91.52-1.35.79-.79.42-.74,1,0,1.43.35.06.7.09,1,.12a1.1,1.1,0,0,0,.62.94,2.62,2.62,0,0,0,1.56-.15.88.88,0,0,0,1.18.45l.63-.36a.4.4,0,0,0,.16,0l.25-.14c.16.14.31.24.39.19a52.57,52.57,0,0,1,9.24-4.52,54.16,54.16,0,0,1,6.27-2.34c.6-.16,1.19-.33,1.79-.48a.87.87,0,0,0,.14-.08c.53-.14,1.05-.29,1.59-.41C391.69,169.49,391.51,169.27,391.29,169Z"/><path class="c" d="M208.28,228.07c.06,0,0-.11-.05-.16s0-.31-.07-.35-.07-.31-.2-.25c-.06-.23-.15-.42-.21-.39l-.11.07-.66-3.19h0s0,0,0-.09h0c.09,0,.16-.08.26-.11s0,0,0-.06l.1,0-.08-.1v0a.22.22,0,0,0,0-.3c0-.13-.06-.24-.17-.23-.07-.27-.19-.52-.27-.48l-.4.23a.13.13,0,0,0-.11,0,3.76,3.76,0,0,0-2.32,2.92,2.13,2.13,0,0,0,.35,1.68l.13.16,0,.05a1.83,1.83,0,0,0,1.28,1.14,2,2,0,0,0,.56.15,2.08,2.08,0,0,0,.46,0h0a2.44,2.44,0,0,0,.47-.09,2.89,2.89,0,0,0,.86-.33l0-.05.14-.07,0-.07h0Z"/><path class="c" d="M293.33,193.45l0-4.69h0q0-.18,0-.37a.18.18,0,0,0-.13-.16.46.46,0,0,0-.28-.31c-.21-.38-.57-.75-.57-.33h0c-.09,0-.17-.05-.22,0-.36-.29-.71-.46-.71-.22s0,.24,0,.36c-.16,0-.27,0-.26.19l.14,4.72c0,.14.27.37.57.55v.25c0,.19.2.3.4.33s.3.21.31,0a.16.16,0,0,0,.07.05.83.83,0,0,1,.09.17s0-.1,0-.14a.18.18,0,0,0,.08,0h0l.07.12v-.15a.44.44,0,0,0,.07-.1l0,0a.23.23,0,0,0,.14-.11l.06,0C293.26,193.47,293.33,193.47,293.33,193.45Z"/><path class="c" d="M294.73,282.93l0,0a.22.22,0,0,0,0-.25l-.12-.23a.36.36,0,0,0,0-.09,12.42,12.42,0,0,0-.75-1.3,5.3,5.3,0,0,0-3.07-2.77c-.19-.08-.25.09-.23.34l-.11,0-.41-.25c-.29-.17-.29.06-.3.25a.68.68,0,0,0,.17.34c-.08,0-.14.06-.16.18s.3.4.53.53a.22.22,0,0,0,0,.37l.16.1a.13.13,0,0,0,0,.06c.19.09.35.21.53.32a8.91,8.91,0,0,1,2.54,2.86.23.23,0,0,0,.2.11l0,.06c.08.13.13,0,.15-.12l0,0,.05.09c.06.11.13.09.18,0h0l.07.12a.44.44,0,0,1,0-.12.31.31,0,0,0,.12-.13l0,0a.39.39,0,0,0,.13-.07l.06,0,0,0c.07,0,.14,0,.12,0l0-.09A.1.1,0,0,0,294.73,282.93Z"/><g class="d"><g class="d"><path class="b" d="M166.19,352.79a6.85,6.85,0,0,0,.28-1,6,6,0,0,0,.34-3.24,5.58,5.58,0,0,0-1.54-4c-.21-.24-.44-.46-.67-.69.22-.63-.94-1.26-1.47-1.51a6.27,6.27,0,0,0-.57-.78A7.93,7.93,0,0,0,162,341c-.15-.21-.31-.41-.48-.61a.9.9,0,0,0-.54-.88l-.73-.32a50.84,50.84,0,0,0-4.93-2.81c-1-.57-2-1.16-3-1.8-.65-.42-1.3-.84-1.93-1.29h0L150,333c-.26-.19-.51-.39-.76-.6l0-.08.24-1.66c.05-.06.09-.12.14-.17a4.54,4.54,0,0,1,1.88-1.18,24.49,24.49,0,0,1,2.91.06c1,.13,1.88.29,2.61.43a103.67,103.67,0,0,1,10.1,2.82.82.82,0,0,0,.75-.08l.1,0a1,1,0,0,0,1.4-.78l1.11.37c.86.29,1.28-.63,1-1.3a1.85,1.85,0,0,0-.16-.3.91.91,0,0,0,.55-.33c.54-.68,0-1.3-.67-1.61l-1.47-.69c.18-.44.19-1.24-.18-1.44-.2-.14-.41-.26-.61-.39a.82.82,0,0,0-.29-.25,13.44,13.44,0,0,0-2.9-1.5,1.05,1.05,0,0,0,0-.4c-.14-.67-1.25-1.25-1.91-1.48.13-.43.14-1.2-.29-1.33L163,321c-.08-.22-.18-.39-.3-.43l-.88-.26a.42.42,0,0,0-.18-.14,20.8,20.8,0,0,0-8.63-1.31,18.43,18.43,0,0,0-5.28,1.22,14.93,14.93,0,0,0-4.5,1.88,8.52,8.52,0,0,0-2.62,2.53,7.36,7.36,0,0,0-2,2.84,5,5,0,0,0-.72,4.08c0,.09.07.17.1.26a5.74,5.74,0,0,0,2,4.56c.1.2.21.39.34.6a8.26,8.26,0,0,0,3.42,2.92h0c.39.25.81.49,1.27.73,2.62,1.37,5.34,2.65,8.08,3.87a1.35,1.35,0,0,0,.29.32,6.81,6.81,0,0,0,.91.58l.08.08a18.26,18.26,0,0,0,2.11,1.24l0,0c0,.1.08.2.12.3l-.13,1.73c0,.15-.09.3-.14.45a9.27,9.27,0,0,1-2.77,2.08,9.75,9.75,0,0,1-1.26.5,11.74,11.74,0,0,1-1.52.1c-.53-.11-1.06-.22-1.58-.36s-1.2-.37-1.8-.59l-.49-.25a1,1,0,0,0-.31-.1c-.26-.13-.53-.26-.79-.4l-.09,0a21.69,21.69,0,0,1-4.56-4.87c-.26-.38-1-.42-1.72-.34l0-.06a1.52,1.52,0,0,0-1.44-.49l0-.05a1.17,1.17,0,0,0-1.94.3,1.58,1.58,0,0,0-.89-.31c-.27.07-.54.28-.3.59l.22.28a.89.89,0,0,0-.1.36c-.55,0-1.08,0-1,.19l.21.27-.05,0a.72.72,0,0,0-.11.22l-.08.12-.12-.15c-.17-.21-.25-.15-.17.09s.1.25.16.38h0v0a.7.7,0,0,0,.05.47.34.34,0,0,0-.18.34c-.44-.21-.79-.3-.54,0s.51.64.78,1c-.49.1-.82.41-.42.93s.82,1,1.25,1.52a2.56,2.56,0,0,0,.25.44,21.12,21.12,0,0,0,6.46,5.77,15.86,15.86,0,0,0,6.15,2.52h.05a13.63,13.63,0,0,0,5.87.42l.21,0a10.14,10.14,0,0,0,3.19-.31c4.49.12,7.57-2.8,9.13-7"/></g></g><g class="e"><g class="f"><path class="b" d="M210,377.71q4.26-13.71,7.82-27.61c.5-1.7,1-3.4,1.49-5.1a1.06,1.06,0,0,0,0-.68c.14-.57.29-1.13.42-1.69.33-1.28-2.39-1.7-3-1.87l-.81-.23.08-.26c.26-1-.51-1.38-1.34-1.37a1.25,1.25,0,0,0-1-.42c-.35-.33-.74-.49-.86-.08l-.18.61c-.3-.24-.58-.35-.65-.09l-.08.28a1.79,1.79,0,0,1-.55-.3l-.32,1.07c-.21,0-.37,0-.38,0l-.26.88c-.09-.05-.16-.1-.15-.12q-2.6,8.68-5.1,17.39c-4.75-1.32-9.31-2.79-13.88-4.46q3.34-8.91,6.68-17.83c.48-1.28-2.58-2.09-3.16-2.31-.19-.07-.64-.28-1.16-.47.24-.86-.44-1.4-1.18-1.52a.61.61,0,0,0-.16-.2,1.12,1.12,0,0,0-1,0c-.2-.3-.41-.47-.48-.27l-.24.63a.64.64,0,0,0-.22,0c-.13-.21-.24-.34-.28-.25l-.25.65c-.28-.27-.52-.51-.47-.65l-.49,1.29c-.27-.07-.48-.11-.49-.08l-.32.93c-.14,0-.25,0-.27,0q-6.26,16.54-12.39,33.13a.27.27,0,0,0,.06.23l-.31.83c-.09.25.23.54.63.74l-.06.15c-.21.59-.2,1.13.34,1.45a1.24,1.24,0,0,0,.53.15l0,0a.87.87,0,0,0,.24.13,5,5,0,0,0,.85,2,.87.87,0,0,0,1.19.15l0,.07c.2.33,1.54,2.32,2.06.91l.21-.57c.48.32,1,.42,1.26-.33l.56-1.54c.7.31,1.33.41,1.52-.11l.68-1.83a.76.76,0,0,0,.3-.38l2.28-6.1a39.73,39.73,0,0,0,7.95,3.28q3.2,1.14,6.48,2l-.28,1c-.77,2.66-1.55,5.31-2.31,8,0,.15.33.37.75.56l-.25.88c-.17.6.53.83,1.14.82a1.92,1.92,0,0,0,.71,1.29,1.18,1.18,0,0,0,.75,0,2,2,0,0,0,.54.47.86.86,0,0,0,1-.21c.78.49,1.53.58,1.79-.25.09-.25.16-.51.25-.76,1,.54,2.55,1.15,2.8.29l.53-1.84a.8.8,0,0,0,.32-.44"/></g></g><g class="g"><g class="g"><path class="b" d="M265.54,356.77c-.13-1.39-.28-2.77-.46-4.16a18.89,18.89,0,0,0-2-6.69c-1.63-2.77-4.31-3.78-7.2-4.16a7.6,7.6,0,0,0-3.8-1.35,8.33,8.33,0,0,0-1.88-.21c-4.22-.52-8.92,1.82-12.16,4.89a16.46,16.46,0,0,0-5,6,11.48,11.48,0,0,0-1.05,3.49,13.27,13.27,0,0,0-.44,1.49,19.66,19.66,0,0,0-.21,6l.07.57c0,.15,0,.31,0,.46q1.24,10.43,2.7,20.84c0,.05.3.06.66.06l.16,1.22c0,.24.44.27.87.19a.89.89,0,0,0,.44.11c.22.48.6,1,1,1a1.31,1.31,0,0,0,.78-.23c.69.32,1.38.34,1.61-.3.72.15,1.27,0,1.24-.81,0-.22,0-.43,0-.65,1.66.16,3.16,0,3.1-.53-.28-2.08-.54-4.16-.81-6.23q-.2-2.06-.41-4.12c4.59-.26,9.16-.65,13.73-1.19q.25,4.64.5,9.28c0,.24.43.49.88.62,0,.12,0,.24,0,.36a1,1,0,0,0,1.49.88l.17.06h0a3.42,3.42,0,0,0,1.1,1.35,1,1,0,0,0,1.21-.21l.08.06c.37.23,1.62.79,1.64-.23v-.27c.65.25,1.41.34,1.4-.6V382.4c1.15.1,2,0,2-.43-.4-8.29-.39-16.92-1.57-25.2m-23.89,4a20,20,0,0,1,.09-3.94,9,9,0,0,1,.56-1.72q.31-.46.67-.9h0a21.51,21.51,0,0,1,4.32-3.14,12.62,12.62,0,0,1,1.33-.34l4.93-.43c.17,0,.32.11.48.15a23.13,23.13,0,0,1,1,4.12q.66,4.43,1,8.9-7,1.42-13.95,2.68c-.16-1.79-.32-3.59-.46-5.38"/></g></g><g class="h"><g class="h"><path class="b" d="M318.52,368.55c-2-6.14-6-11.82-12.43-13.84-.24-.07-.48-.13-.72-.19a11.79,11.79,0,0,0,2-4.57,11.63,11.63,0,0,0,1.13-3.44,7.39,7.39,0,0,0-1.84-6.29,6.44,6.44,0,0,0-2.22-3,10.19,10.19,0,0,0-6.66-1.69,10.69,10.69,0,0,0-4.49-.5,13.06,13.06,0,0,0-3.31.45,17.54,17.54,0,0,0-8.21,4.07.88.88,0,0,0-1-.36,2.24,2.24,0,0,0-.41.15.66.66,0,0,0-.29-.12,1.17,1.17,0,0,0-.89.51c-.32-.15-.56-.2-.51,0l.17.63a.41.41,0,0,0-.15.11c-.19-.13-.53-.32-.46,0l.2.74v0a.89.89,0,0,0-.35,1c-.28.18-.49.35-.47.45l.18.63c-.22.06-.38.13-.37.17q4.81,16.66,9.9,33.24s0,.05.08.08l.3,1c.06.19.45.21.87.15l.15.49a1,1,0,0,0,1.43.54h0l.17,0a3.6,3.6,0,0,0,1.61,1,1,1,0,0,0,.9-.43l.14.06c.41.17,2.28.68,1.94-.6l0-.09c.81.12,1.93.13,1.59-1l-.49-1.56c.87-.23,1.44-.54,1.34-.87l-.53-1.72a.74.74,0,0,0,.13-.68c-1-3.37-2-6.74-3-10.1a.92.92,0,0,0,.64-.16l.27-.18.49-.06a1.32,1.32,0,0,0,1.08,0l.13-.09a12.37,12.37,0,0,1,5.68.63l.07,0a16.51,16.51,0,0,1,2.45,1.92,22.84,22.84,0,0,1,4.18,7.86c.09.26.47.37.88.38.07.19.14.37.2.55a.91.91,0,0,0,1.37.59,1.64,1.64,0,0,0,.15-.09.89.89,0,0,0,.34.05,4.47,4.47,0,0,0,1.7,1.32,1,1,0,0,0,1.18-.49c.45.22,2.57,1.12,2.15-.27l-.2-.63c.69.07,1.35,0,1.07-.89-.19-.56-.39-1.11-.61-1.66.88,0,1.79-.21,1.58-.83s-.37-1.07-.56-1.6a.71.71,0,0,0,.28-.79M291.89,345a12.37,12.37,0,0,1,1.49-.69,15.31,15.31,0,0,1,4.47-.58l0,0c.1.16.2.31.29.49a7,7,0,0,1,.35,1.25,10.33,10.33,0,0,1-1,3A27.15,27.15,0,0,1,292,354l-.08,0-.54.11L289,346a20.49,20.49,0,0,0,2.92-1.08"/></g></g><g class="i"><g class="i"><path class="b" d="M331.06,332c3.67-2.18,15.13-10.21,15.13-10.21s-.58-4.43-1.24-4.51a6.46,6.46,0,0,0-3.22.88,1,1,0,0,0-1.25-.59l-.41.23a.64.64,0,0,0-.53,0l-.59.32a.43.43,0,0,0-.24,0l-15.11,8.28c.05,0,.24.1.48.27l-.69.38a.79.79,0,0,0-.56-.14.81.81,0,0,0-.6.41.42.42,0,0,0-.17-.07c-.26,0-.53,0-.4.38l.21.6h0c-.09-.12-.19-.21-.28-.2-.4,0-.3.36-.2.66v.06l0,0a1.62,1.62,0,0,1-.57-.64c.12.32.24.64.36,1a1.91,1.91,0,0,0,0,1,1.05,1.05,0,0,0,0,.17c-.35.21-.63.44-.58.58l.14.37-.36.1q5.36,14.66,10.34,29.46c0,.07.11.1.21.12l.27.79c.09.26.5.28.93.18l0,.05a2.43,2.43,0,0,0,.13.27c-.06.09,0,.15.11.2a1.13,1.13,0,0,0,.94.57,1.07,1.07,0,0,0,.08.16c.38.58.74.45,1.28.17l.32-.17c.64.55,1.53,1.15,2.12.88l.17-.08a.65.65,0,0,0,.61-.27,2.09,2.09,0,0,0,1.31.07c6.27-3,17.87-9.42,17.87-9.42a3.42,3.42,0,0,0-.49-1.5l.54-.33c1.15-.68.14-4.3-.65-4.32s-9.81,3.26-17,6.35c-.7-2.56-1.48-5.08-2.36-7.56l6.61-3.63c.52-.28.6-.61.48-.94l.57-.3c.66-.36.11-1.18.11-1.18l.57-.33c1.22-.67.14-4.89-.63-4.94s-6.58,2-10.84,3.55c-.26-.58-.5-1.17-.77-1.75l-2-5.45m-7.18-4.53-.09,0a1.84,1.84,0,0,0-.17-.23l.26.2"/></g></g></svg>