<svg xmlns="http://www.w3.org/2000/svg" xmlns:xlink="http://www.w3.org/1999/xlink" viewBox="0 0 504 504"><defs><style>.a{fill:none;}.b{fill:#00a6e9;}.c{clip-path:url(#a);}.d{clip-path:url(#c);}.e{clip-path:url(#d);}.f{clip-path:url(#e);}.g{clip-path:url(#g);}.h{clip-path:url(#i);}.i{clip-path:url(#j);}.j{clip-path:url(#k);}.k{clip-path:url(#l);}</style><clipPath id="a"><rect class="a" x="104.59" y="219.41" width="38.5" height="45.31" transform="translate(-131.31 336.02) rotate(-83.12)"/></clipPath><clipPath id="c"><rect class="a" x="110.29" y="170.33" width="36.13" height="44.01" transform="translate(-84.73 282.11) rotate(-79.13)"/></clipPath><clipPath id="d"><rect class="a" x="110.29" y="170.33" width="36.13" height="44.01" transform="translate(-84.73 282.11) rotate(-79.13)"/></clipPath><clipPath id="e"><rect class="a" x="123.75" y="119.76" width="48.13" height="43.97" transform="translate(-30.8 241.94) rotate(-73.09)"/></clipPath><clipPath id="g"><rect class="a" x="167.53" y="84.56" width="48.28" height="44.91" transform="translate(-27.75 100.42) rotate(-27.45)"/></clipPath><clipPath id="i"><rect class="a" x="249.33" y="72.13" width="43.82" height="37.67" transform="matrix(0.02, -1, 1, 0.02, 174.45, 360.19)"/></clipPath><clipPath id="j"><rect class="a" x="249.33" y="72.13" width="43.82" height="37.67" transform="translate(174.45 360.19) rotate(-88.77)"/></clipPath><clipPath id="k"><rect class="a" x="292.42" y="84.38" width="45.94" height="35.87" transform="translate(116.54 367.64) rotate(-71.12)"/></clipPath><clipPath id="l"><rect class="a" x="292.42" y="84.38" width="45.94" height="35.87" transform="translate(116.53 367.64) rotate(-71.12)"/></clipPath></defs><title>show-up</title><path class="b" d="M341.36,236.64l.07-.41a131.87,131.87,0,0,0,1.67-14.64c1-17.15-1.85-34.5-9.15-49.93A81.71,81.71,0,0,0,325,156.52a71.74,71.74,0,0,0-8-8.95q-1.41-1.4-2.9-2.72a64.68,64.68,0,0,0-5.68-4.7,81.41,81.41,0,0,0-24.76-12.57,93.94,93.94,0,0,0-14-3,87.31,87.31,0,0,0-47.43,4.59c-19.55,7.82-35.22,22.59-46,40.48a99.13,99.13,0,0,0-8.07,16.91,105.7,105.7,0,0,0-4.9,15.8c-.58,2.57-1,5.15-1.43,7.74A111.12,111.12,0,0,0,160.39,238a127.33,127.33,0,0,0,8.71,37.66,140.4,140.4,0,0,0,7.42,15.81l4.38,7.43a115.86,115.86,0,0,0,10.22,14,2.28,2.28,0,0,0,1.59.58l.52.61c.31.37,1.22.39,2.06.17l.26.34a.8.8,0,0,0,1.21-.15.78.78,0,0,0,.07-.14.47.47,0,0,0,.61-.18h0a.64.64,0,0,0,.29.17c.13,0,.37.15.14-.14l-.43-.54,0-.06.1-.06a1,1,0,0,0,.37-.07,2.69,2.69,0,0,1,.61.53l-.47-.6a.63.63,0,0,0,.16-.12.63.63,0,0,0,.1-.28,2.86,2.86,0,0,1,.6.54l-.51-.65a.91.91,0,0,0,.18-.28l0-.06a.89.89,0,0,0,.29-.69l0-.09.36-.2-.2-.25h0c.29,0,.55,0,.66.18l-.64-.84a.54.54,0,0,0,0-.73c-.81-1-1.6-2-2.38-3-2.58-3.46-5.05-7-7.4-10.55l-.27-.41a140.39,140.39,0,0,1-8.3-15.13c-.55-1.17-1.08-2.36-1.6-3.54a130.28,130.28,0,0,1-8.86-31.73A111,111,0,0,1,176.13,190c.13-.32.25-.65.38-1a106.36,106.36,0,0,1,9.55-17.88l.29-.43c.19-.28.39-.55.58-.83a95.78,95.78,0,0,1,30.7-28.42q3-1.69,6.23-3.12a83.21,83.21,0,0,1,75.28,6.45,78.71,78.71,0,0,1,7.09,5c11.36,9.64,19.42,22.6,24,36.88,1,3,1.77,6.09,2.43,9.17.19.95.38,1.9.54,2.85a111.61,111.61,0,0,1,1,28.79,148.91,148.91,0,0,1-5.06,24.71c-1.43,4.88-3.08,9.66-4.88,14.38-11.39,29.1-28.87,55.31-43.35,82.9q-4.38,8.34-8.29,16.86c-3.93,8.26-7.56,16.65-10.74,25.28q-4.93,13.39-8.61,27.18c-.87,3.24-1.66,6.49-2.42,9.75q-2.61,10.6-4.47,21.36c-.12.63.71.89,1.58,1-.13.92.52,1.1,1.35,1.07a13.25,13.25,0,0,0,1.42-.13c.41.65,1.43.85,1.73.13a.49.49,0,0,0,.49,0c.23.18.42.26.46.09s.09-.47.13-.71c.24.19.44.34.43.41,0-.24.09-.47.13-.71h0a.49.49,0,0,1,.12.34l.07-.4a.84.84,0,0,0,.47-.63l.08-.43.38.11.18-.9s0,0,0,0c.08-.52.18-1,.27-1.54,2.11-10.68,4.39-21.27,7.38-31.72.15-.5.3-1,.46-1.51.34-1.17.69-2.33,1-3.49.25-.8.48-1.6.74-2.39,2.75-8.48,5.76-16.89,9.14-25.15l2.14-5.07q2.12-4.89,4.44-9.7,2.91-6,6-11.93c7.44-14,15.56-27.65,23.24-41.55,5.52-10,10.93-20.2,15.71-30.67,7.05-15.15,12.61-31.06,15.31-47.43Z"/><path class="b" d="M252.82,446.42c-1.58-6.55-3.67-13-5.79-19.35-3.48-10.49-7.25-20.88-11.06-31.25-6.15-16.71-12.34-33.46-19.38-49.82-.05-.12-.24-.15-.48-.13l-.26-.62a.8.8,0,0,0-.89-.42c-.36-.79-1-1.71-1.94-1.48a2.05,2.05,0,0,0-.91.51h0a1.25,1.25,0,0,0-.58.1l-.25-.19a14.9,14.9,0,0,0-3.13-1.82c-1.45-.25-1.9.78-1.39,2l.2.48c-1.17-.21-3.27-.38-2.56,1.27.45,1,.89,2.11,1.34,3.16-1.33.31-2.51.82-2.13,1.69,7,16.3,13.17,33,19.29,49.65,3.49,9.51,6.83,19.11,10.54,28.54,2.82,7.18,5.69,14.33,7.86,21.73.27.92,1.15,1.16,2.1,1.15l.17.61c.41,1.54,2.5.65,3.37.31l.12,0c.25.56.64,1.16,1.15,1.26s1.51-.42,1.52-1l.12.05c.38.09.89-.1.85-.57.33.19.6.4.66.65-.12-.5-.26-1-.39-1.49a.7.7,0,0,0,.32-.37c.07.1.14.16.22.14.29-.07.09-.91,0-1.32a4.34,4.34,0,0,0,.16-.68h0l.06-.08c.07-.1.87-1.08.82-1.28l0-.09c.21-.16.33-.32.3-.46s-.09-.34-.13-.51C252.77,446.6,252.84,446.51,252.82,446.42Z"/><path class="b" d="M284.47,253.45a73.15,73.15,0,0,0,14.38-36.77,38.76,38.76,0,0,0-1.77-16.93,34.93,34.93,0,0,0-2.32-5.08,50.65,50.65,0,0,0-6.68-10h0c-.21-.26-.43-.51-.64-.77a49,49,0,0,0-15.06-13.38,32.82,32.82,0,0,0-16.81-4.4l-.72,0c-.44,0-.87,0-1.31,0l-.47,0c-.36,0-.72,0-1.08,0a27.6,27.6,0,0,0-9.83,1.86,32,32,0,0,0-7.23,4.43c-.22.16-.09.56.25,1-.3.24-.61.47-.9.72a.66.66,0,0,0-.13,1.13,42.77,42.77,0,0,0-3.79,3.06,44.59,44.59,0,0,0-10.29,14.86,52.07,52.07,0,0,0-2.52,5.71,78.17,78.17,0,0,0-3.45,12.39c-2.85,11.63-3,24.27,1.3,35.35a39.85,39.85,0,0,0,16.74,20,38,38,0,0,0,5,2.82,29.4,29.4,0,0,0,7.65,2.36,28.17,28.17,0,0,0,13.4.19,26,26,0,0,0,7.37-2.31,40.81,40.81,0,0,0,5.88-3.54l.05,0,.07,0,.58-.42A56.05,56.05,0,0,0,284.47,253.45ZM251,177.2c.17,0,.25-.37.29-.74v-.06a1,1,0,0,0,.34-.68,4.51,4.51,0,0,1,.73-.37l-.62.16a.63.63,0,0,0,.17-.3s0,0,0-.05l.08,0,5.06-.43.57,0,.27.06a20.92,20.92,0,0,1,7.87,2.89,25.77,25.77,0,0,1,7.75,4.64,60.29,60.29,0,0,1,6.88,6.71c.53.67,1,1.35,1.54,2,2.94,4.12,5.79,8.63,6.86,13.66a40.81,40.81,0,0,1,.78,10.61,49.27,49.27,0,0,1-.92,8.17A72.5,72.5,0,0,1,283.33,238a61.24,61.24,0,0,1-6.1,9.24c-5.94,7.32-13.25,14.21-22.71,16.45a25.63,25.63,0,0,1-2.7.47,24.8,24.8,0,0,1-10.16-1.91,35,35,0,0,1-11.81-8c-.19-.2-.37-.41-.56-.62a38.76,38.76,0,0,1-5.16-9.61c-.39-1.18-.75-2.37-1.06-3.57a54.55,54.55,0,0,1-1.45-15.24,74.41,74.41,0,0,1,1.21-11.08,89.64,89.64,0,0,1,5.09-16h0a65,65,0,0,1,6.34-9.87s0,0-.07-.09a36.74,36.74,0,0,1,5.38-4.9,2.49,2.49,0,0,1-.32-.31,22.4,22.4,0,0,1,3.31-2l.06,0a28.33,28.33,0,0,1,6.89-2.26.48.48,0,0,0,.35-.33l.72-.16c.11,0,0-.34-.1-.69l.2,0a.47.47,0,0,0,.27-.23Z"/><path class="b" d="M291.41,237.13a64.59,64.59,0,0,0,3-19.12c0-5.25.06-10.42-2-15.34l-.14-.32a21.8,21.8,0,0,0-1.5-3.5A39.25,39.25,0,0,0,287,193.2a43.38,43.38,0,0,0-3-3.56,47.7,47.7,0,0,0-4.5-4.83,61.64,61.64,0,0,0-14.73-9.7,39.67,39.67,0,0,0-10.13-3.6,44,44,0,0,0-6.59-.61,11.71,11.71,0,0,0-2.4.1c-2-.12-4-.16-6-.23-1.27,0-.31,1.39.15,2l-.61,0c-1,0-1.4.65-.69,1.43a14.17,14.17,0,0,0,1.84,1.1.94.94,0,0,0-.08.41c-.76,0-1.59.18-1.78.79-.29.93.81,1.16,1.5,1.19h.08c0,.42.11.93.55,1l1.81.15a1,1,0,0,0,.66.42c2.95.19,5.85.32,8.72.68a33.88,33.88,0,0,1,6.42,2.18,59.54,59.54,0,0,1,19.15,13.11,28.89,28.89,0,0,1,6.4,10.84,36.77,36.77,0,0,1,1,9.92,76.89,76.89,0,0,1-.43,11.06q-.1.8-.23,1.6a80.84,80.84,0,0,1-6.36,18c-.47.88-.94,1.76-1.43,2.62a1,1,0,0,0-.12.35c-.32.58-.63,1.16-1,1.74s.17,1,.82,1.43a10.69,10.69,0,0,0-.3,2.11c-.11.56.59.86,1.52,1-.14.92,1.2,1.09,2.21.87.31.58.89,1,1.25.38l.16-.28c.21.17.43.21.58,0l.12-.2a2.87,2.87,0,0,1,.45.41c.23-.4.46-.81.69-1.21.19.17.32.31.29.35.86-1.46,1.68-3,2.46-4.5l.2.08A90.62,90.62,0,0,0,291.41,237.13Z"/><path class="b" d="M284,455.3a7.62,7.62,0,0,0-.49-2.9,7.22,7.22,0,0,0-1-3.61,8,8,0,0,0-1.52-3.24,10.53,10.53,0,0,0-2.64-2.34c-2.63-2.54-6.1-3.62-9.79-4.23-.6-.1-.71.74-.65,1.65-.74-.17-1.48-.32-2.21-.43-1.43-.21-.48,1.79-.27,2.19s.47.91.79,1.47a1,1,0,0,0-.39.88,3.2,3.2,0,0,0,1.08,1.46c-.25.51-.31,1.11.24,1.21l.27,0a2.36,2.36,0,0,1-.14.45c3.08.52,6.52,1.58,8.79,3.59,0,.18,0,.36-.09.55-.54,2-2.54,3.4-4.65,4.37l-.46.14a89.48,89.48,0,0,1-19,2.47,114.64,114.64,0,0,1-25.34-1.81,36.52,36.52,0,0,1-10.17-2.61,5.37,5.37,0,0,1,1-2.38,8.14,8.14,0,0,1,.94-1.64c.14-.08.27-.17.42-.24a8.67,8.67,0,0,1,4.2-2.17l.42-.1c.58-.08,1.17-.13,1.76-.16a.59.59,0,0,0,.37-.28c.77-.12,1.54-.21,2.32-.26.18,0,.1-.13,0-.24l.53-.07c.21,0,.13-.25-.08-.51l.82-.08c.44-.05,0-.7-.44-1.14.4-.86.42-2-.37-2.2,0-.88-.25-1.59-.78-1.54l-.44,0c-.1-1.12-.36-2.71-1.3-2.6-3.88.46-7.65,1.22-10.64,3.87a8.91,8.91,0,0,0-1.45,1.66,10.56,10.56,0,0,0-1.83,1.56,8.72,8.72,0,0,0-1.92,8.62c0,.14.1.28.15.42a7.77,7.77,0,0,0,1,3.43,5.56,5.56,0,0,0,2.49,4,13,13,0,0,0,2.29,1c.59.23,1.2.41,1.82.59a90.3,90.3,0,0,0,16,3c0,.12-.08.21-.11.21a114.53,114.53,0,0,0,16.94.58,84.56,84.56,0,0,0,10.21-.9q1.67-.21,3.34-.46c2-.3,4-.59,5.93-1.06,1-.2,2.09-.42,3.13-.66a23.72,23.72,0,0,0,5.49-2c1.7-.88,3.84-2.57,4.49-4.48,0-.05,0-.11,0-.16A6,6,0,0,0,284,455.3Z"/><g class="c"><g class="c"><path class="b" d="M133.09,223.85a7.35,7.35,0,0,0-1.11.05,6.48,6.48,0,0,0-3.42.75,6,6,0,0,0-3.54,2.92c-.17.29-.32.6-.47.92-.71,0-1,1.38-1,2a6.73,6.73,0,0,0-.61.85,8.51,8.51,0,0,0-.38.78c-.16.22-.32.45-.46.69a1,1,0,0,0-.72.85c0,.29-.05.57-.08.86a54.58,54.58,0,0,0-1.2,6c-.26,1.17-.51,2.43-.82,3.69-.2.81-.42,1.61-.66,2.4v0c0,.16-.11.31-.16.47-.11.33-.23.66-.35,1l-.07.07-1.77.32c-.08,0-.15,0-.23-.09a4.88,4.88,0,0,1-1.83-1.51,26.29,26.29,0,0,1-.92-3c-.19-1-.34-2-.44-2.81a111.28,111.28,0,0,1-.54-11.25.88.88,0,0,0-.33-.74s0-.08,0-.11a1.09,1.09,0,0,0-1.27-1.16c0-.42,0-.83,0-1.25,0-1-1.08-1.09-1.67-.6a2,2,0,0,0-.25.27,1,1,0,0,0-.52-.45c-.88-.32-1.32.45-1.42,1.23-.07.58-.14,1.16-.21,1.73-.51,0-1.33.22-1.41.67-.08.25-.13.51-.19.76a.88.88,0,0,0-.16.38,14.43,14.43,0,0,0-.55,3.47,1.13,1.13,0,0,0-.42.11c-.64.37-.85,1.7-.86,2.45-.48,0-1.27.27-1.26.75,0,.19,0,.37,0,.56-.2.15-.34.32-.33.45,0,.33,0,.66,0,1a.45.45,0,0,0-.08.23,22.33,22.33,0,0,0,1.58,9.24,19.79,19.79,0,0,0,3,5,16,16,0,0,0,3.44,3.95,9.15,9.15,0,0,0,3.47,1.82,7.9,7.9,0,0,0,3.55,1,5.38,5.38,0,0,0,4.4-.64c.08-.06.15-.13.23-.19a6.17,6.17,0,0,0,4-3.62c.17-.17.33-.35.49-.55a8.87,8.87,0,0,0,1.82-4.47h0c.13-.48.23-1,.32-1.54.51-3.14.9-6.34,1.21-9.54a1.45,1.45,0,0,0,.23-.4,7.31,7.31,0,0,0,.28-1.12.75.75,0,0,0,.06-.11,19.61,19.61,0,0,0,.55-2.57l0-.05.27-.22,1.8-.45h.51a10,10,0,0,1,3.05,2.12,10.46,10.46,0,0,1,.94,1.11,12.6,12.6,0,0,1,.61,1.52c.07.58.13,1.15.16,1.73s0,1.35,0,2c0,.2-.05.39-.09.59a1.07,1.07,0,0,0,0,.35c0,.31-.09.63-.15.94,0,0,0,.07,0,.1a23.28,23.28,0,0,1-3.42,6.29c-.29.4-.1,1.12.24,1.87l0,.07a1.63,1.63,0,0,0,0,1.63l0,.06c-.57.81.14,1.67,1,1.87a1.7,1.7,0,0,0,0,1c.17.25.47.45.7.11l.21-.32a1,1,0,0,0,.4,0c.15.57.39,1.1.51.91l.2-.31.06,0a.77.77,0,0,0,.26,0l.15,0-.12.17c-.16.24-.07.31.15.14s.22-.18.33-.29h0v0a.75.75,0,0,0,.46-.21.36.36,0,0,0,.41.07c-.06.51,0,.91.2.55s.49-.74.72-1.12c.27.46.7.7,1.09.11s.77-1.18,1.12-1.78a2.75,2.75,0,0,0,.36-.4,22.67,22.67,0,0,0,3.69-8.53,17,17,0,0,0,.49-7.11v-.06a14.63,14.63,0,0,0-1.56-6.12c0-.07,0-.15,0-.22a10.89,10.89,0,0,0-1.39-3.15c-1.4-4.62-5.41-6.77-10.18-6.94"/></g></g><g class="d"><g class="e"><path class="b" d="M148.29,177.77q-14-2.71-28.11-4.71l-5.2-.92a1.06,1.06,0,0,0-.67.12l-1.72-.23c-1.3-.19-1.42,2.55-1.51,3.19,0,.18-.09.47-.14.82l-.27,0c-1-.16-1.3.66-1.21,1.48a1.25,1.25,0,0,0-.3,1c-.29.39-.41.78,0,.86l.62.11c-.21.32-.28.61,0,.65l.28.05a1.78,1.78,0,0,1-.24.57l1.09.2c0,.21,0,.37,0,.37l.89.16c0,.1-.08.17-.1.16q8.85,1.62,17.73,3.14c-.79,4.84-1.74,9.49-2.89,14.19l-18.33-4.64c-1.31-.33-1.78,2.77-1.93,3.37-.05.2-.2.66-.34,1.2-.88-.14-1.33.58-1.37,1.33a.6.6,0,0,0-.18.18,1.11,1.11,0,0,0,.06,1c-.27.23-.42.45-.22.51l.65.17a.63.63,0,0,0,0,.22c-.2.15-.31.28-.22.3l.67.17c-.23.31-.45.57-.59.53l1.33.35c0,.27-.06.48,0,.49l.95.21c0,.15,0,.25,0,.27q17,4.38,34.06,8.61a.27.27,0,0,0,.22-.09l.85.21c.25.06.5-.28.67-.7l.15,0c.6.15,1.14.08,1.4-.5a1.23,1.23,0,0,0,.09-.54l0,0a.87.87,0,0,0,.1-.26,4.92,4.92,0,0,0,1.89-1.06.87.87,0,0,0,0-1.19l.07-.05c.31-.23,2.12-1.78.67-2.13l-.59-.15c.26-.51.31-1-.46-1.21l-1.58-.39c.23-.72.26-1.36-.27-1.49l-1.88-.47a.76.76,0,0,0-.41-.26l-6.27-1.59a39.45,39.45,0,0,0,2.37-8.2q.77-3.28,1.28-6.61l1,.17,8.12,1.41c.15,0,.33-.36.47-.8l.89.15c.61.1.76-.61.68-1.22a1.91,1.91,0,0,0,1.2-.84,1.17,1.17,0,0,0-.06-.74,1.94,1.94,0,0,0,.41-.58.86.86,0,0,0-.32-1c.39-.83.4-1.57-.45-1.74l-.78-.16c.42-1.09.86-2.64,0-2.79l-1.87-.32a.8.8,0,0,0-.47-.27"/></g></g><g class="f"><g class="f"><path class="b" d="M155.7,119.33a12,12,0,0,0-6.08-1.64c-3.21,0-5.58,1.38-8.21,3a4.76,4.76,0,0,0-1.51,2.85l-.85.5a1,1,0,0,0-.76.33c-.41.38-.81.76-1.2,1.16-.09-.55-.36-1.11-1.07-.8a5.17,5.17,0,0,0-2.48,1.27,17,17,0,0,0-2.73,3.92,11.47,11.47,0,0,0-2.34,2.75,12.53,12.53,0,0,0-1.66,3.32c-.18.39-.35.78-.5,1.18a11.69,11.69,0,0,0-.63,1.76,14.76,14.76,0,0,0-.77,5.45,17.75,17.75,0,0,0,1.29,5.81,15.43,15.43,0,0,0,1,2.68,20.76,20.76,0,0,0,6.93,8.11,18.55,18.55,0,0,0,3.25,2.1,16.6,16.6,0,0,0,6.32,2.33l.31,0c.28.06.56.15.85.19a16,16,0,0,0,8.08-.77,16.72,16.72,0,0,0,4.92-1.94,16.41,16.41,0,0,0,4.11-3.46c.2-.16.41-.31.6-.48a17.54,17.54,0,0,0,4.82-7.05,22.91,22.91,0,0,0,2.2-7.32c.67-5.09.2-10.36-2.71-14.61a19.25,19.25,0,0,0-3.21-4.31,16.47,16.47,0,0,0-7-6.06c-.31-.13-.64-.24-1-.35M136.27,141c.94-3.17,2.83-6,4.45-8.85a.46.46,0,0,0,.46.06c.28-.2.56-.38.85-.56a2.55,2.55,0,0,0,1.73.17,15.61,15.61,0,0,1,3.79-2.12l3.29-.08.18,0a12.25,12.25,0,0,1,1.55.67,17.64,17.64,0,0,1,4.45,4.94,20.91,20.91,0,0,1,1.2,2.28,23.93,23.93,0,0,1,1.13,8.4,18.11,18.11,0,0,1-.28,2.38,14.34,14.34,0,0,1-1.52,2.75,17.79,17.79,0,0,1-4.34,2.42,14.71,14.71,0,0,1-9.89.06,17.29,17.29,0,0,1-3.45-2.17c-.42-.34-.83-.7-1.23-1.08l-.31-.43a17,17,0,0,1-2.21-6.3,13.58,13.58,0,0,1-.08-1.66c.07-.31.14-.61.23-.92"/></g></g><g class="g"><g class="g"><path class="b" d="M203.65,78.78c-.75-1.17-3.1.16-3.9.49l-.64.24-.24-.05-.16-.25c-.5-.79-1.35-.2-1.87.22a.87.87,0,0,0-.57,0,1,1,0,0,0-.41.37c-.45-.11-.79-.06-.51.39l.27.46a.75.75,0,0,0-.29.14c-.28-.1-.44-.08-.26.22l0,.06a.63.63,0,0,0-.18.11.72.72,0,0,0-.14.23.54.54,0,0,1-.33-.19l.2.33a.63.63,0,0,0-.06.79.43.43,0,0,0,.06.23l0,0a1,1,0,0,1-.28.09l.56.9a.51.51,0,0,0-.13.71l.33.52a1.59,1.59,0,0,0,.2.45c.42.59.82,1.2,1.22,1.81a69.82,69.82,0,0,1,4,7.21,68.81,68.81,0,0,1,4.18,11.5,34.42,34.42,0,0,1,.49,3.94,30.94,30.94,0,0,1-.07,3.58,12.22,12.22,0,0,1-3.79-3.14c-3.51-4.15-6.49-9.44-9.35-13.77-.47-.72-1.53-.48-2.46-.11-.07-.15-.14-.3-.21-.44-.53-1.24-3.4.57-3.86.81l-.05,0a.81.81,0,0,0-.48-.17h0c-.39-.83-1.09-.78-1.73-.29l-.42.36a.87.87,0,0,0-.47,0,1.41,1.41,0,0,0-.61.52c-.52,0-1,.12-.78.59l.2.57c-.36,0-.61.05-.49.33l.09.22a2.67,2.67,0,0,1-.57.08c.13.26.24.52.37.78a1.1,1.1,0,0,0,0,.22c-.19,0-.32,0-.35,0,.22.43.42.88.63,1.31-.15.11-.24.23-.19.33a43.94,43.94,0,0,1,2.89,7c.14.54.3,1.08.42,1.63a46.72,46.72,0,0,1,.91,5.39c0,.62.06,1.24.07,1.87,0,.07,0,.13,0,.2q-2.74-3.47-5.29-7.09a132.23,132.23,0,0,1-8.71-13.08c-.74-1.16-3.13.3-3.86.64-.15.07-.72.29-1.33.59l-.17-.23a1.08,1.08,0,0,0-1.56,0,.56.56,0,0,0-.23,0c-.29,0-.78.42-.58.77l0,0c.08,0-.69-.32-.52-.07l.33.54a.39.39,0,0,0-.06.4,3.15,3.15,0,0,1-.5-.23l.49.8a1,1,0,0,0,0,.14.94.94,0,0,0,0,.95l0,0a1.15,1.15,0,0,0,0,.19c-.23.26-.39.51-.31.63l.13.2a1.52,1.52,0,0,1-.39.17q1.06,1.84,2.18,3.64A124.46,124.46,0,0,0,171.68,117q4.52,6.41,9.63,12.38c.14.17.45.15.77,0l.44.54a.88.88,0,0,0,1.4.13,1.3,1.3,0,0,0,.35.05.61.61,0,0,0,.19,0,5.69,5.69,0,0,0,2.47.93c.59,0,1-.36,1-.83a2.34,2.34,0,0,0,1.29-.09.7.7,0,0,0,.3-.92l-.48-.56a1.55,1.55,0,0,0,.84-.37,1,1,0,0,0,.22,0c1.4-.39,2.26-.39,3.18-1.56a3.9,3.9,0,0,0,.43-.69,3.3,3.3,0,0,0,.62-1.05,8.09,8.09,0,0,0,.5-2.76c0-.51,0-1,0-1.55,0-.09,0-.18,0-.28.06-.63.09-1.28.09-1.93a10.5,10.5,0,0,0,2.31,1.73l.49.24c.3.22.6.44.92.63a8.33,8.33,0,0,0,4.69,1.31c.47.21.94.41,1.4.57a8,8,0,0,0,5.6-.37c.42-.16.53-.4.5-.67.33-.09.67-.18,1-.3.91-.3.37-.92-.25-1.39l.1,0c.74-.24,1.07-.71.75-1.18l.29-.24a.53.53,0,0,0,.21-.16l0,0a3.42,3.42,0,0,0,1.43-2.15,5.77,5.77,0,0,0,.62-3.37c0-.17,0-.34,0-.51a13.33,13.33,0,0,0,.24-2.64,29,29,0,0,0-.88-6.68,62.82,62.82,0,0,0-2-6.62q-.37-1.16-.77-2.31a74.56,74.56,0,0,0-8-15.49"/></g></g><g class="h"><g class="i"><path class="b" d="M290.47,72.73c.23-1.38-3.66-.87-4-.85l-.54,0v0c0-.24.07-.48.11-.73.15-1-.81-1.1-1.83-.73a1.26,1.26,0,0,0-.79-.39,1.05,1.05,0,0,0-.53.18c-.59-.26-1.33-.18-1.47.62l-.05.32a.82.82,0,0,0-.3.08c-.46,0-.88.06-.91.26-.08.5-.17,1-.25,1.49,0,0,0,0,0,0l-.08.46c-.07,0-.11,0-.12,0-1.38,8.11-2.81,16.21-4.33,24.3-.08.45-.18.89-.27,1.32s-.23.65-.36,1a10.68,10.68,0,0,1-1.64,2.31,9.14,9.14,0,0,1-4,1.77c-.15,0-.29,0-.44.07a11.69,11.69,0,0,1-1.69-.33c-.16-.11-.32-.22-.47-.34a7.6,7.6,0,0,1-3.2-4.69,14.09,14.09,0,0,1-.07-3.36c0-.07,0-.15,0-.22a88.28,88.28,0,0,0,1.46-9,32.22,32.22,0,0,0,.53-9.45c0-1.13,0-2.25,0-3.39a1.41,1.41,0,0,0-.71-1.27c-.07-.29-.12-.57-.2-.85-.1-1.16-1.24-1.18-2.21-1.24-.29,0-.59,0-.88,0a1.36,1.36,0,0,0-.51-1,1.28,1.28,0,0,0-1.11.14c-.28-.3-.54-.46-.6-.17s-.12.65-.18,1h0c-.22-.42-.46-.65-.55-.17l0,.23c-.29-.24-.52-.46-.5-.63-.11.71-.23,1.41-.34,2.12-.39,0-.7.1-.72.23q-.72,4.44-1.42,8.88h0c-.13.77-.26,1.55-.39,2.33-.22,0-.37,0-.38.08-.49,3-.94,6.05-1.39,9.08-.13.68-.24,1.35-.31,2s-.17,1.07-.24,1.6a13.67,13.67,0,0,0-.06,3.44,14.06,14.06,0,0,0,.15,1.77,8.2,8.2,0,0,0,1.55,3.44c0,.06,0,.12.07.18a12,12,0,0,0,6.27,5.53,14.16,14.16,0,0,0,6,2.31l.24,0a13.84,13.84,0,0,0,6.3.19,11.58,11.58,0,0,0,8.46-4.07,8.48,8.48,0,0,0,.85-1.27,8.7,8.7,0,0,0,1-1.08,12.82,12.82,0,0,0,2.41-5.66q2.43-12.58,4.53-25.23a.81.81,0,0,0-.08-.52c.11-.67.24-1.34.35-2"/></g></g><g class="j"><g class="k"><path class="b" d="M335.14,94.23a12.69,12.69,0,0,0-2.62-5.49,15.79,15.79,0,0,0-4.17-3.46,15.88,15.88,0,0,0-3.19-2.71,16.23,16.23,0,0,0-1.54-.87,15.72,15.72,0,0,0-1.49-.76,16.21,16.21,0,0,0-8.28-1.67,8.83,8.83,0,0,0-2.31-1.13c-.17-.07-.68-.33-1.27-.55a1,1,0,0,0-.54-1.3,1.31,1.31,0,0,0-.35-.1.61.61,0,0,0-.16-.25.85.85,0,0,0-1,0c-.19-.31-.37-.51-.4-.39l-.16.62a.38.38,0,0,0-.31.11c-.14-.26-.25-.44-.27-.39-.07.27-.14.53-.21.8a.84.84,0,0,0-.7.48c-.37-.19-.68-.37-.66-.45-.1.43-.21.85-.31,1.27-.22-.09-.4-.14-.4-.11-.08.3-.17.61-.25.91,0,0,0,0,0,0q-2,7.47-4.18,14.9c-.24.81-.46,1.61-.7,2.42q-2.49,8.93-5.68,17.63a.28.28,0,0,0,0,.19l-.32.9c-.09.25.22.55.61.78l-.06.18c-.19.58-.23,1,.32,1.38a1.32,1.32,0,0,0,.52.15l0,0a.84.84,0,0,0,.24.12,4.16,4.16,0,0,0,.77,1.84.93.93,0,0,0,1.12.17h0c.21.35,1.49,2.07,2,.76l.12-.3c.56.48,1.28.85,1.58-.08.18-.5.35-1,.52-1.49.73.33,1.41.46,1.59-.08s.41-1.17.62-1.76a.74.74,0,0,0,.39-.43c.76-2,1.48-4.11,2.17-6.18,4.2,1,8.62,2.15,12.82,1.54a14.71,14.71,0,0,0,6.15-1.84,12.35,12.35,0,0,0,3.85-2.42l.17-.18c.24-.13.48-.26.72-.41a10.52,10.52,0,0,0,4.16-4.83,8.76,8.76,0,0,0,1.12-1.9c.86-2.08.42-3.62,0-5.75m-13,6a11.38,11.38,0,0,1-1.16.61c-3.8,1.2-8,.72-11.88-.24.18-.61.37-1.22.54-1.84q1.42-4.52,2.6-9.1c.8-.05,1.6-.1,2.41-.11l5,.89A23,23,0,0,1,323.8,93c.14.07.26.16.39.23a11.59,11.59,0,0,1,.76,1.65l-2.81,5.3"/></g></g></svg>