<svg xmlns="http://www.w3.org/2000/svg" xmlns:xlink="http://www.w3.org/1999/xlink" viewBox="0 0 504 504"><defs><style>.a{fill:none;}.b{clip-path:url(#a);}.c{clip-path:url(#b);}.d{fill:#00a6e9;}.e{clip-path:url(#c);}.f{clip-path:url(#d);}.g{clip-path:url(#e);}.h{clip-path:url(#f);}.i{clip-path:url(#g);}.j{clip-path:url(#h);}.k{clip-path:url(#i);}.l{clip-path:url(#j);}.m{clip-path:url(#k);}.n{clip-path:url(#l);}.o{clip-path:url(#m);}.p{clip-path:url(#n);}</style><clipPath id="a"><rect class="a" x="93.95" y="160.1" width="37.03" height="31.47" transform="translate(-70.05 277.11) rotate(-86.42)"/></clipPath><clipPath id="b"><rect class="a" x="93.95" y="160.1" width="37.03" height="31.47" transform="translate(-70.05 277.11) rotate(-86.42)"/></clipPath><clipPath id="c"><rect class="a" x="138.07" y="150.66" width="29.89" height="38.28" transform="translate(-28.37 30.71) rotate(-10.49)"/></clipPath><clipPath id="d"><rect class="a" x="138.07" y="150.66" width="29.89" height="38.28" transform="translate(-28.37 30.71) rotate(-10.49)"/></clipPath><clipPath id="e"><rect class="a" x="210.98" y="132.26" width="29.4" height="38.42" transform="translate(-31.82 64.49) rotate(-15.2)"/></clipPath><clipPath id="f"><rect class="a" x="210.98" y="132.26" width="29.4" height="38.42" transform="translate(-31.82 64.49) rotate(-15.2)"/></clipPath><clipPath id="g"><rect class="a" x="175.48" y="143.24" width="27.11" height="36.75" transform="matrix(0.96, -0.27, 0.27, 0.96, -36.73, 57.29)"/></clipPath><clipPath id="h"><rect class="a" x="175.48" y="143.24" width="27.11" height="36.75" transform="translate(-36.73 57.29) rotate(-15.73)"/></clipPath><clipPath id="i"><rect class="a" x="248.19" y="119.28" width="28.99" height="36.79" transform="translate(-28.85 83.21) rotate(-17.08)"/></clipPath><clipPath id="j"><rect class="a" x="248.19" y="119.28" width="28.99" height="36.79" transform="matrix(0.96, -0.29, 0.29, 0.96, -28.85, 83.21)"/></clipPath><clipPath id="k"><rect class="a" x="298.39" y="113.09" width="36.61" height="31.48" transform="translate(172.76 438.95) rotate(-87.24)"/></clipPath><clipPath id="l"><rect class="a" x="298.39" y="113.09" width="36.61" height="31.48" transform="translate(172.76 438.95) rotate(-87.24)"/></clipPath><clipPath id="m"><rect class="a" x="335.88" y="123.79" width="40.58" height="31.68" transform="translate(64.84 387.59) rotate(-61.81)"/></clipPath><clipPath id="n"><rect class="a" x="335.88" y="123.79" width="40.58" height="31.68" transform="translate(64.84 387.59) rotate(-61.81)"/></clipPath></defs><title>speak-up</title><g class="b"><g class="c"><path class="d" d="M127.76,182.53a6,6,0,0,0-.09-.91,5.29,5.29,0,0,0-.77-2.76,4.9,4.9,0,0,0-2.55-2.75c-.24-.13-.51-.23-.77-.34,0-.58-1.18-.73-1.69-.75a5.5,5.5,0,0,0-.72-.45,7,7,0,0,0-.66-.27c-.19-.12-.39-.24-.59-.34a.79.79,0,0,0-.73-.54l-.7,0a44.61,44.61,0,0,0-4.93-.7c-1-.15-2-.3-3-.49-.67-.13-1.33-.27-2-.43h0l-.39-.11-.81-.24-.06-.05-.34-1.43c0-.06,0-.12.06-.19a4,4,0,0,1,1.15-1.57,21.49,21.49,0,0,1,2.39-.89c.83-.2,1.63-.37,2.27-.49a91,91,0,0,1,9.15-1,.72.72,0,0,0,.59-.31h.09a.89.89,0,0,0,.89-1.09l1-.06c.79,0,.84-.93.41-1.39a1.62,1.62,0,0,0-.23-.19.8.8,0,0,0,.34-.45c.22-.73-.43-1.05-1.07-1.1l-1.42-.09c0-.42-.24-1.07-.62-1.12-.21-.05-.42-.08-.63-.12a.72.72,0,0,0-.31-.11,11.79,11.79,0,0,0-2.85-.28.92.92,0,0,0-.11-.33c-.33-.5-1.43-.62-2-.59,0-.39-.28-1-.67-1l-.46,0c-.13-.16-.27-.26-.39-.25l-.8.07a.37.37,0,0,0-.19-.05,18.25,18.25,0,0,0-7.46,1.72,16.17,16.17,0,0,0-3.91,2.71,13.1,13.1,0,0,0-3.06,3,7.48,7.48,0,0,0-1.32,2.92,6.46,6.46,0,0,0-.67,2.95,4.4,4.4,0,0,0,.73,3.56c.05.07.11.12.16.18a5,5,0,0,0,3.14,3.06c.15.13.3.25.47.38a7.25,7.25,0,0,0,3.73,1.27h0c.4.08.82.14,1.27.19,2.58.27,5.22.43,7.84.54a1.19,1.19,0,0,0,.34.17,6,6,0,0,0,.93.18l.09,0a16,16,0,0,0,2.13.33l0,0,.19.21.45,1.45c0,.14,0,.28,0,.41a8.13,8.13,0,0,1-1.58,2.59,8.55,8.55,0,0,1-.86.82,10.3,10.3,0,0,1-1.21.57c-.47.08-.94.16-1.41.22s-1.1.09-1.65.1l-.49,0a.87.87,0,0,0-.29,0c-.26,0-.52,0-.77-.08h-.08a19,19,0,0,1-5.29-2.49c-.34-.22-.92,0-1.51.28l-.06,0a1.33,1.33,0,0,0-1.33.07l-.05,0c-.69-.42-1.36.2-1.48.87a1.39,1.39,0,0,0-.83,0c-.2.15-.35.4-.05.58l.27.16a.78.78,0,0,0,0,.33c-.46.15-.88.37-.72.46l.26.15,0,.05a.63.63,0,0,0,0,.22,1,1,0,0,0,0,.13l-.14-.09c-.21-.12-.25,0-.11.13l.25.26h0a.61.61,0,0,0,.19.36.3.3,0,0,0,0,.33c-.42,0-.74,0-.44.19l.95.54c-.37.24-.54.6,0,.9s1,.57,1.51.83a2.25,2.25,0,0,0,.35.27A18.53,18.53,0,0,0,109.1,194a13.92,13.92,0,0,0,5.83.06h0a12,12,0,0,0,4.92-1.56l.18,0a8.9,8.9,0,0,0,2.5-1.28c3.7-1.36,5.27-4.73,5.19-8.63"/></g></g><g class="e"><g class="f"><path class="d" d="M164.05,155.86a10.57,10.57,0,0,0-4.15-2.91,13.15,13.15,0,0,0-4.44-.81,13.23,13.23,0,0,0-3.42-.66,13.52,13.52,0,0,0-1.47,0,13.1,13.1,0,0,0-1.4.06,13.51,13.51,0,0,0-6.69,2.17,7.36,7.36,0,0,0-2.14.12c-.15,0-.63,0-1.15.12-.16-.46-.39-.75-.92-.72a1.09,1.09,0,0,0-.3.07.51.51,0,0,0-.22-.11c-.22,0-.67.15-.72.43-.26-.15-.48-.22-.45-.12l.14.52a.32.32,0,0,0-.18.21c-.21-.13-.36-.21-.35-.18.06.22.12.44.18.66a.7.7,0,0,0-.31.63c-.35,0-.65,0-.66-.06.1.35.19.7.29,1.05-.2,0-.34.06-.34.09.07.25.13.51.19.76,0,0,0,0,0,0q1.6,6.25,3.06,12.52c.16.68.32,1.36.48,2q1.84,7.5,3.08,15.13a.24.24,0,0,0,.09.13c0,.26.09.53.14.79s.39.31.76.32l0,.16c.1.5.26.85.79.87a1.1,1.1,0,0,0,.44-.1l0,0a.7.7,0,0,0,.22,0,3.47,3.47,0,0,0,1.31,1,.78.78,0,0,0,.89-.33h0c.3.17,1.93.9,1.74-.25,0-.09,0-.18,0-.27.6.12,1.27.1,1.12-.7-.07-.43-.16-.86-.23-1.3.66-.06,1.21-.24,1.12-.71s-.18-1-.27-1.53a.61.61,0,0,0,.11-.47c-.29-1.8-.61-3.59-.95-5.37,3.47-1,7.14-2,9.94-4.12a12.26,12.26,0,0,0,3.71-3.85,10.29,10.29,0,0,0,1.81-3.33c0-.07,0-.13,0-.2s.24-.39.35-.59a8.76,8.76,0,0,0,1-5.21,7.3,7.3,0,0,0,0-1.84c-.23-1.86-1.18-2.8-2.34-4.18m-7,9.65a9.48,9.48,0,0,1-.59.92c-2.27,2.43-5.5,3.79-8.73,4.68-.12-.52-.24-1-.36-1.56q-.81-3.86-1.83-7.67c.56-.36,1.12-.73,1.7-1.07l4-1.38a19.17,19.17,0,0,1,4.11.18h.38a9.66,9.66,0,0,1,1.23.89q.06,2.5.13,5"/></g></g><g class="g"><g class="h"><path class="d" d="M237.77,143c-.38-1.09-.77-2.18-1.19-3.26a15.71,15.71,0,0,0-2.91-5c-1.87-1.91-4.23-2.2-6.64-1.93a6.32,6.32,0,0,0-3.34-.34,6.93,6.93,0,0,0-1.56.21c-3.52.42-6.84,3.25-8.85,6.36a13.69,13.69,0,0,0-2.86,5.85,9.55,9.55,0,0,0-.16,3,11,11,0,0,0-.06,1.29,16.35,16.35,0,0,0,1,4.9l.17.44c0,.12.08.24.12.36q3.08,8.18,6.32,16.29s.26,0,.55-.08l.38,1c.07.19.41.13.74,0a.74.74,0,0,0,.38,0,1.45,1.45,0,0,0,1,.64,1.09,1.09,0,0,0,.58-.34c.62.12,1.19,0,1.24-.56.61,0,1-.27.84-.9,0-.18-.08-.35-.12-.52,1.37-.2,2.55-.63,2.39-1-.64-1.62-1.26-3.25-1.89-4.87l-1.15-3.25q5.48-1.68,10.85-3.69,1.12,3.7,2.25,7.4c.06.19.44.31.83.32l.09.29a.84.84,0,0,0,1.38.41h.19a2.84,2.84,0,0,0,1.15.88.83.83,0,0,0,.94-.41l.07,0c.34.11,1.47.32,1.28-.51l-.05-.22c.57.07,1.2,0,1-.76l-.29-1.14c1-.15,1.65-.42,1.55-.75-2-6.62-3.68-13.58-6.28-20m-18.49,8a16.6,16.6,0,0,1-.71-3.2,7.47,7.47,0,0,1,.11-1.5q.16-.43.36-.86h0a17.89,17.89,0,0,1,2.86-3.4,10.49,10.49,0,0,1,1-.54l3.89-1.33c.15,0,.28,0,.42,0a19.24,19.24,0,0,1,1.66,3.12q1.41,3.45,2.56,7-5.34,2.53-10.73,4.94c-.49-1.42-1-2.83-1.44-4.25"/></g></g><g class="i"><g class="j"><path class="d" d="M183.51,152.83c3.46-1.43,14.4-7,14.4-7s0-3.92-.51-4.07a5.67,5.67,0,0,0-2.91.36.85.85,0,0,0-1-.67l-.39.14a.56.56,0,0,0-.46-.07l-.55.21a.38.38,0,0,0-.21,0L177.71,147s.2.12.38.3l-.65.24a.69.69,0,0,0-.47-.19.71.71,0,0,0-.57.28.37.37,0,0,0-.14-.08c-.23,0-.46-.05-.4.28l.11.55h0c-.07-.12-.14-.2-.22-.21-.36,0-.31.27-.26.55v.05l0,0a1.43,1.43,0,0,1-.42-.62c.07.29.13.59.2.88a1.68,1.68,0,0,0-.16.87.92.92,0,0,0-.06.15c-.33.14-.6.3-.58.43l.07.34-.32,0q2.84,13.4,5.34,26.87c0,.06.08.1.17.13l.14.72c0,.24.4.31.78.27v0a2.13,2.13,0,0,0,.08.25c-.06.07,0,.13.07.19a1,1,0,0,0,.74.61.94.94,0,0,0,.05.15c.26.55.59.49,1.09.31l.3-.1c.49.55,1.18,1.19,1.73,1l.16,0a.57.57,0,0,0,.56-.16,1.83,1.83,0,0,0,1.13.23c5.82-1.81,16.69-6,16.69-6a3,3,0,0,0-.24-1.36l.51-.22c1.08-.45.66-3.72,0-3.83s-8.93,1.61-15.59,3.4c-.29-2.31-.66-4.6-1.12-6.86l6.19-2.33c.49-.18.59-.46.53-.76l.53-.19c.62-.23.24-1,.24-1l.54-.21c1.15-.43.73-4.23.07-4.37s-6,.94-9.86,1.74c-.15-.54-.29-1.08-.45-1.62l-1-5M177.83,148l-.08,0a1.61,1.61,0,0,0-.12-.22l.2.21"/></g></g><g class="k"><g class="l"><path class="d" d="M280.88,147.77l-1.23-.73c.4-.32.64-.72.06-1.08-4.81-3-9.69-5.86-14.62-8.65,1.06-2.14,2.1-4.28,3.08-6.44.38-.77.76-1.53,1.14-2.3a5.39,5.39,0,0,0,.73-2.39h0l.14-.28a5.33,5.33,0,0,0,.72-2.38c.12-.66-.81-.93-1.71-1l-.23-.61c-.29-.77-2.07-.8-3.27-.4a1,1,0,0,0-1.41-.39c-.26-.15-.5-.16-.56.16,0,.13,0,.25,0,.37a4,4,0,0,1-.59-.31,5.15,5.15,0,0,1-.1.76c-.14-.09-.23-.16-.23-.19a5.15,5.15,0,0,1-.27,1.36,3.06,3.06,0,0,1-.46-.13,5.31,5.31,0,0,1-.09.68h0c-.72,1.64-1.49,3.28-2.28,4.9-.32.64-.65,1.28-1,1.93-.8,1.6-1.62,3.19-2.44,4.79q-.8-2.36-1.63-4.7c-.48-1.6-1-3.19-1.45-4.78a1.06,1.06,0,0,0-.5-.57c-.16-.43-.31-.86-.47-1.28-.39-1.09-2.29-.4-3-.24-.19,0-.63.12-1.08.24a.92.92,0,0,0-1.06-.65,1.09,1.09,0,0,0-.3.11.57.57,0,0,0-.25-.09.69.69,0,0,0-.65.53c-.32-.13-.58-.18-.54-.05l.16.56a.25.25,0,0,0-.13.18c-.23-.1-.41-.15-.39-.1l.22.76a.79.79,0,0,0-.15.55c-.37,0-.7-.05-.74-.17l.38,1.28c-.19,0-.32.09-.31.12q4.13,14.08,8.62,28.05a.19.19,0,0,0,.1.09l.26.81c.05.17.42.18.8.11l.14.44a.91.91,0,0,0,1.41.38l0,0a2.93,2.93,0,0,0,1.36.79.88.88,0,0,0,.78-.42h0c.41.16,1.88.45,1.61-.6h0c.7.11,1.83.15,1.51-.87l-.4-1.26c.72-.14,1.32-.41,1.16-.9l-.49-1.56a.66.66,0,0,0,.06-.53c-.41-1.43-.84-2.86-1.27-4.29a.59.59,0,0,0,.09-.12c.48-1,1-1.94,1.46-2.91q6.11,3.74,12.29,7.38c.2.12.6,0,.9-.2l.14,0,1.47.86c.39.22.73-.08.9-.44.55.26,1.13.38,1.45-.12a.69.69,0,0,0,.08-.57h.3c.7,0,1.35-.85.51-1.36l-1.23-.74.87-.07a2.18,2.18,0,0,0,1.59-.44.61.61,0,0,0,0-.85"/></g></g><g class="m"><g class="n"><path class="d" d="M333.16,114c.22-1.14-3-.81-3.31-.79h-.45v0l.11-.6c.15-.87-.65-.93-1.51-.65a1.05,1.05,0,0,0-.65-.34.88.88,0,0,0-.45.14c-.48-.23-1.11-.18-1.24.49l-.05.27a.69.69,0,0,0-.25.06c-.39,0-.74,0-.77.19-.08.41-.17.82-.25,1.24,0,0,0,0,0,0l-.08.39-.1,0c-1.33,6.74-2.7,13.48-4.16,20.19-.08.37-.17.74-.26,1.1s-.2.54-.32.81a8.92,8.92,0,0,1-1.42,1.89,7.64,7.64,0,0,1-3.4,1.39l-.37,0a9.77,9.77,0,0,1-1.4-.31l-.39-.29a6.35,6.35,0,0,1-2.57-4,11.77,11.77,0,0,1,0-2.81c0-.06,0-.12,0-.18a73.75,73.75,0,0,0,1.42-7.5,26.92,26.92,0,0,0,.65-7.88c0-.94,0-1.88,0-2.83a1.18,1.18,0,0,0-.56-1.08c0-.24-.09-.48-.14-.72-.06-1-1-1-1.81-1.08-.24,0-.49,0-.74,0a1.14,1.14,0,0,0-.4-.89,1.07,1.07,0,0,0-.93.09c-.23-.26-.44-.4-.5-.15l-.17.82h0c-.17-.35-.37-.56-.46-.16l0,.19c-.23-.2-.43-.39-.4-.54-.11.59-.22,1.17-.33,1.76-.32,0-.59.07-.61.18q-.7,3.69-1.39,7.39h0c-.13.64-.25,1.29-.38,1.93-.18,0-.31,0-.32.05-.48,2.51-.92,5-1.37,7.55-.12.56-.23,1.13-.3,1.69s-.16.89-.24,1.33a11.42,11.42,0,0,0-.12,2.87,11.75,11.75,0,0,0,.09,1.48,6.85,6.85,0,0,0,1.21,2.9c0,.05,0,.1.06.15a10,10,0,0,0,5.11,4.76,11.83,11.83,0,0,0,5,2.07l.2,0a11.56,11.56,0,0,0,5.26.3,9.68,9.68,0,0,0,7.16-3.21,7.08,7.08,0,0,0,.74-1,7.27,7.27,0,0,0,.87-.88,10.71,10.71,0,0,0,2.14-4.68q2.31-10.45,4.35-21a.68.68,0,0,0-.06-.43c.11-.56.23-1.12.34-1.67"/></g></g><g class="o"><g class="p"><path class="d" d="M374.55,135.41a11.21,11.21,0,0,0-1.5-5.16,13.94,13.94,0,0,0-3.14-3.61,14,14,0,0,0-2.4-2.81,14.33,14.33,0,0,0-1.22-1,13.89,13.89,0,0,0-1.19-.88,14.32,14.32,0,0,0-7-2.64,7.8,7.8,0,0,0-1.85-1.32c-.14-.09-.55-.38-1-.66a.9.9,0,0,0-.28-1.21,1.15,1.15,0,0,0-.29-.14.54.54,0,0,0-.11-.24.75.75,0,0,0-.88-.12c-.12-.3-.25-.5-.29-.4l-.23.52a.34.34,0,0,0-.29.05c-.08-.25-.16-.42-.18-.38l-.29.66a.74.74,0,0,0-.68.32c-.29-.22-.54-.42-.51-.49l-.45,1.06c-.18-.11-.32-.18-.34-.15l-.35.76,0,0q-2.82,6.23-5.77,12.39c-.32.67-.64,1.34-1,2q-3.45,7.42-7.47,14.56a.25.25,0,0,0,0,.17l-.41.74c-.11.21.12.52.42.77l-.08.15c-.25.48-.35.88.08,1.24a1.17,1.17,0,0,0,.43.21l0,0a.74.74,0,0,0,.19.14,3.68,3.68,0,0,0,.41,1.72.82.82,0,0,0,1,.31h0c.13.34,1,2,1.61.95l.15-.25c.42.5,1,.93,1.39.16.23-.41.44-.82.67-1.23.59.39,1.16.6,1.39.16s.52-1,.79-1.44a.65.65,0,0,0,.4-.32c1-1.68,1.87-3.37,2.78-5.07,3.51,1.49,7.21,3.11,11,3.18a13,13,0,0,0,5.62-.72,10.91,10.91,0,0,0,3.71-1.56l.17-.13c.23-.08.46-.16.68-.25a9.29,9.29,0,0,0,4.32-3.62,7.74,7.74,0,0,0,1.25-1.5c1-1.69.88-3.1.84-5m-12.18,3.35a10,10,0,0,1-1.1.37c-3.49.51-7.06-.51-10.32-1.91.24-.51.49-1,.73-1.53q1.89-3.73,3.57-7.56c.71.07,1.41.14,2.12.24l4.2,1.49a20.32,20.32,0,0,1,3.27,2.87c.11.09.21.17.31.26a10.24,10.24,0,0,1,.43,1.55l-3.21,4.22"/></g></g><path class="d" d="M343.67,192.44A89.1,89.1,0,0,0,338,178.93a52.2,52.2,0,0,0-6.45-9.86,29.17,29.17,0,0,0-3.49-3.48l-.47-.4-.19-.16-.77-.61a20.64,20.64,0,0,0-2.71-2l-3.22-1.66a17.68,17.68,0,0,0-5-1.2,30.58,30.58,0,0,0-5.23-.71c-.84-.06-1.08.41-.64,1.1.19.16.39.3.58.44l-.61-.05c-1-.07-.82.8-.33,1.23.25.11.51.21.76.31a1,1,0,0,0-.63.39.59.59,0,0,0,0,.69l-.29.08c-.56.39-.8,1.19.18,1.26h.31l-.36.19c-.56.61-.4,1.13.46,1.19l1.27.23c-.07.3,0,.57.44.61a17,17,0,0,1,5.79.84l2.24,1.15,3,2.3,5.24,6.09c3.94,5.61,6.61,12.25,8.73,18.72a147.75,147.75,0,0,1,4.8,19,227.7,227.7,0,0,1,3.14,31.81,230.15,230.15,0,0,1-3,47.86,143.77,143.77,0,0,1-4,16.14,93.74,93.74,0,0,1-4.29,11.3,48.34,48.34,0,0,1-6.22,9.72,25.66,25.66,0,0,1-9.89,7.57,12.62,12.62,0,0,1-1.3.22,10.25,10.25,0,0,1-1.33.42,9.56,9.56,0,0,1-3.08-.28,15.87,15.87,0,0,1-7.59-4,26.71,26.71,0,0,1-2.06-2l-.53-.71a57.06,57.06,0,0,1-6.12-10.89l-.05-.12q-.47-1.07-.91-2.16l-.08-.18c-.24-.59-.47-1.18-.7-1.76l-.36-.93-.12-.32a158.54,158.54,0,0,1-6.25-22.73,188.38,188.38,0,0,1-3-20.49l.73-.18a.38.38,0,0,0,.21,0l.25-.06a1.56,1.56,0,0,0,.14.37c.89-.2,1.78-.44,2.66-.7.07.08.14.13.21.11.54-.2,1.07-.42,1.59-.64l0,0,.37-.14a.79.79,0,0,0,.32,0c.9-.17,1.79-.35,2.69-.55.08.1.17.16.25.12l.43-.2a.1.1,0,0,0,.1,0l.37-.18c.1.12.18.21.21.19.43-.19.85-.4,1.28-.61.75-.21,1.5-.44,2.23-.7a21,21,0,0,0,9.51-5.49,15.4,15.4,0,0,0,2.49-3.24c.21-.37.4-.74.58-1.12a15,15,0,0,0,1.62-7.66c0-.44,0-.88,0-1.32a19.25,19.25,0,0,0-2.4-7.83,28.38,28.38,0,0,0-5-6.85l-.14.12c-3-2.82-6.37-4.28-10.28-5.54,0,0-.11.08-.2.21a25.8,25.8,0,0,0-2.75-.52,24.61,24.61,0,0,0-4-.36,23.66,23.66,0,0,0-4.13.4q.36-6.15,1-12.29a201.32,201.32,0,0,1,3.91-23.1c.23-1,.46-1.94.7-2.91A122.75,122.75,0,0,1,293,178.65h0c.76-1.88,1.56-3.75,2.42-5.58,0,0,0,0,0-.06.92-1.88,1.89-3.72,2.95-5.53a2.19,2.19,0,0,0-.42-.25l.32-.59a.21.21,0,0,0,0-.09v0c.06-.11,0-.28-.09-.47a.81.81,0,0,0,0-.45.89.89,0,0,0,0-.53l.18-.33c.08-.14,0-.12-.11,0l.23-.41a3.56,3.56,0,0,1-.42.17.52.52,0,0,0-.12-.13l.13-.24c.2-.39-.14-.33-.53-.15l.08-.15c.13-.26-.33-.67-.54-.72a.91.91,0,0,0-.73.3c-.76-.56-1.87-.85-2.32-.32l-.46.42h-.08c-.11-.24-.28-.36-.52-.26l-.34.15c-.12-.26-.26-.4-.37-.35l-1.54.67a.35.35,0,0,0-.17,0q-10,4.4-20.15,8.45-10.45,4.14-21.1,7.82c-17.72,6.09-35.75,11.3-54,15.69-15.83,3.82-31.81,7-47.94,9.25q-6.83,1-13.68,1.65a1.18,1.18,0,0,0-.75-.13,10.73,10.73,0,0,0-1.28.34c-2.25.22-4.51.42-6.77.59-8.59.64-17.07.77-25.69.69-.16,0-.27.17-.34.44h-.48s-.08,0-.11.08h-.53c-.53,0-.42.71-.1,1.46-.2.12-.15.4,0,.72-.49-.28-1-.44-1.32,0l-.69,1a.82.82,0,0,0-.6.32c-.82,1.29-1.6,2.59-2.35,3.9l-.86,1.23-.92,2.12c-.57,1.18-1.12,2.38-1.6,3.63a82.41,82.41,0,0,0-3.39,11.45c-.35,1.58-.65,3.18-.93,4.79a28.89,28.89,0,0,0-8,3.93,6.2,6.2,0,0,0-1.63,1.75,5.84,5.84,0,0,0-1.12,1.85,5.17,5.17,0,0,0-.2,1.48q0,5.06.16,10.11a18.42,18.42,0,0,0,.62,5,13,13,0,0,0,.48,2,7.55,7.55,0,0,0,1.92,3.1,4.67,4.67,0,0,0,.51.43,5.21,5.21,0,0,0,2.82,1.55l.15.08a6.26,6.26,0,0,0,4.23.17,56.59,56.59,0,0,0,2.75,9.3c1.59,4,3.85,8.33,6.93,11.42l3.21,2.9q.56.42,1.15.8l.21.19a23.62,23.62,0,0,0,4.28,2.5,1.22,1.22,0,0,0,.9.07l.67.41c.45.27.56-.07.5-.51l.27.17c.31.19.37,0,.32-.28l.55.33c-.09-.06-.38-.41-.65-.7h0l0,0h0a.3.3,0,0,0,.47-.07c.35.21.83.5.57.33l-.56-.34a.81.81,0,0,0,.11-.27,1,1,0,0,0,.15-.13,2,2,0,0,1,.9.2l-.63-.42a.78.78,0,0,0,.16-.3s0,0,0-.06l0-.05.71.47a3.26,3.26,0,0,1-.62-.59v0a2.52,2.52,0,0,0,.44,0c1.17.29,2.36.55,3.57.79a3.16,3.16,0,0,0-.88.78c-.3.49-.15.91.34,1-.33.41-1.12,1.55-.14,1.5l1.43-.07c-.23.83-.17,1.48.45,1.45l2-.09a.39.39,0,0,0,.24.08l4-.19c-.4.22-.65.52-.56.91s.22.93.34,1.39a.93.93,0,0,0-.07.63c1.81,7.72,3.55,15.44,4.79,23.26a159.21,159.21,0,0,1,1.58,16.8c0,.58.07,1.15.11,1.73l.36,12.2q0,2.17-.1,4.34c-.15,5.11-.5,10.2-1,15.28-.19,1.64-.39,3.27-.63,4.9h0a.6.6,0,0,0,0,.31c-.45.63-.75,1.37-.43,1.68l.2.2c-.07.58-.14,1.15-.23,1.73,0,.17.13.3.37.4-.05.35-.09.71-.14,1.06a.9.9,0,0,0,.14.69,9.25,9.25,0,0,0-.88.44c-.48.51-.43,1.1.4,1.1h.23c-.42.46-1,1.23-.16,1.23h1.49c-.39.84-.47,1.53.15,1.53l10.35,0A117.2,117.2,0,0,1,150.26,394,76.87,76.87,0,0,1,165,396.79,104.82,104.82,0,0,1,184.34,402c.64.21,1.17-.42,1.56-1a1,1,0,0,0,.71-.27l.37.12c.46.15.81-.34,1-.94a.75.75,0,0,0,.35-.25,1.41,1.41,0,0,0,.15-.7c.36-.19.54-.49.05-.82l0,0c.36-.16.67-.38.49-.5l-.31-.21s0-.08-.06-.11l-.11-.07.29-.3.1-.08-.89-.59.25-.23-.48-.32a.1.1,0,0,0,0-.09c-11.56-7.73-23.19-15.18-35.06-22.42.16-.15,0-.34-.15-.42a.42.42,0,0,0-.14,0,.69.69,0,0,0-.21-.49.52.52,0,0,0-.38-.15,1.12,1.12,0,0,0-1.38-.71l-.57.23c-.92-.8-2-1.45-2.34-1.24a22.48,22.48,0,0,0-2.61,1.41,15.28,15.28,0,0,0-4.12,4.67,17.44,17.44,0,0,0-1.32,2.71,15.45,15.45,0,0,0-1.29,3.61,6.07,6.07,0,0,0-.17,2.87h0c0,.09-.05.18-.07.27-2.06-.05-4.12,0-6.18,0h0a1.06,1.06,0,0,0,.23-.32.69.69,0,0,0,.16-.38q1-6.28,1.43-12.61a215.83,215.83,0,0,0,.66-24.36A210.13,210.13,0,0,0,132,324c-.66-4.55-1.5-9.06-2.49-13.53-.69-3.27-1.49-6.52-2.36-9.75l1.53-.06c10.24-.28,20.47-.29,30.71.21a.65.65,0,0,0-.07.48c1.16,4.16,2.32,8.34,3.29,12.57a125.7,125.7,0,0,1,2.2,14.08c0,.05,0,.11,0,.16l.42,6.59a165.1,165.1,0,0,1-.47,17.87h0a.57.57,0,0,0-.64.57h0c-.48,0-1,.33-.74.88a.66.66,0,0,0,.34.32,4.53,4.53,0,0,0-1.68.87c-.44.45-.39,1,.35,1h.2c-.38.41-.89,1.1-.15,1.11l1.4,0c-.19.53-.14,1,.35,1l2.41.15c0,.63.76.51,1.55.1l3.71.23a64.86,64.86,0,0,1,7.28.62l.25.29a1.2,1.2,0,0,0,1.29.12l0,.07c.42.55,1,.39,1-.05q2.72.5,5.4,1.23a48.16,48.16,0,0,1,11.2,2.84,71.68,71.68,0,0,1,10.88,4.38c.62.27,1.19-.5,1.57-1.09a.85.85,0,0,0,.56-.25h0c.58.25,1-.16,1.24-.69a.74.74,0,0,0,.45-.72c.22-.15.3-.37,0-.66l-.11-.11c.32-.14.63-.31.58-.36l-.47-.45.31-.33-.61-.6c.05-.05.09-.09.08-.1-4.58-4.43-9.06-9-13.86-13.23-.7-.61-1.41-1.18-2.12-1.73a53.28,53.28,0,0,0-5.33-3.65,1.08,1.08,0,0,0-.46-.48,6.51,6.51,0,0,0-.88-.32l-.07,0a.29.29,0,0,0-.19,0,4.94,4.94,0,0,0-1.17-.14,6.25,6.25,0,0,0-.56-.28,5,5,0,0,0-4.09-.2,13.73,13.73,0,0,0-4.11,3,10,10,0,0,0-2.51,3.72,7.1,7.1,0,0,0-.5,1,6.11,6.11,0,0,0-.48,2.26q-2.49-.19-5-.24A154.79,154.79,0,0,0,172,330.5a124.8,124.8,0,0,0-2-15.81c-.45-2.34-1-4.67-1.55-7q-.76-3.21-1.68-6.38l1.44.1a151.86,151.86,0,0,1,16,1.82,142.64,142.64,0,0,1,15.44,2.32c8.18,1.54,16.32,3.37,24.32,5.68a339.48,339.48,0,0,1,36.56,12.94c15.48,6.48,30.48,14,45.45,21.54a.7.7,0,0,0,.66,0l.59.21a14.67,14.67,0,0,0,4.24.68,15.45,15.45,0,0,0,6.38-.25,16.67,16.67,0,0,0,2.8-.66,22.54,22.54,0,0,0,7.17-4.05,31.73,31.73,0,0,0,6.61-7.2q.42-.57.83-1.16a44.83,44.83,0,0,0,2.59-4.26l.1-.19.34-.64a83.28,83.28,0,0,0,4.34-9.88c.73-1.94,1.38-4,2-6,.13-.42.25-.84.37-1.26s.32-1.06.46-1.59c1.44-5.12,2.54-10.35,3.45-15.49a217.53,217.53,0,0,0,3.19-34.58,248.67,248.67,0,0,0-1.78-35.54C349,213.26,347.09,202.58,343.67,192.44ZM82,255.49l-.22-.2.4-.22v.36A.62.62,0,0,0,82,255.49Zm-1.7-5.19a7.36,7.36,0,0,0-1.44.88,10.91,10.91,0,0,1,.32-3.3,4.57,4.57,0,0,1,.32-.39,8.92,8.92,0,0,1,1.47-1c.67-.39,1.36-.77,2-1.13a1.88,1.88,0,0,0,.07.23,2,2,0,0,0,.74.87q-.15,1.26-.25,2.52A23.13,23.13,0,0,0,80.32,250.3Zm2.92,15.1a2.11,2.11,0,0,0,.17-.17,2.21,2.21,0,0,0,.53-.54c0,.12,0,.24,0,.35C83.74,265.18,83.49,265.3,83.24,265.4Zm16.37-45.57-.14.19a1.26,1.26,0,0,0-.52.72c-.56.81-1.08,1.65-1.57,2.5.69-1.56,1.42-3.1,2.21-4.63a.44.44,0,0,1-.17,0c.25-.43.52-.86.79-1.29l.39.25c.15.09.31.16.46.25C100.55,218.44,100.07,219.12,99.61,219.83Zm1.44-5.28.11-.19.1.14ZM144.66,386l.18.06a16.15,16.15,0,0,1,.39-1.87,14.73,14.73,0,0,1,1.17-2.54c.23-.39.47-.74.72-1.08a18.16,18.16,0,0,1,1.35-1.51q7.93,4.86,15.74,9.84c-2.24-.46-4.49-.87-6.77-1.19l-10.06-1.21c-.93-.08-1.85-.14-2.78-.2Zm38.41-32.77a8.44,8.44,0,0,1,.53-.89c.18-.23.35-.45.55-.67a16.31,16.31,0,0,1,2.69-2.46l.46-.28.13.08c-.06.29,0,.51.13.6a51.08,51.08,0,0,1,7.84,5.54c.53.46,1,1,1.57,1.43a74,74,0,0,0-7.58-1.94L183,353.55C183,353.44,183,353.34,183.07,353.24ZM283.24,268.1l0-.36.66.1Zm6.13-33.4,3.47.62,5.1,2.16c.27.17.52.36.78.54a26.31,26.31,0,0,1,1.24,7.77l-.82,6.71a14.67,14.67,0,0,1-.7,2.12,17.61,17.61,0,0,1-2.2,3.49,16.2,16.2,0,0,1-5,4.32l-4.69,1.69a13.51,13.51,0,0,1-3.53.15q-.42-7.44-.47-14.88-.05-7.25.26-14.48A28.39,28.39,0,0,1,289.37,234.7Zm-162.8,59.13-.18-.29.19,0,.29.24Zm141,25.42a324.81,324.81,0,0,0-45.86-16.16,287.2,287.2,0,0,0-45.83-8.19,337.33,337.33,0,0,0-35.72-1.37.88.88,0,0,0-.21-.15,39.54,39.54,0,0,1-8-4.79,15.86,15.86,0,0,1-1.49-1.25c-.59-.64-1.14-1.3-1.69-2l-3.2-4.65-1.45-2.92-2.26-6.58a46.77,46.77,0,0,1-1.43-8.77,83.73,83.73,0,0,1-.12-14.89c.45-5.64.9-11.38,2.77-16.72q.29-.69.6-1.36a49.22,49.22,0,0,1,4.58-7.66l1-.28c.31-.09.27-.3.06-.56l.93-.3c.33-.1-.25-.36-.33-.42l-.31-.2v0l1.43-.42s-.62-.27-.75-.33h0l.11,0a.81.81,0,0,0,0-.22q2.05-2.48,4.33-4.8c.71-.68,1.42-1.36,2.15-2l-.5-.43s0,0,0,0l.54-.5c.1-.09.09-.28.05-.5q2.51-.28,5-.58c3.63-.45,7.25-1,10.86-1.51,0,0,0,0,0,0l1.59-.28,1.88-.29q16.84-2.64,33.45-6.53,5.6-1.3,11.17-2.71l1.86-.46q24.23-6.11,47.9-14.24c13.06-4.49,25.84-9.57,38.5-15-.08.17-.18.34-.26.52s-.2.41-.3.62c-.28.61-.55,1.23-.81,1.85a53.94,53.94,0,0,0-3,7.29c-.43,1.22-.85,2.44-1.22,3.68a162.27,162.27,0,0,0-4.47,18.39c-.7,3.77-1.27,7.56-1.75,11.35A248.92,248.92,0,0,0,275,243c-.4,19.2.72,38.7,5.32,57.41a141.59,141.59,0,0,0,6.47,20.62,92.26,92.26,0,0,0,4.31,9.15C283.35,326.4,275.5,322.7,267.54,319.25Z"/><path class="d" d="M401.58,319.24l.07,0c.3-.31.12-.57-.19-.76h0a3.12,3.12,0,0,1,.71,0l-1-.58,0,0a.89.89,0,0,0-.17-.33c0-.37-.08-.73-.28-.85h0a.66.66,0,0,0-.05-.17l.35-.5q-1.75-1-3.51-2.07c-3.38-2-6.79-3.87-10.35-5.54-4.52-2.11-9.17-3.87-13.85-5.59-.12,0-.29.1-.46.3l-.1,0a.63.63,0,0,0-.4,0l-.68-.25a.93.93,0,0,0-1.28.64,1.61,1.61,0,0,0-.67.18c-.41.23-.75,1.34-.13,1.57l.23.08c-.65.26-1.25.55-1.7.75-.17.08-2.61,1.36-1.16,1.9l.72.27c-.49.51-.87,1.18,0,1.5l2,.76a.54.54,0,0,0,.31.29c4.59,1.92,9.16,3.89,13.63,6.1q2.69,1.28,5.27,2.79c1.48.77,3,1.47,4.51,2.11l1.24.73a.88.88,0,0,0,.66,0c.63.24,1.26.47,1.9.69,1.08.42,1.73-.77,2.25-1.56a1,1,0,0,0,.41-.05,1,1,0,0,0,1.37-.14,1.16,1.16,0,0,0,.23-.6.52.52,0,0,0,.23-.07c.22-.15.43-.56.1-.76l-.21-.12.16,0c-.08,0,.84-.07.49-.27Z"/><path class="d" d="M370.35,200.59c-.77.38-.5,1.13-.05,1.72a10.68,10.68,0,0,0,1,1.16c-.27.65-.14,1.56.74,1.27h0c0,.26-.09.47-.17.5l.83-.26c0,.15,0,.23.12.2l1.44-.47h0l1.08-.35.14,0,2.58-.87a81,81,0,0,0,9.37-3.65,83.1,83.1,0,0,0,10.71-6,.16.16,0,0,0,.06-.22l.72-.46c.09-.05-.22-.42-.61-.74.32-.82.21-2-.41-2.31,0-1.33-.43-2.44-1.38-2l-.07,0,0-.17c-.22-.92-.51-2.25-1.66-1.56-.64.44-1.3.84-2,1.25a.86.86,0,0,0-1-.1,81.32,81.32,0,0,1-10.66,5.92c-.78.36-1.56.7-2.35,1-1.87.73-3.77,1.37-5.71,1.92a.91.91,0,0,0-.49.42q-1.44.48-2.9.9C368.91,198.1,369.75,199.64,370.35,200.59Z"/><path class="d" d="M426.45,249.22l-.66,0a.36.36,0,0,0,.1-.12c.09-.21.18-.45-.19-.43l-.41,0a.87.87,0,0,0-.15-.23.33.33,0,0,0-.1-.07,2.18,2.18,0,0,1,.54-.22l-1.22,0-.12,0a1.76,1.76,0,0,0-.35-.19c-.18-.37-.39-.71-.61-.7h-.07c0-.22-.08-.39-.14-.39l-.74,0a.32.32,0,0,0,0-.06c-13.86.44-27.6,1.18-41.43,2.24-.09,0-.14.25-.15.56h-.09c-.56,0-.83.17-.9.73a1.54,1.54,0,0,0,.06.52,4.3,4.3,0,0,0-1.67,1.45,1,1,0,0,0,.14,1l-.54.65c-.14.17-1.71,2.31-.2,2.19l1.84-.13c-.25.79-.48,1.91.69,1.82l2.26-.16a.69.69,0,0,0,.7.44q9.19-.84,18.36-1.66,10-.54,20-.86a2.26,2.26,0,0,0,.86-.82l2.1-.16c.83-.06,1-.94,1-1.72.77-.1.75-.94.66-1.55a.86.86,0,0,0,.37-.6,1.07,1.07,0,0,0-.42-1l.23-.19C426.13,249.76,426.83,249.21,426.45,249.22Z"/><path class="d" d="M398.64,221a4.3,4.3,0,0,0-2.07-.38h0a.57.57,0,0,0-.64-.44.28.28,0,0,0-.25-.12l-.37,0a.19.19,0,0,0-.13-.05l-8.92,1s0,.09,0,.21l-.27,0s0,0,0,0l-.29,0s.1.1.16.24h0a.35.35,0,0,0-.29.43l0,.05-.26,0h.24a.56.56,0,0,0,0,.18c-.15.07-.17.17-.07.24v0l-.19,0c-.25,0-.06.16.19.27l0,.06h0c-.49.06-.32.42,0,.58,0,.49.19,1.08.63,1h.13a.73.73,0,0,0,.37.26c.31.59.7,1.06,1.08,1l8.93-1c.09,0,.13-.14.12-.33l.35,0c.28,0,.34-.25.26-.55l.36,0c.66-.08.07-.79-.17-1l.77-.09c.54-.06.64-.35.27-.74a1.34,1.34,0,0,0-.2-.16l.24,0C399.14,221.72,399,221.23,398.64,221Z"/><path class="d" d="M369.33,335.59l-.29-.25c0-.05,0-.19-.19-.36,0,0,0-.07,0-.11a4.81,4.81,0,0,1,.43.27l-.44-.37a.44.44,0,0,0,.06-.36c.11-.15.19-.28.17-.3L369,334c.08-.06.15-.1.16-.09l-.27-.23s0,0,0,0l-7-6a.15.15,0,0,0-.11,0l-.32-.28c-.18-.16-.46-.05-.64.13h0c-.29-.2-.77-.43-1-.23a.46.46,0,0,0-.2.36.79.79,0,0,0-.4.05c-.31.18-.54.46-.17.77l.38.32c-.9.28-1.68.74-1.26,1.1l.29.24c-.19.25-.22.49,0,.68l7.18,5.81c.17.14.72,0,1.27-.26l.26.21c.31.25.76,0,1-.33a.43.43,0,0,0,.17,0,1,1,0,0,0,.33.09c.14,0,.28-.27.16-.37l-.15-.13a1.81,1.81,0,0,0,.43,0l-.41-.35v0C369,335.51,369.21,335.49,369.33,335.59Z"/><path class="d" d="M378.34,280.54h.09a.5.5,0,0,0-.06.08c-.15.4-.2.7.37.7s.84,0,1.26,0a.56.56,0,0,0,.38.12c.71,0,1.42-.05,2.12,0a28.54,28.54,0,0,1,8.11,1.8,1.26,1.26,0,0,0,.73-.14l.79.3c.25.08.56-.13.75-.41a.39.39,0,0,0,.3-.06l.1,0c.44.15.31-.14.08-.37a.6.6,0,0,0,0-.07c.31.06.78.1.29-.07l-.32-.11,0-.06a.2.2,0,0,0,.17-.09,3.91,3.91,0,0,1,.56.06l-.51-.17s0,0,0,0l.13,0c.24.08.1-.14-.1-.36a1,1,0,0,0,0-.11h0l.48.19a4.27,4.27,0,0,1-.46-.25.46.46,0,0,0,0-.25v0a.61.61,0,0,0,0-.07,2.56,2.56,0,0,1,.26-.4l-.13-.05c.09-.06.16-.1.22-.08l-.33-.14c0-.06.06-.11,0-.13l-.32-.13a.16.16,0,0,0-.12-.18,24.58,24.58,0,0,0-7.88-2h-.77l-.25,0a15.57,15.57,0,0,0-4.3-.06c-.2,0-.33.25-.37.47-.33,0-.76.12-.6.58a.68.68,0,0,0,.42.36,2.19,2.19,0,0,0-1.21.5C378,280,377.69,280.54,378.34,280.54Z"/><path class="d" d="M362.93,171.6l0,0a.61.61,0,0,0,0,.12l-.28.28A1,1,0,0,1,363,172c0,.12.13.17.29.11h0a.51.51,0,0,0,0,.2l-.14.14c-.19.19,0,.22.29.18a.39.39,0,0,0,.19.11c.19.38.64.69,1,.54.43.27.88.39,1.1.17l.12-.12a.9.9,0,0,0,.87-.08l4-4c.08-.08,0-.23-.15-.41l.65-.65c.22-.21,0-.42-.38-.59a.29.29,0,0,0,0-.08l.47-.47c.58-.58-1-.55-1-.55h0c.12-.22,0-.35-.23-.46l.17-.17c.41-.41,0-.7-.4-.68a2.46,2.46,0,0,0-1,.37.57.57,0,0,0-.11-.09c-.19-.09-.42,0-.64.19a.32.32,0,0,0-.49,0l-.55.55a.18.18,0,0,0-.14,0l-4,4s0,.07.14.13l-.29.29.23.15h0a.42.42,0,0,0-.08.19.31.31,0,0,0-.06.26.39.39,0,0,0,.09.28l-.21.21A1.11,1.11,0,0,1,362.93,171.6Z"/></svg>