<svg xmlns="http://www.w3.org/2000/svg" xmlns:xlink="http://www.w3.org/1999/xlink" viewBox="0 0 504 504"><defs><style>.a{fill:none;}.b{fill:#00a6e9;}.c{clip-path:url(#a);}.d{clip-path:url(#b);}.e{clip-path:url(#c);}.f{clip-path:url(#e);}.g{clip-path:url(#g);}.h{clip-path:url(#i);}.i{clip-path:url(#j);}.j{clip-path:url(#k);}.k{clip-path:url(#m);}</style><clipPath id="a"><rect class="a" x="81.11" y="170.28" width="35.9" height="42.24" transform="translate(-1.85 0.97) rotate(-0.56)"/></clipPath><clipPath id="b"><rect class="a" x="81.11" y="170.28" width="35.9" height="42.24" transform="translate(-1.85 0.97) rotate(-0.56)"/></clipPath><clipPath id="c"><rect class="a" x="122.21" y="160.39" width="37.37" height="43.47" transform="translate(-46.02 47.65) rotate(-16.54)"/></clipPath><clipPath id="e"><rect class="a" x="165.51" y="149.63" width="35.22" height="45.12" transform="translate(-28.01 35.79) rotate(-10.37)"/></clipPath><clipPath id="g"><rect class="a" x="206.31" y="141.45" width="35.22" height="45.12" transform="translate(-15.73 23.99) rotate(-5.92)"/></clipPath><clipPath id="i"><rect class="a" x="247.79" y="137.81" width="45.34" height="41.42"/></clipPath><clipPath id="j"><rect class="a" x="247.79" y="137.81" width="45.34" height="41.42"/></clipPath><clipPath id="k"><rect class="a" x="298.84" y="145.81" width="45.28" height="36.58" transform="translate(112.67 458.51) rotate(-81.7)"/></clipPath><clipPath id="m"><rect class="a" x="346.71" y="148.92" width="44.04" height="42.11" transform="translate(155.32 515.39) rotate(-83.04)"/></clipPath></defs><title>support</title><path class="b" d="M85.8,242.23a.52.52,0,0,0-.3,0c-.46-.38-1.43-.78-1.6-.42-.05.09-.09.18-.14.26-.33,0-.58.07-.62.23-.15.67-.28,1.35-.43,2a11.88,11.88,0,0,0-.53,2.54c-3,14.57-5.34,29.29-7.76,44Q72.57,302,70.79,313.12q-.55,3.43-1.09,6.86a6.31,6.31,0,0,0-.2,1.64s0,.06,0,.09a3.21,3.21,0,0,0,0,1.31c0,.06,0,.12.07.18a2,2,0,0,0,0,.39A12.84,12.84,0,0,0,71,326.45l3.19,6.08q5.44,10.3,11,20.54c4.61,8.46,9.29,16.9,14.23,25.18,3.4,5.7,6.79,11.46,11,16.59l0,0,0,.13c-.45.18,0,.92.51,1.33-.08.22,0,.49.24.48,0,.09,0,.16,0,.15l.18,0s.08.07.19,0l.09,0a.21.21,0,0,1-.11.1l.79-.18c0,.05.07.08.1.08,20.19-4.47,40.32-9.2,60.43-14,21.42-5.06,42.82-10.17,64.26-15.13l7.45-1.71v0l.14,0s0,0,.05-.05q9.46-2.14,18.94-4.22a.17.17,0,0,0,.08-.07H264a.39.39,0,0,0,.2-.13.43.43,0,0,0,.14-.09l.12,0c60.58,7.31,120.81,17,181.2,25.67.07,0,.13-.05.18-.16l.36.05c.14,0,.18-.34.14-.8.36-.12.17-.94-.13-1.45.13-.17.17-.39-.11-.43h0a.2.2,0,0,0,0-.11s.06-.06.09-.06l-.15,0a.3.3,0,0,0-.12,0h0c.05,0,.07-.08,0-.09h-.08a.23.23,0,0,1,.1,0l-.28,0a.4.4,0,0,0-.17-.07l-.16,0h0l-.12,0h0l-.11,0s0,0-.06,0c-3.33-16.8-6.32-33.66-9.33-50.51q-2-11.21-4-22.42-.77-4.37-1.54-8.73c-.11-.65-.32-1.39-.44-2.1,0-.14,0-.28,0-.41.08-.33.22-.66.33-1,6.62-20.78,13.19-41.59,19.29-62.53,0,0,0,0-.09,0,.25-.88.52-1.75.77-2.63,0,0,0,0,0-.08l.06-.2c.25-.88.51-1.75.75-2.63a.22.22,0,0,0,0,0v0a.39.39,0,0,0,0-.09l0-.07a.39.39,0,0,0,0-.1.15.15,0,0,0,0,0,.4.4,0,0,0,0,0h0a.37.37,0,0,0,0-.23.23.23,0,0,0,0-.11v0s0-.06,0-.07l0-.11-.1.06,0-.06,0-.11c0-.09-.08-.07-.21,0h0l0-.07c.08-.3-.17-.36-.41-.29a1,1,0,0,0-.42-.14,4.4,4.4,0,0,0-.44-.26.27.27,0,0,0-.24-.33h0c.06-.09.09-.17,0-.18l-.16,0-.07,0c0-.06,0-.11-.1-.13h0a.2.2,0,0,1,.12-.05l-.41-.05,0,0-.15,0H448s-.07-.08-.09-.09q-33.17-4.42-66.37-8.57l-5.68-.72q-12.7-1.59-25.4-3.15-20.21-2.49-40.42-4.89l0,0q-19.6-2.31-39.21-4.56s0,.06.07.13l-19.76-2.24s0,.05.05.13l-.15,0c-.11,0-.08.1,0,.24l-.05,0-.16,0c-.12,0-.18,0-.2.08-.17-.68-.47-1.3-.74-1.22-25.81,7.91-51.72,15.22-78,21.38-25.93,6.08-52,11-78.3,15.33,0,0-.06-.05-.13,0a.52.52,0,0,0-.3,0c-.46-.38-1.43-.78-1.6-.42-.05.09-.09.18-.14.26-.33,0-.58.07-.62.23-.15.67-.28,1.35-.43,2a11.87,11.87,0,0,0-.53,2.53c-3,14.57-5.34,29.3-7.76,44q-1.84,11.16-3.63,22.33-.55,3.43-1.09,6.86a6.32,6.32,0,0,0-.2,1.64s0,.06,0,.09a3.22,3.22,0,0,0,0,1.31c0,.06,0,.12.07.18a2,2,0,0,0,0,.39,12.87,12.87,0,0,0,1.48,2.84L81.88,330q5.44,10.3,11,20.54c4.61,8.46,9.29,16.9,14.23,25.18,3.36,5.64,6.72,11.33,10.89,16.42l-4.46,1s0,0,0-.06.06-.09,0-.11a121,121,0,0,1-9.92-14.76c-4.5-7.48-8.78-15.09-13-22.74q-5.5-10-10.85-20.06-2.34-4.39-4.65-8.8c-.71-1.35-1.55-2.69-2.14-4.1a6,6,0,0,1-.21-.57c.24-1.52.48-3,.72-4.56q1.45-9.12,2.94-18.23c2.71-16.59,5.43-33.19,8.65-49.69,0,0,0,0,0-.05.19-1,.38-1.94.58-2.91h0c.22-1,.43-2,.65-3a.25.25,0,0,0,0-.13.38.38,0,0,0,0-.12.37.37,0,0,0,0-.19.34.34,0,0,0-.06-.24h0l0-.15,0,.06a.19.19,0,0,0-.06-.14l0-.12a.25.25,0,0,1-.07.09.22.22,0,0,0-.12,0,.31.31,0,0,0-.05-.11v0C86,242.17,85.9,242.17,85.8,242.23Zm355.57,8.58c-2.17,7.11-4.4,14.21-6.62,21.31q-3.1,9.93-6.24,19.86l-1.46,4.6a8.87,8.87,0,0,0-.29.87,4,4,0,0,0-.28,1.18,3.26,3.26,0,0,0,0,.46,3.44,3.44,0,0,0-.2.77,4.39,4.39,0,0,0,.14,1.19c.07.64.28,1.32.39,1.92q.54,3.1,1.09,6.19,2.26,12.91,4.56,25.81c2.87,16.1,5.73,32.2,8.86,48.25l-5.29-.77c-3.48-17.62-6.61-35.31-9.77-53q-1.93-10.81-3.83-21.63l-1.24-7c-.09-.49-.29-1.25-.43-2,0-.18,0-.36-.05-.53.08-.33.22-.66.33-1,6.58-20.66,13.29-41.33,19.12-62.21h0c.28-1,.57-1.94.85-2.92,0,0,0,0,0-.08l.06-.22.43-1.5,5.66.75q-2.76,9.83-5.76,19.6ZM121.13,391.36a.51.51,0,0,0,0-.14.32.32,0,0,0,.09-.2.28.28,0,0,0,0-.35.18.18,0,0,0,0-.17s.06-.09,0-.11a120.76,120.76,0,0,1-9.92-14.76c-4.5-7.48-8.78-15.09-13-22.74q-5.5-10-10.85-20.06-2.34-4.39-4.65-8.8c-.71-1.35-1.55-2.69-2.14-4.1a6,6,0,0,1-.21-.57l.72-4.56q1.45-9.12,2.94-18.24c2.71-16.59,5.44-33.19,8.65-49.69,0,0,0,0,0-.05.19-1,.38-1.94.58-2.91h0l.16-.75,7.69-1.3,1.87-.31.85-.15,6.09-1.05s0,0,0,0l.54-.1c0,.1-.07.19-.11.2l.78-.14,0,0q17.72-3.08,35.33-6.75,10.59-2.21,21.13-4.64l4.48-1q4.55-1.06,9.08-2.17l.41-.1h0c17.26-4.22,34.38-8.91,51.47-13.83,0,0,0-.12,0-.26q8.56-2.51,17.1-5.12a.18.18,0,0,0,.08-.07h0c0,.35,0,.62.15.64l1.25.14a.31.31,0,0,0,.14.06q93.29,10.37,186.34,22.72-2.73,9.73-5.7,19.39l-.68,2.19c-2,6.45-4,12.89-6,19.32q-3.1,9.93-6.24,19.86l-1.45,4.59a9,9,0,0,0-.29.89,3.93,3.93,0,0,0-.28,1.18,3.31,3.31,0,0,0,0,.46,3.45,3.45,0,0,0-.2.78,4.39,4.39,0,0,0,.14,1.19c.07.64.28,1.31.39,1.91q.54,3.1,1.08,6.19,2.26,12.91,4.56,25.81c2.87,16.09,5.73,32.19,8.86,48.24-50.83-7.38-101.57-15.34-152.51-21.9,0,0,.07.07.11.14l-8.56-1.07L262.25,358l-.7-.09s-.05,0,0,.1c-.18,0-.24.1-.22.23h0a.42.42,0,0,0-.43.52l-.18.2c-46.61,10.35-92.93,22-139.51,32.45Z"/><path class="b" d="M187.88,345.22l0-.06a.17.17,0,0,0,0-.21c-.24-.33-.45-.67-.69-1l-.19-.28a123.21,123.21,0,0,1-8.17-22c-.16-1-.31-2.1-.43-3.17-.33-.78-.62-1.56-.92-2.34l-.1-.44v0q-.53-2.58-1-5.18-.24-1.58-.43-3.18c-.13-.8-.24-1.6-.36-2.41q-.59-4.82-.8-9.65-.07-2.14-.07-4.29c0-1,0-1.93,0-2.89q.15-2.07.32-4.13.11-1.62.26-3.23s0,0,0,0l0-.2c.09,0,.16.06.16.08l0-.25c.06,0,.11,0,.11.05l.81-8.87a68.79,68.79,0,0,1,2.81-11.39s-.06-.06-.15-.11a58.37,58.37,0,0,1,2.32-5.56.28.28,0,0,0,0-.16.44.44,0,0,0,0-.15l.21-.46-.06,0,.07-.16s-.09.07-.18.09a.25.25,0,0,0,0-.08l.06-.13c0-.07-.09,0-.24,0h0v0l0-.08c.11-.26-.1-.27-.32-.2a.59.59,0,0,0-.28,0c-.36-.4-1-.7-1.22-.36l-.16.2c-.39-.06-.71,0-.8.17l-1.33,3.08a17.38,17.38,0,0,0-.9,2.08l-.17.39a51.46,51.46,0,0,0-2.25,8.56v0l0,.27,0,.17c-.16,0-.27.06-.28.15l-1.26,8.61c-.14,1.15-.25,2.3-.35,3.45-.23,2.21-.41,4.42-.49,6.65,0,.07,0,.14,0,.21q-.09,1.15-.17,2.3c-.46-.24-.87-.33-.88,0l0,.51c-.16,0-.27,0-.27.13,0,.39,0,.79-.06,1.18a.34.34,0,0,0-.15.24,107.7,107.7,0,0,0,0,14.41c.22,2.51.58,5,1,7.47A60.23,60.23,0,0,0,174,329.25c.54,1.51,1.32,3.33,2,4.78a32.15,32.15,0,0,0,3.81,6.36,27.57,27.57,0,0,0,4.19,5l.1.2a.37.37,0,0,0,.26.14l.25.24a1,1,0,0,0,.58.18l.27.29c.17.19.68.13,1.06-.05l.11.11c.21.22.4,0,.44-.18a.2.2,0,0,0,.31-.1l.14.09-.13-.19a.29.29,0,0,0,.07-.08l.24.15-.18-.27h0l0-.06.3.16-.19-.29a.2.2,0,0,0,.11-.26c.08-.06.14-.1.14-.11l0-.05A.09.09,0,0,0,187.88,345.22Z"/><path class="b" d="M250,245.44a.59.59,0,0,0,.31.45.88.88,0,0,0,.65-.13A34.43,34.43,0,0,1,252.9,253a28,28,0,0,1,.58,3.47,29.06,29.06,0,0,1,.06,3.42.36.36,0,0,0,.09.2c0,.17,0,.33,0,.5s.22.37.46.39c.2.29.64.32.65-.09.14.13.3.25.3.37,0-.09,0-.18,0-.27a.17.17,0,0,0,.16-.07c.07.06.12.12.12.18s0-.17,0-.26c.08.08.14.09.14-.06s0,0,0,0a.48.48,0,0,1,0,.09c0-.17,0-.34,0-.51l.11-.14c.1,0,.18-.08.18-.12a30.11,30.11,0,0,0-.17-5.24h0c-.06-.69-.15-1.37-.25-2,.1.07.2.09.24,0l.09-.19a.3.3,0,0,0,.07-.1s0,0,.05,0c.07-.23.14-.45.22-.67a10.91,10.91,0,0,1,1.27-2.05l.19-.16c.13-.18.26-.34.4-.5A8.7,8.7,0,0,1,262,247l.23,0a.8.8,0,0,0,.87-.21c.2.19.45.34.37.1l-.05-.15.11,0c.15.12.27.18.22,0l-.06-.18c.12.06.24.05.26-.07.06.06.08,0,0-.17l0-.13v0a.52.52,0,0,0,.08-.19l.05-.11c.1-.06.17-.11.16-.15l0-.1,0,0-1.77-5.2s0,0-.09,0l-.07-.19s-.1,0-.19,0l-.05-.15c-.09-.25-.35-.23-.55-.11h0a1.73,1.73,0,0,0-.25-.18c.07,0,0,0-.06,0l-.16-.09v0c.13-.14.16-.26-.14-.16h0l-.06,0c.09-.23,0-.46-.32-.35l-.15,0a.48.48,0,0,0-.22,0,1.48,1.48,0,0,0-1-.43,13.47,13.47,0,0,0-5.81,2.4,14.3,14.3,0,0,0-3.63,2.84c-.29.25-.07.54.32.76l-.31.28C249.24,245.18,249.54,245.37,250,245.44Zm3.67-1.08,4.4-2.35c.47-.2,1-.36,1.45-.53l1.31,3.21a7.42,7.42,0,0,0-3.78,1.51,9.27,9.27,0,0,0-.83.59,8.24,8.24,0,0,0-1.69,1.8l-.06-.23c-.31-1.18-.65-2.36-1.07-3.52,0,0,0,0-.09,0l-.06-.18Z"/><path class="b" d="M255.69,232.34l.2.4c0,.07-.07.13,0,.18l.69,1.38s.08,0,.16,0l0,0,0,.09s.1.05.19,0a.24.24,0,0,0,.29.12.29.29,0,0,0,.19,0c.09.17.16.28,0,0h0l.13,0h0l.15.29a.54.54,0,0,1,0-.28h.06l.06.12c.08.17.12,0,.13-.2l.13-.06c.27.12.64,0,.62-.34.42-.23.78-.63.64-.94l-.33-.69a1.07,1.07,0,0,0,.16-.73l-.69-1.39c-.1-.21-.3-.18-.52,0l-.19-.37c-.18-.36-.42-.1-.59.17l-.26-.51c-.25-.49-.55.4-.58.47a1.54,1.54,0,0,0-.06.19c-.14,0-.28.16-.38.31a.42.42,0,0,0,0,.08.38.38,0,0,0-.34.1c-.24.2,0,.83.15,1.17A.45.45,0,0,0,255.69,232.34Z"/><path class="b" d="M266.78,239.3l-.06.05c-.38.32,0,.51.24.61a2.55,2.55,0,0,0,1.37-.39.39.39,0,0,0,.64.09l.22-.19a.24.24,0,0,0,.17-.06l.05,0c.08,0,.15.07.17.05l2.75-2.46-.16-.14a.28.28,0,0,0,0,0l.25-.22c.05,0,0-.15,0-.26a.25.25,0,0,0,0-.19.74.74,0,0,0,0-.21l.17-.15c.11-.1,0-.06-.17,0h0l.21-.19-.22.05a.07.07,0,0,0,0-.05l.09-.08c.14-.12,0-.12-.19-.08l-.06-.06c.15-.22-.13-.41-.39-.34a.41.41,0,0,0-.32-.08c-.35-.31-.85-.51-1.07-.36l-.45.32a.85.85,0,0,0-.57.06l-2.83,2.38c-.28.24,0,.55.52.81l-.78.69C265.93,239.15,266.43,239.26,266.78,239.3Z"/><path class="b" d="M255,350l0,0,.26-.05s-.11,0-.18-.08a.35.35,0,0,0,0-.15.69.69,0,0,0-.06-.84c0-.58-.16-1.17-.44-1.11l-.12,0c-.16-.43-.37-.74-.58-.69q-13.44,2.62-26.76,5.82-13.35,3-26.56,6.59a.33.33,0,0,0-.2.19l-1.11.29c-.23.06,0,.77.34,1.4-.29.26.13.86.53,1.08h0c-.08.2-.1.41.07.37l.09,0a.28.28,0,0,0,.18,0v0c0,.08,0,.13.06.12l.66-.17h.08l.37-.1h0l13.64-3.5,3.2-.77c0,.08,0,.14-.06.14l17.86-4.15s0-.06.06-.13q8.88-2,17.81-3.73a.19.19,0,0,0,.09-.06h.06a.38.38,0,0,0,.19-.12.41.41,0,0,0,.16-.1l.11,0a.26.26,0,0,0,.16-.09l.12,0s0-.06-.07-.11A.19.19,0,0,0,255,350Z"/><path class="b" d="M327.93,353h-.1c.11-.12.21-.25.28-.24l-.27,0h0c.08-.08.11-.15,0-.15h-.13s0,0-.08-.06l.11-.11-.55-.05a.46.46,0,0,0-.12-.12c0-.08,0-.13,0-.14-6.41-.64-12.83-1.23-19.24-1.84l-.05,0,0,0-.37,0a.14.14,0,0,0,0,0v0q-19.23-1.82-38.49-3.48a.37.37,0,0,1,0,.12h0s0,0,0,0h-.09a.13.13,0,0,0-.1,0l-.19,0s0,.09,0,.21a.35.35,0,0,0-.09.15.59.59,0,0,0-.49.65c-.39.42-.68,1-.2,1l.27,0c-.19.6-.25,1.17,0,1.19q29.07,2.47,58.09,5.36c.23,0,.47-.22.66-.56l.68,0c.28,0,.42-.42.41-.88a.62.62,0,0,0,.13-.71C328.15,353.19,328.19,353,327.93,353Z"/><path class="b" d="M198.12,237.14c-.27.52-.13,1.36.57,1.31a2.37,2.37,0,0,0,0,.5l.7-.21c0,.1.08.17.21.13,1-.31,2-.6,3-.9.07.06.14.1.19.08l9.62-2.82,2.18-.55c0,.28,0,.5,0,.51l14.65-3.45s0-.22,0-.48c4.75-1,9.52-1.93,14.32-2.68a.42.42,0,0,0,.23-.19l.14,0a.63.63,0,0,0,.28-.21.88.88,0,0,0,.22-.19.92.92,0,0,0,.57-.35l.23-.12h0l.32-.08.49-.08c.06,0-.17-.17-.46-.34l1-.18c-.14,0-.34-.15-.57-.35a1.17,1.17,0,0,0,0-.26,1.13,1.13,0,0,0-.29-1.5c-.07-.73-.41-1.35-1-1.26h-.07c-.16-.78-.51-2.82-1.56-2.63a188.28,188.28,0,0,0-21.92,4.32q-10.87,2.41-21.47,5.84a.78.78,0,0,0-.49.47c-.83.25-1.67.48-2.5.73-.47.13,0,1.53.75,2.84C196.8,235.46,197.35,236.46,198.12,237.14Z"/><path class="b" d="M180,244h0a.36.36,0,0,0,0,.07c-.2.4-.29.79,0,.72l.41-.11a.34.34,0,0,0,.27.06l.15,0a.31.31,0,0,0,.07.06c-.13.22-.2.39-.13.37l1.08-.28h0l.08,0a1.88,1.88,0,0,0,.63,0,.57.57,0,0,0,.33.07l.88-.24a.25.25,0,0,0,.15,0l8-2.19c.11,0,.07-.26,0-.52l.13,0c.92-.25.49-1.39-.2-1.56.39-1.09.45-2.25-.36-2.09l0-.2c.06-.71.18-1.9-.87-1.61l-.56.15c-.15-.42-.37-.7-.71-.61l-7.91,2.13c-.46.12-.63.59-.68,1.13l-1.58.58c-.59.21-.31,1.4.28,2.42C179.05,242.77,179.46,243.63,180,244Z"/><path class="b" d="M281.47,228l1.39.17c-.12.68-.08,1.18.19,1.22l26,3.06,5.47.76q6.4,1,12.84,1.59c1.53.13,3.05.24,4.58.34l8.48,1a1.22,1.22,0,0,0,1-.58l1.79,0c.52,0,.81-.74.87-1.63a1.29,1.29,0,0,0,.54-1.27.91.91,0,0,0-.14-1.24c.31-.26.54-.54.39-.56l-.52-.06c.18-.18.22-.34-.1-.37l-.41,0a.32.32,0,0,0-.16-.12,2.28,2.28,0,0,1,.47-.24l-1.38-.16c-.15-.26-.32-.48-.43-.49h-.1c0-.17-.07-.3-.14-.31q-28.71-3.34-57.41-6.74l0,0-.59-.07s0,.21,0,.48l-.21,0c-.54-.06-.67.45-.57.91-.75.45-1.5,1.39-1.16,1.89C281.21,226.7,280.6,227.92,281.47,228Z"/><path class="b" d="M258.13,224.81l1.34.17c-.22.8-.25,1.44,0,1.47l13.06,1.46c.59.07,1.22-.62,1.72-1.5l1.07.13c.5.06.83-.46,1-1.09a.73.73,0,0,0,.44-.51,1.33,1.33,0,0,0,0-.57.5.5,0,0,0,.17-.12c.13-.17.15-.77-.17-.81l-.44-.05c.31-.21.61-.49.9-.49-.31,0-.63.28-.93.49h0a.41.41,0,0,0,.16-.15.57.57,0,0,0,0-.43c.29-.13.46-.26.18-.29l-.48-.06a.55.55,0,0,0,0-.07.49.49,0,0,0-.17-.17,4.57,4.57,0,0,1,.55,0l-.72-.09-.28-.11a.86.86,0,0,0-.3-.23c-.08-.33-.2-.63-.37-.65l-.15,0c0-.15-.07-.25-.14-.26l-13.08-1.46v0l-.64-.07a1.67,1.67,0,0,0-.08.47h-.13c-.59-.07-.78.52-.7,1-.8.46-1.6,1.36-1.21,1.82l-.44.48C258,223.41,257,224.67,258.13,224.81Z"/><path class="b" d="M224.07,285.59c-1.65,1.9-3.29,3.8-5,5.69-.1.11-.07.28,0,.47h0c-.63.09-.32.91.08,1.27-.1.18-.11.37,0,.44,0,.12.12.22.28.28,0,0,0,.09.06.08h.13s0,.07,0,.07h0l0,.06s0,.06-.07.07h.12a.7.7,0,0,0,.73.05c.12.17.28.29.4.15l.1-.12c.06,0,.12.06.15,0l.1-.12.15.1.18-.21q6.57-.42,13.14-.78v0c15-.71,30-1.19,45.05-1.44,0,0,0-.09,0-.22a.37.37,0,0,0,.23-.11.34.34,0,0,0,.18-.11l.07,0h0l.16,0h.28a.16.16,0,0,1-.1-.06c.06,0,0-.1,0-.18l.05-.05h.2c.06,0,0-.12-.15-.24s0,0,0,0a.86.86,0,0,0-.06-1c0-.56-.15-1.1-.46-1.11h-.16c-.15-.44-.36-.77-.61-.76q-15,.14-29.91.74-12.35.26-24.63,1.63l2.73-3.14,19.15-22s-.09,0-.18-.06l4.39-5a.09.09,0,0,0,0-.08l.18-.2a.46.46,0,0,0,0-.3h0l.34-.4a.57.57,0,0,1-.19.13l.17-.2s0,0-.09,0a0,0,0,0,0,0,0l.12-.13h-.21l0,0,.05-.06c.15-.17,0-.18-.27-.14l.06-.07c.21-.25-.12-.34-.41-.29a.46.46,0,0,0-.25-.05c-.33-.33-.87-.56-1.14-.33a38,38,0,0,0-7.94,7.66q-3.79,4.42-7.56,8.86-3.6,4.22-7.21,8.43c-.07-.18-.16-.29-.29-.28h-.23c-.14-.38-.32-.66-.54-.64q-9.74.28-19.39,1.51-9.69.92-19.25,2.79c-.12,0-.2.12-.26.28l-1.15.19c-.25,0,0,1,.41,1.69-.24.26.12.85.5,1a.5.5,0,0,0,0,.1c-.06.16-.08.29,0,.27l.11,0a.3.3,0,0,0,.17,0,.07.07,0,0,0,0,.05c0,.07,0,.11,0,.1l.63-.11h.18c.87-.17,1.75-.32,2.62-.48l6.6-1.08q4.66-.66,9.34-1.09Q215.07,285.9,224.07,285.59Z"/><path class="b" d="M277.18,278.84l-1.38-1.48c-.24-.29-.49-.56-.73-.85l-.1-.11-.06-.07c-.4-.41-.78-.84-1.17-1.26q-3.39-3.85-6.6-7.83-3.62-4.52-7-9.22h0l-.15-.2a.2.2,0,0,0-.13-.07l-.18-.24a.41.41,0,0,0-.51-.1.45.45,0,0,0-.25-.05c-.3-.27-.66-.53-.89-.51s-.63.21-.39.53h0c-.25,0-1.1-.12-.77.33l.57.76c-.39.14-.62.36-.42.64a136.86,136.86,0,0,0,14.45,18.64,215.61,215.61,0,0,0,15.9,16q-26.35.75-52.67,1.8a.51.51,0,0,0,0,.2q-7.16.3-14.32.62l-4.62.2s0,.06.07.14c-.13,0-.17.12-.14.24h0a.35.35,0,0,0-.35.41c-.37.3-.58,1,0,1.1-.3.79-.42,1.69.14,1.66l6-.28,0,.14c-.52.15-.94.38-.93.67,0,3.64.14,7.25.29,10.84,0,.09,0,.19,0,.28q.13,3.2.33,6.41c0,.48.06,1,.08,1.43.05.77.1,1.55.15,2.32,0,.14,0,.28,0,.41.14,1.93.29,3.86.46,5.81a.21.21,0,0,0,.1.15c0,.15,0,.3,0,.46-1.1.21-2.16.51-3.69.95a.43.43,0,0,0-.2.26l-.35.08c-.25.06-.39.14-.36.43l.08.85a.3.3,0,0,0-.07.23l.79,7.43.24,2.55s0,.06,0,.08l.08.76c0,.26.31.38.62.39.23.31.77.29.79-.11.13.12.27.24.28.36l.18-.32a.32.32,0,0,1,.08.17c0-.09,0-.17,0-.26l0-.08c.09.11.16.16.16,0s0,0,0,0,0-.16,0-.24l.23-.41c.05,0,.09-.06.09-.09v-.06l5.82-10.25,3.13.16a20.32,20.32,0,0,0,2.56,0,30.26,30.26,0,0,0,5.21-.59,39.24,39.24,0,0,0,1.14,11c0,.23.35.34.72.35.19.43.88.32,1.2,0,.17.17.37.28.35,0l0-.16a.35.35,0,0,0,.14,0c.09.07.17.12.17.09s0-.17,0-.26a.27.27,0,0,0,0,0c.13.11.23.15.22,0h0l0,.07,0-.6,0-.06c.1-.06.17-.12.17-.18s0-.13,0-.2a.51.51,0,0,0,.37.14c-.05.14,0,.26.28.24l.46,0a.2.2,0,0,0,.13.08q12.39-1.08,24.76-2.3a.11.11,0,0,0,.11-.12H268c.08,0,.06-.08,0-.17h.06s0,0,0,0h0s0,0,0,0v0a.47.47,0,0,0,0-.09v0a.22.22,0,0,0,.05-.18.44.44,0,0,0,.05-.13s0,0,.06,0h-.05c.07-.05.09-.09,0-.08h0l0,0h0c.11-.05.19-.1.09-.09h-.11l0,0c.1-.1.13-.19,0-.17h-.08c0-.16-.06-.33-.21-.31l-.24,0h-.24a1.51,1.51,0,0,0-.78-.45q-12.38.8-24.68,2.39c-.18,0-.15.16,0,.34l-.26,0h0c-.15-1.41-.27-2.83-.36-4.25h.11l0,0a94,94,0,0,0,12.89-.26,111.7,111.7,0,0,0,13.22-1.4.2.2,0,0,0,.18-.14l.31,0s-.06,0-.1-.06a.26.26,0,0,0,0-.15h0l.14,0s0-.08,0-.17v0a.2.2,0,0,0,0-.2.3.3,0,0,0,0-.14h0c.08-.07.11-.13,0-.12h-.07v0c.12-.07.2-.13.08-.12H268c.1-.12.13-.23,0-.21h-.06a.37.37,0,0,0-.36-.32l-.29,0h-.12a1.69,1.69,0,0,0-.89-.5,126,126,0,0,1-13.08,1.34q-6,.4-12,.84-.09-1.79-.11-3.59,8.67.05,17.33-.32a.59.59,0,0,0,1,0h0l.25.24,0-.25h.24a.25.25,0,0,1,.06.11V330c3.42-.15,6.84-.34,10.26-.59a.33.33,0,0,0,.28-.18h.11l.08,0h.13s0,0-.08-.1a.3.3,0,0,0,0-.12l.06,0h.1s0-.07,0-.15v0a.19.19,0,0,0,0-.21.4.4,0,0,0,0-.13c.08-.08.12-.15,0-.14h0c.11-.07.18-.14.06-.13h-.09c.08-.11.08-.22-.08-.21h-.06a.41.41,0,0,0-.37-.32h-.45a1.7,1.7,0,0,0-.84-.48c-2.95.15-5.89.32-8.84.47q-.53-6.54-1.2-13.07h0q-.73-7.07-1.62-14.13s0,.05-.08.09l0-.33s0,.06-.12.1a.15.15,0,0,0-.09,0l0-.29-.16.08a.33.33,0,0,0-.29-.05c-.16-.39-.85-.52-1-.12-.38,0-.71.06-.69.44,0,.18,0,.35,0,.53a.46.46,0,0,0-.27.39,153.93,153.93,0,0,0,2.73,26.58l-3.73.2v-.2a1.09,1.09,0,0,0,.11-.17c.09,0,.16-.09.16-.14q-1-13.45-1.16-26.93s0,.07-.11.11q0-.18,0-.36s-.05.05-.12.09a.17.17,0,0,0-.12,0c0-.08,0-.16,0-.24s-.09-.07-.2,0a.44.44,0,0,0-.34,0c-.3-.37-1-.61-1.07-.15-.39,0-.72.06-.71.44,0,.21,0,.42,0,.63a.46.46,0,0,0-.25.36A141.67,141.67,0,0,0,251.29,328c-3.39.18-6.79.35-10.18.54,0-.15,0-.28-.22-.26-.06-.27-.29-.53-.56-.47l-.26.07a.57.57,0,0,0-.34-.08h0c-.5-.4-1.07-.73-1.34-.67a38.54,38.54,0,0,1-5.33,1l-.81.11v-.11c.12.07.22.07.23-.07h0a.29.29,0,0,0,0,0s.07,0,.07,0c0-.18-.05-.37-.08-.56l0-.11c.07-.06.13-.13.12-.19-.36-2.13-.69-4.27-1-6.41l0-.18-1.86-15.73q-.24-2.66-.44-5.32l7.06-.21a.46.46,0,0,0,0,.16c0,.09,0,.19,0,.28a.52.52,0,0,0-.33.44,143.86,143.86,0,0,0,1.6,22.35c0,.24.27.35.56.37.24.36.89.27.86-.18v-.08h.13c.18.21.41.33.39,0v0l0,0h0c.09.11.17.15.16,0v-.07a.43.43,0,0,1,.06.12l0-.58a.49.49,0,0,0,.09-.23q-.39-5.58-.77-11.16a.23.23,0,0,1,.11-.06.25.25,0,0,0-.11.05q-.39-5.62-.78-11.24s0,0,0,0v-.1c0-.11-.11-.07-.23,0v-.13h0l3.49-.11s0,0,0,0c0,.28,0,.53,0,.79-.43.13-.75.33-.74.57a69.69,69.69,0,0,0,1.79,18.8c0,.23.3.33.62.35.21.41.9.29,1.11,0,.15.14.3.25.3.2s0-.17,0-.25a.25.25,0,0,0,.19-.06c.07.05.12.11.12.16,0-.11,0-.22,0-.33h0c.12.11.22.15.2,0v0l.06.09c0-.2,0-.41,0-.61l0,0c.1-.06.17-.12.16-.18-.18-2-.33-4-.45-6l-.36-8q-.06-2.5-.06-5s0,.09-.1.13v-.36s0,.07-.09.1a.15.15,0,0,0-.15,0c0-.08,0-.16,0-.25s-.06,0-.15,0a.38.38,0,0,0-.35,0l-.08-.08,18.64-.62c.38,7.18.74,14.36,1.14,21.54,0,1.15,0,2.3,0,3.45a.55.55,0,0,0,.19.37c0,.35,0,.71.06,1.06s.39.37.83.39c.18.42.89.32,1.18,0,.15.17.32.29.32.16s0-.15,0-.22l.11,0c.1.08.18.13.18.09s0-.16,0-.24c.09.08.16.09.18,0s0,0,0-.06,0-.22,0-.33l0-.09a.53.53,0,0,0,.12-.22c.06,0,.11-.09.11-.13s0-.09,0-.13h0a138.75,138.75,0,0,0-.18-14c-.11-3.9-.41-7.8-.86-11.68l2.42-.08c0,1.08.06,2.16.1,3.24a193.67,193.67,0,0,0,1.63,22.64.51.51,0,0,0,.2.29c0,.17,0,.33.06.5s.32.41.62.4c.2.24.54.3.52-.11v-.09h0l.16-.05c.15.21.38.39.37.12v0l.06-.06c.07.12.12.17.13.07h0s0,0,0,0h0v-.3l.05-.13a.94.94,0,0,0,.16-.22c.07,0,.12-.06.12-.09q-.62-13.12-1.22-26.23l6.14-.2-.05.27c-.51.15-.92.38-.92.67,0,2.7,0,5.38,0,8,0,.94,0,1.89.06,2.83,0,.31,0,.61,0,.92,0,2.14.07,4.28.21,6.42.13,3.09.29,6.19.5,9.31a.21.21,0,0,0,.12.16c0,.14,0,.27,0,.41-1.13.19-2.21.47-3.77.88a.43.43,0,0,0-.21.27l-.34.07c-.26.06-.38.15-.36.43l.06.87a.32.32,0,0,0-.06.21l.51,5.91.3,4.08a.32.32,0,0,0,.06.13l.06.72c0,.26.3.38.61.39.23.32.77.29.79-.11.13.12.27.24.28.36l.23-.38c.07,0,.13.09.13.14l0-.17c.06.05.1.05.1,0s0,0,0,0,0-.15,0-.22l.27-.46a.08.08,0,0,0,0-.06h0l6-10.08c.57,0,1.14,0,1.72.07l2.91.21c.85,0,1.7-.08,2.54-.16a38.79,38.79,0,0,0,4.67-.59l.25,8.09c0,.25.34.37.73.38.2.39.9.27,1-.07l.26.25c0-.08,0-.17,0-.25a.22.22,0,0,0,.2-.07.28.28,0,0,1,.1.17v-.32c.1.12.19.16.18,0h0l0,.06v-.53a1.1,1.1,0,0,0,.1-.16c.08,0,.14-.09.14-.14l-.24-8.43h0l0-.87s0,0-.05.07a.38.38,0,0,0,0-.06c.1-.11.13-.21,0-.17l-.08,0h0c.16-.12.27-.22.1-.19h-.08c.06-.16,0-.3-.22-.29-.06-.27-.29-.53-.56-.47l-.28.06a.56.56,0,0,0-.31-.07h0a2.4,2.4,0,0,0-1.33-.67,38.3,38.3,0,0,1-5.35.89l-.75.09,0-.14h0c.14.08.25.07.24-.12,0,0,.07.05.07,0,0-.19,0-.39-.08-.58l0-.08c.07-.06.13-.13.12-.19-.26-1.75-.49-3.5-.71-5.25l-1.82-18.68c-.09-1.33-.17-2.65-.25-4l6.27-.19c.28,0,.41-.59.41-1.24.29-.07.3-.55.16-1a.53.53,0,0,0-.1-.7h0l-.06-.05a1.27,1.27,0,0,0,.14-.17l.05,0,0,0c0-.05,0-.09,0-.09h-.09l-.09-.08c0-.06,0-.11,0-.14v-.07h0a.34.34,0,0,0,.06-.19l0-.06c.12-.09.19-.18.11-.26h0c.06-.05.08-.11,0-.16l-.14-.13a.26.26,0,0,0-.08-.15l-.36-.33,0-.06-1.14-1c-2.36-2.18-4.69-4.4-7-6.68l-.36-.37c-.6-.61-1.19-1.23-1.78-1.84l-.62-.67c7.57.45,15.16.64,22.74.73h0q18,.28,36.08.36s.06,0,.09-.09h3.29c.21,1.9.38,3.81.48,5.72,0,.27,0,.54,0,.81s0,.56.07.84,0,.31,0,.47a159.13,159.13,0,0,1-.4,18.18c-.06.76-.15,1.51-.22,2.27,0,.27-.07.55-.12.82,0,.55-.11,1.1-.18,1.65-.23,1.77-.5,3.52-.82,5.27-.13.68-.28,1.35-.43,2s-.27,1.44-.41,2.15c-.6,2.75-1.27,5.49-2,8.22-.27.94-.55,1.89-.86,2.82a.32.32,0,0,0,0,.24l-.31,1.16c0,.15.31.28.78.34-.13.53.69.49,1.27.27.17.2.5.27.61,0a.18.18,0,0,0,.25-.13c.08.06.14.1.14.12l.12-.44c.09.07.17.13.16.17.79-2.89,1.58-5.77,2.29-8.67h0l.07-.32c.71-2.89,1.34-5.8,1.82-8.75s.86-6.09,1.12-9.16c0-.24.05-.48.07-.72,0-.43.06-.85.09-1.28l0-.3q.11-1.56.18-3.12a113,113,0,0,0,.1-13.68c-.1-1.73-.36-5.11-.58-7.53,0,0,0,0,0-.09l0-.42c.16-.37.2-.85-.08-1a2.28,2.28,0,0,0-.18-1.33c-.4-3.41-1-6.76-1.71-10.07-.43-2.14-.91-4.27-1.46-6.39-.83-3.21-1.49-5.46-2.18-7.54l-.41-1.42s0-.06-.09-.07c-.82-2.34-1.74-4.69-3.06-8.25h0l-.1-.27-.14,0-.11-.29c0-.06-.16,0-.31.05l-.14,0c-.3-.36-1.16-.64-1.13-.11-.39-.05-.69,0-.59.34l.17.55c-.14.09-.22.2-.18.34.63,2.35,1.3,4.7,2,7l.47,2.32,2.28,7.64c.41,1.6.8,3.2,1.16,4.82.81,3.65,1.49,7.35,2,11.06q-12.69,0-25.38-.13c-12.75-.12-25.55-.1-38.27-1-.13,0-.22.14-.28.37l-.37,0s-.06,0-.09.07l-.43,0Zm-35,61.76h0c-.3,0-.46.15-.51.25,0-.2,0-.4-.06-.6A3.59,3.59,0,0,0,242.22,340.6ZM229,328.28c0,.14.17.22.39.26a26.18,26.18,0,0,1-3.82-.16l-.49,0,0-.22c.11,0,.2.07.21.12l0-.29a.19.19,0,0,0,0-.1c0-.19,0-.38,0-.56v0a.32.32,0,0,0,.1-.18v-.07a.1.1,0,0,0,0-.07c-.06-.58-.11-1.15-.17-1.73-.73-8.54-1.15-16.92-1.24-25.52l2.25-.07s0,0,0,.06A164.33,164.33,0,0,0,229,328.28Zm50.5-30.3,0,0v0Zm4.58,28.78c0,.12.15.2.35.25a26,26,0,0,1-3.82-.24l-.43,0c0-.09,0-.17,0-.26s.2.07.21.11c0-.11,0-.23,0-.34a.23.23,0,0,0,0,0c0-.2,0-.39,0-.59a.31.31,0,0,0,.1-.17v-.08a.1.1,0,0,0,0-.07c0-.52-.08-1-.13-1.56-.57-8.65-.82-17.12-.73-25.81l2.39-.07a.39.39,0,0,0-.13.27A164.51,164.51,0,0,0,284.12,326.76Zm7.39-32.38h0Z"/><path class="b" d="M474.05,217a.72.72,0,0,0-.16-.5.53.53,0,0,0,0-.25l0-.07c0-.1,0-.13,0-.15l.09-.32c0-.07-.14,0-.34.08l.05-.19c.09-.36-.06-.48-.29-.48a1.08,1.08,0,0,0-1.58-.55,1.8,1.8,0,0,0-.37-.09c-1.28-.77-2.82-1.26-2.95-.78l-.12.44c-29.78-4-59.55-8-89.33-12,.08,0,.15.12.21.26q-9-1.19-18.08-2.38-20.67-2.68-41.35-5.27-25.55-3.21-51.14-6.22s0,0,.05.05l-.52-.06c.05,0,.1.12.14.28l-4.92-.52L252.56,187a.39.39,0,0,0-.19,0l-1.8-.21h0l-.36,0a.08.08,0,0,0-.07,0l-.48-.06s.09.14.15.33a.47.47,0,0,0-.22.34.92.92,0,0,0-.69.42c-29.1,8.33-58.34,16.19-87.9,22.73s-59.59,12-89.67,16.66a.67.67,0,0,0-.52.55l-2,.31c-.41.06,0,1.44.59,2.66-.53.36-.07,1.29.54,1.81-.22.42-.29.92.15.86l.21,0c0,.22-.08.4-.12.41l.56-.09a.08.08,0,0,0,.09,0l2.09-.32c.12.18.22.31.31.3q7.84-1.19,15.67-2.44c0,.12,0,.2-.06.21C113,227.47,137.07,223,161,217.7s47.6-11.41,71.23-17.84v0l.44-.12c.07,0,.08-.25.06-.53q8.52-2.35,17-4.78a.4.4,0,0,0,.19-.17l.11,0a.4.4,0,0,0,.11-.07.63.63,0,0,0,.23-.13l.12,0a.87.87,0,0,0,.4-.25,1.11,1.11,0,0,0,.27-.13l.74-.21h0a.53.53,0,0,0,.15.06c71.61,8.05,143,17.79,214.41,27.48-4.53,16.33-9.27,32.59-14,48.87q-3.69,12.75-7.4,25.49a39.18,39.18,0,0,0-1.5,5.15,3.69,3.69,0,0,0,0,1.21,8.05,8.05,0,0,0-.36,1.64,7,7,0,0,0,.18,1.8,9.93,9.93,0,0,0,.17,1.05q.6,3.8,1.19,7.6c4.77,30.81,9.43,61.64,14.39,92.42.07.44,1.25.26,2.45-.2l0,.11c.25,1,1.4.55,2.06-.13a1.18,1.18,0,0,0,.31-.06c.34.2.67.24.6-.22l0-.28c.21.13.38.21.38.18l-.12-.73c.19.13.34.26.37.4,0-.25-.08-.51-.12-.76a.63.63,0,0,0,.09-.29.89.89,0,0,0,.13-.17.65.65,0,0,0,.27-.74c-.18-1-.33-2-.51-3l-.05-.33c.13-.06.22-.12.21-.16q-1-6.3-2-12.62c-.94-6.12-2.09-12.2-2.82-18.35,0,0-.11,0-.27,0-.39-2.58-.78-5.16-1.18-7.74-2.9-18.57-6-37.12-8.64-55.72a18,18,0,0,1-.4-3c.26-.86.58-1.72.82-2.54q3.21-10.94,6.36-21.9c5.44-18.83,10.88-37.65,16.13-56.53.32-.21.29-.74.22-1.23l.09-.31c.27-.19.32-.63.23-1.15.09-.36.19-.72.28-1.08A.85.85,0,0,0,474.05,217Z"/><path class="b" d="M453.55,401.16c.13-.19.17-.35,0-.38l-.49-.08a.68.68,0,0,0-.17-.07c.07-.1,0-.19-.17-.23l-.19,0h0a.55.55,0,0,1,.35-.13l-.54-.09a.38.38,0,0,0-.22-.13l-.11,0a.53.53,0,0,0-.26-.13c-51.44-8.21-102.67-17.83-154.21-25.35-5.2-.79-10.4-1.59-15.61-2.35,0,0,0,0,0,.05l-.52-.08s.07.05.1.11q-8-1.09-16-2.1c-.18-.3-.42-.49-.72-.42l-.91.21-.13,0h-.09l-.37,0a.59.59,0,0,0-.18,0l-.42-.06a.4.4,0,0,0-.27,0l-.39-.06c-.18,0-.17.19-.09.45a.78.78,0,0,0-.07.11l0,0c-53.4,12.17-106.15,27-159.56,39.16a146.55,146.55,0,0,1-10.54-16.24C86.4,384.26,81.31,375,76.3,365.71q-6.6-12.25-13-24.59-2.58-4.94-5.14-9.9c-.42-.82-.91-1.65-1.38-2.49s-.9-1.84-1.35-2.76l0,0,1.26-6.25q2.24-11.11,4.51-22.21c3.53-17.32,7-34.66,10.86-51.92,0,0,0-.1-.1-.15.18-.77.36-1.55.54-2.32,0-.06-.06-.13-.17-.2l.15-.69a.35.35,0,0,0,0-.11l0-.08s0,0,0-.05l.08-.38a1,1,0,0,0,0-.36v-.05a.25.25,0,0,0-.11-.24.71.71,0,0,0-.15-.38l.17-.71a.68.68,0,0,1-.26.33.7.7,0,0,0-.12-.18l.08-.39c0-.16-.18-.07-.44.09l0-.21c.06-.3-.42-.66-.69-.64a.75.75,0,0,0-.43.26h-.06c-1.06-.67-2.61-1.21-3-.6-.18.23-.32.48-.47.72-.34,0-.61.16-.68.46-.11.51-.22,1-.34,1.54a10.45,10.45,0,0,0-.55,2.49c-3.55,16-6.81,32.17-10.1,48.27q-2.51,12.29-5,24.59-.68,3.36-1.36,6.72c-.17.83-.39,1.26-.09,2l0,.1c-.1.48-.19,1-.26,1.43a1.93,1.93,0,0,0,.08,1.11c0,.13.09.26.14.4a1.94,1.94,0,0,0,.08.9,30,30,0,0,0,2,3.86q2.21,4.31,4.44,8.61,6.72,13,13.61,25.84c5,9.38,10.13,18.72,15.48,27.93,3.89,6.7,7.79,13.57,12.72,19.58a.94.94,0,0,0,.86.23l0,0a.88.88,0,0,0,.38,1.19c0,.25,0,.42.25.38l.54-.12c.05.08.16.12.32.1,0,.25-.06.45-.13.46l2.3-.53a.15.15,0,0,0,.11,0q7.85-1.79,15.67-3.67c.09.14.16.23.22.22q16.51-3.93,33-8.05c-.05,0-.14-.09-.23-.23,32.62-8.13,65.15-16.63,97.86-24.37,0,0,0,0,.05-.06l.39-.09c.07,0,.12-.11.16-.23q7.94-1.88,15.89-3.69a.38.38,0,0,0,.18-.14q16.4,2.21,32.75,4.65,28.94,4.33,57.79,9.25,24.72,4.2,49.44,8.4,23.57,4,47.16,7.8c.14,0,.25-.11.33-.33l.39.06c.9.15.85-.67.75-1.34.63-.17.44-1.38,0-2.43A.85.85,0,0,0,453.55,401.16Z"/><g class="c"><g class="d"><path class="b" d="M117,197.76a6.86,6.86,0,0,0-.18-1,6,6,0,0,0-1.1-3.07,5.59,5.59,0,0,0-3.12-2.92c-.29-.12-.6-.22-.9-.33-.08-.66-1.4-.73-2-.72a6.28,6.28,0,0,0-.86-.46,7.94,7.94,0,0,0-.77-.25c-.23-.12-.46-.24-.69-.34a.9.9,0,0,0-.87-.56l-.8,0a50.89,50.89,0,0,0-5.67-.39c-1.12-.1-2.31-.18-3.51-.31-.77-.09-1.54-.2-2.3-.32h0l-.46-.09-.94-.21-.07-.05-.51-1.6c0-.07,0-.14.05-.22A4.55,4.55,0,0,1,93.49,183a24.52,24.52,0,0,1,2.65-1.21c.93-.3,1.82-.55,2.54-.75A103.77,103.77,0,0,1,109,179.23a.82.82,0,0,0,.64-.4l.1,0a1,1,0,0,0,.92-1.31l1.16-.15c.9-.11.88-1.13.35-1.61a1.85,1.85,0,0,0-.28-.2.91.91,0,0,0,.35-.53c.19-.85-.57-1.16-1.3-1.16l-1.63,0c0-.47-.36-1.2-.79-1.22-.24,0-.48-.06-.72-.09a.82.82,0,0,0-.37-.1,13.45,13.45,0,0,0-3.27-.09A1.05,1.05,0,0,0,104,172c-.42-.54-1.67-.58-2.37-.5-.07-.44-.4-1.14-.84-1.07l-.52.09a.64.64,0,0,0-.46-.25l-.91.15a.42.42,0,0,0-.22,0A20.82,20.82,0,0,0,90.37,173a18.45,18.45,0,0,0-4.23,3.4A14.94,14.94,0,0,0,82.9,180a8.53,8.53,0,0,0-1.26,3.43,7.37,7.37,0,0,0-.52,3.41,5,5,0,0,0,1.13,4c.06.07.14.12.2.19a5.75,5.75,0,0,0,3.83,3.22c.18.13.36.26.57.39a8.27,8.27,0,0,0,4.35,1.14h0c.46.06.94.09,1.46.11,3,.09,6,.06,9,0a1.36,1.36,0,0,0,.4.17,6.82,6.82,0,0,0,1.07.12l.11,0a18.28,18.28,0,0,0,2.45.2h.05l.23.22.64,1.61c0,.16.05.31.07.47a9.28,9.28,0,0,1-1.59,3.08,9.76,9.76,0,0,1-.91,1,11.75,11.75,0,0,1-1.33.75c-.52.13-1.05.26-1.58.36s-1.25.19-1.87.25h-.56a1,1,0,0,0-.32,0c-.3,0-.59,0-.88,0h-.09a21.71,21.71,0,0,1-6.23-2.4c-.4-.22-1,0-1.7.45l-.07,0a1.52,1.52,0,0,0-1.51.19l-.06,0c-.82-.43-1.53.33-1.61,1.12a1.59,1.59,0,0,0-.94.11c-.21.18-.36.49,0,.66l.32.16a.89.89,0,0,0,.06.37c-.51.21-1,.49-.78.59l.31.15,0,.06a.72.72,0,0,0,0,.25,1.17,1.17,0,0,0,0,.15l-.17-.09c-.24-.12-.29,0-.11.15l.3.27h0a.7.7,0,0,0,.25.4.34.34,0,0,0,0,.38c-.48,0-.85.07-.48.25s.74.36,1.12.53c-.4.31-.56.73,0,1s1.19.57,1.79.82a2.56,2.56,0,0,0,.42.28,21.14,21.14,0,0,0,8.33,2.38,15.88,15.88,0,0,0,6.64-.41l.05,0a13.64,13.64,0,0,0,5.47-2.18l.2-.07a10.15,10.15,0,0,0,2.74-1.67c4.1-1.85,5.61-5.82,5.19-10.25"/></g></g><g class="e"><g class="e"><path class="b" d="M153.54,159.07c-.2-1.37-3.72.29-4,.41l-.5.18,0,0c0-.24-.08-.48-.12-.72-.18-1-1.09-.79-1.95-.13a1.25,1.25,0,0,0-.86-.13,1,1,0,0,0-.44.33c-.63-.07-1.31.23-1.2,1l0,.32a.81.81,0,0,0-.26.17c-.44.13-.81.32-.79.52.07.49.14,1,.21,1.48,0,0,0,0,0,.05l.06.46c-.07,0-.12,0-.12,0,1.15,8.08,2.26,16.17,3.26,24.26.06.45.1.89.14,1.33s0,.69,0,1a10.6,10.6,0,0,1-.85,2.67,9.07,9.07,0,0,1-3.27,2.89c-.13.08-.27.13-.4.2a11.6,11.6,0,0,1-1.69.2l-.55-.17a7.54,7.54,0,0,1-4.44-3.46,14,14,0,0,1-1.08-3.16c0-.07,0-.14,0-.22a87.57,87.57,0,0,0-1.35-9,32,32,0,0,0-2.36-9.09c-.34-1.07-.69-2.13-1.07-3.18a1.4,1.4,0,0,0-1.06-1c-.15-.25-.29-.5-.44-.75-.45-1.07-1.53-.74-2.46-.5-.28.07-.57.14-.84.24-.18-.39-.45-.77-.8-.84a1.27,1.27,0,0,0-1,.47c-.36-.2-.65-.27-.62,0s.08.65.13,1l0,0c-.33-.33-.63-.48-.58,0l0,.23c-.34-.14-.63-.27-.66-.44.11.7.21,1.4.32,2.1-.35.15-.63.31-.61.44q.67,4.41,1.34,8.82h0c.11.77.22,1.54.33,2.32-.21.05-.35.12-.34.19.45,3,.95,6,1.44,9,.08.68.19,1.35.32,2s.16,1.06.25,1.59a13.56,13.56,0,0,0,1,3.27,14,14,0,0,0,.68,1.63,8.14,8.14,0,0,0,2.5,2.78l.12.15a11.89,11.89,0,0,0,7.59,3.33,14,14,0,0,0,6.39.36l.23-.05a13.73,13.73,0,0,0,6-1.73,11.49,11.49,0,0,0,6.76-6.4,8.41,8.41,0,0,0,.42-1.46,8.63,8.63,0,0,0,.63-1.33,12.72,12.72,0,0,0,.56-6.08c-1-8.41-2.15-16.82-3.36-25.21a.8.8,0,0,0-.23-.46c-.09-.67-.18-1.34-.28-2"/></g></g><g class="f"><g class="f"><path class="b" d="M196.17,155.78a12.46,12.46,0,0,0-4.88-3.44,15.5,15.5,0,0,0-5.23-1,15.6,15.6,0,0,0-4-.79,15.94,15.94,0,0,0-1.73,0,15.44,15.44,0,0,0-1.65.06,15.92,15.92,0,0,0-7.89,2.54,8.67,8.67,0,0,0-2.52.14c-.18,0-.74,0-1.36.14-.18-.54-.45-.89-1.08-.85a1.28,1.28,0,0,0-.35.09.6.6,0,0,0-.26-.13c-.26,0-.79.17-.85.5-.31-.17-.56-.26-.53-.14l.16.61a.37.37,0,0,0-.21.24c-.24-.16-.43-.25-.42-.21.07.26.13.52.2.78a.82.82,0,0,0-.37.74c-.41,0-.76,0-.78-.07.12.41.23.83.34,1.24-.24,0-.41.07-.4.1.08.3.15.6.22.9,0,0,0,0,0,0q1.87,7.37,3.57,14.77c.18.8.38,1.61.56,2.41q2.15,8.85,3.6,17.84a.28.28,0,0,0,.11.16c.05.31.11.62.16.93s.46.37.9.38l0,.18c.11.59.3,1,.93,1a1.3,1.3,0,0,0,.52-.12l.05,0a.83.83,0,0,0,.26,0,4.09,4.09,0,0,0,1.54,1.21.91.91,0,0,0,1-.39h0c.35.2,2.27,1.06,2.06-.29,0-.11,0-.21,0-.32.71.14,1.5.12,1.32-.83-.08-.51-.18-1-.27-1.53.78-.07,1.42-.28,1.32-.83s-.21-1.2-.32-1.8a.72.72,0,0,0,.13-.56c-.33-2.12-.71-4.23-1.1-6.34,4.09-1.13,8.42-2.29,11.72-4.83a14.45,14.45,0,0,0,4.39-4.52,12.13,12.13,0,0,0,2.14-3.92c0-.08,0-.15.06-.23.14-.23.29-.45.42-.69a10.33,10.33,0,0,0,1.25-6.14,8.61,8.61,0,0,0,0-2.17c-.26-2.19-1.38-3.3-2.75-4.94m-8.27,11.36a11.17,11.17,0,0,1-.7,1.08c-2.68,2.86-6.49,4.45-10.3,5.49-.14-.61-.27-1.22-.42-1.83q-.95-4.55-2.14-9c.66-.43,1.32-.86,2-1.25L181,160a22.59,22.59,0,0,1,4.84.23h.45a11.38,11.38,0,0,1,1.44,1q.07,2.95.14,5.89"/></g></g><g class="g"><g class="g"><path class="b" d="M238.2,148.67a12.46,12.46,0,0,0-4.6-3.81,15.5,15.5,0,0,0-5.14-1.37,15.6,15.6,0,0,0-4-1.1,15.94,15.94,0,0,0-1.73-.14,15.44,15.44,0,0,0-1.65-.06,15.92,15.92,0,0,0-8.07,1.92,8.67,8.67,0,0,0-2.53-.06c-.18,0-.74,0-1.36,0-.14-.56-.38-.92-1-.93a1.28,1.28,0,0,0-.36.06.6.6,0,0,0-.25-.15c-.26-.07-.81.11-.88.43-.3-.2-.54-.31-.52-.18s.07.41.11.62a.37.37,0,0,0-.23.23c-.23-.18-.41-.29-.4-.24.05.26.09.53.14.79a.82.82,0,0,0-.43.71c-.41,0-.76-.05-.78-.13.09.42.16.84.25,1.26-.24,0-.41,0-.41.07.05.3.1.61.15.91,0,0,0,0,0,0q1.29,7.49,2.42,15c.12.82.25,1.63.37,2.45q1.45,9,2.2,18.06a.28.28,0,0,0,.09.16c0,.31.06.63.09.94s.43.4.86.45l0,.19c.07.6.23,1,.85,1.1a1.3,1.3,0,0,0,.53-.08l0,0a.83.83,0,0,0,.26,0,4.09,4.09,0,0,0,1.45,1.32.91.91,0,0,0,1.07-.31h0c.33.23,2.18,1.24,2.07-.13,0-.11,0-.21,0-.32.7.2,1.49.23,1.38-.72,0-.52-.1-1-.15-1.54.79,0,1.44-.17,1.38-.73s-.12-1.21-.18-1.82a.72.72,0,0,0,.17-.55c-.17-2.14-.38-4.27-.61-6.4,4.16-.81,8.58-1.63,12.06-3.91a14.45,14.45,0,0,0,4.72-4.17,12.13,12.13,0,0,0,2.44-3.74c0-.07,0-.15.08-.22s.32-.43.47-.66a10.33,10.33,0,0,0,1.72-6,8.61,8.61,0,0,0,.21-2.16c-.09-2.2-1.12-3.4-2.36-5.13m-9.13,10.68a11.17,11.17,0,0,1-.78,1c-2.9,2.64-6.81,3.93-10.69,4.68-.09-.62-.18-1.24-.28-1.86q-.59-4.61-1.43-9.18c.69-.38,1.39-.75,2.1-1.09l4.79-1.25a22.59,22.59,0,0,1,4.81.6l.44,0a11.38,11.38,0,0,1,1.36,1.16q-.16,2.94-.32,5.88"/></g></g><g class="h"><g class="i"><path class="b" d="M292.83,159.49a11.31,11.31,0,0,0-.19-5.93c-.92-2.88-2.77-4.65-5-6.56a4.49,4.49,0,0,0-3-.58l-.69-.63a1,1,0,0,0-.51-.59l-1.37-.77c.47-.23.9-.62.43-1.18a4.87,4.87,0,0,0-1.82-1.89,16,16,0,0,0-4.28-1.39,10.81,10.81,0,0,0-3.12-1.35,11.8,11.8,0,0,0-3.45-.59c-.4-.06-.8-.1-1.2-.13a11,11,0,0,0-1.76-.09,13.9,13.9,0,0,0-5.12.8,16.72,16.72,0,0,0-4.89,2.75,14.54,14.54,0,0,0-2.14,1.62,19.56,19.56,0,0,0-5.41,8.46,17.48,17.48,0,0,0-1,3.51,15.64,15.64,0,0,0-.37,6.33c0,.1,0,.19.06.29,0,.27,0,.55.06.82a15.12,15.12,0,0,0,2.91,7.07,15.75,15.75,0,0,0,3.1,3.9,15.46,15.46,0,0,0,4.25,2.76c.2.14.39.29.59.41a16.52,16.52,0,0,0,7.68,2.41,21.58,21.58,0,0,0,7.2,0c4.77-.79,9.39-2.66,12.42-6.44a18.14,18.14,0,0,0,3-4.07,15.51,15.51,0,0,0,3.55-7.94c0-.31,0-.64,0-1M268,147.91c3.12,0,6.17.91,9.2,1.58a.43.43,0,0,0,.08.43c.25.2.49.4.74.61a2.4,2.4,0,0,0,.32,1.6,14.71,14.71,0,0,1,2.95,2.84l1,2.94c0,.06,0,.12,0,.18a11.54,11.54,0,0,1-.18,1.58,16.62,16.62,0,0,1-3.24,5.36,19.69,19.69,0,0,1-1.73,1.7,22.55,22.55,0,0,1-7.26,3.32,17.06,17.06,0,0,1-2.22.39,13.51,13.51,0,0,1-2.89-.61,16.76,16.76,0,0,1-3.37-3.25,13.86,13.86,0,0,1-2.76-8.9,16.28,16.28,0,0,1,1-3.7c.19-.48.4-.94.64-1.4l.3-.4a16,16,0,0,1,5.07-3.71,12.8,12.8,0,0,1,1.48-.53c.3,0,.59,0,.9,0"/></g></g><g class="j"><g class="j"><path class="b" d="M337.23,182.78c.44-6.42-1.26-13.17-6.95-17.55-.21-.16-.43-.3-.64-.46a11.93,11.93,0,0,0,3.87-3.4,11.49,11.49,0,0,0,2.51-2.71,6.82,6.82,0,0,0,.67-6.49,6.15,6.15,0,0,0-1-3.58,11.35,11.35,0,0,0-6-4.16,12.23,12.23,0,0,0-4.31-2.22,15.35,15.35,0,0,0-3.51-.89,20.41,20.41,0,0,0-9.87.52,1,1,0,0,0-.9-.73,2.63,2.63,0,0,0-.47,0,.71.71,0,0,0-.25-.22,1.34,1.34,0,0,0-1.1.12c-.26-.26-.48-.4-.5-.23l-.08.64a.46.46,0,0,0-.19,0c-.14-.19-.41-.5-.44-.22l-.09.76,0,0,0,0a.89.89,0,0,0-.75.78c-.35.06-.64.13-.65.23s0,.44-.07.65c-.25,0-.43,0-.44,0q-1.83,17.16-3.34,34.35s0,.07,0,.1c0,.34-.06.67-.09,1s.36.37.82.48l0,.51c-.06.71.6,1,1.22,1.06l0,0,.18,0a3.76,3.76,0,0,0,1.23,1.54,1.12,1.12,0,0,0,1.07,0l.11.11c.35.32,2,1.51,2.19.21V183c.76.43,1.89.88,2-.26,0-.54.09-1.08.14-1.62,1,.13,1.67.07,1.7-.28.05-.6.11-1.19.16-1.79a.72.72,0,0,0,.4-.57c.34-3.48.69-7,1-10.44a1.07,1.07,0,0,0,.7.1l.34-.06.52.14a1.53,1.53,0,0,0,1.1.38l.17,0a14.14,14.14,0,0,1,5.45,2.8l.05.07a16.69,16.69,0,0,1,1.69,2.72A21.25,21.25,0,0,1,325.9,183c0,.27.32.52.73.7,0,.2,0,.39,0,.59,0,.73.38,1.07,1.14,1.08l.19,0a1,1,0,0,0,.32.18,4.53,4.53,0,0,0,1.18,1.87,1.12,1.12,0,0,0,1.38,0c.37.38,2.14,2,2.27.6,0-.22,0-.44.05-.65.66.34,1.38.49,1.43-.4,0-.59.05-1.17.05-1.76.89.31,1.88.51,1.92-.14s.06-1.13.08-1.68c.34-.1.57-.29.59-.62m-17.32-32a14.46,14.46,0,0,1,1.77-.05,18,18,0,0,1,4.72,1.22l0,0c0,.19.08.37.09.56a6.39,6.39,0,0,1-.15,1.28,10.22,10.22,0,0,1-2.25,2.39,30.07,30.07,0,0,1-7.71,2.85h-.08l-.58-.11q.41-4.16.82-8.31a24.08,24.08,0,0,0,3.36.15"/></g></g><g class="k"><g class="k"><path class="b" d="M391.79,153.19a2.63,2.63,0,0,0-1.77-.9c-.84-.22-1.69-.4-2.54-.54a.86.86,0,0,0-.21-.28c.09-.5,0-1.13-.49-1.2l-1.23-.16a.48.48,0,0,0-.28-.18l-1-.12a.6.6,0,0,0-.22-.09q-15.58-2-31.19-3.77c-.25,0-.21.29-.05.67l-.7-.09c-.12,0-.13.12-.1.32l-.8-.11c.26,0,.49.31.72.61l0,0c-.36.07-.64.52-.74.94a2.14,2.14,0,0,1-.72,0l.68.12a1.29,1.29,0,0,0,0,.17.77.77,0,0,0-.41.15c-.12.14-.38.33,0,.38l.16,0s0,0,0,.05l-.58-.06c-.29,0-.33.14-.08.27a3.68,3.68,0,0,0,.45.17.82.82,0,0,0,0,.44h-.08c-.34,0-.69,0-.62.38,0,.2.41.31.78.38a1.28,1.28,0,0,0-.13.25c-.2.5,0,1.49.6,1.61l1,.2h0c.38,1.18,1,2.7,1.85,2.85,3.29.7,6.6,1.31,9.91,1.89Q361.72,170.85,359,184a.45.45,0,0,0,.08.32l-.16.79c-.08.42.27.76.71.95-.1.71-.06,1.68.6,2a1,1,0,0,0,.68.1,1.49,1.49,0,0,0,.15.18,1.05,1.05,0,0,0,.62.27c.23.5.47,1,.68,1.4a2.46,2.46,0,0,0,1.17,1.51.75.75,0,0,0,.95-.37l.12-.65c.58.48,1.26.8,1.43-.14,0-.25.09-.5.14-.76.53.24,1,.24,1.19-.55.12-.58.23-1.17.34-1.76.77.22,1.44.24,1.55-.32s.27-1.33.4-2a.77.77,0,0,0,.24-.43q2.78-12.55,4.92-25.23c3.49.47,7,.89,10.49,1.23.7.09,1-.24,1-.7l.7.09c.9.11,1-.55.78-1.22l.75.1c1.71.22-.12-2.33-.22-2.46l-.08-.1,1.88.24c1.17.15,1.49-.75.76-1.56-.28-.2-.57-.37-.86-.55.85.06,2.4,0,1.8-1.18"/></g></g></svg>