<svg id="INDEX" xmlns="http://www.w3.org/2000/svg" viewBox="0 0 150 52"><defs><style>.cls-1{fill:#00aeef;}</style></defs><title>word</title><path class="cls-1" d="M127.59,14c4.08-.49,17.3-3.11,17.3-3.11s1.21-4.13.67-4.45a6.22,6.22,0,0,0-3.18-.48c0-.49-.36-1-.87-1l-.45,0a.62.62,0,0,0-.47-.21l-.65.05a.41.41,0,0,0-.22-.08L123.19,6.11c.06,0,.17.19.32.43l-.76.06a.76.76,0,0,0-.44-.34.78.78,0,0,0-.69.13.41.41,0,0,0-.13-.13c-.22-.12-.47-.19-.5.18,0,.2,0,.41,0,.61h0c0-.14-.09-.25-.17-.28-.37-.12-.41.2-.43.5v0l0,0,0,0a1.54,1.54,0,0,1-.26-.78c0,.33,0,.66-.06,1a1.85,1.85,0,0,0-.43.88l-.11.14c-.39,0-.73.14-.74.29l0,.38-.35-.05q-1,15-2.36,30c0,.07.05.13.14.19,0,.27,0,.53-.06.8s.33.44.75.52v.05a2.31,2.31,0,0,0,0,.29c-.08.05,0,.14,0,.22a1.09,1.09,0,0,0,.6.87,1.09,1.09,0,0,0,0,.17c.11.66.48.69,1.06.65l.34,0c.35.73.9,1.61,1.53,1.6h.18a.62.62,0,0,0,.64,0,2,2,0,0,0,1.13.58c6.69-.18,19.41-1.34,19.41-1.34a3.29,3.29,0,0,0,.15-1.51l.61-.08c1.28-.16,1.8-3.73,1.11-4.06s-9.91-1-17.48-1c.38-2.53.67-5.05.86-7.58l7.24-.62c.57,0,.76-.31.79-.64l.62,0c.72-.06.56-1,.56-1l.63-.07c1.34-.11,2-4.25,1.37-4.6s-6.58-.78-10.93-1.09c0-.61,0-1.23,0-1.84Q127.4,16.74,127.59,14ZM123,7.17h-.09a1.81,1.81,0,0,0-.06-.27Z"/><path class="cls-1" d="M34.83,39.16c-.31-.12-.63-.22-.94-.32l.88-.22C35.92,38.33,36,36.2,31.16,37h0c.33-.53-.08-1.63-.71-1.48l-.82.2c-.4-.41-.57-.3-1.1-.17a.92.92,0,0,0-.7-.15C23.37,36.45,21.57,37,17.71,37,14.35,34.1,17,29.19,16,14.86c.1-5.73.34-5.78-.69-6.47-.25-1.79,0-2-2.84-2.3-.23,0-.69-.09-1.18-.11-.1-.75-.56-1.05-1.13-1a.57.57,0,0,0-1,.28c-.7-.64-.58-.47-.6.26a.22.22,0,0,0-.15.22c-.48-.49-.38-.48-.42.48a.87.87,0,0,0-.34.63c-.39-.16-.74-.31-.74-.46,0,.35,0,.71,0,1.06a2,2,0,0,0,0,.42c-.23,0-.4,0-.4,0-.52,25.6-1.14,28.36,1.2,31.26a5.76,5.76,0,0,0,3.59,3.36,8.61,8.61,0,0,0,4.84,1.88C20.79,45.83,26.5,44,31,42.9a1,1,0,0,0,.36-.16c1.3-.36,2.29-.41,1.44-1.6l1.75-.41C35.47,40.49,35.72,39.76,34.83,39.16Z"/><path class="cls-1" d="M74.26,25.64c1.19-5.31-1.32-8.54-4.78-11.51a4.14,4.14,0,0,0-2.75-.54L66.1,13c-.12-.49-1.29-1-1.73-1.25.44-.21.83-.57.4-1.09-1-1.84-3.16-2.58-5.63-3a10,10,0,0,0-2.88-1.25c-1.42-.46-6.67-1.39-10.63,0C30.55,11.7,28,34.63,42.47,41c7,4.8,22.33,4.33,28.48-7.12A13.66,13.66,0,0,0,74.26,25.64ZM59.86,16.43a.4.4,0,0,0,.07.4c.24.18.46.37.68.56-.09,2.14.62,1,3,4.1l.9,2.71c.24,2.55-2.44,8.73-11.43,11.2a6.88,6.88,0,0,1-4.72-.2A12.92,12.92,0,0,1,42.72,24a13.19,13.19,0,0,1,1.8-5.07C49.84,13.38,52.66,14.83,59.86,16.43Z"/><path class="cls-1" d="M110.65,10a.61.61,0,0,0-.29-.42c.4-1.28-.73-1.4-1.87-1a.86.86,0,0,0-1.17,0c-.81-.32-1.15.11-1.37.84a.56.56,0,0,0-.37.16c-.31,0-.58,0-.62.08-3.19,8.77-6.38,16.34-11.65,24-3.9-8.26-4.33-13-8.87-22.66-.28-.59-2.46-.82-4.19-.69-.45-.91-.5-1.4-1.6-.92-.43-.33-1-.3-.79.44-.69-.69-.62-.77-.36,0-.14,0-.24.25-.28.51-.56-.68-.52-.83-.19.17a1.08,1.08,0,0,0-.17.3,1,1,0,0,0-.4.92l0,0c-.79.29-.8.16-.4,1.37a1.87,1.87,0,0,1-.62,0c2.47,8,5,16.18,8.52,23.8.77,1.65,1.18,3.46,2.29,4.42.87,1.66,1.32,2.22,2.57,2.13l0,0c.79,1.31,1.65,2.25,3.14,1.86,1.29,1,2.48,1,5.16-1.49,7.12-6.56,13.63-21.63,17-30.75a.65.65,0,0,0-.31-.77C114.44,10.51,115.14,9.66,110.65,10Z"/></svg>