<svg id="INDEX" xmlns="http://www.w3.org/2000/svg" viewBox="0 0 137 52"><defs><style>.cls-1{fill:#00aeef;}</style></defs><title>love</title><path class="cls-1" d="M85.36,5.35C82.7,3.38,75,1.92,68.11,8.14c-9,6.17-6.64,18.78-6.79,17.21q1,10.07,2.12,20.12c0,.05.29.07.64.07.14,1.24,0,1.55,1,1.38a.84.84,0,0,0,.42.11c.4.91.91,1.28,1.71.83.66.33,1.32.36,1.55-.25,1.26.29,1.18-.37,1.24-1.37,1.6.2,3,.07,3-.44-.69-6.36-.63-6-.93-10,4.42-.14,8.84-.41,13.24-.83.29,9.79,0,9.23,1.1,9.56v.35a1,1,0,0,0,1.41.88c.19.08.14,0,.21.06.83,1.69,1.68,1.7,2.2,1.15.68.47,1.62.71,1.65-.13v-.26c1.58.64,1.36-.44,1.38-1.91,1.11.12,2,0,2-.37C94.46,14,95.09,6.85,85.36,5.35ZM72.62,17c4.24-3.76,4.77-3.18,10.27-3.52.17,0,.3.11.46.16,1.09,3.1,1.49,9.27,1.64,12.59q-6.73,1.21-13.49,2.26C71.17,23.64,70.57,18.85,72.62,17Z"/><path class="cls-1" d="M51.68,9.27c-.12-1.35-2.63-1.23-4.23-1.4a1.4,1.4,0,0,0-.19-.16c-.07-.78-.27-1.25-1.73-.93a.82.82,0,0,0-1-.09c-.67-.59-.64-.15-.59.62a.72.72,0,0,0-.31,0c-.27-.29-.34-.19-.32.14a.5.5,0,0,0-.43.15c-.24-.22-.21-.47-.18.06a.61.61,0,0,0-.4.66.42.42,0,0,0,0,.27A1,1,0,0,1,42,8.52c0,.34.06.68.08,1-.57.14-.43.57-.38,1.15-.22,1,2.72,18.06-4.13,29-2.84-3.91-2.88-12-3.74-20.42-.09-.83-1.11-1.1-2.07-1.19,0-.16,0-.31,0-.47.09-1.25-2.74-1-3.74-1a.79.79,0,0,0-.34-.36c0-1.16-.8-1.19-1.88-.91-.27-.27-.53-.35-1.14-.06-.92-.55-.9-.07-1,.74-.53-.33-.56-.12-.6.29a2.47,2.47,0,0,1-.53-.19c0,.28,0,.56,0,.84a1,1,0,0,0-.09.2c-.17-.07-.29-.13-.28-.19,0,.47,0,.94,0,1.41-.18,0-.3.09-.31.2a34.68,34.68,0,0,1-3.5,15.77c-5.19-27,0-24.75-8-24.88a1,1,0,0,0-1.39-1c-.34-.36-1-.12-1,.27-.53-.5-.48-.67-.41.29a.38.38,0,0,0-.23.32c-.42-.51-.34-.65-.26.48a.86.86,0,0,0-.07.12.91.91,0,0,0-.41.87L6.3,11c-.65.25-.55.35-.53.63a1.48,1.48,0,0,1-.41,0A190.93,190.93,0,0,0,9.83,42.86c0,.21.32.33.65.38.19,1,.28,1.62,1.28,1.4a.77.77,0,0,0,.46.25,5.51,5.51,0,0,0,1.71,1.91.88.88,0,0,0,1.24-.26c.7.57,1.7.75,1.82-.16-.06-.23-.11-.46-.16-.7a1.5,1.5,0,0,0,.89.06,1,1,0,0,0,.2.09c1.37.29,2.5.84,4.11-.33,1.73-.64,2.85-3.12,3.34-4.12a15.25,15.25,0,0,0,1.1-1.84c.6,1.76,2.62,5.76,5.5,7.13A7.54,7.54,0,0,0,37.9,50c.43.05.64-.11.73-.35,1.34.31,2.19.49,1.44-1.11h.1c.74.13,1.24-.14,1.17-.69a5.75,5.75,0,0,0,.64-.15,3.32,3.32,0,0,0,2.2-1.21,5.61,5.61,0,0,0,2-2.62c1.22-2.4,3.28-3.06,5.43-17.68A72.24,72.24,0,0,0,51.68,9.27Z"/><path class="cls-1" d="M131.57,26.66c.71-6,0-6.93-.09-16.58,0-.8-.69-1.27-1.45-1.61-.12-.41-.23-.82-.36-1.24-.12-.57-1.75-.95-3-.84-.14-.86-.69-1.11-1.26-.88-.26-.32-.82-.29-.83.15,0,.07,0,.14,0,.21-.69-.69-.63-.81-.59.12-.15.05-.13.19-.13.35a5.1,5.1,0,0,1-.42-.45c0,.38,0,.77,0,1.15a1.82,1.82,0,0,0-.16.37c-.45-.19-.93-.37-.94-.56l0,1c-.06.08,0,.35,0,.45l-.39,0c0,1,.18,9.48-.16,16a52.65,52.65,0,0,1-7.76-.64c-3.39-2.88-.16-9.76-2.34-14.65-.16-.59-2.54-1.06-4.33-1,0,0,0-.08,0-.11A1.13,1.13,0,0,0,106,7.17c-.25-.26-.85-.23-.87.19v.3a4.69,4.69,0,0,1-.49-.59c0,.2,0,.41,0,.62-.08,0-.14.18-.17.4-.39-.66-.3-.79-.31.33a.94.94,0,0,0-.54.9.86.86,0,0,0-.13.2c-.66.17-.58.28-.58.65a1.1,1.1,0,0,0-.39,0c-.16,12.19-.29,13.82,1.14,15.59a5.8,5.8,0,0,0,3.55,3.53c3.85,5,8.61,3.88,13.87,4.14-.17,1.44-.37,2.88-.62,4.31a5.31,5.31,0,0,1-.31.58c-.84.59-1.19.83-3.68,1.06a18.31,18.31,0,0,1-3.49.35c-2.67-.25-2.43-.32-3-.14l-1-.09a.73.73,0,0,0-.39.12l-.79-.06c-.29,0-.7.61-.53,1-.23,0-.4-.07-.53.09-.36,0-.74-.05-.78.06-.1.33.29.32.65.38,0,.16,0,.12,0,.19l0,.06a1.12,1.12,0,0,0-.58.63c-.7.36-.35.33,0,.39a.73.73,0,0,0,.21.48l-.58-.07c-.38-.06-.23.16-.15.33s.42.32.77.46a.59.59,0,0,0,.07.19c-1-.08-1.24.57.14.8l0,0a1,1,0,0,0,.6,1.3l1,.16c.81,1.59,1.34,1.53,2.88,1.73a18.06,18.06,0,0,0,4.93.64c1,0,6.53-.39,8.28-1.07a5.07,5.07,0,0,0,2.14-1.49,4.36,4.36,0,0,0,1.91-2.68c2.19-1.74,1.92-4,3.27-15.95A.51.51,0,0,0,131.57,26.66Z"/><path class="cls-1" d="M85.36,5.35C82.7,3.38,75,1.92,68.11,8.14c-9,6.17-6.64,18.78-6.79,17.21q1,10.07,2.12,20.12c0,.05.29.07.64.07.14,1.24,0,1.55,1,1.38a.84.84,0,0,0,.42.11c.4.91.91,1.28,1.71.83.66.33,1.32.36,1.55-.25,1.26.29,1.18-.37,1.24-1.37,1.6.2,3,.07,3-.44-.69-6.36-.63-6-.93-10,4.42-.14,8.84-.41,13.24-.83.29,9.79,0,9.23,1.1,9.56v.35a1,1,0,0,0,1.41.88c.19.08.14,0,.21.06.83,1.69,1.68,1.7,2.2,1.15.68.47,1.62.71,1.65-.13v-.26c1.58.64,1.36-.44,1.38-1.91,1.11.12,2,0,2-.37C94.46,14,95.09,6.85,85.36,5.35ZM72.62,17c4.24-3.76,4.77-3.18,10.27-3.52.17,0,.3.11.46.16,1.09,3.1,1.49,9.27,1.64,12.59q-6.73,1.21-13.49,2.26C71.17,23.64,70.57,18.85,72.62,17Z"/></svg>