<svg id="INDEX" xmlns="http://www.w3.org/2000/svg" viewBox="0 0 176 52"><defs><style>.cls-1{fill:#00aeef;}</style></defs><title>word</title><path class="cls-1" d="M36.09,7.91A6.34,6.34,0,0,0,32.64,7h0c-.07-.93-.48-1-1.37-1-.27-.32-.63-.22-1.14-.21-.21-.16-13.5.37-13.76.38a6.56,6.56,0,0,0-.8-.5c0-.94.34-1.79-3.13-1.95a1.06,1.06,0,0,0-1.22-.89c-.22-.27-.7-.31-.75.12l-.05.41c-.3-.29-.59-.56-.56-.74L9.71,3.73c-.45-.65-.33-.77-.48.44a.89.89,0,0,0-.29.58c-.44-.18-.88-.36-.87-.47-.06.46-.1.91-.16,1.37-.14,0-.25,0-.25.07C5.38,25.5,5,24.89,4.4,41.88c-.08,0-.15.08-.24.12-.32,0-.19.07,0,.17a.9.9,0,0,0,.24.09l0,1c-.07,0-.09.07-.07.11-.15.18-.31.33-.45.34a1.65,1.65,0,0,0,.47-.11v0a1.12,1.12,0,0,1-.81.33c-.42,0,.44.54.83.71-.64.29-1.15.11-.71.71a1.43,1.43,0,0,0,.84.27c-.38.65.11,1.53,1.42,1.26h.06c.76,1.7,1.47,1.71,2.22,1.44a1.68,1.68,0,0,0,2.49-.1,2.31,2.31,0,0,0,.64.11,1.93,1.93,0,0,0,1.25-1.15c0-.41,0-.81,0-1.22,1.6-.29,2.92-2.22,1.73-5.19a61.55,61.55,0,0,1,.41-9.16c4.18,0,8.16-1.7,12.18-2.87a.87.87,0,0,0,.77-.77l.45-.08c1.15-.18,1.26-4.37,1.26-4.74,0-1.28-12.26-1.2-13.72-1.16q.36-3.37.74-6.73c15.55-1.17,17.14-1,17.25-2l.69,0C35.13,13.29,36.56,8.31,36.09,7.91Z"/><path class="cls-1" d="M49.38,9.95c.09-1.3-2.86-1.24-3.48-1.28-.24,0-.83-.11-1.47-.14a1.15,1.15,0,0,0-1.28-1,.7.7,0,0,0-1.09.16c-.6-.54-.5-.32-.56.4a.28.28,0,0,0-.19.13c-.38-.4-.3-.36-.38.57a.93.93,0,0,0-.45.69l-.74-.09c0,.38-.06.75-.09,1.13-.41,0-2.67,30.73-2,31.29,0,1-.19,1.16.77,1.32,0,.95.18,1.61,1.24,1.37a.45.45,0,0,0,.27.06c.61,1,1.6,2.19,2.39,1.3.86.73,2.06,1.31,2.14.18l0-.37c1.56.58,1.32-.5,1.34-2.16,1.75.18,1.41-.44,1.44-2.37a.72.72,0,0,0,.22-.51C47.64,30.39,48.67,20.17,49.38,9.95Z"/><path class="cls-1" d="M130,10.28c-.16-2.7.34-2.66-4.22-2.52,0-1.14-.66-1.45-1.63-1.14a1.21,1.21,0,0,0-1-.1c-.89-.43-.82,0-.8.78-.66-.27-.63,0-.62.38a1.71,1.71,0,0,1-.59-.12c0,.36,0,.72,0,1.07-.46.08-.35,0-.34,1-.1,0-.17,0-.17-.07q.08,8.73.26,17.45c-4.75.13-9.36.08-14-.16q.53-9.15,1.07-18.3c.08-1.28-2.72-1.22-4.77-1.33,0-.86-.8-1.16-1.51-1.06a.86.86,0,0,0-1.1.09c-.6-.48-.52-.19-.56.53a.59.59,0,0,0-.2.06c-.39-.34-.32-.22-.37.51-.34-.16-.62-.33-.61-.47,0,.44-.06.88-.09,1.33-.27,0-.47,0-.47.07,0,.31,0,.63,0,.94-.39,0-2.35,34.07-2.09,34.29,0,.93-.23,1.17.74,1.35-.06,1.17.5,1.55,1.25,1.38a.49.49,0,0,0,.31.09c.65,1.1,1.74,2.42,2.49,1.4l.06.06c.28.25,2.08,1.7,2.16.25l0-.59c1.25.37,1.07-.61,1.15-2.24,1.63.19,1.36-.34,1.47-2.41a.74.74,0,0,0,.17-.43q.18-3.13.37-6.26c4.75,1,11.77.88,14.78.77.23,10-.17,9.11,1,9.26,0,.29,0,.59,0,.88,0,.6.72.62,1.28.43.43.82,1,1.25,1.71.8.63.38,1.19.44,1.52-.21,1.71.45,1.56-.52,1.59-1.52,3.15.56,2.66-.29,2.62-2.37C131.2,43.62,130.54,11,130,10.28Z"/><path class="cls-1" d="M88.21,26.71a1.82,1.82,0,0,0-1.37-.83,13.07,13.07,0,0,0-3-.15,1.71,1.71,0,0,0-1.44-1.36l-.57.09-.2,0c-2.83-1.5-10.95,1.85-9.95,1.62-.32.08-.33.31-.17.57-.41.16-.62.26-.55.24-.13,0-.15.12-.11.23l-.64.16a1.55,1.55,0,0,1,.88.23l0,0c-.24,0-.3,0-.15.47l0,.05-1,.3a4.69,4.69,0,0,1,.87,0,1.83,1.83,0,0,0-.11.74c-1.11.38-1,.21-.44.42,0,0,0,0,0,0l.4.15s0,0,0,0a.5.5,0,0,0-.27.37c-.77.28-.67.18.09.32a.56.56,0,0,0,.62.15l0,0a.82.82,0,0,0-.09.2c-.44.14-.5.21,0,.13,0,0,0,.05,0,.08-.44.14-.51.18,0,.06a.16.16,0,0,0,0,.07c-.69.4-.36,1.09.66.91l.17,0c.3.71,1,1.33,1.55,1.22l.53-.16c.87.53.81.33,4.72-.34q.39,1.14.93,2.47a1.1,1.1,0,0,0-.48.23.89.89,0,0,0-1.16,0,18.41,18.41,0,0,1-7.15,3.75,10.83,10.83,0,0,1-2.54-.46c-4.23-4.37-5.9-9-5.8-13.39A14.6,14.6,0,0,1,64,20.93c3.66-4.77,13.94-7.86,15-9,1.09-.38,2.17-.48,1.1-2l2-.59c.92-.59-.09-1.64-1.19-1.9l-.32-.14a.88.88,0,0,0-.08-1.5,5.16,5.16,0,0,0-2.84-.41,1,1,0,0,0-1.16-.94c-.4-.47-.65-.27-1.34-.07a.5.5,0,0,0-.39-.13c-5,1.37-9.94,3.19-13.8,6.39A19.91,19.91,0,0,0,56.1,38.35c5,9.05,15.69,11.64,24.65,5.72l.09,0c-.08.23-.16.45-.24.68.06.68.82.82,1.38.58l.09,0c.49,1,1.14,1.71,2,1.14,1,.7,1.59.37,1.73-.31,1.86.76,1.55-.35,1.57-1.76,2.48.45,2-.21,1.95-2.25C90,41.51,89.16,28.34,88.21,26.71Z"/><path class="cls-1" d="M170.3,8.18c-.79-.11-1.58-.17-2.37-.21a.77.77,0,0,0-.22-.24c.08-1.25-.63-1-1.72-1a.44.44,0,0,0-.28-.14h-.9c-.47-.21-28.54,0-29.06,0-.24,0-.16.29,0,.62-.57,0-.83-.1-.7.3h-.74c.24,0,.48.23.72.48l0,0a1.13,1.13,0,0,0-.57.93c-.56.17-1.1.09,0,.14a1.18,1.18,0,0,0,0,.16.7.7,0,0,0-.36.18c-.1.14-.31.34.08.34h.15s0,0,0,.05h-.54c-.26,0-.28.16,0,.26a3.39,3.39,0,0,0,.43.11.76.76,0,0,0,.06.4h-.07c-.31,0-.63,0-.52.42.05.18.41.24.75.26a1.17,1.17,0,0,0-.09.24c-.13.48.15,1.36.72,1.4l1,.08c.48,1,1.21,2.35,2,2.4,3.08.27,6.16.46,9.24.62q-.62,12.29-1.68,24.56a.41.41,0,0,0,.11.28c-.07.87-.2,1.27.69,1.53,0,1.53.74,2,1.41,1.78a.88.88,0,0,0,.74.33c.93,1.53,1.14,2.08,2,2.45a.69.69,0,0,0,.82-.45c0-.2,0-.41,0-.61,1.3.83,1.27,0,1.33-1,1.19.37,1-.59,1.14-2.28,1.64.26,1.36-.29,1.53-2.33.59-.69,1.77-22.32,1.85-24,10.17.12,10.54.2,10.55-.8,1,0,1.7,0,1.23-1.2h.69c1.26,0,.32-1.44-.56-2.3h1.74c1.08,0,1.28-.85.52-1.5-.28-.15-.56-.28-.84-.41C173.4,9.92,172.08,8.15,170.3,8.18Z"/></svg>