<?xml version="1.0" encoding="utf-8"?>
<!-- Generator: Adobe Illustrator 21.0.0, SVG Export Plug-In . SVG Version: 6.00 Build 0)  -->
<svg version="1.1" xmlns="http://www.w3.org/2000/svg" xmlns:xlink="http://www.w3.org/1999/xlink" x="0px" y="0px"
	 viewBox="0 0 1044 1044" style="enable-background:new 0 0 1044 1044;" xml:space="preserve">
<style type="text/css">
	.st0{display:none;}
	.st1{display:inline;fill:#FFFFFF;}
	.st2{fill:#00AEEF;}
</style>
<g id="BG" class="st0">
	<rect class="st1" width="1044" height="1044"/>
</g>
<g id="TEXT">
	<g>
		<g>
			<path class="st2" d="M505.7,152.8c-2.7-2-10.4-3.4-17.3,2.8c-9,6.2-6.6,18.8-6.8,17.2c0.6,6.7,1.3,13.4,2.1,20.1
				c0,0.1,0.3,0.1,0.6,0.1c0.1,1.2,0,1.5,1,1.4c0.1,0.1,0.3,0.1,0.4,0.1c0.4,0.9,0.9,1.3,1.7,0.8c0.7,0.3,1.3,0.4,1.6-0.3
				c1.3,0.3,1.2-0.4,1.2-1.4c1.6,0.2,3,0.1,3-0.4c-0.7-6.4-0.6-6-0.9-10c4.4-0.1,8.8-0.4,13.2-0.8c0.3,9.8,0,9.2,1.1,9.6
				c0,0.1,0,0.2,0,0.3c0,0.9,0.8,1.1,1.4,0.9c0.2,0.1,0.1,0,0.2,0.1c0.8,1.7,1.7,1.7,2.2,1.2c0.7,0.5,1.6,0.7,1.7-0.1
				c0-0.1,0-0.2,0-0.3c1.6,0.6,1.4-0.4,1.4-1.9c1.1,0.1,2,0,2-0.4C514.8,161.4,515.4,154.3,505.7,152.8z M493,164.5
				c4.2-3.8,4.8-3.2,10.3-3.5c0.2,0,0.3,0.1,0.5,0.2c1.1,3.1,1.5,9.3,1.6,12.6c-4.5,0.8-9,1.6-13.5,2.3
				C491.5,171.1,490.9,166.3,493,164.5z"/>
			<path class="st2" d="M470.5,185.7c0.3-0.1,0.5-0.2,0.8-0.3c1-0.4,0.9-1.3-0.1-1.6c-1.6-0.2-2.5-0.1-3.5,0c0-0.1-0.1-0.2-0.1-0.2
				c0.1-0.2,0.1-0.5,0-0.8c-0.3-0.7-1-0.6-1.6-0.3c-0.4-0.3-0.7-0.3-1.1-0.1c-0.3-0.2-0.6-0.2-0.8-0.1c-2.4,1.1-5,1.6-7.6,1.6
				c-0.1,0-0.2,0-0.2,0c0,0-0.1,0-0.1,0c-0.4,0-0.7-0.1-1-0.2c-1.7-1.1-3.7-3.1-4.2-5.4c-1.7-3-2.1-7.1-0.2-11.4
				c0.5-0.7,1-1.3,2.1-2.1c1.2-0.8,2.6-1.4,4-1.9c9.8-2.8,12.6,0.1,11.5-2.5c0.2,0,0.5,0,0.7,0c1.6,0.1-0.4-2.1-0.5-2.2
				c0,0-0.1-0.1-0.2-0.2c0.6,0,1.2,0,1.8,0c1.1,0,1.2-0.9,0.5-1.5c-0.2-0.1-0.5-0.2-0.8-0.4c0.7-0.1,1.3-0.3,1.4-0.9
				c0.1-1.3-2.8-1.2-3.4-1.2c-0.4,0-0.8,0-1.2,0c0.1-0.7-0.4-1.1-1-1.1c-0.2,0-0.4,0-0.6,0c-0.1-0.1-0.2-0.1-0.4-0.2
				c-0.4,0-0.9,0-1.3,0c-6-0.3-12.6,0.6-17.1,4.9c-7.6,5.6-8.8,19.4-3.6,26c1.3,2.2,3.1,4,5.4,5.1c1.5,1.1,3.2,2,5,2.4
				c0.6,0.1,1.2,0.2,1.8,0.3c3.8,0.9,7.9,0.7,11.6-0.6c1.1-0.3,2.2-0.7,3.3-1.2c1-0.4,0.3-1.2-0.2-1.7c0.7-0.2,1.3-0.5,1.9-0.8
				C472.4,186.9,471.4,186.1,470.5,185.7z"/>
			<path class="st2" d="M586.5,161.9c4.1-0.5,17.3-3.1,17.3-3.1s1.2-4.1,0.7-4.5c-0.8-0.5-2.1-0.5-3.2-0.5c0-0.5-0.4-1-0.9-1
				c-0.2,0-0.3,0-0.5,0c-0.3-0.3-0.6-0.2-1.1-0.2c-0.2-0.1-16.5,1.3-16.8,1.3c0.1,0,0.2,0.2,0.3,0.4c-0.3,0-0.5,0-0.8,0.1
				c-0.3-0.4-0.8-0.5-1.1-0.2c-0.2-0.3-0.6-0.4-0.6,0c0,0.2,0,0.4,0,0.6c0,0,0,0,0,0c-0.1-0.4-0.5-0.5-0.6,0.2c0,0,0,0,0,0
				c0,0,0,0,0,0c-0.1-0.3-0.3-0.5-0.3-0.8c0,0.3,0,0.7-0.1,1c-0.2,0.2-0.4,0.6-0.4,0.9c0,0-0.1,0.1-0.1,0.1
				c-0.8,0.1-0.7,0.2-0.8,0.7c-0.2,0-0.4,0-0.4-0.1c-0.7,10-1.4,20-2.4,30c0,0.1,0.1,0.1,0.1,0.2c-0.1,0.9-0.2,1.1,0.7,1.3
				c0,0.2,0,0.2,0,0.3c-0.1,0.1,0,0.1,0,0.2c0.1,0.4,0.3,0.7,0.6,0.9c0,1,0.5,0.8,1.4,0.8c0.4,0.8,0.8,1.6,1.7,1.6
				c0.2,0.1,0.5,0.1,0.6,0c0.4,0.4,0.8,0.6,1.1,0.6c6.7-0.2,19.4-1.3,19.4-1.3s0.3-1,0.2-1.5c0.2,0,0.4-0.1,0.6-0.1
				c1.3-0.2,1.8-3.7,1.1-4.1c-0.7-0.3-9.9-1-17.5-1c0.4-2.5,0.7-5.1,0.9-7.6c2.8-0.2,6.1-0.5,7.2-0.6c0.6,0,0.8-0.3,0.8-0.6
				c0.2,0,0.4,0,0.6,0c0.7-0.1,0.6-1,0.6-1s0.4,0,0.6-0.1c1.3-0.1,2-4.3,1.4-4.6c-0.6-0.3-6.6-0.8-10.9-1.1
				C586.1,167.1,586.1,167.6,586.5,161.9z M582,155.1C581.9,155.1,581.9,155.1,582,155.1c-0.1-0.1-0.1-0.2-0.1-0.3
				C581.9,154.9,581.9,155,582,155.1z"/>
			<path class="st2" d="M561.4,190c-0.5-6.7-3.1-12.9-9-16.2c1.2-1.1,2.3-2.3,3-3.8c2.3-2.7,3.3-6.1,1.6-9.3
				c-0.4-3.6-3.5-5.6-7.2-6.4c-2.1-1.4-5.2-1.9-7.3-1.9c-3-0.3-5.9,0.7-8.6,1.9c-0.2-0.6-0.7-0.6-1.3-0.5c-0.3-0.4-0.9-0.2-1.2,0.1
				c-0.6-0.5-0.5-0.2-0.5,0.5c-0.1,0-0.1,0-0.2,0.1c-0.5-0.6-0.4-0.2-0.4,0.6c0,0,0,0,0,0c-0.3,0.1-0.5,0.4-0.6,0.9
				c-0.7,0.2-0.5,0.2-0.5,0.9c-0.2,0-0.4,0-0.4,0.1c0,0.4,1.3,33.1,1.5,33.5c0.1,1.1-0.1,1.2,0.8,1.3c0,0.2,0,0.3,0,0.5
				c0,0.7,0.7,0.9,1.2,0.8c0.1,0,0.1,0,0.2,0c0.6,0.9,1.4,1.8,2.2,1.1c0.9,0.7,2.1,1.1,2.1-0.1c2.1,0.9,1.7-0.4,1.6-2.1
				c1.8,0,1.5-0.3,1.4-2.2c0.2-0.2,0.3-0.3,0.3-0.6c-0.2-3.4-0.3-6.8-0.4-10.1c0.3,0.1,0.6,0,0.9-0.1c0.2,0,0.3,0,0.5,0.1
				c0.6,0.3,0.8,0.3,1.2,0.2c1.8,0.2,3.6,0.9,5.2,1.9c0.8,1,3.4,3.2,4,10.8c0,0.3,0.3,0.5,0.7,0.6c0.1,1,0.2,1.7,1.4,1.4
				c0.1,0.1,0.2,0.1,0.3,0.1c0.4,0.7,0.9,1.4,1.3,1.6c0.4,0.2,1,0.2,1.2-0.2c0.4,0.3,2.1,1.6,2.1,0.3c0-0.2,0-0.4,0-0.6
				c1.5,0.6,1.3-0.5,1-2.3c2,0.4,1.7-0.2,1.5-2C561.2,190.5,561.4,190.3,561.4,190z M543.6,161.5c1.3,0,3,0.1,4.3,0.5
				c0.3,0.4,0.2,1.3,0.2,1.8c-1,2.4-2.7,4-8.1,6.4c0,0-0.6,0-0.6,0c-0.1-2.7-0.2-5.4-0.3-8.1C541.5,162,542.2,161.6,543.6,161.5z"/>
		</g>
		<g>
			<path class="st2" d="M665.8,284.5c0-0.1-0.1-0.2-0.1-0.3c0.1-0.5-0.2-1.1-0.7-1.2c-6.3-0.6-14.1-0.6-20.3-0.4
				c8.5-10,20.2-21.6,20.2-21.6c0.3-0.3,0.6-0.6,0.9-0.9c0.3-0.3,0.2-0.6,0-0.9c1.4-1.3,2.3-1.9,1-2.7c0.1-0.1,0.1-0.1,0.2-0.2
				c0.4-0.1,0.7-0.3,0.7-0.6c0.8-0.9-1.1-1.3-1.7-1.4c-0.8-0.4-2.3-0.7-3.1-0.9c-0.3-0.4-0.5-0.5-0.9-0.5
				c-3.8-2.7-18.1-0.6-27.6,0.9c0,0,0,0.2,0.1,0.4c-0.7,0.1-0.7,0-0.5,0.7c0,0,0,0,0,0.1c0,0-0.1,0-0.1,0.1c-0.7,0.1-0.8,0.6-0.7,1
				c0,0,0,0,0,0c-0.2,0.1-0.5,0.1-0.6,0.1c0.2,0,0.4-0.1,0.6-0.1c-0.1,0.1-0.2,0.3-0.2,0.4c-0.3,0.2-0.5,0.4-0.1,0.4
				c-0.9,0.1-0.8,0.3,0,0.5c0,0.1,0,0.2,0,0.3c-0.5,0.1-0.8,0.1-0.5,0.6c0.1,0.1,0.3,0.2,0.6,0.2c-0.3,0.8,0.2,1.9,1.3,1.8
				c0.2,0.1,0.3,0.2,0.4,0.2c0.7,1.6,1.8,3,2.7,2.9c4.4-0.7,8.8-1.2,13.2-1.5c-3.4,3.5-11.6,12.4-18,20.4c0,0,0.1,0.1,0.2,0.1
				c-0.2,0.3-0.4,0.5-0.6,0.8c0,0,0.2,0,0.5,0.2c0,0,0,0.1,0,0.1c-0.1,0.2-0.2,0.4-0.2,0.6c-0.2,0.2-0.4,0.5-0.6,0.7
				c0,0,0.3,0,0.6,0.1c0,0,0,0.1,0,0.1c-0.5,0.7-0.8,0.8,0.1,0.9c0,0.1,0,0.2,0.1,0.4c-0.1,0.1-0.1,0.2-0.1,0.2
				c-0.2,0-0.4,0-0.6,0.1c-0.2,0.1-0.4,0.1,0.5,0c-0.1,0.1-0.1,0.1,0.2,0.1c0,0,0,0,0,0c-0.2,0.1-0.2,0.2-0.2,0.5
				c-0.1,0-0.3,0.1-0.4,0.1c-0.1,0.1-0.5,0.1,0.4,0.1c0.1,0.2,0.2,0.2,0.4,0.2c0,0.1,0,0.2,0,0.3c-0.5,0.3-0.4,1,0,1
				c0.2,0,0.4,0,0.6,0c0.1,0.1,0.2,0.1,0.3,0.1c0.8,1.4,1.4,1.4,2.3,1.4c1.3,0.9-0.8,0.1,30.3,1.6c0.9,0,0.7-0.6,0.4-1.3
				c0.2,0,0.5,0,0.7,0.1c0.4-0.1,0.6-0.4,0.5-0.8c-0.3-0.9-0.8-1.1-1.5-1.7c0.7,0,1.4,0.1,2,0.1c1.2,0.1,1.1-1,0.4-1.5
				c-0.3-0.1-0.6-0.2-0.9-0.4c0.6,0,1.1-0.2,1.6-0.5C670.9,284.5,667.1,284.6,665.8,284.5z"/>
			<path class="st2" d="M493.8,251.8c-2.7-2-10.4-3.4-17.3,2.8c-9,6.2-6.6,18.8-6.8,17.2c0.6,6.7,1.3,13.4,2.1,20.1
				c0,0.1,0.3,0.1,0.6,0.1c0.1,1.2,0,1.5,1,1.4c0.1,0.1,0.3,0.1,0.4,0.1c0.4,0.9,0.9,1.3,1.7,0.8c0.7,0.3,1.3,0.4,1.6-0.3
				c1.3,0.3,1.2-0.4,1.2-1.4c1.6,0.2,3,0.1,3-0.4c-0.7-6.4-0.6-6-0.9-10c4.4-0.1,8.8-0.4,13.2-0.8c0.3,9.8,0,9.2,1.1,9.6
				c0,0.1,0,0.2,0,0.3c0,0.9,0.8,1.1,1.4,0.9c0.2,0.1,0.1,0,0.2,0.1c0.8,1.7,1.7,1.7,2.2,1.2c0.7,0.5,1.6,0.7,1.7-0.1
				c0-0.1,0-0.2,0-0.3c1.6,0.6,1.4-0.4,1.4-1.9c1.1,0.1,2,0,2-0.4C502.9,260.4,503.5,253.3,493.8,251.8z M481,263.5
				c4.2-3.8,4.8-3.2,10.3-3.5c0.2,0,0.3,0.1,0.5,0.2c1.1,3.1,1.5,9.3,1.6,12.6c-4.5,0.8-9,1.6-13.5,2.3
				C479.6,270.1,479,265.3,481,263.5z"/>
			<path class="st2" d="M343.3,260.9c4.1-0.5,17.3-3.1,17.3-3.1s1.2-4.1,0.7-4.5c-0.8-0.5-2.1-0.5-3.2-0.5c0-0.5-0.4-1-0.9-1
				c-0.2,0-0.3,0-0.5,0c-0.3-0.3-0.6-0.2-1.1-0.2c-0.2-0.1-16.5,1.3-16.8,1.3c0.1,0,0.2,0.2,0.3,0.4c-0.3,0-0.5,0-0.8,0.1
				c-0.3-0.4-0.8-0.5-1.1-0.2c-0.2-0.3-0.6-0.4-0.6,0c0,0.2,0,0.4,0,0.6c0,0,0,0,0,0c-0.1-0.4-0.5-0.5-0.6,0.2c0,0,0,0,0,0
				c0,0,0,0,0,0c-0.1-0.3-0.3-0.5-0.3-0.8c0,0.3,0,0.7-0.1,1c-0.2,0.2-0.4,0.6-0.4,0.9c0,0-0.1,0.1-0.1,0.1
				c-0.8,0.1-0.7,0.2-0.8,0.7c-0.2,0-0.4,0-0.4-0.1c-0.7,10-1.4,20-2.4,30c0,0.1,0.1,0.1,0.1,0.2c-0.1,0.9-0.2,1.1,0.7,1.3
				c0,0.2,0,0.2,0,0.3c-0.1,0.1,0,0.1,0,0.2c0.1,0.4,0.3,0.7,0.6,0.9c0,1,0.5,0.8,1.4,0.8c0.4,0.8,0.8,1.6,1.7,1.6
				c0.2,0.1,0.5,0.1,0.6,0c0.4,0.4,0.8,0.6,1.1,0.6c6.7-0.2,19.4-1.3,19.4-1.3s0.3-1,0.2-1.5c0.2,0,0.4-0.1,0.6-0.1
				c1.3-0.2,1.8-3.7,1.1-4.1c-0.7-0.3-9.9-1-17.5-1c0.4-2.5,0.7-5.1,0.9-7.6c2.8-0.2,6.1-0.5,7.2-0.6c0.6,0,0.8-0.3,0.8-0.6
				c0.2,0,0.4,0,0.6,0c0.7-0.1,0.6-1,0.6-1s0.4,0,0.6-0.1c1.3-0.1,2-4.3,1.4-4.6c-0.6-0.3-6.6-0.8-10.9-1.1
				C342.9,266.1,342.9,266.6,343.3,260.9z M338.7,254.1C338.7,254.1,338.6,254.1,338.7,254.1c-0.1-0.1-0.1-0.2-0.1-0.3
				C338.6,253.9,338.7,254,338.7,254.1z"/>
			<path class="st2" d="M694.3,260.9c4.1-0.5,17.3-3.1,17.3-3.1s1.2-4.1,0.7-4.5c-0.8-0.5-2.1-0.5-3.2-0.5c0-0.5-0.4-1-0.9-1
				c-0.2,0-0.3,0-0.5,0c-0.3-0.3-0.6-0.2-1.1-0.2c-0.2-0.1-16.5,1.3-16.8,1.3c0.1,0,0.2,0.2,0.3,0.4c-0.3,0-0.5,0-0.8,0.1
				c-0.3-0.4-0.8-0.5-1.1-0.2c-0.2-0.3-0.6-0.4-0.6,0c0,0.2,0,0.4,0,0.6c0,0,0,0,0,0c-0.1-0.4-0.5-0.5-0.6,0.2c0,0,0,0,0,0
				c0,0,0,0,0,0c-0.1-0.3-0.3-0.5-0.3-0.8c0,0.3,0,0.7-0.1,1c-0.2,0.2-0.4,0.6-0.4,0.9c0,0-0.1,0.1-0.1,0.1
				c-0.8,0.1-0.7,0.2-0.8,0.7c-0.2,0-0.4,0-0.4-0.1c-0.7,10-1.4,20-2.4,30c0,0.1,0.1,0.1,0.1,0.2c-0.1,0.9-0.2,1.1,0.7,1.3
				c0,0.2,0,0.2,0,0.3c-0.1,0.1,0,0.1,0,0.2c0.1,0.4,0.3,0.7,0.6,0.9c0,1,0.5,0.8,1.4,0.8c0.4,0.8,0.8,1.6,1.7,1.6
				c0.2,0.1,0.5,0.1,0.6,0c0.4,0.4,0.8,0.6,1.1,0.6c6.7-0.2,19.4-1.3,19.4-1.3s0.3-1,0.2-1.5c0.2,0,0.4-0.1,0.6-0.1
				c1.3-0.2,1.8-3.7,1.1-4.1c-0.7-0.3-9.9-1-17.5-1c0.4-2.5,0.7-5.1,0.9-7.6c2.8-0.2,6.1-0.5,7.2-0.6c0.6,0,0.8-0.3,0.8-0.6
				c0.2,0,0.4,0,0.6,0c0.7-0.1,0.6-1,0.6-1s0.4,0,0.6-0.1c1.3-0.1,2-4.3,1.4-4.6c-0.6-0.3-6.6-0.8-10.9-1.1
				C693.9,266.1,693.9,266.6,694.3,260.9z M689.7,254.1C689.7,254.1,689.6,254.1,689.7,254.1c-0.1-0.1-0.1-0.2-0.1-0.3
				C689.6,253.9,689.7,254,689.7,254.1z"/>
			<path class="st2" d="M619.3,256.4c0.1-1.3-2.9-1.2-3.5-1.3c-0.2,0-0.8-0.1-1.5-0.1c-0.1-0.7-0.7-1-1.3-1
				c-0.3-0.4-0.9-0.2-1.1,0.2c-0.6-0.5-0.5-0.3-0.6,0.4c-0.1,0-0.1,0.1-0.2,0.1c-0.4-0.4-0.3-0.4-0.4,0.6c-0.2,0.1-0.4,0.4-0.4,0.7
				c-0.4,0-0.7-0.1-0.7-0.1c0,0.4-0.1,0.8-0.1,1.1c-0.4,0-2.7,30.7-2,31.3c0,1-0.2,1.2,0.8,1.3c0,0.9,0.2,1.6,1.2,1.4
				c0.1,0,0.1,0.1,0.3,0.1c0.6,1,1.6,2.2,2.4,1.3c0.9,0.7,2.1,1.3,2.1,0.2c0-0.1,0-0.2,0-0.4c1.6,0.6,1.3-0.5,1.3-2.2
				c1.7,0.2,1.4-0.4,1.4-2.4c0.1-0.1,0.2-0.3,0.2-0.5C617.5,276.9,618.6,266.7,619.3,256.4z"/>
			<path class="st2" d="M592.3,256.8c-0.2-2.7,0.3-2.7-4.2-2.5c0-1.1-0.7-1.5-1.6-1.1c-0.3-0.2-0.7-0.2-1-0.1
				c-0.9-0.4-0.8,0-0.8,0.8c-0.7-0.3-0.6,0-0.6,0.4c-0.3,0-0.6-0.1-0.6-0.1c0,0.4,0,0.7,0,1.1c-0.5,0.1-0.4,0-0.3,1
				c-0.1,0-0.2,0-0.2-0.1c0.1,5.8,0.1,11.6,0.3,17.5c-4.7,0.1-9.4,0.1-14-0.2c0.4-6.1,0.7-12.2,1.1-18.3c0.1-1.3-2.7-1.2-4.8-1.3
				c0-0.9-0.8-1.2-1.5-1.1c-0.3-0.3-0.8-0.1-1.1,0.1c-0.6-0.5-0.5-0.2-0.6,0.5c-0.1,0-0.1,0-0.2,0.1c-0.4-0.3-0.3-0.2-0.4,0.5
				c-0.3-0.2-0.6-0.3-0.6-0.5c0,0.4-0.1,0.9-0.1,1.3c-0.3,0-0.5,0-0.5,0.1c0,0.3,0,0.6,0,0.9c-0.4,0-2.4,34.1-2.1,34.3
				c0,0.9-0.2,1.2,0.7,1.4c-0.1,1.2,0.5,1.6,1.3,1.4c0.1,0,0.1,0.1,0.3,0.1c0.6,1.1,1.7,2.4,2.5,1.4c0,0,0,0,0.1,0.1
				c0.3,0.2,2.1,1.7,2.2,0.2c0-0.2,0-0.4,0-0.6c1.2,0.4,1.1-0.6,1.1-2.2c1.6,0.2,1.4-0.3,1.5-2.4c0.1-0.1,0.2-0.3,0.2-0.4
				c0.1-2.1,0.2-4.2,0.4-6.3c4.7,1,11.8,0.9,14.8,0.8c0.2,10-0.2,9.1,1,9.3c0,0.3,0,0.6,0,0.9c0,0.6,0.7,0.6,1.3,0.4
				c0.4,0.8,1,1.2,1.7,0.8c0.6,0.4,1.2,0.4,1.5-0.2c1.7,0.4,1.6-0.5,1.6-1.5c3.1,0.6,2.7-0.3,2.6-2.4
				C593.5,290.1,592.8,257.5,592.3,256.8z"/>
			<path class="st2" d="M412,254.1c-0.1-1.3-2.7-1-4.8-1c-0.2-0.9-0.5-1.3-1.5-1.1c-0.4-0.4-1-0.2-1.3,0.2c-0.7-0.5-0.6-0.2-0.5,0.5
				c-0.1,0-0.2,0.1-0.2,0.1c-0.2-0.2-0.4-0.2-0.4-0.2c0,0.4,0.1,0.9,0.1,1.4c-0.1,0.2-0.2,0.3-0.2,0.6c-0.1,0-0.3,0.1-0.4,0.2
				c-0.4-0.3-0.7-0.3-1-0.1c-0.9-0.4-1.1,0.1-1.3,0.8c-0.4-0.1-0.4,0.1-0.5,0.4c-0.3-0.1-0.5-0.1-0.5,0c-0.1,0.3-0.2,0.6-0.3,1
				c0,0-2.7,9.3-6.8,20.9c-1.5-2.9-6.1-12.7-9.5-20.6c-0.2-0.2-0.5-0.4-0.8-0.5c0-1.6-1.9-1.4-3.6-1.6c-0.2,0-0.6-0.1-1.1-0.1
				c-0.1-0.8-0.5-1.2-1.5-1c-0.3-0.3-0.8-0.2-1.1,0c-0.6-0.5-0.5-0.2-0.5,0.5c-0.1,0-0.1,0-0.2,0c-0.4-0.6-0.4-0.2-0.4,0.4
				c-0.1,0-0.1,0.1-0.2,0.1c-0.3,0.1-0.6,0.4-0.6,0.8c0,0.1-0.1,0.1-0.1,0.2c-0.4,0.1-0.4,0.2-0.3,0.9c-0.2,0-0.4,0.1-0.4,0.2
				c0,10.4,0,20.9,0,31.3c0,0.1,0,0.1,0.1,0.1c0,0.3,0,0.6,0,0.9c0,0.2,0.4,0.3,0.8,0.4c0,0.1,0,0.2,0,0.4c0,0.6,0.2,0.9,0.7,1
				c0.1,0,0.3,0,0.5,0c0,0,0,0,0.1,0c0.1,0,0.1,0,0.2,0c0.4,0.7,0.9,1.3,1.3,1.5c0.4,0.2,0.8,0.1,1-0.2c0,0,0.1,0.1,0.1,0.1
				c0.3,0.2,2.1,1.5,2.1,0.1c0-0.1,0-0.3,0-0.4c1.6,0.6,1.3-0.6,1.3-2.2c1.8,0.2,1.4-0.4,1.4-2.3c0.2-0.1,0.3-0.3,0.3-0.5
				c0-2.7,0-5.5,0-8.2c0.8,1.6,5,9.6,5.8,10.1c0.7,1.1,1,2.1,2.1,1.4c0,0,0,0,0,0c0.5,0.8,1.2,1.7,2,1.1c1,0.7,1.7,0.3,1.9-0.2
				c0.2,0.1,0.4,0.2,0.7,0.3c1,0.1,1.3-0.6,0.8-1.4c-0.2-0.3-0.3-0.6-0.5-0.9c1.6,0.2,3.1,0.2,2.3-1.2c0.2-0.3,0.3-0.7,0.5-1
				c0.9,0,1.7-0.1,2-0.8c1.4-3.8,2.8-7.7,4-11.6c0.9,17.6,0.3,15.8,1.4,15.9c0,0,0.1,0,0.1,0c0,1-0.1,1.7,1.1,1.3c0.1,0,0,0,0.1,0
				c0.4,0.7,1.4,1.1,2,0.8c0.7,0.4,1.4,0.5,1.6-0.1c2,0.7,1.8-0.4,1.9-1.5c2.5,0.2,2-0.5,2-2.6C414.5,287.8,413.3,266,412,254.1z"/>
			<path class="st2" d="M449.7,254c-3.9-2.2-10.1-2.9-15.2-1c-0.7-0.3-3.2-0.4-3.8-0.4c-0.1-0.8-0.6-1.1-1.3-1
				c-0.4-0.4-1-0.2-1.1,0.2c-0.6-0.5-0.5-0.3-0.4,0.4c-0.1,0-0.2,0.1-0.3,0.2c-0.5-0.4-0.4-0.4-0.3,0.5c-0.3,0.1-0.4,0.3-0.5,0.7
				c-0.4-0.1-0.7-0.1-0.7-0.2c0,0.4,0.1,0.8,0.1,1.3c-0.2,0-0.4,0-0.4,0c0,0.3,0,0.6,0.1,0.9c0,0,0,0,0,0
				c1.5,22.7,1.4,35.6,1.4,35.6c0,1-0.2,1.3,0.8,1.5c0,1,0.3,1.5,1.2,1.3c0.1,0,0.1,0.1,0.3,0.1c0.6,1,1.6,2.1,2.4,1.3
				c0.8,0.7,2,1.2,2,0.1c0-0.1,0-0.2,0-0.3c1.7,0.7,1.4-0.4,1.4-2.1c1.8,0.2,1.4-0.4,1.4-2.4c0.1-0.1,0.2-0.3,0.2-0.5
				c0.1-2.1,0.1-4.2,0.1-6.3c4.7-0.4,15.6-0.9,20.2-9.9c1.8-2,2.7-4.1,2.8-6.3C462,261.8,456.7,255.5,449.7,254z M448.7,269.6
				c-2.5,3-8,4.1-11.8,4.4c-0.1-3.1-0.1-5.8-0.6-11c2.5-1,1.5-0.8,7-1.6c2.8,0.3,4.1,1,5.1,1.2c0.4,0.4,0.8,0.8,1.2,1.3
				C449.3,265.8,449,267.7,448.7,269.6z"/>
			<path class="st2" d="M548.3,254.7c-0.8-0.1-1.6-0.2-2.4-0.2c-0.1-0.1-0.1-0.2-0.2-0.2c0.1-1.2-0.6-1-1.7-1
				c-0.1-0.1-0.2-0.1-0.3-0.1c-0.3,0-0.6,0-0.9,0c-0.5-0.2-28.5,0-29.1,0c-0.2,0-0.2,0.3,0,0.6c-0.6,0-0.8-0.1-0.7,0.3
				c-0.2,0-0.5,0-0.7,0c0.2,0,0.5,0.2,0.7,0.5c0,0,0,0,0,0c-0.3,0.1-0.5,0.5-0.6,0.9c-0.6,0.2-1.1,0.1,0,0.1c0,0.1,0,0.1,0,0.2
				c-0.2,0-0.3,0.1-0.4,0.2c-0.1,0.1-0.3,0.3,0.1,0.3c0,0,0.1,0,0.1,0c0,0,0,0,0,0.1c-0.2,0-0.4,0-0.5,0c-0.3,0-0.3,0.2,0,0.3
				c0.1,0.1,0.3,0.1,0.4,0.1c0,0.1,0,0.3,0.1,0.4c0,0,0,0-0.1,0c-0.3,0-0.6,0-0.5,0.4c0.1,0.2,0.4,0.2,0.8,0.3
				c0,0.1-0.1,0.1-0.1,0.2c-0.1,0.5,0.1,1.4,0.7,1.4c0.3,0,0.8,0.1,1,0.1c0.5,1,1.2,2.3,2,2.4c3.1,0.3,6.2,0.5,9.2,0.6
				c-0.4,8.2-1,16.4-1.7,24.6c0,0.1,0,0.2,0.1,0.3c-0.1,0.9-0.2,1.3,0.7,1.5c0,1.5,0.7,2,1.4,1.8c0.2,0.2,0.4,0.3,0.7,0.3
				c0.9,1.5,1.1,2.1,2,2.4c0.4,0.1,0.7-0.1,0.8-0.4c0-0.2,0-0.4,0-0.6c1.3,0.8,1.3,0,1.3-1c1.2,0.4,1-0.6,1.1-2.3
				c1.6,0.3,1.4-0.3,1.5-2.3c0.6-0.7,1.8-22.3,1.8-24c10.2,0.1,10.5,0.2,10.5-0.8c1,0,1.7,0,1.2-1.2c0.2,0,0.5,0,0.7,0
				c1.3,0,0.3-1.4-0.6-2.3c0.6,0,1.2,0,1.7,0c1.1,0,1.3-0.9,0.5-1.5c-0.3-0.2-0.6-0.3-0.8-0.4C551.4,256.4,550.1,254.6,548.3,254.7z
				"/>
		</g>
		<g>
			<path class="st2" d="M483.5,354.2c-2.7-2-10.4-3.4-17.3,2.8c-9,6.2-6.6,18.8-6.8,17.2c0.6,6.7,1.3,13.4,2.1,20.1
				c0,0.1,0.3,0.1,0.6,0.1c0.1,1.2,0,1.5,1,1.4c0.1,0.1,0.3,0.1,0.4,0.1c0.4,0.9,0.9,1.3,1.7,0.8c0.7,0.3,1.3,0.4,1.6-0.3
				c1.3,0.3,1.2-0.4,1.2-1.4c1.6,0.2,3,0.1,3-0.4c-0.7-6.4-0.6-6-0.9-10c4.4-0.1,8.8-0.4,13.2-0.8c0.3,9.8,0,9.2,1.1,9.6
				c0,0.1,0,0.2,0,0.3c0,0.9,0.8,1.1,1.4,0.9c0.2,0.1,0.1,0,0.2,0.1c0.8,1.7,1.7,1.7,2.2,1.2c0.7,0.5,1.6,0.7,1.7-0.1
				c0-0.1,0-0.2,0-0.3c1.6,0.6,1.4-0.4,1.4-1.9c1.1,0.1,2,0,2-0.4C492.6,362.8,493.2,355.7,483.5,354.2z M470.7,365.9
				c4.2-3.8,4.8-3.2,10.3-3.5c0.2,0,0.3,0.1,0.5,0.2c1.1,3.1,1.5,9.3,1.6,12.6c-4.5,0.8-9,1.6-13.5,2.3
				C469.3,372.5,468.7,367.7,470.7,365.9z"/>
			<path class="st2" d="M584.7,391.1c-0.3-0.4-0.7-0.8-1-1.2c0.5-0.2,0.9-0.6,0.4-1.1c-4.1-4.7-8.3-9.3-12.6-13.8
				c9.3-9.9,8.2-9,8.8-10.1c2.8-2.9,1.9-3.4,0.3-4.2c0-0.2,0-0.4,0-0.7c-0.1-0.9-1.9-1.5-3.3-1.5c-0.2-0.6-0.8-1.1-1.4-0.9
				c-0.4-0.5-0.6-0.1-0.8,0.4c-0.3-0.3-0.5-0.5-0.5-0.5c-0.1,0.3-0.2,0.5-0.4,0.8c-0.1-0.1-0.2-0.2-0.2-0.3
				c-0.2,0.5-0.4,0.9-0.7,1.3c-0.3-0.2-0.4-0.3-0.4-0.3c-0.1,0.2-0.2,0.5-0.3,0.7c0,0-2.5,3-9.7,10.4c-0.2-5.7-0.2-4.4-0.2-10.9
				c0-0.3-0.1-0.5-0.3-0.8c-0.1-2.2,0.5-2.7-4.4-2.8c-0.1-0.8-0.6-1.1-1.2-1c-0.4-0.4-1-0.2-1.1,0.2c-0.7-0.5-0.5-0.3-0.6,0.4
				c-0.1,0-0.2,0.1-0.2,0.1c-0.5-0.4-0.4-0.3-0.4,0.6c-0.2,0.1-0.3,0.3-0.3,0.5c-0.4-0.1-0.7-0.3-0.7-0.4c0,0.5,0,1,0,1.5
				c-0.2,0-0.4,0-0.4,0c0,0.5-0.3,32,0.1,32.3c0,1-0.2,1.2,0.8,1.3c0,1,0,1.4,1.4,1.4c0.5,0.9,1.3,1.8,2.1,1.1
				c0.8,0.6,1.8,0.9,1.9-0.1c2.2,1,1.9-0.3,1.9-1.9c1.8,0.2,1.5-0.4,1.5-2.4c0.1-0.1,0.2-0.3,0.2-0.5c0-1.6,0-3.3,0-4.9
				c0.1-0.1,2.5-2.6,2.6-2.7c11.3,12.8,10.5,12,11.5,11.8c0,0,0.1,0.1,0.1,0.1c1.1,1.2,1.5,2.1,2.4,1.2c1,0.9,1.8,0.5,1.8-0.2
				c1.2,0.4,1.9-0.4,1.3-1.1c-0.4-0.4-0.7-0.8-1.1-1.2c1.3,0.3,1.8,0.6,2.7,0.3C584.7,391.8,584.8,391.5,584.7,391.1z"/>
			<path class="st2" d="M534.1,373.6c-0.1-0.6-1.3-0.7-1.9-0.7c-0.6-0.4-0.4-0.2-2.2-1c-0.3-0.7-0.9-0.5-1.6-0.5
				c-1.9-0.4-8.3-0.3-12.4-1.4c0,0,0,0-0.1-0.1c-0.2-0.5-0.3-1-0.5-1.5c0.2-0.7,0.4-1.2,1.2-2c4.4-2.3,10.2-2.8,15-3.5
				c0.3-0.1,0.5-0.2,0.6-0.4c0.9-0.1,1.2-0.7,1-1.3c0.4,0,0.7-0.1,1.1-0.1c0.8-0.1,1-1.2,0.1-1.7c0.2-0.1,0.3-0.3,0.3-0.5
				c0.3-1.3-1.5-1.1-2.8-1.1c0-0.5-0.3-1.2-0.8-1.2c-0.2,0-0.5-0.1-0.7-0.1c-0.5-0.3-2.8-0.3-3.5-0.2c-0.2-0.9-1.5-1-2.4-0.9
				c-0.1-0.4-0.4-1.1-0.8-1c-0.2,0-0.3,0.1-0.5,0.1c-0.2-0.2-0.3-0.3-0.4-0.2c-0.3,0-0.6,0.1-0.9,0.1c-0.4-0.2-5.1,0.5-8.3,2.4
				c-2,1.2-7.9,5.5-8.5,10c-0.4,1.1-0.6,2.2-0.5,3.3c-0.2,1.6,0.2,2.9,1.2,4c0.7,1.7,2.1,2.6,3.7,3.1c1.6,1.2,3.1,1.4,4.7,1.5
				c2,0.3,8,0.2,10,0.2c0.4,0.2,1,0.3,1.4,0.3c0.6,0.3,2,0.2,2.5,0.3c0.1,0.1,0.2,0.1,0.2,0.2c0.2,0.6,0.6,1.4,0.7,2
				c-1.8,6-6.9,4.9-7.9,5.2c-0.1,0-0.9,0-0.9,0c-6.1-1.3-5.3-3.4-7.6-2c-0.5-0.3-1-0.2-1.5,0.1c-0.8-0.4-1.5,0.2-1.6,1
				c-0.4,0-0.8,0-0.9,0.1c-0.2,0.2-0.4,0.5,0,0.6c0.1,0.1,0.2,0.1,0.3,0.2c0,0.1,0,0.2,0.1,0.4c-1.2,0.5-0.8,0.5-0.5,0.7
				c0,0.1-0.1,0.1,0,0.3c0,0,0,0.1,0,0.1c-0.4-0.3-0.6-0.2,0,0.3c0,0,0,0,0,0c0,0.2,0.1,0.3,0.2,0.4c-0.1,0.1-0.1,0.3,0,0.4
				c-1.2,0-0.5,0.3,0.6,0.8c-1,0.8,0.3,1.2,1.7,1.8c1.6,1.3,8.9,3.9,14.8,2.3c3.5-0.6,4.5-1.7,5.5-2.1c1-0.4,1.9-0.9,2.7-1.6
				C541,387.5,541.1,376,534.1,373.6z"/>
		</g>
		<g>
			<path class="st2" d="M567.9,461.8c4.1-0.5,17.3-3.1,17.3-3.1s1.2-4.1,0.7-4.5c-0.8-0.5-2.1-0.5-3.2-0.5c0-0.5-0.4-1-0.9-1
				c-0.2,0-0.3,0-0.5,0c-0.3-0.3-0.6-0.2-1.1-0.2c-0.2-0.1-16.5,1.3-16.8,1.3c0.1,0,0.2,0.2,0.3,0.4c-0.3,0-0.5,0-0.8,0.1
				c-0.3-0.4-0.8-0.5-1.1-0.2c-0.2-0.3-0.6-0.4-0.6,0c0,0.2,0,0.4,0,0.6c0,0,0,0,0,0c-0.1-0.4-0.5-0.5-0.6,0.2c0,0,0,0,0,0
				c0,0,0,0,0,0c-0.1-0.3-0.3-0.5-0.3-0.8c0,0.3,0,0.7-0.1,1c-0.2,0.2-0.4,0.6-0.4,0.9c0,0-0.1,0.1-0.1,0.1
				c-0.8,0.1-0.7,0.2-0.8,0.7c-0.2,0-0.4,0-0.4-0.1c-0.7,10-1.4,20-2.4,30c0,0.1,0.1,0.1,0.1,0.2c-0.1,0.9-0.2,1.1,0.7,1.3
				c0,0.2,0,0.2,0,0.3c-0.1,0.1,0,0.1,0,0.2c0.1,0.4,0.3,0.7,0.6,0.9c0,1,0.5,0.8,1.4,0.8c0.4,0.8,0.8,1.6,1.7,1.6
				c0.2,0.1,0.5,0.1,0.6,0c0.4,0.4,0.8,0.6,1.1,0.6c6.7-0.2,19.4-1.3,19.4-1.3s0.3-1,0.2-1.5c0.2,0,0.4-0.1,0.6-0.1
				c1.3-0.2,1.8-3.7,1.1-4.1c-0.7-0.3-9.9-1-17.5-1c0.4-2.5,0.7-5.1,0.9-7.6c2.8-0.2,6.1-0.5,7.2-0.6c0.6,0,0.8-0.3,0.8-0.6
				c0.2,0,0.4,0,0.6,0c0.7-0.1,0.6-1,0.6-1s0.4,0,0.6-0.1c1.3-0.1,2-4.3,1.4-4.6c-0.6-0.3-6.6-0.8-10.9-1.1
				C567.5,467.1,567.5,467.6,567.9,461.8z M563.3,455.1C563.3,455.1,563.2,455.1,563.3,455.1c-0.1-0.1-0.1-0.2-0.1-0.3
				C563.2,454.9,563.2,455,563.3,455.1z"/>
			<path class="st2" d="M456.7,457.4c0.1-1.3-2.9-1.2-3.5-1.3c-0.2,0-0.8-0.1-1.5-0.1c-0.1-0.7-0.7-1-1.3-1
				c-0.3-0.4-0.9-0.2-1.1,0.2c-0.6-0.5-0.5-0.3-0.6,0.4c-0.1,0-0.1,0.1-0.2,0.1c-0.4-0.4-0.3-0.4-0.4,0.6c-0.2,0.1-0.4,0.4-0.4,0.7
				c-0.4,0-0.7-0.1-0.7-0.1c0,0.4-0.1,0.8-0.1,1.1c-0.4,0-2.7,30.7-2,31.3c0,1-0.2,1.2,0.8,1.3c0,0.9,0.2,1.6,1.2,1.4
				c0.1,0,0.1,0.1,0.3,0.1c0.6,1,1.6,2.2,2.4,1.3c0.9,0.7,2.1,1.3,2.1,0.2c0-0.1,0-0.2,0-0.4c1.6,0.6,1.3-0.5,1.3-2.2
				c1.7,0.2,1.4-0.4,1.4-2.4c0.1-0.1,0.2-0.3,0.2-0.5C454.9,477.9,456,467.6,456.7,457.4z"/>
			<path class="st2" d="M437.4,487.9c-0.3-0.1-0.6-0.2-0.9-0.3c0.3-0.1,0.6-0.1,0.9-0.2c1.2-0.3,1.3-2.4-3.6-1.6c0,0,0,0,0,0
				c0.3-0.5-0.1-1.6-0.7-1.5c-0.3,0.1-0.5,0.1-0.8,0.2c-0.4-0.4-0.6-0.3-1.1-0.2c-0.2-0.1-0.5-0.2-0.7-0.1
				c-4.5,1.1-6.3,1.6-10.1,1.7c-1.8-1.6-1.9-4.2-1.8-6.5c0.7-9.2-0.1-11.4,0.1-20.9c0-0.5-0.3-0.9-0.8-1.3c-0.2-1.5,0.2-2.3-4-2.4
				c-0.1-0.7-0.6-1.1-1.1-1c-0.3-0.4-1-0.2-1,0.3c-0.7-0.6-0.6-0.5-0.6,0.3c-0.1,0-0.1,0.1-0.2,0.2c-0.5-0.5-0.4-0.5-0.4,0.5
				c-0.2,0.1-0.3,0.3-0.3,0.6c-0.4-0.2-0.7-0.3-0.7-0.5c0,0.4,0,0.7,0,1.1c0,0.1,0,0.3,0,0.4c-0.2,0-0.4,0-0.4,0
				c-0.5,26.4-1.1,28.4,1.2,31.3c0.7,1.6,1.7,2.7,3.6,3.4c1.4,1.2,3,1.6,4.8,1.9c4.7,1.4,10.4-0.4,14.9-1.5c0.1,0,0.3-0.1,0.4-0.2
				c1.3-0.4,2.3-0.4,1.4-1.6c0.6-0.1,1.2-0.3,1.7-0.4C438.1,489.2,438.3,488.5,437.4,487.9z"/>
			<path class="st2" d="M635.5,488c-0.1-10.4-0.1-20.8-0.1-31.3c0-1.3-2.9-1-3.9-1c-0.1-0.2-0.2-0.3-0.3-0.4c-0.1-1-0.8-1.1-1.8-0.9
				c-0.3-0.3-0.6-0.3-1.1-0.1c-0.4-0.3-0.9-0.3-0.9,0.3c0,0.1,0,0.3,0,0.4c-0.1,0-0.1,0-0.2,0c-0.5-0.4-0.5-0.1-0.5,0.3
				c-0.3-0.1-0.6-0.2-0.6-0.2c0,0.2,0,0.5,0,0.7c-0.1,0.1-0.1,0.2-0.1,0.3c-0.1-0.1-0.2-0.1-0.2-0.2c0,1.4,0,0.3,0,1.5
				c-0.2,0-0.4,0.1-0.4,0.2c0,7.1,0,14.1,0.1,21.2c-5.5-6.6-8.9-11.1-12.5-18.9c-0.8-0.6-1.3-0.5-2.3-0.6c0.1-3.4,0.9-3.5-4.8-3.8
				c-0.1-0.7-0.5-1.1-1.3-1c-0.3-0.4-1-0.2-1.2,0.1c-0.5-0.5-0.4-0.3-0.4,0.4c-0.1,0-0.1,0-0.2,0.1c-0.4-0.6-0.3-0.2-0.4,0.5
				c0,0-0.1,0.1-0.1,0.1c-0.4,0.1-0.6,0.5-0.6,0.9c0,0,0,0.1-0.1,0.1c-0.4,0.2-0.4,0.2-0.4,0.9c-0.2,0-0.4,0.1-0.4,0.1
				c-0.2,3.8-0.9,31.3-0.1,31.8c0,0.9-0.1,1.2,0.7,1.3c0,1.2,0.6,1.6,1.3,1.5c0.2,0.2,0.4,0.3,0.6,0.3c0.6,0.9,0.7,1.2,1.6,2
				c0.7,0.4,1.2,0.1,1.3-0.5c1.7,1.1,1.6,0.2,1.6-0.8c1.3,0.3,1-0.6,1-2.3c1.8,0.2,1.5-0.3,1.4-2.2c0.2-0.1,0.3-0.3,0.3-0.6
				c-0.1-4.5-0.2-8.9-0.2-13.4c4,5.6,8.7,10.8,13.1,16c0.2,0.2,0.5,0.1,0.9,0c0.1,0.1,0.2,0.1,0.3,0.2c0.9,1,2,2.6,2.7,1.5
				c0.5,0.5,1.4,1,1.9,0.6c0.2,0,0.5-0.1,0.7-0.2c0.9,0.7,2,1.1,2.1,0c2.1,1,1.8-0.2,1.8-1.9c1.7,0.1,1.4-0.5,1.4-2.4
				C635.4,488.4,635.5,488.2,635.5,488z"/>
			<path class="st2" d="M497.3,472.2c-0.1-0.6-1.3-0.7-1.9-0.7c-0.6-0.4-0.4-0.2-2.2-1c-0.3-0.7-0.9-0.5-1.6-0.5
				c-1.9-0.4-8.3-0.3-12.4-1.4c0,0,0,0-0.1-0.1c-0.2-0.5-0.3-1-0.5-1.5c0.2-0.7,0.4-1.2,1.2-2c4.4-2.3,10.2-2.8,15-3.5
				c0.3-0.1,0.5-0.2,0.6-0.4c0.9-0.1,1.2-0.7,1-1.3c0.4,0,0.7-0.1,1.1-0.1c0.8-0.1,1-1.2,0.1-1.7c0.2-0.1,0.3-0.3,0.3-0.5
				c0.3-1.3-1.5-1.1-2.8-1.1c0-0.5-0.3-1.2-0.8-1.2c-0.2,0-0.5-0.1-0.7-0.1c-0.5-0.3-2.8-0.3-3.5-0.2c-0.2-0.9-1.5-1-2.4-0.9
				c-0.1-0.4-0.4-1.1-0.8-1c-0.2,0-0.3,0.1-0.5,0.1c-0.2-0.2-0.3-0.3-0.4-0.2c-0.3,0-0.6,0.1-0.9,0.1c-0.4-0.2-5.1,0.5-8.3,2.4
				c-2,1.2-7.9,5.5-8.5,10c-0.4,1.1-0.6,2.2-0.5,3.3c-0.2,1.6,0.2,2.9,1.2,4c0.7,1.7,2.1,2.6,3.7,3.1c1.6,1.2,3.1,1.4,4.7,1.5
				c2,0.3,8,0.2,10,0.2c0.4,0.2,1,0.3,1.4,0.3c0.6,0.3,2,0.2,2.5,0.3c0.1,0.1,0.2,0.1,0.2,0.2c0.2,0.6,0.6,1.4,0.7,2
				c-1.8,6-6.9,4.9-7.9,5.2c-0.1,0-0.9,0-0.9,0c-6.1-1.3-5.3-3.4-7.6-2c-0.5-0.3-1-0.2-1.5,0.1c-0.8-0.4-1.5,0.2-1.6,1
				c-0.4,0-0.8,0-0.9,0.1c-0.2,0.2-0.4,0.5,0,0.6c0.1,0.1,0.2,0.1,0.3,0.2c0,0.1,0,0.2,0.1,0.4c-1.2,0.5-0.8,0.5-0.5,0.7
				c0,0.1-0.1,0.1,0,0.3c0,0,0,0.1,0,0.1c-0.4-0.3-0.6-0.2,0,0.3c0,0,0,0,0,0c0,0.2,0.1,0.3,0.2,0.4c-0.1,0.1-0.1,0.3,0,0.4
				c-1.2,0-0.5,0.3,0.6,0.8c-1,0.8,0.3,1.2,1.7,1.8c1.6,1.3,8.9,3.9,14.8,2.3c3.5-0.6,4.5-1.7,5.5-2.1c1-0.4,1.9-0.9,2.7-1.6
				C504.2,486.1,504.2,474.6,497.3,472.2z"/>
			<path class="st2" d="M545.4,455.6c-0.8-0.1-1.6-0.2-2.4-0.2c-0.1-0.1-0.1-0.2-0.2-0.2c0.1-1.2-0.6-1-1.7-1
				c-0.1-0.1-0.2-0.1-0.3-0.1c-0.3,0-0.6,0-0.9,0c-0.5-0.2-28.5,0-29.1,0c-0.2,0-0.2,0.3,0,0.6c-0.6,0-0.8-0.1-0.7,0.3
				c-0.2,0-0.5,0-0.7,0c0.2,0,0.5,0.2,0.7,0.5c0,0,0,0,0,0c-0.3,0.1-0.5,0.5-0.6,0.9c-0.6,0.2-1.1,0.1,0,0.1c0,0.1,0,0.1,0,0.2
				c-0.2,0-0.3,0.1-0.4,0.2c-0.1,0.1-0.3,0.3,0.1,0.3c0,0,0.1,0,0.1,0c0,0,0,0,0,0.1c-0.2,0-0.4,0-0.5,0c-0.3,0-0.3,0.2,0,0.3
				c0.1,0.1,0.3,0.1,0.4,0.1c0,0.1,0,0.3,0.1,0.4c0,0,0,0-0.1,0c-0.3,0-0.6,0-0.5,0.4c0.1,0.2,0.4,0.2,0.8,0.3
				c0,0.1-0.1,0.1-0.1,0.2c-0.1,0.5,0.1,1.4,0.7,1.4c0.3,0,0.8,0.1,1,0.1c0.5,1,1.2,2.3,2,2.4c3.1,0.3,6.2,0.5,9.2,0.6
				c-0.4,8.2-1,16.4-1.7,24.6c0,0.1,0,0.2,0.1,0.3c-0.1,0.9-0.2,1.3,0.7,1.5c0,1.5,0.7,2,1.4,1.8c0.2,0.2,0.4,0.3,0.7,0.3
				c0.9,1.5,1.1,2.1,2,2.4c0.4,0.1,0.7-0.1,0.8-0.4c0-0.2,0-0.4,0-0.6c1.3,0.8,1.3,0,1.3-1c1.2,0.4,1-0.6,1.1-2.3
				c1.6,0.3,1.4-0.3,1.5-2.3c0.6-0.7,1.8-22.3,1.8-24c10.2,0.1,10.5,0.2,10.5-0.8c1,0,1.7,0,1.2-1.2c0.2,0,0.5,0,0.7,0
				c1.3,0,0.3-1.4-0.6-2.3c0.6,0,1.2,0,1.7,0c1.1,0,1.3-0.9,0.5-1.5c-0.3-0.2-0.6-0.3-0.8-0.4C548.5,457.4,547.2,455.6,545.4,455.6z
				"/>
		</g>
		<g>
			<path class="st2" d="M297.9,552.1c-2.7-2-10.4-3.4-17.3,2.8c-9,6.2-6.6,18.8-6.8,17.2c0.6,6.7,1.3,13.4,2.1,20.1
				c0,0.1,0.3,0.1,0.6,0.1c0.1,1.2,0,1.5,1,1.4c0.1,0.1,0.3,0.1,0.4,0.1c0.4,0.9,0.9,1.3,1.7,0.8c0.7,0.3,1.3,0.4,1.6-0.3
				c1.3,0.3,1.2-0.4,1.2-1.4c1.6,0.2,3,0.1,3-0.4c-0.7-6.4-0.6-6-0.9-10c4.4-0.1,8.8-0.4,13.2-0.8c0.3,9.8,0,9.2,1.1,9.6
				c0,0.1,0,0.2,0,0.3c0,0.9,0.8,1.1,1.4,0.9c0.2,0.1,0.1,0,0.2,0.1c0.8,1.7,1.7,1.7,2.2,1.2c0.7,0.5,1.6,0.7,1.7-0.1
				c0-0.1,0-0.2,0-0.3c1.6,0.6,1.4-0.4,1.4-1.9c1.1,0.1,2,0,2-0.4C307,560.7,307.7,553.6,297.9,552.1z M285.2,563.8
				c4.2-3.8,4.8-3.2,10.3-3.5c0.2,0,0.3,0.1,0.5,0.2c1.1,3.1,1.5,9.3,1.6,12.6c-4.5,0.8-9,1.6-13.5,2.3
				C283.8,570.4,283.2,565.6,285.2,563.8z"/>
			<path class="st2" d="M348.1,585c0.3-0.1,0.5-0.2,0.8-0.3c1-0.4,0.9-1.3-0.1-1.6c-1.6-0.2-2.5-0.1-3.5,0c0-0.1-0.1-0.2-0.1-0.2
				c0.1-0.2,0.1-0.5,0-0.8c-0.3-0.7-1-0.6-1.6-0.3c-0.4-0.3-0.7-0.3-1.1-0.1c-0.3-0.2-0.6-0.2-0.8-0.1c-2.4,1.1-5,1.6-7.6,1.6
				c-0.1,0-0.2,0-0.2,0c0,0-0.1,0-0.1,0c-0.4,0-0.7-0.1-1-0.2c-1.7-1.1-3.7-3.1-4.2-5.4c-1.7-3-2.1-7.1-0.2-11.4
				c0.5-0.7,1-1.3,2.1-2.1c1.2-0.8,2.6-1.4,4-1.9c9.8-2.8,12.6,0.1,11.5-2.5c0.2,0,0.5,0,0.7,0c1.6,0.1-0.4-2.1-0.5-2.2
				c0,0-0.1-0.1-0.2-0.2c0.6,0,1.2,0,1.8,0c1.1,0,1.2-0.9,0.5-1.5c-0.2-0.1-0.5-0.2-0.8-0.4c0.7-0.1,1.3-0.3,1.4-0.9
				c0.1-1.3-2.8-1.2-3.4-1.2c-0.4,0-0.8,0-1.2,0c0.1-0.7-0.4-1.1-1-1.1c-0.2,0-0.4,0-0.6,0c-0.1-0.1-0.2-0.1-0.4-0.2
				c-0.4,0-0.9,0-1.3,0c-6-0.3-12.6,0.6-17.1,4.9c-7.6,5.6-8.8,19.4-3.6,26c1.3,2.2,3.1,4,5.4,5.1c1.5,1.1,3.2,2,5,2.4
				c0.6,0.1,1.2,0.2,1.8,0.3c3.8,0.9,7.9,0.7,11.6-0.6c1.1-0.3,2.2-0.7,3.3-1.2c1-0.4,0.3-1.2-0.2-1.7c0.7-0.2,1.3-0.5,1.9-0.8
				C350,586.2,349,585.3,348.1,585z"/>
			<path class="st2" d="M612.4,561.1c4.1-0.5,17.3-3.1,17.3-3.1s1.2-4.1,0.7-4.5c-0.8-0.5-2.1-0.5-3.2-0.5c0-0.5-0.4-1-0.9-1
				c-0.2,0-0.3,0-0.5,0c-0.3-0.3-0.6-0.2-1.1-0.2c-0.2-0.1-16.5,1.3-16.8,1.3c0.1,0,0.2,0.2,0.3,0.4c-0.3,0-0.5,0-0.8,0.1
				c-0.3-0.4-0.8-0.5-1.1-0.2c-0.2-0.3-0.6-0.4-0.6,0c0,0.2,0,0.4,0,0.6c0,0,0,0,0,0c-0.1-0.4-0.5-0.5-0.6,0.2c0,0,0,0,0,0
				c0,0,0,0,0,0c-0.1-0.3-0.3-0.5-0.3-0.8c0,0.3,0,0.7-0.1,1c-0.2,0.2-0.4,0.6-0.4,0.9c0,0-0.1,0.1-0.1,0.1
				c-0.8,0.1-0.7,0.2-0.8,0.7c-0.2,0-0.4,0-0.4-0.1c-0.7,10-1.4,20-2.4,30c0,0.1,0.1,0.1,0.1,0.2c-0.1,0.9-0.2,1.1,0.7,1.3
				c0,0.2,0,0.2,0,0.3c-0.1,0.1,0,0.1,0,0.2c0.1,0.4,0.3,0.7,0.6,0.9c0,1,0.5,0.8,1.4,0.8c0.4,0.8,0.8,1.6,1.7,1.6
				c0.2,0.1,0.5,0.1,0.6,0c0.4,0.4,0.8,0.6,1.1,0.6c6.7-0.2,19.4-1.3,19.4-1.3s0.3-1,0.2-1.5c0.2,0,0.4-0.1,0.6-0.1
				c1.3-0.2,1.8-3.7,1.1-4.1c-0.7-0.3-9.9-1-17.5-1c0.4-2.5,0.7-5.1,0.9-7.6c2.8-0.2,6.1-0.5,7.2-0.6c0.6,0,0.8-0.3,0.8-0.6
				c0.2,0,0.4,0,0.6,0c0.7-0.1,0.6-1,0.6-1s0.4,0,0.6-0.1c1.3-0.1,2-4.3,1.4-4.6c-0.6-0.3-6.6-0.8-10.9-1.1
				C612,566.4,612,566.9,612.4,561.1z M607.8,554.4C607.8,554.4,607.8,554.4,607.8,554.4c-0.1-0.1-0.1-0.2-0.1-0.3
				C607.7,554.2,607.8,554.3,607.8,554.4z"/>
			<path class="st2" d="M752.2,561.1c4.1-0.5,17.3-3.1,17.3-3.1s1.2-4.1,0.7-4.5c-0.8-0.5-2.1-0.5-3.2-0.5c0-0.5-0.4-1-0.9-1
				c-0.2,0-0.3,0-0.5,0c-0.3-0.3-0.6-0.2-1.1-0.2c-0.2-0.1-16.5,1.3-16.8,1.3c0.1,0,0.2,0.2,0.3,0.4c-0.3,0-0.5,0-0.8,0.1
				c-0.3-0.4-0.8-0.5-1.1-0.2c-0.2-0.3-0.6-0.4-0.6,0c0,0.2,0,0.4,0,0.6c0,0,0,0,0,0c-0.1-0.4-0.5-0.5-0.6,0.2c0,0,0,0,0,0
				c0,0,0,0,0,0c-0.1-0.3-0.3-0.5-0.3-0.8c0,0.3,0,0.7-0.1,1c-0.2,0.2-0.4,0.6-0.4,0.9c0,0-0.1,0.1-0.1,0.1
				c-0.8,0.1-0.7,0.2-0.8,0.7c-0.2,0-0.4,0-0.4-0.1c-0.7,10-1.4,20-2.4,30c0,0.1,0.1,0.1,0.1,0.2c-0.1,0.9-0.2,1.1,0.7,1.3
				c0,0.2,0,0.2,0,0.3c-0.1,0.1,0,0.1,0,0.2c0.1,0.4,0.3,0.7,0.6,0.9c0,1,0.5,0.8,1.4,0.8c0.4,0.8,0.8,1.6,1.7,1.6
				c0.2,0.1,0.5,0.1,0.6,0c0.4,0.4,0.8,0.6,1.1,0.6c6.7-0.2,19.4-1.3,19.4-1.3s0.3-1,0.2-1.5c0.2,0,0.4-0.1,0.6-0.1
				c1.3-0.2,1.8-3.7,1.1-4.1c-0.7-0.3-9.9-1-17.5-1c0.4-2.5,0.7-5.1,0.9-7.6c2.8-0.2,6.1-0.5,7.2-0.6c0.6,0,0.8-0.3,0.8-0.6
				c0.2,0,0.4,0,0.6,0c0.7-0.1,0.6-1,0.6-1s0.4,0,0.6-0.1c1.3-0.1,2-4.3,1.4-4.6c-0.6-0.3-6.6-0.8-10.9-1.1
				C751.8,566.4,751.8,566.9,752.2,561.1z M747.6,554.4C747.6,554.4,747.5,554.4,747.6,554.4c-0.1-0.1-0.1-0.2-0.1-0.3
				C747.5,554.2,747.5,554.3,747.6,554.4z"/>
			<path class="st2" d="M666.4,555.1c-1.2-0.6-2.4-1.1-3.6-1.5c-3.6-1.2-6.6-1.1-8.8-1.1c-2.3-0.1-4.6,0-7,0.2
				c-0.4,0-0.5,0.2-0.5,0.4c-0.1,0.1-0.1,0.2-0.1,0.3c-0.4,0-0.7,0-0.5,0.3c-0.1,0-0.1,0-0.1,0c-0.8,0.1-0.6,0,0,0.2
				c0,0.2,0,0.4,0,0.6c-0.1,0.1-0.1,0.2-0.2,0.3c-1.1,0.1-0.9,0,0,0.1c0,0.1-0.1,0.3-0.1,0.4c-0.1,0.1-0.2,0.2-0.3,0.4
				c-0.2,0-0.3,0.1-0.3,0.3c-0.3,0-0.2,0,0,0.1c0,0,0,0.1,0,0.1c-0.2,0-0.4,0-0.4,0c-0.1,6-0.2,26.9,0,27.9c0,1.2-0.2,1.4,0.8,1.6
				c0,0.9,0.2,1.5,1.2,1.3c0.1,0,0.2,0,0.2,0c0.6,0.9,1.3,1.8,2.1,1.1c0.8,0.6,1.8,0.8,1.8-0.2c2.1,1,1.7-0.4,1.8-1.9
				c0.9,0,1.6-0.1,1.6-0.5c0-0.6,0-1.2,0-1.8c0.1-0.1,0.2-0.3,0.2-0.5c-0.2-17.7,0.2-16.4-0.2-22.4c3.6,0,7.2,0.6,10.4,2.3
				c1.7,1.4,2.7,2.5,3,5c0.5,1.2,0.7,2.3,0.2,4.9c-3,9.2-11.5,12.5-12.1,13.5c-1.4,0.9-1.9,1-0.7,1.3c0,0.1,0.1,0.2,0.1,0.2
				c0,0,0,0,0,0c-0.9,0.5-1.4,0.8-0.4,0.6c0,0,0,0,0,0c-0.1,0.1-0.1,0.1,0,0.1c0,0.1-0.1,0.2-0.1,0.2c-0.2,0.1-0.4,0.2-0.6,0.3
				c0,0,0.3,0.3,0.7,0.6c0,0,0,0.1,0,0.1c-0.2,0.1-0.4,0.3-0.6,0.4c-0.2,0.1,0.7,0.5,1.3,0.6c0,0,0,0,0,0c-0.1,0.1-0.2,0.1-0.3,0.2
				c-0.3,0.2-0.1,0.8,0.2,1c0.2,0.1,0.7,0.1,1-0.1c0.4,0.8,1.2,1.4,1.9,1c0.9,0.6,1,0.4,1.8-0.1c0.4,0.2,0.8,0.2,1,0.1
				c4.7-2.8,9.3-5.9,12.4-10.3C681,573.6,680.4,559.1,666.4,555.1z"/>
			<path class="st2" d="M390.4,589c-0.3-0.4-0.7-0.8-1-1.2c0.5-0.2,0.9-0.6,0.4-1.1c-4.1-4.7-8.3-9.3-12.6-13.8
				c9.3-9.9,8.2-9,8.8-10.1c2.8-2.9,1.9-3.4,0.3-4.2c0-0.2,0-0.4,0-0.7c-0.1-0.9-1.9-1.5-3.3-1.5c-0.2-0.6-0.8-1.1-1.4-0.9
				c-0.4-0.5-0.6-0.1-0.8,0.4c-0.3-0.3-0.5-0.5-0.5-0.5c-0.1,0.3-0.2,0.5-0.4,0.8c-0.1-0.1-0.2-0.2-0.2-0.3
				c-0.2,0.5-0.4,0.9-0.7,1.3c-0.3-0.2-0.4-0.3-0.4-0.3c-0.1,0.2-0.2,0.5-0.3,0.7c0,0-2.5,3-9.7,10.4c-0.2-5.7-0.2-4.4-0.2-10.9
				c0-0.3-0.1-0.5-0.3-0.8c-0.1-2.2,0.5-2.7-4.4-2.8c-0.1-0.8-0.6-1.1-1.2-1c-0.4-0.4-1-0.2-1.1,0.2c-0.7-0.5-0.5-0.3-0.6,0.4
				c-0.1,0-0.2,0.1-0.2,0.1c-0.5-0.4-0.4-0.3-0.4,0.6c-0.2,0.1-0.3,0.3-0.3,0.5c-0.4-0.1-0.7-0.3-0.7-0.4c0,0.5,0,1,0,1.5
				c-0.2,0-0.4,0-0.4,0c0,0.5-0.3,32,0.1,32.3c0,1-0.2,1.2,0.8,1.3c0,1,0,1.4,1.4,1.4c0.5,0.9,1.3,1.8,2.1,1.1
				c0.8,0.6,1.8,0.9,1.9-0.1c2.2,1,1.9-0.3,1.9-1.9c1.8,0.2,1.5-0.4,1.5-2.4c0.1-0.1,0.2-0.3,0.2-0.5c0-1.6,0-3.3,0-4.9
				c0.1-0.1,2.5-2.6,2.6-2.7c11.3,12.8,10.5,12,11.5,11.8c0,0,0.1,0.1,0.1,0.1c1.1,1.2,1.5,2.1,2.4,1.2c1,0.9,1.8,0.5,1.8-0.2
				c1.2,0.4,1.9-0.4,1.3-1.1c-0.4-0.4-0.7-0.8-1.1-1.2c1.3,0.3,1.8,0.6,2.7,0.3C390.4,589.7,390.5,589.4,390.4,589z"/>
			<path class="st2" d="M588.7,587.2c-0.3-0.1-0.6-0.2-0.9-0.3c0.3-0.1,0.6-0.1,0.9-0.2c1.2-0.3,1.3-2.4-3.6-1.6c0,0,0,0,0,0
				c0.3-0.5-0.1-1.6-0.7-1.5c-0.3,0.1-0.5,0.1-0.8,0.2c-0.4-0.4-0.6-0.3-1.1-0.2c-0.2-0.1-0.5-0.2-0.7-0.1
				c-4.5,1.1-6.3,1.6-10.1,1.7c-1.8-1.6-1.9-4.2-1.8-6.5c0.7-9.2-0.1-11.4,0.1-20.9c0-0.5-0.3-0.9-0.8-1.3c-0.2-1.5,0.2-2.3-4-2.4
				c-0.1-0.7-0.6-1.1-1.1-1c-0.3-0.4-1-0.2-1,0.3c-0.7-0.6-0.6-0.5-0.6,0.3c-0.1,0-0.1,0.1-0.2,0.2c-0.5-0.5-0.4-0.5-0.4,0.5
				c-0.2,0.1-0.3,0.3-0.3,0.6c-0.4-0.2-0.7-0.3-0.7-0.5c0,0.4,0,0.7,0,1.1c0,0.1,0,0.3,0,0.4c-0.2,0-0.4,0-0.4,0
				c-0.5,26.4-1.1,28.4,1.2,31.3c0.7,1.6,1.7,2.7,3.6,3.4c1.4,1.2,3,1.6,4.8,1.9c4.7,1.4,10.4-0.4,14.9-1.5c0.1,0,0.3-0.1,0.4-0.2
				c1.3-0.4,2.3-0.4,1.4-1.6c0.6-0.1,1.2-0.3,1.7-0.4C589.4,588.5,589.6,587.8,588.7,587.2z"/>
			<path class="st2" d="M725.3,573.5c-0.3-0.5-0.8-0.7-1.4-0.8c-0.9-0.2-2-0.2-3-0.2c-0.2-0.9-0.9-1.3-1.4-1.4
				c-0.2,0-0.4,0.1-0.6,0.1c-0.1,0-0.1,0-0.2,0c-2.8-1.5-10.9,1.9-9.9,1.6c-0.3,0.1-0.3,0.3-0.2,0.6c-0.4,0.2-0.6,0.3-0.5,0.2
				c-0.1,0-0.1,0.1-0.1,0.2c-0.2,0.1-0.4,0.1-0.6,0.2c0.3-0.1,0.6,0.1,0.9,0.2c0,0,0,0,0,0c-0.2,0-0.3,0-0.1,0.5c0,0,0,0,0,0.1
				c-0.3,0.1-0.7,0.2-1,0.3c0.2,0,0.5,0,0.9,0c-0.1,0.2-0.1,0.5-0.1,0.7c-1.1,0.4-1,0.2-0.4,0.4c0,0,0,0,0,0c0.1,0,0.3,0.1,0.4,0.2
				c0,0,0,0,0,0c-0.2,0.1-0.3,0.2-0.3,0.4c-0.8,0.3-0.7,0.2,0.1,0.3c0.1,0.2,0.4,0.2,0.6,0.2c0,0,0,0,0,0c0,0.1-0.1,0.1-0.1,0.2
				c-0.4,0.1-0.5,0.2,0,0.1c0,0,0,0.1,0,0.1c-0.4,0.1-0.5,0.2,0,0.1c0,0,0,0,0,0.1c-0.7,0.4-0.4,1.1,0.7,0.9c0.1,0,0.1,0,0.2,0
				c0.3,0.7,1,1.3,1.6,1.2c0.2-0.1,0.4-0.1,0.5-0.2c0.9,0.5,0.8,0.3,4.7-0.3c0.3,0.8,0.6,1.6,0.9,2.5c-0.2,0.1-0.3,0.1-0.5,0.2
				c-0.3-0.2-0.8-0.3-1.2,0c-2,1.7-4.5,3.1-7.1,3.7c-0.9-0.1-1.7-0.2-2.5-0.5c-4.2-4.4-5.9-9-5.8-13.4c0.3-1.4,0.7-2.7,1.6-4.4
				c3.7-4.8,13.9-7.9,15-9c1.1-0.4,2.2-0.5,1.1-2c0.7-0.2,1.3-0.4,2-0.6c0.9-0.6-0.1-1.6-1.2-1.9c-0.1,0-0.2-0.1-0.3-0.1
				c0.6-0.3,0.5-1.1-0.1-1.5c-0.6-0.4-1.8-0.5-2.8-0.4c0-0.5-0.5-1-1.2-0.9c-0.4-0.5-0.6-0.3-1.3-0.1c-0.1-0.1-0.3-0.2-0.4-0.1
				c-5,1.4-9.9,3.2-13.8,6.4c-8.6,6-11.4,18-4.8,27.7c5,9.1,15.7,11.6,24.7,5.7c0,0,0.1,0,0.1,0c-0.1,0.2-0.2,0.5-0.2,0.7
				c0.1,0.7,0.8,0.8,1.4,0.6c0,0,0.1,0,0.1,0c0.5,1,1.1,1.7,2,1.1c1,0.7,1.6,0.4,1.7-0.3c1.9,0.8,1.6-0.4,1.6-1.8
				c2.5,0.5,2-0.2,1.9-2.2C727.1,588.3,726.3,575.1,725.3,573.5z"/>
			<path class="st2" d="M436.8,587.3c-0.1-10.4-0.1-20.8-0.1-31.3c0-1.3-2.9-1-3.9-1c-0.1-0.2-0.2-0.3-0.3-0.4
				c-0.1-1-0.8-1.1-1.8-0.9c-0.3-0.3-0.6-0.3-1.1-0.1c-0.4-0.3-0.9-0.3-0.9,0.3c0,0.1,0,0.3,0,0.4c-0.1,0-0.1,0-0.2,0
				c-0.5-0.4-0.5-0.1-0.5,0.3c-0.3-0.1-0.6-0.2-0.6-0.2c0,0.2,0,0.5,0,0.7c-0.1,0.1-0.1,0.2-0.1,0.3c-0.1-0.1-0.2-0.1-0.2-0.2
				c0,1.4,0,0.3,0,1.5c-0.2,0-0.4,0.1-0.4,0.2c0,7.1,0,14.1,0.1,21.2c-5.5-6.6-8.9-11.1-12.5-18.9c-0.8-0.6-1.3-0.5-2.3-0.6
				c0.1-3.4,0.9-3.5-4.8-3.8c-0.1-0.7-0.5-1.1-1.3-1c-0.3-0.4-1-0.2-1.2,0.1c-0.5-0.5-0.4-0.3-0.4,0.4c-0.1,0-0.1,0-0.2,0.1
				c-0.4-0.6-0.3-0.2-0.4,0.5c0,0-0.1,0.1-0.1,0.1c-0.4,0.1-0.6,0.5-0.6,0.9c0,0,0,0.1-0.1,0.1c-0.4,0.2-0.4,0.2-0.4,0.9
				c-0.2,0-0.4,0.1-0.4,0.1c-0.2,3.8-0.9,31.3-0.1,31.8c0,0.9-0.1,1.2,0.7,1.3c0,1.2,0.6,1.6,1.3,1.5c0.2,0.2,0.4,0.3,0.6,0.3
				c0.6,0.9,0.7,1.2,1.6,2c0.7,0.4,1.2,0.1,1.3-0.5c1.7,1.1,1.6,0.2,1.6-0.8c1.3,0.3,1-0.6,1-2.3c1.8,0.2,1.5-0.3,1.4-2.2
				c0.2-0.1,0.3-0.3,0.3-0.6c-0.1-4.5-0.2-8.9-0.2-13.4c4,5.6,8.7,10.8,13.1,16c0.2,0.2,0.5,0.1,0.9,0c0.1,0.1,0.2,0.1,0.3,0.2
				c0.9,1,2,2.6,2.7,1.5c0.5,0.5,1.4,1,1.9,0.6c0.2,0,0.5-0.1,0.7-0.2c0.9,0.7,2,1.1,2.1,0c2.1,1,1.8-0.2,1.8-1.9
				c1.7,0.1,1.4-0.5,1.4-2.4C436.7,587.7,436.8,587.5,436.8,587.3z"/>
			<path class="st2" d="M484.2,562.2c-0.6-0.5-1.7-0.6-2.8-0.5c-0.2-0.2-0.4-0.4-0.6-0.6c-0.1-0.5-1.3-1-1.7-1.3
				c0.4-0.2,0.8-0.6,0.4-1.1c-1-1.8-3.2-2.6-5.6-3c-1.7-1.1-4.1-1.7-6.1-1.8c-0.7-0.1-2-0.2-2.7-0.2c-4.2-0.1-8.1,1.9-11.2,4.8
				c-6.8,6.3-9.7,19.7-0.6,28c1.8,1.7,3.1,2,4.5,2.9c6.9,4.3,21.8,3.8,27.9-7.5c1.7-2.2,3-4.7,3.3-7.3
				C489.5,569.2,489.6,566.8,484.2,562.2z M474.6,564.5c0,0.2,0,0.3,0.1,0.4c0.2,0.2,0.5,0.4,0.7,0.6c-0.1,2.1,0.6,1,3,4.1
				c0.1,0.3,0.9,2.6,0.9,2.9c-0.3,6.4-9.8,12.9-16.2,10.8c-7.1-5.2-6.3-13-3.9-16.3C464.6,561.4,467.1,562.8,474.6,564.5z"/>
			<path class="st2" d="M545.2,556c-0.1-1.4-2.6-1.2-4.2-1.4c-0.1-0.1-0.1-0.1-0.2-0.2c-0.1-0.8-0.3-1.2-1.7-0.9
				c-0.3-0.3-0.6-0.3-1-0.1c-0.7-0.6-0.6-0.2-0.6,0.6c-0.1,0-0.2,0-0.3,0c-0.3-0.3-0.3-0.2-0.3,0.1c-0.2,0-0.3,0-0.4,0.2
				c-0.2-0.2-0.2-0.5-0.2,0.1c-0.3,0.1-0.4,0.3-0.4,0.7c-0.1,0.1-0.1,0.2,0,0.3c-0.2,0-0.3,0-0.3-0.1c0,0.3,0.1,0.7,0.1,1
				c-0.6,0.1-0.4,0.6-0.4,1.2c-0.2,1,2.7,18.1-4.1,29c-2.8-3.9-2.9-12-3.7-20.4c-0.1-0.8-1.1-1.1-2.1-1.2c0-0.2,0-0.3,0-0.5
				c0.1-1.3-2.7-1-3.7-1c-0.1-0.1-0.2-0.3-0.3-0.4c0-1.2-0.8-1.2-1.9-0.9c-0.3-0.3-0.5-0.3-1.1-0.1c-0.9-0.5-0.9-0.1-1,0.7
				c-0.5-0.3-0.6-0.1-0.6,0.3c-0.3-0.1-0.5-0.2-0.5-0.2c0,0.3,0,0.6,0,0.8c0,0.1-0.1,0.1-0.1,0.2c-0.2-0.1-0.3-0.1-0.3-0.2
				c0,0.5,0,0.9,0,1.4c-0.2,0-0.3,0.1-0.3,0.2c0,6.1-1.1,10.4-3.5,15.8c-5.2-27,0-24.7-8-24.9c-0.1-0.9-0.6-1.1-1.4-1
				c-0.3-0.4-1-0.1-1,0.3c-0.5-0.5-0.5-0.7-0.4,0.3c-0.1,0-0.2,0.2-0.2,0.3c-0.4-0.5-0.3-0.6-0.3,0.5c0,0-0.1,0.1-0.1,0.1
				c-0.3,0.2-0.4,0.5-0.4,0.9c0,0-0.1,0.1-0.1,0.2c-0.7,0.3-0.5,0.4-0.5,0.6c-0.2,0-0.4,0-0.4,0c0.4,10,2.5,22.7,4.5,31.3
				c0,0.2,0.3,0.3,0.6,0.4c0.2,1,0.3,1.6,1.3,1.4c0.2,0.2,0.3,0.2,0.5,0.3c0.5,0.8,1.2,1.6,1.7,1.9c0.5,0.3,1,0.1,1.2-0.3
				c0.7,0.6,1.7,0.8,1.8-0.2c-0.1-0.2-0.1-0.5-0.2-0.7c0.3,0.1,0.7,0.1,0.9,0.1c0.1,0,0.1,0.1,0.2,0.1c1.4,0.3,2.5,0.8,4.1-0.3
				c1.7-0.6,2.8-3.1,3.3-4.1c0.3-0.4,0.6-0.9,1.1-1.8c0.6,1.8,2.6,5.8,5.5,7.1c1.2,1.6,2.5,2.9,5.9,3.3c0.4,0.1,0.6-0.1,0.7-0.4
				c1.3,0.3,2.2,0.5,1.4-1.1c0,0,0.1,0,0.1,0c0.7,0.1,1.2-0.1,1.2-0.7c0.1,0,0.6-0.1,0.6-0.1c1-0.2,1.5-0.4,2.2-1.2
				c0.8-0.5,1.2-1,2-2.6c1.2-2.4,3.3-3.1,5.4-17.7C545.9,567.3,545.6,561.7,545.2,556z"/>
		</g>
		<g>
			<path class="st2" d="M605.3,688.3c-0.3-0.4-0.7-0.8-1-1.2c0.5-0.2,0.9-0.6,0.4-1.1c-4.1-4.7-8.3-9.3-12.6-13.8
				c9.3-9.9,8.2-9,8.8-10.1c2.8-2.9,1.9-3.4,0.3-4.2c0-0.2,0-0.4,0-0.7c-0.1-0.9-1.9-1.5-3.3-1.5c-0.2-0.6-0.8-1.1-1.4-0.9
				c-0.4-0.5-0.6-0.1-0.8,0.4c-0.3-0.3-0.5-0.5-0.5-0.5c-0.1,0.3-0.2,0.5-0.4,0.8c-0.1-0.1-0.2-0.2-0.2-0.3
				c-0.2,0.5-0.4,0.9-0.7,1.3c-0.3-0.2-0.4-0.3-0.4-0.3c-0.1,0.2-0.2,0.5-0.3,0.7c0,0-2.5,3-9.7,10.4c-0.2-5.7-0.2-4.4-0.2-10.9
				c0-0.3-0.1-0.5-0.3-0.8c-0.1-2.2,0.5-2.7-4.4-2.8c-0.1-0.8-0.6-1.1-1.2-1c-0.4-0.4-1-0.2-1.1,0.2c-0.7-0.5-0.5-0.3-0.6,0.4
				c-0.1,0-0.2,0.1-0.2,0.1c-0.5-0.4-0.4-0.3-0.4,0.6c-0.2,0.1-0.3,0.3-0.3,0.5c-0.4-0.1-0.7-0.3-0.7-0.4c0,0.5,0,1,0,1.5
				c-0.2,0-0.4,0-0.4,0c0,0.5-0.3,32,0.1,32.3c0,1-0.2,1.2,0.8,1.3c0,1,0,1.4,1.4,1.4c0.5,0.9,1.3,1.8,2.1,1.1
				c0.8,0.6,1.8,0.9,1.9-0.1c2.2,1,1.9-0.3,1.9-1.9c1.8,0.2,1.5-0.4,1.5-2.4c0.1-0.1,0.2-0.3,0.2-0.5c0-1.6,0-3.3,0-4.9
				c0.1-0.1,2.5-2.6,2.6-2.7c11.3,12.8,10.5,12,11.5,11.8c0,0,0.1,0.1,0.1,0.1c1.1,1.2,1.5,2.1,2.4,1.2c1,0.9,1.8,0.5,1.8-0.2
				c1.2,0.4,1.9-0.4,1.3-1.1c-0.4-0.4-0.7-0.8-1.1-1.2c1.3,0.3,1.8,0.6,2.7,0.3C605.3,689,605.4,688.7,605.3,688.3z"/>
			<path class="st2" d="M467.5,686.5c-0.3-0.1-0.6-0.2-0.9-0.3c0.3-0.1,0.6-0.1,0.9-0.2c1.2-0.3,1.3-2.4-3.6-1.6c0,0,0,0,0,0
				c0.3-0.5-0.1-1.6-0.7-1.5c-0.3,0.1-0.5,0.1-0.8,0.2c-0.4-0.4-0.6-0.3-1.1-0.2c-0.2-0.1-0.5-0.2-0.7-0.1
				c-4.5,1.1-6.3,1.6-10.1,1.7c-1.8-1.6-1.9-4.2-1.8-6.5c0.7-9.2-0.1-11.4,0.1-20.9c0-0.5-0.3-0.9-0.8-1.3c-0.2-1.5,0.2-2.3-4-2.4
				c-0.1-0.7-0.6-1.1-1.1-1c-0.3-0.4-1-0.2-1,0.3c-0.7-0.6-0.6-0.5-0.6,0.3c-0.1,0-0.1,0.1-0.2,0.2c-0.5-0.5-0.4-0.5-0.4,0.5
				c-0.2,0.1-0.3,0.3-0.3,0.6c-0.4-0.2-0.7-0.3-0.7-0.5c0,0.4,0,0.7,0,1.1c0,0.1,0,0.3,0,0.4c-0.2,0-0.4,0-0.4,0
				c-0.5,26.4-1.1,28.4,1.2,31.3c0.7,1.6,1.7,2.7,3.6,3.4c1.4,1.2,3,1.6,4.8,1.9c4.7,1.4,10.4-0.4,14.9-1.5c0.1,0,0.3-0.1,0.4-0.2
				c1.3-0.4,2.3-0.4,1.4-1.6c0.6-0.1,1.2-0.3,1.7-0.4C468.2,687.8,468.4,687.1,467.5,686.5z"/>
			<path class="st2" d="M507.7,661.4c-0.6-0.5-1.7-0.6-2.8-0.5c-0.2-0.2-0.4-0.4-0.6-0.6c-0.1-0.5-1.3-1-1.7-1.3
				c0.4-0.2,0.8-0.6,0.4-1.1c-1-1.8-3.2-2.6-5.6-3c-1.7-1.1-4.1-1.7-6.1-1.8c-0.7-0.1-2-0.2-2.7-0.2c-4.2-0.1-8.1,1.9-11.2,4.8
				c-6.8,6.3-9.7,19.7-0.6,28c1.8,1.7,3.1,2,4.5,2.9c6.9,4.3,21.8,3.8,27.9-7.5c1.7-2.2,3-4.7,3.3-7.3
				C513,668.5,513.1,666.1,507.7,661.4z M498.1,663.7c0,0.2,0,0.3,0.1,0.4c0.2,0.2,0.5,0.4,0.7,0.6c-0.1,2.1,0.6,1,3,4.1
				c0.1,0.3,0.9,2.6,0.9,2.9c-0.3,6.4-9.8,12.9-16.2,10.8c-7.1-5.2-6.3-13-3.9-16.3C488.1,660.7,490.6,662.1,498.1,663.7z"/>
			<path class="st2" d="M556.9,661.4c-0.6-0.5-1.7-0.6-2.8-0.5c-0.2-0.2-0.4-0.4-0.6-0.6c-0.1-0.5-1.3-1-1.7-1.3
				c0.4-0.2,0.8-0.6,0.4-1.1c-1-1.8-3.2-2.6-5.6-3c-1.7-1.1-4.1-1.7-6.1-1.8c-0.7-0.1-2-0.2-2.7-0.2c-4.2-0.1-8.1,1.9-11.2,4.8
				c-6.8,6.3-9.7,19.7-0.6,28c1.8,1.7,3.1,2,4.5,2.9c6.9,4.3,21.8,3.8,27.9-7.5c1.7-2.2,3-4.7,3.3-7.3
				C562.2,668.5,562.2,666.1,556.9,661.4z M547.3,663.7c0,0.2,0,0.3,0.1,0.4c0.2,0.2,0.5,0.4,0.7,0.6c-0.1,2.1,0.6,1,3,4.1
				c0.1,0.3,0.9,2.6,0.9,2.9c-0.3,6.4-9.8,12.9-16.2,10.8c-7.1-5.2-6.3-13-3.9-16.3C537.2,660.7,539.8,662.1,547.3,663.7z"/>
		</g>
		<g>
			<path class="st2" d="M631.1,753.8c-2.7-2-10.4-3.4-17.3,2.8c-9,6.2-6.6,18.8-6.8,17.2c0.6,6.7,1.3,13.4,2.1,20.1
				c0,0.1,0.3,0.1,0.6,0.1c0.1,1.2,0,1.5,1,1.4c0.1,0.1,0.3,0.1,0.4,0.1c0.4,0.9,0.9,1.3,1.7,0.8c0.7,0.3,1.3,0.4,1.6-0.3
				c1.3,0.3,1.2-0.4,1.2-1.4c1.6,0.2,3,0.1,3-0.4c-0.7-6.4-0.6-6-0.9-10c4.4-0.1,8.8-0.4,13.2-0.8c0.3,9.8,0,9.2,1.1,9.6
				c0,0.1,0,0.2,0,0.3c0,0.9,0.8,1.1,1.4,0.9c0.2,0.1,0.1,0,0.2,0.1c0.8,1.7,1.7,1.7,2.2,1.2c0.7,0.5,1.6,0.7,1.7-0.1
				c0-0.1,0-0.2,0-0.3c1.6,0.6,1.4-0.4,1.4-1.9c1.1,0.1,2,0,2-0.4C640.2,762.4,640.9,755.3,631.1,753.8z M618.4,765.5
				c4.2-3.8,4.8-3.2,10.3-3.5c0.2,0,0.3,0.1,0.5,0.2c1.1,3.1,1.5,9.3,1.6,12.6c-4.5,0.8-9,1.6-13.5,2.3
				C617,772.1,616.4,767.3,618.4,765.5z"/>
			<path class="st2" d="M454.2,762.8c4.1-0.5,17.3-3.1,17.3-3.1s1.2-4.1,0.7-4.5c-0.8-0.5-2.1-0.5-3.2-0.5c0-0.5-0.4-1-0.9-1
				c-0.2,0-0.3,0-0.5,0c-0.3-0.3-0.6-0.2-1.1-0.2c-0.2-0.1-16.5,1.3-16.8,1.3c0.1,0,0.2,0.2,0.3,0.4c-0.3,0-0.5,0-0.8,0.1
				c-0.3-0.4-0.8-0.5-1.1-0.2c-0.2-0.3-0.6-0.4-0.6,0c0,0.2,0,0.4,0,0.6c0,0,0,0,0,0c-0.1-0.4-0.5-0.5-0.6,0.2c0,0,0,0,0,0
				c0,0,0,0,0,0c-0.1-0.3-0.3-0.5-0.3-0.8c0,0.3,0,0.7-0.1,1c-0.2,0.2-0.4,0.6-0.4,0.9c0,0-0.1,0.1-0.1,0.1
				c-0.8,0.1-0.7,0.2-0.8,0.7c-0.2,0-0.4,0-0.4-0.1c-0.7,10-1.4,20-2.4,30c0,0.1,0.1,0.1,0.1,0.2c-0.1,0.9-0.2,1.1,0.7,1.3
				c0,0.2,0,0.2,0,0.3c-0.1,0.1,0,0.1,0,0.2c0.1,0.4,0.3,0.7,0.6,0.9c0,1,0.5,0.8,1.4,0.8c0.4,0.8,0.8,1.6,1.7,1.6
				c0.2,0.1,0.5,0.1,0.6,0c0.4,0.4,0.8,0.6,1.1,0.6c6.7-0.2,19.4-1.3,19.4-1.3s0.3-1,0.2-1.5c0.2,0,0.4-0.1,0.6-0.1
				c1.3-0.2,1.8-3.7,1.1-4.1c-0.7-0.3-9.9-1-17.5-1c0.4-2.5,0.7-5.1,0.9-7.6c2.8-0.2,6.1-0.5,7.2-0.6c0.6,0,0.8-0.3,0.8-0.6
				c0.2,0,0.4,0,0.6,0c0.7-0.1,0.6-1,0.6-1s0.4,0,0.6-0.1c1.3-0.1,2-4.3,1.4-4.6c-0.6-0.3-6.6-0.8-10.9-1.1
				C453.8,768.1,453.8,768.5,454.2,762.8z M449.7,756C449.6,756,449.6,756,449.7,756c-0.1-0.1-0.1-0.2-0.1-0.3
				C449.6,755.8,449.6,755.9,449.7,756z"/>
			<path class="st2" d="M420.8,756.8c-1.2-0.6-2.4-1.1-3.6-1.5c-3.6-1.2-6.6-1.1-8.8-1.1c-2.3-0.1-4.6,0-7,0.2
				c-0.4,0-0.5,0.2-0.5,0.4c-0.1,0.1-0.1,0.2-0.1,0.3c-0.4,0-0.7,0-0.5,0.3c-0.1,0-0.1,0-0.1,0c-0.8,0.1-0.6,0,0,0.2
				c0,0.2,0,0.4,0,0.6c-0.1,0.1-0.1,0.2-0.2,0.3c-1.1,0.1-0.9,0,0,0.1c0,0.1-0.1,0.3-0.1,0.4c-0.1,0.1-0.2,0.2-0.3,0.4
				c-0.2,0-0.3,0.1-0.3,0.3c-0.3,0-0.2,0,0,0.1c0,0,0,0.1,0,0.1c-0.2,0-0.4,0-0.4,0c-0.1,6-0.2,26.9,0,27.9c0,1.2-0.2,1.4,0.8,1.6
				c0,0.9,0.2,1.5,1.2,1.3c0.1,0,0.2,0,0.2,0c0.6,0.9,1.3,1.8,2.1,1.1c0.8,0.6,1.8,0.8,1.8-0.2c2.1,1,1.7-0.4,1.8-1.9
				c0.9,0,1.6-0.1,1.6-0.5c0-0.6,0-1.2,0-1.8c0.1-0.1,0.2-0.3,0.2-0.5c-0.2-17.7,0.2-16.4-0.2-22.4c3.6,0,7.2,0.6,10.4,2.3
				c1.7,1.4,2.7,2.5,3,5c0.5,1.2,0.7,2.3,0.2,4.9c-3,9.2-11.5,12.5-12.1,13.5c-1.4,0.9-1.9,1-0.7,1.3c0,0.1,0.1,0.2,0.1,0.2
				c0,0,0,0,0,0c-0.9,0.5-1.4,0.8-0.4,0.6c0,0,0,0,0,0c-0.1,0.1-0.1,0.1,0,0.1c0,0.1-0.1,0.2-0.1,0.2c-0.2,0.1-0.4,0.2-0.6,0.3
				c0,0,0.3,0.3,0.7,0.6c0,0,0,0.1,0,0.1c-0.2,0.1-0.4,0.3-0.6,0.4c-0.2,0.1,0.7,0.5,1.3,0.6c0,0,0,0,0,0c-0.1,0.1-0.2,0.1-0.3,0.2
				c-0.3,0.2-0.1,0.8,0.2,1c0.2,0.1,0.7,0.1,1-0.1c0.4,0.8,1.2,1.4,1.9,1c0.9,0.6,1,0.4,1.8-0.1c0.4,0.2,0.8,0.2,1,0.1
				c4.7-2.8,9.3-5.9,12.4-10.3C435.4,775.2,434.8,760.7,420.8,756.8z"/>
			<path class="st2" d="M386.4,788.9c-0.1-10.4-0.1-20.8-0.1-31.3c0-1.3-2.9-1-3.9-1c-0.1-0.2-0.2-0.3-0.3-0.4
				c-0.1-1-0.8-1.1-1.8-0.9c-0.3-0.3-0.6-0.3-1.1-0.1c-0.4-0.3-0.9-0.3-0.9,0.3c0,0.1,0,0.3,0,0.4c-0.1,0-0.1,0-0.2,0
				c-0.5-0.4-0.5-0.1-0.5,0.3c-0.3-0.1-0.6-0.2-0.6-0.2c0,0.2,0,0.5,0,0.7c-0.1,0.1-0.1,0.2-0.1,0.3c-0.1-0.1-0.2-0.1-0.2-0.2
				c0,1.4,0,0.3,0,1.5c-0.2,0-0.4,0.1-0.4,0.2c0,7.1,0,14.1,0.1,21.2c-5.5-6.6-8.9-11.1-12.5-18.9c-0.8-0.6-1.3-0.5-2.3-0.6
				c0.1-3.4,0.9-3.5-4.8-3.8c-0.1-0.7-0.5-1.1-1.3-1c-0.3-0.4-1-0.2-1.2,0.1c-0.5-0.5-0.4-0.3-0.4,0.4c-0.1,0-0.1,0-0.2,0.1
				c-0.4-0.6-0.3-0.2-0.4,0.5c0,0-0.1,0.1-0.1,0.1c-0.4,0.1-0.6,0.5-0.6,0.9c0,0,0,0.1-0.1,0.1c-0.4,0.2-0.4,0.2-0.4,0.9
				c-0.2,0-0.4,0.1-0.4,0.1c-0.2,3.8-0.9,31.3-0.1,31.8c0,0.9-0.1,1.2,0.7,1.3c0,1.2,0.6,1.6,1.3,1.5c0.2,0.2,0.4,0.3,0.6,0.3
				c0.6,0.9,0.7,1.2,1.6,2c0.7,0.4,1.2,0.1,1.3-0.5c1.7,1.1,1.6,0.2,1.6-0.8c1.3,0.3,1-0.6,1-2.3c1.8,0.2,1.5-0.3,1.4-2.2
				c0.2-0.1,0.3-0.3,0.3-0.6c-0.1-4.5-0.2-8.9-0.2-13.4c4,5.6,8.7,10.8,13.1,16c0.2,0.2,0.5,0.1,0.9,0c0.1,0.1,0.2,0.1,0.3,0.2
				c0.9,1,2,2.6,2.7,1.5c0.5,0.5,1.4,1,1.9,0.6c0.2,0,0.5-0.1,0.7-0.2c0.9,0.7,2,1.1,2.1,0c2.1,1,1.8-0.2,1.8-1.9
				c1.7,0.1,1.4-0.5,1.4-2.4C386.3,789.3,386.4,789.2,386.4,788.9z"/>
			<path class="st2" d="M725.2,756.8c-1.2-0.6-2.4-1.1-3.6-1.5c-3.6-1.2-6.6-1.1-8.8-1.1c-2.3-0.1-4.6,0-7,0.2
				c-0.4,0-0.5,0.2-0.5,0.4c-0.1,0.1-0.1,0.2-0.1,0.3c-0.4,0-0.7,0-0.5,0.3c-0.1,0-0.1,0-0.1,0c-0.8,0.1-0.6,0,0,0.2
				c0,0.2,0,0.4,0,0.6c-0.1,0.1-0.1,0.2-0.2,0.3c-1.1,0.1-0.9,0,0,0.1c0,0.1-0.1,0.3-0.1,0.4c-0.1,0.1-0.2,0.2-0.3,0.4
				c-0.2,0-0.3,0.1-0.3,0.3c-0.3,0-0.2,0,0,0.1c0,0,0,0.1,0,0.1c-0.2,0-0.4,0-0.4,0c-0.1,6-0.2,26.9,0,27.9c0,1.2-0.2,1.4,0.8,1.6
				c0,0.9,0.2,1.5,1.2,1.3c0.1,0,0.2,0,0.2,0c0.6,0.9,1.3,1.8,2.1,1.1c0.8,0.6,1.8,0.8,1.8-0.2c2.1,1,1.7-0.4,1.8-1.9
				c0.9,0,1.6-0.1,1.6-0.5c0-0.6,0-1.2,0-1.8c0.1-0.1,0.2-0.3,0.2-0.5c-0.2-17.7,0.2-16.4-0.2-22.4c3.6,0,7.2,0.6,10.4,2.3
				c1.7,1.4,2.7,2.5,3,5c0.5,1.2,0.7,2.3,0.2,4.9c-3,9.2-11.5,12.5-12.1,13.5c-1.4,0.9-1.9,1-0.7,1.3c0,0.1,0.1,0.2,0.1,0.2
				c0,0,0,0,0,0c-0.9,0.5-1.4,0.8-0.4,0.6c0,0,0,0,0,0c-0.1,0.1-0.1,0.1,0,0.1c0,0.1-0.1,0.2-0.1,0.2c-0.2,0.1-0.4,0.2-0.6,0.3
				c0,0,0.3,0.3,0.7,0.6c0,0,0,0.1,0,0.1c-0.2,0.1-0.4,0.3-0.6,0.4c-0.2,0.1,0.7,0.5,1.3,0.6c0,0,0,0,0,0c-0.1,0.1-0.2,0.1-0.3,0.2
				c-0.3,0.2-0.1,0.8,0.2,1c0.2,0.1,0.7,0.1,1-0.1c0.4,0.8,1.2,1.4,1.9,1c0.9,0.6,1,0.4,1.8-0.1c0.4,0.2,0.8,0.2,1,0.1
				c4.7-2.8,9.3-5.9,12.4-10.3C739.8,775.2,739.2,760.7,725.2,756.8z"/>
			<path class="st2" d="M688.8,788.9c-0.1-10.4-0.1-20.8-0.1-31.3c0-1.3-2.9-1-3.9-1c-0.1-0.2-0.2-0.3-0.3-0.4
				c-0.1-1-0.8-1.1-1.8-0.9c-0.3-0.3-0.6-0.3-1.1-0.1c-0.4-0.3-0.9-0.3-0.9,0.3c0,0.1,0,0.3,0,0.4c-0.1,0-0.1,0-0.2,0
				c-0.5-0.4-0.5-0.1-0.5,0.3c-0.3-0.1-0.6-0.2-0.6-0.2c0,0.2,0,0.5,0,0.7c-0.1,0.1-0.1,0.2-0.1,0.3c-0.1-0.1-0.2-0.1-0.2-0.2
				c0,1.4,0,0.3,0,1.5c-0.2,0-0.4,0.1-0.4,0.2c0,7.1,0,14.1,0.1,21.2c-5.5-6.6-8.9-11.1-12.5-18.9c-0.8-0.6-1.3-0.5-2.3-0.6
				c0.1-3.4,0.9-3.5-4.8-3.8c-0.1-0.7-0.5-1.1-1.3-1c-0.3-0.4-1-0.2-1.2,0.1c-0.5-0.5-0.4-0.3-0.4,0.4c-0.1,0-0.1,0-0.2,0.1
				c-0.4-0.6-0.3-0.2-0.4,0.5c0,0-0.1,0.1-0.1,0.1c-0.4,0.1-0.6,0.5-0.6,0.9c0,0,0,0.1-0.1,0.1c-0.4,0.2-0.4,0.2-0.4,0.9
				c-0.2,0-0.4,0.1-0.4,0.1c-0.2,3.8-0.9,31.3-0.1,31.8c0,0.9-0.1,1.2,0.7,1.3c0,1.2,0.6,1.6,1.3,1.5c0.2,0.2,0.4,0.3,0.6,0.3
				c0.6,0.9,0.7,1.2,1.6,2c0.7,0.4,1.2,0.1,1.3-0.5c1.7,1.1,1.6,0.2,1.6-0.8c1.3,0.3,1-0.6,1-2.3c1.8,0.2,1.5-0.3,1.4-2.2
				c0.2-0.1,0.3-0.3,0.3-0.6c-0.1-4.5-0.2-8.9-0.2-13.4c4,5.6,8.7,10.8,13.1,16c0.2,0.2,0.5,0.1,0.9,0c0.1,0.1,0.2,0.1,0.3,0.2
				c0.9,1,2,2.6,2.7,1.5c0.5,0.5,1.4,1,1.9,0.6c0.2,0,0.5-0.1,0.7-0.2c0.9,0.7,2,1.1,2.1,0c2.1,1,1.8-0.2,1.8-1.9
				c1.7,0.1,1.4-0.5,1.4-2.4C688.7,789.3,688.8,789.2,688.8,788.9z"/>
			<path class="st2" d="M515.1,790.9c-0.5-6.7-3.1-12.9-9-16.2c1.2-1.1,2.3-2.3,3-3.8c2.3-2.7,3.3-6.1,1.6-9.3
				c-0.4-3.6-3.5-5.6-7.2-6.4c-2.1-1.4-5.2-1.9-7.3-1.9c-3-0.3-5.9,0.7-8.6,1.9c-0.2-0.6-0.7-0.6-1.3-0.5c-0.3-0.4-0.9-0.2-1.2,0.1
				c-0.6-0.5-0.5-0.2-0.5,0.5c-0.1,0-0.1,0-0.2,0.1c-0.5-0.6-0.4-0.2-0.4,0.6c0,0,0,0,0,0c-0.3,0.1-0.5,0.4-0.6,0.9
				c-0.7,0.2-0.5,0.2-0.5,0.9c-0.2,0-0.4,0-0.4,0.1c0,0.4,1.3,33.1,1.5,33.5c0.1,1.1-0.1,1.2,0.8,1.3c0,0.2,0,0.3,0,0.5
				c0,0.7,0.7,0.9,1.2,0.8c0.1,0,0.1,0,0.2,0c0.6,0.9,1.4,1.8,2.2,1.1c0.9,0.7,2.1,1.1,2.1-0.1c2.1,0.9,1.7-0.4,1.6-2.1
				c1.8,0,1.5-0.3,1.4-2.2c0.2-0.2,0.3-0.3,0.3-0.6c-0.2-3.4-0.3-6.8-0.4-10.1c0.3,0.1,0.6,0,0.9-0.1c0.2,0,0.3,0,0.5,0.1
				c0.6,0.3,0.8,0.3,1.2,0.2c1.8,0.2,3.6,0.9,5.2,1.9c0.8,1,3.4,3.2,4,10.8c0,0.3,0.3,0.5,0.7,0.6c0.1,1,0.2,1.7,1.4,1.4
				c0.1,0.1,0.2,0.1,0.3,0.1c0.4,0.7,0.9,1.4,1.3,1.6c0.4,0.2,1,0.2,1.2-0.2c0.4,0.3,2.1,1.6,2.1,0.3c0-0.2,0-0.4,0-0.6
				c1.5,0.6,1.3-0.5,1-2.3c2,0.4,1.7-0.2,1.5-2C515,791.5,515.1,791.3,515.1,790.9z M497.3,762.4c1.3,0,3,0.1,4.3,0.5
				c0.3,0.4,0.2,1.3,0.2,1.8c-1,2.4-2.7,4-8.1,6.4c0,0-0.6,0-0.6,0c-0.1-2.7-0.2-5.4-0.3-8.1C495.3,762.9,495.9,762.6,497.3,762.4z"
				/>
			<path class="st2" d="M552.8,773.2c-0.1-0.6-1.3-0.7-1.9-0.7c-0.6-0.4-0.4-0.2-2.2-1c-0.3-0.7-0.9-0.5-1.6-0.5
				c-1.9-0.4-8.3-0.3-12.4-1.4c0,0,0,0-0.1-0.1c-0.2-0.5-0.3-1-0.5-1.5c0.2-0.7,0.4-1.2,1.2-2c4.4-2.3,10.2-2.8,15-3.5
				c0.3-0.1,0.5-0.2,0.6-0.4c0.9-0.1,1.2-0.7,1-1.3c0.4,0,0.7-0.1,1.1-0.1c0.8-0.1,1-1.2,0.1-1.7c0.2-0.1,0.3-0.3,0.3-0.5
				c0.3-1.3-1.5-1.1-2.8-1.1c0-0.5-0.3-1.2-0.8-1.2c-0.2,0-0.5-0.1-0.7-0.1c-0.5-0.3-2.8-0.3-3.5-0.2c-0.2-0.9-1.5-1-2.4-0.9
				c-0.1-0.4-0.4-1.1-0.8-1c-0.2,0-0.3,0.1-0.5,0.1c-0.2-0.2-0.3-0.3-0.4-0.2c-0.3,0-0.6,0.1-0.9,0.1c-0.4-0.2-5.1,0.5-8.3,2.4
				c-2,1.2-7.9,5.5-8.5,10c-0.4,1.1-0.6,2.2-0.5,3.3c-0.2,1.6,0.2,2.9,1.2,4c0.7,1.7,2.1,2.6,3.7,3.1c1.6,1.2,3.1,1.4,4.7,1.5
				c2,0.3,8,0.2,10,0.2c0.4,0.2,1,0.3,1.4,0.3c0.6,0.3,2,0.2,2.5,0.3c0.1,0.1,0.2,0.1,0.2,0.2c0.2,0.6,0.6,1.4,0.7,2
				c-1.8,6-6.9,4.9-7.9,5.2c-0.1,0-0.9,0-0.9,0c-6.1-1.3-5.3-3.4-7.6-2c-0.5-0.3-1-0.2-1.5,0.1c-0.8-0.4-1.5,0.2-1.6,1
				c-0.4,0-0.8,0-0.9,0.1c-0.2,0.2-0.4,0.5,0,0.6c0.1,0.1,0.2,0.1,0.3,0.2c0,0.1,0,0.2,0.1,0.4c-1.2,0.5-0.8,0.5-0.5,0.7
				c0,0.1-0.1,0.1,0,0.3c0,0,0,0.1,0,0.1c-0.4-0.3-0.6-0.2,0,0.3c0,0,0,0,0,0c0,0.2,0.1,0.3,0.2,0.4c-0.1,0.1-0.1,0.3,0,0.4
				c-1.2,0-0.5,0.3,0.6,0.8c-1,0.8,0.3,1.2,1.7,1.8c1.6,1.3,8.9,3.9,14.8,2.3c3.5-0.6,4.5-1.7,5.5-2.1c1-0.4,1.9-0.9,2.7-1.6
				C559.8,787,559.8,775.5,552.8,773.2z"/>
			<path class="st2" d="M601,756.6c-0.8-0.1-1.6-0.2-2.4-0.2c-0.1-0.1-0.1-0.2-0.2-0.2c0.1-1.2-0.6-1-1.7-1
				c-0.1-0.1-0.2-0.1-0.3-0.1c-0.3,0-0.6,0-0.9,0c-0.5-0.2-28.5,0-29.1,0c-0.2,0-0.2,0.3,0,0.6c-0.6,0-0.8-0.1-0.7,0.3
				c-0.2,0-0.5,0-0.7,0c0.2,0,0.5,0.2,0.7,0.5c0,0,0,0,0,0c-0.3,0.1-0.5,0.5-0.6,0.9c-0.6,0.2-1.1,0.1,0,0.1c0,0.1,0,0.1,0,0.2
				c-0.2,0-0.3,0.1-0.4,0.2c-0.1,0.1-0.3,0.3,0.1,0.3c0,0,0.1,0,0.1,0c0,0,0,0,0,0.1c-0.2,0-0.4,0-0.5,0c-0.3,0-0.3,0.2,0,0.3
				c0.1,0.1,0.3,0.1,0.4,0.1c0,0.1,0,0.3,0.1,0.4c0,0,0,0-0.1,0c-0.3,0-0.6,0-0.5,0.4c0.1,0.2,0.4,0.2,0.8,0.3
				c0,0.1-0.1,0.1-0.1,0.2c-0.1,0.5,0.1,1.4,0.7,1.4c0.3,0,0.8,0.1,1,0.1c0.5,1,1.2,2.3,2,2.4c3.1,0.3,6.2,0.5,9.2,0.6
				c-0.4,8.2-1,16.4-1.7,24.6c0,0.1,0,0.2,0.1,0.3c-0.1,0.9-0.2,1.3,0.7,1.5c0,1.5,0.7,2,1.4,1.8c0.2,0.2,0.4,0.3,0.7,0.3
				c0.9,1.5,1.1,2.1,2,2.4c0.4,0.1,0.7-0.1,0.8-0.4c0-0.2,0-0.4,0-0.6c1.3,0.8,1.3,0,1.3-1c1.2,0.4,1-0.6,1.1-2.3
				c1.6,0.3,1.4-0.3,1.5-2.3c0.6-0.7,1.8-22.3,1.8-24c10.2,0.1,10.5,0.2,10.5-0.8c1,0,1.7,0,1.2-1.2c0.2,0,0.5,0,0.7,0
				c1.3,0,0.3-1.4-0.6-2.3c0.6,0,1.2,0,1.7,0c1.1,0,1.3-0.9,0.5-1.5c-0.3-0.2-0.6-0.3-0.8-0.4C604.1,758.3,602.7,756.6,601,756.6z"
				/>
			<path class="st2" d="M337.2,757.1C337.2,757.1,337.2,757.1,337.2,757.1c0-0.3,0-0.5,0.1-0.7c0.1-1-0.8-1-1.7-0.6
				c-0.5-0.5-0.9-0.4-1.2-0.2c-0.5-0.2-1.2-0.1-1.3,0.6c0,0.1,0,0.2,0,0.3c-0.1,0-0.2,0-0.3,0.1c-1,0-0.8,0.1-1.1,2.1
				c-0.1,0-0.1,0-0.1,0c-3.7,25.1-3.1,27.1-9.5,28.4c-0.5-0.1-1.1-0.1-1.6-0.3c-7.3-4.9-1.1-8.5-2.2-27.9c0-0.5-0.3-0.9-0.7-1.2
				c-0.3-1.3-0.1-2-3.1-1.9c-0.1-0.4-0.2-0.8-0.5-1c-0.2-0.1-0.7-0.1-1,0.2c-0.6-0.6-0.6-0.1-0.7,0.8c0,0,0,0,0,0
				c-0.4-0.7-0.5-0.4-0.5,0.1c-0.3-0.2-0.5-0.4-0.5-0.6c-0.1,0.6-0.2,1.3-0.3,1.9c-0.4,0-0.6,0.1-0.7,0.2c-0.4,2.7-0.8,5.4-1.1,8.2
				c0,0,0,0,0,0c-0.1,0.7-0.2,1.4-0.3,2.1c-0.2,0-0.3,0-0.4,0.1c-1.7,12.1-2.6,16.2,0.1,19.6c1.2,2.4,3.5,4.1,5.9,5.1
				c1.7,1.1,3.6,1.8,5.8,2c1.9,0.5,3.9,0.5,5.8,0c3.9-0.3,7-2.4,8.4-5.1c1.7-1.7,2.6-3.9,3-6.3c1.3-7.7,2.5-15.5,3.7-23.2
				c0-0.2,0-0.3-0.1-0.5C341.5,756.8,342,756.9,337.2,757.1z"/>
		</g>
		<g>
			<path class="st2" d="M413.9,877.4c-0.1-2.9-1.3-6-3.9-7.1c-0.9-0.4-2-0.6-3.1-0.7c-0.3-0.2-0.6-0.4-0.9-0.6
				c4.4-2.9,9.2-8.1,6.4-12.6c-0.4-3-2.3-4.3-5.3-4.7c-0.9-0.9-2.1-1.3-3.5-1.3c-5.2-1.1-8.6,1.3-13.9,4.3c-0.2,0.1-0.2,0.3-0.1,0.4
				c-0.1,0-0.6,0.3-0.6,0.4c-0.3-0.2-0.7-0.2-1-0.1c-0.2-0.2-0.5-0.3-1,0c-0.8-0.5-0.7-0.2-0.7,0.7c0,0-0.1,0-0.1,0
				c-0.6-0.4-0.5-0.2-0.5,0.4c0,0-0.1,0-0.1,0c0-0.2,0-0.2,0,0c-0.3-0.1-0.6-0.1-0.6-0.1c0,0.5,0,1.1,0,1.6
				c-0.2,0.1-0.2,0.1-0.2,0.4c-0.6-0.1-0.4-0.2-0.4,2.1c-0.2,17.3-1.3,14.3-0.9,21.9c0.1,0.2-0.1,0.2,0.2,0.5
				c0.1,0.1,0.4,0.3,0.7,0.4c0,0.2,0,0.3,0,0.4c-0.2,0.1-0.2,0.2,0.1,0.3c0,0,0,0.1,0,0.1c-0.3-0.1-0.6-0.1-0.6,0
				c-0.2,0.4,0.2,0.4,0.6,0.6c0,0,0,0.1,0,0.1c-0.7,0-0.9,0.7-0.5,0.8c0.2,0.1,0.4,0.2,0.7,0.2c-0.2,1.4,0.8,1.6,1.9,1.9
				c0.5,0.9,1.1,1.9,1.9,2.1c2.1,0.6,4.2,1.2,6.3,1.6c6.5,2.1,14.9,0,17.4-5.7C414.5,883.5,414.8,880.6,413.9,877.4z M403.3,858.4
				c0,0.3,0,0.6-0.1,0.8c-0.8,1.5-2.2,2.6-3.5,3.4c-0.7,0.8-0.7,0.8-1.5,1.3c-2.2,2.1-3.1,2.5-4.2,3c0-1.7,0-4,0-5.5
				C398.5,859.6,400.8,858.7,403.3,858.4z M404.5,880.2c-0.6,1.2-1.2,1.9-3.1,2.6c-2.9,1.2-5.4,1-8-0.1c0-0.1,0-0.1-0.1-0.2
				c-0.4-0.4-0.7-0.7-1.5-1c0.9-0.2,1.7-0.5,1.1-1.2c0.7-0.2,1.1-0.7,1.3-1.4c0.2,0.1,0.4,0.2,0.6,0.2c2.3-0.7,7.1-2.4,9.4-1.8
				c0.1,0.4,0.3,0.9,0.3,1.3c0,0,0,0.1,0,0.1C404.7,879.1,404.6,879.8,404.5,880.2z"/>
			<path class="st2" d="M438,860.1c4.1-0.5,17.3-3.1,17.3-3.1s1.2-4.1,0.7-4.5c-0.8-0.5-2.1-0.5-3.2-0.5c0-0.5-0.4-1-0.9-1
				c-0.2,0-0.3,0-0.5,0c-0.3-0.3-0.6-0.2-1.1-0.2c-0.2-0.1-16.5,1.3-16.8,1.3c0.1,0,0.2,0.2,0.3,0.4c-0.3,0-0.5,0-0.8,0.1
				c-0.3-0.4-0.8-0.5-1.1-0.2c-0.2-0.3-0.6-0.4-0.6,0c0,0.2,0,0.4,0,0.6c0,0,0,0,0,0c-0.1-0.4-0.5-0.5-0.6,0.2c0,0,0,0,0,0
				c0,0,0,0,0,0c-0.1-0.3-0.3-0.5-0.3-0.8c0,0.3,0,0.7-0.1,1c-0.2,0.2-0.4,0.6-0.4,0.9c0,0-0.1,0.1-0.1,0.1
				c-0.8,0.1-0.7,0.2-0.8,0.7c-0.2,0-0.4,0-0.4-0.1c-0.7,10-1.4,20-2.4,30c0,0.1,0.1,0.1,0.1,0.2c-0.1,0.9-0.2,1.1,0.7,1.3
				c0,0.2,0,0.2,0,0.3c-0.1,0.1,0,0.1,0,0.2c0.1,0.4,0.3,0.7,0.6,0.9c0,1,0.5,0.8,1.4,0.8c0.4,0.8,0.8,1.6,1.7,1.6
				c0.2,0.1,0.5,0.1,0.6,0c0.4,0.4,0.8,0.6,1.1,0.6c6.7-0.2,19.4-1.3,19.4-1.3s0.3-1,0.2-1.5c0.2,0,0.4-0.1,0.6-0.1
				c1.3-0.2,1.8-3.7,1.1-4.1c-0.7-0.3-9.9-1-17.5-1c0.4-2.5,0.7-5.1,0.9-7.6c2.8-0.2,6.1-0.5,7.2-0.6c0.6,0,0.8-0.3,0.8-0.6
				c0.2,0,0.4,0,0.6,0c0.7-0.1,0.6-1,0.6-1s0.4,0,0.6-0.1c1.3-0.1,2-4.3,1.4-4.6c-0.6-0.3-6.6-0.8-10.9-1.1
				C437.6,865.3,437.6,865.8,438,860.1z M433.5,853.3C433.4,853.3,433.4,853.3,433.5,853.3c-0.1-0.1-0.1-0.2-0.1-0.3
				C433.4,853.1,433.4,853.2,433.5,853.3z"/>
			<path class="st2" d="M550.5,860.1c4.1-0.5,17.3-3.1,17.3-3.1s1.2-4.1,0.7-4.5c-0.8-0.5-2.1-0.5-3.2-0.5c0-0.5-0.4-1-0.9-1
				c-0.2,0-0.3,0-0.5,0c-0.3-0.3-0.6-0.2-1.1-0.2c-0.2-0.1-16.5,1.3-16.8,1.3c0.1,0,0.2,0.2,0.3,0.4c-0.3,0-0.5,0-0.8,0.1
				c-0.3-0.4-0.8-0.5-1.1-0.2c-0.2-0.3-0.6-0.4-0.6,0c0,0.2,0,0.4,0,0.6c0,0,0,0,0,0c-0.1-0.4-0.5-0.5-0.6,0.2c0,0,0,0,0,0
				c0,0,0,0,0,0c-0.1-0.3-0.3-0.5-0.3-0.8c0,0.3,0,0.7-0.1,1c-0.2,0.2-0.4,0.6-0.4,0.9c0,0-0.1,0.1-0.1,0.1
				c-0.8,0.1-0.7,0.2-0.8,0.7c-0.2,0-0.4,0-0.4-0.1c-0.7,10-1.4,20-2.4,30c0,0.1,0.1,0.1,0.1,0.2c-0.1,0.9-0.2,1.1,0.7,1.3
				c0,0.2,0,0.2,0,0.3c-0.1,0.1,0,0.1,0,0.2c0.1,0.4,0.3,0.7,0.6,0.9c0,1,0.5,0.8,1.4,0.8c0.4,0.8,0.8,1.6,1.7,1.6
				c0.2,0.1,0.5,0.1,0.6,0c0.4,0.4,0.8,0.6,1.1,0.6c6.7-0.2,19.4-1.3,19.4-1.3s0.3-1,0.2-1.5c0.2,0,0.4-0.1,0.6-0.1
				c1.3-0.2,1.8-3.7,1.1-4.1c-0.7-0.3-9.9-1-17.5-1c0.4-2.5,0.7-5.1,0.9-7.6c2.8-0.2,6.1-0.5,7.2-0.6c0.6,0,0.8-0.3,0.8-0.6
				c0.2,0,0.4,0,0.6,0c0.7-0.1,0.6-1,0.6-1s0.4,0,0.6-0.1c1.3-0.1,2-4.3,1.4-4.6c-0.6-0.3-6.6-0.8-10.9-1.1
				C550.1,865.3,550.1,865.8,550.5,860.1z M546,853.3C545.9,853.3,545.9,853.3,546,853.3c-0.1-0.1-0.1-0.2-0.1-0.3
				C545.8,853.1,545.9,853.2,546,853.3z"/>
			<path class="st2" d="M642.5,860.1c4.1-0.5,17.3-3.1,17.3-3.1s1.2-4.1,0.7-4.5c-0.8-0.5-2.1-0.5-3.2-0.5c0-0.5-0.4-1-0.9-1
				c-0.2,0-0.3,0-0.5,0c-0.3-0.3-0.6-0.2-1.1-0.2c-0.2-0.1-16.5,1.3-16.8,1.3c0.1,0,0.2,0.2,0.3,0.4c-0.3,0-0.5,0-0.8,0.1
				c-0.3-0.4-0.8-0.5-1.1-0.2c-0.2-0.3-0.6-0.4-0.6,0c0,0.2,0,0.4,0,0.6c0,0,0,0,0,0c-0.1-0.4-0.5-0.5-0.6,0.2c0,0,0,0,0,0
				c0,0,0,0,0,0c-0.1-0.3-0.3-0.5-0.3-0.8c0,0.3,0,0.7-0.1,1c-0.2,0.2-0.4,0.6-0.4,0.9c0,0-0.1,0.1-0.1,0.1
				c-0.8,0.1-0.7,0.2-0.8,0.7c-0.2,0-0.4,0-0.4-0.1c-0.7,10-1.4,20-2.4,30c0,0.1,0.1,0.1,0.1,0.2c-0.1,0.9-0.2,1.1,0.7,1.3
				c0,0.2,0,0.2,0,0.3c-0.1,0.1,0,0.1,0,0.2c0.1,0.4,0.3,0.7,0.6,0.9c0,1,0.5,0.8,1.4,0.8c0.4,0.8,0.8,1.6,1.7,1.6
				c0.2,0.1,0.5,0.1,0.6,0c0.4,0.4,0.8,0.6,1.1,0.6c6.7-0.2,19.4-1.3,19.4-1.3s0.3-1,0.2-1.5c0.2,0,0.4-0.1,0.6-0.1
				c1.3-0.2,1.8-3.7,1.1-4.1c-0.7-0.3-9.9-1-17.5-1c0.4-2.5,0.7-5.1,0.9-7.6c2.8-0.2,6.1-0.5,7.2-0.6c0.6,0,0.8-0.3,0.8-0.6
				c0.2,0,0.4,0,0.6,0c0.7-0.1,0.6-1,0.6-1s0.4,0,0.6-0.1c1.3-0.1,2-4.3,1.4-4.6c-0.6-0.3-6.6-0.8-10.9-1.1
				C642.1,865.3,642.1,865.8,642.5,860.1z M638,853.3C637.9,853.3,637.9,853.3,638,853.3c-0.1-0.1-0.1-0.2-0.1-0.3
				C637.9,853.1,637.9,853.2,638,853.3z"/>
			<path class="st2" d="M522.7,855.7c0.1-1.3-2.9-1.2-3.5-1.3c-0.2,0-0.8-0.1-1.5-0.1c-0.1-0.7-0.7-1-1.3-1
				c-0.3-0.4-0.9-0.2-1.1,0.2c-0.6-0.5-0.5-0.3-0.6,0.4c-0.1,0-0.1,0.1-0.2,0.1c-0.4-0.4-0.3-0.4-0.4,0.6c-0.2,0.1-0.4,0.4-0.4,0.7
				c-0.4,0-0.7-0.1-0.7-0.1c0,0.4-0.1,0.8-0.1,1.1c-0.4,0-2.7,30.7-2,31.3c0,1-0.2,1.2,0.8,1.3c0,0.9,0.2,1.6,1.2,1.4
				c0.1,0,0.1,0.1,0.3,0.1c0.6,1,1.6,2.2,2.4,1.3c0.9,0.7,2.1,1.3,2.1,0.2c0-0.1,0-0.2,0-0.4c1.6,0.6,1.3-0.5,1.3-2.2
				c1.7,0.2,1.4-0.4,1.4-2.4c0.1-0.1,0.2-0.3,0.2-0.5C521,876.1,522,865.9,522.7,855.7z"/>
			<path class="st2" d="M497.7,886.1c-0.3-0.1-0.6-0.2-0.9-0.3c0.3-0.1,0.6-0.1,0.9-0.2c1.2-0.3,1.3-2.4-3.6-1.6c0,0,0,0,0,0
				c0.3-0.5-0.1-1.6-0.7-1.5c-0.3,0.1-0.5,0.1-0.8,0.2c-0.4-0.4-0.6-0.3-1.1-0.2c-0.2-0.1-0.5-0.2-0.7-0.1
				c-4.5,1.1-6.3,1.6-10.1,1.7c-1.8-1.6-1.9-4.2-1.8-6.5c0.7-9.2-0.1-11.4,0.1-20.9c0-0.5-0.3-0.9-0.8-1.3c-0.2-1.5,0.2-2.3-4-2.4
				c-0.1-0.7-0.6-1.1-1.1-1c-0.3-0.4-1-0.2-1,0.3c-0.7-0.6-0.6-0.5-0.6,0.3c-0.1,0-0.1,0.1-0.2,0.2c-0.5-0.5-0.4-0.5-0.4,0.5
				c-0.2,0.1-0.3,0.3-0.3,0.6c-0.4-0.2-0.7-0.3-0.7-0.5c0,0.4,0,0.7,0,1.1c0,0.1,0,0.3,0,0.4c-0.2,0-0.4,0-0.4,0
				c-0.5,26.4-1.1,28.4,1.2,31.3c0.7,1.6,1.7,2.7,3.6,3.4c1.4,1.2,3,1.6,4.8,1.9c4.7,1.4,10.4-0.4,14.9-1.5c0.1,0,0.3-0.1,0.4-0.2
				c1.3-0.4,2.3-0.4,1.4-1.6c0.6-0.1,1.2-0.3,1.7-0.4C498.3,887.4,498.6,886.7,497.7,886.1z"/>
			<path class="st2" d="M614.5,857c0-0.2-0.1-0.3-0.3-0.4c0.4-1.3-0.7-1.4-1.9-1c-0.4-0.3-0.7-0.3-1.2,0c-0.8-0.3-1.2,0.1-1.4,0.8
				c-0.1,0-0.3,0.1-0.4,0.2c-0.3,0-0.6,0-0.6,0.1c-3.2,8.8-6.4,16.3-11.7,24c-3.9-8.2-4.3-13-8.9-22.7c-0.3-0.6-2.5-0.8-4.2-0.7
				c-0.4-0.9-0.5-1.4-1.6-0.9c-0.4-0.3-1-0.3-0.8,0.4c-0.7-0.7-0.6-0.8-0.4,0c-0.1,0-0.2,0.2-0.3,0.5c-0.6-0.7-0.5-0.8-0.2,0.2
				c-0.1,0.1-0.1,0.2-0.2,0.3c-0.3,0.2-0.4,0.5-0.4,0.9c0,0,0,0,0,0c-0.8,0.3-0.8,0.2-0.4,1.4c-0.3,0-0.6,0.1-0.6,0
				c2.5,8,5,16.2,8.5,23.8c0.8,1.6,1.2,3.5,2.3,4.4c1.2,2.3,1.8,2.2,2.6,2.1c0,0,0,0,0,0c0.8,1.3,1.7,2.2,3.1,1.9
				c0.5,0.4,1.1,0.7,1.8,0.6c2.6-0.4,7-6.1,8.6-8.6c5.4-8.4,8.2-14.9,11.7-24.2c0.1-0.3,0-0.6-0.3-0.8
				C618.3,857.5,619,856.6,614.5,857z"/>
		</g>
	</g>
</g>
</svg>
