<svg id="INDEX" xmlns="http://www.w3.org/2000/svg" viewBox="0 0 220 52"><defs><style>.cls-1{fill:#00aeef;}</style></defs><title>word</title><path class="cls-1" d="M29.11,5.43C26.44,3.46,18.76,2,11.86,8.22,2.85,14.39,5.22,27,5.07,25.43Q6,35.5,7.18,45.55c0,.05.29.07.64.07.14,1.24,0,1.55,1,1.38a.84.84,0,0,0,.42.11c.4.91.91,1.28,1.71.83.66.33,1.32.36,1.55-.25,1.26.29,1.18-.37,1.24-1.37,1.6.2,3,.07,3-.44-.69-6.36-.63-6-.93-10,4.42-.14,8.84-.41,13.24-.83.29,9.79,0,9.23,1.1,9.56V45a1,1,0,0,0,1.41.88c.19.08.14,0,.21.06.83,1.69,1.68,1.7,2.2,1.15.68.47,1.62.71,1.65-.13v-.26c1.58.64,1.36-.44,1.38-1.91,1.11.12,2,0,2-.37C38.21,14,38.84,6.93,29.11,5.43ZM16.36,17.12c4.24-3.76,4.77-3.18,10.27-3.52.17,0,.3.11.46.16,1.09,3.1,1.49,9.27,1.64,12.59Q22,27.54,15.25,28.6C14.92,23.72,14.32,18.93,16.36,17.12Z"/><path class="cls-1" d="M73.71,38.33c.26-.11.53-.2.78-.31,1-.44.91-1.25-.08-1.59a15.9,15.9,0,0,0-3.49,0,1.11,1.11,0,0,0-.15-.24.83.83,0,0,0,0-.76c-.33-.71-1-.58-1.62-.33a.88.88,0,0,0-1.07-.14.92.92,0,0,0-.82-.14,19.09,19.09,0,0,1-7.64,1.63h-.35c-.36,0-.7-.13-1-.2-1.72-1.12-3.72-3.09-4.2-5.36a12.74,12.74,0,0,1-.15-11.43A8.06,8.06,0,0,1,56,17.36a14.81,14.81,0,0,1,4-1.89c9.76-2.75,12.55.09,11.52-2.51l.67,0c1.58.06-.39-2.12-.46-2.2l-.16-.15c.59,0,1.19,0,1.77,0,1.1,0,1.22-.91.5-1.51-.25-.13-.5-.24-.75-.36.71-.07,1.32-.29,1.35-.88.07-1.29-2.78-1.17-3.39-1.2l-1.21,0a1,1,0,0,0-1-1.12h-.59a.74.74,0,0,0-.39-.15l-1.32,0c-6-.26-12.61.59-17.08,4.92-7.59,5.65-8.81,19.39-3.55,26a12.52,12.52,0,0,0,5.41,5.1,13.13,13.13,0,0,0,5,2.42c.6.14,1.22.25,1.84.33a20.71,20.71,0,0,0,11.6-.63A19.66,19.66,0,0,0,73,42.38c1-.44.34-1.2-.24-1.71a19.19,19.19,0,0,0,1.94-.77C75.62,39.47,74.63,38.66,73.71,38.33Z"/><path class="cls-1" d="M129,10c.09-1.3-2.86-1.24-3.48-1.28-.24,0-.83-.11-1.47-.14a1.15,1.15,0,0,0-1.28-1,.7.7,0,0,0-1.09.16c-.6-.54-.5-.32-.56.4a.28.28,0,0,0-.19.13c-.38-.4-.3-.36-.38.57a.93.93,0,0,0-.45.69l-.74-.09c0,.38-.06.75-.09,1.13-.41,0-2.67,30.73-2,31.29,0,1-.19,1.16.77,1.32,0,.95.18,1.61,1.24,1.37a.45.45,0,0,0,.27.06c.61,1,1.6,2.19,2.39,1.3.86.73,2.06,1.31,2.14.18l0-.37c1.56.58,1.32-.5,1.34-2.16,1.75.18,1.41-.44,1.44-2.37a.72.72,0,0,0,.22-.51C127.25,30.47,128.28,20.25,129,10Z"/><path class="cls-1" d="M215.4,40.59c-.12-10.42-.1-20.84-.13-31.26,0-1.33-2.93-1-3.93-1a.72.72,0,0,0-.33-.38c-.06-1-.77-1.12-1.76-.88-.31-.33-.63-.26-1.06-.08-.44-.27-.9-.31-.91.33q0,.21,0,.41h-.16c-.54-.35-.51-.12-.51.3-.33-.1-.6-.18-.6-.24,0,.23,0,.45,0,.68a.81.81,0,0,0-.14.27c-.14-.07-.24-.13-.24-.19,0,1.39,0,.27,0,1.46-.24,0-.41.07-.41.21,0,7.06,0,14.11.13,21.17-5.5-6.6-8.89-11.14-12.48-18.87-.78-.64-1.33-.52-2.31-.59.12-3.38.91-3.47-4.8-3.82-.08-.74-.45-1.09-1.31-1a.84.84,0,0,0-1.18.13c-.47-.47-.38-.27-.41.39a.4.4,0,0,0-.18.09c-.39-.58-.32-.21-.35.47l-.14.1a.9.9,0,0,0-.61.9.78.78,0,0,0-.07.13c-.45.19-.38.2-.38.87-.23,0-.4.05-.4.12-.17,3.83-.87,31.28-.12,31.85,0,.87-.13,1.16.73,1.29,0,1.24.64,1.61,1.3,1.46a.81.81,0,0,0,.63.26,10.07,10.07,0,0,0,1.57,2c.71.44,1.16.13,1.29-.48,1.69,1.12,1.63.19,1.59-.81,1.26.34,1-.64,1-2.29,1.78.24,1.46-.35,1.4-2.22a.69.69,0,0,0,.33-.59c-.12-4.45-.17-8.9-.16-13.35,4,5.6,8.67,10.79,13.08,16,.15.18.54.14.89,0a1.22,1.22,0,0,0,.29.16c.85,1,2,2.56,2.71,1.48.46.52,1.42,1,1.93.59a1,1,0,0,0,.68-.21c.88.66,2,1.08,2.1,0,2.13,1,1.84-.24,1.79-1.94,1.72.08,1.41-.47,1.38-2.4A.76.76,0,0,0,215.4,40.59Z"/><path class="cls-1" d="M170.36,15.47a4.14,4.14,0,0,0-2.75-.54l-.64-.58c-.12-.49-1.29-1-1.73-1.25.44-.21.83-.57.4-1.09-1-1.84-3.16-2.58-5.63-3a12.55,12.55,0,0,0-6.06-1.79,20,20,0,0,0-2.72-.2C147,6.9,143.13,8.9,140,11.77c-6.77,6.26-9.68,19.7-.6,28a21.7,21.7,0,0,0,4.46,2.92c6.85,4.28,21.84,3.83,27.94-7.5a14.31,14.31,0,0,0,3.27-7.32C175.65,22.51,175.71,20.08,170.36,15.47Zm-9.63,2.3a.4.4,0,0,0,.07.4c.24.18.46.37.68.56-.09,2.14.62,1,3,4.1.08.26.89,2.6.91,2.87-.26,6.35-9.76,12.92-16.15,10.84-7.07-5.16-6.34-13-3.85-16.27C150.72,14.72,153.23,16.11,160.73,17.77Z"/><path class="cls-1" d="M113,8.26c-.79-.11-1.58-.17-2.37-.21a.77.77,0,0,0-.22-.24c.08-1.25-.63-1-1.72-1a.44.44,0,0,0-.28-.14h-.9c-.47-.21-28.54,0-29.06,0-.24,0-.16.29,0,.62-.57,0-.83-.1-.7.3h-.74c.24,0,.48.23.72.48l0,0a1.13,1.13,0,0,0-.57.93c-.56.17-1.1.09,0,.14a1.18,1.18,0,0,0,0,.16.7.7,0,0,0-.36.18c-.1.14-.31.34.08.34H77s0,0,0,.05h-.54c-.26,0-.28.16,0,.26a3.39,3.39,0,0,0,.43.11.76.76,0,0,0,.06.4h-.07c-.31,0-.63,0-.52.42.05.18.41.24.75.26a1.17,1.17,0,0,0-.09.24c-.13.48.15,1.36.72,1.4l1,.08c.48,1,1.21,2.35,2,2.4,3.08.27,6.16.46,9.24.62q-.62,12.29-1.68,24.56a.41.41,0,0,0,.11.28c-.07.87-.2,1.27.69,1.53,0,1.53.74,2,1.41,1.78a.88.88,0,0,0,.74.33c.93,1.53,1.14,2.08,2,2.45a.69.69,0,0,0,.82-.45c0-.2,0-.41,0-.61,1.3.83,1.27,0,1.33-1,1.19.37,1-.59,1.14-2.28,1.64.26,1.36-.29,1.53-2.33.59-.69,1.77-22.32,1.85-24,10.17.12,10.54.2,10.55-.8,1,0,1.7,0,1.23-1.2h.69c1.26,0,.32-1.44-.56-2.3h1.74c1.08,0,1.28-.85.52-1.5-.28-.15-.56-.28-.84-.41C116.15,10,114.82,8.23,113,8.26Z"/></svg>