<?xml version="1.0" encoding="utf-8"?>
<!-- Generator: Adobe Illustrator 21.0.0, SVG Export Plug-In . SVG Version: 6.00 Build 0)  -->
<svg version="1.1" xmlns="http://www.w3.org/2000/svg" xmlns:xlink="http://www.w3.org/1999/xlink" x="0px" y="0px"
	 viewBox="0 0 1044 1044" style="enable-background:new 0 0 1044 1044;" xml:space="preserve">
<style type="text/css">
	.st0{display:none;}
	.st1{display:inline;fill:#FFFFFF;}
	.st2{fill:#00AEEF;}
</style>
<g id="BG" class="st0">
	<rect class="st1" width="1044" height="1044"/>
</g>
<g id="TEXT">
	<g>
		<g>
			<path class="st2" d="M448.5,188.8c0-9.2-0.2-18.4-0.7-27.6c0-1.7-0.1-3.4-0.1-5.1c0-0.2-0.1-0.4-0.2-0.6c0-0.6-0.1-1.1-0.1-1.7
				c-0.1-1.3-2.7-0.9-3.3-0.9c-0.2,0-0.5,0-0.8,0c0-0.1,0-0.2,0-0.3c0-1-0.9-1.1-1.6-0.9c-0.3-0.2-0.7-0.2-1-0.1
				c-0.4-0.2-0.8-0.2-0.8,0.2c0,0.2,0,0.4,0,0.6c-0.3-0.1-0.6-0.2-0.6,0.1c0,0.1,0,0.2,0,0.3c-0.3,0-0.6-0.1-0.6-0.1
				c0,0.4,0,0.7,0,1.1c-0.2,0-0.3,0.1-0.3,0.1c0,0.3,0,0.6,0,0.9c-0.1,0-0.2,0-0.2-0.1c0.1,5.8,0.1,11.6,0.3,17.5
				c-4.7,0.1-9.4,0.1-14-0.2c0.4-6.1,0.7-12.2,1.1-18.3c0.1-1.3-3-1.2-3.6-1.2c-0.2,0-0.7-0.1-1.2-0.1c0-0.9-0.8-1.2-1.5-1.1
				c-0.1-0.1-0.1-0.1-0.2-0.1c-0.2-0.1-0.7,0-0.9,0.2c-0.3-0.2-0.5-0.3-0.5-0.1c0,0.2,0,0.4,0,0.6c-0.1,0-0.1,0-0.2,0.1
				c-0.2-0.2-0.3-0.2-0.3-0.2c0,0.2,0,0.4,0,0.7c-0.3-0.2-0.6-0.3-0.6-0.5c0,0.4-0.1,0.9-0.1,1.3c-0.3,0-0.5,0-0.5,0.1
				c0,0.3,0,0.6,0,0.9c-0.1,0-0.2,0-0.2,0.1c-0.7,11.3-1.4,22.7-2,34c0,0.1,0,0.1,0.1,0.2c0,0.3,0,0.6,0,0.8c0,0.3,0.4,0.4,0.8,0.5
				c0,0.1,0,0.1,0,0.2c0,0.6,0.1,1.1,0.7,1.2c0.2,0,0.3,0,0.5,0c0,0,0,0,0.1,0c0.1,0,0.2,0,0.3,0.1c0.4,0.7,1,1.4,1.4,1.6
				c0.5,0.2,0.9,0.1,1.1-0.2c0,0,0,0,0.1,0.1c0.3,0.2,2.1,1.7,2.2,0.2c0-0.2,0-0.4,0-0.6c0.5,0.2,1,0.1,1.1-0.7
				c0-0.5,0.1-1.1,0.1-1.6c0.7,0.1,1.3,0,1.4-0.5c0-0.6,0.1-1.2,0.1-1.9c0.1-0.1,0.2-0.3,0.2-0.4c0.1-2.1,0.2-4.2,0.4-6.3
				c2.7,0.5,5.5,0.8,8.2,0.8c2.2,0.1,4.4,0.1,6.5,0c0,0.3,0,0.6,0,1c0,2.7,0.1,5.3,0.1,8c0,0.1,0.4,0.2,0.9,0.3c0,0.3,0,0.6,0,0.9
				c0,0.6,0.7,0.6,1.3,0.4c0.2,0.5,0.7,0.9,1,1c0.2,0,0.5-0.1,0.7-0.2c0.3,0.2,0.5,0.3,0.6,0.3c0.4,0.1,0.7-0.2,0.9-0.5
				c0.9,0.2,1.6,0.1,1.6-0.7c0-0.3,0-0.5,0-0.8c1.1,0.2,2.7,0.3,2.7-0.5c0-0.6,0-1.2,0-1.8C448.5,189.1,448.5,189,448.5,188.8z"/>
			<path class="st2" d="M499.5,172c0.4-1.8,0.4-3.7-0.2-5.5c-0.8-2.7-2.6-4.3-4.6-6c-0.6-0.5-1.7-0.6-2.8-0.5
				c-0.2-0.2-0.4-0.4-0.6-0.6c0-0.2-0.2-0.4-0.5-0.5c-0.4-0.2-0.8-0.5-1.3-0.7c0.4-0.2,0.8-0.6,0.4-1.1c-0.4-0.7-1-1.3-1.7-1.7
				c-1.3-0.6-2.6-1-3.9-1.3c-0.9-0.6-1.8-1-2.9-1.2c-1-0.3-2.1-0.5-3.2-0.5c-0.4-0.1-0.7-0.1-1.1-0.1c-0.5-0.1-1.1-0.1-1.6-0.1
				c-1.6,0-3.2,0.2-4.7,0.7c-1.6,0.6-3.1,1.5-4.5,2.5c-0.7,0.4-1.4,0.9-2,1.5c-2.3,2.2-4,4.8-5,7.8c-0.4,1-0.7,2.1-0.9,3.2
				c-0.5,1.9-0.6,3.9-0.3,5.8c0,0.1,0,0.2,0.1,0.3c0,0.3,0,0.5,0.1,0.8c0.3,2.4,1.3,4.6,2.7,6.5c0.7,1.3,1.7,2.5,2.9,3.6
				c1.2,1.1,2.5,1.9,3.9,2.5c0.2,0.1,0.4,0.3,0.5,0.4c2.2,1.3,4.6,2.1,7.1,2.2c2.2,0.4,4.4,0.3,6.6,0c4.4-0.7,8.7-2.5,11.5-5.9
				c1.1-1.1,2-2.4,2.8-3.8c1.7-2.2,3-4.7,3.3-7.3C499.5,172.6,499.5,172.3,499.5,172z M476.6,161.4c2.9,0,5.7,0.8,8.5,1.5
				c0,0.2,0,0.3,0.1,0.4c0.2,0.2,0.5,0.4,0.7,0.6c0,0.6,0.1,1.3,0.3,1.5c1,0.8,1.9,1.6,2.7,2.6c0.3,0.9,0.6,1.8,0.9,2.7
				c0,0.1,0,0.1,0,0.2c0,0.5-0.1,1-0.2,1.5c-0.7,1.8-1.7,3.5-3,4.9c-0.5,0.6-1,1.1-1.6,1.6c-2,1.4-4.3,2.4-6.7,3.1
				c-0.7,0.2-1.4,0.3-2,0.4c-0.9-0.1-1.8-0.3-2.7-0.6c-1.2-0.9-2.2-1.8-3.1-3c-1.9-2.5-2.6-5.3-2.5-8.2c0.2-1.1,0.5-2.2,0.9-3.4
				c0.2-0.4,0.4-0.9,0.6-1.3c0.1-0.1,0.2-0.2,0.3-0.4c1.3-1.4,2.9-2.6,4.7-3.4c0.5-0.2,0.9-0.4,1.4-0.5
				C476.1,161.4,476.4,161.4,476.6,161.4z"/>
			<path class="st2" d="M673.8,158.7c-1-1.7-2.4-3.1-4.1-4.2c-1.5-0.9-3.2-1.5-4.9-1.9c-1.2-0.7-2.5-1.2-3.8-1.5
				c-0.6-0.1-1.1-0.2-1.7-0.3c-0.5-0.1-1.1-0.2-1.6-0.2c-2.8-0.4-5.5,0-8.1,1.1c-0.8-0.3-1.9-0.3-2.5-0.3c-0.2,0-0.7-0.1-1.3-0.1
				c-0.1-0.6-0.3-0.9-0.9-1c-0.1,0-0.2,0-0.4,0c-0.1-0.1-0.1-0.1-0.2-0.2c-0.2-0.1-0.8,0-0.9,0.3c-0.3-0.2-0.5-0.4-0.5-0.2
				c0,0.2,0,0.4,0,0.6c-0.1,0-0.2,0.1-0.3,0.2c-0.2-0.2-0.4-0.3-0.4-0.3c0,0.3,0,0.5,0.1,0.8c-0.3,0.1-0.4,0.3-0.5,0.7
				c-0.4-0.1-0.7-0.1-0.7-0.2c0,0.4,0.1,0.8,0.1,1.3c-0.2,0-0.4,0-0.4,0c0,0.3,0,0.6,0.1,0.9c0,0,0,0,0,0c0.3,5,0.6,10,0.8,15
				c0,0.8,0.1,1.6,0.1,2.4c0.3,6,0.4,12,0.3,18c0,0.1,0,0.1,0.1,0.2c0,0.3,0,0.6,0,0.9c0,0.3,0.4,0.4,0.8,0.5c0,0.1,0,0.1,0,0.2
				c0,0.6,0.1,1,0.7,1.2c0.1,0,0.3,0,0.5,0c0,0,0,0,0,0c0.1,0,0.2,0,0.3,0c0.4,0.6,0.9,1.3,1.3,1.4c0.4,0.2,0.8,0.1,1.1-0.2
				c0,0,0,0,0,0c0.3,0.3,2,1.4,2,0.1c0-0.1,0-0.2,0-0.3c0.7,0.3,1.4,0.4,1.4-0.6c0-0.5,0-1,0-1.5c0.8,0.1,1.4,0,1.4-0.6
				c0-0.6,0-1.2,0-1.8c0.1-0.1,0.2-0.3,0.2-0.5c0.1-2.1,0.1-4.2,0.1-6.3c4.2-0.4,8.6-0.7,12.2-2.6c1.9-0.8,3.6-2,5.1-3.6
				c1.1-0.9,2-2.1,2.8-3.4c0-0.1,0.1-0.1,0.1-0.2c0.2-0.2,0.4-0.4,0.5-0.6c1.4-1.7,2.2-3.7,2.3-5.7c0.2-0.7,0.4-1.4,0.4-2.1
				C675.7,161.8,674.8,160.5,673.8,158.7z M663.7,168.2c-0.3,0.3-0.6,0.6-0.9,0.9c-3.1,2.3-7.1,3.2-11,3.5c0-0.6,0-1.2-0.1-1.9
				c-0.1-3.1-0.2-6.1-0.5-9.2c0.7-0.3,1.4-0.6,2.2-0.9c1.6-0.2,3.2-0.5,4.8-0.7c1.6,0.2,3.1,0.6,4.7,1.1c0.2,0,0.3,0.1,0.4,0.1
				c0.4,0.4,0.8,0.8,1.2,1.3C664.3,164.4,664,166.3,663.7,168.2z"/>
			<path class="st2" d="M402.9,177c0-0.4-0.1-0.7-0.2-1c-0.1-1.1-0.4-2.1-1-3c-0.6-1.3-1.6-2.2-3-2.8c-0.3-0.1-0.6-0.2-0.9-0.3
				c-0.1-0.6-1.3-0.7-1.9-0.7c-0.3-0.2-0.5-0.3-0.8-0.4c-0.2-0.1-0.5-0.2-0.7-0.3c-0.2-0.1-0.4-0.2-0.7-0.3
				c-0.1-0.3-0.4-0.6-0.8-0.5c-0.3,0-0.5,0-0.8,0c-1.7-0.4-3.7-0.3-5.4-0.4c-1.1-0.1-2.2-0.2-3.4-0.3c-0.7-0.1-1.5-0.2-2.2-0.3
				c0,0,0,0,0,0c-0.1,0-0.3-0.1-0.4-0.1c-0.3-0.1-0.6-0.1-0.9-0.2c0,0,0,0-0.1-0.1c-0.2-0.5-0.3-1-0.5-1.5c0-0.1,0-0.1,0.1-0.2
				c0.2-0.7,0.6-1.3,1.2-1.8c0.8-0.4,1.7-0.8,2.6-1.1c0.9-0.3,1.8-0.5,2.5-0.7c3.3-0.8,6.6-1.2,10-1.7c0.3-0.1,0.5-0.2,0.6-0.4
				c0,0,0.1,0,0.1,0c0.6-0.1,1.1-0.6,0.9-1.3c0.4,0,0.7-0.1,1.1-0.1c0.9-0.1,0.9-1.1,0.4-1.6c-0.1-0.1-0.2-0.1-0.3-0.2
				c0.2-0.1,0.3-0.3,0.3-0.5c0.2-0.8-0.5-1.1-1.2-1.1c-0.5,0-1,0-1.6,0c0-0.5-0.3-1.2-0.8-1.2c-0.2,0-0.5-0.1-0.7-0.1
				c-0.1-0.1-0.2-0.1-0.4-0.1c-1.1-0.2-2.1-0.2-3.1-0.1c0-0.1-0.1-0.3-0.1-0.4c-0.4-0.5-1.6-0.6-2.3-0.5c-0.1-0.4-0.4-1.1-0.8-1
				c-0.2,0-0.3,0.1-0.5,0.1c-0.2-0.2-0.3-0.3-0.4-0.2c-0.3,0-0.6,0.1-0.9,0.1c-0.1,0-0.1-0.1-0.2,0c-2.9,0.3-5.5,0.9-8.1,2.4
				c-1.5,0.9-2.9,2-4.1,3.2c-1.2,1-2.2,2.1-3.1,3.5c-0.7,1-1.1,2.2-1.2,3.3c-0.4,1.1-0.6,2.2-0.5,3.3c-0.2,1.4,0.1,2.7,1,3.8
				c0.1,0.1,0.1,0.1,0.2,0.2c0.7,1.7,2.1,2.6,3.7,3.1c0.2,0.1,0.3,0.3,0.5,0.4c1.3,0.8,2.6,1.1,4.2,1.1c0,0,0,0,0,0
				c0.4,0.1,0.9,0.1,1.4,0.1c2.8,0.1,5.7,0.1,8.6,0.1c0.1,0.1,0.3,0.1,0.4,0.2c0.3,0.1,0.7,0.1,1,0.1c0,0,0.1,0,0.1,0
				c0.8,0.2,1.5,0.2,2.4,0.2c0,0,0,0,0.1,0c0.1,0.1,0.2,0.1,0.2,0.2c0.2,0.5,0.4,1,0.6,1.6c0,0.2,0,0.3,0.1,0.5
				c-0.3,1.1-0.9,2.1-1.6,2.9c-0.3,0.3-0.6,0.7-0.9,1c-0.4,0.3-0.8,0.5-1.3,0.7c-0.5,0.1-1,0.2-1.5,0.3c-0.6,0.1-1.2,0.2-1.8,0.2
				c-0.2,0-0.4,0-0.5,0c-0.1,0-0.2,0-0.3,0c-0.3,0-0.6,0-0.8,0c0,0-0.1,0-0.1,0c-2.1-0.4-4-1.3-6-2.4c-0.4-0.2-1,0-1.6,0.4
				c0,0,0,0-0.1,0c-0.4-0.2-1-0.1-1.5,0.2c0,0,0,0-0.1,0c-0.8-0.4-1.5,0.3-1.6,1.1c-0.4,0-0.8,0-0.9,0.1c-0.2,0.2-0.4,0.5,0,0.6
				c0.1,0.1,0.2,0.1,0.3,0.2c0,0.1,0,0.2,0.1,0.4c-0.5,0.2-0.9,0.5-0.8,0.6c0.1,0.1,0.2,0.1,0.3,0.1c0,0,0,0,0,0.1
				c0,0.1,0,0.2,0,0.2c0,0,0,0.1,0,0.1c-0.1,0-0.1-0.1-0.2-0.1c-0.2-0.1-0.3,0-0.1,0.1c0.1,0.1,0.2,0.2,0.3,0.3c0,0,0,0,0,0
				c0,0,0,0,0,0c0,0.2,0.1,0.3,0.2,0.4c-0.1,0.1-0.1,0.3,0,0.4c-0.5,0-0.8,0.1-0.5,0.2c0.3,0.2,0.7,0.4,1.1,0.5
				c-0.4,0.3-0.5,0.7,0,1c0.6,0.3,1.1,0.6,1.7,0.8c0.1,0.1,0.3,0.2,0.4,0.3c2.6,1.3,5.2,2.2,8,2.4c2.1,0.3,4.2,0.3,6.4-0.3
				c0,0,0,0,0.1,0c1.9-0.3,3.7-1,5.3-2c0.1,0,0.1,0,0.2-0.1c1-0.4,1.9-0.9,2.7-1.6C401.8,185,403.3,181.2,402.9,177z"/>
			<path class="st2" d="M633.4,154.5c0.2-1.3-3.4-0.7-3.7-0.7c-0.1,0-0.3,0-0.5,0c0,0,0,0,0,0c0-0.2,0.1-0.4,0.1-0.7
				c0.1-1-0.8-1-1.7-0.6c-0.2-0.2-0.5-0.3-0.7-0.3c-0.1,0-0.3,0.1-0.5,0.2c-0.5-0.2-1.2-0.1-1.3,0.6c0,0.1,0,0.2,0,0.3
				c-0.1,0-0.2,0-0.3,0.1c-0.4,0-0.8,0.1-0.8,0.3c-0.1,0.5-0.1,0.9-0.2,1.4c0,0,0,0,0,0c0,0.1,0,0.3-0.1,0.4c-0.1,0-0.1,0-0.1,0
				c-1.1,7.5-2.3,14.9-3.5,22.4c-0.1,0.4-0.1,0.8-0.2,1.2c-0.1,0.3-0.2,0.6-0.3,0.9c-0.4,0.8-0.9,1.5-1.5,2.1
				c-1,0.8-2.2,1.4-3.7,1.7c-0.1,0-0.3,0-0.4,0.1c-0.5-0.1-1.1-0.1-1.6-0.3c-0.1-0.1-0.3-0.2-0.4-0.3c-1.4-1.1-2.7-2.4-3-4.2
				c-0.2-1-0.2-2.1-0.1-3.1c0-0.1,0-0.1,0-0.2c0.5-2.8,0.9-5.5,1.2-8.3c0.5-2.9,0.6-5.8,0.3-8.7c0-1-0.1-2.1-0.1-3.1
				c0-0.5-0.3-0.9-0.7-1.2c-0.1-0.3-0.1-0.5-0.2-0.8c-0.1-1.1-1.2-1.1-2-1.1c-0.3,0-0.5,0-0.8,0c-0.1-0.4-0.2-0.8-0.5-1
				c-0.2-0.1-0.7-0.1-1,0.2c-0.3-0.3-0.5-0.4-0.6-0.1c-0.1,0.3-0.1,0.6-0.1,0.9c0,0,0,0,0,0c-0.2-0.4-0.4-0.6-0.5-0.1
				c0,0.1,0,0.1,0,0.2c-0.3-0.2-0.5-0.4-0.5-0.6c-0.1,0.6-0.2,1.3-0.3,1.9c-0.4,0-0.6,0.1-0.7,0.2c-0.4,2.7-0.8,5.4-1.1,8.2
				c0,0,0,0,0,0c-0.1,0.7-0.2,1.4-0.3,2.1c-0.2,0-0.3,0-0.4,0.1c-0.4,2.8-0.7,5.6-1.1,8.4c-0.1,0.6-0.2,1.2-0.2,1.9
				c-0.1,0.5-0.1,1-0.2,1.5c-0.1,1.1-0.1,2.1,0,3.2c0,0.5,0.1,1.1,0.2,1.6c0.3,1.2,0.8,2.2,1.5,3.1c0,0.1,0,0.1,0.1,0.2
				c1.2,2.3,3.4,4,5.9,4.9c1.6,1.1,3.5,1.8,5.6,2c0.1,0,0.1,0,0.2,0c1.9,0.5,3.9,0.5,5.8,0c2.9-0.2,5.8-1.5,7.7-3.9
				c0.3-0.4,0.5-0.8,0.8-1.2c0.3-0.3,0.6-0.6,0.9-1c1.2-1.6,1.8-3.3,2.1-5.2c1.3-7.7,2.5-15.5,3.7-23.2c0-0.2,0-0.3-0.1-0.5
				C633.2,155.7,633.3,155.1,633.4,154.5z"/>
			<path class="st2" d="M554.8,154.4c-0.1-1.3-2.7-1.2-3.6-1.3c-0.1,0-0.3,0-0.7-0.1c-0.1-0.1-0.1-0.1-0.2-0.2c0-0.1,0-0.2,0-0.3
				c-0.1-0.9-1.1-0.8-1.7-0.6c-0.1-0.1-0.3-0.2-0.5-0.2c-0.2,0-0.4,0-0.5,0.1c-0.3-0.3-0.7-0.4-0.6,0.1c0,0.2,0,0.3,0,0.5
				c-0.1,0-0.2,0-0.3,0c-0.2-0.2-0.3-0.3-0.3,0.1c0,0,0,0,0,0.1c-0.1,0-0.2,0-0.2,0c-0.1,0-0.2,0.1-0.2,0.1
				c-0.1-0.1-0.2-0.2-0.2-0.3c0,0.1,0,0.2,0,0.4c-0.3,0.1-0.4,0.3-0.4,0.7c0,0.1-0.1,0.1-0.1,0.2c0,0,0,0,0,0c-0.2,0-0.3,0-0.3-0.1
				c0,0.3,0.1,0.7,0.1,1c-0.3,0.1-0.5,0.2-0.4,0.6c0,0.2,0,0.4,0,0.6c0,0.1,0,0.3,0,0.5c0.1,0.7,0.2,1.4,0.2,2.1
				c0.2,2.7,0.3,5.3,0.2,8c-0.2,3.9-0.7,7.9-1.5,11.8c-0.4,1.2-0.8,2.4-1.3,3.6c-0.5,1-1,2.1-1.7,3.1c-0.9-1.2-1.5-2.7-1.9-4.4
				c-1.2-5.1-1.4-11-1.9-16c-0.1-0.8-1.1-1.1-2.1-1.2c0-0.2,0-0.3,0-0.5c0.1-1.3-3.2-1-3.7-1c0,0,0,0-0.1,0
				c-0.1-0.1-0.2-0.3-0.3-0.4c0,0,0,0,0,0c0-0.9-0.6-1.2-1.4-1c-0.1,0-0.3,0.1-0.5,0.1c-0.1-0.1-0.2-0.2-0.4-0.2
				c-0.2,0-0.5,0-0.8,0.2c-0.4-0.3-0.9-0.3-0.9,0.2c0,0.2-0.1,0.4-0.1,0.6c-0.3-0.2-0.6-0.2-0.6,0.1c0,0.1,0,0.2,0,0.2
				c-0.3-0.1-0.5-0.2-0.5-0.2c0,0.3,0,0.6,0,0.8c0,0.1-0.1,0.1-0.1,0.2c-0.2-0.1-0.3-0.1-0.3-0.2c0,0.5,0,0.9,0,1.4
				c-0.2,0-0.3,0.1-0.3,0.2c0,2.5-0.2,4.9-0.6,7.3c-0.1,0.5-0.2,1.1-0.4,1.6c-0.4,1.7-1,3.4-1.6,5c-0.2,0.6-0.5,1.1-0.8,1.6
				c0,0.1-0.1,0.1-0.1,0.2c-0.5-2.8-1-5.6-1.4-8.5c-0.8-5-1.4-10.1-1.6-15.2c-0.1-1.3-2.8-1.1-3.6-1.2c-0.2,0-0.7-0.1-1.4-0.1
				c0-0.1,0-0.2,0-0.3c-0.1-0.6-0.8-0.8-1.3-0.7c-0.1-0.1-0.1-0.1-0.2-0.1c-0.3-0.1-0.9,0-0.8,0.4c0,0,0,0,0,0
				c0.1,0.1-0.4-0.6-0.4-0.3c0,0.2,0,0.4,0,0.6c-0.1,0-0.2,0.2-0.2,0.3c-0.2-0.2-0.3-0.4-0.3-0.4c0,0.3,0,0.6,0.1,0.9
				c0,0-0.1,0.1-0.1,0.1c-0.3,0.2-0.4,0.4-0.4,0.8c0,0,0,0,0,0c0,0-0.1,0.1-0.1,0.2c-0.3,0.1-0.6,0.3-0.5,0.4c0,0.1,0,0.2,0,0.2
				c-0.2,0-0.4,0-0.4,0c0.1,1.4,0.1,2.7,0.2,4.1c0.3,4.1,0.8,8.2,1.5,12.2c0.7,5,1.6,10,2.7,15c0,0.2,0.3,0.3,0.6,0.4
				c0,0.2,0.1,0.4,0.1,0.7c0.1,0.7,0.6,0.9,1.1,0.7c0.1,0.1,0.2,0.2,0.3,0.2c0,0,0.1,0,0.2,0c0.5,0.8,1.2,1.6,1.7,1.9
				c0.5,0.3,1,0.1,1.2-0.3c0.3,0.3,0.7,0.4,1.1,0.5c0.4,0,0.6-0.3,0.7-0.7c-0.1-0.2-0.1-0.5-0.2-0.7c0.3,0.1,0.7,0.1,0.9,0.1
				c0.1,0,0.1,0.1,0.2,0.1c1.4,0.3,2.1,0.7,3.4,0.1c0.2-0.1,0.5-0.3,0.7-0.4c0.3-0.1,0.6-0.3,1-0.6c0.7-0.6,1.2-1.3,1.7-2.1
				c0.2-0.4,0.5-0.9,0.7-1.3c0.1-0.1,0.1-0.1,0.2-0.2c0.3-0.5,0.6-1.1,0.9-1.6c0.3,0.9,0.7,1.8,1.2,2.5c0.1,0.1,0.2,0.3,0.3,0.4
				c0.2,0.3,0.3,0.6,0.5,1c1,1.6,2.1,2.6,3.5,3.2c0.3,0.4,0.6,0.8,1,1.1c1.4,1.4,3.1,2,5,2.2c0.4,0.1,0.6-0.1,0.7-0.4
				c0.3,0.1,0.7,0.1,1,0.2c0.9,0.2,0.7-0.6,0.4-1.3c0,0,0.1,0,0.1,0c0.7,0.1,1.2-0.1,1.2-0.7c0.1,0,0.2-0.1,0.4-0.1
				c0.1,0,0.2,0,0.2,0c0,0,0,0,0,0c1-0.2,1.5-0.4,2.2-1.2c0.8-0.5,1.2-1,2-2.6c0.1-0.1,0.1-0.3,0.2-0.5c0.5-0.6,0.9-1.3,1.4-2.2
				c1-2,1.7-4,2.2-6.1c0.5-2.1,0.9-4.4,1.2-6.6c0.1-0.8,0.3-1.6,0.4-2.3C555.5,165.6,555.2,160.1,554.8,154.4z"/>
		</g>
		<g>
			<path class="st2" d="M385.8,258.5c4.1-0.5,17.3-3.1,17.3-3.1s1.2-4.1,0.7-4.5c-0.8-0.5-2.1-0.5-3.2-0.5c0-0.5-0.4-1-0.9-1
				c-0.2,0-0.3,0-0.5,0c-0.1-0.1-0.3-0.2-0.5-0.2c-0.2,0-0.4,0-0.6,0.1c-0.1-0.1-0.2-0.1-0.2-0.1l-16.5,1.4c0.1,0,0.2,0.2,0.3,0.4
				c-0.3,0-0.5,0-0.8,0.1c-0.1-0.2-0.2-0.3-0.4-0.3c-0.3-0.1-0.5,0-0.7,0.1c0-0.1-0.1-0.1-0.1-0.1c-0.2-0.1-0.5-0.2-0.5,0.2
				c0,0.2,0,0.4,0,0.6c0,0,0,0,0,0c0-0.1-0.1-0.3-0.2-0.3c-0.4-0.1-0.4,0.2-0.4,0.5c0,0,0,0,0,0c0,0,0,0,0,0c0,0,0,0,0,0
				c-0.1-0.3-0.3-0.5-0.3-0.8c0,0.3,0,0.7-0.1,1c-0.2,0.2-0.4,0.6-0.4,0.9c0,0-0.1,0.1-0.1,0.1c-0.4,0-0.7,0.1-0.7,0.3
				c0,0.1,0,0.3,0,0.4c-0.2,0-0.4,0-0.4-0.1c-0.7,10-1.4,20-2.4,30c0,0.1,0.1,0.1,0.1,0.2c0,0.3,0,0.5-0.1,0.8
				c0,0.3,0.3,0.4,0.7,0.5c0,0,0,0,0,0.1c0,0.1,0,0.2,0,0.3c-0.1,0.1,0,0.1,0,0.2c0.1,0.4,0.3,0.7,0.6,0.9c0,0.1,0,0.1,0,0.2
				c0.1,0.7,0.5,0.7,1.1,0.6c0.1,0,0.2,0,0.3,0c0.4,0.7,0.9,1.6,1.5,1.6c0.1,0,0.1,0,0.2,0c0.2,0.1,0.5,0.1,0.6,0
				c0.4,0.4,0.8,0.6,1.1,0.6c6.7-0.2,19.4-1.3,19.4-1.3s0.3-1,0.2-1.5c0.2,0,0.4-0.1,0.6-0.1c1.3-0.2,1.8-3.7,1.1-4.1
				c-0.7-0.3-9.9-1-17.5-1c0.4-2.5,0.7-5.1,0.9-7.6c2.8-0.2,6.1-0.5,7.2-0.6c0.6,0,0.8-0.3,0.8-0.6c0.2,0,0.4,0,0.6,0
				c0.7-0.1,0.6-1,0.6-1s0.4,0,0.6-0.1c1.3-0.1,2-4.3,1.4-4.6c-0.6-0.3-6.6-0.8-10.9-1.1c0-0.6,0-1.2,0-1.8
				C385.6,262.2,385.7,260.3,385.8,258.5z M381.3,251.7C381.3,251.7,381.2,251.7,381.3,251.7c-0.1-0.1-0.1-0.2-0.1-0.3
				C381.2,251.5,381.2,251.6,381.3,251.7z"/>
			<path class="st2" d="M363,257.7c-1-1.7-2.4-3.1-4.1-4.2c-1.5-0.9-3.2-1.5-4.9-1.9c-1.2-0.7-2.5-1.2-3.8-1.5
				c-0.6-0.1-1.1-0.2-1.7-0.3c-0.5-0.1-1.1-0.2-1.6-0.2c-2.8-0.4-5.5,0-8.1,1.1c-0.8-0.3-1.9-0.3-2.5-0.3c-0.2,0-0.7-0.1-1.3-0.1
				c-0.1-0.6-0.3-0.9-0.9-1c-0.1,0-0.2,0-0.4,0c-0.1-0.1-0.1-0.1-0.2-0.2c-0.2-0.1-0.8,0-0.9,0.3c-0.3-0.2-0.5-0.4-0.5-0.2
				c0,0.2,0,0.4,0,0.6c-0.1,0-0.2,0.1-0.3,0.2c-0.2-0.2-0.4-0.3-0.4-0.3c0,0.3,0,0.5,0.1,0.8c-0.3,0.1-0.4,0.3-0.5,0.7
				c-0.4-0.1-0.7-0.1-0.7-0.2c0,0.4,0.1,0.8,0.1,1.3c-0.2,0-0.4,0-0.4,0c0,0.3,0,0.6,0.1,0.9c0,0,0,0,0,0c0.3,5,0.6,10,0.8,15
				c0,0.8,0.1,1.6,0.1,2.4c0.3,6,0.4,12,0.3,18c0,0.1,0,0.1,0.1,0.2c0,0.3,0,0.6,0,0.9c0,0.3,0.4,0.4,0.8,0.5c0,0.1,0,0.1,0,0.2
				c0,0.6,0.1,1,0.7,1.2c0.1,0,0.3,0,0.5,0c0,0,0,0,0,0c0.1,0,0.2,0,0.3,0c0.4,0.6,0.9,1.3,1.3,1.4c0.4,0.2,0.8,0.1,1.1-0.2
				c0,0,0,0,0,0c0.3,0.3,2,1.4,2,0.1c0-0.1,0-0.2,0-0.3c0.7,0.3,1.4,0.4,1.4-0.6c0-0.5,0-1,0-1.5c0.8,0.1,1.4,0,1.4-0.6
				c0-0.6,0-1.2,0-1.8c0.1-0.1,0.2-0.3,0.2-0.5c0.1-2.1,0.1-4.2,0.1-6.3c4.2-0.4,8.6-0.7,12.2-2.6c1.9-0.8,3.6-2,5.1-3.6
				c1.1-0.9,2-2.1,2.8-3.4c0-0.1,0.1-0.1,0.1-0.2c0.2-0.2,0.4-0.4,0.5-0.6c1.4-1.7,2.2-3.7,2.3-5.7c0.2-0.7,0.4-1.4,0.4-2.1
				C364.9,260.8,364.1,259.5,363,257.7z M353,267.2c-0.3,0.3-0.6,0.6-0.9,0.9c-3.1,2.3-7.1,3.2-11,3.5c0-0.6,0-1.2-0.1-1.9
				c-0.1-3.1-0.2-6.1-0.5-9.2c0.7-0.3,1.4-0.6,2.2-0.9c1.6-0.2,3.2-0.5,4.8-0.7c1.6,0.2,3.1,0.6,4.7,1.1c0.2,0,0.3,0.1,0.4,0.1
				c0.4,0.4,0.8,0.8,1.2,1.3C353.6,263.4,353.3,265.3,353,267.2z"/>
			<path class="st2" d="M448.3,286.6c-0.4-6.2-2.8-12.4-8.4-15.8c-0.2-0.1-0.4-0.2-0.6-0.3c1.2-1.1,2.3-2.3,3-3.8
				c0.8-0.9,1.4-1.8,1.9-2.9c0.9-2.1,0.8-4.4-0.2-6.3c-0.1-1.2-0.6-2.3-1.4-3.3c-1.5-1.8-3.6-2.7-5.8-3.1c-1.2-0.8-2.6-1.3-4.1-1.5
				c-1.1-0.3-2.1-0.4-3.2-0.4c-3-0.3-5.9,0.7-8.6,1.9c-0.1-0.4-0.4-0.6-0.9-0.6c-0.1,0-0.3,0-0.4,0c-0.1-0.1-0.2-0.1-0.2-0.2
				c-0.2-0.1-0.7,0-1,0.3c-0.3-0.2-0.5-0.3-0.5-0.1c0,0.2,0,0.4,0,0.6c-0.1,0-0.1,0-0.2,0.1c-0.1-0.2-0.4-0.4-0.4-0.1
				c0,0.2,0,0.5,0,0.7c0,0,0,0,0,0c0,0,0,0,0,0c-0.3,0.1-0.5,0.4-0.6,0.9c-0.3,0.1-0.5,0.2-0.5,0.3c0,0.2,0,0.4,0,0.6
				c-0.2,0-0.4,0-0.4,0.1c0.4,11.1,0.9,22.3,1.5,33.4c0,0,0,0.1,0.1,0.1c0,0.3,0,0.7,0,1c0,0.2,0.4,0.3,0.8,0.3c0,0.2,0,0.3,0,0.5
				c0,0.7,0.7,0.9,1.2,0.8c0,0,0,0,0,0c0,0,0.1,0,0.2,0c0.4,0.6,0.9,1.2,1.3,1.3c0.3,0.1,0.7,0,0.9-0.2c0,0,0.1,0.1,0.1,0.1
				c0.3,0.3,2,1.2,2-0.1c0,0,0-0.1,0-0.1c0.7,0.3,1.8,0.6,1.7-0.5c0-0.5-0.1-1-0.1-1.6c0.9,0,1.5-0.2,1.5-0.5c0-0.6-0.1-1.2-0.1-1.7
				c0.2-0.2,0.3-0.3,0.3-0.6c-0.2-3.4-0.3-6.8-0.4-10.1c0.2,0.1,0.4,0.1,0.6,0c0.1,0,0.2-0.1,0.3-0.1c0.2,0,0.3,0,0.5,0.1
				c0.4,0.2,0.7,0.3,1,0.2c0,0,0.1,0,0.1,0c1.8,0.2,3.6,0.9,5.2,1.9c0,0,0,0,0.1,0.1c0.7,0.8,1.3,1.5,1.8,2.4
				c1.3,2.6,1.9,5.3,2.1,8.3c0,0.3,0.3,0.5,0.7,0.6c0,0.2,0,0.4,0.1,0.6c0.1,0.7,0.5,1,1.1,0.9c0.1,0,0.1,0,0.2,0
				c0.1,0.1,0.2,0.1,0.3,0.1c0.4,0.7,0.9,1.4,1.3,1.6c0.4,0.2,1,0.2,1.2-0.2c0.4,0.3,2.1,1.6,2.1,0.3c0-0.2,0-0.4,0-0.6
				c0.6,0.2,1.3,0.3,1.2-0.6c0-0.6-0.1-1.1-0.2-1.7c0.8,0.2,1.7,0.2,1.7-0.4c0-0.5-0.1-1.1-0.1-1.6
				C448.1,287.2,448.3,287,448.3,286.6z M428.9,258.4c0.5-0.1,1-0.2,1.5-0.3c1.3,0,3,0.1,4.3,0.5c0,0,0,0,0,0
				c0.1,0.2,0.1,0.3,0.2,0.5c0.1,0.4,0.1,0.8,0,1.2c-0.4,1-1,1.8-1.7,2.6c-1.9,1.6-4.1,2.8-6.4,3.8c0,0,0,0-0.1,0
				c-0.2,0-0.4,0-0.5,0c-0.1-2.7-0.2-5.4-0.3-8.1C426.9,258.7,427.9,258.6,428.9,258.4z"/>
			<path class="st2" d="M494,276c0-0.4-0.1-0.7-0.2-1c-0.1-1.1-0.4-2.1-1-3c-0.6-1.3-1.6-2.2-3-2.8c-0.3-0.1-0.6-0.2-0.9-0.3
				c-0.1-0.6-1.3-0.7-1.9-0.7c-0.3-0.2-0.5-0.3-0.8-0.4c-0.2-0.1-0.5-0.2-0.7-0.3c-0.2-0.1-0.4-0.2-0.7-0.3
				c-0.1-0.3-0.4-0.6-0.8-0.5c-0.3,0-0.5,0-0.8,0c-1.7-0.4-3.7-0.3-5.4-0.4c-1.1-0.1-2.2-0.2-3.4-0.3c-0.7-0.1-1.5-0.2-2.2-0.3
				c0,0,0,0,0,0c-0.1,0-0.3-0.1-0.4-0.1c-0.3-0.1-0.6-0.1-0.9-0.2c0,0,0,0-0.1-0.1c-0.2-0.5-0.3-1-0.5-1.5c0-0.1,0-0.1,0.1-0.2
				c0.2-0.7,0.6-1.3,1.2-1.8c0.8-0.4,1.7-0.8,2.6-1.1c0.9-0.3,1.8-0.5,2.5-0.7c3.3-0.8,6.6-1.2,10-1.7c0.3-0.1,0.5-0.2,0.6-0.4
				c0,0,0.1,0,0.1,0c0.6-0.1,1.1-0.6,0.9-1.3c0.4,0,0.7-0.1,1.1-0.1c0.9-0.1,0.9-1.1,0.4-1.6c-0.1-0.1-0.2-0.1-0.3-0.2
				c0.2-0.1,0.3-0.3,0.3-0.5c0.2-0.8-0.5-1.1-1.2-1.1c-0.5,0-1,0-1.6,0c0-0.5-0.3-1.2-0.8-1.2c-0.2,0-0.5-0.1-0.7-0.1
				c-0.1-0.1-0.2-0.1-0.4-0.1c-1.1-0.2-2.1-0.2-3.1-0.1c0-0.1-0.1-0.3-0.1-0.4c-0.4-0.5-1.6-0.6-2.3-0.5c-0.1-0.4-0.4-1.1-0.8-1
				c-0.2,0-0.3,0.1-0.5,0.1c-0.2-0.2-0.3-0.3-0.4-0.2c-0.3,0-0.6,0.1-0.9,0.1c-0.1,0-0.1-0.1-0.2,0c-2.9,0.3-5.5,0.9-8.1,2.4
				c-1.5,0.9-2.9,2-4.1,3.2c-1.2,1-2.2,2.1-3.1,3.5c-0.7,1-1.1,2.2-1.2,3.3c-0.4,1.1-0.6,2.2-0.5,3.3c-0.2,1.4,0.1,2.7,1,3.8
				c0.1,0.1,0.1,0.1,0.2,0.2c0.7,1.7,2.1,2.6,3.7,3.1c0.2,0.1,0.3,0.3,0.5,0.4c1.3,0.8,2.6,1.1,4.2,1.1c0,0,0,0,0,0
				c0.4,0.1,0.9,0.1,1.4,0.1c2.8,0.1,5.7,0.1,8.6,0.1c0.1,0.1,0.3,0.1,0.4,0.2c0.3,0.1,0.7,0.1,1,0.1c0,0,0.1,0,0.1,0
				c0.8,0.2,1.5,0.2,2.4,0.2c0,0,0,0,0.1,0c0.1,0.1,0.2,0.1,0.2,0.2c0.2,0.5,0.4,1,0.6,1.6c0,0.2,0,0.3,0.1,0.5
				c-0.3,1.1-0.9,2.1-1.6,2.9c-0.3,0.3-0.6,0.7-0.9,1c-0.4,0.3-0.8,0.5-1.3,0.7c-0.5,0.1-1,0.2-1.5,0.3c-0.6,0.1-1.2,0.2-1.8,0.2
				c-0.2,0-0.4,0-0.5,0c-0.1,0-0.2,0-0.3,0c-0.3,0-0.6,0-0.8,0c0,0-0.1,0-0.1,0c-2.1-0.4-4-1.3-6-2.4c-0.4-0.2-1,0-1.6,0.4
				c0,0,0,0-0.1,0c-0.4-0.2-1-0.1-1.5,0.2c0,0,0,0-0.1,0c-0.8-0.4-1.5,0.3-1.6,1.1c-0.4,0-0.8,0-0.9,0.1c-0.2,0.2-0.4,0.5,0,0.6
				c0.1,0.1,0.2,0.1,0.3,0.2c0,0.1,0,0.2,0.1,0.4c-0.5,0.2-0.9,0.5-0.8,0.6c0.1,0.1,0.2,0.1,0.3,0.1c0,0,0,0,0,0.1
				c0,0.1,0,0.2,0,0.2c0,0,0,0.1,0,0.1c-0.1,0-0.1-0.1-0.2-0.1c-0.2-0.1-0.3,0-0.1,0.1c0.1,0.1,0.2,0.2,0.3,0.3c0,0,0,0,0,0
				c0,0,0,0,0,0c0,0.2,0.1,0.3,0.2,0.4c-0.1,0.1-0.1,0.3,0,0.4c-0.5,0-0.8,0.1-0.5,0.2c0.3,0.2,0.7,0.4,1.1,0.5
				c-0.4,0.3-0.5,0.7,0,1c0.6,0.3,1.1,0.6,1.7,0.8c0.1,0.1,0.3,0.2,0.4,0.3c2.6,1.3,5.2,2.2,8,2.4c2.1,0.3,4.2,0.3,6.4-0.3
				c0,0,0,0,0.1,0c1.9-0.3,3.7-1,5.3-2c0.1,0,0.1,0,0.2-0.1c1-0.4,1.9-0.9,2.7-1.6C492.9,284,494.4,280.2,494,276z"/>
			<path class="st2" d="M583,255.3c-0.6,0-1.1,0-1.6,0.1c0-0.2-0.1-0.3-0.3-0.4c0.4-1.3-0.7-1.4-1.9-1c-0.2-0.1-0.4-0.2-0.5-0.3
				c-0.2,0-0.4,0.1-0.6,0.2c-0.5-0.2-1-0.1-1.3,0.5c0,0.1-0.1,0.2-0.1,0.4c-0.1,0-0.3,0.1-0.4,0.2c-0.3,0-0.6,0-0.6,0.1
				c-2.7,7.6-5.7,14.8-10.1,21.6c-0.4,0.7-1,1.5-1.6,2.4c-0.8-1.6-1.5-3.3-2.1-5c-1.2-3-2.2-6-3.2-9.1c-1-3-2.2-5.7-3.5-8.6
				c-0.3-0.6-2.5-0.8-4.2-0.7c-0.1-0.3-0.2-0.5-0.4-0.8c-0.2-0.5-0.8-0.3-1.2-0.2c-0.4-0.3-1-0.3-0.8,0.4c-0.3-0.3-0.5-0.5-0.6-0.6
				c0.1,0.2,0.1,0.4,0.2,0.6c-0.1,0-0.2,0.2-0.3,0.5c-0.2-0.3-0.4-0.5-0.4-0.6c0.1,0.2,0.2,0.5,0.2,0.7c-0.1,0.1-0.1,0.2-0.2,0.3
				c-0.3,0.2-0.4,0.5-0.4,0.9c0,0,0,0,0,0c-0.4,0.1-0.7,0.3-0.7,0.4c0.1,0.3,0.2,0.5,0.3,0.8c0,0,0,0.1,0,0.1c0,0,0,0.1,0,0.1
				c-0.3,0-0.6,0.1-0.6,0c2.5,8,5,16.2,8.5,23.8c0.8,1.6,1.2,3.5,2.3,4.4c0.3,0.6,0.6,1.1,1,1.6c0.4,0.4,0.7,0.5,1.2,0.6
				c0.1,0,0.2,0,0.4,0c0,0,0,0,0,0c0.4,0.6,0.8,1.2,1.4,1.6c0.6,0.4,1.2,0.4,1.8,0.2c0.5,0.4,1.1,0.7,1.8,0.6
				c1.1-0.2,2.9-1.7,3.3-2.1c0.8-0.8,1.6-1.6,2.3-2.5c1.1-1.2,2.1-2.6,3-4c0.7-1.1,1.4-2.3,2.1-3.4c4.1-6.6,6.9-13.5,9.6-20.8
				c0.1-0.3,0-0.6-0.3-0.8c0.1-0.4,0.3-0.7,0.4-1.1C585.4,255.3,583.9,255.3,583,255.3z"/>
			<path class="st2" d="M519.8,258.5c4.1-0.5,17.3-3.1,17.3-3.1s1.2-4.1,0.7-4.5c-0.8-0.5-2.1-0.5-3.2-0.5c0-0.5-0.4-1-0.9-1
				c-0.2,0-0.3,0-0.5,0c-0.1-0.1-0.3-0.2-0.5-0.2c-0.2,0-0.4,0-0.6,0.1c-0.1-0.1-0.2-0.1-0.2-0.1l-16.5,1.4c0.1,0,0.2,0.2,0.3,0.4
				c-0.3,0-0.5,0-0.8,0.1c-0.1-0.2-0.2-0.3-0.4-0.3c-0.3-0.1-0.5,0-0.7,0.1c0-0.1-0.1-0.1-0.1-0.1c-0.2-0.1-0.5-0.2-0.5,0.2
				c0,0.2,0,0.4,0,0.6c0,0,0,0,0,0c0-0.1-0.1-0.3-0.2-0.3c-0.4-0.1-0.4,0.2-0.4,0.5c0,0,0,0,0,0c0,0,0,0,0,0c0,0,0,0,0,0
				c-0.1-0.3-0.3-0.5-0.3-0.8c0,0.3,0,0.7-0.1,1c-0.2,0.2-0.4,0.6-0.4,0.9c0,0-0.1,0.1-0.1,0.1c-0.4,0-0.7,0.1-0.7,0.3
				c0,0.1,0,0.3,0,0.4c-0.2,0-0.4,0-0.4-0.1c-0.7,10-1.4,20-2.4,30c0,0.1,0.1,0.1,0.1,0.2c0,0.3,0,0.5-0.1,0.8
				c0,0.3,0.3,0.4,0.7,0.5c0,0,0,0,0,0.1c0,0.1,0,0.2,0,0.3c-0.1,0.1,0,0.1,0,0.2c0.1,0.4,0.3,0.7,0.6,0.9c0,0.1,0,0.1,0,0.2
				c0.1,0.7,0.5,0.7,1.1,0.6c0.1,0,0.2,0,0.3,0c0.4,0.7,0.9,1.6,1.5,1.6c0.1,0,0.1,0,0.2,0c0.2,0.1,0.5,0.1,0.6,0
				c0.4,0.4,0.8,0.6,1.1,0.6c6.7-0.2,19.4-1.3,19.4-1.3s0.3-1,0.2-1.5c0.2,0,0.4-0.1,0.6-0.1c1.3-0.2,1.8-3.7,1.1-4.1
				c-0.7-0.3-9.9-1-17.5-1c0.4-2.5,0.7-5.1,0.9-7.6c2.8-0.2,6.1-0.5,7.2-0.6c0.6,0,0.8-0.3,0.8-0.6c0.2,0,0.4,0,0.6,0
				c0.7-0.1,0.6-1,0.6-1s0.4,0,0.6-0.1c1.3-0.1,2-4.3,1.4-4.6c-0.6-0.3-6.6-0.8-10.9-1.1c0-0.6,0-1.2,0-1.8
				C519.6,262.2,519.7,260.3,519.8,258.5z M515.3,251.7C515.3,251.7,515.2,251.7,515.3,251.7c-0.1-0.1-0.1-0.2-0.1-0.3
				C515.2,251.5,515.2,251.6,515.3,251.7z"/>
			<path class="st2" d="M607.8,258.5c4.1-0.5,17.3-3.1,17.3-3.1s1.2-4.1,0.7-4.5c-0.8-0.5-2.1-0.5-3.2-0.5c0-0.5-0.4-1-0.9-1
				c-0.2,0-0.3,0-0.5,0c-0.1-0.1-0.3-0.2-0.5-0.2c-0.2,0-0.4,0-0.6,0.1c-0.1-0.1-0.2-0.1-0.2-0.1l-16.5,1.4c0.1,0,0.2,0.2,0.3,0.4
				c-0.3,0-0.5,0-0.8,0.1c-0.1-0.2-0.2-0.3-0.4-0.3c-0.3-0.1-0.5,0-0.7,0.1c0-0.1-0.1-0.1-0.1-0.1c-0.2-0.1-0.5-0.2-0.5,0.2
				c0,0.2,0,0.4,0,0.6c0,0,0,0,0,0c0-0.1-0.1-0.3-0.2-0.3c-0.4-0.1-0.4,0.2-0.4,0.5c0,0,0,0,0,0c0,0,0,0,0,0c0,0,0,0,0,0
				c-0.1-0.3-0.3-0.5-0.3-0.8c0,0.3,0,0.7-0.1,1c-0.2,0.2-0.4,0.6-0.4,0.9c0,0-0.1,0.1-0.1,0.1c-0.4,0-0.7,0.1-0.7,0.3
				c0,0.1,0,0.3,0,0.4c-0.2,0-0.4,0-0.4-0.1c-0.7,10-1.4,20-2.4,30c0,0.1,0.1,0.1,0.1,0.2c0,0.3,0,0.5-0.1,0.8
				c0,0.3,0.3,0.4,0.7,0.5c0,0,0,0,0,0.1c0,0.1,0,0.2,0,0.3c-0.1,0.1,0,0.1,0,0.2c0.1,0.4,0.3,0.7,0.6,0.9c0,0.1,0,0.1,0,0.2
				c0.1,0.7,0.5,0.7,1.1,0.6c0.1,0,0.2,0,0.3,0c0.4,0.7,0.9,1.6,1.5,1.6c0.1,0,0.1,0,0.2,0c0.2,0.1,0.5,0.1,0.6,0
				c0.4,0.4,0.8,0.6,1.1,0.6c6.7-0.2,19.4-1.3,19.4-1.3s0.3-1,0.2-1.5c0.2,0,0.4-0.1,0.6-0.1c1.3-0.2,1.8-3.7,1.1-4.1
				c-0.7-0.3-9.9-1-17.5-1c0.4-2.5,0.7-5.1,0.9-7.6c2.8-0.2,6.1-0.5,7.2-0.6c0.6,0,0.8-0.3,0.8-0.6c0.2,0,0.4,0,0.6,0
				c0.7-0.1,0.6-1,0.6-1s0.4,0,0.6-0.1c1.3-0.1,2-4.3,1.4-4.6c-0.6-0.3-6.6-0.8-10.9-1.1c0-0.6,0-1.2,0-1.8
				C607.6,262.2,607.7,260.3,607.8,258.5z M603.3,251.7C603.3,251.7,603.2,251.7,603.3,251.7c-0.1-0.1-0.1-0.2-0.1-0.3
				C603.2,251.5,603.2,251.6,603.3,251.7z"/>
			<path class="st2" d="M670.3,286.6c-0.4-6.2-2.8-12.4-8.4-15.8c-0.2-0.1-0.4-0.2-0.6-0.3c1.2-1.1,2.3-2.3,3-3.8
				c0.8-0.9,1.4-1.8,1.9-2.9c0.9-2.1,0.8-4.4-0.2-6.3c-0.1-1.2-0.6-2.3-1.4-3.3c-1.5-1.8-3.6-2.7-5.8-3.1c-1.2-0.8-2.6-1.3-4.1-1.5
				c-1.1-0.3-2.1-0.4-3.2-0.4c-3-0.3-5.9,0.7-8.6,1.9c-0.1-0.4-0.4-0.6-0.9-0.6c-0.1,0-0.3,0-0.4,0c-0.1-0.1-0.2-0.1-0.2-0.2
				c-0.2-0.1-0.7,0-1,0.3c-0.3-0.2-0.5-0.3-0.5-0.1c0,0.2,0,0.4,0,0.6c-0.1,0-0.1,0-0.2,0.1c-0.1-0.2-0.4-0.4-0.4-0.1
				c0,0.2,0,0.5,0,0.7c0,0,0,0,0,0c0,0,0,0,0,0c-0.3,0.1-0.5,0.4-0.6,0.9c-0.3,0.1-0.5,0.2-0.5,0.3c0,0.2,0,0.4,0,0.6
				c-0.2,0-0.4,0-0.4,0.1c0.4,11.1,0.9,22.3,1.5,33.4c0,0,0,0.1,0.1,0.1c0,0.3,0,0.7,0,1c0,0.2,0.4,0.3,0.8,0.3c0,0.2,0,0.3,0,0.5
				c0,0.7,0.7,0.9,1.2,0.8c0,0,0,0,0,0c0,0,0.1,0,0.2,0c0.4,0.6,0.9,1.2,1.3,1.3c0.3,0.1,0.7,0,0.9-0.2c0,0,0.1,0.1,0.1,0.1
				c0.3,0.3,2,1.2,2-0.1c0,0,0-0.1,0-0.1c0.7,0.3,1.8,0.6,1.7-0.5c0-0.5-0.1-1-0.1-1.6c0.9,0,1.5-0.2,1.5-0.5c0-0.6-0.1-1.2-0.1-1.7
				c0.2-0.2,0.3-0.3,0.3-0.6c-0.2-3.4-0.3-6.8-0.4-10.1c0.2,0.1,0.4,0.1,0.6,0c0.1,0,0.2-0.1,0.3-0.1c0.2,0,0.3,0,0.5,0.1
				c0.4,0.2,0.7,0.3,1,0.2c0,0,0.1,0,0.1,0c1.8,0.2,3.6,0.9,5.2,1.9c0,0,0,0,0.1,0.1c0.7,0.8,1.3,1.5,1.8,2.4
				c1.3,2.6,1.9,5.3,2.1,8.3c0,0.3,0.3,0.5,0.7,0.6c0,0.2,0,0.4,0.1,0.6c0.1,0.7,0.5,1,1.1,0.9c0.1,0,0.1,0,0.2,0
				c0.1,0.1,0.2,0.1,0.3,0.1c0.4,0.7,0.9,1.4,1.3,1.6c0.4,0.2,1,0.2,1.2-0.2c0.4,0.3,2.1,1.6,2.1,0.3c0-0.2,0-0.4,0-0.6
				c0.6,0.2,1.3,0.3,1.2-0.6c0-0.6-0.1-1.1-0.2-1.7c0.8,0.2,1.7,0.2,1.7-0.4c0-0.5-0.1-1.1-0.1-1.6
				C670.1,287.2,670.3,287,670.3,286.6z M650.9,258.4c0.5-0.1,1-0.2,1.5-0.3c1.3,0,3,0.1,4.3,0.5c0,0,0,0,0,0
				c0.1,0.2,0.1,0.3,0.2,0.5c0.1,0.4,0.1,0.8,0,1.2c-0.4,1-1,1.8-1.7,2.6c-1.9,1.6-4.1,2.8-6.4,3.8c0,0,0,0-0.1,0
				c-0.2,0-0.4,0-0.5,0c-0.1-2.7-0.2-5.4-0.3-8.1C648.9,258.7,649.9,258.6,650.9,258.4z"/>
			<path class="st2" d="M695.8,258.5c4.1-0.5,17.3-3.1,17.3-3.1s1.2-4.1,0.7-4.5c-0.8-0.5-2.1-0.5-3.2-0.5c0-0.5-0.4-1-0.9-1
				c-0.2,0-0.3,0-0.5,0c-0.1-0.1-0.3-0.2-0.5-0.2c-0.2,0-0.4,0-0.6,0.1c-0.1-0.1-0.2-0.1-0.2-0.1l-16.5,1.4c0.1,0,0.2,0.2,0.3,0.4
				c-0.3,0-0.5,0-0.8,0.1c-0.1-0.2-0.2-0.3-0.4-0.3c-0.3-0.1-0.5,0-0.7,0.1c0-0.1-0.1-0.1-0.1-0.1c-0.2-0.1-0.5-0.2-0.5,0.2
				c0,0.2,0,0.4,0,0.6c0,0,0,0,0,0c0-0.1-0.1-0.3-0.2-0.3c-0.4-0.1-0.4,0.2-0.4,0.5c0,0,0,0,0,0c0,0,0,0,0,0c0,0,0,0,0,0
				c-0.1-0.3-0.3-0.5-0.3-0.8c0,0.3,0,0.7-0.1,1c-0.2,0.2-0.4,0.6-0.4,0.9c0,0-0.1,0.1-0.1,0.1c-0.4,0-0.7,0.1-0.7,0.3
				c0,0.1,0,0.3,0,0.4c-0.2,0-0.4,0-0.4-0.1c-0.7,10-1.4,20-2.4,30c0,0.1,0.1,0.1,0.1,0.2c0,0.3,0,0.5-0.1,0.8
				c0,0.3,0.3,0.4,0.7,0.5c0,0,0,0,0,0.1c0,0.1,0,0.2,0,0.3c-0.1,0.1,0,0.1,0,0.2c0.1,0.4,0.3,0.7,0.6,0.9c0,0.1,0,0.1,0,0.2
				c0.1,0.7,0.5,0.7,1.1,0.6c0.1,0,0.2,0,0.3,0c0.4,0.7,0.9,1.6,1.5,1.6c0.1,0,0.1,0,0.2,0c0.2,0.1,0.5,0.1,0.6,0
				c0.4,0.4,0.8,0.6,1.1,0.6c6.7-0.2,19.4-1.3,19.4-1.3s0.3-1,0.2-1.5c0.2,0,0.4-0.1,0.6-0.1c1.3-0.2,1.8-3.7,1.1-4.1
				c-0.7-0.3-9.9-1-17.5-1c0.4-2.5,0.7-5.1,0.9-7.6c2.8-0.2,6.1-0.5,7.2-0.6c0.6,0,0.8-0.3,0.8-0.6c0.2,0,0.4,0,0.6,0
				c0.7-0.1,0.6-1,0.6-1s0.4,0,0.6-0.1c1.3-0.1,2-4.3,1.4-4.6c-0.6-0.3-6.6-0.8-10.9-1.1c0-0.6,0-1.2,0-1.8
				C695.6,262.2,695.7,260.3,695.8,258.5z M691.3,251.7C691.3,251.7,691.2,251.7,691.3,251.7c-0.1-0.1-0.1-0.2-0.1-0.3
				C691.2,251.5,691.2,251.6,691.3,251.7z"/>
		</g>
		<g>
			<path class="st2" d="M548.3,355.1c0.1-1.3-2.9-1.2-3.5-1.3c-0.2,0-0.8-0.1-1.5-0.1c-0.1-0.7-0.7-1-1.3-1
				c-0.1-0.1-0.1-0.1-0.2-0.2c-0.3-0.1-0.8,0-0.9,0.3c-0.3-0.2-0.5-0.4-0.5-0.2c0,0.2,0,0.4-0.1,0.6c-0.1,0-0.1,0.1-0.2,0.1
				c-0.2-0.2-0.3-0.3-0.3-0.2c0,0.3,0,0.5-0.1,0.8c-0.2,0.1-0.4,0.4-0.4,0.7c-0.4,0-0.7-0.1-0.7-0.1c0,0.4-0.1,0.8-0.1,1.1
				c-0.1,0-0.2,0-0.2,0.1c-0.8,10.3-1.8,20.7-1.9,31c0,0.1,0,0.1,0.1,0.2c0,0.3,0,0.6,0,0.9c0,0.2,0.4,0.4,0.8,0.4
				c0,0.1,0,0.2,0,0.3c0,0.6,0.1,1,0.7,1.1c0.1,0,0.3,0,0.5,0c0,0,0,0,0,0c0.1,0,0.1,0,0.2,0c0.4,0.7,0.9,1.3,1.3,1.5
				c0.4,0.2,0.8,0.1,1.1-0.2c0,0,0,0,0.1,0.1c0.3,0.3,2,1.5,2.1,0.1c0-0.1,0-0.2,0-0.4c0.6,0.2,1.3,0.3,1.3-0.6c0-0.5,0-1,0-1.5
				c0.8,0.1,1.4,0,1.4-0.6c0-0.6,0-1.2,0-1.8c0.1-0.1,0.2-0.3,0.2-0.5C546.6,375.5,547.6,365.3,548.3,355.1z"/>
			<path class="st2" d="M474.1,351.8c-0.1-1.3-2.6-1.2-3.4-1.3c-0.2,0-0.8-0.1-1.4-0.1c-0.1-0.5-0.3-0.9-0.9-1c-0.1,0-0.3,0-0.4,0
				c-0.1-0.1-0.1-0.1-0.2-0.2c-0.3-0.1-0.9,0-0.9,0.4c0,0,0,0,0,0.1c-0.3-0.3-0.5-0.4-0.5-0.4c0,0.2,0,0.4,0.1,0.6
				c-0.1,0-0.2,0.1-0.2,0.1c-0.1-0.2-0.4-0.5-0.4-0.2c0,0.3,0,0.5,0.1,0.8c-0.3,0.2-0.4,0.4-0.5,0.8c-0.4,0-0.8,0.1-0.8,0.1
				c0,0.3,0,0.6,0.1,0.9c-0.2,0-0.3,0-0.3,0c0,0.3,0,0.6,0.1,0.9c0,0,0,0,0,0c0.5,7.2,1,14.3,1.1,21.5c0,2.1,0,4.1-0.2,6.2
				c0,0.6-0.1,1.2-0.1,1.8c-0.1,0.3-0.2,0.6-0.3,0.9c-0.1,0.2-0.2,0.4-0.3,0.5c-1.7-1.3-3.3-3-4.8-4.3c-0.5-0.3-1.2-0.4-1.8-0.3
				c0,0-0.1,0-0.1,0c-0.6-0.6-1.2-1.1-1.7-1.7c-0.3-0.3-1-0.1-1.7,0.3c-0.2-0.2-0.2-0.2,0,0c0,0,0,0,0,0c0,0,0,0,0,0c0,0,0,0,0,0
				c-0.4-0.2-0.8-0.2-1.3,0c-0.3-0.2-0.6-0.2-0.9-0.1c-0.3,0.2-0.5,0.5-0.4,0.9c-0.1,0-0.2,0-0.3,0.1c-0.1,0-0.1,0.1-0.1,0.1
				c0,0,0,0,0,0c0.1,0-0.8-0.1-0.5,0.2c0.2,0.2,0.4,0.3,0.5,0.5c0,0,0,0,0,0c-0.1,0-0.2,0.1-0.2,0.3c-0.1,0.1-0.1,0.1-0.1,0.2
				c0,0,0,0.1,0,0.1c-0.2,0-0.4,0.1-0.5,0c0.1,0.1,0.3,0.3,0.4,0.4c-0.1,0.2-0.1,0.4,0,0.6c0,0.1,0,0.1,0,0.2c0,0,0,0,0,0
				c0.1,0-0.8-0.1-0.5,0.1c0.2,0.2,0.4,0.4,0.6,0.6c0,0.1,0,0.1,0.1,0.2c-0.4,0.1-0.7,0.2-0.6,0.3c0.3,0.3,0.6,0.5,0.9,0.8
				c-0.1,0.3,0,0.6,0.3,0.8c2.2,1.9,4.6,4.4,7.3,5.9c1.4,1.1,2.9,2,4.5,2.5c0.4,0.1,0.7,0.2,1.1,0.2c0.3,0.1,0.6,0.3,0.9,0.4
				c1.5,0.4,3,0.3,4.3-0.7c0.2-0.1,0.3-0.3,0.5-0.4c1.4-0.8,2.2-1.9,2.7-3.4c1.1-1.1,1.6-2.6,1.9-4.1c0.1-0.7,0.2-1.4,0.2-2.1
				c0.2-0.9,0.2-1.8,0.3-2.7C475.7,370.5,475,361.1,474.1,351.8z"/>
			<path class="st2" d="M593.9,385.6c-0.1-10.4-0.1-20.8-0.1-31.3c0-1.3-3.1-1-3.7-1c-0.1,0-0.2,0-0.3,0c-0.1-0.2-0.2-0.3-0.3-0.4
				c0-0.8-0.5-1.1-1.3-1c-0.1,0-0.3,0.1-0.5,0.1c-0.1-0.1-0.2-0.2-0.4-0.2c-0.1,0-0.4,0-0.7,0.1c-0.4-0.3-0.9-0.3-0.9,0.3
				c0,0.1,0,0.3,0,0.4c-0.1,0-0.1,0-0.2,0c-0.3-0.2-0.5-0.2-0.5,0c0,0.1,0,0.2,0,0.3c-0.3-0.1-0.6-0.2-0.6-0.2c0,0.2,0,0.5,0,0.7
				c-0.1,0.1-0.1,0.2-0.1,0.3c-0.1-0.1-0.2-0.1-0.2-0.2c0,0.4,0,0.7,0,1.1c0,0,0,0,0,0c0,0.1,0,0.2,0,0.3c-0.2,0-0.4,0.1-0.4,0.2
				c0,7.1,0,14.1,0.1,21.2c-2-2.4-3.9-4.8-5.7-7.3c-2.7-3.7-4.8-7.5-6.8-11.6c-0.5-0.4-1.1-0.6-1.7-0.6c-0.2,0-0.4,0-0.6,0
				c0-0.8,0-1.6,0.1-2.4c0-1.3-2.9-1.2-3.6-1.3c-0.2,0-0.7-0.1-1.3-0.1c-0.1-0.6-0.3-1-0.9-1c-0.1,0-0.2,0-0.4,0
				c-0.1-0.1-0.1-0.1-0.2-0.1c-0.2-0.1-0.8,0-1,0.3c-0.2-0.2-0.4-0.3-0.4-0.2c0,0.2,0,0.4,0,0.6c-0.1,0-0.1,0-0.2,0.1
				c-0.1-0.2-0.3-0.4-0.3-0.2c0,0.2,0,0.4,0,0.7c0,0-0.1,0.1-0.1,0.1c-0.3,0.1-0.6,0.4-0.6,0.9c0,0,0,0,0,0c0,0,0,0.1-0.1,0.1
				c-0.2,0.1-0.4,0.2-0.4,0.3c0,0.2,0,0.4,0,0.6c-0.2,0-0.4,0.1-0.4,0.1c-0.5,10.6-0.5,21.1-0.2,31.7c0,0.1,0,0.1,0.1,0.1
				c0,0.3,0,0.6,0,0.8c0,0.3,0.3,0.4,0.7,0.5c0,0,0,0,0,0.1c0,0.6,0.2,1.3,0.9,1.4c0.1,0,0.3,0,0.4,0c0.1,0.1,0.2,0.1,0.2,0.2
				c0.1,0.1,0.3,0.1,0.4,0.1c0,0,0,0.1,0.1,0.1c0.4,0.7,0.9,1.3,1.5,1.9c0.7,0.4,1.2,0.1,1.3-0.5c0.7,0.4,1.6,0.9,1.6-0.1
				c0-0.2,0-0.4,0-0.7c0.5,0.1,1,0.1,1-0.7c0-0.5,0-1.1,0-1.6c0.8,0.1,1.5,0,1.4-0.5c0-0.6,0-1.1,0-1.7c0.2-0.1,0.3-0.3,0.3-0.6
				c-0.1-4.5-0.2-8.9-0.2-13.4c4,5.6,8.7,10.8,13.1,16c0.2,0.2,0.5,0.1,0.9,0c0.1,0.1,0.2,0.1,0.3,0.2c0.3,0.4,0.6,0.7,0.9,1.1
				c0.5,0.5,1.3,1.1,1.8,0.4c0.4,0.4,0.9,0.7,1.4,0.8c0.2,0,0.4-0.1,0.5-0.2c0.2,0,0.5-0.1,0.7-0.2c0.1,0,0.1,0.1,0.2,0.1
				c0.4,0.3,1.9,1.1,1.9-0.1c0,0,0,0,0,0c0.7,0.3,1.9,0.7,1.8-0.5c0-0.5,0-1,0-1.5c0.8,0,1.4-0.1,1.4-0.6c0-0.6,0-1.2,0-1.8
				C593.8,386,593.9,385.9,593.9,385.6z"/>
			<path class="st2" d="M525.9,372c0.4-1.8,0.4-3.7-0.2-5.5c-0.8-2.7-2.6-4.3-4.6-6c-0.6-0.5-1.7-0.6-2.8-0.5
				c-0.2-0.2-0.4-0.4-0.6-0.6c0-0.2-0.2-0.4-0.5-0.5c-0.4-0.2-0.8-0.5-1.3-0.7c0.4-0.2,0.8-0.6,0.4-1.1c-0.4-0.7-1-1.3-1.7-1.7
				c-1.3-0.6-2.6-1-3.9-1.3c-0.9-0.6-1.8-1-2.9-1.2c-1-0.3-2.1-0.5-3.2-0.5c-0.4-0.1-0.7-0.1-1.1-0.1c-0.5-0.1-1.1-0.1-1.6-0.1
				c-1.6,0-3.2,0.2-4.7,0.7c-1.6,0.6-3.1,1.5-4.5,2.5c-0.7,0.4-1.4,0.9-2,1.5c-2.3,2.2-4,4.8-5,7.8c-0.4,1-0.7,2.1-0.9,3.2
				c-0.5,1.9-0.6,3.9-0.3,5.8c0,0.1,0,0.2,0.1,0.3c0,0.3,0,0.5,0.1,0.8c0.3,2.4,1.3,4.6,2.7,6.5c0.7,1.3,1.7,2.5,2.9,3.6
				c1.2,1.1,2.5,1.9,3.9,2.5c0.2,0.1,0.4,0.3,0.5,0.4c2.2,1.3,4.6,2.1,7.1,2.2c2.2,0.4,4.4,0.3,6.6,0c4.4-0.7,8.7-2.5,11.5-5.9
				c1.1-1.1,2-2.4,2.8-3.8c1.7-2.2,3-4.7,3.3-7.3C525.9,372.6,525.9,372.3,525.9,372z M503.1,361.4c2.9,0,5.7,0.8,8.5,1.5
				c0,0.2,0,0.3,0.1,0.4c0.2,0.2,0.5,0.4,0.7,0.6c0,0.6,0.1,1.3,0.3,1.5c1,0.8,1.9,1.6,2.7,2.6c0.3,0.9,0.6,1.8,0.9,2.7
				c0,0.1,0,0.1,0,0.2c0,0.5-0.1,1-0.2,1.5c-0.7,1.8-1.7,3.5-3,4.9c-0.5,0.6-1,1.1-1.6,1.6c-2,1.4-4.3,2.4-6.7,3.1
				c-0.7,0.2-1.4,0.3-2,0.4c-0.9-0.1-1.8-0.3-2.7-0.6c-1.2-0.9-2.2-1.8-3.1-3c-1.9-2.5-2.6-5.3-2.5-8.2c0.2-1.1,0.5-2.2,0.9-3.4
				c0.2-0.4,0.4-0.9,0.6-1.3c0.1-0.1,0.2-0.2,0.3-0.4c1.3-1.4,2.9-2.6,4.7-3.4c0.5-0.2,0.9-0.4,1.4-0.5
				C502.5,361.4,502.8,361.4,503.1,361.4z"/>
		</g>
		<g>
			<path class="st2" d="M542.8,488.6c-0.4-6.2-2.8-12.4-8.4-15.8c-0.2-0.1-0.4-0.2-0.6-0.3c1.2-1.1,2.3-2.3,3-3.8
				c0.8-0.9,1.4-1.8,1.9-2.9c0.9-2.1,0.8-4.4-0.2-6.3c-0.1-1.2-0.6-2.3-1.4-3.3c-1.5-1.8-3.6-2.7-5.8-3.1c-1.2-0.8-2.6-1.3-4.1-1.5
				c-1.1-0.3-2.1-0.4-3.2-0.4c-3-0.3-5.9,0.7-8.6,1.9c-0.1-0.4-0.4-0.6-0.9-0.6c-0.1,0-0.3,0-0.4,0c-0.1-0.1-0.2-0.1-0.2-0.2
				c-0.2-0.1-0.7,0-1,0.3c-0.3-0.2-0.5-0.3-0.5-0.1c0,0.2,0,0.4,0,0.6c-0.1,0-0.1,0-0.2,0.1c-0.1-0.2-0.4-0.4-0.4-0.1
				c0,0.2,0,0.5,0,0.7c0,0,0,0,0,0c0,0,0,0,0,0c-0.3,0.1-0.5,0.4-0.6,0.9c-0.3,0.1-0.5,0.2-0.5,0.3c0,0.2,0,0.4,0,0.6
				c-0.2,0-0.4,0-0.4,0.1c0.4,11.1,0.9,22.3,1.5,33.4c0,0,0,0.1,0.1,0.1c0,0.3,0,0.7,0,1c0,0.2,0.4,0.3,0.8,0.3c0,0.2,0,0.3,0,0.5
				c0,0.7,0.7,0.9,1.2,0.8c0,0,0,0,0,0c0,0,0.1,0,0.2,0c0.4,0.6,0.9,1.2,1.3,1.3c0.3,0.1,0.7,0,0.9-0.2c0,0,0.1,0.1,0.1,0.1
				c0.3,0.3,2,1.2,2-0.1c0,0,0-0.1,0-0.1c0.7,0.3,1.8,0.6,1.7-0.5c0-0.5-0.1-1-0.1-1.6c0.9,0,1.5-0.2,1.5-0.5c0-0.6-0.1-1.2-0.1-1.7
				c0.2-0.2,0.3-0.3,0.3-0.6c-0.2-3.4-0.3-6.8-0.4-10.1c0.2,0.1,0.4,0.1,0.6,0c0.1,0,0.2-0.1,0.3-0.1c0.2,0,0.3,0,0.5,0.1
				c0.4,0.2,0.7,0.3,1,0.2c0,0,0.1,0,0.1,0c1.8,0.2,3.6,0.9,5.2,1.9c0,0,0,0,0.1,0.1c0.7,0.8,1.3,1.5,1.8,2.4
				c1.3,2.6,1.9,5.3,2.1,8.3c0,0.3,0.3,0.5,0.7,0.6c0,0.2,0,0.4,0.1,0.6c0.1,0.7,0.5,1,1.1,0.9c0.1,0,0.1,0,0.2,0
				c0.1,0.1,0.2,0.1,0.3,0.1c0.4,0.7,0.9,1.4,1.3,1.6c0.4,0.2,1,0.2,1.2-0.2c0.4,0.3,2.1,1.6,2.1,0.3c0-0.2,0-0.4,0-0.6
				c0.6,0.2,1.3,0.3,1.2-0.6c0-0.6-0.1-1.1-0.2-1.7c0.8,0.2,1.7,0.2,1.7-0.4c0-0.5-0.1-1.1-0.1-1.6
				C542.6,489.2,542.8,489,542.8,488.6z M523.4,460.4c0.5-0.1,1-0.2,1.5-0.3c1.3,0,3,0.1,4.3,0.5c0,0,0,0,0,0
				c0.1,0.2,0.1,0.3,0.2,0.5c0.1,0.4,0.1,0.8,0,1.2c-0.4,1-1,1.8-1.7,2.6c-1.9,1.6-4.1,2.8-6.4,3.8c0,0,0,0-0.1,0
				c-0.2,0-0.4,0-0.5,0c-0.1-2.7-0.2-5.4-0.3-8.1C521.4,460.7,522.4,460.6,523.4,460.4z"/>
			<path class="st2" d="M500.8,454.9c-0.5-0.4-1-0.6-1.7-0.6c-0.8-0.1-1.6-0.2-2.4-0.2c-0.1-0.1-0.1-0.2-0.2-0.2c0-0.5-0.1-1-0.6-1
				c-0.4,0-0.8,0-1.1,0c-0.1-0.1-0.2-0.1-0.3-0.1c-0.3,0-0.6,0-0.9,0c-0.1,0-0.1-0.1-0.2-0.1c-9.6-0.1-19.2,0-28.8,0
				c-0.2,0-0.2,0.3,0,0.6c-0.2,0-0.4,0-0.6,0c-0.1,0-0.1,0.1-0.1,0.3c-0.2,0-0.5,0-0.7,0c0.2,0,0.5,0.2,0.7,0.5c0,0,0,0,0,0
				c-0.3,0.1-0.5,0.5-0.6,0.9c-0.2,0.1-0.4,0.1-0.6,0.1c0.2,0,0.4,0,0.6,0c0,0.1,0,0.1,0,0.2c-0.2,0-0.3,0.1-0.4,0.2
				c-0.1,0.1-0.3,0.3,0.1,0.3c0,0,0.1,0,0.1,0c0,0,0,0,0,0.1c-0.2,0-0.4,0-0.5,0c-0.3,0-0.3,0.2,0,0.3c0.1,0.1,0.3,0.1,0.4,0.1
				c0,0.1,0,0.3,0.1,0.4c0,0,0,0-0.1,0c-0.3,0-0.6,0-0.5,0.4c0.1,0.2,0.4,0.2,0.8,0.3c0,0.1-0.1,0.1-0.1,0.2
				c-0.1,0.5,0.1,1.4,0.7,1.4c0.3,0,0.6,0,0.9,0.1c0,0,0,0,0,0c0.5,1,1.2,2.3,2,2.4c3.1,0.3,6.2,0.5,9.2,0.6
				c-0.4,8.2-1,16.4-1.7,24.6c0,0.1,0,0.2,0.1,0.3c0,0.2,0,0.5-0.1,0.7c0,0.4,0.3,0.7,0.8,0.8c0,0.7,0.1,1.5,0.8,1.8
				c0.2,0.1,0.4,0.1,0.6,0c0.1,0.1,0.1,0.1,0.2,0.2c0.2,0.1,0.4,0.2,0.6,0.2c0.3,0.4,0.5,0.8,0.8,1.2c0.3,0.6,0.7,1,1.2,1.2
				c0.4,0.1,0.7-0.1,0.8-0.4c0-0.2,0-0.4,0-0.6c0.6,0.4,1.2,0.6,1.3-0.3c0-0.2,0-0.5,0-0.7c0.5,0.2,1,0.1,1-0.6
				c0-0.5,0.1-1.1,0.1-1.6c0.7,0.1,1.3,0.1,1.4-0.5c0.1-0.6,0.1-1.2,0.1-1.9c0.1-0.1,0.2-0.3,0.2-0.4c0.8-7.8,1.3-15.7,1.7-23.5
				c3.2,0,6.5,0,9.7,0c0.6,0,0.8-0.3,0.9-0.8c0.2,0,0.4,0,0.6,0c0.8,0,0.8-0.6,0.6-1.2c0.2,0,0.5,0,0.7,0c1.6,0-0.4-2.1-0.5-2.2
				c0,0-0.1-0.1-0.1-0.1c0.6,0,1.2,0,1.7,0c1.1,0,1.3-0.9,0.5-1.5c-0.3-0.2-0.6-0.3-0.8-0.4C500.1,456.1,501.5,455.9,500.8,454.9z"
				/>
			<path class="st2" d="M581.4,472.8c0.4-3.7,0.4-7.3,0-10.9c0-1.9,0-3.8-0.1-5.7c0-0.8-0.7-1.3-1.5-1.6c-0.1-0.4-0.2-0.8-0.4-1.2
				c-0.1-0.6-1.8-0.9-3-0.8c-0.1-0.4-0.3-0.9-0.7-0.9c-0.2,0-0.4,0-0.5,0.1c-0.1-0.1-0.1-0.1-0.2-0.2c-0.3-0.1-0.6-0.1-0.7,0.3
				c0,0.1,0,0.1,0,0.2c-0.1-0.1-0.2-0.1-0.2-0.2c0,0-0.4-0.5-0.4-0.3c0,0.2,0,0.4,0,0.6c-0.1,0-0.1,0.1-0.1,0.2c0,0,0,0.1,0,0.1
				c-0.2-0.2-0.4-0.4-0.4-0.5c0,0.4,0,0.8,0,1.2c-0.1,0.1-0.1,0.2-0.2,0.4c-0.5-0.2-0.9-0.4-0.9-0.6c0,0.3,0,0.7,0,1c0,0,0,0,0,0
				c0,0.1,0,0.3,0,0.4c-0.2,0-0.4-0.1-0.4,0c0,0.3,0,0.6,0,1c0,0,0,0,0,0c0,3.2,0.1,6.4,0,9.6c0,1.8-0.1,3.6-0.2,5.5
				c-0.6,0-1.2,0-1.8,0c-0.4,0-0.9-0.1-1.3-0.1c-1.4-0.1-3.1-0.2-4.6-0.5c-0.5-0.4-0.9-0.9-1.1-1.5c-0.7-1.7-0.4-3.6-0.4-5.4
				c0-0.9,0-1.9,0-2.8c0.2-1.7-0.1-3.3-0.8-4.9c-0.2-0.6-2.5-1.1-4.3-1c0,0,0-0.1,0-0.1c-0.1-0.6-0.8-0.9-1.3-0.8
				c0,0-0.1-0.1-0.1-0.1c-0.2-0.1-0.7-0.1-0.7,0.3c0,0.1,0,0.2,0,0.3c-0.3-0.3-0.5-0.5-0.5-0.6c0,0.2,0,0.4,0,0.6
				c-0.1,0-0.1,0.2-0.2,0.4c-0.2-0.3-0.3-0.5-0.3-0.6c0,0.3,0,0.6,0,0.9c-0.3,0.1-0.5,0.4-0.5,0.8c0,0,0,0.1,0,0.1
				c-0.1,0.1-0.1,0.1-0.1,0.2c-0.3,0.1-0.6,0.2-0.6,0.3c0,0.1,0,0.2,0,0.3c-0.2,0-0.4,0-0.4,0c0,3.7-0.2,7.5,0,11.2
				c0,0.1,0,0.3,0,0.4c0,0.2,0,0.4,0,0.6c0,1.3,0.4,2.4,1.1,3.4c0.2,0.6,0.5,1.2,0.9,1.7c0.7,0.8,1.6,1.4,2.6,1.8
				c0.9,1.2,1.7,2.1,3.1,2.8c1.1,0.6,2.3,0.9,3.6,1.1c2.2,0.4,4.5,0.1,6.8,0.2c0.1,0,0.3,0,0.4,0c-0.2,1.4-0.4,2.9-0.6,4.3
				c-0.1,0.2-0.2,0.4-0.3,0.6c-0.4,0.3-0.8,0.5-1.3,0.7c-0.8,0.1-1.6,0.3-2.4,0.3c-0.9,0.1-1.8,0.3-2.7,0.4c-0.2,0-0.5,0-0.7,0
				c-0.8-0.1-1.6-0.1-2.4-0.2c-0.2,0-0.4,0-0.6,0.1c-0.3,0-0.6-0.1-1-0.1c-0.1,0-0.2,0-0.4,0.1c-0.3,0-0.5,0-0.8-0.1
				c-0.4,0-0.6,0.7-0.6,0.9c0,0,0,0.1,0.1,0.1c-0.1,0-0.2,0-0.3,0c-0.1,0-0.2,0-0.2,0.1c-0.4,0-0.7-0.1-0.8,0.1
				c-0.1,0.3,0.2,0.3,0.5,0.3c0.1,0,0.1,0,0.2,0c0,0,0,0.1,0,0.1c0,0,0,0,0,0.1c0,0,0,0,0,0.1c-0.1,0-0.1,0.1-0.2,0.1
				c-0.2,0.1-0.3,0.3-0.4,0.5c-0.1,0.1-0.5,0.3-0.3,0.3c0.1,0,0.2,0,0.3,0c0,0,0,0.1,0,0.1c0,0.1,0.1,0.3,0.2,0.4
				c-0.2,0-0.4,0-0.6-0.1c-0.4-0.1-0.2,0.2-0.2,0.3c0.1,0.2,0.4,0.3,0.8,0.5c0,0.1,0,0.1,0.1,0.2c-1-0.1-1.1,0.6,0,0.8
				c0,0,0.1,0,0.1,0c0,0,0,0,0,0c-0.2,0.5,0.1,1.2,0.6,1.3c0.3,0.1,0.7,0.1,1,0.2c0.4,0.7,0.9,1.4,1.5,1.5c0.5,0.1,0.9,0.1,1.4,0.2
				c0.2,0.1,0.4,0.2,0.6,0.2c1.1,0.2,2.3,0.3,3.4,0.4c0.2,0,0.4,0,0.6,0.1c0.2,0,0.3,0,0.4,0c0.5,0,1,0,1.6-0.1
				c2.2-0.3,4.7-0.2,6.7-1c0.9-0.3,1.6-0.8,2.1-1.5c0.8-0.5,1.5-1.3,1.8-2.4c0-0.1,0.1-0.2,0.1-0.3c0.5-0.4,1-0.9,1.3-1.6
				c0.4-0.8,0.5-1.8,0.7-2.7c0.5-3,0.8-6.1,1-9.2c0.1-0.8,0.2-1.6,0.3-2.5C581.4,473.2,581.5,473,581.4,472.8z"/>
		</g>
		<g>
			<path class="st2" d="M589.2,561.5c4.1-0.5,17.3-3.1,17.3-3.1s1.2-4.1,0.7-4.5c-0.8-0.5-2.1-0.5-3.2-0.5c0-0.5-0.4-1-0.9-1
				c-0.2,0-0.3,0-0.5,0c-0.1-0.1-0.3-0.2-0.5-0.2c-0.2,0-0.4,0-0.6,0.1c-0.1-0.1-0.2-0.1-0.2-0.1l-16.5,1.4c0.1,0,0.2,0.2,0.3,0.4
				c-0.3,0-0.5,0-0.8,0.1c-0.1-0.2-0.2-0.3-0.4-0.3c-0.3-0.1-0.5,0-0.7,0.1c0-0.1-0.1-0.1-0.1-0.1c-0.2-0.1-0.5-0.2-0.5,0.2
				c0,0.2,0,0.4,0,0.6c0,0,0,0,0,0c0-0.1-0.1-0.3-0.2-0.3c-0.4-0.1-0.4,0.2-0.4,0.5c0,0,0,0,0,0c0,0,0,0,0,0c0,0,0,0,0,0
				c-0.1-0.3-0.3-0.5-0.3-0.8c0,0.3,0,0.7-0.1,1c-0.2,0.2-0.4,0.6-0.4,0.9c0,0-0.1,0.1-0.1,0.1c-0.4,0-0.7,0.1-0.7,0.3
				c0,0.1,0,0.3,0,0.4c-0.2,0-0.4,0-0.4-0.1c-0.7,10-1.4,20-2.4,30c0,0.1,0.1,0.1,0.1,0.2c0,0.3,0,0.5-0.1,0.8
				c0,0.3,0.3,0.4,0.7,0.5c0,0,0,0,0,0.1c0,0.1,0,0.2,0,0.3c-0.1,0.1,0,0.1,0,0.2c0.1,0.4,0.3,0.7,0.6,0.9c0,0.1,0,0.1,0,0.2
				c0.1,0.7,0.5,0.7,1.1,0.6c0.1,0,0.2,0,0.3,0c0.4,0.7,0.9,1.6,1.5,1.6c0.1,0,0.1,0,0.2,0c0.2,0.1,0.5,0.1,0.6,0
				c0.4,0.4,0.8,0.6,1.1,0.6c6.7-0.2,19.4-1.3,19.4-1.3s0.3-1,0.2-1.5c0.2,0,0.4-0.1,0.6-0.1c1.3-0.2,1.8-3.7,1.1-4.1
				c-0.7-0.3-9.9-1-17.5-1c0.4-2.5,0.7-5.1,0.9-7.6c2.8-0.2,6.1-0.5,7.2-0.6c0.6,0,0.8-0.3,0.8-0.6c0.2,0,0.4,0,0.6,0
				c0.7-0.1,0.6-1,0.6-1s0.4,0,0.6-0.1c1.3-0.1,2-4.3,1.4-4.6c-0.6-0.3-6.6-0.8-10.9-1.1c0-0.6,0-1.2,0-1.8
				C588.9,565.2,589.1,563.3,589.2,561.5z M584.6,554.7C584.6,554.7,584.6,554.7,584.6,554.7c-0.1-0.1-0.1-0.2-0.1-0.3
				C584.5,554.5,584.6,554.6,584.6,554.7z"/>
			<path class="st2" d="M471.7,590.8c0-9.2-0.2-18.4-0.7-27.6c0-1.7-0.1-3.4-0.1-5.1c0-0.2-0.1-0.4-0.2-0.6c0-0.6-0.1-1.1-0.1-1.7
				c-0.1-1.3-2.7-0.9-3.3-0.9c-0.2,0-0.5,0-0.8,0c0-0.1,0-0.2,0-0.3c0-1-0.9-1.1-1.6-0.9c-0.3-0.2-0.7-0.2-1-0.1
				c-0.4-0.2-0.8-0.2-0.8,0.2c0,0.2,0,0.4,0,0.6c-0.3-0.1-0.6-0.2-0.6,0.1c0,0.1,0,0.2,0,0.3c-0.3,0-0.6-0.1-0.6-0.1
				c0,0.4,0,0.7,0,1.1c-0.2,0-0.3,0.1-0.3,0.1c0,0.3,0,0.6,0,0.9c-0.1,0-0.2,0-0.2-0.1c0.1,5.8,0.1,11.6,0.3,17.5
				c-4.7,0.1-9.4,0.1-14-0.2c0.4-6.1,0.7-12.2,1.1-18.3c0.1-1.3-3-1.2-3.6-1.2c-0.2,0-0.7-0.1-1.2-0.1c0-0.9-0.8-1.2-1.5-1.1
				c-0.1-0.1-0.1-0.1-0.2-0.1c-0.2-0.1-0.7,0-0.9,0.2c-0.3-0.2-0.5-0.3-0.5-0.1c0,0.2,0,0.4,0,0.6c-0.1,0-0.1,0-0.2,0.1
				c-0.2-0.2-0.3-0.2-0.3-0.2c0,0.2,0,0.4,0,0.7c-0.3-0.2-0.6-0.3-0.6-0.5c0,0.4-0.1,0.9-0.1,1.3c-0.3,0-0.5,0-0.5,0.1
				c0,0.3,0,0.6,0,0.9c-0.1,0-0.2,0-0.2,0.1c-0.7,11.3-1.4,22.7-2,34c0,0.1,0,0.1,0.1,0.2c0,0.3,0,0.6,0,0.8c0,0.3,0.4,0.4,0.8,0.5
				c0,0.1,0,0.1,0,0.2c0,0.6,0.1,1.1,0.7,1.2c0.2,0,0.3,0,0.5,0c0,0,0,0,0.1,0c0.1,0,0.2,0,0.3,0.1c0.4,0.7,1,1.4,1.4,1.6
				c0.5,0.2,0.9,0.1,1.1-0.2c0,0,0,0,0.1,0.1c0.3,0.2,2.1,1.7,2.2,0.2c0-0.2,0-0.4,0-0.6c0.5,0.2,1,0.1,1.1-0.7
				c0-0.5,0.1-1.1,0.1-1.6c0.7,0.1,1.3,0,1.4-0.5c0-0.6,0.1-1.2,0.1-1.9c0.1-0.1,0.2-0.3,0.2-0.4c0.1-2.1,0.2-4.2,0.4-6.3
				c2.7,0.5,5.5,0.8,8.2,0.8c2.2,0.1,4.4,0.1,6.5,0c0,0.3,0,0.6,0,1c0,2.7,0.1,5.3,0.1,8c0,0.1,0.4,0.2,0.9,0.3c0,0.3,0,0.6,0,0.9
				c0,0.6,0.7,0.6,1.3,0.4c0.2,0.5,0.7,0.9,1,1c0.2,0,0.5-0.1,0.7-0.2c0.3,0.2,0.5,0.3,0.6,0.3c0.4,0.1,0.7-0.2,0.9-0.5
				c0.9,0.2,1.6,0.1,1.6-0.7c0-0.3,0-0.5,0-0.8c1.1,0.2,2.7,0.3,2.7-0.5c0-0.6,0-1.2,0-1.8C471.7,591.1,471.7,591,471.7,590.8z"/>
			<path class="st2" d="M521.8,574c0.4-1.8,0.4-3.7-0.2-5.5c-0.8-2.7-2.6-4.3-4.6-6c-0.6-0.5-1.7-0.6-2.8-0.5
				c-0.2-0.2-0.4-0.4-0.6-0.6c0-0.2-0.2-0.4-0.5-0.5c-0.4-0.2-0.8-0.5-1.3-0.7c0.4-0.2,0.8-0.6,0.4-1.1c-0.4-0.7-1-1.3-1.7-1.7
				c-1.3-0.6-2.6-1-3.9-1.3c-0.9-0.6-1.8-1-2.9-1.2c-1-0.3-2.1-0.5-3.2-0.5c-0.4-0.1-0.7-0.1-1.1-0.1c-0.5-0.1-1.1-0.1-1.6-0.1
				c-1.6,0-3.2,0.2-4.7,0.7c-1.6,0.6-3.1,1.5-4.5,2.5c-0.7,0.4-1.4,0.9-2,1.5c-2.3,2.2-4,4.8-5,7.8c-0.4,1-0.7,2.1-0.9,3.2
				c-0.5,1.9-0.6,3.9-0.3,5.8c0,0.1,0,0.2,0.1,0.3c0,0.3,0,0.5,0.1,0.8c0.3,2.4,1.3,4.6,2.7,6.5c0.7,1.3,1.7,2.5,2.9,3.6
				c1.2,1.1,2.5,1.9,3.9,2.5c0.2,0.1,0.4,0.3,0.5,0.4c2.2,1.3,4.6,2.1,7.1,2.2c2.2,0.4,4.4,0.3,6.6,0c4.4-0.7,8.7-2.5,11.5-5.9
				c1.1-1.1,2-2.4,2.8-3.8c1.7-2.2,3-4.7,3.3-7.3C521.8,574.6,521.8,574.3,521.8,574z M499,563.4c2.9,0,5.7,0.8,8.5,1.5
				c0,0.2,0,0.3,0.1,0.4c0.2,0.2,0.5,0.4,0.7,0.6c0,0.6,0.1,1.3,0.3,1.5c1,0.8,1.9,1.6,2.7,2.6c0.3,0.9,0.6,1.8,0.9,2.7
				c0,0.1,0,0.1,0,0.2c0,0.5-0.1,1-0.2,1.5c-0.7,1.8-1.7,3.5-3,4.9c-0.5,0.6-1,1.1-1.6,1.6c-2,1.4-4.3,2.4-6.7,3.1
				c-0.7,0.2-1.4,0.3-2,0.4c-0.9-0.1-1.8-0.3-2.7-0.6c-1.2-0.9-2.2-1.8-3.1-3c-1.9-2.5-2.6-5.3-2.5-8.2c0.2-1.1,0.5-2.2,0.9-3.4
				c0.2-0.4,0.4-0.9,0.6-1.3c0.1-0.1,0.2-0.2,0.3-0.4c1.3-1.4,2.9-2.6,4.7-3.4c0.5-0.2,0.9-0.4,1.4-0.5
				C498.4,563.4,498.7,563.4,499,563.4z"/>
			<path class="st2" d="M565.1,560.7c-1-1.7-2.4-3.1-4.1-4.2c-1.5-0.9-3.2-1.5-4.9-1.9c-1.2-0.7-2.5-1.2-3.8-1.5
				c-0.6-0.1-1.1-0.2-1.7-0.3c-0.5-0.1-1.1-0.2-1.6-0.2c-2.8-0.4-5.5,0-8.1,1.1c-0.8-0.3-1.9-0.3-2.5-0.3c-0.2,0-0.7-0.1-1.3-0.1
				c-0.1-0.6-0.3-0.9-0.9-1c-0.1,0-0.2,0-0.4,0c-0.1-0.1-0.1-0.1-0.2-0.2c-0.2-0.1-0.8,0-0.9,0.3c-0.3-0.2-0.5-0.4-0.5-0.2
				c0,0.2,0,0.4,0,0.6c-0.1,0-0.2,0.1-0.3,0.2c-0.2-0.2-0.4-0.3-0.4-0.3c0,0.3,0,0.5,0.1,0.8c-0.3,0.1-0.4,0.3-0.5,0.7
				c-0.4-0.1-0.7-0.1-0.7-0.2c0,0.4,0.1,0.8,0.1,1.3c-0.2,0-0.4,0-0.4,0c0,0.3,0,0.6,0.1,0.9c0,0,0,0,0,0c0.3,5,0.6,10,0.8,15
				c0,0.8,0.1,1.6,0.1,2.4c0.3,6,0.4,12,0.3,18c0,0.1,0,0.1,0.1,0.2c0,0.3,0,0.6,0,0.9c0,0.3,0.4,0.4,0.8,0.5c0,0.1,0,0.1,0,0.2
				c0,0.6,0.1,1,0.7,1.2c0.1,0,0.3,0,0.5,0c0,0,0,0,0,0c0.1,0,0.2,0,0.3,0c0.4,0.6,0.9,1.3,1.3,1.4c0.4,0.2,0.8,0.1,1.1-0.2
				c0,0,0,0,0,0c0.3,0.3,2,1.4,2,0.1c0-0.1,0-0.2,0-0.3c0.7,0.3,1.4,0.4,1.4-0.6c0-0.5,0-1,0-1.5c0.8,0.1,1.4,0,1.4-0.6
				c0-0.6,0-1.2,0-1.8c0.1-0.1,0.2-0.3,0.2-0.5c0.1-2.1,0.1-4.2,0.1-6.3c4.2-0.4,8.6-0.7,12.2-2.6c1.9-0.8,3.6-2,5.1-3.6
				c1.1-0.9,2-2.1,2.8-3.4c0-0.1,0.1-0.1,0.1-0.2c0.2-0.2,0.4-0.4,0.5-0.6c1.4-1.7,2.2-3.7,2.3-5.7c0.2-0.7,0.4-1.4,0.4-2.1
				C567,563.8,566.1,562.5,565.1,560.7z M555.1,570.2c-0.3,0.3-0.6,0.6-0.9,0.9c-3.1,2.3-7.1,3.2-11,3.5c0-0.6,0-1.2-0.1-1.9
				c-0.1-3.1-0.2-6.1-0.5-9.2c0.7-0.3,1.4-0.6,2.2-0.9c1.6-0.2,3.2-0.5,4.8-0.7c1.6,0.2,3.1,0.6,4.7,1.1c0.2,0,0.3,0.1,0.4,0.1
				c0.4,0.4,0.8,0.8,1.2,1.3C555.7,566.4,555.4,568.3,555.1,570.2z"/>
		</g>
		<g>
			<path class="st2" d="M527.5,666.6c-0.1-1.3-0.2-2.7-0.3-4c-0.3-2.2-0.6-4.5-1.7-6.5c-1.5-2.7-4.1-3.7-6.8-4.2
				c-1-0.8-2.2-1.2-3.6-1.4c-0.6-0.1-1.2-0.2-1.8-0.2c-4.1-0.6-8.6,1.6-11.8,4.4c-2.1,1.4-3.8,3.4-5,5.7c-0.6,1.1-0.9,2.2-1.1,3.3
				c-0.2,0.5-0.3,0.9-0.5,1.4c-0.4,1.9-0.5,3.8-0.3,5.8c0,0.2,0,0.4,0.1,0.5c0,0.1,0,0.3,0,0.4c0.6,6.7,1.3,13.4,2.1,20.1
				c0,0.1,0.3,0.1,0.6,0.1c0,0.4,0.1,0.8,0.1,1.2c0,0.2,0.4,0.3,0.8,0.2c0.1,0.1,0.3,0.1,0.4,0.1c0.2,0.5,0.6,1,1,1
				c0.2,0,0.5,0,0.8-0.2c0.7,0.3,1.3,0.4,1.6-0.3c0.7,0.2,1.2,0,1.2-0.8c0-0.2,0-0.4,0-0.6c1.6,0.2,3,0.1,3-0.4c-0.2-2-0.4-4-0.6-6
				c-0.1-1.3-0.2-2.7-0.3-4c4.4-0.1,8.8-0.4,13.2-0.8c0.1,3,0.2,6,0.3,8.9c0,0.2,0.4,0.5,0.8,0.6c0,0.1,0,0.2,0,0.3
				c0,0.9,0.8,1.1,1.4,0.9c0.1,0,0.1,0,0.2,0.1c0,0,0,0,0,0c0.3,0.6,0.7,1.1,1,1.3c0.4,0.2,0.9,0.1,1.2-0.2c0,0,0.1,0,0.1,0.1
				c0.4,0.2,1.5,0.8,1.6-0.2c0-0.1,0-0.2,0-0.3c0.6,0.3,1.3,0.4,1.4-0.5c0-0.5,0-0.9,0-1.4c1.1,0.1,2,0,2-0.4
				C528.2,682.9,528.4,674.6,527.5,666.6z M504.4,669.9c-0.1-1.3,0-2.5,0.2-3.8c0.1-0.6,0.3-1.1,0.6-1.6c0.2-0.3,0.4-0.6,0.7-0.8
				c0,0,0,0,0,0c1.3-1.1,2.7-2.1,4.2-2.9c0.4-0.1,0.9-0.2,1.3-0.3c1.6-0.1,3.2-0.2,4.8-0.3c0.2,0,0.3,0.1,0.5,0.2
				c0.4,1.2,0.7,2.6,0.9,4c0.4,2.9,0.6,5.7,0.7,8.6c-4.5,0.8-9,1.6-13.5,2.3C504.6,673.4,504.5,671.7,504.4,669.9z"/>
			<path class="st2" d="M671.6,661c4.1-0.5,17.3-3.1,17.3-3.1s1.2-4.1,0.7-4.5c-0.8-0.5-2.1-0.5-3.2-0.5c0-0.5-0.4-1-0.9-1
				c-0.2,0-0.3,0-0.5,0c-0.1-0.1-0.3-0.2-0.5-0.2c-0.2,0-0.4,0-0.6,0.1c-0.1-0.1-0.2-0.1-0.2-0.1l-16.5,1.4c0.1,0,0.2,0.2,0.3,0.4
				c-0.3,0-0.5,0-0.8,0.1c-0.1-0.2-0.2-0.3-0.4-0.3c-0.3-0.1-0.5,0-0.7,0.1c0-0.1-0.1-0.1-0.1-0.1c-0.2-0.1-0.5-0.2-0.5,0.2
				c0,0.2,0,0.4,0,0.6c0,0,0,0,0,0c0-0.1-0.1-0.3-0.2-0.3c-0.4-0.1-0.4,0.2-0.4,0.5c0,0,0,0,0,0c0,0,0,0,0,0c0,0,0,0,0,0
				c-0.1-0.3-0.3-0.5-0.3-0.8c0,0.3,0,0.7-0.1,1c-0.2,0.2-0.4,0.6-0.4,0.9c0,0-0.1,0.1-0.1,0.1c-0.4,0-0.7,0.1-0.7,0.3
				c0,0.1,0,0.3,0,0.4c-0.2,0-0.4,0-0.4-0.1c-0.7,10-1.4,20-2.4,30c0,0.1,0.1,0.1,0.1,0.2c0,0.3,0,0.5-0.1,0.8
				c0,0.3,0.3,0.4,0.7,0.5c0,0,0,0,0,0.1c0,0.1,0,0.2,0,0.3c-0.1,0.1,0,0.1,0,0.2c0.1,0.4,0.3,0.7,0.6,0.9c0,0.1,0,0.1,0,0.2
				c0.1,0.7,0.5,0.7,1.1,0.6c0.1,0,0.2,0,0.3,0c0.4,0.7,0.9,1.6,1.5,1.6c0.1,0,0.1,0,0.2,0c0.2,0.1,0.5,0.1,0.6,0
				c0.4,0.4,0.8,0.6,1.1,0.6c6.7-0.2,19.4-1.3,19.4-1.3s0.3-1,0.2-1.5c0.2,0,0.4-0.1,0.6-0.1c1.3-0.2,1.8-3.7,1.1-4.1
				c-0.7-0.3-9.9-1-17.5-1c0.4-2.5,0.7-5.1,0.9-7.6c2.8-0.2,6.1-0.5,7.2-0.6c0.6,0,0.8-0.3,0.8-0.6c0.2,0,0.4,0,0.6,0
				c0.7-0.1,0.6-1,0.6-1s0.4,0,0.6-0.1c1.3-0.1,2-4.3,1.4-4.6c-0.6-0.3-6.6-0.8-10.9-1.1c0-0.6,0-1.2,0-1.8
				C671.4,664.7,671.5,662.8,671.6,661z M667,654.2C667,654.2,667,654.2,667,654.2c-0.1-0.1-0.1-0.2-0.1-0.3
				C666.9,654,667,654.1,667,654.2z"/>
			<path class="st2" d="M603,656.6c0.1-1.3-2.9-1.2-3.5-1.3c-0.2,0-0.8-0.1-1.5-0.1c-0.1-0.7-0.7-1-1.3-1c-0.1-0.1-0.1-0.1-0.2-0.2
				c-0.3-0.1-0.8,0-0.9,0.3c-0.3-0.2-0.5-0.4-0.5-0.2c0,0.2,0,0.4-0.1,0.6c-0.1,0-0.1,0.1-0.2,0.1c-0.2-0.2-0.3-0.3-0.3-0.2
				c0,0.3,0,0.5-0.1,0.8c-0.2,0.1-0.4,0.4-0.4,0.7c-0.4,0-0.7-0.1-0.7-0.1c0,0.4-0.1,0.8-0.1,1.1c-0.1,0-0.2,0-0.2,0.1
				c-0.8,10.3-1.8,20.7-1.9,31c0,0.1,0,0.1,0.1,0.2c0,0.3,0,0.6,0,0.9c0,0.2,0.4,0.4,0.8,0.4c0,0.1,0,0.2,0,0.3c0,0.6,0.1,1,0.7,1.1
				c0.1,0,0.3,0,0.5,0c0,0,0,0,0,0c0.1,0,0.1,0,0.2,0c0.4,0.7,0.9,1.3,1.3,1.5c0.4,0.2,0.8,0.1,1.1-0.2c0,0,0,0,0.1,0.1
				c0.3,0.3,2,1.5,2.1,0.1c0-0.1,0-0.2,0-0.4c0.6,0.2,1.3,0.3,1.3-0.6c0-0.5,0-1,0-1.5c0.8,0.1,1.4,0,1.4-0.6c0-0.6,0-1.2,0-1.8
				c0.1-0.1,0.2-0.3,0.2-0.5C601.3,677,602.3,666.8,603,656.6z"/>
			<path class="st2" d="M483.5,673.7c0-0.3-0.1-0.6-0.3-0.8c-0.3-0.5-0.8-0.7-1.4-0.8c-0.9-0.2-2-0.2-3-0.2
				c-0.1-0.4-0.2-0.6-0.5-0.9c-0.3-0.3-0.5-0.4-0.9-0.4c-0.2,0-0.4,0.1-0.6,0.1c-0.1,0-0.1,0-0.2,0c-0.5-0.2-1.1-0.3-1.9-0.3
				c-3.1-0.3-8.7,2.1-8.1,1.9c-0.3,0.1-0.3,0.3-0.2,0.6c-0.4,0.2-0.6,0.3-0.5,0.2c-0.1,0-0.1,0.1-0.1,0.2c-0.2,0.1-0.4,0.1-0.6,0.2
				c0.3-0.1,0.6,0.1,0.9,0.2c0,0,0,0,0,0c-0.1,0-0.1,0-0.2,0c0,0,0,0.2,0.1,0.4c0,0,0,0,0,0.1c-0.3,0.1-0.7,0.2-1,0.3
				c0.2,0,0.5,0,0.9,0c-0.1,0.2-0.1,0.5-0.1,0.7c-0.3,0.1-0.6,0.2-0.9,0.3c0.1,0,0.2,0.1,0.5,0.1c0,0,0,0,0,0c0,0,0,0,0,0
				c0.1,0,0.3,0.1,0.4,0.2c0,0,0,0,0,0c-0.2,0.1-0.3,0.2-0.3,0.4c-0.4,0.1-0.6,0.2-0.5,0.2c0,0,0.3,0,0.6,0.1
				c0.1,0.2,0.4,0.2,0.6,0.2c0,0,0,0,0,0c0,0.1-0.1,0.1-0.1,0.2c-0.4,0.1-0.5,0.2,0,0.1c0,0,0,0.1,0,0.1c-0.4,0.1-0.5,0.2,0,0.1
				c0,0,0,0,0,0c0,0,0,0,0,0c-0.7,0.4-0.4,1.1,0.7,0.9c0.1,0,0.1,0,0.2,0c0.3,0.7,1,1.3,1.6,1.2c0.2-0.1,0.4-0.1,0.5-0.2
				c0.4,0.2,0.7,0.3,1,0.3c1.2-0.2,2.5-0.4,3.8-0.6c0.3,0.8,0.6,1.6,0.9,2.5c-0.2,0-0.3,0.1-0.4,0.2c0,0,0,0,0,0
				c-0.3-0.2-0.8-0.3-1.2,0c-2,1.7-4.5,3.1-7.1,3.7c-0.9-0.1-1.7-0.2-2.5-0.5c-0.1-0.1-0.1-0.1-0.2-0.1c-3.2-2.9-5.3-7.7-5.6-11.9
				c0-0.5,0-0.9,0-1.3c0.1-0.7,0.3-1.3,0.5-2c0.3-0.9,0.7-1.7,1.1-2.4c0.2-0.3,0.5-0.6,0.7-0.9c0.4-0.4,0.9-0.8,1.3-1.1
				c3.8-3.1,8.6-4.6,12.9-6.9c0,0,0.1-0.1,0.1-0.1c0.3-0.1,0.7-0.2,1-0.4c0.7-0.2,0.6-0.9,0-1.7c0.7-0.2,1.3-0.4,2-0.6
				c0.3-0.2,0.4-0.5,0.3-0.9c-0.4-0.5-0.9-0.9-1.5-1c-0.1,0-0.2-0.1-0.3-0.1c0.6-0.3,0.5-1.1-0.1-1.5c-0.6-0.4-1.8-0.5-2.8-0.4
				c0-0.5-0.5-1-1.2-0.9c-0.2-0.2-0.4-0.3-0.6-0.3c-0.3,0.1-0.5,0.1-0.8,0.2c-0.1-0.1-0.3-0.2-0.4-0.1c-5,1.4-9.9,3.2-13.8,6.4
				c-1.2,0.8-2.3,1.7-3.3,2.8c-2,2.2-3.5,4.8-4.3,7.7c-0.1,0.3-0.1,0.5-0.2,0.8c-0.7,2.1-0.9,4.2-0.7,6.3c0.1,2.9,1,5.7,2.5,8.4
				c0.3,0.6,0.7,1.1,1,1.7c1.6,2.8,3.7,5.3,6.6,6.6c0.9,0.7,1.9,1.2,3,1.6c0.8,0.3,1.6,0.4,2.5,0.5c2,0.5,4,0.3,5.8-0.2
				c2.4-0.3,4.7-1.4,6.7-2.8c0,0,0.1,0,0.1,0c-0.1,0.2-0.2,0.5-0.2,0.7c0.1,0.7,0.8,0.8,1.4,0.6c0,0,0.1,0,0.1,0
				c0.3,0.6,0.7,1.1,1.1,1.3c0.3,0.1,0.7,0.1,1-0.1c0.2,0.2,0.4,0.3,0.6,0.3c0.6,0.2,1-0.1,1.1-0.6c0.7,0.3,1.6,0.5,1.6-0.5
				c0-0.4,0-0.8,0-1.2c1,0.2,2.1,0.2,2-0.5c0-0.6-0.1-1.2-0.1-1.8c0.1-0.1,0.2-0.3,0.2-0.5C484.7,683.1,484.3,678.4,483.5,673.7z"/>
			<path class="st2" d="M577.3,687.1c-0.1-10.4-0.1-20.8-0.1-31.3c0-1.3-3.1-1-3.7-1c-0.1,0-0.2,0-0.3,0c-0.1-0.2-0.2-0.3-0.3-0.4
				c0-0.8-0.5-1.1-1.3-1c-0.1,0-0.3,0.1-0.5,0.1c-0.1-0.1-0.2-0.2-0.4-0.2c-0.1,0-0.4,0-0.7,0.1c-0.4-0.3-0.9-0.3-0.9,0.3
				c0,0.1,0,0.3,0,0.4c-0.1,0-0.1,0-0.2,0c-0.3-0.2-0.5-0.2-0.5,0c0,0.1,0,0.2,0,0.3c-0.3-0.1-0.6-0.2-0.6-0.2c0,0.2,0,0.5,0,0.7
				c-0.1,0.1-0.1,0.2-0.1,0.3c-0.1-0.1-0.2-0.1-0.2-0.2c0,0.4,0,0.7,0,1.1c0,0,0,0,0,0c0,0.1,0,0.2,0,0.3c-0.2,0-0.4,0.1-0.4,0.2
				c0,7.1,0,14.1,0.1,21.2c-2-2.4-3.9-4.8-5.7-7.3c-2.7-3.7-4.8-7.5-6.8-11.6c-0.5-0.4-1.1-0.6-1.7-0.6c-0.2,0-0.4,0-0.6,0
				c0-0.8,0-1.6,0.1-2.4c0-1.3-2.9-1.2-3.6-1.3c-0.2,0-0.7-0.1-1.3-0.1c-0.1-0.6-0.3-1-0.9-1c-0.1,0-0.2,0-0.4,0
				c-0.1-0.1-0.1-0.1-0.2-0.1c-0.2-0.1-0.8,0-1,0.3c-0.2-0.2-0.4-0.3-0.4-0.2c0,0.2,0,0.4,0,0.6c-0.1,0-0.1,0-0.2,0.1
				c-0.1-0.2-0.3-0.4-0.3-0.2c0,0.2,0,0.4,0,0.7c0,0-0.1,0.1-0.1,0.1c-0.3,0.1-0.6,0.4-0.6,0.9c0,0,0,0,0,0c0,0,0,0.1-0.1,0.1
				c-0.2,0.1-0.4,0.2-0.4,0.3c0,0.2,0,0.4,0,0.6c-0.2,0-0.4,0.1-0.4,0.1c-0.5,10.6-0.5,21.1-0.2,31.7c0,0.1,0,0.1,0.1,0.1
				c0,0.3,0,0.6,0,0.8c0,0.3,0.3,0.4,0.7,0.5c0,0,0,0,0,0.1c0,0.6,0.2,1.3,0.9,1.4c0.1,0,0.3,0,0.4,0c0.1,0.1,0.2,0.1,0.2,0.2
				c0.1,0.1,0.3,0.1,0.4,0.1c0,0,0,0.1,0.1,0.1c0.4,0.7,0.9,1.3,1.5,1.9c0.7,0.4,1.2,0.1,1.3-0.5c0.7,0.4,1.6,0.9,1.6-0.1
				c0-0.2,0-0.4,0-0.7c0.5,0.1,1,0.1,1-0.7c0-0.5,0-1.1,0-1.6c0.8,0.1,1.5,0,1.4-0.5c0-0.6,0-1.1,0-1.7c0.2-0.1,0.3-0.3,0.3-0.6
				c-0.1-4.5-0.2-8.9-0.2-13.4c4,5.6,8.7,10.8,13.1,16c0.2,0.2,0.5,0.1,0.9,0c0.1,0.1,0.2,0.1,0.3,0.2c0.3,0.4,0.6,0.7,0.9,1.1
				c0.5,0.5,1.3,1.1,1.8,0.4c0.4,0.4,0.9,0.7,1.4,0.8c0.2,0,0.4-0.1,0.5-0.2c0.2,0,0.5-0.1,0.7-0.2c0.1,0,0.1,0.1,0.2,0.1
				c0.4,0.3,1.9,1.1,1.9-0.1c0,0,0,0,0,0c0.7,0.3,1.9,0.7,1.8-0.5c0-0.5,0-1,0-1.5c0.8,0,1.4-0.1,1.4-0.6c0-0.6,0-1.2,0-1.8
				C577.2,687.5,577.3,687.4,577.3,687.1z"/>
			<path class="st2" d="M395.8,673.5c0.4-1.8,0.4-3.7-0.2-5.5c-0.8-2.7-2.6-4.3-4.6-6c-0.6-0.5-1.7-0.6-2.8-0.5
				c-0.2-0.2-0.4-0.4-0.6-0.6c0-0.2-0.2-0.4-0.5-0.5c-0.4-0.2-0.8-0.5-1.3-0.7c0.4-0.2,0.8-0.6,0.4-1.1c-0.4-0.7-1-1.3-1.7-1.7
				c-1.3-0.6-2.6-1-3.9-1.3c-0.9-0.6-1.8-1-2.9-1.2c-1-0.3-2.1-0.5-3.2-0.5c-0.4-0.1-0.7-0.1-1.1-0.1c-0.5-0.1-1.1-0.1-1.6-0.1
				c-1.6,0-3.2,0.2-4.7,0.7c-1.6,0.6-3.1,1.5-4.5,2.5c-0.7,0.4-1.4,0.9-2,1.5c-2.3,2.2-4,4.8-5,7.8c-0.4,1-0.7,2.1-0.9,3.2
				c-0.5,1.9-0.6,3.9-0.3,5.8c0,0.1,0,0.2,0.1,0.3c0,0.3,0,0.5,0.1,0.8c0.3,2.4,1.3,4.6,2.7,6.5c0.7,1.3,1.7,2.5,2.9,3.6
				c1.2,1.1,2.5,1.9,3.9,2.5c0.2,0.1,0.4,0.3,0.5,0.4c2.2,1.3,4.6,2.1,7.1,2.2c2.2,0.4,4.4,0.3,6.6,0c4.4-0.7,8.7-2.5,11.5-5.9
				c1.1-1.1,2-2.4,2.8-3.8c1.7-2.2,3-4.7,3.3-7.3C395.8,674.1,395.8,673.8,395.8,673.5z M372.9,662.9c2.9,0,5.7,0.8,8.5,1.5
				c0,0.2,0,0.3,0.1,0.4c0.2,0.2,0.5,0.4,0.7,0.6c0,0.6,0.1,1.3,0.3,1.5c1,0.8,1.9,1.6,2.7,2.6c0.3,0.9,0.6,1.8,0.9,2.7
				c0,0.1,0,0.1,0,0.2c0,0.5-0.1,1-0.2,1.5c-0.7,1.8-1.7,3.5-3,4.9c-0.5,0.6-1,1.1-1.6,1.6c-2,1.4-4.3,2.4-6.7,3.1
				c-0.7,0.2-1.4,0.3-2,0.4c-0.9-0.1-1.8-0.3-2.7-0.6c-1.2-0.9-2.2-1.8-3.1-3c-1.9-2.5-2.6-5.3-2.5-8.2c0.2-1.1,0.5-2.2,0.9-3.4
				c0.2-0.4,0.4-0.9,0.6-1.3c0.1-0.1,0.2-0.2,0.3-0.4c1.3-1.4,2.9-2.6,4.7-3.4c0.5-0.2,0.9-0.4,1.4-0.5
				C372.4,662.9,372.6,662.9,372.9,662.9z"/>
			<path class="st2" d="M438.6,689.1c-0.4-6.2-2.8-12.4-8.4-15.8c-0.2-0.1-0.4-0.2-0.6-0.3c1.2-1.1,2.3-2.3,3-3.8
				c0.8-0.9,1.4-1.8,1.9-2.9c0.9-2.1,0.8-4.4-0.2-6.3c-0.1-1.2-0.6-2.3-1.4-3.3c-1.5-1.8-3.6-2.7-5.8-3.1c-1.2-0.8-2.6-1.3-4.1-1.5
				c-1.1-0.3-2.1-0.4-3.2-0.4c-3-0.3-5.9,0.7-8.6,1.9c-0.1-0.4-0.4-0.6-0.9-0.6c-0.1,0-0.3,0-0.4,0c-0.1-0.1-0.2-0.1-0.2-0.2
				c-0.2-0.1-0.7,0-1,0.3c-0.3-0.2-0.5-0.3-0.5-0.1c0,0.2,0,0.4,0,0.6c-0.1,0-0.1,0-0.2,0.1c-0.1-0.2-0.4-0.4-0.4-0.1
				c0,0.2,0,0.5,0,0.7c0,0,0,0,0,0c0,0,0,0,0,0c-0.3,0.1-0.5,0.4-0.6,0.9c-0.3,0.1-0.5,0.2-0.5,0.3c0,0.2,0,0.4,0,0.6
				c-0.2,0-0.4,0-0.4,0.1c0.4,11.1,0.9,22.3,1.5,33.4c0,0,0,0.1,0.1,0.1c0,0.3,0,0.7,0,1c0,0.2,0.4,0.3,0.8,0.3c0,0.2,0,0.3,0,0.5
				c0,0.7,0.7,0.9,1.2,0.8c0,0,0,0,0,0c0,0,0.1,0,0.2,0c0.4,0.6,0.9,1.2,1.3,1.3c0.3,0.1,0.7,0,0.9-0.2c0,0,0.1,0.1,0.1,0.1
				c0.3,0.3,2,1.2,2-0.1c0,0,0-0.1,0-0.1c0.7,0.3,1.8,0.6,1.7-0.5c0-0.5-0.1-1-0.1-1.6c0.9,0,1.5-0.2,1.5-0.5c0-0.6-0.1-1.2-0.1-1.7
				c0.2-0.2,0.3-0.3,0.3-0.6c-0.2-3.4-0.3-6.8-0.4-10.1c0.2,0.1,0.4,0.1,0.6,0c0.1,0,0.2-0.1,0.3-0.1c0.2,0,0.3,0,0.5,0.1
				c0.4,0.2,0.7,0.3,1,0.2c0,0,0.1,0,0.1,0c1.8,0.2,3.6,0.9,5.2,1.9c0,0,0,0,0.1,0.1c0.7,0.8,1.3,1.5,1.8,2.4
				c1.3,2.6,1.9,5.3,2.1,8.3c0,0.3,0.3,0.5,0.7,0.6c0,0.2,0,0.4,0.1,0.6c0.1,0.7,0.5,1,1.1,0.9c0.1,0,0.1,0,0.2,0
				c0.1,0.1,0.2,0.1,0.3,0.1c0.4,0.7,0.9,1.4,1.3,1.6c0.4,0.2,1,0.2,1.2-0.2c0.4,0.3,2.1,1.6,2.1,0.3c0-0.2,0-0.4,0-0.6
				c0.6,0.2,1.3,0.3,1.2-0.6c0-0.6-0.1-1.1-0.2-1.7c0.8,0.2,1.7,0.2,1.7-0.4c0-0.5-0.1-1.1-0.1-1.6
				C438.4,689.7,438.6,689.5,438.6,689.1z M419.2,660.9c0.5-0.1,1-0.2,1.5-0.3c1.3,0,3,0.1,4.3,0.5c0,0,0,0,0,0
				c0.1,0.2,0.1,0.3,0.2,0.5c0.1,0.4,0.1,0.8,0,1.2c-0.4,1-1,1.8-1.7,2.6c-1.9,1.6-4.1,2.8-6.4,3.8c0,0,0,0-0.1,0
				c-0.2,0-0.4,0-0.5,0c-0.1-2.7-0.2-5.4-0.3-8.1C417.2,661.2,418.2,661.1,419.2,660.9z"/>
			<path class="st2" d="M648.8,683.1c-0.7,0-1.4,0-2.1-0.1c0-0.1-0.1-0.2-0.1-0.3c0.1-0.5-0.2-1.1-0.7-1.2c-2.8-0.3-5.6-0.4-8.5-0.5
				c-0.6,0-1.3,0-1.9,0c-0.1,0-0.1,0-0.2,0c-0.6,0-1.3,0-1.9,0c-1.4,0-2.8,0-4.3,0c-1.2,0-2.4,0-3.6,0.1c0,0,0,0,0,0
				c0.3-0.4,0.6-0.8,1-1.1c1.8-2.1,3.6-4.1,5.5-6.1c4.3-4.8,8.7-9.5,13.4-13.9c0.1-0.1,0.2-0.3,0.2-0.4c0.3-0.3,0.6-0.6,0.9-0.9
				c0.3-0.3,0.2-0.6,0-0.9c0.4-0.4,0.9-0.8,1.3-1.3c0.6-0.6,0.2-1.1-0.3-1.4c0.1-0.1,0.1-0.1,0.2-0.2c0.4-0.1,0.7-0.3,0.7-0.6
				c0.8-0.9-1.1-1.3-1.7-1.4c-0.3-0.2-0.6-0.3-1.1-0.4c-0.7-0.2-1.3-0.3-2-0.4c-0.1-0.2-0.3-0.4-0.4-0.4c-0.1-0.1-0.3-0.1-0.5-0.1
				c-0.8-0.5-1.5-0.8-2.3-0.9c-0.4-0.1-0.9-0.2-1.4-0.2c-0.1,0-0.1,0-0.2,0c-0.2,0-0.4-0.1-0.6-0.1c-7.7-0.4-15.4,0.9-23,2
				c0,0,0,0.2,0.1,0.4c-0.2,0-0.4,0.1-0.6,0.1c0,0,0,0.3,0.1,0.6c0,0,0,0,0,0.1c0,0-0.1,0-0.1,0.1c-0.7,0.1-0.8,0.6-0.7,1
				c0,0,0,0,0,0c-0.2,0.1-0.5,0.1-0.6,0.1c0.2,0,0.4-0.1,0.6-0.1c-0.1,0.1-0.1,0.2-0.2,0.3c0,0,0,0.1,0,0.1
				c-0.3,0.2-0.5,0.4-0.1,0.4c-0.1,0-0.3,0-0.4,0.1c-0.2,0-0.3,0.2,0,0.3c0.1,0.1,0.3,0.1,0.4,0.1c0,0.1,0,0.2,0,0.3
				c-0.1,0-0.3,0-0.4,0.1c-0.3,0.1-0.2,0.4-0.1,0.5c0.1,0.1,0.3,0.2,0.6,0.2c-0.3,0.8,0.2,1.9,1.2,1.8c0.1,0,0.1,0,0.2,0
				c0.1,0.1,0.3,0.2,0.4,0.2c0,0,0,0,0,0c0.7,1.6,1.8,3,2.7,2.9c4.4-0.7,8.8-1.2,13.2-1.5c-1.8,1.9-3.7,3.9-5.4,5.9
				c-4.4,4.7-8.6,9.5-12.6,14.5c0,0,0.1,0.1,0.2,0.1c-0.2,0.3-0.4,0.5-0.6,0.8c0,0,0.2,0,0.5,0.2c0,0,0,0.1,0,0.1
				c-0.1,0.2-0.2,0.4-0.2,0.6c-0.2,0.2-0.4,0.5-0.6,0.7c0,0,0.3,0,0.6,0.1c0,0,0,0.1,0,0.1c-0.1,0.2-0.3,0.4-0.4,0.6
				c-0.1,0.2,0.2,0.3,0.6,0.3c0,0,0,0.1,0,0.1c0,0.1,0,0.1,0.1,0.2c-0.1,0.1-0.1,0.2-0.1,0.2c-0.2,0-0.4,0-0.6,0.1
				c-0.2,0.1-0.3,0.1,0,0c0.2,0,0.3,0,0.5,0c0,0.1,0,0.1,0,0.1c0.1,0,0.1,0,0.2,0c0,0,0,0,0,0c-0.1,0.1-0.1,0.1-0.2,0.2
				c0,0.1,0,0.2,0,0.3c-0.1,0-0.3,0.1-0.4,0.1c-0.1,0.1-0.3,0.1,0,0.1c0.1,0,0.3,0,0.4,0c0.1,0.1,0.2,0.2,0.3,0.2c0,0,0.1,0,0.1,0
				c0,0,0,0,0,0c0,0.1,0,0.2,0,0.3c-0.1,0.1-0.2,0.1-0.3,0.2c-0.1,0.2-0.1,0.8,0.3,0.8c0.2,0,0.4,0,0.6,0c0.1,0,0.1,0.1,0.2,0.1
				c0.1,0,0.1,0,0.2,0c0.4,0.7,1.1,1.4,1.6,1.4c0.2,0,0.4,0,0.6,0c0.4,0.3,0.8,0.4,1.2,0.5c9.7,0.3,19.4,0.7,29.1,1.1
				c0.9,0,0.7-0.6,0.4-1.3c0.2,0,0.5,0,0.7,0.1c0.4-0.1,0.6-0.4,0.5-0.8c-0.2-0.6-0.6-1.1-1.2-1.4c-0.1-0.1-0.2-0.2-0.3-0.3
				c0.7,0,1.4,0.1,2,0.1c1.2,0.1,1.1-1,0.4-1.5c-0.3-0.1-0.6-0.2-0.9-0.4c0.6,0,1.1-0.2,1.6-0.5
				C651.4,683.3,649.3,683.1,648.8,683.1z"/>
		</g>
		<g>
			<path class="st2" d="M590.5,760.3c4.1-0.5,17.3-3.1,17.3-3.1s1.2-4.1,0.7-4.5c-0.8-0.5-2.1-0.5-3.2-0.5c0-0.5-0.4-1-0.9-1
				c-0.2,0-0.3,0-0.5,0c-0.1-0.1-0.3-0.2-0.5-0.2c-0.2,0-0.4,0-0.6,0.1c-0.1-0.1-0.2-0.1-0.2-0.1l-16.5,1.4c0.1,0,0.2,0.2,0.3,0.4
				c-0.3,0-0.5,0-0.8,0.1c-0.1-0.2-0.2-0.3-0.4-0.3c-0.3-0.1-0.5,0-0.7,0.1c0-0.1-0.1-0.1-0.1-0.1c-0.2-0.1-0.5-0.2-0.5,0.2
				c0,0.2,0,0.4,0,0.6c0,0,0,0,0,0c0-0.1-0.1-0.3-0.2-0.3c-0.4-0.1-0.4,0.2-0.4,0.5c0,0,0,0,0,0c0,0,0,0,0,0c0,0,0,0,0,0
				c-0.1-0.3-0.3-0.5-0.3-0.8c0,0.3,0,0.7-0.1,1c-0.2,0.2-0.4,0.6-0.4,0.9c0,0-0.1,0.1-0.1,0.1c-0.4,0-0.7,0.1-0.7,0.3
				c0,0.1,0,0.3,0,0.4c-0.2,0-0.4,0-0.4-0.1c-0.7,10-1.4,20-2.4,30c0,0.1,0.1,0.1,0.1,0.2c0,0.3,0,0.5-0.1,0.8
				c0,0.3,0.3,0.4,0.7,0.5c0,0,0,0,0,0.1c0,0.1,0,0.2,0,0.3c-0.1,0.1,0,0.1,0,0.2c0.1,0.4,0.3,0.7,0.6,0.9c0,0.1,0,0.1,0,0.2
				c0.1,0.7,0.5,0.7,1.1,0.6c0.1,0,0.2,0,0.3,0c0.4,0.7,0.9,1.6,1.5,1.6c0.1,0,0.1,0,0.2,0c0.2,0.1,0.5,0.1,0.6,0
				c0.4,0.4,0.8,0.6,1.1,0.6c6.7-0.2,19.4-1.3,19.4-1.3s0.3-1,0.2-1.5c0.2,0,0.4-0.1,0.6-0.1c1.3-0.2,1.8-3.7,1.1-4.1
				c-0.7-0.3-9.9-1-17.5-1c0.4-2.5,0.7-5.1,0.9-7.6c2.8-0.2,6.1-0.5,7.2-0.6c0.6,0,0.8-0.3,0.8-0.6c0.2,0,0.4,0,0.6,0
				c0.7-0.1,0.6-1,0.6-1s0.4,0,0.6-0.1c1.3-0.1,2-4.3,1.4-4.6c-0.6-0.3-6.6-0.8-10.9-1.1c0-0.6,0-1.2,0-1.8
				C590.2,764,590.3,762.2,590.5,760.3z M585.9,753.5C585.9,753.5,585.8,753.5,585.9,753.5c-0.1-0.1-0.1-0.2-0.1-0.3
				C585.8,753.3,585.8,753.4,585.9,753.5z"/>
			<path class="st2" d="M523.7,772.8c0.4-1.8,0.4-3.7-0.2-5.5c-0.8-2.7-2.6-4.3-4.6-6c-0.6-0.5-1.7-0.6-2.8-0.5
				c-0.2-0.2-0.4-0.4-0.6-0.6c0-0.2-0.2-0.4-0.5-0.5c-0.4-0.2-0.8-0.5-1.3-0.7c0.4-0.2,0.8-0.6,0.4-1.1c-0.4-0.7-1-1.3-1.7-1.7
				c-1.3-0.6-2.6-1-3.9-1.3c-0.9-0.6-1.8-1-2.9-1.2c-1-0.3-2.1-0.5-3.2-0.5c-0.4-0.1-0.7-0.1-1.1-0.1c-0.5-0.1-1.1-0.1-1.6-0.1
				c-1.6,0-3.2,0.2-4.7,0.7c-1.6,0.6-3.1,1.5-4.5,2.5c-0.7,0.4-1.4,0.9-2,1.5c-2.3,2.2-4,4.8-5,7.8c-0.4,1-0.7,2.1-0.9,3.2
				c-0.5,1.9-0.6,3.9-0.3,5.8c0,0.1,0,0.2,0.1,0.3c0,0.3,0,0.5,0.1,0.8c0.3,2.4,1.3,4.6,2.7,6.5c0.7,1.3,1.7,2.5,2.9,3.6
				c1.2,1.1,2.5,1.9,3.9,2.5c0.2,0.1,0.4,0.3,0.5,0.4c2.2,1.3,4.6,2.1,7.1,2.2c2.2,0.4,4.4,0.3,6.6,0c4.4-0.7,8.7-2.5,11.5-5.9
				c1.1-1.1,2-2.4,2.8-3.8c1.7-2.2,3-4.7,3.3-7.3C523.7,773.5,523.7,773.1,523.7,772.8z M500.8,762.2c2.9,0,5.7,0.8,8.5,1.5
				c0,0.2,0,0.3,0.1,0.4c0.2,0.2,0.5,0.4,0.7,0.6c0,0.6,0.1,1.3,0.3,1.5c1,0.8,1.9,1.6,2.7,2.6c0.3,0.9,0.6,1.8,0.9,2.7
				c0,0.1,0,0.1,0,0.2c0,0.5-0.1,1-0.2,1.5c-0.7,1.8-1.7,3.5-3,4.9c-0.5,0.6-1,1.1-1.6,1.6c-2,1.4-4.3,2.4-6.7,3.1
				c-0.7,0.2-1.4,0.3-2,0.4c-0.9-0.1-1.8-0.3-2.7-0.6c-1.2-0.9-2.2-1.8-3.1-3c-1.9-2.5-2.6-5.3-2.5-8.2c0.2-1.1,0.5-2.2,0.9-3.4
				c0.2-0.4,0.4-0.9,0.6-1.3c0.1-0.1,0.2-0.2,0.3-0.4c1.3-1.4,2.9-2.6,4.7-3.4c0.5-0.2,0.9-0.4,1.4-0.5
				C500.3,762.2,500.5,762.2,500.8,762.2z"/>
			<path class="st2" d="M569.2,754.7c-0.5-0.4-1-0.6-1.7-0.6c-0.8-0.1-1.6-0.2-2.4-0.2c-0.1-0.1-0.1-0.2-0.2-0.2c0-0.5-0.1-1-0.6-1
				c-0.4,0-0.8,0-1.1,0c-0.1-0.1-0.2-0.1-0.3-0.1c-0.3,0-0.6,0-0.9,0c-0.1,0-0.1-0.1-0.2-0.1c-9.6-0.1-19.2,0-28.8,0
				c-0.2,0-0.2,0.3,0,0.6c-0.2,0-0.4,0-0.6,0c-0.1,0-0.1,0.1-0.1,0.3c-0.2,0-0.5,0-0.7,0c0.2,0,0.5,0.2,0.7,0.5c0,0,0,0,0,0
				c-0.3,0.1-0.5,0.5-0.6,0.9c-0.2,0.1-0.4,0.1-0.6,0.1c0.2,0,0.4,0,0.6,0c0,0.1,0,0.1,0,0.2c-0.2,0-0.3,0.1-0.4,0.2
				c-0.1,0.1-0.3,0.3,0.1,0.3c0,0,0.1,0,0.1,0c0,0,0,0,0,0.1c-0.2,0-0.4,0-0.5,0c-0.3,0-0.3,0.2,0,0.3c0.1,0.1,0.3,0.1,0.4,0.1
				c0,0.1,0,0.3,0.1,0.4c0,0,0,0-0.1,0c-0.3,0-0.6,0-0.5,0.4c0.1,0.2,0.4,0.2,0.8,0.3c0,0.1-0.1,0.1-0.1,0.2
				c-0.1,0.5,0.1,1.4,0.7,1.4c0.3,0,0.6,0,0.9,0.1c0,0,0,0,0,0c0.5,1,1.2,2.3,2,2.4c3.1,0.3,6.2,0.5,9.2,0.6
				c-0.4,8.2-1,16.4-1.7,24.6c0,0.1,0,0.2,0.1,0.3c0,0.2,0,0.5-0.1,0.7c0,0.4,0.3,0.7,0.8,0.8c0,0.7,0.1,1.5,0.8,1.8
				c0.2,0.1,0.4,0.1,0.6,0c0.1,0.1,0.1,0.1,0.2,0.2c0.2,0.1,0.4,0.2,0.6,0.2c0.3,0.4,0.5,0.8,0.8,1.2c0.3,0.6,0.7,1,1.2,1.2
				c0.4,0.1,0.7-0.1,0.8-0.4c0-0.2,0-0.4,0-0.6c0.6,0.4,1.2,0.6,1.3-0.3c0-0.2,0-0.5,0-0.7c0.5,0.2,1,0.1,1-0.6
				c0-0.5,0.1-1.1,0.1-1.6c0.7,0.1,1.3,0.1,1.4-0.5c0.1-0.6,0.1-1.2,0.1-1.9c0.1-0.1,0.2-0.3,0.2-0.4c0.8-7.8,1.3-15.7,1.7-23.5
				c3.2,0,6.5,0,9.7,0c0.6,0,0.8-0.3,0.9-0.8c0.2,0,0.4,0,0.6,0c0.8,0,0.8-0.6,0.6-1.2c0.2,0,0.5,0,0.7,0c1.6,0-0.4-2.1-0.5-2.2
				c0,0-0.1-0.1-0.1-0.1c0.6,0,1.2,0,1.7,0c1.1,0,1.3-0.9,0.5-1.5c-0.3-0.2-0.6-0.3-0.8-0.4C568.5,756,569.9,755.7,569.2,754.7z"/>
			<path class="st2" d="M472.3,757.1c-0.6,0-1.1,0-1.6,0.1c0-0.2-0.1-0.3-0.3-0.4c0.4-1.3-0.7-1.4-1.9-1c-0.2-0.1-0.4-0.2-0.5-0.3
				c-0.2,0-0.4,0.1-0.6,0.2c-0.5-0.2-1-0.1-1.3,0.5c0,0.1-0.1,0.2-0.1,0.4c-0.1,0-0.3,0.1-0.4,0.2c-0.3,0-0.6,0-0.6,0.1
				c-2.7,7.6-5.7,14.8-10.1,21.6c-0.4,0.7-1,1.5-1.6,2.4c-0.8-1.6-1.5-3.3-2.1-5c-1.2-3-2.2-6-3.2-9.1c-1-3-2.2-5.7-3.5-8.6
				c-0.3-0.6-2.5-0.8-4.2-0.7c-0.1-0.3-0.2-0.5-0.4-0.8c-0.2-0.5-0.8-0.3-1.2-0.2c-0.4-0.3-1-0.3-0.8,0.4c-0.3-0.3-0.5-0.5-0.6-0.6
				c0.1,0.2,0.1,0.4,0.2,0.6c-0.1,0-0.2,0.2-0.3,0.5c-0.2-0.3-0.4-0.5-0.4-0.6c0.1,0.2,0.2,0.5,0.2,0.7c-0.1,0.1-0.1,0.2-0.2,0.3
				c-0.3,0.2-0.4,0.5-0.4,0.9c0,0,0,0,0,0c-0.4,0.1-0.7,0.3-0.7,0.4c0.1,0.3,0.2,0.5,0.3,0.8c0,0,0,0.1,0,0.1c0,0,0,0.1,0,0.1
				c-0.3,0-0.6,0.1-0.6,0c2.5,8,5,16.2,8.5,23.8c0.8,1.6,1.2,3.5,2.3,4.4c0.3,0.6,0.6,1.1,1,1.6c0.4,0.4,0.7,0.5,1.2,0.6
				c0.1,0,0.2,0,0.4,0c0,0,0,0,0,0c0.4,0.6,0.8,1.2,1.4,1.6c0.6,0.4,1.2,0.4,1.8,0.2c0.5,0.4,1.1,0.7,1.8,0.6
				c1.1-0.2,2.9-1.7,3.3-2.1c0.8-0.8,1.6-1.6,2.3-2.5c1.1-1.2,2.1-2.6,3-4c0.7-1.1,1.4-2.3,2.1-3.4c4.1-6.6,6.9-13.5,9.6-20.8
				c0.1-0.3,0-0.6-0.3-0.8c0.1-0.4,0.3-0.7,0.4-1.1C474.7,757.1,473.2,757.1,472.3,757.1z"/>
		</g>
		<g>
			<path class="st2" d="M400.3,885C400.3,884.9,400.3,884.9,400.3,885c0.2-0.1,0.5-0.2,0.7-0.3c1-0.4,0.9-1.3-0.1-1.6
				c-1-0.1-1.9-0.1-2.9-0.1c-0.2,0-0.4,0-0.6,0c0-0.1-0.1-0.2-0.1-0.2c0.1-0.2,0.1-0.5,0-0.8c-0.3-0.7-1-0.6-1.6-0.3
				c-0.3-0.2-0.6-0.4-1-0.2c0,0-0.1,0-0.1,0c-0.3-0.2-0.6-0.2-0.8-0.1c-2.4,1.1-5,1.6-7.6,1.6c-0.1,0-0.2,0-0.2,0c0,0-0.1,0-0.1,0
				c-0.4,0-0.7-0.1-1-0.2c-0.9-0.6-1.8-1.4-2.5-2.2c-0.9-0.9-1.4-1.9-1.7-3.1c-0.9-1.6-1.4-3.4-1.4-5.2c0-0.9,0-1.8,0.1-2.7
				c0.1-0.7,0.3-1.4,0.6-2c0.2-0.5,0.3-1,0.6-1.5c0.2-0.3,0.4-0.6,0.7-0.8c0.5-0.4,0.9-0.8,1.5-1.2c1.2-0.8,2.6-1.4,4-1.9
				c1.7-0.5,3.6-0.9,5.4-1.2c1.8-0.2,3.7-0.2,5.6-0.1c0.9,0,0.8-0.6,0.6-1.2c0.2,0,0.5,0,0.7,0c1.6,0.1-0.4-2.1-0.5-2.2
				c0,0-0.1-0.1-0.2-0.2c0.6,0,1.2,0,1.8,0c1.1,0,1.2-0.9,0.5-1.5c-0.2-0.1-0.5-0.2-0.8-0.4c0.7-0.1,1.3-0.3,1.4-0.9
				c0.1-1.3-2.8-1.2-3.4-1.2c-0.4,0-0.8,0-1.2,0c0.1-0.7-0.4-1.1-1-1.1c-0.2,0-0.4,0-0.6,0c-0.1-0.1-0.2-0.1-0.4-0.2
				c-0.4,0-0.9,0-1.3,0c-6-0.3-12.6,0.6-17.1,4.9c-1.6,1.2-3,2.7-4,4.5c-0.8,1.4-1.3,2.8-1.7,4.3c-0.9,2.4-1.2,5.1-1,7.7
				c0.1,2.8,0.8,5.5,2,7.8c0.3,0.6,0.7,1.2,1.2,1.7c1.3,2.2,3.1,4,5.4,5.1c1.5,1.1,3.2,2,5,2.4c0.6,0.1,1.2,0.2,1.8,0.3
				c3.8,0.9,7.9,0.7,11.6-0.6c1.1-0.3,2.2-0.7,3.3-1.2c1-0.4,0.3-1.2-0.2-1.7c0.7-0.2,1.3-0.5,1.9-0.8
				C402.3,886,400.7,885.1,400.3,885z"/>
			<path class="st2" d="M571.1,860.7c4.1-0.5,17.3-3.1,17.3-3.1s1.2-4.1,0.7-4.5c-0.8-0.5-2.1-0.5-3.2-0.5c0-0.5-0.4-1-0.9-1
				c-0.2,0-0.3,0-0.5,0c-0.1-0.1-0.3-0.2-0.5-0.2c-0.2,0-0.4,0-0.6,0.1c-0.1-0.1-0.2-0.1-0.2-0.1l-16.5,1.4c0.1,0,0.2,0.2,0.3,0.4
				c-0.3,0-0.5,0-0.8,0.1c-0.1-0.2-0.2-0.3-0.4-0.3c-0.3-0.1-0.5,0-0.7,0.1c0-0.1-0.1-0.1-0.1-0.1c-0.2-0.1-0.5-0.2-0.5,0.2
				c0,0.2,0,0.4,0,0.6c0,0,0,0,0,0c0-0.1-0.1-0.3-0.2-0.3c-0.4-0.1-0.4,0.2-0.4,0.5c0,0,0,0,0,0c0,0,0,0,0,0c0,0,0,0,0,0
				c-0.1-0.3-0.3-0.5-0.3-0.8c0,0.3,0,0.7-0.1,1c-0.2,0.2-0.4,0.6-0.4,0.9c0,0-0.1,0.1-0.1,0.1c-0.4,0-0.7,0.1-0.7,0.3
				c0,0.1,0,0.3,0,0.4c-0.2,0-0.4,0-0.4-0.1c-0.7,10-1.4,20-2.4,30c0,0.1,0.1,0.1,0.1,0.2c0,0.3,0,0.5-0.1,0.8
				c0,0.3,0.3,0.4,0.7,0.5c0,0,0,0,0,0.1c0,0.1,0,0.2,0,0.3c-0.1,0.1,0,0.1,0,0.2c0.1,0.4,0.3,0.7,0.6,0.9c0,0.1,0,0.1,0,0.2
				c0.1,0.7,0.5,0.7,1.1,0.6c0.1,0,0.2,0,0.3,0c0.4,0.7,0.9,1.6,1.5,1.6c0.1,0,0.1,0,0.2,0c0.2,0.1,0.5,0.1,0.6,0
				c0.4,0.4,0.8,0.6,1.1,0.6c6.7-0.2,19.4-1.3,19.4-1.3s0.3-1,0.2-1.5c0.2,0,0.4-0.1,0.6-0.1c1.3-0.2,1.8-3.7,1.1-4.1
				c-0.7-0.3-9.9-1-17.5-1c0.4-2.5,0.7-5.1,0.9-7.6c2.8-0.2,6.1-0.5,7.2-0.6c0.6,0,0.8-0.3,0.8-0.6c0.2,0,0.4,0,0.6,0
				c0.7-0.1,0.6-1,0.6-1s0.4,0,0.6-0.1c1.3-0.1,2-4.3,1.4-4.6c-0.6-0.3-6.6-0.8-10.9-1.1c0-0.6,0-1.2,0-1.8
				C570.9,864.4,571,862.5,571.1,860.7z M566.6,853.9C566.5,853.9,566.5,853.9,566.6,853.9c-0.1-0.1-0.1-0.2-0.1-0.3
				C566.5,853.7,566.5,853.8,566.6,853.9z"/>
			<path class="st2" d="M496.9,887.2c-0.1-10.4-0.1-20.8-0.1-31.3c0-1.3-3.1-1-3.7-1c-0.1,0-0.2,0-0.3,0c-0.1-0.2-0.2-0.3-0.3-0.4
				c0-0.8-0.5-1.1-1.3-1c-0.1,0-0.3,0.1-0.5,0.1c-0.1-0.1-0.2-0.2-0.4-0.2c-0.1,0-0.4,0-0.7,0.1c-0.4-0.3-0.9-0.3-0.9,0.3
				c0,0.1,0,0.3,0,0.4c-0.1,0-0.1,0-0.2,0c-0.3-0.2-0.5-0.2-0.5,0c0,0.1,0,0.2,0,0.3c-0.3-0.1-0.6-0.2-0.6-0.2c0,0.2,0,0.5,0,0.7
				c-0.1,0.1-0.1,0.2-0.1,0.3c-0.1-0.1-0.2-0.1-0.2-0.2c0,0.4,0,0.7,0,1.1c0,0,0,0,0,0c0,0.1,0,0.2,0,0.3c-0.2,0-0.4,0.1-0.4,0.2
				c0,7.1,0,14.1,0.1,21.2c-2-2.4-3.9-4.8-5.7-7.3c-2.7-3.7-4.8-7.5-6.8-11.6c-0.5-0.4-1.1-0.6-1.7-0.6c-0.2,0-0.4,0-0.6,0
				c0-0.8,0-1.6,0.1-2.4c0-1.3-2.9-1.2-3.6-1.3c-0.2,0-0.7-0.1-1.3-0.1c-0.1-0.6-0.3-1-0.9-1c-0.1,0-0.2,0-0.4,0
				c-0.1-0.1-0.1-0.1-0.2-0.1c-0.2-0.1-0.8,0-1,0.3c-0.2-0.2-0.4-0.3-0.4-0.2c0,0.2,0,0.4,0,0.6c-0.1,0-0.1,0-0.2,0.1
				c-0.1-0.2-0.3-0.4-0.3-0.2c0,0.2,0,0.4,0,0.7c0,0-0.1,0.1-0.1,0.1c-0.3,0.1-0.6,0.4-0.6,0.9c0,0,0,0,0,0c0,0,0,0.1-0.1,0.1
				c-0.2,0.1-0.4,0.2-0.4,0.3c0,0.2,0,0.4,0,0.6c-0.2,0-0.4,0.1-0.4,0.1c-0.5,10.6-0.5,21.1-0.2,31.7c0,0.1,0,0.1,0.1,0.1
				c0,0.3,0,0.6,0,0.8c0,0.3,0.3,0.4,0.7,0.5c0,0,0,0,0,0.1c0,0.6,0.2,1.3,0.9,1.4c0.1,0,0.3,0,0.4,0c0.1,0.1,0.2,0.1,0.2,0.2
				c0.1,0.1,0.3,0.1,0.4,0.1c0,0,0,0.1,0.1,0.1c0.4,0.7,0.9,1.3,1.5,1.9c0.7,0.4,1.2,0.1,1.3-0.5c0.7,0.4,1.6,0.9,1.6-0.1
				c0-0.2,0-0.4,0-0.7c0.5,0.1,1,0.1,1-0.7c0-0.5,0-1.1,0-1.6c0.8,0.1,1.5,0,1.4-0.5c0-0.6,0-1.1,0-1.7c0.2-0.1,0.3-0.3,0.3-0.6
				c-0.1-4.5-0.2-8.9-0.2-13.4c4,5.6,8.7,10.8,13.1,16c0.2,0.2,0.5,0.1,0.9,0c0.1,0.1,0.2,0.1,0.3,0.2c0.3,0.4,0.6,0.7,0.9,1.1
				c0.5,0.5,1.3,1.1,1.8,0.4c0.4,0.4,0.9,0.7,1.4,0.8c0.2,0,0.4-0.1,0.5-0.2c0.2,0,0.5-0.1,0.7-0.2c0.1,0,0.1,0.1,0.2,0.1
				c0.4,0.3,1.9,1.1,1.9-0.1c0,0,0,0,0,0c0.7,0.3,1.9,0.7,1.8-0.5c0-0.5,0-1,0-1.5c0.8,0,1.4-0.1,1.4-0.6c0-0.6,0-1.2,0-1.8
				C496.8,887.6,496.9,887.4,496.9,887.2z"/>
			<path class="st2" d="M451.2,873.6c0.4-1.8,0.4-3.7-0.2-5.5c-0.8-2.7-2.6-4.3-4.6-6c-0.6-0.5-1.7-0.6-2.8-0.5
				c-0.2-0.2-0.4-0.4-0.6-0.6c0-0.2-0.2-0.4-0.5-0.5c-0.4-0.2-0.8-0.5-1.3-0.7c0.4-0.2,0.8-0.6,0.4-1.1c-0.4-0.7-1-1.3-1.7-1.7
				c-1.3-0.6-2.6-1-3.9-1.3c-0.9-0.6-1.8-1-2.9-1.2c-1-0.3-2.1-0.5-3.2-0.5c-0.4-0.1-0.7-0.1-1.1-0.1c-0.5-0.1-1.1-0.1-1.6-0.1
				c-1.6,0-3.2,0.2-4.7,0.7c-1.6,0.6-3.1,1.5-4.5,2.5c-0.7,0.4-1.4,0.9-2,1.5c-2.3,2.2-4,4.8-5,7.8c-0.4,1-0.7,2.1-0.9,3.2
				c-0.5,1.9-0.6,3.9-0.3,5.8c0,0.1,0,0.2,0.1,0.3c0,0.3,0,0.5,0.1,0.8c0.3,2.4,1.3,4.6,2.7,6.5c0.7,1.3,1.7,2.5,2.9,3.6
				c1.2,1.1,2.5,1.9,3.9,2.5c0.2,0.1,0.4,0.3,0.5,0.4c2.2,1.3,4.6,2.1,7.1,2.2c2.2,0.4,4.4,0.3,6.6,0c4.4-0.7,8.7-2.5,11.5-5.9
				c1.1-1.1,2-2.4,2.8-3.8c1.7-2.2,3-4.7,3.3-7.3C451.2,874.2,451.2,873.9,451.2,873.6z M428.3,862.9c2.9,0,5.7,0.8,8.5,1.5
				c0,0.2,0,0.3,0.1,0.4c0.2,0.2,0.5,0.4,0.7,0.6c0,0.6,0.1,1.3,0.3,1.5c1,0.8,1.9,1.6,2.7,2.6c0.3,0.9,0.6,1.8,0.9,2.7
				c0,0.1,0,0.1,0,0.2c0,0.5-0.1,1-0.2,1.5c-0.7,1.8-1.7,3.5-3,4.9c-0.5,0.6-1,1.1-1.6,1.6c-2,1.4-4.3,2.4-6.7,3.1
				c-0.7,0.2-1.4,0.3-2,0.4c-0.9-0.1-1.8-0.3-2.7-0.6c-1.2-0.9-2.2-1.8-3.1-3c-1.9-2.5-2.6-5.3-2.5-8.2c0.2-1.1,0.5-2.2,0.9-3.4
				c0.2-0.4,0.4-0.9,0.6-1.3c0.1-0.1,0.2-0.2,0.3-0.4c1.3-1.4,2.9-2.6,4.7-3.4c0.5-0.2,0.9-0.4,1.4-0.5
				C427.8,862.9,428,862.9,428.3,862.9z"/>
			<path class="st2" d="M674.7,855.5c-0.5-0.4-1-0.6-1.7-0.6c-0.8-0.1-1.6-0.2-2.4-0.2c-0.1-0.1-0.1-0.2-0.2-0.2c0-0.5-0.1-1-0.6-1
				c-0.4,0-0.8,0-1.1,0c-0.1-0.1-0.2-0.1-0.3-0.1c-0.3,0-0.6,0-0.9,0c-0.1,0-0.1-0.1-0.2-0.1c-9.6-0.1-19.2,0-28.8,0
				c-0.2,0-0.2,0.3,0,0.6c-0.2,0-0.4,0-0.6,0c-0.1,0-0.1,0.1-0.1,0.3c-0.2,0-0.5,0-0.7,0c0.2,0,0.5,0.2,0.7,0.5c0,0,0,0,0,0
				c-0.3,0.1-0.5,0.5-0.6,0.9c-0.2,0.1-0.4,0.1-0.6,0.1c0.2,0,0.4,0,0.6,0c0,0.1,0,0.1,0,0.2c-0.2,0-0.3,0.1-0.4,0.2
				c-0.1,0.1-0.3,0.3,0.1,0.3c0,0,0.1,0,0.1,0c0,0,0,0,0,0.1c-0.2,0-0.4,0-0.5,0c-0.3,0-0.3,0.2,0,0.3c0.1,0.1,0.3,0.1,0.4,0.1
				c0,0.1,0,0.3,0.1,0.4c0,0,0,0-0.1,0c-0.3,0-0.6,0-0.5,0.4c0.1,0.2,0.4,0.2,0.8,0.3c0,0.1-0.1,0.1-0.1,0.2
				c-0.1,0.5,0.1,1.4,0.7,1.4c0.3,0,0.6,0,0.9,0.1c0,0,0,0,0,0c0.5,1,1.2,2.3,2,2.4c3.1,0.3,6.2,0.5,9.2,0.6
				c-0.4,8.2-1,16.4-1.7,24.6c0,0.1,0,0.2,0.1,0.3c0,0.2,0,0.5-0.1,0.7c0,0.4,0.3,0.7,0.8,0.8c0,0.7,0.1,1.5,0.8,1.8
				c0.2,0.1,0.4,0.1,0.6,0c0.1,0.1,0.1,0.1,0.2,0.2c0.2,0.1,0.4,0.2,0.6,0.2c0.3,0.4,0.5,0.8,0.8,1.2c0.3,0.6,0.7,1,1.2,1.2
				c0.4,0.1,0.7-0.1,0.8-0.4c0-0.2,0-0.4,0-0.6c0.6,0.4,1.2,0.6,1.3-0.3c0-0.2,0-0.5,0-0.7c0.5,0.2,1,0.1,1-0.6
				c0-0.5,0.1-1.1,0.1-1.6c0.7,0.1,1.3,0.1,1.4-0.5c0.1-0.6,0.1-1.2,0.1-1.9c0.1-0.1,0.2-0.3,0.2-0.4c0.8-7.8,1.3-15.7,1.7-23.5
				c3.2,0,6.5,0,9.7,0c0.6,0,0.8-0.3,0.9-0.8c0.2,0,0.4,0,0.6,0c0.8,0,0.8-0.6,0.6-1.2c0.2,0,0.5,0,0.7,0c1.6,0-0.4-2.1-0.5-2.2
				c0,0-0.1-0.1-0.1-0.1c0.6,0,1.2,0,1.7,0c1.1,0,1.3-0.9,0.5-1.5c-0.3-0.2-0.6-0.3-0.8-0.4C673.9,856.7,675.3,856.5,674.7,855.5z"
				/>
			<path class="st2" d="M545.9,887.2c-0.1-10.4-0.1-20.8-0.1-31.3c0-1.3-3.1-1-3.7-1c-0.1,0-0.2,0-0.3,0c-0.1-0.2-0.2-0.3-0.3-0.4
				c0-0.8-0.5-1.1-1.3-1c-0.1,0-0.3,0.1-0.5,0.1c-0.1-0.1-0.2-0.2-0.4-0.2c-0.1,0-0.4,0-0.7,0.1c-0.4-0.3-0.9-0.3-0.9,0.3
				c0,0.1,0,0.3,0,0.4c-0.1,0-0.1,0-0.2,0c-0.3-0.2-0.5-0.2-0.5,0c0,0.1,0,0.2,0,0.3c-0.3-0.1-0.6-0.2-0.6-0.2c0,0.2,0,0.5,0,0.7
				c-0.1,0.1-0.1,0.2-0.1,0.3c-0.1-0.1-0.2-0.1-0.2-0.2c0,0.4,0,0.7,0,1.1c0,0,0,0,0,0c0,0.1,0,0.2,0,0.3c-0.2,0-0.4,0.1-0.4,0.2
				c0,7.1,0,14.1,0.1,21.2c-2-2.4-3.9-4.8-5.7-7.3c-2.7-3.7-4.8-7.5-6.8-11.6c-0.5-0.4-1.1-0.6-1.7-0.6c-0.2,0-0.4,0-0.6,0
				c0-0.8,0-1.6,0.1-2.4c0-1.3-2.9-1.2-3.6-1.3c-0.2,0-0.7-0.1-1.3-0.1c-0.1-0.6-0.3-1-0.9-1c-0.1,0-0.2,0-0.4,0
				c-0.1-0.1-0.1-0.1-0.2-0.1c-0.2-0.1-0.8,0-1,0.3c-0.2-0.2-0.4-0.3-0.4-0.2c0,0.2,0,0.4,0,0.6c-0.1,0-0.1,0-0.2,0.1
				c-0.1-0.2-0.3-0.4-0.3-0.2c0,0.2,0,0.4,0,0.7c0,0-0.1,0.1-0.1,0.1c-0.3,0.1-0.6,0.4-0.6,0.9c0,0,0,0,0,0c0,0,0,0.1-0.1,0.1
				c-0.2,0.1-0.4,0.2-0.4,0.3c0,0.2,0,0.4,0,0.6c-0.2,0-0.4,0.1-0.4,0.1c-0.5,10.6-0.5,21.1-0.2,31.7c0,0.1,0,0.1,0.1,0.1
				c0,0.3,0,0.6,0,0.8c0,0.3,0.3,0.4,0.7,0.5c0,0,0,0,0,0.1c0,0.6,0.2,1.3,0.9,1.4c0.1,0,0.3,0,0.4,0c0.1,0.1,0.2,0.1,0.2,0.2
				c0.1,0.1,0.3,0.1,0.4,0.1c0,0,0,0.1,0.1,0.1c0.4,0.7,0.9,1.3,1.5,1.9c0.7,0.4,1.2,0.1,1.3-0.5c0.7,0.4,1.6,0.9,1.6-0.1
				c0-0.2,0-0.4,0-0.7c0.5,0.1,1,0.1,1-0.7c0-0.5,0-1.1,0-1.6c0.8,0.1,1.5,0,1.4-0.5c0-0.6,0-1.1,0-1.7c0.2-0.1,0.3-0.3,0.3-0.6
				c-0.1-4.5-0.2-8.9-0.2-13.4c4,5.6,8.7,10.8,13.1,16c0.2,0.2,0.5,0.1,0.9,0c0.1,0.1,0.2,0.1,0.3,0.2c0.3,0.4,0.6,0.7,0.9,1.1
				c0.5,0.5,1.3,1.1,1.8,0.4c0.4,0.4,0.9,0.7,1.4,0.8c0.2,0,0.4-0.1,0.5-0.2c0.2,0,0.5-0.1,0.7-0.2c0.1,0,0.1,0.1,0.2,0.1
				c0.4,0.3,1.9,1.1,1.9-0.1c0,0,0,0,0,0c0.7,0.3,1.9,0.7,1.8-0.5c0-0.5,0-1,0-1.5c0.8,0,1.4-0.1,1.4-0.6c0-0.6,0-1.2,0-1.8
				C545.8,887.6,545.9,887.4,545.9,887.2z"/>
			<path class="st2" d="M627.3,885C627.3,884.9,627.3,884.9,627.3,885c0.2-0.1,0.5-0.2,0.7-0.3c1-0.4,0.9-1.3-0.1-1.6
				c-1-0.1-1.9-0.1-2.9-0.1c-0.2,0-0.4,0-0.6,0c0-0.1-0.1-0.2-0.1-0.2c0.1-0.2,0.1-0.5,0-0.8c-0.3-0.7-1-0.6-1.6-0.3
				c-0.3-0.2-0.6-0.4-1-0.2c0,0-0.1,0-0.1,0c-0.3-0.2-0.6-0.2-0.8-0.1c-2.4,1.1-5,1.6-7.6,1.6c-0.1,0-0.2,0-0.2,0c0,0-0.1,0-0.1,0
				c-0.4,0-0.7-0.1-1-0.2c-0.9-0.6-1.8-1.4-2.5-2.2c-0.9-0.9-1.4-1.9-1.7-3.1c-0.9-1.6-1.4-3.4-1.4-5.2c0-0.9,0-1.8,0.1-2.7
				c0.1-0.7,0.3-1.4,0.6-2c0.2-0.5,0.3-1,0.6-1.5c0.2-0.3,0.4-0.6,0.7-0.8c0.5-0.4,0.9-0.8,1.5-1.2c1.2-0.8,2.6-1.4,4-1.9
				c1.7-0.5,3.6-0.9,5.4-1.2c1.8-0.2,3.7-0.2,5.6-0.1c0.9,0,0.8-0.6,0.6-1.2c0.2,0,0.5,0,0.7,0c1.6,0.1-0.4-2.1-0.5-2.2
				c0,0-0.1-0.1-0.2-0.2c0.6,0,1.2,0,1.8,0c1.1,0,1.2-0.9,0.5-1.5c-0.2-0.1-0.5-0.2-0.8-0.4c0.7-0.1,1.3-0.3,1.4-0.9
				c0.1-1.3-2.8-1.2-3.4-1.2c-0.4,0-0.8,0-1.2,0c0.1-0.7-0.4-1.1-1-1.1c-0.2,0-0.4,0-0.6,0c-0.1-0.1-0.2-0.1-0.4-0.2
				c-0.4,0-0.9,0-1.3,0c-6-0.3-12.6,0.6-17.1,4.9c-1.6,1.2-3,2.7-4,4.5c-0.8,1.4-1.3,2.8-1.7,4.3c-0.9,2.4-1.2,5.1-1,7.7
				c0.1,2.8,0.8,5.5,2,7.8c0.3,0.6,0.7,1.2,1.2,1.7c1.3,2.2,3.1,4,5.4,5.1c1.5,1.1,3.2,2,5,2.4c0.6,0.1,1.2,0.2,1.8,0.3
				c3.8,0.9,7.9,0.7,11.6-0.6c1.1-0.3,2.2-0.7,3.3-1.2c1-0.4,0.3-1.2-0.2-1.7c0.7-0.2,1.3-0.5,1.9-0.8
				C629.3,886,627.7,885.1,627.3,885z"/>
		</g>
	</g>
</g>
</svg>
