<?xml version="1.0" encoding="utf-8"?>
<!-- Generator: Adobe Illustrator 21.0.0, SVG Export Plug-In . SVG Version: 6.00 Build 0)  -->
<svg version="1.1" xmlns="http://www.w3.org/2000/svg" xmlns:xlink="http://www.w3.org/1999/xlink" x="0px" y="0px"
	 viewBox="0 0 1044 1044" style="enable-background:new 0 0 1044 1044;" xml:space="preserve">
<style type="text/css">
	.st0{display:none;}
	.st1{display:inline;fill:#FFFFFF;}
	.st2{fill:#00AEEF;}
</style>
<g id="BG" class="st0">
	<rect class="st1" width="1044" height="1044"/>
</g>
<g id="TEXT">
	<g>
		<g>
			<path class="st2" d="M611.2,183.9c0.3-0.1,0.5-0.2,0.8-0.3c1-0.4,0.9-1.3-0.1-1.6c-1.6-0.2-2.5-0.1-3.5,0c0-0.1-0.1-0.2-0.1-0.2
				c0.1-0.2,0.1-0.5,0-0.8c-0.3-0.7-1-0.6-1.6-0.3c-0.4-0.3-0.7-0.3-1.1-0.1c-0.3-0.2-0.6-0.2-0.8-0.1c-2.4,1.1-5,1.6-7.6,1.6
				c-0.1,0-0.2,0-0.2,0c0,0-0.1,0-0.1,0c-0.4,0-0.7-0.1-1-0.2c-1.7-1.1-3.7-3.1-4.2-5.4c-1.7-3-2.1-7.1-0.2-11.4
				c0.5-0.7,1-1.3,2.1-2.1c1.2-0.8,2.6-1.4,4-1.9c9.8-2.8,12.6,0.1,11.5-2.5c0.2,0,0.5,0,0.7,0c1.6,0.1-0.4-2.1-0.5-2.2
				c0,0-0.1-0.1-0.2-0.2c0.6,0,1.2,0,1.8,0c1.1,0,1.2-0.9,0.5-1.5c-0.2-0.1-0.5-0.2-0.8-0.4c0.7-0.1,1.3-0.3,1.4-0.9
				c0.1-1.3-2.8-1.2-3.4-1.2c-0.4,0-0.8,0-1.2,0c0.1-0.7-0.4-1.1-1-1.1c-0.2,0-0.4,0-0.6,0c-0.1-0.1-0.2-0.1-0.4-0.2
				c-0.4,0-0.9,0-1.3,0c-6-0.3-12.6,0.6-17.1,4.9c-7.6,5.6-8.8,19.4-3.6,26c1.3,2.2,3.1,4,5.4,5.1c1.5,1.1,3.2,2,5,2.4
				c0.6,0.1,1.2,0.2,1.8,0.3c3.8,0.9,7.9,0.7,11.6-0.6c1.1-0.3,2.2-0.7,3.3-1.2c1-0.4,0.3-1.2-0.2-1.7c0.7-0.2,1.3-0.5,1.9-0.8
				C613.1,185.1,612.1,184.2,611.2,183.9z"/>
			<path class="st2" d="M434.6,160c4.1-0.5,17.3-3.1,17.3-3.1s1.2-4.1,0.7-4.5c-0.8-0.5-2.1-0.5-3.2-0.5c0-0.5-0.4-1-0.9-1
				c-0.2,0-0.3,0-0.5,0c-0.3-0.3-0.6-0.2-1.1-0.2c-0.2-0.1-16.5,1.3-16.8,1.3c0.1,0,0.2,0.2,0.3,0.4c-0.3,0-0.5,0-0.8,0.1
				c-0.3-0.4-0.8-0.5-1.1-0.2c-0.2-0.3-0.6-0.4-0.6,0c0,0.2,0,0.4,0,0.6c0,0,0,0,0,0c-0.1-0.4-0.5-0.5-0.6,0.2c0,0,0,0,0,0
				c0,0,0,0,0,0c-0.1-0.3-0.3-0.5-0.3-0.8c0,0.3,0,0.7-0.1,1c-0.2,0.2-0.4,0.6-0.4,0.9c0,0-0.1,0.1-0.1,0.1
				c-0.8,0.1-0.7,0.2-0.8,0.7c-0.2,0-0.4,0-0.4-0.1c-0.7,10-1.4,20-2.4,30c0,0.1,0.1,0.1,0.1,0.2c-0.1,0.9-0.2,1.1,0.7,1.3
				c0,0.2,0,0.2,0,0.3c-0.1,0.1,0,0.1,0,0.2c0.1,0.4,0.3,0.7,0.6,0.9c0,1,0.5,0.8,1.4,0.8c0.4,0.8,0.8,1.6,1.7,1.6
				c0.2,0.1,0.5,0.1,0.6,0c0.4,0.4,0.8,0.6,1.1,0.6c6.7-0.2,19.4-1.3,19.4-1.3s0.3-1,0.2-1.5c0.2,0,0.4-0.1,0.6-0.1
				c1.3-0.2,1.8-3.7,1.1-4.1c-0.7-0.3-9.9-1-17.5-1c0.4-2.5,0.7-5.1,0.9-7.6c2.8-0.2,6.1-0.5,7.2-0.6c0.6,0,0.8-0.3,0.8-0.6
				c0.2,0,0.4,0,0.6,0c0.7-0.1,0.6-1,0.6-1s0.4,0,0.6-0.1c1.3-0.1,2-4.3,1.4-4.6c-0.6-0.3-6.6-0.8-10.9-1.1
				C434.2,165.3,434.2,165.8,434.6,160z M430.1,153.3C430,153.3,430,153.3,430.1,153.3c-0.1-0.1-0.1-0.2-0.1-0.3
				C430,153.1,430,153.2,430.1,153.3z"/>
			<path class="st2" d="M553.5,160c4.1-0.5,17.3-3.1,17.3-3.1s1.2-4.1,0.7-4.5c-0.8-0.5-2.1-0.5-3.2-0.5c0-0.5-0.4-1-0.9-1
				c-0.2,0-0.3,0-0.5,0c-0.3-0.3-0.6-0.2-1.1-0.2c-0.2-0.1-16.5,1.3-16.8,1.3c0.1,0,0.2,0.2,0.3,0.4c-0.3,0-0.5,0-0.8,0.1
				c-0.3-0.4-0.8-0.5-1.1-0.2c-0.2-0.3-0.6-0.4-0.6,0c0,0.2,0,0.4,0,0.6c0,0,0,0,0,0c-0.1-0.4-0.5-0.5-0.6,0.2c0,0,0,0,0,0
				c0,0,0,0,0,0c-0.1-0.3-0.3-0.5-0.3-0.8c0,0.3,0,0.7-0.1,1c-0.2,0.2-0.4,0.6-0.4,0.9c0,0-0.1,0.1-0.1,0.1
				c-0.8,0.1-0.7,0.2-0.8,0.7c-0.2,0-0.4,0-0.4-0.1c-0.7,10-1.4,20-2.4,30c0,0.1,0.1,0.1,0.1,0.2c-0.1,0.9-0.2,1.1,0.7,1.3
				c0,0.2,0,0.2,0,0.3c-0.1,0.1,0,0.1,0,0.2c0.1,0.4,0.3,0.7,0.6,0.9c0,1,0.5,0.8,1.4,0.8c0.4,0.8,0.8,1.6,1.7,1.6
				c0.2,0.1,0.5,0.1,0.6,0c0.4,0.4,0.8,0.6,1.1,0.6c6.7-0.2,19.4-1.3,19.4-1.3s0.3-1,0.2-1.5c0.2,0,0.4-0.1,0.6-0.1
				c1.3-0.2,1.8-3.7,1.1-4.1c-0.7-0.3-9.9-1-17.5-1c0.4-2.5,0.7-5.1,0.9-7.6c2.8-0.2,6.1-0.5,7.2-0.6c0.6,0,0.8-0.3,0.8-0.6
				c0.2,0,0.4,0,0.6,0c0.7-0.1,0.6-1,0.6-1s0.4,0,0.6-0.1c1.3-0.1,2-4.3,1.4-4.6c-0.6-0.3-6.6-0.8-10.9-1.1
				C553.2,165.3,553.2,165.8,553.5,160z M549,153.3C549,153.3,548.9,153.3,549,153.3c-0.1-0.1-0.1-0.2-0.1-0.3
				C548.9,153.1,548.9,153.2,549,153.3z"/>
			<path class="st2" d="M495.7,153.6c-0.7-0.6-2.2-0.8-3.4-0.9c0,0,0,0,0,0c-0.1-0.9-0.5-1-1.4-1c-0.3-0.3-0.6-0.2-1.1-0.2
				c-0.2-0.2-13.5,0.4-13.8,0.4c-0.2-0.2-0.5-0.3-0.8-0.5c0-0.9,0.3-1.8-3.1-1.9c-0.1-0.7-0.8-1-1.2-0.9c-0.2-0.3-0.7-0.3-0.8,0.1
				c0,0.1,0,0.3-0.1,0.4c-0.3-0.3-0.6-0.6-0.6-0.7c0,0.4-0.1,0.7-0.1,1.1c-0.5-0.7-0.3-0.8-0.5,0.4c-0.2,0.2-0.3,0.4-0.3,0.6
				c-0.4-0.2-0.9-0.4-0.9-0.5c-0.1,0.5-0.1,0.9-0.2,1.4c-0.1,0-0.2,0-0.3,0.1c-2.3,19.8-2.7,19.2-3.3,36.2c-0.1,0-0.2,0.1-0.2,0.1
				c-0.3,0-0.2,0.1,0,0.2c0.1,0,0.1,0.1,0.2,0.1c0,0.3,0,0.7,0,1c-0.1,0-0.1,0.1-0.1,0.1c-0.2,0.2-0.3,0.3-0.5,0.3
				c0.2,0,0.3-0.1,0.5-0.1c0,0,0,0,0,0c-0.2,0.2-0.5,0.3-0.8,0.3c-0.4,0,0.4,0.5,0.8,0.7c-0.6,0.3-1.2,0.1-0.7,0.7
				c0.1,0.2,0.5,0.2,0.8,0.3c-0.4,0.7,0.1,1.5,1.4,1.3c0.1,0,0,0,0.1,0c0.8,1.7,1.5,1.7,2.2,1.4c0.8,0.7,1.7,0.6,2.5-0.1
				c0.2,0.1,0.4,0.1,0.6,0.1c0.8-0.3,0.9-0.5,1.2-1.1c0-0.4,0-0.8,0-1.2c1.6-0.3,2.9-2.2,1.7-5.2c0-2.6-0.1-4.3,0.4-9.2
				c4.2,0,8.2-1.7,12.2-2.9c0.5-0.1,0.7-0.4,0.8-0.8c0.1,0,0.3,0,0.4-0.1c1.1-0.2,1.3-4.4,1.3-4.7c0-1.3-12.3-1.2-13.7-1.2
				c0.2-2.2,0.5-4.5,0.7-6.7c15.5-1.2,17.1-1,17.2-2c0.2,0,0.5,0,0.7,0C494.8,159,496.2,154,495.7,153.6z"/>
			<path class="st2" d="M532.3,186.1c-0.3-0.1-0.6-0.2-0.9-0.3c0.3-0.1,0.6-0.1,0.9-0.2c1.2-0.3,1.3-2.4-3.6-1.6c0,0,0,0,0,0
				c0.3-0.5-0.1-1.6-0.7-1.5c-0.3,0.1-0.5,0.1-0.8,0.2c-0.4-0.4-0.6-0.3-1.1-0.2c-0.2-0.1-0.5-0.2-0.7-0.1
				c-4.5,1.1-6.3,1.6-10.1,1.7c-1.8-1.6-1.9-4.2-1.8-6.5c0.7-9.2-0.1-11.4,0.1-20.9c0-0.5-0.3-0.9-0.8-1.3c-0.2-1.5,0.2-2.3-4-2.4
				c-0.1-0.7-0.6-1.1-1.1-1c-0.3-0.4-1-0.2-1,0.3c-0.7-0.6-0.6-0.5-0.6,0.3c-0.1,0-0.1,0.1-0.2,0.2c-0.5-0.5-0.4-0.5-0.4,0.5
				c-0.2,0.1-0.3,0.3-0.3,0.6c-0.4-0.2-0.7-0.3-0.7-0.5c0,0.4,0,0.7,0,1.1c0,0.1,0,0.3,0,0.4c-0.2,0-0.4,0-0.4,0
				c-0.5,26.4-1.1,28.4,1.2,31.3c0.7,1.6,1.7,2.7,3.6,3.4c1.4,1.2,3,1.6,4.8,1.9c4.7,1.4,10.4-0.4,14.9-1.5c0.1,0,0.3-0.1,0.4-0.2
				c1.3-0.4,2.3-0.4,1.4-1.6c0.6-0.1,1.2-0.3,1.7-0.4C532.9,187.4,533.1,186.7,532.3,186.1z"/>
			<path class="st2" d="M412.8,188.2c-0.5-6.7-3.1-12.9-9-16.2c1.2-1.1,2.3-2.3,3-3.8c2.3-2.7,3.3-6.1,1.6-9.3
				c-0.4-3.6-3.5-5.6-7.2-6.4c-2.1-1.4-5.2-1.9-7.3-1.9c-3-0.3-5.9,0.7-8.6,1.9c-0.2-0.6-0.7-0.6-1.3-0.5c-0.3-0.4-0.9-0.2-1.2,0.1
				c-0.6-0.5-0.5-0.2-0.5,0.5c-0.1,0-0.1,0-0.2,0.1c-0.5-0.6-0.4-0.2-0.4,0.6c0,0,0,0,0,0c-0.3,0.1-0.5,0.4-0.6,0.9
				c-0.7,0.2-0.5,0.2-0.5,0.9c-0.2,0-0.4,0-0.4,0.1c0,0.4,1.3,33.1,1.5,33.5c0.1,1.1-0.1,1.2,0.8,1.3c0,0.2,0,0.3,0,0.5
				c0,0.7,0.7,0.9,1.2,0.8c0.1,0,0.1,0,0.2,0c0.6,0.9,1.4,1.8,2.2,1.1c0.9,0.7,2.1,1.1,2.1-0.1c2.1,0.9,1.7-0.4,1.6-2.1
				c1.8,0,1.5-0.3,1.4-2.2c0.2-0.2,0.3-0.3,0.3-0.6c-0.2-3.4-0.3-6.8-0.4-10.1c0.3,0.1,0.6,0,0.9-0.1c0.2,0,0.3,0,0.5,0.1
				c0.6,0.3,0.8,0.3,1.2,0.2c1.8,0.2,3.6,0.9,5.2,1.9c0.8,1,3.4,3.2,4,10.8c0,0.3,0.3,0.5,0.7,0.6c0.1,1,0.2,1.7,1.4,1.4
				c0.1,0.1,0.2,0.1,0.3,0.1c0.4,0.7,0.9,1.4,1.3,1.6c0.4,0.2,1,0.2,1.2-0.2c0.4,0.3,2.1,1.6,2.1,0.3c0-0.2,0-0.4,0-0.6
				c1.5,0.6,1.3-0.5,1-2.3c2,0.4,1.7-0.2,1.5-2C412.7,188.7,412.8,188.5,412.8,188.2z M395,159.6c1.3,0,3,0.1,4.3,0.5
				c0.3,0.4,0.2,1.3,0.2,1.8c-1,2.4-2.7,4-8.1,6.4c0,0-0.6,0-0.6,0c-0.1-2.7-0.2-5.4-0.3-8.1C392.9,160.2,393.6,159.8,395,159.6z"/>
			<path class="st2" d="M661.8,153.8c-0.8-0.1-1.6-0.2-2.4-0.2c-0.1-0.1-0.1-0.2-0.2-0.2c0.1-1.2-0.6-1-1.7-1
				c-0.1-0.1-0.2-0.1-0.3-0.1c-0.3,0-0.6,0-0.9,0c-0.5-0.2-28.5,0-29.1,0c-0.2,0-0.2,0.3,0,0.6c-0.6,0-0.8-0.1-0.7,0.3
				c-0.2,0-0.5,0-0.7,0c0.2,0,0.5,0.2,0.7,0.5c0,0,0,0,0,0c-0.3,0.1-0.5,0.5-0.6,0.9c-0.6,0.2-1.1,0.1,0,0.1c0,0.1,0,0.1,0,0.2
				c-0.2,0-0.3,0.1-0.4,0.2c-0.1,0.1-0.3,0.3,0.1,0.3c0,0,0.1,0,0.1,0c0,0,0,0,0,0.1c-0.2,0-0.4,0-0.5,0c-0.3,0-0.3,0.2,0,0.3
				c0.1,0.1,0.3,0.1,0.4,0.1c0,0.1,0,0.3,0.1,0.4c0,0,0,0-0.1,0c-0.3,0-0.6,0-0.5,0.4c0.1,0.2,0.4,0.2,0.8,0.3
				c0,0.1-0.1,0.1-0.1,0.2c-0.1,0.5,0.1,1.4,0.7,1.4c0.3,0,0.8,0.1,1,0.1c0.5,1,1.2,2.3,2,2.4c3.1,0.3,6.2,0.5,9.2,0.6
				c-0.4,8.2-1,16.4-1.7,24.6c0,0.1,0,0.2,0.1,0.3c-0.1,0.9-0.2,1.3,0.7,1.5c0,1.5,0.7,2,1.4,1.8c0.2,0.2,0.4,0.3,0.7,0.3
				c0.9,1.5,1.1,2.1,2,2.4c0.4,0.1,0.7-0.1,0.8-0.4c0-0.2,0-0.4,0-0.6c1.3,0.8,1.3,0,1.3-1c1.2,0.4,1-0.6,1.1-2.3
				c1.6,0.3,1.4-0.3,1.5-2.3c0.6-0.7,1.8-22.3,1.8-24c10.2,0.1,10.5,0.2,10.5-0.8c1,0,1.7,0,1.2-1.2c0.2,0,0.5,0,0.7,0
				c1.3,0,0.3-1.4-0.6-2.3c0.6,0,1.2,0,1.7,0c1.1,0,1.3-0.9,0.5-1.5c-0.3-0.2-0.6-0.3-0.8-0.4C664.9,155.6,663.6,153.8,661.8,153.8z
				"/>
		</g>
		<g>
			<path class="st2" d="M495.4,361.9c4.1-0.5,17.3-3.1,17.3-3.1s1.2-4.1,0.7-4.5c-0.8-0.5-2.1-0.5-3.2-0.5c0-0.5-0.4-1-0.9-1
				c-0.2,0-0.3,0-0.5,0c-0.3-0.3-0.6-0.2-1.1-0.2c-0.2-0.1-16.5,1.3-16.8,1.3c0.1,0,0.2,0.2,0.3,0.4c-0.3,0-0.5,0-0.8,0.1
				c-0.3-0.4-0.8-0.5-1.1-0.2c-0.2-0.3-0.6-0.4-0.6,0c0,0.2,0,0.4,0,0.6c0,0,0,0,0,0c-0.1-0.4-0.5-0.5-0.6,0.2c0,0,0,0,0,0
				c0,0,0,0,0,0c-0.1-0.3-0.3-0.5-0.3-0.8c0,0.3,0,0.7-0.1,1c-0.2,0.2-0.4,0.6-0.4,0.9c0,0-0.1,0.1-0.1,0.1
				c-0.8,0.1-0.7,0.2-0.8,0.7c-0.2,0-0.4,0-0.4-0.1c-0.7,10-1.4,20-2.4,30c0,0.1,0.1,0.1,0.1,0.2c-0.1,0.9-0.2,1.1,0.7,1.3
				c0,0.2,0,0.2,0,0.3c-0.1,0.1,0,0.1,0,0.2c0.1,0.4,0.3,0.7,0.6,0.9c0,1,0.5,0.8,1.4,0.8c0.4,0.8,0.8,1.6,1.7,1.6
				c0.2,0.1,0.5,0.1,0.6,0c0.4,0.4,0.8,0.6,1.1,0.6c6.7-0.2,19.4-1.3,19.4-1.3s0.3-1,0.2-1.5c0.2,0,0.4-0.1,0.6-0.1
				c1.3-0.2,1.8-3.7,1.1-4.1c-0.7-0.3-9.9-1-17.5-1c0.4-2.5,0.7-5.1,0.9-7.6c2.8-0.2,6.1-0.5,7.2-0.6c0.6,0,0.8-0.3,0.8-0.6
				c0.2,0,0.4,0,0.6,0c0.7-0.1,0.6-1,0.6-1s0.4,0,0.6-0.1c1.3-0.1,2-4.3,1.4-4.6c-0.6-0.3-6.6-0.8-10.9-1.1
				C495,367.2,495,367.7,495.4,361.9z M490.9,355.2C490.8,355.2,490.8,355.1,490.9,355.2c-0.1-0.1-0.1-0.2-0.1-0.3
				C490.8,355,490.8,355.1,490.9,355.2z"/>
			<path class="st2" d="M473.6,390.1c-0.5-6.7-3.1-12.9-9-16.2c1.2-1.1,2.3-2.3,3-3.8c2.3-2.7,3.3-6.1,1.6-9.3
				c-0.4-3.6-3.5-5.6-7.2-6.4c-2.1-1.4-5.2-1.9-7.3-1.9c-3-0.3-5.9,0.7-8.6,1.9c-0.2-0.6-0.7-0.6-1.3-0.5c-0.3-0.4-0.9-0.2-1.2,0.1
				c-0.6-0.5-0.5-0.2-0.5,0.5c-0.1,0-0.1,0-0.2,0.1c-0.5-0.6-0.4-0.2-0.4,0.6c0,0,0,0,0,0c-0.3,0.1-0.5,0.4-0.6,0.9
				c-0.7,0.2-0.5,0.2-0.5,0.9c-0.2,0-0.4,0-0.4,0.1c0,0.4,1.3,33.1,1.5,33.5c0.1,1.1-0.1,1.2,0.8,1.3c0,0.2,0,0.3,0,0.5
				c0,0.7,0.7,0.9,1.2,0.8c0.1,0,0.1,0,0.2,0c0.6,0.9,1.4,1.8,2.2,1.1c0.9,0.7,2.1,1.1,2.1-0.1c2.1,0.9,1.7-0.4,1.6-2.1
				c1.8,0,1.5-0.3,1.4-2.2c0.2-0.2,0.3-0.3,0.3-0.6c-0.2-3.4-0.3-6.8-0.4-10.1c0.3,0.1,0.6,0,0.9-0.1c0.2,0,0.3,0,0.5,0.1
				c0.6,0.3,0.8,0.3,1.2,0.2c1.8,0.2,3.6,0.9,5.2,1.9c0.8,1,3.4,3.2,4,10.8c0,0.3,0.3,0.5,0.7,0.6c0.1,1,0.2,1.7,1.4,1.4
				c0.1,0.1,0.2,0.1,0.3,0.1c0.4,0.7,0.9,1.4,1.3,1.6c0.4,0.2,1,0.2,1.2-0.2c0.4,0.3,2.1,1.6,2.1,0.3c0-0.2,0-0.4,0-0.6
				c1.5,0.6,1.3-0.5,1-2.3c2,0.4,1.7-0.2,1.5-2C473.5,390.6,473.6,390.4,473.6,390.1z M455.8,361.5c1.3,0,3,0.1,4.3,0.5
				c0.3,0.4,0.2,1.3,0.2,1.8c-1,2.4-2.7,4-8.1,6.4c0,0-0.6,0-0.6,0c-0.1-2.7-0.2-5.4-0.3-8.1C453.7,362.1,454.4,361.7,455.8,361.5z"
				/>
			<path class="st2" d="M547.1,352.9c-2.7-2-10.4-3.4-17.3,2.8c-9,6.2-6.6,18.8-6.8,17.2c0.6,6.7,1.3,13.4,2.1,20.1
				c0,0.1,0.3,0.1,0.6,0.1c0.1,1.2,0,1.5,1,1.4c0.1,0.1,0.3,0.1,0.4,0.1c0.4,0.9,0.9,1.3,1.7,0.8c0.7,0.3,1.3,0.4,1.6-0.3
				c1.3,0.3,1.2-0.4,1.2-1.4c1.6,0.2,3,0.1,3-0.4c-0.7-6.4-0.6-6-0.9-10c4.4-0.1,8.8-0.4,13.2-0.8c0.3,9.8,0,9.2,1.1,9.6
				c0,0.1,0,0.2,0,0.3c0,0.9,0.8,1.1,1.4,0.9c0.2,0.1,0.1,0,0.2,0.1c0.8,1.7,1.7,1.7,2.2,1.2c0.7,0.5,1.6,0.7,1.7-0.1
				c0-0.1,0-0.2,0-0.3c1.6,0.6,1.4-0.4,1.4-1.9c1.1,0.1,2,0,2-0.4C556.2,361.5,556.8,354.4,547.1,352.9z M534.3,364.6
				c4.2-3.8,4.8-3.2,10.3-3.5c0.2,0,0.3,0.1,0.5,0.2c1.1,3.1,1.5,9.3,1.6,12.6c-4.5,0.8-9,1.6-13.5,2.3
				C532.9,371.2,532.3,366.4,534.3,364.6z"/>
			<path class="st2" d="M591,355.9c-1.2-0.6-2.4-1.1-3.6-1.5c-3.6-1.2-6.6-1.1-8.8-1.1c-2.3-0.1-4.6,0-7,0.2c-0.4,0-0.5,0.2-0.5,0.4
				c-0.1,0.1-0.1,0.2-0.1,0.3c-0.4,0-0.7,0-0.5,0.3c-0.1,0-0.1,0-0.1,0c-0.8,0.1-0.6,0,0,0.2c0,0.2,0,0.4,0,0.6
				c-0.1,0.1-0.1,0.2-0.2,0.3c-1.1,0.1-0.9,0,0,0.1c0,0.1-0.1,0.3-0.1,0.4c-0.1,0.1-0.2,0.2-0.3,0.4c-0.2,0-0.3,0.1-0.3,0.3
				c-0.3,0-0.2,0,0,0.1c0,0,0,0.1,0,0.1c-0.2,0-0.4,0-0.4,0c-0.1,6-0.2,26.9,0,27.9c0,1.2-0.2,1.4,0.8,1.6c0,0.9,0.2,1.5,1.2,1.3
				c0.1,0,0.2,0,0.2,0c0.6,0.9,1.3,1.8,2.1,1.1c0.8,0.6,1.8,0.8,1.8-0.2c2.1,1,1.7-0.4,1.8-1.9c0.9,0,1.6-0.1,1.6-0.5
				c0-0.6,0-1.2,0-1.8c0.1-0.1,0.2-0.3,0.2-0.5c-0.2-17.7,0.2-16.4-0.2-22.4c3.6,0,7.2,0.6,10.4,2.3c1.7,1.4,2.7,2.5,3,5
				c0.5,1.2,0.7,2.3,0.2,4.9c-3,9.2-11.5,12.5-12.1,13.5c-1.4,0.9-1.9,1-0.7,1.3c0,0.1,0.1,0.2,0.1,0.2c0,0,0,0,0,0
				c-0.9,0.5-1.4,0.8-0.4,0.6c0,0,0,0,0,0c-0.1,0.1-0.1,0.1,0,0.1c0,0.1-0.1,0.2-0.1,0.2c-0.2,0.1-0.4,0.2-0.6,0.3
				c0,0,0.3,0.3,0.7,0.6c0,0,0,0.1,0,0.1c-0.2,0.1-0.4,0.3-0.6,0.4c-0.2,0.1,0.7,0.5,1.3,0.6c0,0,0,0,0,0c-0.1,0.1-0.2,0.1-0.3,0.2
				c-0.3,0.2-0.1,0.8,0.2,1c0.2,0.1,0.7,0.1,1-0.1c0.4,0.8,1.2,1.4,1.9,1c0.9,0.6,1,0.4,1.8-0.1c0.4,0.2,0.8,0.2,1,0.1
				c4.7-2.8,9.3-5.9,12.4-10.3C605.6,374.4,605,359.9,591,355.9z"/>
		</g>
		<g>
			<path class="st2" d="M522.2,253.7c-2.7-2-10.4-3.4-17.3,2.8c-9,6.2-6.6,18.8-6.8,17.2c0.6,6.7,1.3,13.4,2.1,20.1
				c0,0.1,0.3,0.1,0.6,0.1c0.1,1.2,0,1.5,1,1.4c0.1,0.1,0.3,0.1,0.4,0.1c0.4,0.9,0.9,1.3,1.7,0.8c0.7,0.3,1.3,0.4,1.6-0.3
				c1.3,0.3,1.2-0.4,1.2-1.4c1.6,0.2,3,0.1,3-0.4c-0.7-6.4-0.6-6-0.9-10c4.4-0.1,8.8-0.4,13.2-0.8c0.3,9.8,0,9.2,1.1,9.6
				c0,0.1,0,0.2,0,0.3c0,0.9,0.8,1.1,1.4,0.9c0.2,0.1,0.1,0,0.2,0.1c0.8,1.7,1.7,1.7,2.2,1.2c0.7,0.5,1.6,0.7,1.7-0.1
				c0-0.1,0-0.2,0-0.3c1.6,0.6,1.4-0.4,1.4-1.9c1.1,0.1,2,0,2-0.4C531.3,262.3,531.9,255.2,522.2,253.7z M509.5,265.4
				c4.2-3.8,4.8-3.2,10.3-3.5c0.2,0,0.3,0.1,0.5,0.2c1.1,3.1,1.5,9.3,1.6,12.6c-4.5,0.8-9,1.6-13.5,2.3
				C508,272,507.4,267.2,509.5,265.4z"/>
			<path class="st2" d="M469.2,262.7c4.1-0.5,17.3-3.1,17.3-3.1s1.2-4.1,0.7-4.5c-0.8-0.5-2.1-0.5-3.2-0.5c0-0.5-0.4-1-0.9-1
				c-0.2,0-0.3,0-0.5,0c-0.3-0.3-0.6-0.2-1.1-0.2c-0.2-0.1-16.5,1.3-16.8,1.3c0.1,0,0.2,0.2,0.3,0.4c-0.3,0-0.5,0-0.8,0.1
				c-0.3-0.4-0.8-0.5-1.1-0.2c-0.2-0.3-0.6-0.4-0.6,0c0,0.2,0,0.4,0,0.6c0,0,0,0,0,0c-0.1-0.4-0.5-0.5-0.6,0.2c0,0,0,0,0,0
				c0,0,0,0,0,0c-0.1-0.3-0.3-0.5-0.3-0.8c0,0.3,0,0.7-0.1,1c-0.2,0.2-0.4,0.6-0.4,0.9c0,0-0.1,0.1-0.1,0.1
				c-0.8,0.1-0.7,0.2-0.8,0.7c-0.2,0-0.4,0-0.4-0.1c-0.7,10-1.4,20-2.4,30c0,0.1,0.1,0.1,0.1,0.2c-0.1,0.9-0.2,1.1,0.7,1.3
				c0,0.2,0,0.2,0,0.3c-0.1,0.1,0,0.1,0,0.2c0.1,0.4,0.3,0.7,0.6,0.9c0,1,0.5,0.8,1.4,0.8c0.4,0.8,0.8,1.6,1.7,1.6
				c0.2,0.1,0.5,0.1,0.6,0c0.4,0.4,0.8,0.6,1.1,0.6c6.7-0.2,19.4-1.3,19.4-1.3s0.3-1,0.2-1.5c0.2,0,0.4-0.1,0.6-0.1
				c1.3-0.2,1.8-3.7,1.1-4.1c-0.7-0.3-9.9-1-17.5-1c0.4-2.5,0.7-5.1,0.9-7.6c2.8-0.2,6.1-0.5,7.2-0.6c0.6,0,0.8-0.3,0.8-0.6
				c0.2,0,0.4,0,0.6,0c0.7-0.1,0.6-1,0.6-1s0.4,0,0.6-0.1c1.3-0.1,2-4.3,1.4-4.6c-0.6-0.3-6.6-0.8-10.9-1.1
				C468.8,268,468.8,268.4,469.2,262.7z M464.7,255.9C464.6,255.9,464.6,255.9,464.7,255.9c-0.1-0.1-0.1-0.2-0.1-0.3
				C464.6,255.7,464.6,255.8,464.7,255.9z"/>
			<path class="st2" d="M448.4,288.7c-0.3-0.1-0.6-0.2-0.9-0.3c0.3-0.1,0.6-0.1,0.9-0.2c1.2-0.3,1.3-2.4-3.6-1.6c0,0,0,0,0,0
				c0.3-0.5-0.1-1.6-0.7-1.5c-0.3,0.1-0.5,0.1-0.8,0.2c-0.4-0.4-0.6-0.3-1.1-0.2c-0.2-0.1-0.5-0.2-0.7-0.1
				c-4.5,1.1-6.3,1.6-10.1,1.7c-1.8-1.6-1.9-4.2-1.8-6.5c0.7-9.2-0.1-11.4,0.1-20.9c0-0.5-0.3-0.9-0.8-1.3c-0.2-1.5,0.2-2.3-4-2.4
				c-0.1-0.7-0.6-1.1-1.1-1c-0.3-0.4-1-0.2-1,0.3c-0.7-0.6-0.6-0.5-0.6,0.3c-0.1,0-0.1,0.1-0.2,0.2c-0.5-0.5-0.4-0.5-0.4,0.5
				c-0.2,0.1-0.3,0.3-0.3,0.6c-0.4-0.2-0.7-0.3-0.7-0.5c0,0.4,0,0.7,0,1.1c0,0.1,0,0.3,0,0.4c-0.2,0-0.4,0-0.4,0
				c-0.5,26.4-1.1,28.4,1.2,31.3c0.7,1.6,1.7,2.7,3.6,3.4c1.4,1.2,3,1.6,4.8,1.9c4.7,1.4,10.4-0.4,14.9-1.5c0.1,0,0.3-0.1,0.4-0.2
				c1.3-0.4,2.3-0.4,1.4-1.6c0.6-0.1,1.2-0.3,1.7-0.4C449.1,290.1,449.3,289.3,448.4,288.7z"/>
			<path class="st2" d="M624.5,288.8c-0.1-10.4-0.1-20.8-0.1-31.3c0-1.3-2.9-1-3.9-1c-0.1-0.2-0.2-0.3-0.3-0.4
				c-0.1-1-0.8-1.1-1.8-0.9c-0.3-0.3-0.6-0.3-1.1-0.1c-0.4-0.3-0.9-0.3-0.9,0.3c0,0.1,0,0.3,0,0.4c-0.1,0-0.1,0-0.2,0
				c-0.5-0.4-0.5-0.1-0.5,0.3c-0.3-0.1-0.6-0.2-0.6-0.2c0,0.2,0,0.5,0,0.7c-0.1,0.1-0.1,0.2-0.1,0.3c-0.1-0.1-0.2-0.1-0.2-0.2
				c0,1.4,0,0.3,0,1.5c-0.2,0-0.4,0.1-0.4,0.2c0,7.1,0,14.1,0.1,21.2c-5.5-6.6-8.9-11.1-12.5-18.9c-0.8-0.6-1.3-0.5-2.3-0.6
				c0.1-3.4,0.9-3.5-4.8-3.8c-0.1-0.7-0.5-1.1-1.3-1c-0.3-0.4-1-0.2-1.2,0.1c-0.5-0.5-0.4-0.3-0.4,0.4c-0.1,0-0.1,0-0.2,0.1
				c-0.4-0.6-0.3-0.2-0.4,0.5c0,0-0.1,0.1-0.1,0.1c-0.4,0.1-0.6,0.5-0.6,0.9c0,0,0,0.1-0.1,0.1c-0.4,0.2-0.4,0.2-0.4,0.9
				c-0.2,0-0.4,0.1-0.4,0.1c-0.2,3.8-0.9,31.3-0.1,31.8c0,0.9-0.1,1.2,0.7,1.3c0,1.2,0.6,1.6,1.3,1.5c0.2,0.2,0.4,0.3,0.6,0.3
				c0.6,0.9,0.7,1.2,1.6,2c0.7,0.4,1.2,0.1,1.3-0.5c1.7,1.1,1.6,0.2,1.6-0.8c1.3,0.3,1-0.6,1-2.3c1.8,0.2,1.5-0.3,1.4-2.2
				c0.2-0.1,0.3-0.3,0.3-0.6c-0.1-4.5-0.2-8.9-0.2-13.4c4,5.6,8.7,10.8,13.1,16c0.2,0.2,0.5,0.1,0.9,0c0.1,0.1,0.2,0.1,0.3,0.2
				c0.9,1,2,2.6,2.7,1.5c0.5,0.5,1.4,1,1.9,0.6c0.2,0,0.5-0.1,0.7-0.2c0.9,0.7,2,1.1,2.1,0c2.1,1,1.8-0.2,1.8-1.9
				c1.7,0.1,1.4-0.5,1.4-2.4C624.4,289.2,624.5,289.1,624.5,288.8z"/>
			<path class="st2" d="M576.8,290.8c-0.5-6.7-3.1-12.9-9-16.2c1.2-1.1,2.3-2.3,3-3.8c2.3-2.7,3.3-6.1,1.6-9.3
				c-0.4-3.6-3.5-5.6-7.2-6.4c-2.1-1.4-5.2-1.9-7.3-1.9c-3-0.3-5.9,0.7-8.6,1.9c-0.2-0.6-0.7-0.6-1.3-0.5c-0.3-0.4-0.9-0.2-1.2,0.1
				c-0.6-0.5-0.5-0.2-0.5,0.5c-0.1,0-0.1,0-0.2,0.1c-0.5-0.6-0.4-0.2-0.4,0.6c0,0,0,0,0,0c-0.3,0.1-0.5,0.4-0.6,0.9
				c-0.7,0.2-0.5,0.2-0.5,0.9c-0.2,0-0.4,0-0.4,0.1c0,0.4,1.3,33.1,1.5,33.5c0.1,1.1-0.1,1.2,0.8,1.3c0,0.2,0,0.3,0,0.5
				c0,0.7,0.7,0.9,1.2,0.8c0.1,0,0.1,0,0.2,0c0.6,0.9,1.4,1.8,2.2,1.1c0.9,0.7,2.1,1.1,2.1-0.1c2.1,0.9,1.7-0.4,1.6-2.1
				c1.8,0,1.5-0.3,1.4-2.2c0.2-0.2,0.3-0.3,0.3-0.6c-0.2-3.4-0.3-6.8-0.4-10.1c0.3,0.1,0.6,0,0.9-0.1c0.2,0,0.3,0,0.5,0.1
				c0.6,0.3,0.8,0.3,1.2,0.2c1.8,0.2,3.6,0.9,5.2,1.9c0.8,1,3.4,3.2,4,10.8c0,0.3,0.3,0.5,0.7,0.6c0.1,1,0.2,1.7,1.4,1.4
				c0.1,0.1,0.2,0.1,0.3,0.1c0.4,0.7,0.9,1.4,1.3,1.6c0.4,0.2,1,0.2,1.2-0.2c0.4,0.3,2.1,1.6,2.1,0.3c0-0.2,0-0.4,0-0.6
				c1.5,0.6,1.3-0.5,1-2.3c2,0.4,1.7-0.2,1.5-2C576.6,291.4,576.8,291.2,576.8,290.8z M559,262.3c1.3,0,3,0.1,4.3,0.5
				c0.3,0.4,0.2,1.3,0.2,1.8c-1,2.4-2.7,4-8.1,6.4c0,0-0.6,0-0.6,0c-0.1-2.7-0.2-5.4-0.3-8.1C556.9,262.8,557.6,262.5,559,262.3z"/>
		</g>
		<g>
			<path class="st2" d="M605,461.3c4.1-0.5,17.3-3.1,17.3-3.1s1.2-4.1,0.7-4.5c-0.8-0.5-2.1-0.5-3.2-0.5c0-0.5-0.4-1-0.9-1
				c-0.2,0-0.3,0-0.5,0c-0.3-0.3-0.6-0.2-1.1-0.2c-0.2-0.1-16.5,1.3-16.8,1.3c0.1,0,0.2,0.2,0.3,0.4c-0.3,0-0.5,0-0.8,0.1
				c-0.3-0.4-0.8-0.5-1.1-0.2c-0.2-0.3-0.6-0.4-0.6,0c0,0.2,0,0.4,0,0.6c0,0,0,0,0,0c-0.1-0.4-0.5-0.5-0.6,0.2c0,0,0,0,0,0
				c0,0,0,0,0,0c-0.1-0.3-0.3-0.5-0.3-0.8c0,0.3,0,0.7-0.1,1c-0.2,0.2-0.4,0.6-0.4,0.9c0,0-0.1,0.1-0.1,0.1
				c-0.8,0.1-0.7,0.2-0.8,0.7c-0.2,0-0.4,0-0.4-0.1c-0.7,10-1.4,20-2.4,30c0,0.1,0.1,0.1,0.1,0.2c-0.1,0.9-0.2,1.1,0.7,1.3
				c0,0.2,0,0.2,0,0.3c-0.1,0.1,0,0.1,0,0.2c0.1,0.4,0.3,0.7,0.6,0.9c0,1,0.5,0.8,1.4,0.8c0.4,0.8,0.8,1.6,1.7,1.6
				c0.2,0.1,0.5,0.1,0.6,0c0.4,0.4,0.8,0.6,1.1,0.6c6.7-0.2,19.4-1.3,19.4-1.3s0.3-1,0.2-1.5c0.2,0,0.4-0.1,0.6-0.1
				c1.3-0.2,1.8-3.7,1.1-4.1c-0.7-0.3-9.9-1-17.5-1c0.4-2.5,0.7-5.1,0.9-7.6c2.8-0.2,6.1-0.5,7.2-0.6c0.6,0,0.8-0.3,0.8-0.6
				c0.2,0,0.4,0,0.6,0c0.7-0.1,0.6-1,0.6-1s0.4,0,0.6-0.1c1.3-0.1,2-4.3,1.4-4.6c-0.6-0.3-6.6-0.8-10.9-1.1
				C604.6,466.5,604.6,467,605,461.3z M600.4,454.5C600.4,454.5,600.4,454.5,600.4,454.5c-0.1-0.1-0.1-0.2-0.1-0.3
				C600.3,454.3,600.4,454.4,600.4,454.5z"/>
			<path class="st2" d="M537.4,455.5c0.1-1.3-2.9-1.2-3.5-1.3c-0.2,0-0.8-0.1-1.5-0.1c-0.1-0.7-0.7-1-1.3-1
				c-0.3-0.4-0.9-0.2-1.1,0.2c-0.6-0.5-0.5-0.3-0.6,0.4c-0.1,0-0.1,0.1-0.2,0.1c-0.4-0.4-0.3-0.4-0.4,0.6c-0.2,0.1-0.4,0.4-0.4,0.7
				c-0.4,0-0.7-0.1-0.7-0.1c0,0.4-0.1,0.8-0.1,1.1c-0.4,0-2.7,30.7-2,31.3c0,1-0.2,1.2,0.8,1.3c0,0.9,0.2,1.6,1.2,1.4
				c0.1,0,0.1,0.1,0.3,0.1c0.6,1,1.6,2.2,2.4,1.3c0.9,0.7,2.1,1.3,2.1,0.2c0-0.1,0-0.2,0-0.4c1.6,0.6,1.3-0.5,1.3-2.2
				c1.7,0.2,1.4-0.4,1.4-2.4c0.1-0.1,0.2-0.3,0.2-0.5C535.7,475.9,536.7,465.7,537.4,455.5z"/>
			<path class="st2" d="M512.6,488c-0.5-6.7-3.1-12.9-9-16.2c1.2-1.1,2.3-2.3,3-3.8c2.3-2.7,3.3-6.1,1.6-9.3
				c-0.4-3.6-3.5-5.6-7.2-6.4c-2.1-1.4-5.2-1.9-7.3-1.9c-3-0.3-5.9,0.7-8.6,1.9c-0.2-0.6-0.7-0.6-1.3-0.5c-0.3-0.4-0.9-0.2-1.2,0.1
				c-0.6-0.5-0.5-0.2-0.5,0.5c-0.1,0-0.1,0-0.2,0.1c-0.5-0.6-0.4-0.2-0.4,0.6c0,0,0,0,0,0c-0.3,0.1-0.5,0.4-0.6,0.9
				c-0.7,0.2-0.5,0.2-0.5,0.9c-0.2,0-0.4,0-0.4,0.1c0,0.4,1.3,33.1,1.5,33.5c0.1,1.1-0.1,1.2,0.8,1.3c0,0.2,0,0.3,0,0.5
				c0,0.7,0.7,0.9,1.2,0.8c0.1,0,0.1,0,0.2,0c0.6,0.9,1.4,1.8,2.2,1.1c0.9,0.7,2.1,1.1,2.1-0.1c2.1,0.9,1.7-0.4,1.6-2.1
				c1.8,0,1.5-0.3,1.4-2.2c0.2-0.2,0.3-0.3,0.3-0.6c-0.2-3.4-0.3-6.8-0.4-10.1c0.3,0.1,0.6,0,0.9-0.1c0.2,0,0.3,0,0.5,0.1
				c0.6,0.3,0.8,0.3,1.2,0.2c1.8,0.2,3.6,0.9,5.2,1.9c0.8,1,3.4,3.2,4,10.8c0,0.3,0.3,0.5,0.7,0.6c0.1,1,0.2,1.7,1.4,1.4
				c0.1,0.1,0.2,0.1,0.3,0.1c0.4,0.7,0.9,1.4,1.3,1.6c0.4,0.2,1,0.2,1.2-0.2c0.4,0.3,2.1,1.6,2.1,0.3c0-0.2,0-0.4,0-0.6
				c1.5,0.6,1.3-0.5,1-2.3c2,0.4,1.7-0.2,1.5-2C512.5,488.6,512.7,488.4,512.6,488z M494.8,459.5c1.3,0,3,0.1,4.3,0.5
				c0.3,0.4,0.2,1.3,0.2,1.8c-1,2.4-2.7,4-8.1,6.4c0,0-0.6,0-0.6,0c-0.1-2.7-0.2-5.4-0.3-8.1C492.8,460,493.4,459.7,494.8,459.5z"/>
			<path class="st2" d="M582.6,453.7c-0.8-0.1-1.6-0.2-2.4-0.2c-0.1-0.1-0.1-0.2-0.2-0.2c0.1-1.2-0.6-1-1.7-1
				c-0.1-0.1-0.2-0.1-0.3-0.1c-0.3,0-0.6,0-0.9,0c-0.5-0.2-28.5,0-29.1,0c-0.2,0-0.2,0.3,0,0.6c-0.6,0-0.8-0.1-0.7,0.3
				c-0.2,0-0.5,0-0.7,0c0.2,0,0.5,0.2,0.7,0.5c0,0,0,0,0,0c-0.3,0.1-0.5,0.5-0.6,0.9c-0.6,0.2-1.1,0.1,0,0.1c0,0.1,0,0.1,0,0.2
				c-0.2,0-0.3,0.1-0.4,0.2c-0.1,0.1-0.3,0.3,0.1,0.3c0,0,0.1,0,0.1,0c0,0,0,0,0,0.1c-0.2,0-0.4,0-0.5,0c-0.3,0-0.3,0.2,0,0.3
				c0.1,0.1,0.3,0.1,0.4,0.1c0,0.1,0,0.3,0.1,0.4c0,0,0,0-0.1,0c-0.3,0-0.6,0-0.5,0.4c0.1,0.2,0.4,0.2,0.8,0.3
				c0,0.1-0.1,0.1-0.1,0.2c-0.1,0.5,0.1,1.4,0.7,1.4c0.3,0,0.8,0.1,1,0.1c0.5,1,1.2,2.3,2,2.4c3.1,0.3,6.2,0.5,9.2,0.6
				c-0.4,8.2-1,16.4-1.7,24.6c0,0.1,0,0.2,0.1,0.3c-0.1,0.9-0.2,1.3,0.7,1.5c0,1.5,0.7,2,1.4,1.8c0.2,0.2,0.4,0.3,0.7,0.3
				c0.9,1.5,1.1,2.1,2,2.4c0.4,0.1,0.7-0.1,0.8-0.4c0-0.2,0-0.4,0-0.6c1.3,0.8,1.3,0,1.3-1c1.2,0.4,1-0.6,1.1-2.3
				c1.6,0.3,1.4-0.3,1.5-2.3c0.6-0.7,1.8-22.3,1.8-24c10.2,0.1,10.5,0.2,10.5-0.8c1,0,1.7,0,1.2-1.2c0.2,0,0.5,0,0.7,0
				c1.3,0,0.3-1.4-0.6-2.3c0.6,0,1.2,0,1.7,0c1.1,0,1.3-0.9,0.5-1.5c-0.3-0.2-0.6-0.3-0.8-0.4C585.7,455.4,584.3,453.7,582.6,453.7z
				"/>
			<path class="st2" d="M467.2,454.8c-0.1-1.4-2.6-1.2-4.2-1.4c-0.1-0.1-0.1-0.1-0.2-0.2c-0.1-0.8-0.3-1.2-1.7-0.9
				c-0.3-0.3-0.6-0.3-1-0.1c-0.7-0.6-0.6-0.2-0.6,0.6c-0.1,0-0.2,0-0.3,0c-0.3-0.3-0.3-0.2-0.3,0.1c-0.2,0-0.3,0-0.4,0.2
				c-0.2-0.2-0.2-0.5-0.2,0.1c-0.3,0.1-0.4,0.3-0.4,0.7c-0.1,0.1-0.1,0.2,0,0.3c-0.2,0-0.3,0-0.3-0.1c0,0.3,0.1,0.7,0.1,1
				c-0.6,0.1-0.4,0.6-0.4,1.2c-0.2,1,2.7,18.1-4.1,29c-2.8-3.9-2.9-12-3.7-20.4c-0.1-0.8-1.1-1.1-2.1-1.2c0-0.2,0-0.3,0-0.5
				c0.1-1.3-2.7-1-3.7-1c-0.1-0.1-0.2-0.3-0.3-0.4c0-1.2-0.8-1.2-1.9-0.9c-0.3-0.3-0.5-0.3-1.1-0.1c-0.9-0.5-0.9-0.1-1,0.7
				c-0.5-0.3-0.6-0.1-0.6,0.3c-0.3-0.1-0.5-0.2-0.5-0.2c0,0.3,0,0.6,0,0.8c0,0.1-0.1,0.1-0.1,0.2c-0.2-0.1-0.3-0.1-0.3-0.2
				c0,0.5,0,0.9,0,1.4c-0.2,0-0.3,0.1-0.3,0.2c0,6.1-1.1,10.4-3.5,15.8c-5.2-27,0-24.7-8-24.9c-0.1-0.9-0.6-1.1-1.4-1
				c-0.3-0.4-1-0.1-1,0.3c-0.5-0.5-0.5-0.7-0.4,0.3c-0.1,0-0.2,0.2-0.2,0.3c-0.4-0.5-0.3-0.6-0.3,0.5c0,0-0.1,0.1-0.1,0.1
				c-0.3,0.2-0.4,0.5-0.4,0.9c0,0-0.1,0.1-0.1,0.2c-0.7,0.3-0.5,0.4-0.5,0.6c-0.2,0-0.4,0-0.4,0c0.4,10,2.5,22.7,4.5,31.3
				c0,0.2,0.3,0.3,0.6,0.4c0.2,1,0.3,1.6,1.3,1.4c0.2,0.2,0.3,0.2,0.5,0.3c0.5,0.8,1.2,1.6,1.7,1.9c0.5,0.3,1,0.1,1.2-0.3
				c0.7,0.6,1.7,0.8,1.8-0.2c-0.1-0.2-0.1-0.5-0.2-0.7c0.3,0.1,0.7,0.1,0.9,0.1c0.1,0,0.1,0.1,0.2,0.1c1.4,0.3,2.5,0.8,4.1-0.3
				c1.7-0.6,2.8-3.1,3.3-4.1c0.3-0.4,0.6-0.9,1.1-1.8c0.6,1.8,2.6,5.8,5.5,7.1c1.2,1.6,2.5,2.9,5.9,3.3c0.4,0.1,0.6-0.1,0.7-0.4
				c1.3,0.3,2.2,0.5,1.4-1.1c0,0,0.1,0,0.1,0c0.7,0.1,1.2-0.1,1.2-0.7c0.1,0,0.6-0.1,0.6-0.1c1-0.2,1.5-0.4,2.2-1.2
				c0.8-0.5,1.2-1,2-2.6c1.2-2.4,3.3-3.1,5.4-17.7C468,466,467.7,460.5,467.2,454.8z"/>
		</g>
		<g>
			<path class="st2" d="M509.3,554.1c-2.7-2-10.4-3.4-17.3,2.8c-9,6.2-6.6,18.8-6.8,17.2c0.6,6.7,1.3,13.4,2.1,20.1
				c0,0.1,0.3,0.1,0.6,0.1c0.1,1.2,0,1.5,1,1.4c0.1,0.1,0.3,0.1,0.4,0.1c0.4,0.9,0.9,1.3,1.7,0.8c0.7,0.3,1.3,0.4,1.6-0.3
				c1.3,0.3,1.2-0.4,1.2-1.4c1.6,0.2,3,0.1,3-0.4c-0.7-6.4-0.6-6-0.9-10c4.4-0.1,8.8-0.4,13.2-0.8c0.3,9.8,0,9.2,1.1,9.6
				c0,0.1,0,0.2,0,0.3c0,0.9,0.8,1.1,1.4,0.9c0.2,0.1,0.1,0,0.2,0.1c0.8,1.7,1.7,1.7,2.2,1.2c0.7,0.5,1.6,0.7,1.7-0.1
				c0-0.1,0-0.2,0-0.3c1.6,0.6,1.4-0.4,1.4-1.9c1.1,0.1,2,0,2-0.4C518.4,562.7,519.1,555.6,509.3,554.1z M496.6,565.8
				c4.2-3.8,4.8-3.2,10.3-3.5c0.2,0,0.3,0.1,0.5,0.2c1.1,3.1,1.5,9.3,1.6,12.6c-4.5,0.8-9,1.6-13.5,2.3
				C495.2,572.4,494.5,567.6,496.6,565.8z"/>
			<path class="st2" d="M473,587c0.3-0.1,0.5-0.2,0.8-0.3c1-0.4,0.9-1.3-0.1-1.6c-1.6-0.2-2.5-0.1-3.5,0c0-0.1-0.1-0.2-0.1-0.2
				c0.1-0.2,0.1-0.5,0-0.8c-0.3-0.7-1-0.6-1.6-0.3c-0.4-0.3-0.7-0.3-1.1-0.1c-0.3-0.2-0.6-0.2-0.8-0.1c-2.4,1.1-5,1.6-7.6,1.6
				c-0.1,0-0.2,0-0.2,0c0,0-0.1,0-0.1,0c-0.4,0-0.7-0.1-1-0.2c-1.7-1.1-3.7-3.1-4.2-5.4c-1.7-3-2.1-7.1-0.2-11.4
				c0.5-0.7,1-1.3,2.1-2.1c1.2-0.8,2.6-1.4,4-1.9c9.8-2.8,12.6,0.1,11.5-2.5c0.2,0,0.5,0,0.7,0c1.6,0.1-0.4-2.1-0.5-2.2
				c0,0-0.1-0.1-0.2-0.2c0.6,0,1.2,0,1.8,0c1.1,0,1.2-0.9,0.5-1.5c-0.2-0.1-0.5-0.2-0.8-0.4c0.7-0.1,1.3-0.3,1.4-0.9
				c0.1-1.3-2.8-1.2-3.4-1.2c-0.4,0-0.8,0-1.2,0c0.1-0.7-0.4-1.1-1-1.1c-0.2,0-0.4,0-0.6,0c-0.1-0.1-0.2-0.1-0.4-0.2
				c-0.4,0-0.9,0-1.3,0c-6-0.3-12.6,0.6-17.1,4.9c-7.6,5.6-8.8,19.4-3.6,26c1.3,2.2,3.1,4,5.4,5.1c1.5,1.1,3.2,2,5,2.4
				c0.6,0.1,1.2,0.2,1.8,0.3c3.8,0.9,7.9,0.7,11.6-0.6c1.1-0.3,2.2-0.7,3.3-1.2c1-0.4,0.3-1.2-0.2-1.7c0.7-0.2,1.3-0.5,1.9-0.8
				C474.9,588.1,473.9,587.3,473,587z"/>
			<path class="st2" d="M560.9,589.1c-0.3-0.1-0.6-0.2-0.9-0.3c0.3-0.1,0.6-0.1,0.9-0.2c1.2-0.3,1.3-2.4-3.6-1.6c0,0,0,0,0,0
				c0.3-0.5-0.1-1.6-0.7-1.5c-0.3,0.1-0.5,0.1-0.8,0.2c-0.4-0.4-0.6-0.3-1.1-0.2c-0.2-0.1-0.5-0.2-0.7-0.1
				c-4.5,1.1-6.3,1.6-10.1,1.7c-1.8-1.6-1.9-4.2-1.8-6.5c0.7-9.2-0.1-11.4,0.1-20.9c0-0.5-0.3-0.9-0.8-1.3c-0.2-1.5,0.2-2.3-4-2.4
				c-0.1-0.7-0.6-1.1-1.1-1c-0.3-0.4-1-0.2-1,0.3c-0.7-0.6-0.6-0.5-0.6,0.3c-0.1,0-0.1,0.1-0.2,0.2c-0.5-0.5-0.4-0.5-0.4,0.5
				c-0.2,0.1-0.3,0.3-0.3,0.6c-0.4-0.2-0.7-0.3-0.7-0.5c0,0.4,0,0.7,0,1.1c0,0.1,0,0.3,0,0.4c-0.2,0-0.4,0-0.4,0
				c-0.5,26.4-1.1,28.4,1.2,31.3c0.7,1.6,1.7,2.7,3.6,3.4c1.4,1.2,3,1.6,4.8,1.9c4.7,1.4,10.4-0.4,14.9-1.5c0.1,0,0.3-0.1,0.4-0.2
				c1.3-0.4,2.3-0.4,1.4-1.6c0.6-0.1,1.2-0.3,1.7-0.4C561.5,590.5,561.8,589.7,560.9,589.1z"/>
			<path class="st2" d="M601.5,589.1c-0.3-0.1-0.6-0.2-0.9-0.3c0.3-0.1,0.6-0.1,0.9-0.2c1.2-0.3,1.3-2.4-3.6-1.6c0,0,0,0,0,0
				c0.3-0.5-0.1-1.6-0.7-1.5c-0.3,0.1-0.5,0.1-0.8,0.2c-0.4-0.4-0.6-0.3-1.1-0.2c-0.2-0.1-0.5-0.2-0.7-0.1
				c-4.5,1.1-6.3,1.6-10.1,1.7c-1.8-1.6-1.9-4.2-1.8-6.5c0.7-9.2-0.1-11.4,0.1-20.9c0-0.5-0.3-0.9-0.8-1.3c-0.2-1.5,0.2-2.3-4-2.4
				c-0.1-0.7-0.6-1.1-1.1-1c-0.3-0.4-1-0.2-1,0.3c-0.7-0.6-0.6-0.5-0.6,0.3c-0.1,0-0.1,0.1-0.2,0.2c-0.5-0.5-0.4-0.5-0.4,0.5
				c-0.2,0.1-0.3,0.3-0.3,0.6c-0.4-0.2-0.7-0.3-0.7-0.5c0,0.4,0,0.7,0,1.1c0,0.1,0,0.3,0,0.4c-0.2,0-0.4,0-0.4,0
				c-0.5,26.4-1.1,28.4,1.2,31.3c0.7,1.6,1.7,2.7,3.6,3.4c1.4,1.2,3,1.6,4.8,1.9c4.7,1.4,10.4-0.4,14.9-1.5c0.1,0,0.3-0.1,0.4-0.2
				c1.3-0.4,2.3-0.4,1.4-1.6c0.6-0.1,1.2-0.3,1.7-0.4C602.2,590.5,602.4,589.7,601.5,589.1z"/>
		</g>
		<g>
			<path class="st2" d="M486.7,654c-2.7-2-10.4-3.4-17.3,2.8c-9,6.2-6.6,18.8-6.8,17.2c0.6,6.7,1.3,13.4,2.1,20.1
				c0,0.1,0.3,0.1,0.6,0.1c0.1,1.2,0,1.5,1,1.4c0.1,0.1,0.3,0.1,0.4,0.1c0.4,0.9,0.9,1.3,1.7,0.8c0.7,0.3,1.3,0.4,1.6-0.3
				c1.3,0.3,1.2-0.4,1.2-1.4c1.6,0.2,3,0.1,3-0.4c-0.7-6.4-0.6-6-0.9-10c4.4-0.1,8.8-0.4,13.2-0.8c0.3,9.8,0,9.2,1.1,9.6
				c0,0.1,0,0.2,0,0.3c0,0.9,0.8,1.1,1.4,0.9c0.2,0.1,0.1,0,0.2,0.1c0.8,1.7,1.7,1.7,2.2,1.2c0.7,0.5,1.6,0.7,1.7-0.1
				c0-0.1,0-0.2,0-0.3c1.6,0.6,1.4-0.4,1.4-1.9c1.1,0.1,2,0,2-0.4C495.8,662.6,496.4,655.5,486.7,654z M473.9,665.7
				c4.2-3.8,4.8-3.2,10.3-3.5c0.2,0,0.3,0.1,0.5,0.2c1.1,3.1,1.5,9.3,1.6,12.6c-4.5,0.8-9,1.6-13.5,2.3
				C472.5,672.3,471.9,667.5,473.9,665.7z"/>
			<path class="st2" d="M585.1,686.9c0.3-0.1,0.5-0.2,0.8-0.3c1-0.4,0.9-1.3-0.1-1.6c-1.6-0.2-2.5-0.1-3.5,0c0-0.1-0.1-0.2-0.1-0.2
				c0.1-0.2,0.1-0.5,0-0.8c-0.3-0.7-1-0.6-1.6-0.3c-0.4-0.3-0.7-0.3-1.1-0.1c-0.3-0.2-0.6-0.2-0.8-0.1c-2.4,1.1-5,1.6-7.6,1.6
				c-0.1,0-0.2,0-0.2,0c0,0-0.1,0-0.1,0c-0.4,0-0.7-0.1-1-0.2c-1.7-1.1-3.7-3.1-4.2-5.4c-1.7-3-2.1-7.1-0.2-11.4
				c0.5-0.7,1-1.3,2.1-2.1c1.2-0.8,2.6-1.4,4-1.9c9.8-2.8,12.6,0.1,11.5-2.5c0.2,0,0.5,0,0.7,0c1.6,0.1-0.4-2.1-0.5-2.2
				c0,0-0.1-0.1-0.2-0.2c0.6,0,1.2,0,1.8,0c1.1,0,1.2-0.9,0.5-1.5c-0.2-0.1-0.5-0.2-0.8-0.4c0.7-0.1,1.3-0.3,1.4-0.9
				c0.1-1.3-2.8-1.2-3.4-1.2c-0.4,0-0.8,0-1.2,0c0.1-0.7-0.4-1.1-1-1.1c-0.2,0-0.4,0-0.6,0c-0.1-0.1-0.2-0.1-0.4-0.2
				c-0.4,0-0.9,0-1.3,0c-6-0.3-12.6,0.6-17.1,4.9c-7.6,5.6-8.8,19.4-3.6,26c1.3,2.2,3.1,4,5.4,5.1c1.5,1.1,3.2,2,5,2.4
				c0.6,0.1,1.2,0.2,1.8,0.3c3.8,0.9,7.9,0.7,11.6-0.6c1.1-0.3,2.2-0.7,3.3-1.2c1-0.4,0.3-1.2-0.2-1.7c0.7-0.2,1.3-0.5,1.9-0.8
				C587,688,586,687.2,585.1,686.9z"/>
			<path class="st2" d="M606.8,663c4.1-0.5,17.3-3.1,17.3-3.1s1.2-4.1,0.7-4.5c-0.8-0.5-2.1-0.5-3.2-0.5c0-0.5-0.4-1-0.9-1
				c-0.2,0-0.3,0-0.5,0c-0.3-0.3-0.6-0.2-1.1-0.2c-0.2-0.1-16.5,1.3-16.8,1.3c0.1,0,0.2,0.2,0.3,0.4c-0.3,0-0.5,0-0.8,0.1
				c-0.3-0.4-0.8-0.5-1.1-0.2c-0.2-0.3-0.6-0.4-0.6,0c0,0.2,0,0.4,0,0.6c0,0,0,0,0,0c-0.1-0.4-0.5-0.5-0.6,0.2c0,0,0,0,0,0
				c0,0,0,0,0,0c-0.1-0.3-0.3-0.5-0.3-0.8c0,0.3,0,0.7-0.1,1c-0.2,0.2-0.4,0.6-0.4,0.9c0,0-0.1,0.1-0.1,0.1
				c-0.8,0.1-0.7,0.2-0.8,0.7c-0.2,0-0.4,0-0.4-0.1c-0.7,10-1.4,20-2.4,30c0,0.1,0.1,0.1,0.1,0.2c-0.1,0.9-0.2,1.1,0.7,1.3
				c0,0.2,0,0.2,0,0.3c-0.1,0.1,0,0.1,0,0.2c0.1,0.4,0.3,0.7,0.6,0.9c0,1,0.5,0.8,1.4,0.8c0.4,0.8,0.8,1.6,1.7,1.6
				c0.2,0.1,0.5,0.1,0.6,0c0.4,0.4,0.8,0.6,1.1,0.6c6.7-0.2,19.4-1.3,19.4-1.3s0.3-1,0.2-1.5c0.2,0,0.4-0.1,0.6-0.1
				c1.3-0.2,1.8-3.7,1.1-4.1c-0.7-0.3-9.9-1-17.5-1c0.4-2.5,0.7-5.1,0.9-7.6c2.8-0.2,6.1-0.5,7.2-0.6c0.6,0,0.8-0.3,0.8-0.6
				c0.2,0,0.4,0,0.6,0c0.7-0.1,0.6-1,0.6-1s0.4,0,0.6-0.1c1.3-0.1,2-4.3,1.4-4.6c-0.6-0.3-6.6-0.8-10.9-1.1
				C606.4,668.3,606.4,668.8,606.8,663z M602.3,656.2C602.2,656.2,602.2,656.2,602.3,656.2c-0.1-0.1-0.1-0.2-0.1-0.3
				C602.2,656.1,602.2,656.1,602.3,656.2z"/>
			<path class="st2" d="M543.2,689.2c-0.1-10.4-0.1-20.8-0.1-31.3c0-1.3-2.9-1-3.9-1c-0.1-0.2-0.2-0.3-0.3-0.4
				c-0.1-1-0.8-1.1-1.8-0.9c-0.3-0.3-0.6-0.3-1.1-0.1c-0.4-0.3-0.9-0.3-0.9,0.3c0,0.1,0,0.3,0,0.4c-0.1,0-0.1,0-0.2,0
				c-0.5-0.4-0.5-0.1-0.5,0.3c-0.3-0.1-0.6-0.2-0.6-0.2c0,0.2,0,0.5,0,0.7c-0.1,0.1-0.1,0.2-0.1,0.3c-0.1-0.1-0.2-0.1-0.2-0.2
				c0,1.4,0,0.3,0,1.5c-0.2,0-0.4,0.1-0.4,0.2c0,7.1,0,14.1,0.1,21.2c-5.5-6.6-8.9-11.1-12.5-18.9c-0.8-0.6-1.3-0.5-2.3-0.6
				c0.1-3.4,0.9-3.5-4.8-3.8c-0.1-0.7-0.5-1.1-1.3-1c-0.3-0.4-1-0.2-1.2,0.1c-0.5-0.5-0.4-0.3-0.4,0.4c-0.1,0-0.1,0-0.2,0.1
				c-0.4-0.6-0.3-0.2-0.4,0.5c0,0-0.1,0.1-0.1,0.1c-0.4,0.1-0.6,0.5-0.6,0.9c0,0,0,0.1-0.1,0.1c-0.4,0.2-0.4,0.2-0.4,0.9
				c-0.2,0-0.4,0.1-0.4,0.1c-0.2,3.8-0.9,31.3-0.1,31.8c0,0.9-0.1,1.2,0.7,1.3c0,1.2,0.6,1.6,1.3,1.5c0.2,0.2,0.4,0.3,0.6,0.3
				c0.6,0.9,0.7,1.2,1.6,2c0.7,0.4,1.2,0.1,1.3-0.5c1.7,1.1,1.6,0.2,1.6-0.8c1.3,0.3,1-0.6,1-2.3c1.8,0.2,1.5-0.3,1.4-2.2
				c0.2-0.1,0.3-0.3,0.3-0.6c-0.1-4.5-0.2-8.9-0.2-13.4c4,5.6,8.7,10.8,13.1,16c0.2,0.2,0.5,0.1,0.9,0c0.1,0.1,0.2,0.1,0.3,0.2
				c0.9,1,2,2.6,2.7,1.5c0.5,0.5,1.4,1,1.9,0.6c0.2,0,0.5-0.1,0.7-0.2c0.9,0.7,2,1.1,2.1,0c2.1,1,1.8-0.2,1.8-1.9
				c1.7,0.1,1.4-0.5,1.4-2.4C543.1,689.6,543.2,689.4,543.2,689.2z"/>
			<path class="st2" d="M440.9,657c-1.2-0.6-2.4-1.1-3.6-1.5c-3.6-1.2-6.6-1.1-8.8-1.1c-2.3-0.1-4.6,0-7,0.2c-0.4,0-0.5,0.2-0.5,0.4
				c-0.1,0.1-0.1,0.2-0.1,0.3c-0.4,0-0.7,0-0.5,0.3c-0.1,0-0.1,0-0.1,0c-0.8,0.1-0.6,0,0,0.2c0,0.2,0,0.4,0,0.6
				c-0.1,0.1-0.1,0.2-0.2,0.3c-1.1,0.1-0.9,0,0,0.1c0,0.1-0.1,0.3-0.1,0.4c-0.1,0.1-0.2,0.2-0.3,0.4c-0.2,0-0.3,0.1-0.3,0.3
				c-0.3,0-0.2,0,0,0.1c0,0,0,0.1,0,0.1c-0.2,0-0.4,0-0.4,0c-0.1,6-0.2,26.9,0,27.9c0,1.2-0.2,1.4,0.8,1.6c0,0.9,0.2,1.5,1.2,1.3
				c0.1,0,0.2,0,0.2,0c0.6,0.9,1.3,1.8,2.1,1.1c0.8,0.6,1.8,0.8,1.8-0.2c2.1,1,1.7-0.4,1.8-1.9c0.9,0,1.6-0.1,1.6-0.5
				c0-0.6,0-1.2,0-1.8c0.1-0.1,0.2-0.3,0.2-0.5c-0.2-17.7,0.2-16.4-0.2-22.4c3.6,0,7.2,0.6,10.4,2.3c1.7,1.4,2.7,2.5,3,5
				c0.5,1.2,0.7,2.3,0.2,4.9c-3,9.2-11.5,12.5-12.1,13.5c-1.4,0.9-1.9,1-0.7,1.3c0,0.1,0.1,0.2,0.1,0.2c0,0,0,0,0,0
				c-0.9,0.5-1.4,0.8-0.4,0.6c0,0,0,0,0,0c-0.1,0.1-0.1,0.1,0,0.1c0,0.1-0.1,0.2-0.1,0.2c-0.2,0.1-0.4,0.2-0.6,0.3
				c0,0,0.3,0.3,0.7,0.6c0,0,0,0.1,0,0.1c-0.2,0.1-0.4,0.3-0.6,0.4c-0.2,0.1,0.7,0.5,1.3,0.6c0,0,0,0,0,0c-0.1,0.1-0.2,0.1-0.3,0.2
				c-0.3,0.2-0.1,0.8,0.2,1c0.2,0.1,0.7,0.1,1-0.1c0.4,0.8,1.2,1.4,1.9,1c0.9,0.6,1,0.4,1.8-0.1c0.4,0.2,0.8,0.2,1,0.1
				c4.7-2.8,9.3-5.9,12.4-10.3C455.5,675.5,454.9,661,440.9,657z"/>
		</g>
		<g>
			<path class="st2" d="M500.9,754.9c0.1-1.3-2.9-1.2-3.5-1.3c-0.2,0-0.8-0.1-1.5-0.1c-0.1-0.7-0.7-1-1.3-1
				c-0.3-0.4-0.9-0.2-1.1,0.2c-0.6-0.5-0.5-0.3-0.6,0.4c-0.1,0-0.1,0.1-0.2,0.1c-0.4-0.4-0.3-0.4-0.4,0.6c-0.2,0.1-0.4,0.4-0.4,0.7
				c-0.4,0-0.7-0.1-0.7-0.1c0,0.4-0.1,0.8-0.1,1.1c-0.4,0-2.7,30.7-2,31.3c0,1-0.2,1.2,0.8,1.3c0,0.9,0.2,1.6,1.2,1.4
				c0.1,0,0.1,0.1,0.3,0.1c0.6,1,1.6,2.2,2.4,1.3c0.9,0.7,2.1,1.3,2.1,0.2c0-0.1,0-0.2,0-0.4c1.6,0.6,1.3-0.5,1.3-2.2
				c1.7,0.2,1.4-0.4,1.4-2.4c0.1-0.1,0.2-0.3,0.2-0.5C499.1,775.3,500.2,765.1,500.9,754.9z"/>
			<path class="st2" d="M600.9,771.6c-0.3-0.5-0.8-0.7-1.4-0.8c-0.9-0.2-2-0.2-3-0.2c-0.2-0.9-0.9-1.3-1.4-1.4
				c-0.2,0-0.4,0.1-0.6,0.1c-0.1,0-0.1,0-0.2,0c-2.8-1.5-10.9,1.9-9.9,1.6c-0.3,0.1-0.3,0.3-0.2,0.6c-0.4,0.2-0.6,0.3-0.5,0.2
				c-0.1,0-0.1,0.1-0.1,0.2c-0.2,0.1-0.4,0.1-0.6,0.2c0.3-0.1,0.6,0.1,0.9,0.2c0,0,0,0,0,0c-0.2,0-0.3,0-0.1,0.5c0,0,0,0,0,0.1
				c-0.3,0.1-0.7,0.2-1,0.3c0.2,0,0.5,0,0.9,0c-0.1,0.2-0.1,0.5-0.1,0.7c-1.1,0.4-1,0.2-0.4,0.4c0,0,0,0,0,0c0.1,0,0.3,0.1,0.4,0.2
				c0,0,0,0,0,0c-0.2,0.1-0.3,0.2-0.3,0.4c-0.8,0.3-0.7,0.2,0.1,0.3c0.1,0.2,0.4,0.2,0.6,0.2c0,0,0,0,0,0c0,0.1-0.1,0.1-0.1,0.2
				c-0.4,0.1-0.5,0.2,0,0.1c0,0,0,0.1,0,0.1c-0.4,0.1-0.5,0.2,0,0.1c0,0,0,0,0,0.1c-0.7,0.4-0.4,1.1,0.7,0.9c0.1,0,0.1,0,0.2,0
				c0.3,0.7,1,1.3,1.6,1.2c0.2-0.1,0.4-0.1,0.5-0.2c0.9,0.5,0.8,0.3,4.7-0.3c0.3,0.8,0.6,1.6,0.9,2.5c-0.2,0.1-0.3,0.1-0.5,0.2
				c-0.3-0.2-0.8-0.3-1.2,0c-2,1.7-4.5,3.1-7.1,3.7c-0.9-0.1-1.7-0.2-2.5-0.5c-4.2-4.4-5.9-9-5.8-13.4c0.3-1.4,0.7-2.7,1.6-4.4
				c3.7-4.8,13.9-7.9,15-9c1.1-0.4,2.2-0.5,1.1-2c0.7-0.2,1.3-0.4,2-0.6c0.9-0.6-0.1-1.6-1.2-1.9c-0.1,0-0.2-0.1-0.3-0.1
				c0.6-0.3,0.5-1.1-0.1-1.5c-0.6-0.4-1.8-0.5-2.8-0.4c0-0.5-0.5-1-1.2-0.9c-0.4-0.5-0.6-0.3-1.3-0.1c-0.1-0.1-0.3-0.2-0.4-0.1
				c-5,1.4-9.9,3.2-13.8,6.4c-8.6,6-11.4,18-4.8,27.7c5,9.1,15.7,11.6,24.7,5.7c0,0,0.1,0,0.1,0c-0.1,0.2-0.2,0.5-0.2,0.7
				c0.1,0.7,0.8,0.8,1.4,0.6c0,0,0.1,0,0.1,0c0.5,1,1.1,1.7,2,1.1c1,0.7,1.6,0.4,1.7-0.3c1.9,0.8,1.6-0.4,1.6-1.8
				c2.5,0.5,2-0.2,1.9-2.2C602.7,786.4,601.9,773.3,600.9,771.6z"/>
			<path class="st2" d="M551.3,785.4c-0.1-10.4-0.1-20.8-0.1-31.3c0-1.3-2.9-1-3.9-1c-0.1-0.2-0.2-0.3-0.3-0.4
				c-0.1-1-0.8-1.1-1.8-0.9c-0.3-0.3-0.6-0.3-1.1-0.1c-0.4-0.3-0.9-0.3-0.9,0.3c0,0.1,0,0.3,0,0.4c-0.1,0-0.1,0-0.2,0
				c-0.5-0.4-0.5-0.1-0.5,0.3c-0.3-0.1-0.6-0.2-0.6-0.2c0,0.2,0,0.5,0,0.7c-0.1,0.1-0.1,0.2-0.1,0.3c-0.1-0.1-0.2-0.1-0.2-0.2
				c0,1.4,0,0.3,0,1.5c-0.2,0-0.4,0.1-0.4,0.2c0,7.1,0,14.1,0.1,21.2c-5.5-6.6-8.9-11.1-12.5-18.9c-0.8-0.6-1.3-0.5-2.3-0.6
				c0.1-3.4,0.9-3.5-4.8-3.8c-0.1-0.7-0.5-1.1-1.3-1c-0.3-0.4-1-0.2-1.2,0.1c-0.5-0.5-0.4-0.3-0.4,0.4c-0.1,0-0.1,0-0.2,0.1
				c-0.4-0.6-0.3-0.2-0.4,0.5c0,0-0.1,0.1-0.1,0.1c-0.4,0.1-0.6,0.5-0.6,0.9c0,0,0,0.1-0.1,0.1c-0.4,0.2-0.4,0.2-0.4,0.9
				c-0.2,0-0.4,0.1-0.4,0.1c-0.2,3.8-0.9,31.3-0.1,31.8c0,0.9-0.1,1.2,0.7,1.3c0,1.2,0.6,1.6,1.3,1.5c0.2,0.2,0.4,0.3,0.6,0.3
				c0.6,0.9,0.7,1.2,1.6,2c0.7,0.4,1.2,0.1,1.3-0.5c1.7,1.1,1.6,0.2,1.6-0.8c1.3,0.3,1-0.6,1-2.3c1.8,0.2,1.5-0.3,1.4-2.2
				c0.2-0.1,0.3-0.3,0.3-0.6c-0.1-4.5-0.2-8.9-0.2-13.4c4,5.6,8.7,10.8,13.1,16c0.2,0.2,0.5,0.1,0.9,0c0.1,0.1,0.2,0.1,0.3,0.2
				c0.9,1,2,2.6,2.7,1.5c0.5,0.5,1.4,1,1.9,0.6c0.2,0,0.5-0.1,0.7-0.2c0.9,0.7,2,1.1,2.1,0c2.1,1,1.8-0.2,1.8-1.9
				c1.7,0.1,1.4-0.5,1.4-2.4C551.2,785.9,551.3,785.7,551.3,785.4z"/>
			<path class="st2" d="M471.2,769.7c-0.1-0.6-1.3-0.7-1.9-0.7c-0.6-0.4-0.4-0.2-2.2-1c-0.3-0.7-0.9-0.5-1.6-0.5
				c-1.9-0.4-8.3-0.3-12.4-1.4c0,0,0,0-0.1-0.1c-0.2-0.5-0.3-1-0.5-1.5c0.2-0.7,0.4-1.2,1.2-2c4.4-2.3,10.2-2.8,15-3.5
				c0.3-0.1,0.5-0.2,0.6-0.4c0.9-0.1,1.2-0.7,1-1.3c0.4,0,0.7-0.1,1.1-0.1c0.8-0.1,1-1.2,0.1-1.7c0.2-0.1,0.3-0.3,0.3-0.5
				c0.3-1.3-1.5-1.1-2.8-1.1c0-0.5-0.3-1.2-0.8-1.2c-0.2,0-0.5-0.1-0.7-0.1c-0.5-0.3-2.8-0.3-3.5-0.2c-0.2-0.9-1.5-1-2.4-0.9
				c-0.1-0.4-0.4-1.1-0.8-1c-0.2,0-0.3,0.1-0.5,0.1c-0.2-0.2-0.3-0.3-0.4-0.2c-0.3,0-0.6,0.1-0.9,0.1c-0.4-0.2-5.1,0.5-8.3,2.4
				c-2,1.2-7.9,5.5-8.5,10c-0.4,1.1-0.6,2.2-0.5,3.3c-0.2,1.6,0.2,2.9,1.2,4c0.7,1.7,2.1,2.6,3.7,3.1c1.6,1.2,3.1,1.4,4.7,1.5
				c2,0.3,8,0.2,10,0.2c0.4,0.2,1,0.3,1.4,0.3c0.6,0.3,2,0.2,2.5,0.3c0.1,0.1,0.2,0.1,0.2,0.2c0.2,0.6,0.6,1.4,0.7,2
				c-1.8,6-6.9,4.9-7.9,5.2c-0.1,0-0.9,0-0.9,0c-6.1-1.3-5.3-3.4-7.6-2c-0.5-0.3-1-0.2-1.5,0.1c-0.8-0.4-1.5,0.2-1.6,1
				c-0.4,0-0.8,0-0.9,0.1c-0.2,0.2-0.4,0.5,0,0.6c0.1,0.1,0.2,0.1,0.3,0.2c0,0.1,0,0.2,0.1,0.4c-1.2,0.5-0.8,0.5-0.5,0.7
				c0,0.1-0.1,0.1,0,0.3c0,0,0,0.1,0,0.1c-0.4-0.3-0.6-0.2,0,0.3c0,0,0,0,0,0c0,0.2,0.1,0.3,0.2,0.4c-0.1,0.1-0.1,0.3,0,0.4
				c-1.2,0-0.5,0.3,0.6,0.8c-1,0.8,0.3,1.2,1.7,1.8c1.6,1.3,8.9,3.9,14.8,2.3c3.5-0.6,4.5-1.7,5.5-2.1c1-0.4,1.9-0.9,2.7-1.6
				C478.1,783.5,478.1,772,471.2,769.7z"/>
		</g>
		<g>
			<path class="st2" d="M548.7,852.2c-2.7-2-10.4-3.4-17.3,2.8c-9,6.2-6.6,18.8-6.8,17.2c0.6,6.7,1.3,13.4,2.1,20.1
				c0,0.1,0.3,0.1,0.6,0.1c0.1,1.2,0,1.5,1,1.4c0.1,0.1,0.3,0.1,0.4,0.1c0.4,0.9,0.9,1.3,1.7,0.8c0.7,0.3,1.3,0.4,1.6-0.3
				c1.3,0.3,1.2-0.4,1.2-1.4c1.6,0.2,3,0.1,3-0.4c-0.7-6.4-0.6-6-0.9-10c4.4-0.1,8.8-0.4,13.2-0.8c0.3,9.8,0,9.2,1.1,9.6
				c0,0.1,0,0.2,0,0.3c0,0.9,0.8,1.1,1.4,0.9c0.2,0.1,0.1,0,0.2,0.1c0.8,1.7,1.7,1.7,2.2,1.2c0.7,0.5,1.6,0.7,1.7-0.1
				c0-0.1,0-0.2,0-0.3c1.6,0.6,1.4-0.4,1.4-1.9c1.1,0.1,2,0,2-0.4C557.8,860.9,558.4,853.8,548.7,852.2z M536,863.9
				c4.2-3.8,4.8-3.2,10.3-3.5c0.2,0,0.3,0.1,0.5,0.2c1.1,3.1,1.5,9.3,1.6,12.6c-4.5,0.8-9,1.6-13.5,2.3
				C534.5,870.5,533.9,865.8,536,863.9z"/>
			<path class="st2" d="M431.2,885.2c0.3-0.1,0.5-0.2,0.8-0.3c1-0.4,0.9-1.3-0.1-1.6c-1.6-0.2-2.5-0.1-3.5,0c0-0.1-0.1-0.2-0.1-0.2
				c0.1-0.2,0.1-0.5,0-0.8c-0.3-0.7-1-0.6-1.6-0.3c-0.4-0.3-0.7-0.3-1.1-0.1c-0.3-0.2-0.6-0.2-0.8-0.1c-2.4,1.1-5,1.6-7.6,1.6
				c-0.1,0-0.2,0-0.2,0c0,0-0.1,0-0.1,0c-0.4,0-0.7-0.1-1-0.2c-1.7-1.1-3.7-3.1-4.2-5.4c-1.7-3-2.1-7.1-0.2-11.4
				c0.5-0.7,1-1.3,2.1-2.1c1.2-0.8,2.6-1.4,4-1.9c9.8-2.8,12.6,0.1,11.5-2.5c0.2,0,0.5,0,0.7,0c1.6,0.1-0.4-2.1-0.5-2.2
				c0,0-0.1-0.1-0.2-0.2c0.6,0,1.2,0,1.8,0c1.1,0,1.2-0.9,0.5-1.5c-0.2-0.1-0.5-0.2-0.8-0.4c0.7-0.1,1.3-0.3,1.4-0.9
				c0.1-1.3-2.8-1.2-3.4-1.2c-0.4,0-0.8,0-1.2,0c0.1-0.7-0.4-1.1-1-1.1c-0.2,0-0.4,0-0.6,0c-0.1-0.1-0.2-0.1-0.4-0.2
				c-0.4,0-0.9,0-1.3,0c-6-0.3-12.6,0.6-17.1,4.9c-7.6,5.6-8.8,19.4-3.6,26c1.3,2.2,3.1,4,5.4,5.1c1.5,1.1,3.2,2,5,2.4
				c0.6,0.1,1.2,0.2,1.8,0.3c3.8,0.9,7.9,0.7,11.6-0.6c1.1-0.3,2.2-0.7,3.3-1.2c1-0.4,0.3-1.2-0.2-1.7c0.7-0.2,1.3-0.5,1.9-0.8
				C433.1,886.3,432.1,885.5,431.2,885.2z"/>
			<path class="st2" d="M497.8,861.3c4.1-0.5,17.3-3.1,17.3-3.1s1.2-4.1,0.7-4.5c-0.8-0.5-2.1-0.5-3.2-0.5c0-0.5-0.4-1-0.9-1
				c-0.2,0-0.3,0-0.5,0c-0.3-0.3-0.6-0.2-1.1-0.2c-0.2-0.1-16.5,1.3-16.8,1.3c0.1,0,0.2,0.2,0.3,0.4c-0.3,0-0.5,0-0.8,0.1
				c-0.3-0.4-0.8-0.5-1.1-0.2c-0.2-0.3-0.6-0.4-0.6,0c0,0.2,0,0.4,0,0.6c0,0,0,0,0,0c-0.1-0.4-0.5-0.5-0.6,0.2c0,0,0,0,0,0
				c0,0,0,0,0,0c-0.1-0.3-0.3-0.5-0.3-0.8c0,0.3,0,0.7-0.1,1c-0.2,0.2-0.4,0.6-0.4,0.9c0,0-0.1,0.1-0.1,0.1
				c-0.8,0.1-0.7,0.2-0.8,0.7c-0.2,0-0.4,0-0.4-0.1c-0.7,10-1.4,20-2.4,30c0,0.1,0.1,0.1,0.1,0.2c-0.1,0.9-0.2,1.1,0.7,1.3
				c0,0.2,0,0.2,0,0.3c-0.1,0.1,0,0.1,0,0.2c0.1,0.4,0.3,0.7,0.6,0.9c0,1,0.5,0.8,1.4,0.8c0.4,0.8,0.8,1.6,1.7,1.6
				c0.2,0.1,0.5,0.1,0.6,0c0.4,0.4,0.8,0.6,1.1,0.6c6.7-0.2,19.4-1.3,19.4-1.3s0.3-1,0.2-1.5c0.2,0,0.4-0.1,0.6-0.1
				c1.3-0.2,1.8-3.7,1.1-4.1c-0.7-0.3-9.9-1-17.5-1c0.4-2.5,0.7-5.1,0.9-7.6c2.8-0.2,6.1-0.5,7.2-0.6c0.6,0,0.8-0.3,0.8-0.6
				c0.2,0,0.4,0,0.6,0c0.7-0.1,0.6-1,0.6-1s0.4,0,0.6-0.1c1.3-0.1,2-4.3,1.4-4.6c-0.6-0.3-6.6-0.8-10.9-1.1
				C497.5,866.5,497.5,867,497.8,861.3z M493.3,854.5C493.3,854.5,493.2,854.5,493.3,854.5c-0.1-0.1-0.1-0.2-0.1-0.3
				C493.2,854.3,493.2,854.4,493.3,854.5z"/>
			<path class="st2" d="M625.8,861.3c4.1-0.5,17.3-3.1,17.3-3.1s1.2-4.1,0.7-4.5c-0.8-0.5-2.1-0.5-3.2-0.5c0-0.5-0.4-1-0.9-1
				c-0.2,0-0.3,0-0.5,0c-0.3-0.3-0.6-0.2-1.1-0.2c-0.2-0.1-16.5,1.3-16.8,1.3c0.1,0,0.2,0.2,0.3,0.4c-0.3,0-0.5,0-0.8,0.1
				c-0.3-0.4-0.8-0.5-1.1-0.2c-0.2-0.3-0.6-0.4-0.6,0c0,0.2,0,0.4,0,0.6c0,0,0,0,0,0c-0.1-0.4-0.5-0.5-0.6,0.2c0,0,0,0,0,0
				c0,0,0,0,0,0c-0.1-0.3-0.3-0.5-0.3-0.8c0,0.3,0,0.7-0.1,1c-0.2,0.2-0.4,0.6-0.4,0.9c0,0-0.1,0.1-0.1,0.1
				c-0.8,0.1-0.7,0.2-0.8,0.7c-0.2,0-0.4,0-0.4-0.1c-0.7,10-1.4,20-2.4,30c0,0.1,0.1,0.1,0.1,0.2c-0.1,0.9-0.2,1.1,0.7,1.3
				c0,0.2,0,0.2,0,0.3c-0.1,0.1,0,0.1,0,0.2c0.1,0.4,0.3,0.7,0.6,0.9c0,1,0.5,0.8,1.4,0.8c0.4,0.8,0.8,1.6,1.7,1.6
				c0.2,0.1,0.5,0.1,0.6,0c0.4,0.4,0.8,0.6,1.1,0.6c6.7-0.2,19.4-1.3,19.4-1.3s0.3-1,0.2-1.5c0.2,0,0.4-0.1,0.6-0.1
				c1.3-0.2,1.8-3.7,1.1-4.1c-0.7-0.3-9.9-1-17.5-1c0.4-2.5,0.7-5.1,0.9-7.6c2.8-0.2,6.1-0.5,7.2-0.6c0.6,0,0.8-0.3,0.8-0.6
				c0.2,0,0.4,0,0.6,0c0.7-0.1,0.6-1,0.6-1s0.4,0,0.6-0.1c1.3-0.1,2-4.3,1.4-4.6c-0.6-0.3-6.6-0.8-10.9-1.1
				C625.4,866.5,625.4,867,625.8,861.3z M621.2,854.5C621.2,854.5,621.2,854.5,621.2,854.5c-0.1-0.1-0.1-0.2-0.1-0.3
				C621.1,854.3,621.2,854.4,621.2,854.5z"/>
			<path class="st2" d="M475,889.4c-0.5-6.7-3.1-12.9-9-16.2c1.2-1.1,2.3-2.3,3-3.8c2.3-2.7,3.3-6.1,1.6-9.3
				c-0.4-3.6-3.5-5.6-7.2-6.4c-2.1-1.4-5.2-1.9-7.3-1.9c-3-0.3-5.9,0.7-8.6,1.9c-0.2-0.6-0.7-0.6-1.3-0.5c-0.3-0.4-0.9-0.2-1.2,0.1
				c-0.6-0.5-0.5-0.2-0.5,0.5c-0.1,0-0.1,0-0.2,0.1c-0.5-0.6-0.4-0.2-0.4,0.6c0,0,0,0,0,0c-0.3,0.1-0.5,0.4-0.6,0.9
				c-0.7,0.2-0.5,0.2-0.5,0.9c-0.2,0-0.4,0-0.4,0.1c0,0.4,1.3,33.1,1.5,33.5c0.1,1.1-0.1,1.2,0.8,1.3c0,0.2,0,0.3,0,0.5
				c0,0.7,0.7,0.9,1.2,0.8c0.1,0,0.1,0,0.2,0c0.6,0.9,1.4,1.8,2.2,1.1c0.9,0.7,2.1,1.1,2.1-0.1c2.1,0.9,1.7-0.4,1.6-2.1
				c1.8,0,1.5-0.3,1.4-2.2c0.2-0.2,0.3-0.3,0.3-0.6c-0.2-3.4-0.3-6.8-0.4-10.1c0.3,0.1,0.6,0,0.9-0.1c0.2,0,0.3,0,0.5,0.1
				c0.6,0.3,0.8,0.3,1.2,0.2c1.8,0.2,3.6,0.9,5.2,1.9c0.8,1,3.4,3.2,4,10.8c0,0.3,0.3,0.5,0.7,0.6c0.1,1,0.2,1.7,1.4,1.4
				c0.1,0.1,0.2,0.1,0.3,0.1c0.4,0.7,0.9,1.4,1.3,1.6c0.4,0.2,1,0.2,1.2-0.2c0.4,0.3,2.1,1.6,2.1,0.3c0-0.2,0-0.4,0-0.6
				c1.5,0.6,1.3-0.5,1-2.3c2,0.4,1.7-0.2,1.5-2C474.9,890,475.1,889.7,475,889.4z M457.2,860.9c1.3,0,3,0.1,4.3,0.5
				c0.3,0.4,0.2,1.3,0.2,1.8c-1,2.4-2.7,4-8.1,6.4c0,0-0.6,0-0.6,0c-0.1-2.7-0.2-5.4-0.3-8.1C455.2,861.4,455.8,861,457.2,860.9z"/>
			<path class="st2" d="M602.9,855.1c-0.8-0.1-1.6-0.2-2.4-0.2c-0.1-0.1-0.1-0.2-0.2-0.2c0.1-1.2-0.6-1-1.7-1
				c-0.1-0.1-0.2-0.1-0.3-0.1c-0.3,0-0.6,0-0.9,0c-0.5-0.2-28.5,0-29.1,0c-0.2,0-0.2,0.3,0,0.6c-0.6,0-0.8-0.1-0.7,0.3
				c-0.2,0-0.5,0-0.7,0c0.2,0,0.5,0.2,0.7,0.5c0,0,0,0,0,0c-0.3,0.1-0.5,0.5-0.6,0.9c-0.6,0.2-1.1,0.1,0,0.1c0,0.1,0,0.1,0,0.2
				c-0.2,0-0.3,0.1-0.4,0.2c-0.1,0.1-0.3,0.3,0.1,0.3c0,0,0.1,0,0.1,0c0,0,0,0,0,0.1c-0.2,0-0.4,0-0.5,0c-0.3,0-0.3,0.2,0,0.3
				c0.1,0.1,0.3,0.1,0.4,0.1c0,0.1,0,0.3,0.1,0.4c0,0,0,0-0.1,0c-0.3,0-0.6,0-0.5,0.4c0.1,0.2,0.4,0.2,0.8,0.3
				c0,0.1-0.1,0.1-0.1,0.2c-0.1,0.5,0.1,1.4,0.7,1.4c0.3,0,0.8,0.1,1,0.1c0.5,1,1.2,2.3,2,2.4c3.1,0.3,6.2,0.5,9.2,0.6
				c-0.4,8.2-1,16.4-1.7,24.6c0,0.1,0,0.2,0.1,0.3c-0.1,0.9-0.2,1.3,0.7,1.5c0,1.5,0.7,2,1.4,1.8c0.2,0.2,0.4,0.3,0.7,0.3
				c0.9,1.5,1.1,2.1,2,2.4c0.4,0.1,0.7-0.1,0.8-0.4c0-0.2,0-0.4,0-0.6c1.3,0.8,1.3,0,1.3-1c1.2,0.4,1-0.6,1.1-2.3
				c1.6,0.3,1.4-0.3,1.5-2.3c0.6-0.7,1.8-22.3,1.8-24c10.2,0.1,10.5,0.2,10.5-0.8c1,0,1.7,0,1.2-1.2c0.2,0,0.5,0,0.7,0
				c1.3,0,0.3-1.4-0.6-2.3c0.6,0,1.2,0,1.7,0c1.1,0,1.3-0.9,0.5-1.5c-0.3-0.2-0.6-0.3-0.8-0.4C606,856.8,604.7,855,602.9,855.1z"/>
		</g>
	</g>
</g>
</svg>
