<?xml version="1.0" encoding="utf-8"?>
<!-- Generator: Adobe Illustrator 21.0.0, SVG Export Plug-In . SVG Version: 6.00 Build 0)  -->
<svg version="1.1" xmlns="http://www.w3.org/2000/svg" xmlns:xlink="http://www.w3.org/1999/xlink" x="0px" y="0px"
	 viewBox="0 0 1044 1044" style="enable-background:new 0 0 1044 1044;" xml:space="preserve">
<style type="text/css">
	.st0{display:none;}
	.st1{display:inline;fill:#FFFFFF;}
	.st2{fill:#00AEEF;}
</style>
<g id="BG" class="st0">
	<rect class="st1" width="1044" height="1044"/>
</g>
<g id="TEXT">
	<g>
		<g>
			<path class="st2" d="M493.4,166.6c-0.1-1.3-0.2-2.7-0.3-4c-0.3-2.2-0.6-4.5-1.7-6.5c-1.5-2.7-4.1-3.7-6.8-4.2
				c-1-0.8-2.2-1.2-3.6-1.4c-0.6-0.1-1.2-0.2-1.8-0.2c-4.1-0.6-8.6,1.6-11.8,4.4c-2.1,1.4-3.8,3.4-5,5.7c-0.6,1.1-0.9,2.2-1.1,3.3
				c-0.2,0.5-0.3,0.9-0.5,1.4c-0.4,1.9-0.5,3.8-0.3,5.8c0,0.2,0,0.4,0.1,0.5c0,0.1,0,0.3,0,0.4c0.6,6.7,1.3,13.4,2.1,20.1
				c0,0.1,0.3,0.1,0.6,0.1c0,0.4,0.1,0.8,0.1,1.2c0,0.2,0.4,0.3,0.8,0.2c0.1,0.1,0.3,0.1,0.4,0.1c0.2,0.5,0.6,1,1,1
				c0.2,0,0.5,0,0.8-0.2c0.7,0.3,1.3,0.4,1.6-0.3c0.7,0.2,1.2,0,1.2-0.8c0-0.2,0-0.4,0-0.6c1.6,0.2,3,0.1,3-0.4c-0.2-2-0.4-4-0.6-6
				c-0.1-1.3-0.2-2.7-0.3-4c4.4-0.1,8.8-0.4,13.2-0.8c0.1,3,0.2,6,0.3,8.9c0,0.2,0.4,0.5,0.8,0.6c0,0.1,0,0.2,0,0.3
				c0,0.9,0.8,1.1,1.4,0.9c0.1,0,0.1,0,0.2,0.1c0,0,0,0,0,0c0.3,0.6,0.7,1.1,1,1.3c0.4,0.2,0.9,0.1,1.2-0.2c0,0,0.1,0,0.1,0.1
				c0.4,0.2,1.5,0.8,1.6-0.2c0-0.1,0-0.2,0-0.3c0.6,0.3,1.3,0.4,1.4-0.5c0-0.5,0-0.9,0-1.4c1.1,0.1,2,0,2-0.4
				C494.2,182.9,494.4,174.6,493.4,166.6z M470.3,169.9c-0.1-1.3,0-2.5,0.2-3.8c0.1-0.6,0.3-1.1,0.6-1.6c0.2-0.3,0.4-0.6,0.7-0.8
				c0,0,0,0,0,0c1.3-1.1,2.7-2.1,4.2-2.9c0.4-0.1,0.9-0.2,1.3-0.3c1.6-0.1,3.2-0.2,4.8-0.3c0.2,0,0.3,0.1,0.5,0.2
				c0.4,1.2,0.7,2.6,0.9,4c0.4,2.9,0.6,5.7,0.7,8.6c-4.5,0.8-9,1.6-13.5,2.3C470.5,173.3,470.4,171.6,470.3,169.9z"/>
			<path class="st2" d="M535.6,184.8C535.6,184.8,535.6,184.8,535.6,184.8c0.2-0.1,0.5-0.2,0.7-0.3c1-0.4,0.9-1.3-0.1-1.6
				c-1-0.1-1.9-0.1-2.9-0.1c-0.2,0-0.4,0-0.6,0c0-0.1-0.1-0.2-0.1-0.2c0.1-0.2,0.1-0.5,0-0.8c-0.3-0.7-1-0.6-1.6-0.3
				c-0.3-0.2-0.6-0.4-1-0.2c0,0-0.1,0-0.1,0c-0.3-0.2-0.6-0.2-0.8-0.1c-2.4,1.1-5,1.6-7.6,1.6c-0.1,0-0.2,0-0.2,0c0,0-0.1,0-0.1,0
				c-0.4,0-0.7-0.1-1-0.2c-0.9-0.6-1.8-1.4-2.5-2.2c-0.9-0.9-1.4-1.9-1.7-3.1c-0.9-1.6-1.4-3.4-1.4-5.2c0-0.9,0-1.8,0.1-2.7
				c0.1-0.7,0.3-1.4,0.6-2c0.2-0.5,0.3-1,0.6-1.5c0.2-0.3,0.4-0.6,0.7-0.8c0.5-0.4,0.9-0.8,1.5-1.2c1.2-0.8,2.6-1.4,4-1.9
				c1.7-0.5,3.6-0.9,5.4-1.2c1.8-0.2,3.7-0.2,5.6-0.1c0.9,0,0.8-0.6,0.6-1.2c0.2,0,0.5,0,0.7,0c1.6,0.1-0.4-2.1-0.5-2.2
				c0,0-0.1-0.1-0.2-0.2c0.6,0,1.2,0,1.8,0c1.1,0,1.2-0.9,0.5-1.5c-0.2-0.1-0.5-0.2-0.8-0.4c0.7-0.1,1.3-0.3,1.4-0.9
				c0.1-1.3-2.8-1.2-3.4-1.2c-0.4,0-0.8,0-1.2,0c0.1-0.7-0.4-1.1-1-1.1c-0.2,0-0.4,0-0.6,0c-0.1-0.1-0.2-0.1-0.4-0.2
				c-0.4,0-0.9,0-1.3,0c-6-0.3-12.6,0.6-17.1,4.9c-1.6,1.2-3,2.7-4,4.5c-0.8,1.4-1.3,2.8-1.7,4.3c-0.9,2.4-1.2,5.1-1,7.7
				c0.1,2.8,0.8,5.5,2,7.8c0.3,0.6,0.7,1.2,1.2,1.7c1.3,2.2,3.1,4,5.4,5.1c1.5,1.1,3.2,2,5,2.4c0.6,0.1,1.2,0.2,1.8,0.3
				c3.8,0.9,7.9,0.7,11.6-0.6c1.1-0.3,2.2-0.7,3.3-1.2c1-0.4,0.3-1.2-0.2-1.7c0.7-0.2,1.3-0.5,1.9-0.8
				C537.7,185.8,536,184.9,535.6,184.8z"/>
			<path class="st2" d="M583.5,154.5c-0.5-0.4-1-0.6-1.7-0.6c-0.8-0.1-1.6-0.2-2.4-0.2c-0.1-0.1-0.1-0.2-0.2-0.2c0-0.5-0.1-1-0.6-1
				c-0.4,0-0.8,0-1.1,0c-0.1-0.1-0.2-0.1-0.3-0.1c-0.3,0-0.6,0-0.9,0c-0.1,0-0.1-0.1-0.2-0.1c-9.6-0.1-19.2,0-28.8,0
				c-0.2,0-0.2,0.3,0,0.6c-0.2,0-0.4,0-0.6,0c-0.1,0-0.1,0.1-0.1,0.3c-0.2,0-0.5,0-0.7,0c0.2,0,0.5,0.2,0.7,0.5c0,0,0,0,0,0
				c-0.3,0.1-0.5,0.5-0.6,0.9c-0.2,0.1-0.4,0.1-0.6,0.1c0.2,0,0.4,0,0.6,0c0,0.1,0,0.1,0,0.2c-0.2,0-0.3,0.1-0.4,0.2
				c-0.1,0.1-0.3,0.3,0.1,0.3c0,0,0.1,0,0.1,0c0,0,0,0,0,0.1c-0.2,0-0.4,0-0.5,0c-0.3,0-0.3,0.2,0,0.3c0.1,0.1,0.3,0.1,0.4,0.1
				c0,0.1,0,0.3,0.1,0.4c0,0,0,0-0.1,0c-0.3,0-0.6,0-0.5,0.4c0.1,0.2,0.4,0.2,0.8,0.3c0,0.1-0.1,0.1-0.1,0.2
				c-0.1,0.5,0.1,1.4,0.7,1.4c0.3,0,0.6,0,0.9,0.1c0,0,0,0,0,0c0.5,1,1.2,2.3,2,2.4c3.1,0.3,6.2,0.5,9.2,0.6
				c-0.4,8.2-1,16.4-1.7,24.6c0,0.1,0,0.2,0.1,0.3c0,0.2,0,0.5-0.1,0.7c0,0.4,0.3,0.7,0.8,0.8c0,0.7,0.1,1.5,0.8,1.8
				c0.2,0.1,0.4,0.1,0.6,0c0.1,0.1,0.1,0.1,0.2,0.2c0.2,0.1,0.4,0.2,0.6,0.2c0.3,0.4,0.5,0.8,0.8,1.2c0.3,0.6,0.7,1,1.2,1.2
				c0.4,0.1,0.7-0.1,0.8-0.4c0-0.2,0-0.4,0-0.6c0.6,0.4,1.2,0.6,1.3-0.3c0-0.2,0-0.5,0-0.7c0.5,0.2,1,0.1,1-0.6
				c0-0.5,0.1-1.1,0.1-1.6c0.7,0.1,1.3,0.1,1.4-0.5c0.1-0.6,0.1-1.2,0.1-1.9c0.1-0.1,0.2-0.3,0.2-0.4c0.8-7.8,1.3-15.7,1.7-23.5
				c3.2,0,6.5,0,9.7,0c0.6,0,0.8-0.3,0.9-0.8c0.2,0,0.4,0,0.6,0c0.8,0,0.8-0.6,0.6-1.2c0.2,0,0.5,0,0.7,0c1.6,0-0.4-2.1-0.5-2.2
				c0,0-0.1-0.1-0.1-0.1c0.6,0,1.2,0,1.7,0c1.1,0,1.3-0.9,0.5-1.5c-0.3-0.2-0.6-0.3-0.8-0.4C582.8,155.8,584.2,155.5,583.5,154.5z"
				/>
		</g>
		<g>
			<path class="st2" d="M499.7,264.7c-0.1-1.3-0.2-2.7-0.3-4c-0.3-2.2-0.6-4.5-1.7-6.5c-1.5-2.7-4.1-3.7-6.8-4.2
				c-1-0.8-2.2-1.2-3.6-1.4c-0.6-0.1-1.2-0.2-1.8-0.2c-4.1-0.6-8.6,1.6-11.8,4.4c-2.1,1.4-3.8,3.4-5,5.7c-0.6,1.1-0.9,2.2-1.1,3.3
				c-0.2,0.5-0.3,0.9-0.5,1.4c-0.4,1.9-0.5,3.8-0.3,5.8c0,0.2,0,0.4,0.1,0.5c0,0.1,0,0.3,0,0.4c0.6,6.7,1.3,13.4,2.1,20.1
				c0,0.1,0.3,0.1,0.6,0.1c0,0.4,0.1,0.8,0.1,1.2c0,0.2,0.4,0.3,0.8,0.2c0.1,0.1,0.3,0.1,0.4,0.1c0.2,0.5,0.6,1,1,1
				c0.2,0,0.5,0,0.8-0.2c0.7,0.3,1.3,0.4,1.6-0.3c0.7,0.2,1.2,0,1.2-0.8c0-0.2,0-0.4,0-0.6c1.6,0.2,3,0.1,3-0.4c-0.2-2-0.4-4-0.6-6
				c-0.1-1.3-0.2-2.7-0.3-4c4.4-0.1,8.8-0.4,13.2-0.8c0.1,3,0.2,6,0.3,8.9c0,0.2,0.4,0.5,0.8,0.6c0,0.1,0,0.2,0,0.3
				c0,0.9,0.8,1.1,1.4,0.9c0.1,0,0.1,0,0.2,0.1c0,0,0,0,0,0c0.3,0.6,0.7,1.1,1,1.3c0.4,0.2,0.9,0.1,1.2-0.2c0,0,0.1,0,0.1,0.1
				c0.4,0.2,1.5,0.8,1.6-0.2c0-0.1,0-0.2,0-0.3c0.6,0.3,1.3,0.4,1.4-0.5c0-0.5,0-0.9,0-1.4c1.1,0.1,2,0,2-0.4
				C500.4,281,500.7,272.7,499.7,264.7z M476.6,268c-0.1-1.3,0-2.5,0.2-3.8c0.1-0.6,0.3-1.1,0.6-1.6c0.2-0.3,0.4-0.6,0.7-0.8
				c0,0,0,0,0,0c1.3-1.1,2.7-2.1,4.2-2.9c0.4-0.1,0.9-0.2,1.3-0.3c1.6-0.1,3.2-0.2,4.8-0.3c0.2,0,0.3,0.1,0.5,0.2
				c0.4,1.2,0.7,2.6,0.9,4c0.4,2.9,0.6,5.7,0.7,8.6c-4.5,0.8-9,1.6-13.5,2.3C476.8,271.4,476.7,269.7,476.6,268z"/>
			<path class="st2" d="M437.8,259.6c4.1-0.5,17.3-3.1,17.3-3.1s1.2-4.1,0.7-4.5c-0.8-0.5-2.1-0.5-3.2-0.5c0-0.5-0.4-1-0.9-1
				c-0.2,0-0.3,0-0.5,0c-0.1-0.1-0.3-0.2-0.5-0.2c-0.2,0-0.4,0-0.6,0.1c-0.1-0.1-0.2-0.1-0.2-0.1l-16.5,1.4c0.1,0,0.2,0.2,0.3,0.4
				c-0.3,0-0.5,0-0.8,0.1c-0.1-0.2-0.2-0.3-0.4-0.3c-0.3-0.1-0.5,0-0.7,0.1c0-0.1-0.1-0.1-0.1-0.1c-0.2-0.1-0.5-0.2-0.5,0.2
				c0,0.2,0,0.4,0,0.6c0,0,0,0,0,0c0-0.1-0.1-0.3-0.2-0.3c-0.4-0.1-0.4,0.2-0.4,0.5c0,0,0,0,0,0c0,0,0,0,0,0c0,0,0,0,0,0
				c-0.1-0.3-0.3-0.5-0.3-0.8c0,0.3,0,0.7-0.1,1c-0.2,0.2-0.4,0.6-0.4,0.9c0,0-0.1,0.1-0.1,0.1c-0.4,0-0.7,0.1-0.7,0.3
				c0,0.1,0,0.3,0,0.4c-0.2,0-0.4,0-0.4-0.1c-0.7,10-1.4,20-2.4,30c0,0.1,0.1,0.1,0.1,0.2c0,0.3,0,0.5-0.1,0.8
				c0,0.3,0.3,0.4,0.7,0.5c0,0,0,0,0,0.1c0,0.1,0,0.2,0,0.3c-0.1,0.1,0,0.1,0,0.2c0.1,0.4,0.3,0.7,0.6,0.9c0,0.1,0,0.1,0,0.2
				c0.1,0.7,0.5,0.7,1.1,0.6c0.1,0,0.2,0,0.3,0c0.4,0.7,0.9,1.6,1.5,1.6c0.1,0,0.1,0,0.2,0c0.2,0.1,0.5,0.1,0.6,0
				c0.4,0.4,0.8,0.6,1.1,0.6c6.7-0.2,19.4-1.3,19.4-1.3s0.3-1,0.2-1.5c0.2,0,0.4-0.1,0.6-0.1c1.3-0.2,1.8-3.7,1.1-4.1
				c-0.7-0.3-9.9-1-17.5-1c0.4-2.5,0.7-5.1,0.9-7.6c2.8-0.2,6.1-0.5,7.2-0.6c0.6,0,0.8-0.3,0.8-0.6c0.2,0,0.4,0,0.6,0
				c0.7-0.1,0.6-1,0.6-1s0.4,0,0.6-0.1c1.3-0.1,2-4.3,1.4-4.6c-0.6-0.3-6.6-0.8-10.9-1.1c0-0.6,0-1.2,0-1.8
				C437.5,263.3,437.7,261.5,437.8,259.6z M433.2,252.8C433.2,252.8,433.2,252.8,433.2,252.8c-0.1-0.1-0.1-0.2-0.1-0.3
				C433.1,252.6,433.2,252.7,433.2,252.8z"/>
			<path class="st2" d="M544.9,287c-0.3-0.4-0.7-0.8-1-1.2c0.5-0.2,0.9-0.6,0.4-1.1c-4.1-4.7-8.3-9.3-12.6-13.8
				c1.8-1.9,3.6-3.8,5.3-5.8c0.6-0.7,1.3-1.4,1.9-2c0.7-0.6,1.2-1.4,1.5-2.3c0,0,0,0,0,0c0.1-0.1,0.2-0.2,0.2-0.3
				c0.7-0.6,1.2-1.4,1.5-2.3c0.3-0.7-0.6-1.2-1.5-1.6c0-0.2,0-0.4,0-0.7c-0.1-0.9-1.9-1.5-3.3-1.5c-0.2-0.6-0.8-1.1-1.4-0.9
				c-0.2-0.2-0.5-0.3-0.6,0c0,0.1-0.1,0.2-0.2,0.4c-0.3-0.3-0.5-0.5-0.5-0.5c-0.1,0.3-0.2,0.5-0.4,0.8c-0.1-0.1-0.2-0.2-0.2-0.3
				c-0.2,0.5-0.4,0.9-0.7,1.3c-0.3-0.2-0.4-0.3-0.4-0.3c-0.1,0.2-0.2,0.5-0.3,0.7c0,0,0,0,0,0c-1.3,1.5-2.6,3-4,4.4
				c-0.5,0.6-1.1,1.1-1.6,1.7c-1.4,1.4-2.7,2.8-4.1,4.2c-0.1-1.8-0.1-3.6-0.2-5.5c0-1.8,0-3.7,0-5.5c0-0.3-0.1-0.5-0.3-0.8
				c0-0.5,0-1-0.1-1.5c-0.1-1.3-2.3-1.2-3.1-1.2c-0.2,0-0.7-0.1-1.2-0.1c-0.1-0.6-0.3-0.9-0.9-1c-0.1,0-0.2,0-0.3,0
				c-0.1-0.1-0.2-0.2-0.2-0.2c-0.3-0.1-0.7,0-0.9,0.3c-0.3-0.2-0.5-0.4-0.5-0.2c0,0.2,0,0.4,0,0.6c-0.1,0-0.2,0.1-0.2,0.1
				c-0.2-0.2-0.4-0.3-0.4-0.2c0,0.3,0,0.6,0,0.9c-0.2,0.1-0.3,0.3-0.3,0.5c-0.4-0.1-0.7-0.3-0.7-0.4c0,0.5,0,1,0,1.5
				c-0.2,0-0.4,0-0.4,0c-0.1,10.7-0.1,21.5,0,32.2c0,0,0,0.1,0.1,0.1c0,0.3,0,0.6,0,0.9c0,0.2,0.4,0.3,0.8,0.4c0,0.2,0,0.3,0,0.5
				c0,0.8,0.8,1,1.4,0.9c0,0,0,0,0.1,0c0.3,0.6,0.8,1.1,1.2,1.3c0.3,0.1,0.7,0,1-0.2c0,0,0,0,0,0c0.4,0.3,1.8,1.1,1.9-0.1l0,0
				c0.7,0.3,1.9,0.8,1.9-0.4c0-0.5,0-1,0-1.5c0.8,0.1,1.5,0,1.5-0.6c0-0.6,0-1.2,0-1.8c0.1-0.1,0.2-0.3,0.2-0.5c0-1.6,0-3.3,0-4.9
				c0,0,0.1-0.1,0.1-0.1c0.8-0.9,1.6-1.7,2.5-2.6c3.5,3.9,7,7.8,10.5,11.7c0.2,0.2,0.6,0.2,1,0.1c0,0,0.1,0.1,0.1,0.1
				c0.4,0.5,0.8,0.9,1.3,1.4c0.3,0.4,0.8,0.2,1.1-0.2c0.5,0.5,1.1,0.8,1.6,0.3c0.2-0.2,0.3-0.4,0.3-0.6c0.1,0,0.2,0.1,0.3,0.1
				c0.8,0.2,1.7-0.5,1-1.3c-0.4-0.4-0.7-0.8-1.1-1.2c0.3,0.1,0.6,0.1,0.9,0.2c0.6,0.3,1.2,0.3,1.8,0.1
				C544.9,287.6,545,287.3,544.9,287z"/>
			<path class="st2" d="M622.3,271.4c0.4-1.8,0.4-3.7-0.2-5.5c-0.8-2.7-2.6-4.3-4.6-6c-0.6-0.5-1.7-0.6-2.8-0.5
				c-0.2-0.2-0.4-0.4-0.6-0.6c0-0.2-0.2-0.4-0.5-0.5c-0.4-0.2-0.8-0.5-1.3-0.7c0.4-0.2,0.8-0.6,0.4-1.1c-0.4-0.7-1-1.3-1.7-1.7
				c-1.3-0.6-2.6-1-3.9-1.3c-0.9-0.6-1.8-1-2.9-1.2c-1-0.3-2.1-0.5-3.2-0.5c-0.4-0.1-0.7-0.1-1.1-0.1c-0.5-0.1-1.1-0.1-1.6-0.1
				c-1.6,0-3.2,0.2-4.7,0.7c-1.6,0.6-3.1,1.5-4.5,2.5c-0.7,0.4-1.4,0.9-2,1.5c-2.3,2.2-4,4.8-5,7.8c-0.4,1-0.7,2.1-0.9,3.2
				c-0.5,1.9-0.6,3.9-0.3,5.8c0,0.1,0,0.2,0.1,0.3c0,0.3,0,0.5,0.1,0.8c0.3,2.4,1.3,4.6,2.7,6.5c0.7,1.3,1.7,2.5,2.9,3.6
				c1.2,1.1,2.5,1.9,3.9,2.5c0.2,0.1,0.4,0.3,0.5,0.4c2.2,1.3,4.6,2.1,7.1,2.2c2.2,0.4,4.4,0.3,6.6,0c4.4-0.7,8.7-2.5,11.5-5.9
				c1.1-1.1,2-2.4,2.8-3.8c1.7-2.2,3-4.7,3.3-7.3C622.3,272,622.3,271.7,622.3,271.4z M599.4,260.7c2.9,0,5.7,0.8,8.5,1.5
				c0,0.2,0,0.3,0.1,0.4c0.2,0.2,0.5,0.4,0.7,0.6c0,0.6,0.1,1.3,0.3,1.5c1,0.8,1.9,1.6,2.7,2.6c0.3,0.9,0.6,1.8,0.9,2.7
				c0,0.1,0,0.1,0,0.2c0,0.5-0.1,1-0.2,1.5c-0.7,1.8-1.7,3.5-3,4.9c-0.5,0.6-1,1.1-1.6,1.6c-2,1.4-4.3,2.4-6.7,3.1
				c-0.7,0.2-1.4,0.3-2,0.4c-0.9-0.1-1.8-0.3-2.7-0.6c-1.2-0.9-2.2-1.8-3.1-3c-1.9-2.5-2.6-5.3-2.5-8.2c0.2-1.1,0.5-2.2,0.9-3.4
				c0.2-0.4,0.4-0.9,0.6-1.3c0.1-0.1,0.2-0.2,0.3-0.4c1.3-1.4,2.9-2.6,4.7-3.4c0.5-0.2,0.9-0.4,1.4-0.5
				C598.8,260.8,599.1,260.7,599.4,260.7z"/>
			<path class="st2" d="M414.3,256.9c-1-1.7-2.4-3.1-4.1-4.2c-1.5-0.9-3.2-1.5-4.9-1.9c-1.2-0.7-2.5-1.2-3.8-1.5
				c-0.6-0.1-1.1-0.2-1.7-0.3c-0.5-0.1-1.1-0.2-1.6-0.2c-2.8-0.4-5.5,0-8.1,1.1c-0.8-0.3-1.9-0.3-2.5-0.3c-0.2,0-0.7-0.1-1.3-0.1
				c-0.1-0.6-0.3-0.9-0.9-1c-0.1,0-0.2,0-0.4,0c-0.1-0.1-0.1-0.1-0.2-0.2c-0.2-0.1-0.8,0-0.9,0.3c-0.3-0.2-0.5-0.4-0.5-0.2
				c0,0.2,0,0.4,0,0.6c-0.1,0-0.2,0.1-0.3,0.2c-0.2-0.2-0.4-0.3-0.4-0.3c0,0.3,0,0.5,0.1,0.8c-0.3,0.1-0.4,0.3-0.5,0.7
				c-0.4-0.1-0.7-0.1-0.7-0.2c0,0.4,0.1,0.8,0.1,1.3c-0.2,0-0.4,0-0.4,0c0,0.3,0,0.6,0.1,0.9c0,0,0,0,0,0c0.3,5,0.6,10,0.8,15
				c0,0.8,0.1,1.6,0.1,2.4c0.3,6,0.4,12,0.3,18c0,0.1,0,0.1,0.1,0.2c0,0.3,0,0.6,0,0.9c0,0.3,0.4,0.4,0.8,0.5c0,0.1,0,0.1,0,0.2
				c0,0.6,0.1,1,0.7,1.2c0.1,0,0.3,0,0.5,0c0,0,0,0,0,0c0.1,0,0.2,0,0.3,0c0.4,0.6,0.9,1.3,1.3,1.4c0.4,0.2,0.8,0.1,1.1-0.2
				c0,0,0,0,0,0c0.3,0.3,2,1.4,2,0.1c0-0.1,0-0.2,0-0.3c0.7,0.3,1.4,0.4,1.4-0.6c0-0.5,0-1,0-1.5c0.8,0.1,1.4,0,1.4-0.6
				c0-0.6,0-1.2,0-1.8c0.1-0.1,0.2-0.3,0.2-0.5c0.1-2.1,0.1-4.2,0.1-6.3c4.2-0.4,8.6-0.7,12.2-2.6c1.9-0.8,3.6-2,5.1-3.6
				c1.1-0.9,2-2.1,2.8-3.4c0-0.1,0.1-0.1,0.1-0.2c0.2-0.2,0.4-0.4,0.5-0.6c1.4-1.7,2.2-3.7,2.3-5.7c0.2-0.7,0.4-1.4,0.4-2.1
				C416.2,260,415.3,258.7,414.3,256.9z M404.2,266.5c-0.3,0.3-0.6,0.6-0.9,0.9c-3.1,2.3-7.1,3.2-11,3.5c0-0.6,0-1.2-0.1-1.9
				c-0.1-3.1-0.2-6.1-0.5-9.2c0.7-0.3,1.4-0.6,2.2-0.9c1.6-0.2,3.2-0.5,4.8-0.7c1.6,0.2,3.1,0.6,4.7,1.1c0.2,0,0.3,0.1,0.4,0.1
				c0.4,0.4,0.8,0.8,1.2,1.3C404.8,262.6,404.5,264.6,404.2,266.5z"/>
			<path class="st2" d="M370.5,276.8c0-0.4-0.1-0.7-0.2-1c-0.1-1.1-0.4-2.1-1-3c-0.6-1.3-1.6-2.2-3-2.8c-0.3-0.1-0.6-0.2-0.9-0.3
				c-0.1-0.6-1.3-0.7-1.9-0.7c-0.3-0.2-0.5-0.3-0.8-0.4c-0.2-0.1-0.5-0.2-0.7-0.3c-0.2-0.1-0.4-0.2-0.7-0.3
				c-0.1-0.3-0.4-0.6-0.8-0.5c-0.3,0-0.5,0-0.8,0c-1.7-0.4-3.7-0.3-5.4-0.4c-1.1-0.1-2.2-0.2-3.4-0.3c-0.7-0.1-1.5-0.2-2.2-0.3
				c0,0,0,0,0,0c-0.1,0-0.3-0.1-0.4-0.1c-0.3-0.1-0.6-0.1-0.9-0.2c0,0,0,0-0.1-0.1c-0.2-0.5-0.3-1-0.5-1.5c0-0.1,0-0.1,0.1-0.2
				c0.2-0.7,0.6-1.3,1.2-1.8c0.8-0.4,1.7-0.8,2.6-1.1c0.9-0.3,1.8-0.5,2.5-0.7c3.3-0.8,6.6-1.2,10-1.7c0.3-0.1,0.5-0.2,0.6-0.4
				c0,0,0.1,0,0.1,0c0.6-0.1,1.1-0.6,0.9-1.3c0.4,0,0.7-0.1,1.1-0.1c0.9-0.1,0.9-1.1,0.4-1.6c-0.1-0.1-0.2-0.1-0.3-0.2
				c0.2-0.1,0.3-0.3,0.3-0.5c0.2-0.8-0.5-1.1-1.2-1.1c-0.5,0-1,0-1.6,0c0-0.5-0.3-1.2-0.8-1.2c-0.2,0-0.5-0.1-0.7-0.1
				c-0.1-0.1-0.2-0.1-0.4-0.1c-1.1-0.2-2.1-0.2-3.1-0.1c0-0.1-0.1-0.3-0.1-0.4c-0.4-0.5-1.6-0.6-2.3-0.5c-0.1-0.4-0.4-1.1-0.8-1
				c-0.2,0-0.3,0.1-0.5,0.1c-0.2-0.2-0.3-0.3-0.4-0.2c-0.3,0-0.6,0.1-0.9,0.1c-0.1,0-0.1-0.1-0.2,0c-2.9,0.3-5.5,0.9-8.1,2.4
				c-1.5,0.9-2.9,2-4.1,3.2c-1.2,1-2.2,2.1-3.1,3.5c-0.7,1-1.1,2.2-1.2,3.3c-0.4,1.1-0.6,2.2-0.5,3.3c-0.2,1.4,0.1,2.7,1,3.8
				c0.1,0.1,0.1,0.1,0.2,0.2c0.7,1.7,2.1,2.6,3.7,3.1c0.2,0.1,0.3,0.3,0.5,0.4c1.3,0.8,2.6,1.1,4.2,1.1c0,0,0,0,0,0
				c0.4,0.1,0.9,0.1,1.4,0.1c2.8,0.1,5.7,0.1,8.6,0.1c0.1,0.1,0.3,0.1,0.4,0.2c0.3,0.1,0.7,0.1,1,0.1c0,0,0.1,0,0.1,0
				c0.8,0.2,1.5,0.2,2.4,0.2c0,0,0,0,0.1,0c0.1,0.1,0.2,0.1,0.2,0.2c0.2,0.5,0.4,1,0.6,1.6c0,0.2,0,0.3,0.1,0.5
				c-0.3,1.1-0.9,2.1-1.6,2.9c-0.3,0.3-0.6,0.7-0.9,1c-0.4,0.3-0.8,0.5-1.3,0.7c-0.5,0.1-1,0.2-1.5,0.3c-0.6,0.1-1.2,0.2-1.8,0.2
				c-0.2,0-0.4,0-0.5,0c-0.1,0-0.2,0-0.3,0c-0.3,0-0.6,0-0.8,0c0,0-0.1,0-0.1,0c-2.1-0.4-4-1.3-6-2.4c-0.4-0.2-1,0-1.6,0.4
				c0,0,0,0-0.1,0c-0.4-0.2-1-0.1-1.5,0.2c0,0,0,0-0.1,0c-0.8-0.4-1.5,0.3-1.6,1.1c-0.4,0-0.8,0-0.9,0.1c-0.2,0.2-0.4,0.5,0,0.6
				c0.1,0.1,0.2,0.1,0.3,0.2c0,0.1,0,0.2,0.1,0.4c-0.5,0.2-0.9,0.5-0.8,0.6c0.1,0.1,0.2,0.1,0.3,0.1c0,0,0,0,0,0.1
				c0,0.1,0,0.2,0,0.2c0,0,0,0.1,0,0.1c-0.1,0-0.1-0.1-0.2-0.1c-0.2-0.1-0.3,0-0.1,0.1c0.1,0.1,0.2,0.2,0.3,0.3c0,0,0,0,0,0
				c0,0,0,0,0,0c0,0.2,0.1,0.3,0.2,0.4c-0.1,0.1-0.1,0.3,0,0.4c-0.5,0-0.8,0.1-0.5,0.2c0.3,0.2,0.7,0.4,1.1,0.5
				c-0.4,0.3-0.5,0.7,0,1c0.6,0.3,1.1,0.6,1.7,0.8c0.1,0.1,0.3,0.2,0.4,0.3c2.6,1.3,5.2,2.2,8,2.4c2.1,0.3,4.2,0.3,6.4-0.3
				c0,0,0,0,0.1,0c1.9-0.3,3.7-1,5.3-2c0.1,0,0.1,0,0.2-0.1c1-0.4,1.9-0.9,2.7-1.6C369.4,284.9,370.9,281.1,370.5,276.8z"/>
			<path class="st2" d="M707.8,253.6c-0.5-0.4-1-0.6-1.7-0.6c-0.8-0.1-1.6-0.2-2.4-0.2c-0.1-0.1-0.1-0.2-0.2-0.2c0-0.5-0.1-1-0.6-1
				c-0.4,0-0.8,0-1.1,0c-0.1-0.1-0.2-0.1-0.3-0.1c-0.3,0-0.6,0-0.9,0c-0.1,0-0.1-0.1-0.2-0.1c-9.6-0.1-19.2,0-28.8,0
				c-0.2,0-0.2,0.3,0,0.6c-0.2,0-0.4,0-0.6,0c-0.1,0-0.1,0.1-0.1,0.3c-0.2,0-0.5,0-0.7,0c0.2,0,0.5,0.2,0.7,0.5c0,0,0,0,0,0
				c-0.3,0.1-0.5,0.5-0.6,0.9c-0.2,0.1-0.4,0.1-0.6,0.1c0.2,0,0.4,0,0.6,0c0,0.1,0,0.1,0,0.2c-0.2,0-0.3,0.1-0.4,0.2
				c-0.1,0.1-0.3,0.3,0.1,0.3c0,0,0.1,0,0.1,0c0,0,0,0,0,0.1c-0.2,0-0.4,0-0.5,0c-0.3,0-0.3,0.2,0,0.3c0.1,0.1,0.3,0.1,0.4,0.1
				c0,0.1,0,0.3,0.1,0.4c0,0,0,0-0.1,0c-0.3,0-0.6,0-0.5,0.4c0.1,0.2,0.4,0.2,0.8,0.3c0,0.1-0.1,0.1-0.1,0.2
				c-0.1,0.5,0.1,1.4,0.7,1.4c0.3,0,0.6,0,0.9,0.1c0,0,0,0,0,0c0.5,1,1.2,2.3,2,2.4c3.1,0.3,6.2,0.5,9.2,0.6
				c-0.4,8.2-1,16.4-1.7,24.6c0,0.1,0,0.2,0.1,0.3c0,0.2,0,0.5-0.1,0.7c0,0.4,0.3,0.7,0.8,0.8c0,0.7,0.1,1.5,0.8,1.8
				c0.2,0.1,0.4,0.1,0.6,0c0.1,0.1,0.1,0.1,0.2,0.2c0.2,0.1,0.4,0.2,0.6,0.2c0.3,0.4,0.5,0.8,0.8,1.2c0.3,0.6,0.7,1,1.2,1.2
				c0.4,0.1,0.7-0.1,0.8-0.4c0-0.2,0-0.4,0-0.6c0.6,0.4,1.2,0.6,1.3-0.3c0-0.2,0-0.5,0-0.7c0.5,0.2,1,0.1,1-0.6
				c0-0.5,0.1-1.1,0.1-1.6c0.7,0.1,1.3,0.1,1.4-0.5c0.1-0.6,0.1-1.2,0.1-1.9c0.1-0.1,0.2-0.3,0.2-0.4c0.8-7.8,1.3-15.7,1.7-23.5
				c3.2,0,6.5,0,9.7,0c0.6,0,0.8-0.3,0.9-0.8c0.2,0,0.4,0,0.6,0c0.8,0,0.8-0.6,0.6-1.2c0.2,0,0.5,0,0.7,0c1.6,0-0.4-2.1-0.5-2.2
				c0,0-0.1-0.1-0.1-0.1c0.6,0,1.2,0,1.7,0c1.1,0,1.3-0.9,0.5-1.5c-0.3-0.2-0.6-0.3-0.8-0.4C707.1,254.9,708.5,254.7,707.8,253.6z"
				/>
			<path class="st2" d="M664.4,254.4c0.2-1.3-3.4-0.7-3.7-0.7c-0.1,0-0.3,0-0.5,0c0,0,0,0,0,0c0-0.2,0.1-0.4,0.1-0.7
				c0.1-1-0.8-1-1.7-0.6c-0.2-0.2-0.5-0.3-0.7-0.3c-0.1,0-0.3,0.1-0.5,0.2c-0.5-0.2-1.2-0.1-1.3,0.6c0,0.1,0,0.2,0,0.3
				c-0.1,0-0.2,0-0.3,0.1c-0.4,0-0.8,0.1-0.8,0.3c-0.1,0.5-0.1,0.9-0.2,1.4c0,0,0,0,0,0c0,0.1,0,0.3-0.1,0.4c-0.1,0-0.1,0-0.1,0
				c-1.1,7.5-2.3,14.9-3.5,22.4c-0.1,0.4-0.1,0.8-0.2,1.2c-0.1,0.3-0.2,0.6-0.3,0.9c-0.4,0.8-0.9,1.5-1.5,2.1
				c-1,0.8-2.2,1.4-3.7,1.7c-0.1,0-0.3,0-0.4,0.1c-0.5-0.1-1.1-0.1-1.6-0.3c-0.1-0.1-0.3-0.2-0.4-0.3c-1.4-1.1-2.7-2.4-3-4.2
				c-0.2-1-0.2-2.1-0.1-3.1c0-0.1,0-0.1,0-0.2c0.5-2.8,0.9-5.5,1.2-8.3c0.5-2.9,0.6-5.8,0.3-8.7c0-1-0.1-2.1-0.1-3.1
				c0-0.5-0.3-0.9-0.7-1.2c-0.1-0.3-0.1-0.5-0.2-0.8c-0.1-1.1-1.2-1.1-2-1.1c-0.3,0-0.5,0-0.8,0c-0.1-0.4-0.2-0.8-0.5-1
				c-0.2-0.1-0.7-0.1-1,0.2c-0.3-0.3-0.5-0.4-0.6-0.1c-0.1,0.3-0.1,0.6-0.1,0.9c0,0,0,0,0,0c-0.2-0.4-0.4-0.6-0.5-0.1
				c0,0.1,0,0.1,0,0.2c-0.3-0.2-0.5-0.4-0.5-0.6c-0.1,0.6-0.2,1.3-0.3,1.9c-0.4,0-0.6,0.1-0.7,0.2c-0.4,2.7-0.8,5.4-1.1,8.2
				c0,0,0,0,0,0c-0.1,0.7-0.2,1.4-0.3,2.1c-0.2,0-0.3,0-0.4,0.1c-0.4,2.8-0.7,5.6-1.1,8.4c-0.1,0.6-0.2,1.2-0.2,1.9
				c-0.1,0.5-0.1,1-0.2,1.5c-0.1,1.1-0.1,2.1,0,3.2c0,0.5,0.1,1.1,0.2,1.6c0.3,1.2,0.8,2.2,1.5,3.1c0,0.1,0,0.1,0.1,0.2
				c1.2,2.3,3.4,4,5.9,4.9c1.6,1.1,3.5,1.8,5.6,2c0.1,0,0.1,0,0.2,0c1.9,0.5,3.9,0.5,5.8,0c2.9-0.2,5.8-1.5,7.7-3.9
				c0.3-0.4,0.5-0.8,0.8-1.2c0.3-0.3,0.6-0.6,0.9-1c1.2-1.6,1.8-3.3,2.1-5.2c1.3-7.7,2.5-15.5,3.7-23.2c0-0.2,0-0.3-0.1-0.5
				C664.2,255.7,664.3,255,664.4,254.4z"/>
		</g>
		<g>
			<path class="st2" d="M584.1,383.7C584.1,383.7,584,383.7,584.1,383.7c0.2-0.1,0.5-0.2,0.7-0.3c1-0.4,0.9-1.3-0.1-1.6
				c-1-0.1-1.9-0.1-2.9-0.1c-0.2,0-0.4,0-0.6,0c0-0.1-0.1-0.2-0.1-0.2c0.1-0.2,0.1-0.5,0-0.8c-0.3-0.7-1-0.6-1.6-0.3
				c-0.3-0.2-0.6-0.4-1-0.2c0,0-0.1,0-0.1,0c-0.3-0.2-0.6-0.2-0.8-0.1c-2.4,1.1-5,1.6-7.6,1.6c-0.1,0-0.2,0-0.2,0c0,0-0.1,0-0.1,0
				c-0.4,0-0.7-0.1-1-0.2c-0.9-0.6-1.8-1.4-2.5-2.2c-0.9-0.9-1.4-1.9-1.7-3.1c-0.9-1.6-1.4-3.4-1.4-5.2c0-0.9,0-1.8,0.1-2.7
				c0.1-0.7,0.3-1.4,0.6-2c0.2-0.5,0.3-1,0.6-1.5c0.2-0.3,0.4-0.6,0.7-0.8c0.5-0.4,0.9-0.8,1.5-1.2c1.2-0.8,2.6-1.4,4-1.9
				c1.7-0.5,3.6-0.9,5.4-1.2c1.8-0.2,3.7-0.2,5.6-0.1c0.9,0,0.8-0.6,0.6-1.2c0.2,0,0.5,0,0.7,0c1.6,0.1-0.4-2.1-0.5-2.2
				c0,0-0.1-0.1-0.2-0.2c0.6,0,1.2,0,1.8,0c1.1,0,1.2-0.9,0.5-1.5c-0.2-0.1-0.5-0.2-0.8-0.4c0.7-0.1,1.3-0.3,1.4-0.9
				c0.1-1.3-2.8-1.2-3.4-1.2c-0.4,0-0.8,0-1.2,0c0.1-0.7-0.4-1.1-1-1.1c-0.2,0-0.4,0-0.6,0c-0.1-0.1-0.2-0.1-0.4-0.2
				c-0.4,0-0.9,0-1.3,0c-6-0.3-12.6,0.6-17.1,4.9c-1.6,1.2-3,2.7-4,4.5c-0.8,1.4-1.3,2.8-1.7,4.3c-0.9,2.4-1.2,5.1-1,7.7
				c0.1,2.8,0.8,5.5,2,7.8c0.3,0.6,0.7,1.2,1.2,1.7c1.3,2.2,3.1,4,5.4,5.1c1.5,1.1,3.2,2,5,2.4c0.6,0.1,1.2,0.2,1.8,0.3
				c3.8,0.9,7.9,0.7,11.6-0.6c1.1-0.3,2.2-0.7,3.3-1.2c1-0.4,0.3-1.2-0.2-1.7c0.7-0.2,1.3-0.5,1.9-0.8
				C586.1,384.7,584.5,383.8,584.1,383.7z"/>
			<path class="st2" d="M632.1,387.6c0-9.2-0.2-18.4-0.7-27.6c0-1.7-0.1-3.4-0.1-5.1c0-0.2-0.1-0.4-0.2-0.6c0-0.6-0.1-1.1-0.1-1.7
				c-0.1-1.3-2.7-0.9-3.3-0.9c-0.2,0-0.5,0-0.8,0c0-0.1,0-0.2,0-0.3c0-1-0.9-1.1-1.6-0.9c-0.3-0.2-0.7-0.2-1-0.1
				c-0.4-0.2-0.8-0.2-0.8,0.2c0,0.2,0,0.4,0,0.6c-0.3-0.1-0.6-0.2-0.6,0.1c0,0.1,0,0.2,0,0.3c-0.3,0-0.6-0.1-0.6-0.1
				c0,0.4,0,0.7,0,1.1c-0.2,0-0.3,0.1-0.3,0.1c0,0.3,0,0.6,0,0.9c-0.1,0-0.2,0-0.2-0.1c0.1,5.8,0.1,11.6,0.3,17.5
				c-4.7,0.1-9.4,0.1-14-0.2c0.4-6.1,0.7-12.2,1.1-18.3c0.1-1.3-3-1.2-3.6-1.2c-0.2,0-0.7-0.1-1.2-0.1c0-0.9-0.8-1.2-1.5-1.1
				c-0.1-0.1-0.1-0.1-0.2-0.1c-0.2-0.1-0.7,0-0.9,0.2c-0.3-0.2-0.5-0.3-0.5-0.1c0,0.2,0,0.4,0,0.6c-0.1,0-0.1,0-0.2,0.1
				c-0.2-0.2-0.3-0.2-0.3-0.2c0,0.2,0,0.4,0,0.7c-0.3-0.2-0.6-0.3-0.6-0.5c0,0.4-0.1,0.9-0.1,1.3c-0.3,0-0.5,0-0.5,0.1
				c0,0.3,0,0.6,0,0.9c-0.1,0-0.2,0-0.2,0.1c-0.7,11.3-1.4,22.7-2,34c0,0.1,0,0.1,0.1,0.2c0,0.3,0,0.6,0,0.8c0,0.3,0.4,0.4,0.8,0.5
				c0,0.1,0,0.1,0,0.2c0,0.6,0.1,1.1,0.7,1.2c0.2,0,0.3,0,0.5,0c0,0,0,0,0.1,0c0.1,0,0.2,0,0.3,0.1c0.4,0.7,1,1.4,1.4,1.6
				c0.5,0.2,0.9,0.1,1.1-0.2c0,0,0,0,0.1,0.1c0.3,0.2,2.1,1.7,2.2,0.2c0-0.2,0-0.4,0-0.6c0.5,0.2,1,0.1,1.1-0.7
				c0-0.5,0.1-1.1,0.1-1.6c0.7,0.1,1.3,0,1.4-0.5c0-0.6,0.1-1.2,0.1-1.9c0.1-0.1,0.2-0.3,0.2-0.4c0.1-2.1,0.2-4.2,0.4-6.3
				c2.7,0.5,5.5,0.8,8.2,0.8c2.2,0.1,4.4,0.1,6.5,0c0,0.3,0,0.6,0,1c0,2.7,0.1,5.3,0.1,8c0,0.1,0.4,0.2,0.9,0.3c0,0.3,0,0.6,0,0.9
				c0,0.6,0.7,0.6,1.3,0.4c0.2,0.5,0.7,0.9,1,1c0.2,0,0.5-0.1,0.7-0.2c0.3,0.2,0.5,0.3,0.6,0.3c0.4,0.1,0.7-0.2,0.9-0.5
				c0.9,0.2,1.6,0.1,1.6-0.7c0-0.3,0-0.5,0-0.8c1.1,0.2,2.7,0.3,2.7-0.5c0-0.6,0-1.2,0-1.8C632,388,632.1,387.8,632.1,387.6z"/>
			<path class="st2" d="M453.8,386c-0.1-11.5-0.8-22.9-2.1-34.3c-0.1-1.3-3-1-3.7-0.9c-0.2,0-0.6,0-1.2,0c0,0,0,0,0-0.1
				c-0.2-0.7-0.4-1.1-1.1-1.1c-0.1,0-0.2,0-0.3,0.1c-0.1-0.1-0.2-0.2-0.3-0.2c-0.3-0.1-0.7,0.1-0.9,0.4c-0.3-0.2-0.6-0.3-0.5-0.2
				c0,0.2,0,0.4,0,0.7c-0.1,0-0.2,0.1-0.2,0.1c-0.2-0.2-0.4-0.2-0.4-0.2c0,0.4,0.1,0.9,0.1,1.4c-0.1,0.2-0.2,0.3-0.2,0.6
				c-0.1,0-0.3,0.1-0.4,0.2c-0.2-0.1-0.4-0.2-0.6-0.2c-0.1,0-0.3,0-0.4,0.1c-0.5-0.2-1-0.2-1.2,0.4c0,0.1-0.1,0.2-0.1,0.4
				c-0.2,0-0.4,0-0.4,0.2c0,0.1-0.1,0.2-0.1,0.3c-0.3-0.1-0.5-0.1-0.5,0c-0.1,0.3-0.2,0.6-0.3,1c0,0,0,0,0,0
				c-0.7,2.3-1.4,4.6-2.1,6.9c-1.5,4.7-3,9.4-4.7,14c-0.9-1.8-1.8-3.6-2.6-5.4c-2.4-5-4.7-10-6.9-15.1c-0.2-0.2-0.5-0.4-0.8-0.5
				c0-0.1,0-0.2,0-0.3c0-1.3-2.9-1.2-3.6-1.3c-0.2,0-0.6-0.1-1.1-0.1c-0.1-0.6-0.3-1-1-1.1c-0.1,0-0.3,0-0.5,0
				c-0.1-0.1-0.1-0.1-0.2-0.1c-0.2-0.1-0.6,0-0.9,0.2c-0.2-0.2-0.5-0.4-0.5-0.1c0,0.2,0,0.4,0,0.6c-0.1,0-0.1,0-0.2,0
				c-0.1-0.2-0.4-0.4-0.4-0.1c0,0.2,0,0.4,0,0.6c-0.1,0-0.1,0.1-0.2,0.1c-0.3,0.1-0.6,0.4-0.6,0.8c0,0.1-0.1,0.1-0.1,0.2
				c-0.2,0.1-0.4,0.2-0.4,0.2c0,0.2,0,0.4,0,0.6c-0.2,0-0.4,0.1-0.4,0.2c0,10.4,0,20.9,0,31.3c0,0.1,0,0.1,0.1,0.1
				c0,0.3,0,0.6,0,0.9c0,0.2,0.4,0.3,0.8,0.4c0,0.1,0,0.2,0,0.4c0,0.6,0.2,0.9,0.7,1c0.1,0,0.3,0,0.5,0c0,0,0,0,0.1,0
				c0.1,0,0.1,0,0.2,0c0.4,0.7,0.9,1.3,1.3,1.5c0.4,0.2,0.8,0.1,1-0.2c0,0,0.1,0.1,0.1,0.1c0.3,0.2,2.1,1.5,2.1,0.1
				c0-0.1,0-0.3,0-0.4c0.6,0.2,1.3,0.3,1.3-0.6c0-0.5,0-1,0-1.5c0.8,0.1,1.4,0,1.4-0.6c0-0.6,0-1.2,0-1.8c0.2-0.1,0.3-0.3,0.3-0.5
				c0-2.7,0-5.5,0-8.2c1.7,3.4,3.6,6.7,5.6,10c0,0,0.1,0.1,0.1,0.1c0.3,0.4,0.5,0.9,0.8,1.3c0.2,0.4,0.8,0.4,1.3,0.1c0,0,0,0,0,0
				c0.4,0.6,0.9,1.4,1.6,1.3c0.2,0,0.3-0.1,0.4-0.2c0.3,0.2,0.5,0.3,0.8,0.4c0.5,0.1,1-0.2,1.1-0.6c0.2,0.1,0.4,0.2,0.7,0.3
				c1,0.1,1.3-0.6,0.8-1.4c-0.2-0.3-0.3-0.6-0.5-0.9c0.1,0,0.3,0,0.4,0.1c0.4,0,2.8,0.3,2-1c0-0.1-0.1-0.1-0.1-0.2
				c0.2-0.3,0.3-0.7,0.5-1c0.9,0,1.7-0.1,2-0.8c1.4-3.8,2.8-7.7,4-11.6c0.1,1.9,0.2,3.8,0.3,5.6c0.1,2.3,0.2,4.6,0.2,6.9
				c0,0.4,0,0.7,0,1.1c0,0,0,0,0,0c0,0.7,0.1,1.4,0.1,2.1c0,0.1,0.3,0.2,0.7,0.2c0,0,0.1,0,0.1,0c0,0.3,0,0.6,0,0.9
				c0,0.5,0.6,0.5,1.1,0.4c0,0,0,0,0.1,0c0,0,0,0,0,0c0.4,0.7,1.4,1.1,2,0.8c0.7,0.4,1.4,0.5,1.6-0.1c0.8,0.3,1.8,0.5,1.8-0.7
				c0-0.3,0-0.6,0-0.9c1,0.1,2.1,0,2-0.7c0-0.6,0-1.2-0.1-1.9C453.7,386.4,453.8,386.2,453.8,386z"/>
			<path class="st2" d="M544.8,387c-0.4-6.2-2.8-12.4-8.4-15.8c-0.2-0.1-0.4-0.2-0.6-0.3c1.2-1.1,2.3-2.3,3-3.8
				c0.8-0.9,1.4-1.8,1.9-2.9c0.9-2.1,0.8-4.4-0.2-6.3c-0.1-1.2-0.6-2.3-1.4-3.3c-1.5-1.8-3.6-2.7-5.8-3.1c-1.2-0.8-2.6-1.3-4.1-1.5
				c-1.1-0.3-2.1-0.4-3.2-0.4c-3-0.3-5.9,0.7-8.6,1.9c-0.1-0.4-0.4-0.6-0.9-0.6c-0.1,0-0.3,0-0.4,0c-0.1-0.1-0.2-0.1-0.2-0.2
				c-0.2-0.1-0.7,0-1,0.3c-0.3-0.2-0.5-0.3-0.5-0.1c0,0.2,0,0.4,0,0.6c-0.1,0-0.1,0-0.2,0.1c-0.1-0.2-0.4-0.4-0.4-0.1
				c0,0.2,0,0.5,0,0.7c0,0,0,0,0,0c0,0,0,0,0,0c-0.3,0.1-0.5,0.4-0.6,0.9c-0.3,0.1-0.5,0.2-0.5,0.3c0,0.2,0,0.4,0,0.6
				c-0.2,0-0.4,0-0.4,0.1c0.4,11.1,0.9,22.3,1.5,33.4c0,0,0,0.1,0.1,0.1c0,0.3,0,0.7,0,1c0,0.2,0.4,0.3,0.8,0.3c0,0.2,0,0.3,0,0.5
				c0,0.7,0.7,0.9,1.2,0.8c0,0,0,0,0,0c0,0,0.1,0,0.2,0c0.4,0.6,0.9,1.2,1.3,1.3c0.3,0.1,0.7,0,0.9-0.2c0,0,0.1,0.1,0.1,0.1
				c0.3,0.3,2,1.2,2-0.1c0,0,0-0.1,0-0.1c0.7,0.3,1.8,0.6,1.7-0.5c0-0.5-0.1-1-0.1-1.6c0.9,0,1.5-0.2,1.5-0.5c0-0.6-0.1-1.2-0.1-1.7
				c0.2-0.2,0.3-0.3,0.3-0.6c-0.2-3.4-0.3-6.8-0.4-10.1c0.2,0.1,0.4,0.1,0.6,0c0.1,0,0.2-0.1,0.3-0.1c0.2,0,0.3,0,0.5,0.1
				c0.4,0.2,0.7,0.3,1,0.2c0,0,0.1,0,0.1,0c1.8,0.2,3.6,0.9,5.2,1.9c0,0,0,0,0.1,0.1c0.7,0.8,1.3,1.5,1.8,2.4
				c1.3,2.6,1.9,5.3,2.1,8.3c0,0.3,0.3,0.5,0.7,0.6c0,0.2,0,0.4,0.1,0.6c0.1,0.7,0.5,1,1.1,0.9c0.1,0,0.1,0,0.2,0
				c0.1,0.1,0.2,0.1,0.3,0.1c0.4,0.7,0.9,1.4,1.3,1.6c0.4,0.2,1,0.2,1.2-0.2c0.4,0.3,2.1,1.6,2.1,0.3c0-0.2,0-0.4,0-0.6
				c0.6,0.2,1.3,0.3,1.2-0.6c0-0.6-0.1-1.1-0.2-1.7c0.8,0.2,1.7,0.2,1.7-0.4c0-0.5-0.1-1.1-0.1-1.6
				C544.7,387.5,544.8,387.3,544.8,387z M525.5,358.7c0.5-0.1,1-0.2,1.5-0.3c1.3,0,3,0.1,4.3,0.5c0,0,0,0,0,0
				c0.1,0.2,0.1,0.3,0.2,0.5c0.1,0.4,0.1,0.8,0,1.2c-0.4,1-1,1.8-1.7,2.6c-1.9,1.6-4.1,2.8-6.4,3.8c0,0,0,0-0.1,0
				c-0.2,0-0.4,0-0.5,0c-0.1-2.7-0.2-5.4-0.3-8.1C523.5,359,524.5,358.9,525.5,358.7z"/>
			<path class="st2" d="M498.7,364.5c-0.1-1.3-0.2-2.7-0.3-4c-0.3-2.2-0.6-4.5-1.7-6.5c-1.5-2.7-4.1-3.7-6.8-4.2
				c-1-0.8-2.2-1.2-3.6-1.4c-0.6-0.1-1.2-0.2-1.8-0.2c-4.1-0.6-8.6,1.6-11.8,4.4c-2.1,1.4-3.8,3.4-5,5.7c-0.6,1.1-0.9,2.2-1.1,3.3
				c-0.2,0.5-0.3,0.9-0.5,1.4c-0.4,1.9-0.5,3.8-0.3,5.8c0,0.2,0,0.4,0.1,0.5c0,0.1,0,0.3,0,0.4c0.6,6.7,1.3,13.4,2.1,20.1
				c0,0.1,0.3,0.1,0.6,0.1c0,0.4,0.1,0.8,0.1,1.2c0,0.2,0.4,0.3,0.8,0.2c0.1,0.1,0.3,0.1,0.4,0.1c0.2,0.5,0.6,1,1,1
				c0.2,0,0.5,0,0.8-0.2c0.7,0.3,1.3,0.4,1.6-0.3c0.7,0.2,1.2,0,1.2-0.8c0-0.2,0-0.4,0-0.6c1.6,0.2,3,0.1,3-0.4c-0.2-2-0.4-4-0.6-6
				c-0.1-1.3-0.2-2.7-0.3-4c4.4-0.1,8.8-0.4,13.2-0.8c0.1,3,0.2,6,0.3,8.9c0,0.2,0.4,0.5,0.8,0.6c0,0.1,0,0.2,0,0.3
				c0,0.9,0.8,1.1,1.4,0.9c0.1,0,0.1,0,0.2,0.1c0,0,0,0,0,0c0.3,0.6,0.7,1.1,1,1.3c0.4,0.2,0.9,0.1,1.2-0.2c0,0,0.1,0,0.1,0.1
				c0.4,0.2,1.5,0.8,1.6-0.2c0-0.1,0-0.2,0-0.3c0.6,0.3,1.3,0.4,1.4-0.5c0-0.5,0-0.9,0-1.4c1.1,0.1,2,0,2-0.4
				C499.4,380.8,499.6,372.5,498.7,364.5z M475.6,367.8c-0.1-1.3,0-2.5,0.2-3.8c0.1-0.6,0.3-1.1,0.6-1.6c0.2-0.3,0.4-0.6,0.7-0.8
				c0,0,0,0,0,0c1.3-1.1,2.7-2.1,4.2-2.9c0.4-0.1,0.9-0.2,1.3-0.3c1.6-0.1,3.2-0.2,4.8-0.3c0.2,0,0.3,0.1,0.5,0.2
				c0.4,1.2,0.7,2.6,0.9,4c0.4,2.9,0.6,5.7,0.7,8.6c-4.5,0.8-9,1.6-13.5,2.3C475.8,371.3,475.7,369.5,475.6,367.8z"/>
		</g>
		<g>
			<path class="st2" d="M565.8,460c4.1-0.5,17.3-3.1,17.3-3.1s1.2-4.1,0.7-4.5c-0.8-0.5-2.1-0.5-3.2-0.5c0-0.5-0.4-1-0.9-1
				c-0.2,0-0.3,0-0.5,0c-0.1-0.1-0.3-0.2-0.5-0.2c-0.2,0-0.4,0-0.6,0.1c-0.1-0.1-0.2-0.1-0.2-0.1l-16.5,1.4c0.1,0,0.2,0.2,0.3,0.4
				c-0.3,0-0.5,0-0.8,0.1c-0.1-0.2-0.2-0.3-0.4-0.3c-0.3-0.1-0.5,0-0.7,0.1c0-0.1-0.1-0.1-0.1-0.1c-0.2-0.1-0.5-0.2-0.5,0.2
				c0,0.2,0,0.4,0,0.6c0,0,0,0,0,0c0-0.1-0.1-0.3-0.2-0.3c-0.4-0.1-0.4,0.2-0.4,0.5c0,0,0,0,0,0c0,0,0,0,0,0c0,0,0,0,0,0
				c-0.1-0.3-0.3-0.5-0.3-0.8c0,0.3,0,0.7-0.1,1c-0.2,0.2-0.4,0.6-0.4,0.9c0,0-0.1,0.1-0.1,0.1c-0.4,0-0.7,0.1-0.7,0.3
				c0,0.1,0,0.3,0,0.4c-0.2,0-0.4,0-0.4-0.1c-0.7,10-1.4,20-2.4,30c0,0.1,0.1,0.1,0.1,0.2c0,0.3,0,0.5-0.1,0.8
				c0,0.3,0.3,0.4,0.7,0.5c0,0,0,0,0,0.1c0,0.1,0,0.2,0,0.3c-0.1,0.1,0,0.1,0,0.2c0.1,0.4,0.3,0.7,0.6,0.9c0,0.1,0,0.1,0,0.2
				c0.1,0.7,0.5,0.7,1.1,0.6c0.1,0,0.2,0,0.3,0c0.4,0.7,0.9,1.6,1.5,1.6c0.1,0,0.1,0,0.2,0c0.2,0.1,0.5,0.1,0.6,0
				c0.4,0.4,0.8,0.6,1.1,0.6c6.7-0.2,19.4-1.3,19.4-1.3s0.3-1,0.2-1.5c0.2,0,0.4-0.1,0.6-0.1c1.3-0.2,1.8-3.7,1.1-4.1
				c-0.7-0.3-9.9-1-17.5-1c0.4-2.5,0.7-5.1,0.9-7.6c2.8-0.2,6.1-0.5,7.2-0.6c0.6,0,0.8-0.3,0.8-0.6c0.2,0,0.4,0,0.6,0
				c0.7-0.1,0.6-1,0.6-1s0.4,0,0.6-0.1c1.3-0.1,2-4.3,1.4-4.6c-0.6-0.3-6.6-0.8-10.9-1.1c0-0.6,0-1.2,0-1.8
				C565.6,463.7,565.7,461.9,565.8,460z M561.3,453.2C561.3,453.2,561.2,453.2,561.3,453.2c-0.1-0.1-0.1-0.2-0.1-0.3
				C561.2,453,561.2,453.1,561.3,453.2z"/>
			<path class="st2" d="M498.3,472.5c0.4-1.8,0.4-3.7-0.2-5.5c-0.8-2.7-2.6-4.3-4.6-6c-0.6-0.5-1.7-0.6-2.8-0.5
				c-0.2-0.2-0.4-0.4-0.6-0.6c0-0.2-0.2-0.4-0.5-0.5c-0.4-0.2-0.8-0.5-1.3-0.7c0.4-0.2,0.8-0.6,0.4-1.1c-0.4-0.7-1-1.3-1.7-1.7
				c-1.3-0.6-2.6-1-3.9-1.3c-0.9-0.6-1.8-1-2.9-1.2c-1-0.3-2.1-0.5-3.2-0.5c-0.4-0.1-0.7-0.1-1.1-0.1c-0.5-0.1-1.1-0.1-1.6-0.1
				c-1.6,0-3.2,0.2-4.7,0.7c-1.6,0.6-3.1,1.5-4.5,2.5c-0.7,0.4-1.4,0.9-2,1.5c-2.3,2.2-4,4.8-5,7.8c-0.4,1-0.7,2.1-0.9,3.2
				c-0.5,1.9-0.6,3.9-0.3,5.8c0,0.1,0,0.2,0.1,0.3c0,0.3,0,0.5,0.1,0.8c0.3,2.4,1.3,4.6,2.7,6.5c0.7,1.3,1.7,2.5,2.9,3.6
				c1.2,1.1,2.5,1.9,3.9,2.5c0.2,0.1,0.4,0.3,0.5,0.4c2.2,1.3,4.6,2.1,7.1,2.2c2.2,0.4,4.4,0.3,6.6,0c4.4-0.7,8.7-2.5,11.5-5.9
				c1.1-1.1,2-2.4,2.8-3.8c1.7-2.2,3-4.7,3.3-7.3C498.3,473.1,498.3,472.8,498.3,472.5z M475.4,461.9c2.9,0,5.7,0.8,8.5,1.5
				c0,0.2,0,0.3,0.1,0.4c0.2,0.2,0.5,0.4,0.7,0.6c0,0.6,0.1,1.3,0.3,1.5c1,0.8,1.9,1.6,2.7,2.6c0.3,0.9,0.6,1.8,0.9,2.7
				c0,0.1,0,0.1,0,0.2c0,0.5-0.1,1-0.2,1.5c-0.7,1.8-1.7,3.5-3,4.9c-0.5,0.6-1,1.1-1.6,1.6c-2,1.4-4.3,2.4-6.7,3.1
				c-0.7,0.2-1.4,0.3-2,0.4c-0.9-0.1-1.8-0.3-2.7-0.6c-1.2-0.9-2.2-1.8-3.1-3c-1.9-2.5-2.6-5.3-2.5-8.2c0.2-1.1,0.5-2.2,0.9-3.4
				c0.2-0.4,0.4-0.9,0.6-1.3c0.1-0.1,0.2-0.2,0.3-0.4c1.3-1.4,2.9-2.6,4.7-3.4c0.5-0.2,0.9-0.4,1.4-0.5
				C474.9,461.9,475.1,461.9,475.4,461.9z"/>
			<path class="st2" d="M398.6,459.2c-1-1.7-2.4-3.1-4.1-4.2c-1.5-0.9-3.2-1.5-4.9-1.9c-1.2-0.7-2.5-1.2-3.8-1.5
				c-0.6-0.1-1.1-0.2-1.7-0.3c-0.5-0.1-1.1-0.2-1.6-0.2c-2.8-0.4-5.5,0-8.1,1.1c-0.8-0.3-1.9-0.3-2.5-0.3c-0.2,0-0.7-0.1-1.3-0.1
				c-0.1-0.6-0.3-0.9-0.9-1c-0.1,0-0.2,0-0.4,0c-0.1-0.1-0.1-0.1-0.2-0.2c-0.2-0.1-0.8,0-0.9,0.3c-0.3-0.2-0.5-0.4-0.5-0.2
				c0,0.2,0,0.4,0,0.6c-0.1,0-0.2,0.1-0.3,0.2c-0.2-0.2-0.4-0.3-0.4-0.3c0,0.3,0,0.5,0.1,0.8c-0.3,0.1-0.4,0.3-0.5,0.7
				c-0.4-0.1-0.7-0.1-0.7-0.2c0,0.4,0.1,0.8,0.1,1.3c-0.2,0-0.4,0-0.4,0c0,0.3,0,0.6,0.1,0.9c0,0,0,0,0,0c0.3,5,0.6,10,0.8,15
				c0,0.8,0.1,1.6,0.1,2.4c0.3,6,0.4,12,0.3,18c0,0.1,0,0.1,0.1,0.2c0,0.3,0,0.6,0,0.9c0,0.3,0.4,0.4,0.8,0.5c0,0.1,0,0.1,0,0.2
				c0,0.6,0.1,1,0.7,1.2c0.1,0,0.3,0,0.5,0c0,0,0,0,0,0c0.1,0,0.2,0,0.3,0c0.4,0.6,0.9,1.3,1.3,1.4c0.4,0.2,0.8,0.1,1.1-0.2
				c0,0,0,0,0,0c0.3,0.3,2,1.4,2,0.1c0-0.1,0-0.2,0-0.3c0.7,0.3,1.4,0.4,1.4-0.6c0-0.5,0-1,0-1.5c0.8,0.1,1.4,0,1.4-0.6
				c0-0.6,0-1.2,0-1.8c0.1-0.1,0.2-0.3,0.2-0.5c0.1-2.1,0.1-4.2,0.1-6.3c4.2-0.4,8.6-0.7,12.2-2.6c1.9-0.8,3.6-2,5.1-3.6
				c1.1-0.9,2-2.1,2.8-3.4c0-0.1,0.1-0.1,0.1-0.2c0.2-0.2,0.4-0.4,0.5-0.6c1.4-1.7,2.2-3.7,2.3-5.7c0.2-0.7,0.4-1.4,0.4-2.1
				C400.5,462.3,399.6,461,398.6,459.2z M388.5,468.7c-0.3,0.3-0.6,0.6-0.9,0.9c-3.1,2.3-7.1,3.2-11,3.5c0-0.6,0-1.2-0.1-1.9
				c-0.1-3.1-0.2-6.1-0.5-9.2c0.7-0.3,1.4-0.6,2.2-0.9c1.6-0.2,3.2-0.5,4.8-0.7c1.6,0.2,3.1,0.6,4.7,1.1c0.2,0,0.3,0.1,0.4,0.1
				c0.4,0.4,0.8,0.8,1.2,1.3C389.1,464.9,388.8,466.8,388.5,468.7z"/>
			<path class="st2" d="M445.6,488.2c-0.4-6.2-2.8-12.4-8.4-15.8c-0.2-0.1-0.4-0.2-0.6-0.3c1.2-1.1,2.3-2.3,3-3.8
				c0.8-0.9,1.4-1.8,1.9-2.9c0.9-2.1,0.8-4.4-0.2-6.3c-0.1-1.2-0.6-2.3-1.4-3.3c-1.5-1.8-3.6-2.7-5.8-3.1c-1.2-0.8-2.6-1.3-4.1-1.5
				c-1.1-0.3-2.1-0.4-3.2-0.4c-3-0.3-5.9,0.7-8.6,1.9c-0.1-0.4-0.4-0.6-0.9-0.6c-0.1,0-0.3,0-0.4,0c-0.1-0.1-0.2-0.1-0.2-0.2
				c-0.2-0.1-0.7,0-1,0.3c-0.3-0.2-0.5-0.3-0.5-0.1c0,0.2,0,0.4,0,0.6c-0.1,0-0.1,0-0.2,0.1c-0.1-0.2-0.4-0.4-0.4-0.1
				c0,0.2,0,0.5,0,0.7c0,0,0,0,0,0c0,0,0,0,0,0c-0.3,0.1-0.5,0.4-0.6,0.9c-0.3,0.1-0.5,0.2-0.5,0.3c0,0.2,0,0.4,0,0.6
				c-0.2,0-0.4,0-0.4,0.1c0.4,11.1,0.9,22.3,1.5,33.4c0,0,0,0.1,0.1,0.1c0,0.3,0,0.7,0,1c0,0.2,0.4,0.3,0.8,0.3c0,0.2,0,0.3,0,0.5
				c0,0.7,0.7,0.9,1.2,0.8c0,0,0,0,0,0c0,0,0.1,0,0.2,0c0.4,0.6,0.9,1.2,1.3,1.3c0.3,0.1,0.7,0,0.9-0.2c0,0,0.1,0.1,0.1,0.1
				c0.3,0.3,2,1.2,2-0.1c0,0,0-0.1,0-0.1c0.7,0.3,1.8,0.6,1.7-0.5c0-0.5-0.1-1-0.1-1.6c0.9,0,1.5-0.2,1.5-0.5c0-0.6-0.1-1.2-0.1-1.7
				c0.2-0.2,0.3-0.3,0.3-0.6c-0.2-3.4-0.3-6.8-0.4-10.1c0.2,0.1,0.4,0.1,0.6,0c0.1,0,0.2-0.1,0.3-0.1c0.2,0,0.3,0,0.5,0.1
				c0.4,0.2,0.7,0.3,1,0.2c0,0,0.1,0,0.1,0c1.8,0.2,3.6,0.9,5.2,1.9c0,0,0,0,0.1,0.1c0.7,0.8,1.3,1.5,1.8,2.4
				c1.3,2.6,1.9,5.3,2.1,8.3c0,0.3,0.3,0.5,0.7,0.6c0,0.2,0,0.4,0.1,0.6c0.1,0.7,0.5,1,1.1,0.9c0.1,0,0.1,0,0.2,0
				c0.1,0.1,0.2,0.1,0.3,0.1c0.4,0.7,0.9,1.4,1.3,1.6c0.4,0.2,1,0.2,1.2-0.2c0.4,0.3,2.1,1.6,2.1,0.3c0-0.2,0-0.4,0-0.6
				c0.6,0.2,1.3,0.3,1.2-0.6c0-0.6-0.1-1.1-0.2-1.7c0.8,0.2,1.7,0.2,1.7-0.4c0-0.5-0.1-1.1-0.1-1.6
				C445.4,488.7,445.6,488.5,445.6,488.2z M426.2,459.9c0.5-0.1,1-0.2,1.5-0.3c1.3,0,3,0.1,4.3,0.5c0,0,0,0,0,0
				c0.1,0.2,0.1,0.3,0.2,0.5c0.1,0.4,0.1,0.8,0,1.2c-0.4,1-1,1.8-1.7,2.6c-1.9,1.6-4.1,2.8-6.4,3.8c0,0,0,0-0.1,0
				c-0.2,0-0.4,0-0.5,0c-0.1-2.7-0.2-5.4-0.3-8.1C424.3,460.2,425.3,460.1,426.2,459.9z"/>
			<path class="st2" d="M630.7,477.4c0-0.4-0.1-0.7-0.2-1c-0.1-1.1-0.4-2.1-1-3c-0.6-1.3-1.6-2.2-3-2.8c-0.3-0.1-0.6-0.2-0.9-0.3
				c-0.1-0.6-1.3-0.7-1.9-0.7c-0.3-0.2-0.5-0.3-0.8-0.4c-0.2-0.1-0.5-0.2-0.7-0.3c-0.2-0.1-0.4-0.2-0.7-0.3
				c-0.1-0.3-0.4-0.6-0.8-0.5c-0.3,0-0.5,0-0.8,0c-1.7-0.4-3.7-0.3-5.4-0.4c-1.1-0.1-2.2-0.2-3.4-0.3c-0.7-0.1-1.5-0.2-2.2-0.3
				c0,0,0,0,0,0c-0.1,0-0.3-0.1-0.4-0.1c-0.3-0.1-0.6-0.1-0.9-0.2c0,0,0,0-0.1-0.1c-0.2-0.5-0.3-1-0.5-1.5c0-0.1,0-0.1,0.1-0.2
				c0.2-0.7,0.6-1.3,1.2-1.8c0.8-0.4,1.7-0.8,2.6-1.1c0.9-0.3,1.8-0.5,2.5-0.7c3.3-0.8,6.6-1.2,10-1.7c0.3-0.1,0.5-0.2,0.6-0.4
				c0,0,0.1,0,0.1,0c0.6-0.1,1.1-0.6,0.9-1.3c0.4,0,0.7-0.1,1.1-0.1c0.9-0.1,0.9-1.1,0.4-1.6c-0.1-0.1-0.2-0.1-0.3-0.2
				c0.2-0.1,0.3-0.3,0.3-0.5c0.2-0.8-0.5-1.1-1.2-1.1c-0.5,0-1,0-1.6,0c0-0.5-0.3-1.2-0.8-1.2c-0.2,0-0.5-0.1-0.7-0.1
				c-0.1-0.1-0.2-0.1-0.4-0.1c-1.1-0.2-2.1-0.2-3.1-0.1c0-0.1-0.1-0.3-0.1-0.4c-0.4-0.5-1.6-0.6-2.3-0.5c-0.1-0.4-0.4-1.1-0.8-1
				c-0.2,0-0.3,0.1-0.5,0.1c-0.2-0.2-0.3-0.3-0.4-0.2c-0.3,0-0.6,0.1-0.9,0.1c-0.1,0-0.1-0.1-0.2,0c-2.9,0.3-5.5,0.9-8.1,2.4
				c-1.5,0.9-2.9,2-4.1,3.2c-1.2,1-2.2,2.1-3.1,3.5c-0.7,1-1.1,2.2-1.2,3.3c-0.4,1.1-0.6,2.2-0.5,3.3c-0.2,1.4,0.1,2.7,1,3.8
				c0.1,0.1,0.1,0.1,0.2,0.2c0.7,1.7,2.1,2.6,3.7,3.1c0.2,0.1,0.3,0.3,0.5,0.4c1.3,0.8,2.6,1.1,4.2,1.1c0,0,0,0,0,0
				c0.4,0.1,0.9,0.1,1.4,0.1c2.8,0.1,5.7,0.1,8.6,0.1c0.1,0.1,0.3,0.1,0.4,0.2c0.3,0.1,0.7,0.1,1,0.1c0,0,0.1,0,0.1,0
				c0.8,0.2,1.5,0.2,2.4,0.2c0,0,0,0,0.1,0c0.1,0.1,0.2,0.1,0.2,0.2c0.2,0.5,0.4,1,0.6,1.6c0,0.2,0,0.3,0.1,0.5
				c-0.3,1.1-0.9,2.1-1.6,2.9c-0.3,0.3-0.6,0.7-0.9,1c-0.4,0.3-0.8,0.5-1.3,0.7c-0.5,0.1-1,0.2-1.5,0.3c-0.6,0.1-1.2,0.2-1.8,0.2
				c-0.2,0-0.4,0-0.5,0c-0.1,0-0.2,0-0.3,0c-0.3,0-0.6,0-0.8,0c0,0-0.1,0-0.1,0c-2.1-0.4-4-1.3-6-2.4c-0.4-0.2-1,0-1.6,0.4
				c0,0,0,0-0.1,0c-0.4-0.2-1-0.1-1.5,0.2c0,0,0,0-0.1,0c-0.8-0.4-1.5,0.3-1.6,1.1c-0.4,0-0.8,0-0.9,0.1c-0.2,0.2-0.4,0.5,0,0.6
				c0.1,0.1,0.2,0.1,0.3,0.2c0,0.1,0,0.2,0.1,0.4c-0.5,0.2-0.9,0.5-0.8,0.6c0.1,0.1,0.2,0.1,0.3,0.1c0,0,0,0,0,0.1
				c0,0.1,0,0.2,0,0.2c0,0,0,0.1,0,0.1c-0.1,0-0.1-0.1-0.2-0.1c-0.2-0.1-0.3,0-0.1,0.1c0.1,0.1,0.2,0.2,0.3,0.3c0,0,0,0,0,0
				c0,0,0,0,0,0c0,0.2,0.1,0.3,0.2,0.4c-0.1,0.1-0.1,0.3,0,0.4c-0.5,0-0.8,0.1-0.5,0.2c0.3,0.2,0.7,0.4,1.1,0.5
				c-0.4,0.3-0.5,0.7,0,1c0.6,0.3,1.1,0.6,1.7,0.8c0.1,0.1,0.3,0.2,0.4,0.3c2.6,1.3,5.2,2.2,8,2.4c2.1,0.3,4.2,0.3,6.4-0.3
				c0,0,0,0,0.1,0c1.9-0.3,3.7-1,5.3-2c0.1,0,0.1,0,0.2-0.1c1-0.4,1.9-0.9,2.7-1.6C629.5,485.5,631,481.7,630.7,477.4z"/>
			<path class="st2" d="M545.1,454.4c-0.5-0.4-1-0.6-1.7-0.6c-0.8-0.1-1.6-0.2-2.4-0.2c-0.1-0.1-0.1-0.2-0.2-0.2c0-0.5-0.1-1-0.6-1
				c-0.4,0-0.8,0-1.1,0c-0.1-0.1-0.2-0.1-0.3-0.1c-0.3,0-0.6,0-0.9,0c-0.1,0-0.1-0.1-0.2-0.1c-9.6-0.1-19.2,0-28.8,0
				c-0.2,0-0.2,0.3,0,0.6c-0.2,0-0.4,0-0.6,0c-0.1,0-0.1,0.1-0.1,0.3c-0.2,0-0.5,0-0.7,0c0.2,0,0.5,0.2,0.7,0.5c0,0,0,0,0,0
				c-0.3,0.1-0.5,0.5-0.6,0.9c-0.2,0.1-0.4,0.1-0.6,0.1c0.2,0,0.4,0,0.6,0c0,0.1,0,0.1,0,0.2c-0.2,0-0.3,0.1-0.4,0.2
				c-0.1,0.1-0.3,0.3,0.1,0.3c0,0,0.1,0,0.1,0c0,0,0,0,0,0.1c-0.2,0-0.4,0-0.5,0c-0.3,0-0.3,0.2,0,0.3c0.1,0.1,0.3,0.1,0.4,0.1
				c0,0.1,0,0.3,0.1,0.4c0,0,0,0-0.1,0c-0.3,0-0.6,0-0.5,0.4c0.1,0.2,0.4,0.2,0.8,0.3c0,0.1-0.1,0.1-0.1,0.2
				c-0.1,0.5,0.1,1.4,0.7,1.4c0.3,0,0.6,0,0.9,0.1c0,0,0,0,0,0c0.5,1,1.2,2.3,2,2.4c3.1,0.3,6.2,0.5,9.2,0.6
				c-0.4,8.2-1,16.4-1.7,24.6c0,0.1,0,0.2,0.1,0.3c0,0.2,0,0.5-0.1,0.7c0,0.4,0.3,0.7,0.8,0.8c0,0.7,0.1,1.5,0.8,1.8
				c0.2,0.1,0.4,0.1,0.6,0c0.1,0.1,0.1,0.1,0.2,0.2c0.2,0.1,0.4,0.2,0.6,0.2c0.3,0.4,0.5,0.8,0.8,1.2c0.3,0.6,0.7,1,1.2,1.2
				c0.4,0.1,0.7-0.1,0.8-0.4c0-0.2,0-0.4,0-0.6c0.6,0.4,1.2,0.6,1.3-0.3c0-0.2,0-0.5,0-0.7c0.5,0.2,1,0.1,1-0.6
				c0-0.5,0.1-1.1,0.1-1.6c0.7,0.1,1.3,0.1,1.4-0.5c0.1-0.6,0.1-1.2,0.1-1.9c0.1-0.1,0.2-0.3,0.2-0.4c0.8-7.8,1.3-15.7,1.7-23.5
				c3.2,0,6.5,0,9.7,0c0.6,0,0.8-0.3,0.9-0.8c0.2,0,0.4,0,0.6,0c0.8,0,0.8-0.6,0.6-1.2c0.2,0,0.5,0,0.7,0c1.6,0-0.4-2.1-0.5-2.2
				c0,0-0.1-0.1-0.1-0.1c0.6,0,1.2,0,1.7,0c1.1,0,1.3-0.9,0.5-1.5c-0.3-0.2-0.6-0.3-0.8-0.4C544.3,455.7,545.7,455.4,545.1,454.4z"
				/>
			<path class="st2" d="M678.2,454.4c-0.5-0.4-1-0.6-1.7-0.6c-0.8-0.1-1.6-0.2-2.4-0.2c-0.1-0.1-0.1-0.2-0.2-0.2c0-0.5-0.1-1-0.6-1
				c-0.4,0-0.8,0-1.1,0c-0.1-0.1-0.2-0.1-0.3-0.1c-0.3,0-0.6,0-0.9,0c-0.1,0-0.1-0.1-0.2-0.1c-9.6-0.1-19.2,0-28.8,0
				c-0.2,0-0.2,0.3,0,0.6c-0.2,0-0.4,0-0.6,0c-0.1,0-0.1,0.1-0.1,0.3c-0.2,0-0.5,0-0.7,0c0.2,0,0.5,0.2,0.7,0.5c0,0,0,0,0,0
				c-0.3,0.1-0.5,0.5-0.6,0.9c-0.2,0.1-0.4,0.1-0.6,0.1c0.2,0,0.4,0,0.6,0c0,0.1,0,0.1,0,0.2c-0.2,0-0.3,0.1-0.4,0.2
				c-0.1,0.1-0.3,0.3,0.1,0.3c0,0,0.1,0,0.1,0c0,0,0,0,0,0.1c-0.2,0-0.4,0-0.5,0c-0.3,0-0.3,0.2,0,0.3c0.1,0.1,0.3,0.1,0.4,0.1
				c0,0.1,0,0.3,0.1,0.4c0,0,0,0-0.1,0c-0.3,0-0.6,0-0.5,0.4c0.1,0.2,0.4,0.2,0.8,0.3c0,0.1-0.1,0.1-0.1,0.2
				c-0.1,0.5,0.1,1.4,0.7,1.4c0.3,0,0.6,0,0.9,0.1c0,0,0,0,0,0c0.5,1,1.2,2.3,2,2.4c3.1,0.3,6.2,0.5,9.2,0.6
				c-0.4,8.2-1,16.4-1.7,24.6c0,0.1,0,0.2,0.1,0.3c0,0.2,0,0.5-0.1,0.7c0,0.4,0.3,0.7,0.8,0.8c0,0.7,0.1,1.5,0.8,1.8
				c0.2,0.1,0.4,0.1,0.6,0c0.1,0.1,0.1,0.1,0.2,0.2c0.2,0.1,0.4,0.2,0.6,0.2c0.3,0.4,0.5,0.8,0.8,1.2c0.3,0.6,0.7,1,1.2,1.2
				c0.4,0.1,0.7-0.1,0.8-0.4c0-0.2,0-0.4,0-0.6c0.6,0.4,1.2,0.6,1.3-0.3c0-0.2,0-0.5,0-0.7c0.5,0.2,1,0.1,1-0.6
				c0-0.5,0.1-1.1,0.1-1.6c0.7,0.1,1.3,0.1,1.4-0.5c0.1-0.6,0.1-1.2,0.1-1.9c0.1-0.1,0.2-0.3,0.2-0.4c0.8-7.8,1.3-15.7,1.7-23.5
				c3.2,0,6.5,0,9.7,0c0.6,0,0.8-0.3,0.9-0.8c0.2,0,0.4,0,0.6,0c0.8,0,0.8-0.6,0.6-1.2c0.2,0,0.5,0,0.7,0c1.6,0-0.4-2.1-0.5-2.2
				c0,0-0.1-0.1-0.1-0.1c0.6,0,1.2,0,1.7,0c1.1,0,1.3-0.9,0.5-1.5c-0.3-0.2-0.6-0.3-0.8-0.4C677.5,455.6,678.9,455.4,678.2,454.4z"
				/>
		</g>
		<g>
			<path class="st2" d="M540,565.1c-0.1-1.3-0.2-2.7-0.3-4c-0.3-2.2-0.6-4.5-1.7-6.5c-1.5-2.7-4.1-3.7-6.8-4.2
				c-1-0.8-2.2-1.2-3.6-1.4c-0.6-0.1-1.2-0.2-1.8-0.2c-4.1-0.6-8.6,1.6-11.8,4.4c-2.1,1.4-3.8,3.4-5,5.7c-0.6,1.1-0.9,2.2-1.1,3.3
				c-0.2,0.5-0.3,0.9-0.5,1.4c-0.4,1.9-0.5,3.8-0.3,5.8c0,0.2,0,0.4,0.1,0.5c0,0.1,0,0.3,0,0.4c0.6,6.7,1.3,13.4,2.1,20.1
				c0,0.1,0.3,0.1,0.6,0.1c0,0.4,0.1,0.8,0.1,1.2c0,0.2,0.4,0.3,0.8,0.2c0.1,0.1,0.3,0.1,0.4,0.1c0.2,0.5,0.6,1,1,1
				c0.2,0,0.5,0,0.8-0.2c0.7,0.3,1.3,0.4,1.6-0.3c0.7,0.2,1.2,0,1.2-0.8c0-0.2,0-0.4,0-0.6c1.6,0.2,3,0.1,3-0.4c-0.2-2-0.4-4-0.6-6
				c-0.1-1.3-0.2-2.7-0.3-4c4.4-0.1,8.8-0.4,13.2-0.8c0.1,3,0.2,6,0.3,8.9c0,0.2,0.4,0.5,0.8,0.6c0,0.1,0,0.2,0,0.3
				c0,0.9,0.8,1.1,1.4,0.9c0.1,0,0.1,0,0.2,0.1c0,0,0,0,0,0c0.3,0.6,0.7,1.1,1,1.3c0.4,0.2,0.9,0.1,1.2-0.2c0,0,0.1,0,0.1,0.1
				c0.4,0.2,1.5,0.8,1.6-0.2c0-0.1,0-0.2,0-0.3c0.6,0.3,1.3,0.4,1.4-0.5c0-0.5,0-0.9,0-1.4c1.1,0.1,2,0,2-0.4
				C540.7,581.4,540.9,573.1,540,565.1z M516.9,568.4c-0.1-1.3,0-2.5,0.2-3.8c0.1-0.6,0.3-1.1,0.6-1.6c0.2-0.3,0.4-0.6,0.7-0.8
				c0,0,0,0,0,0c1.3-1.1,2.7-2.1,4.2-2.9c0.4-0.1,0.9-0.2,1.3-0.3c1.6-0.1,3.2-0.2,4.8-0.3c0.2,0,0.3,0.1,0.5,0.2
				c0.4,1.2,0.7,2.6,0.9,4c0.4,2.9,0.6,5.7,0.7,8.6c-4.5,0.8-9,1.6-13.5,2.3C517.1,571.8,517,570.1,516.9,568.4z"/>
			<path class="st2" d="M700.3,559.4c4.1-0.5,17.3-3.1,17.3-3.1s1.2-4.1,0.7-4.5c-0.8-0.5-2.1-0.5-3.2-0.5c0-0.5-0.4-1-0.9-1
				c-0.2,0-0.3,0-0.5,0c-0.1-0.1-0.3-0.2-0.5-0.2c-0.2,0-0.4,0-0.6,0.1c-0.1-0.1-0.2-0.1-0.2-0.1l-16.5,1.4c0.1,0,0.2,0.2,0.3,0.4
				c-0.3,0-0.5,0-0.8,0.1c-0.1-0.2-0.2-0.3-0.4-0.3c-0.3-0.1-0.5,0-0.7,0.1c0-0.1-0.1-0.1-0.1-0.1c-0.2-0.1-0.5-0.2-0.5,0.2
				c0,0.2,0,0.4,0,0.6c0,0,0,0,0,0c0-0.1-0.1-0.3-0.2-0.3c-0.4-0.1-0.4,0.2-0.4,0.5c0,0,0,0,0,0c0,0,0,0,0,0c0,0,0,0,0,0
				c-0.1-0.3-0.3-0.5-0.3-0.8c0,0.3,0,0.7-0.1,1c-0.2,0.2-0.4,0.6-0.4,0.9c0,0-0.1,0.1-0.1,0.1c-0.4,0-0.7,0.1-0.7,0.3
				c0,0.1,0,0.3,0,0.4c-0.2,0-0.4,0-0.4-0.1c-0.7,10-1.4,20-2.4,30c0,0.1,0.1,0.1,0.1,0.2c0,0.3,0,0.5-0.1,0.8
				c0,0.3,0.3,0.4,0.7,0.5c0,0,0,0,0,0.1c0,0.1,0,0.2,0,0.3c-0.1,0.1,0,0.1,0,0.2c0.1,0.4,0.3,0.7,0.6,0.9c0,0.1,0,0.1,0,0.2
				c0.1,0.7,0.5,0.7,1.1,0.6c0.1,0,0.2,0,0.3,0c0.4,0.7,0.9,1.6,1.5,1.6c0.1,0,0.1,0,0.2,0c0.2,0.1,0.5,0.1,0.6,0
				c0.4,0.4,0.8,0.6,1.1,0.6c6.7-0.2,19.4-1.3,19.4-1.3s0.3-1,0.2-1.5c0.2,0,0.4-0.1,0.6-0.1c1.3-0.2,1.8-3.7,1.1-4.1
				c-0.7-0.3-9.9-1-17.5-1c0.4-2.5,0.7-5.1,0.9-7.6c2.8-0.2,6.1-0.5,7.2-0.6c0.6,0,0.8-0.3,0.8-0.6c0.2,0,0.4,0,0.6,0
				c0.7-0.1,0.6-1,0.6-1s0.4,0,0.6-0.1c1.3-0.1,2-4.3,1.4-4.6c-0.6-0.3-6.6-0.8-10.9-1.1c0-0.6,0-1.2,0-1.8
				C700.1,563.1,700.2,561.3,700.3,559.4z M695.8,552.6C695.7,552.6,695.7,552.6,695.8,552.6c-0.1-0.1-0.1-0.2-0.1-0.3
				C695.7,552.5,695.7,552.5,695.8,552.6z"/>
			<path class="st2" d="M357.8,561.5c-2.2-4.5-6-6.8-10.4-8.1c-1.2-0.6-2.4-1.1-3.6-1.5c-2.7-0.9-5.4-1.1-8.2-1.1
				c-0.2,0-0.4,0-0.6,0c-2.3-0.1-4.6,0-7,0.2c-0.4,0-0.5,0.2-0.5,0.4c0,0-0.1,0.1-0.1,0.1c0,0.1,0,0.2,0,0.2c-0.1,0-0.3,0-0.4,0
				c-0.2,0-0.2,0.1-0.1,0.3c-0.1,0-0.1,0-0.1,0c-0.2,0-0.4,0-0.5,0c0.1,0,0.3,0.1,0.5,0.2c0,0.2,0,0.4,0,0.6
				c-0.1,0.1-0.1,0.2-0.2,0.3c-0.2,0-0.5,0-0.7,0c0.1,0,0.4,0,0.7,0c0,0.1-0.1,0.3-0.1,0.4c-0.1,0.1-0.2,0.2-0.3,0.4
				c-0.2,0.1-0.3,0.1-0.3,0.2c0,0,0,0,0,0c-0.1,0-0.2,0-0.2,0c0,0,0.1,0,0.2,0.1c0,0,0,0.1,0,0.1c-0.2,0-0.4,0-0.4,0
				c-0.2,9.3-0.1,18.6,0,27.8c0,0,0,0,0,0c0,0.4,0,0.7,0,1.1c0,0.2,0.4,0.4,0.8,0.5c0,0.1,0,0.2,0,0.3c0,0.6,0.1,0.9,0.7,1
				c0.1,0,0.3,0,0.5,0c0.1,0,0.2,0,0.2,0c0.3,0.6,0.8,1.1,1.2,1.3c0.3,0.1,0.7,0,1-0.2c0.4,0.3,1.8,1,1.8-0.1c0,0,0,0,0,0
				c0.7,0.3,1.7,0.6,1.8-0.5c0-0.5,0-1,0-1.5c0.9,0,1.6-0.1,1.6-0.5c0-0.6,0-1.2,0-1.8c0.1-0.1,0.2-0.3,0.2-0.5
				c-0.1-4.6-0.1-9.2-0.1-13.8c0.1-2.9,0.1-5.7-0.1-8.6c0.2,0,0.5,0,0.7,0c1.5,0,3,0.2,4.4,0.5c0.2,0,0.3,0.1,0.5,0.1
				c1.8,0.5,3.4,1,4.8,1.7c0.7,0.6,1.4,1.3,2,2c0.5,0.9,0.8,2,1,3.1c0.2,0.6,0.4,1.2,0.5,1.7c0,1.1-0.1,2.1-0.3,3.2
				c-0.2,0.7-0.5,1.5-0.9,2.2c-2,4.3-5.4,7.4-9.1,10c-0.5,0.3-1.1,0.6-1.6,0.9c-0.2,0.1-0.4,0.3-0.5,0.5c-0.4,0.3-0.8,0.5-1.3,0.8
				c-0.4,0.2,0.5,0.4,0.5,0.4c0,0,0.1,0,0.1,0c0,0.1,0.1,0.2,0.1,0.2c0,0,0,0,0,0c-0.3,0.2-0.6,0.4-0.9,0.5c-0.3,0.2,0,0.1,0.4,0.1
				c0,0,0,0,0,0c0,0-0.1,0-0.1,0.1c0,0,0.1,0,0.1,0c0,0.1-0.1,0.2-0.1,0.2c-0.2,0.1-0.4,0.2-0.6,0.3c0,0,0.3,0.3,0.7,0.6
				c0,0,0,0.1,0,0.1c-0.2,0.1-0.4,0.3-0.6,0.4c-0.2,0.1,0.7,0.5,1.3,0.6c0,0,0,0,0,0c-0.1,0.1-0.2,0.1-0.3,0.2
				c-0.3,0.2-0.1,0.8,0.2,1c0.2,0.1,0.7,0.1,1-0.1c0.4,0.8,1.2,1.4,1.9,1c0.4,0.3,0.9,0.5,1.1,0.3c0.2-0.1,0.5-0.3,0.7-0.4
				c0.4,0.2,0.8,0.2,1,0.1c4.7-2.8,9.3-5.9,12.4-10.3c1-1.3,2-2.7,2.7-4.2c1.1-2.1,1.6-4.5,1.7-6.9
				C359.5,567.1,359.2,564.2,357.8,561.5z"/>
			<path class="st2" d="M386.3,555c0.1-1.3-2.9-1.2-3.5-1.3c-0.2,0-0.8-0.1-1.5-0.1c-0.1-0.7-0.7-1-1.3-1c-0.1-0.1-0.1-0.1-0.2-0.2
				c-0.3-0.1-0.8,0-0.9,0.3c-0.3-0.2-0.5-0.4-0.5-0.2c0,0.2,0,0.4-0.1,0.6c-0.1,0-0.1,0.1-0.2,0.1c-0.2-0.2-0.3-0.3-0.3-0.2
				c0,0.3,0,0.5-0.1,0.8c-0.2,0.1-0.4,0.4-0.4,0.7c-0.4,0-0.7-0.1-0.7-0.1c0,0.4-0.1,0.8-0.1,1.1c-0.1,0-0.2,0-0.2,0.1
				c-0.8,10.3-1.8,20.7-1.9,31c0,0.1,0,0.1,0.1,0.2c0,0.3,0,0.6,0,0.9c0,0.2,0.4,0.4,0.8,0.4c0,0.1,0,0.2,0,0.3c0,0.6,0.1,1,0.7,1.1
				c0.1,0,0.3,0,0.5,0c0,0,0,0,0,0c0.1,0,0.1,0,0.2,0c0.4,0.7,0.9,1.3,1.3,1.5c0.4,0.2,0.8,0.1,1.1-0.2c0,0,0,0,0.1,0.1
				c0.3,0.3,2,1.5,2.1,0.1c0-0.1,0-0.2,0-0.4c0.6,0.2,1.3,0.3,1.3-0.6c0-0.5,0-1,0-1.5c0.8,0.1,1.4,0,1.4-0.6c0-0.6,0-1.2,0-1.8
				c0.1-0.1,0.2-0.3,0.2-0.5C384.5,575.4,385.6,565.2,386.3,555z"/>
			<path class="st2" d="M678.9,585.5c-0.3-0.1-0.6-0.2-0.9-0.3c0.3-0.1,0.6-0.1,0.9-0.2c1.1-0.3,0.7-1.3-0.1-1.6
				c-1-0.3-2.3-0.3-3.5-0.1c0,0,0,0,0,0c0,0,0-0.1,0.1-0.1c0.2-0.4-0.1-1.5-0.8-1.4c-0.3,0.1-0.5,0.1-0.8,0.2
				c-0.2-0.2-0.4-0.3-0.6-0.3c-0.2,0-0.3,0.1-0.5,0.1c-0.2-0.1-0.5-0.2-0.7-0.1c-2.8,0.7-5.7,1.5-8.6,1.6c-0.5,0-1,0-1.5,0
				c-0.7-0.6-1.3-1.5-1.6-2.8c-0.2-1.2-0.3-2.5-0.2-3.8c0.4-5.2,0.4-10.4,0-15.6c0-1.7,0.1-3.5,0.1-5.2c0-0.5-0.3-0.9-0.8-1.3
				c0-0.3-0.1-0.7-0.1-1c-0.1-1.2-1.8-1.2-2.7-1.3c-0.2,0-0.7-0.1-1.2-0.1c-0.1-0.5-0.3-0.9-0.8-1c-0.1,0-0.2,0-0.3,0
				c-0.1-0.1-0.1-0.1-0.2-0.2c-0.3-0.1-0.8,0-0.8,0.4c0,0,0,0,0,0.1c-0.3-0.3-0.6-0.5-0.6-0.4c0,0.2,0,0.4,0,0.6
				c-0.1,0-0.1,0.1-0.2,0.2c0,0,0,0,0,0c-0.2-0.2-0.4-0.4-0.4-0.3c0,0.3,0,0.5,0,0.8c-0.2,0.1-0.3,0.3-0.3,0.6
				c-0.4-0.2-0.7-0.3-0.7-0.5c0,0.4,0,0.7,0,1.1c0,0,0,0,0,0c0,0.1,0,0.3,0,0.4c-0.2,0-0.4,0-0.4,0c-0.2,8.1-0.5,16.2-0.5,24.4
				c0,0.7,0,1.3,0.1,2c0,0.7,0.1,1.3,0.2,2c0.3,1.1,0.7,2.1,1.4,2.9c0.3,0.8,0.7,1.4,1.3,2c0.7,0.6,1.4,1,2.3,1.4
				c0,0,0.1,0.1,0.1,0.1c1.4,1.2,3,1.6,4.8,1.8c4.7,1.4,10.4-0.4,14.9-1.5c0.1,0,0.3-0.1,0.4-0.2c0.4-0.1,0.8-0.2,1.2-0.3
				c0.8-0.2,0.6-0.8,0.2-1.3c0.6-0.1,1.2-0.3,1.7-0.4C679.5,586.8,679.8,586.1,678.9,585.5z"/>
			<path class="st2" d="M491.7,586.9c-0.1-11.5-0.8-22.9-2.1-34.3c-0.1-1.3-3-1-3.7-0.9c-0.2,0-0.6,0-1.2,0c0,0,0,0,0-0.1
				c-0.2-0.7-0.4-1.1-1.1-1.1c-0.1,0-0.2,0-0.3,0.1c-0.1-0.1-0.2-0.2-0.3-0.2c-0.3-0.1-0.7,0.1-0.9,0.4c-0.3-0.2-0.6-0.3-0.5-0.2
				c0,0.2,0,0.4,0,0.7c-0.1,0-0.2,0.1-0.2,0.1c-0.2-0.2-0.4-0.2-0.4-0.2c0,0.4,0.1,0.9,0.1,1.4c-0.1,0.2-0.2,0.3-0.2,0.6
				c-0.1,0-0.3,0.1-0.4,0.2c-0.2-0.1-0.4-0.2-0.6-0.2c-0.1,0-0.3,0-0.4,0.1c-0.5-0.2-1-0.2-1.2,0.4c0,0.1-0.1,0.2-0.1,0.4
				c-0.2,0-0.4,0-0.4,0.2c0,0.1-0.1,0.2-0.1,0.3c-0.3-0.1-0.5-0.1-0.5,0c-0.1,0.3-0.2,0.6-0.3,1c0,0,0,0,0,0
				c-0.7,2.3-1.4,4.6-2.1,6.9c-1.5,4.7-3,9.4-4.7,14c-0.9-1.8-1.8-3.6-2.6-5.4c-2.4-5-4.7-10-6.9-15.1c-0.2-0.2-0.5-0.4-0.8-0.5
				c0-0.1,0-0.2,0-0.3c0-1.3-2.9-1.2-3.6-1.3c-0.2,0-0.6-0.1-1.1-0.1c-0.1-0.6-0.3-1-1-1.1c-0.1,0-0.3,0-0.5,0
				c-0.1-0.1-0.1-0.1-0.2-0.1c-0.2-0.1-0.6,0-0.9,0.2c-0.2-0.2-0.5-0.4-0.5-0.1c0,0.2,0,0.4,0,0.6c-0.1,0-0.1,0-0.2,0
				c-0.1-0.2-0.4-0.4-0.4-0.1c0,0.2,0,0.4,0,0.6c-0.1,0-0.1,0.1-0.2,0.1c-0.3,0.1-0.6,0.4-0.6,0.8c0,0.1-0.1,0.1-0.1,0.2
				c-0.2,0.1-0.4,0.2-0.4,0.2c0,0.2,0,0.4,0,0.6c-0.2,0-0.4,0.1-0.4,0.2c0,10.4,0,20.9,0,31.3c0,0.1,0,0.1,0.1,0.1
				c0,0.3,0,0.6,0,0.9c0,0.2,0.4,0.3,0.8,0.4c0,0.1,0,0.2,0,0.4c0,0.6,0.2,0.9,0.7,1c0.1,0,0.3,0,0.5,0c0,0,0,0,0.1,0
				c0.1,0,0.1,0,0.2,0c0.4,0.7,0.9,1.3,1.3,1.5c0.4,0.2,0.8,0.1,1-0.2c0,0,0.1,0.1,0.1,0.1c0.3,0.2,2.1,1.5,2.1,0.1
				c0-0.1,0-0.3,0-0.4c0.6,0.2,1.3,0.3,1.3-0.6c0-0.5,0-1,0-1.5c0.8,0.1,1.4,0,1.4-0.6c0-0.6,0-1.2,0-1.8c0.2-0.1,0.3-0.3,0.3-0.5
				c0-2.7,0-5.5,0-8.2c1.7,3.4,3.6,6.7,5.6,10c0,0,0.1,0.1,0.1,0.1c0.3,0.4,0.5,0.9,0.8,1.3c0.2,0.4,0.8,0.4,1.3,0.1c0,0,0,0,0,0
				c0.4,0.6,0.9,1.4,1.6,1.3c0.2,0,0.3-0.1,0.4-0.2c0.3,0.2,0.5,0.3,0.8,0.4c0.5,0.1,1-0.2,1.1-0.6c0.2,0.1,0.4,0.2,0.7,0.3
				c1,0.1,1.3-0.6,0.8-1.4c-0.2-0.3-0.3-0.6-0.5-0.9c0.1,0,0.3,0,0.4,0.1c0.4,0,2.8,0.3,2-1c0-0.1-0.1-0.1-0.1-0.2
				c0.2-0.3,0.3-0.7,0.5-1c0.9,0,1.7-0.1,2-0.8c1.4-3.8,2.8-7.7,4-11.6c0.1,1.9,0.2,3.8,0.3,5.6c0.1,2.3,0.2,4.6,0.2,6.9
				c0,0.4,0,0.7,0,1.1c0,0,0,0,0,0c0,0.7,0.1,1.4,0.1,2.1c0,0.1,0.3,0.2,0.7,0.2c0,0,0.1,0,0.1,0c0,0.3,0,0.6,0,0.9
				c0,0.5,0.6,0.5,1.1,0.4c0,0,0,0,0.1,0c0,0,0,0,0,0c0.4,0.7,1.4,1.1,2,0.8c0.7,0.4,1.4,0.5,1.6-0.1c0.8,0.3,1.8,0.5,1.8-0.7
				c0-0.3,0-0.6,0-0.9c1,0.1,2.1,0,2-0.7c0-0.6,0-1.2-0.1-1.9C491.7,587.3,491.7,587.1,491.7,586.9z"/>
			<path class="st2" d="M591.1,585.6c-0.1-10.4-0.1-20.8-0.1-31.3c0-1.3-3.1-1-3.7-1c-0.1,0-0.2,0-0.3,0c-0.1-0.2-0.2-0.3-0.3-0.4
				c0-0.8-0.5-1.1-1.3-1c-0.1,0-0.3,0.1-0.5,0.1c-0.1-0.1-0.2-0.2-0.4-0.2c-0.1,0-0.4,0-0.7,0.1c-0.4-0.3-0.9-0.3-0.9,0.3
				c0,0.1,0,0.3,0,0.4c-0.1,0-0.1,0-0.2,0c-0.3-0.2-0.5-0.2-0.5,0c0,0.1,0,0.2,0,0.3c-0.3-0.1-0.6-0.2-0.6-0.2c0,0.2,0,0.5,0,0.7
				c-0.1,0.1-0.1,0.2-0.1,0.3c-0.1-0.1-0.2-0.1-0.2-0.2c0,0.4,0,0.7,0,1.1c0,0,0,0,0,0c0,0.1,0,0.2,0,0.3c-0.2,0-0.4,0.1-0.4,0.2
				c0,7.1,0,14.1,0.1,21.2c-2-2.4-3.9-4.8-5.7-7.3c-2.7-3.7-4.8-7.5-6.8-11.6c-0.5-0.4-1.1-0.6-1.7-0.6c-0.2,0-0.4,0-0.6,0
				c0-0.8,0-1.6,0.1-2.4c0-1.3-2.9-1.2-3.6-1.3c-0.2,0-0.7-0.1-1.3-0.1c-0.1-0.6-0.3-1-0.9-1c-0.1,0-0.2,0-0.4,0
				c-0.1-0.1-0.1-0.1-0.2-0.1c-0.2-0.1-0.8,0-1,0.3c-0.2-0.2-0.4-0.3-0.4-0.2c0,0.2,0,0.4,0,0.6c-0.1,0-0.1,0-0.2,0.1
				c-0.1-0.2-0.3-0.4-0.3-0.2c0,0.2,0,0.4,0,0.7c0,0-0.1,0.1-0.1,0.1c-0.3,0.1-0.6,0.4-0.6,0.9c0,0,0,0,0,0c0,0,0,0.1-0.1,0.1
				c-0.2,0.1-0.4,0.2-0.4,0.3c0,0.2,0,0.4,0,0.6c-0.2,0-0.4,0.1-0.4,0.1c-0.5,10.6-0.5,21.1-0.2,31.7c0,0.1,0,0.1,0.1,0.1
				c0,0.3,0,0.6,0,0.8c0,0.3,0.3,0.4,0.7,0.5c0,0,0,0,0,0.1c0,0.6,0.2,1.3,0.9,1.4c0.1,0,0.3,0,0.4,0c0.1,0.1,0.2,0.1,0.2,0.2
				c0.1,0.1,0.3,0.1,0.4,0.1c0,0,0,0.1,0.1,0.1c0.4,0.7,0.9,1.3,1.5,1.9c0.7,0.4,1.2,0.1,1.3-0.5c0.7,0.4,1.6,0.9,1.6-0.1
				c0-0.2,0-0.4,0-0.7c0.5,0.1,1,0.1,1-0.7c0-0.5,0-1.1,0-1.6c0.8,0.1,1.5,0,1.4-0.5c0-0.6,0-1.1,0-1.7c0.2-0.1,0.3-0.3,0.3-0.6
				c-0.1-4.5-0.2-8.9-0.2-13.4c4,5.6,8.7,10.8,13.1,16c0.2,0.2,0.5,0.1,0.9,0c0.1,0.1,0.2,0.1,0.3,0.2c0.3,0.4,0.6,0.7,0.9,1.1
				c0.5,0.5,1.3,1.1,1.8,0.4c0.4,0.4,0.9,0.7,1.4,0.8c0.2,0,0.4-0.1,0.5-0.2c0.2,0,0.5-0.1,0.7-0.2c0.1,0,0.1,0.1,0.2,0.1
				c0.4,0.3,1.9,1.1,1.9-0.1c0,0,0,0,0,0c0.7,0.3,1.9,0.7,1.8-0.5c0-0.5,0-1,0-1.5c0.8,0,1.4-0.1,1.4-0.6c0-0.6,0-1.2,0-1.8
				C591,586,591.1,585.8,591.1,585.6z"/>
			<path class="st2" d="M434.7,576.9c0-0.4-0.1-0.7-0.2-1c-0.1-1.1-0.4-2.1-1-3c-0.6-1.3-1.6-2.2-3-2.8c-0.3-0.1-0.6-0.2-0.9-0.3
				c-0.1-0.6-1.3-0.7-1.9-0.7c-0.3-0.2-0.5-0.3-0.8-0.4c-0.2-0.1-0.5-0.2-0.7-0.3c-0.2-0.1-0.4-0.2-0.7-0.3
				c-0.1-0.3-0.4-0.6-0.8-0.5c-0.3,0-0.5,0-0.8,0c-1.7-0.4-3.7-0.3-5.4-0.4c-1.1-0.1-2.2-0.2-3.4-0.3c-0.7-0.1-1.5-0.2-2.2-0.3
				c0,0,0,0,0,0c-0.1,0-0.3-0.1-0.4-0.1c-0.3-0.1-0.6-0.1-0.9-0.2c0,0,0,0-0.1-0.1c-0.2-0.5-0.3-1-0.5-1.5c0-0.1,0-0.1,0.1-0.2
				c0.2-0.7,0.6-1.3,1.2-1.8c0.8-0.4,1.7-0.8,2.6-1.1c0.9-0.3,1.8-0.5,2.5-0.7c3.3-0.8,6.6-1.2,10-1.7c0.3-0.1,0.5-0.2,0.6-0.4
				c0,0,0.1,0,0.1,0c0.6-0.1,1.1-0.6,0.9-1.3c0.4,0,0.7-0.1,1.1-0.1c0.9-0.1,0.9-1.1,0.4-1.6c-0.1-0.1-0.2-0.1-0.3-0.2
				c0.2-0.1,0.3-0.3,0.3-0.5c0.2-0.8-0.5-1.1-1.2-1.1c-0.5,0-1,0-1.6,0c0-0.5-0.3-1.2-0.8-1.2c-0.2,0-0.5-0.1-0.7-0.1
				c-0.1-0.1-0.2-0.1-0.4-0.1c-1.1-0.2-2.1-0.2-3.1-0.1c0-0.1-0.1-0.3-0.1-0.4c-0.4-0.5-1.6-0.6-2.3-0.5c-0.1-0.4-0.4-1.1-0.8-1
				c-0.2,0-0.3,0.1-0.5,0.1c-0.2-0.2-0.3-0.3-0.4-0.2c-0.3,0-0.6,0.1-0.9,0.1c-0.1,0-0.1-0.1-0.2,0c-2.9,0.3-5.5,0.9-8.1,2.4
				c-1.5,0.9-2.9,2-4.1,3.2c-1.2,1-2.2,2.1-3.1,3.5c-0.7,1-1.1,2.2-1.2,3.3c-0.4,1.1-0.6,2.2-0.5,3.3c-0.2,1.4,0.1,2.7,1,3.8
				c0.1,0.1,0.1,0.1,0.2,0.2c0.7,1.7,2.1,2.6,3.7,3.1c0.2,0.1,0.3,0.3,0.5,0.4c1.3,0.8,2.6,1.1,4.2,1.1c0,0,0,0,0,0
				c0.4,0.1,0.9,0.1,1.4,0.1c2.8,0.1,5.7,0.1,8.6,0.1c0.1,0.1,0.3,0.1,0.4,0.2c0.3,0.1,0.7,0.1,1,0.1c0,0,0.1,0,0.1,0
				c0.8,0.2,1.5,0.2,2.4,0.2c0,0,0,0,0.1,0c0.1,0.1,0.2,0.1,0.2,0.2c0.2,0.5,0.4,1,0.6,1.6c0,0.2,0,0.3,0.1,0.5
				c-0.3,1.1-0.9,2.1-1.6,2.9c-0.3,0.3-0.6,0.7-0.9,1c-0.4,0.3-0.8,0.5-1.3,0.7c-0.5,0.1-1,0.2-1.5,0.3c-0.6,0.1-1.2,0.2-1.8,0.2
				c-0.2,0-0.4,0-0.5,0c-0.1,0-0.2,0-0.3,0c-0.3,0-0.6,0-0.8,0c0,0-0.1,0-0.1,0c-2.1-0.4-4-1.3-6-2.4c-0.4-0.2-1,0-1.6,0.4
				c0,0,0,0-0.1,0c-0.4-0.2-1-0.1-1.5,0.2c0,0,0,0-0.1,0c-0.8-0.4-1.5,0.3-1.6,1.1c-0.4,0-0.8,0-0.9,0.1c-0.2,0.2-0.4,0.5,0,0.6
				c0.1,0.1,0.2,0.1,0.3,0.2c0,0.1,0,0.2,0.1,0.4c-0.5,0.2-0.9,0.5-0.8,0.6c0.1,0.1,0.2,0.1,0.3,0.1c0,0,0,0,0,0.1
				c0,0.1,0,0.2,0,0.2c0,0,0,0.1,0,0.1c-0.1,0-0.1-0.1-0.2-0.1c-0.2-0.1-0.3,0-0.1,0.1c0.1,0.1,0.2,0.2,0.3,0.3c0,0,0,0,0,0
				c0,0,0,0,0,0c0,0.2,0.1,0.3,0.2,0.4c-0.1,0.1-0.1,0.3,0,0.4c-0.5,0-0.8,0.1-0.5,0.2c0.3,0.2,0.7,0.4,1.1,0.5
				c-0.4,0.3-0.5,0.7,0,1c0.6,0.3,1.1,0.6,1.7,0.8c0.1,0.1,0.3,0.2,0.4,0.3c2.6,1.3,5.2,2.2,8,2.4c2.1,0.3,4.2,0.3,6.4-0.3
				c0,0,0,0,0.1,0c1.9-0.3,3.7-1,5.3-2c0.1,0,0.1,0,0.2-0.1c1-0.4,1.9-0.9,2.7-1.6C433.6,585,435.1,581.2,434.7,576.9z"/>
			<path class="st2" d="M639.8,553.8c-0.5-0.4-1-0.6-1.7-0.6c-0.8-0.1-1.6-0.2-2.4-0.2c-0.1-0.1-0.1-0.2-0.2-0.2c0-0.5-0.1-1-0.6-1
				c-0.4,0-0.8,0-1.1,0c-0.1-0.1-0.2-0.1-0.3-0.1c-0.3,0-0.6,0-0.9,0c-0.1,0-0.1-0.1-0.2-0.1c-9.6-0.1-19.2,0-28.8,0
				c-0.2,0-0.2,0.3,0,0.6c-0.2,0-0.4,0-0.6,0c-0.1,0-0.1,0.1-0.1,0.3c-0.2,0-0.5,0-0.7,0c0.2,0,0.5,0.2,0.7,0.5c0,0,0,0,0,0
				c-0.3,0.1-0.5,0.5-0.6,0.9c-0.2,0.1-0.4,0.1-0.6,0.1c0.2,0,0.4,0,0.6,0c0,0.1,0,0.1,0,0.2c-0.2,0-0.3,0.1-0.4,0.2
				c-0.1,0.1-0.3,0.3,0.1,0.3c0,0,0.1,0,0.1,0c0,0,0,0,0,0.1c-0.2,0-0.4,0-0.5,0c-0.3,0-0.3,0.2,0,0.3c0.1,0.1,0.3,0.1,0.4,0.1
				c0,0.1,0,0.3,0.1,0.4c0,0,0,0-0.1,0c-0.3,0-0.6,0-0.5,0.4c0.1,0.2,0.4,0.2,0.8,0.3c0,0.1-0.1,0.1-0.1,0.2
				c-0.1,0.5,0.1,1.4,0.7,1.4c0.3,0,0.6,0,0.9,0.1c0,0,0,0,0,0c0.5,1,1.2,2.3,2,2.4c3.1,0.3,6.2,0.5,9.2,0.6
				c-0.4,8.2-1,16.4-1.7,24.6c0,0.1,0,0.2,0.1,0.3c0,0.2,0,0.5-0.1,0.7c0,0.4,0.3,0.7,0.8,0.8c0,0.7,0.1,1.5,0.8,1.8
				c0.2,0.1,0.4,0.1,0.6,0c0.1,0.1,0.1,0.1,0.2,0.2c0.2,0.1,0.4,0.2,0.6,0.2c0.3,0.4,0.5,0.8,0.8,1.2c0.3,0.6,0.7,1,1.2,1.2
				c0.4,0.1,0.7-0.1,0.8-0.4c0-0.2,0-0.4,0-0.6c0.6,0.4,1.2,0.6,1.3-0.3c0-0.2,0-0.5,0-0.7c0.5,0.2,1,0.1,1-0.6
				c0-0.5,0.1-1.1,0.1-1.6c0.7,0.1,1.3,0.1,1.4-0.5c0.1-0.6,0.1-1.2,0.1-1.9c0.1-0.1,0.2-0.3,0.2-0.4c0.8-7.8,1.3-15.7,1.7-23.5
				c3.2,0,6.5,0,9.7,0c0.6,0,0.8-0.3,0.9-0.8c0.2,0,0.4,0,0.6,0c0.8,0,0.8-0.6,0.6-1.2c0.2,0,0.5,0,0.7,0c1.6,0-0.4-2.1-0.5-2.2
				c0,0-0.1-0.1-0.1-0.1c0.6,0,1.2,0,1.7,0c1.1,0,1.3-0.9,0.5-1.5c-0.3-0.2-0.6-0.3-0.8-0.4C639.1,555.1,640.5,554.9,639.8,553.8z"
				/>
		</g>
		<g>
			<path class="st2" d="M476.5,664.2c-0.1-1.3-0.2-2.7-0.3-4c-0.3-2.2-0.6-4.5-1.7-6.5c-1.5-2.7-4.1-3.7-6.8-4.2
				c-1-0.8-2.2-1.2-3.6-1.4c-0.6-0.1-1.2-0.2-1.8-0.2c-4.1-0.6-8.6,1.6-11.8,4.4c-2.1,1.4-3.8,3.4-5,5.7c-0.6,1.1-0.9,2.2-1.1,3.3
				c-0.2,0.5-0.3,0.9-0.5,1.4c-0.4,1.9-0.5,3.8-0.3,5.8c0,0.2,0,0.4,0.1,0.5c0,0.1,0,0.3,0,0.4c0.6,6.7,1.3,13.4,2.1,20.1
				c0,0.1,0.3,0.1,0.6,0.1c0,0.4,0.1,0.8,0.1,1.2c0,0.2,0.4,0.3,0.8,0.2c0.1,0.1,0.3,0.1,0.4,0.1c0.2,0.5,0.6,1,1,1
				c0.2,0,0.5,0,0.8-0.2c0.7,0.3,1.3,0.4,1.6-0.3c0.7,0.2,1.2,0,1.2-0.8c0-0.2,0-0.4,0-0.6c1.6,0.2,3,0.1,3-0.4c-0.2-2-0.4-4-0.6-6
				c-0.1-1.3-0.2-2.7-0.3-4c4.4-0.1,8.8-0.4,13.2-0.8c0.1,3,0.2,6,0.3,8.9c0,0.2,0.4,0.5,0.8,0.6c0,0.1,0,0.2,0,0.3
				c0,0.9,0.8,1.1,1.4,0.9c0.1,0,0.1,0,0.2,0.1c0,0,0,0,0,0c0.3,0.6,0.7,1.1,1,1.3c0.4,0.2,0.9,0.1,1.2-0.2c0,0,0.1,0,0.1,0.1
				c0.4,0.2,1.5,0.8,1.6-0.2c0-0.1,0-0.2,0-0.3c0.6,0.3,1.3,0.4,1.4-0.5c0-0.5,0-0.9,0-1.4c1.1,0.1,2,0,2-0.4
				C477.3,680.5,477.5,672.2,476.5,664.2z M453.5,667.5c-0.1-1.3,0-2.5,0.2-3.8c0.1-0.6,0.3-1.1,0.6-1.6c0.2-0.3,0.4-0.6,0.7-0.8
				c0,0,0,0,0,0c1.3-1.1,2.7-2.1,4.2-2.9c0.4-0.1,0.9-0.2,1.3-0.3c1.6-0.1,3.2-0.2,4.8-0.3c0.2,0,0.3,0.1,0.5,0.2
				c0.4,1.2,0.7,2.6,0.9,4c0.4,2.9,0.6,5.7,0.7,8.6c-4.5,0.8-9,1.6-13.5,2.3C453.7,670.9,453.5,669.2,453.5,667.5z"/>
			<path class="st2" d="M572,660.6c-2.2-4.5-6-6.8-10.4-8.1c-1.2-0.6-2.4-1.1-3.6-1.5c-2.7-0.9-5.4-1.1-8.2-1.1c-0.2,0-0.4,0-0.6,0
				c-2.3-0.1-4.6,0-7,0.2c-0.4,0-0.5,0.2-0.5,0.4c0,0-0.1,0.1-0.1,0.1c0,0.1,0,0.2,0,0.2c-0.1,0-0.3,0-0.4,0c-0.2,0-0.2,0.1-0.1,0.3
				c-0.1,0-0.1,0-0.1,0c-0.2,0-0.4,0-0.5,0c0.1,0,0.3,0.1,0.5,0.2c0,0.2,0,0.4,0,0.6c-0.1,0.1-0.1,0.2-0.2,0.3c-0.2,0-0.5,0-0.7,0
				c0.1,0,0.4,0,0.7,0c0,0.1-0.1,0.3-0.1,0.4c-0.1,0.1-0.2,0.2-0.3,0.4c-0.2,0.1-0.3,0.1-0.3,0.2c0,0,0,0,0,0c-0.1,0-0.2,0-0.2,0
				c0,0,0.1,0,0.2,0.1c0,0,0,0.1,0,0.1c-0.2,0-0.4,0-0.4,0c-0.2,9.3-0.1,18.6,0,27.8c0,0,0,0,0,0c0,0.4,0,0.7,0,1.1
				c0,0.2,0.4,0.4,0.8,0.5c0,0.1,0,0.2,0,0.3c0,0.6,0.1,0.9,0.7,1c0.1,0,0.3,0,0.5,0c0.1,0,0.2,0,0.2,0c0.3,0.6,0.8,1.1,1.2,1.3
				c0.3,0.1,0.7,0,1-0.2c0.4,0.3,1.8,1,1.8-0.1c0,0,0,0,0,0c0.7,0.3,1.7,0.6,1.8-0.5c0-0.5,0-1,0-1.5c0.9,0,1.6-0.1,1.6-0.5
				c0-0.6,0-1.2,0-1.8c0.1-0.1,0.2-0.3,0.2-0.5c-0.1-4.6-0.1-9.2-0.1-13.8c0.1-2.9,0.1-5.7-0.1-8.6c0.2,0,0.5,0,0.7,0
				c1.5,0,3,0.2,4.4,0.5c0.2,0,0.3,0.1,0.5,0.1c1.8,0.5,3.4,1,4.8,1.7c0.7,0.6,1.4,1.3,2,2c0.5,0.9,0.8,2,1,3.1
				c0.2,0.6,0.4,1.2,0.5,1.7c0,1.1-0.1,2.1-0.3,3.2c-0.2,0.7-0.5,1.5-0.9,2.2c-2,4.3-5.4,7.4-9.1,10c-0.5,0.3-1.1,0.6-1.6,0.9
				c-0.2,0.1-0.4,0.3-0.5,0.5c-0.4,0.3-0.8,0.5-1.3,0.8c-0.4,0.2,0.5,0.4,0.5,0.4c0,0,0.1,0,0.1,0c0,0.1,0.1,0.2,0.1,0.2
				c0,0,0,0,0,0c-0.3,0.2-0.6,0.4-0.9,0.5c-0.3,0.2,0,0.1,0.4,0.1c0,0,0,0,0,0c0,0-0.1,0-0.1,0.1c0,0,0.1,0,0.1,0
				c0,0.1-0.1,0.2-0.1,0.2c-0.2,0.1-0.4,0.2-0.6,0.3c0,0,0.3,0.3,0.7,0.6c0,0,0,0.1,0,0.1c-0.2,0.1-0.4,0.3-0.6,0.4
				c-0.2,0.1,0.7,0.5,1.3,0.6c0,0,0,0,0,0c-0.1,0.1-0.2,0.1-0.3,0.2c-0.3,0.2-0.1,0.8,0.2,1c0.2,0.1,0.7,0.1,1-0.1
				c0.4,0.8,1.2,1.4,1.9,1c0.4,0.3,0.9,0.5,1.1,0.3c0.2-0.1,0.5-0.3,0.7-0.4c0.4,0.2,0.8,0.2,1,0.1c4.7-2.8,9.3-5.9,12.4-10.3
				c1-1.3,2-2.7,2.7-4.2c1.1-2.1,1.6-4.5,1.7-6.9C573.6,666.2,573.3,663.3,572,660.6z"/>
			<path class="st2" d="M527,684.6c-0.1-10.4-0.1-20.8-0.1-31.3c0-1.3-3.1-1-3.7-1c-0.1,0-0.2,0-0.3,0c-0.1-0.2-0.2-0.3-0.3-0.4
				c0-0.8-0.5-1.1-1.3-1c-0.1,0-0.3,0.1-0.5,0.1c-0.1-0.1-0.2-0.2-0.4-0.2c-0.1,0-0.4,0-0.7,0.1c-0.4-0.3-0.9-0.3-0.9,0.3
				c0,0.1,0,0.3,0,0.4c-0.1,0-0.1,0-0.2,0c-0.3-0.2-0.5-0.2-0.5,0c0,0.1,0,0.2,0,0.3c-0.3-0.1-0.6-0.2-0.6-0.2c0,0.2,0,0.5,0,0.7
				c-0.1,0.1-0.1,0.2-0.1,0.3c-0.1-0.1-0.2-0.1-0.2-0.2c0,0.4,0,0.7,0,1.1c0,0,0,0,0,0c0,0.1,0,0.2,0,0.3c-0.2,0-0.4,0.1-0.4,0.2
				c0,7.1,0,14.1,0.1,21.2c-2-2.4-3.9-4.8-5.7-7.3c-2.7-3.7-4.8-7.5-6.8-11.6c-0.5-0.4-1.1-0.6-1.7-0.6c-0.2,0-0.4,0-0.6,0
				c0-0.8,0-1.6,0.1-2.4c0-1.3-2.9-1.2-3.6-1.3c-0.2,0-0.7-0.1-1.3-0.1c-0.1-0.6-0.3-1-0.9-1c-0.1,0-0.2,0-0.4,0
				c-0.1-0.1-0.1-0.1-0.2-0.1c-0.2-0.1-0.8,0-1,0.3c-0.2-0.2-0.4-0.3-0.4-0.2c0,0.2,0,0.4,0,0.6c-0.1,0-0.1,0-0.2,0.1
				c-0.1-0.2-0.3-0.4-0.3-0.2c0,0.2,0,0.4,0,0.7c0,0-0.1,0.1-0.1,0.1c-0.3,0.1-0.6,0.4-0.6,0.9c0,0,0,0,0,0c0,0,0,0.1-0.1,0.1
				c-0.2,0.1-0.4,0.2-0.4,0.3c0,0.2,0,0.4,0,0.6c-0.2,0-0.4,0.1-0.4,0.1c-0.5,10.6-0.5,21.1-0.2,31.7c0,0.1,0,0.1,0.1,0.1
				c0,0.3,0,0.6,0,0.8c0,0.3,0.3,0.4,0.7,0.5c0,0,0,0,0,0.1c0,0.6,0.2,1.3,0.9,1.4c0.1,0,0.3,0,0.4,0c0.1,0.1,0.2,0.1,0.2,0.2
				c0.1,0.1,0.3,0.1,0.4,0.1c0,0,0,0.1,0.1,0.1c0.4,0.7,0.9,1.3,1.5,1.9c0.7,0.4,1.2,0.1,1.3-0.5c0.7,0.4,1.6,0.9,1.6-0.1
				c0-0.2,0-0.4,0-0.7c0.5,0.1,1,0.1,1-0.7c0-0.5,0-1.1,0-1.6c0.8,0.1,1.5,0,1.4-0.5c0-0.6,0-1.1,0-1.7c0.2-0.1,0.3-0.3,0.3-0.6
				c-0.1-4.5-0.2-8.9-0.2-13.4c4,5.6,8.7,10.8,13.1,16c0.2,0.2,0.5,0.1,0.9,0c0.1,0.1,0.2,0.1,0.3,0.2c0.3,0.4,0.6,0.7,0.9,1.1
				c0.5,0.5,1.3,1.1,1.8,0.4c0.4,0.4,0.9,0.7,1.4,0.8c0.2,0,0.4-0.1,0.5-0.2c0.2,0,0.5-0.1,0.7-0.2c0.1,0,0.1,0.1,0.2,0.1
				c0.4,0.3,1.9,1.1,1.9-0.1c0,0,0,0,0,0c0.7,0.3,1.9,0.7,1.8-0.5c0-0.5,0-1,0-1.5c0.8,0,1.4-0.1,1.4-0.6c0-0.6,0-1.2,0-1.8
				C526.9,685.1,527,684.9,527,684.6z"/>
			<path class="st2" d="M691.1,657.7c-1-1.7-2.4-3.1-4.1-4.2c-1.5-0.9-3.2-1.5-4.9-1.9c-1.2-0.7-2.5-1.2-3.8-1.5
				c-0.6-0.1-1.1-0.2-1.7-0.3c-0.5-0.1-1.1-0.2-1.6-0.2c-2.8-0.4-5.5,0-8.1,1.1c-0.8-0.3-1.9-0.3-2.5-0.3c-0.2,0-0.7-0.1-1.3-0.1
				c-0.1-0.6-0.3-0.9-0.9-1c-0.1,0-0.2,0-0.4,0c-0.1-0.1-0.1-0.1-0.2-0.2c-0.2-0.1-0.8,0-0.9,0.3c-0.3-0.2-0.5-0.4-0.5-0.2
				c0,0.2,0,0.4,0,0.6c-0.1,0-0.2,0.1-0.3,0.2c-0.2-0.2-0.4-0.3-0.4-0.3c0,0.3,0,0.5,0.1,0.8c-0.3,0.1-0.4,0.3-0.5,0.7
				c-0.4-0.1-0.7-0.1-0.7-0.2c0,0.4,0.1,0.8,0.1,1.3c-0.2,0-0.4,0-0.4,0c0,0.3,0,0.6,0.1,0.9c0,0,0,0,0,0c0.3,5,0.6,10,0.8,15
				c0,0.8,0.1,1.6,0.1,2.4c0.3,6,0.4,12,0.3,18c0,0.1,0,0.1,0.1,0.2c0,0.3,0,0.6,0,0.9c0,0.3,0.4,0.4,0.8,0.5c0,0.1,0,0.1,0,0.2
				c0,0.6,0.1,1,0.7,1.2c0.1,0,0.3,0,0.5,0c0,0,0,0,0,0c0.1,0,0.2,0,0.3,0c0.4,0.6,0.9,1.3,1.3,1.4c0.4,0.2,0.8,0.1,1.1-0.2
				c0,0,0,0,0,0c0.3,0.3,2,1.4,2,0.1c0-0.1,0-0.2,0-0.3c0.7,0.3,1.4,0.4,1.4-0.6c0-0.5,0-1,0-1.5c0.8,0.1,1.4,0,1.4-0.6
				c0-0.6,0-1.2,0-1.8c0.1-0.1,0.2-0.3,0.2-0.5c0.1-2.1,0.1-4.2,0.1-6.3c4.2-0.4,8.6-0.7,12.2-2.6c1.9-0.8,3.6-2,5.1-3.6
				c1.1-0.9,2-2.1,2.8-3.4c0-0.1,0.1-0.1,0.1-0.2c0.2-0.2,0.4-0.4,0.5-0.6c1.4-1.7,2.2-3.7,2.3-5.7c0.2-0.7,0.4-1.4,0.4-2.1
				C693,660.8,692.1,659.5,691.1,657.7z M681,667.2c-0.3,0.3-0.6,0.6-0.9,0.9c-3.1,2.3-7.1,3.2-11,3.5c0-0.6,0-1.2-0.1-1.9
				c-0.1-3.1-0.2-6.1-0.5-9.2c0.7-0.3,1.4-0.6,2.2-0.9c1.6-0.2,3.2-0.5,4.8-0.7c1.6,0.2,3.1,0.6,4.7,1.1c0.2,0,0.3,0.1,0.4,0.1
				c0.4,0.4,0.8,0.8,1.2,1.3C681.6,663.4,681.3,665.3,681,667.2z"/>
			<path class="st2" d="M385.6,676c0-0.4-0.1-0.7-0.2-1c-0.1-1.1-0.4-2.1-1-3c-0.6-1.3-1.6-2.2-3-2.8c-0.3-0.1-0.6-0.2-0.9-0.3
				c-0.1-0.6-1.3-0.7-1.9-0.7c-0.3-0.2-0.5-0.3-0.8-0.4c-0.2-0.1-0.5-0.2-0.7-0.3c-0.2-0.1-0.4-0.2-0.7-0.3
				c-0.1-0.3-0.4-0.6-0.8-0.5c-0.3,0-0.5,0-0.8,0c-1.7-0.4-3.7-0.3-5.4-0.4c-1.1-0.1-2.2-0.2-3.4-0.3c-0.7-0.1-1.5-0.2-2.2-0.3
				c0,0,0,0,0,0c-0.1,0-0.3-0.1-0.4-0.1c-0.3-0.1-0.6-0.1-0.9-0.2c0,0,0,0-0.1-0.1c-0.2-0.5-0.3-1-0.5-1.5c0-0.1,0-0.1,0.1-0.2
				c0.2-0.7,0.6-1.3,1.2-1.8c0.8-0.4,1.7-0.8,2.6-1.1c0.9-0.3,1.8-0.5,2.5-0.7c3.3-0.8,6.6-1.2,10-1.7c0.3-0.1,0.5-0.2,0.6-0.4
				c0,0,0.1,0,0.1,0c0.6-0.1,1.1-0.6,0.9-1.3c0.4,0,0.7-0.1,1.1-0.1c0.9-0.1,0.9-1.1,0.4-1.6c-0.1-0.1-0.2-0.1-0.3-0.2
				c0.2-0.1,0.3-0.3,0.3-0.5c0.2-0.8-0.5-1.1-1.2-1.1c-0.5,0-1,0-1.6,0c0-0.5-0.3-1.2-0.8-1.2c-0.2,0-0.5-0.1-0.7-0.1
				c-0.1-0.1-0.2-0.1-0.4-0.1c-1.1-0.2-2.1-0.2-3.1-0.1c0-0.1-0.1-0.3-0.1-0.4c-0.4-0.5-1.6-0.6-2.3-0.5c-0.1-0.4-0.4-1.1-0.8-1
				c-0.2,0-0.3,0.1-0.5,0.1c-0.2-0.2-0.3-0.3-0.4-0.2c-0.3,0-0.6,0.1-0.9,0.1c-0.1,0-0.1-0.1-0.2,0c-2.9,0.3-5.5,0.9-8.1,2.4
				c-1.5,0.9-2.9,2-4.1,3.2c-1.2,1-2.2,2.1-3.1,3.5c-0.7,1-1.1,2.2-1.2,3.3c-0.4,1.1-0.6,2.2-0.5,3.3c-0.2,1.4,0.1,2.7,1,3.8
				c0.1,0.1,0.1,0.1,0.2,0.2c0.7,1.7,2.1,2.6,3.7,3.1c0.2,0.1,0.3,0.3,0.5,0.4c1.3,0.8,2.6,1.1,4.2,1.1c0,0,0,0,0,0
				c0.4,0.1,0.9,0.1,1.4,0.1c2.8,0.1,5.7,0.1,8.6,0.1c0.1,0.1,0.3,0.1,0.4,0.2c0.3,0.1,0.7,0.1,1,0.1c0,0,0.1,0,0.1,0
				c0.8,0.2,1.5,0.2,2.4,0.2c0,0,0,0,0.1,0c0.1,0.1,0.2,0.1,0.2,0.2c0.2,0.5,0.4,1,0.6,1.6c0,0.2,0,0.3,0.1,0.5
				c-0.3,1.1-0.9,2.1-1.6,2.9c-0.3,0.3-0.6,0.7-0.9,1c-0.4,0.3-0.8,0.5-1.3,0.7c-0.5,0.1-1,0.2-1.5,0.3c-0.6,0.1-1.2,0.2-1.8,0.2
				c-0.2,0-0.4,0-0.5,0c-0.1,0-0.2,0-0.3,0c-0.3,0-0.6,0-0.8,0c0,0-0.1,0-0.1,0c-2.1-0.4-4-1.3-6-2.4c-0.4-0.2-1,0-1.6,0.4
				c0,0,0,0-0.1,0c-0.4-0.2-1-0.1-1.5,0.2c0,0,0,0-0.1,0c-0.8-0.4-1.5,0.3-1.6,1.1c-0.4,0-0.8,0-0.9,0.1c-0.2,0.2-0.4,0.5,0,0.6
				c0.1,0.1,0.2,0.1,0.3,0.2c0,0.1,0,0.2,0.1,0.4c-0.5,0.2-0.9,0.5-0.8,0.6c0.1,0.1,0.2,0.1,0.3,0.1c0,0,0,0,0,0.1
				c0,0.1,0,0.2,0,0.2c0,0,0,0.1,0,0.1c-0.1,0-0.1-0.1-0.2-0.1c-0.2-0.1-0.3,0-0.1,0.1c0.1,0.1,0.2,0.2,0.3,0.3c0,0,0,0,0,0
				c0,0,0,0,0,0c0,0.2,0.1,0.3,0.2,0.4c-0.1,0.1-0.1,0.3,0,0.4c-0.5,0-0.8,0.1-0.5,0.2c0.3,0.2,0.7,0.4,1.1,0.5
				c-0.4,0.3-0.5,0.7,0,1c0.6,0.3,1.1,0.6,1.7,0.8c0.1,0.1,0.3,0.2,0.4,0.3c2.6,1.3,5.2,2.2,8,2.4c2.1,0.3,4.2,0.3,6.4-0.3
				c0,0,0,0,0.1,0c1.9-0.3,3.7-1,5.3-2c0.1,0,0.1,0,0.2-0.1c1-0.4,1.9-0.9,2.7-1.6C384.5,684.1,386,680.3,385.6,676z"/>
			<path class="st2" d="M433.1,652.9c-0.5-0.4-1-0.6-1.7-0.6c-0.8-0.1-1.6-0.2-2.4-0.2c-0.1-0.1-0.1-0.2-0.2-0.2c0-0.5-0.1-1-0.6-1
				c-0.4,0-0.8,0-1.1,0c-0.1-0.1-0.2-0.1-0.3-0.1c-0.3,0-0.6,0-0.9,0c-0.1,0-0.1-0.1-0.2-0.1c-9.6-0.1-19.2,0-28.8,0
				c-0.2,0-0.2,0.3,0,0.6c-0.2,0-0.4,0-0.6,0c-0.1,0-0.1,0.1-0.1,0.3c-0.2,0-0.5,0-0.7,0c0.2,0,0.5,0.2,0.7,0.5c0,0,0,0,0,0
				c-0.3,0.1-0.5,0.5-0.6,0.9c-0.2,0.1-0.4,0.1-0.6,0.1c0.2,0,0.4,0,0.6,0c0,0.1,0,0.1,0,0.2c-0.2,0-0.3,0.1-0.4,0.2
				c-0.1,0.1-0.3,0.3,0.1,0.3c0,0,0.1,0,0.1,0c0,0,0,0,0,0.1c-0.2,0-0.4,0-0.5,0c-0.3,0-0.3,0.2,0,0.3c0.1,0.1,0.3,0.1,0.4,0.1
				c0,0.1,0,0.3,0.1,0.4c0,0,0,0-0.1,0c-0.3,0-0.6,0-0.5,0.4c0.1,0.2,0.4,0.2,0.8,0.3c0,0.1-0.1,0.1-0.1,0.2
				c-0.1,0.5,0.1,1.4,0.7,1.4c0.3,0,0.6,0,0.9,0.1c0,0,0,0,0,0c0.5,1,1.2,2.3,2,2.4c3.1,0.3,6.2,0.5,9.2,0.6
				c-0.4,8.2-1,16.4-1.7,24.6c0,0.1,0,0.2,0.1,0.3c0,0.2,0,0.5-0.1,0.7c0,0.4,0.3,0.7,0.8,0.8c0,0.7,0.1,1.5,0.8,1.8
				c0.2,0.1,0.4,0.1,0.6,0c0.1,0.1,0.1,0.1,0.2,0.2c0.2,0.1,0.4,0.2,0.6,0.2c0.3,0.4,0.5,0.8,0.8,1.2c0.3,0.6,0.7,1,1.2,1.2
				c0.4,0.1,0.7-0.1,0.8-0.4c0-0.2,0-0.4,0-0.6c0.6,0.4,1.2,0.6,1.3-0.3c0-0.2,0-0.5,0-0.7c0.5,0.2,1,0.1,1-0.6
				c0-0.5,0.1-1.1,0.1-1.6c0.7,0.1,1.3,0.1,1.4-0.5c0.1-0.6,0.1-1.2,0.1-1.9c0.1-0.1,0.2-0.3,0.2-0.4c0.8-7.8,1.3-15.7,1.7-23.5
				c3.2,0,6.5,0,9.7,0c0.6,0,0.8-0.3,0.9-0.8c0.2,0,0.4,0,0.6,0c0.8,0,0.8-0.6,0.6-1.2c0.2,0,0.5,0,0.7,0c1.6,0-0.4-2.1-0.5-2.2
				c0,0-0.1-0.1-0.1-0.1c0.6,0,1.2,0,1.7,0c1.1,0,1.3-0.9,0.5-1.5c-0.3-0.2-0.6-0.3-0.8-0.4C432.4,654.2,433.8,654,433.1,652.9z"/>
			<path class="st2" d="M647.3,653.5c0.2-1.3-3.4-0.7-3.7-0.7c-0.1,0-0.3,0-0.5,0c0,0,0,0,0,0c0-0.2,0.1-0.4,0.1-0.7
				c0.1-1-0.8-1-1.7-0.6c-0.2-0.2-0.5-0.3-0.7-0.3c-0.1,0-0.3,0.1-0.5,0.2c-0.5-0.2-1.2-0.1-1.3,0.6c0,0.1,0,0.2,0,0.3
				c-0.1,0-0.2,0-0.3,0.1c-0.4,0-0.8,0.1-0.8,0.3c-0.1,0.5-0.1,0.9-0.2,1.4c0,0,0,0,0,0c0,0.1,0,0.3-0.1,0.4c-0.1,0-0.1,0-0.1,0
				c-1.1,7.5-2.3,14.9-3.5,22.4c-0.1,0.4-0.1,0.8-0.2,1.2c-0.1,0.3-0.2,0.6-0.3,0.9c-0.4,0.8-0.9,1.5-1.5,2.1
				c-1,0.8-2.2,1.4-3.7,1.7c-0.1,0-0.3,0-0.4,0.1c-0.5-0.1-1.1-0.1-1.6-0.3c-0.1-0.1-0.3-0.2-0.4-0.3c-1.4-1.1-2.7-2.4-3-4.2
				c-0.2-1-0.2-2.1-0.1-3.1c0-0.1,0-0.1,0-0.2c0.5-2.8,0.9-5.5,1.2-8.3c0.5-2.9,0.6-5.8,0.3-8.7c0-1-0.1-2.1-0.1-3.1
				c0-0.5-0.3-0.9-0.7-1.2c-0.1-0.3-0.1-0.5-0.2-0.8c-0.1-1.1-1.2-1.1-2-1.1c-0.3,0-0.5,0-0.8,0c-0.1-0.4-0.2-0.8-0.5-1
				c-0.2-0.1-0.7-0.1-1,0.2c-0.3-0.3-0.5-0.4-0.6-0.1c-0.1,0.3-0.1,0.6-0.1,0.9c0,0,0,0,0,0c-0.2-0.4-0.4-0.6-0.5-0.1
				c0,0.1,0,0.1,0,0.2c-0.3-0.2-0.5-0.4-0.5-0.6c-0.1,0.6-0.2,1.3-0.3,1.9c-0.4,0-0.6,0.1-0.7,0.2c-0.4,2.7-0.8,5.4-1.1,8.2
				c0,0,0,0,0,0c-0.1,0.7-0.2,1.4-0.3,2.1c-0.2,0-0.3,0-0.4,0.1c-0.4,2.8-0.7,5.6-1.1,8.4c-0.1,0.6-0.2,1.2-0.2,1.9
				c-0.1,0.5-0.1,1-0.2,1.5c-0.1,1.1-0.1,2.1,0,3.2c0,0.5,0.1,1.1,0.2,1.6c0.3,1.2,0.8,2.2,1.5,3.1c0,0.1,0,0.1,0.1,0.2
				c1.2,2.3,3.4,4,5.9,4.9c1.6,1.1,3.5,1.8,5.6,2c0.1,0,0.1,0,0.2,0c1.9,0.5,3.9,0.5,5.8,0c2.9-0.2,5.8-1.5,7.7-3.9
				c0.3-0.4,0.5-0.8,0.8-1.2c0.3-0.3,0.6-0.6,0.9-1c1.2-1.6,1.8-3.3,2.1-5.2c1.3-7.7,2.5-15.5,3.7-23.2c0-0.2,0-0.3-0.1-0.5
				C647.1,654.7,647.2,654.1,647.3,653.5z"/>
		</g>
		<g>
			<path class="st2" d="M455.2,859.5c4.1-0.5,17.3-3.1,17.3-3.1s1.2-4.1,0.7-4.5c-0.8-0.5-2.1-0.5-3.2-0.5c0-0.5-0.4-1-0.9-1
				c-0.2,0-0.3,0-0.5,0c-0.1-0.1-0.3-0.2-0.5-0.2c-0.2,0-0.4,0-0.6,0.1c-0.1-0.1-0.2-0.1-0.2-0.1l-16.5,1.4c0.1,0,0.2,0.2,0.3,0.4
				c-0.3,0-0.5,0-0.8,0.1c-0.1-0.2-0.2-0.3-0.4-0.3c-0.3-0.1-0.5,0-0.7,0.1c0-0.1-0.1-0.1-0.1-0.1c-0.2-0.1-0.5-0.2-0.5,0.2
				c0,0.2,0,0.4,0,0.6c0,0,0,0,0,0c0-0.1-0.1-0.3-0.2-0.3c-0.4-0.1-0.4,0.2-0.4,0.5c0,0,0,0,0,0c0,0,0,0,0,0c0,0,0,0,0,0
				c-0.1-0.3-0.3-0.5-0.3-0.8c0,0.3,0,0.7-0.1,1c-0.2,0.2-0.4,0.6-0.4,0.9c0,0-0.1,0.1-0.1,0.1c-0.4,0-0.7,0.1-0.7,0.3
				c0,0.1,0,0.3,0,0.4c-0.2,0-0.4,0-0.4-0.1c-0.7,10-1.4,20-2.4,30c0,0.1,0.1,0.1,0.1,0.2c0,0.3,0,0.5-0.1,0.8
				c0,0.3,0.3,0.4,0.7,0.5c0,0,0,0,0,0.1c0,0.1,0,0.2,0,0.3c-0.1,0.1,0,0.1,0,0.2c0.1,0.4,0.3,0.7,0.6,0.9c0,0.1,0,0.1,0,0.2
				c0.1,0.7,0.5,0.7,1.1,0.6c0.1,0,0.2,0,0.3,0c0.4,0.7,0.9,1.6,1.5,1.6c0.1,0,0.1,0,0.2,0c0.2,0.1,0.5,0.1,0.6,0
				c0.4,0.4,0.8,0.6,1.1,0.6c6.7-0.2,19.4-1.3,19.4-1.3s0.3-1,0.2-1.5c0.2,0,0.4-0.1,0.6-0.1c1.3-0.2,1.8-3.7,1.1-4.1
				c-0.7-0.3-9.9-1-17.5-1c0.4-2.5,0.7-5.1,0.9-7.6c2.8-0.2,6.1-0.5,7.2-0.6c0.6,0,0.8-0.3,0.8-0.6c0.2,0,0.4,0,0.6,0
				c0.7-0.1,0.6-1,0.6-1s0.4,0,0.6-0.1c1.3-0.1,2-4.3,1.4-4.6c-0.6-0.3-6.6-0.8-10.9-1.1c0-0.6,0-1.2,0-1.8
				C454.9,863.2,455,861.3,455.2,859.5z M450.6,852.7C450.6,852.7,450.5,852.7,450.6,852.7c-0.1-0.1-0.1-0.2-0.1-0.3
				C450.5,852.5,450.5,852.6,450.6,852.7z"/>
			<path class="st2" d="M543.6,855c0.1-1.3-2.9-1.2-3.5-1.3c-0.2,0-0.8-0.1-1.5-0.1c-0.1-0.7-0.7-1-1.3-1c-0.1-0.1-0.1-0.1-0.2-0.2
				c-0.3-0.1-0.8,0-0.9,0.3c-0.3-0.2-0.5-0.4-0.5-0.2c0,0.2,0,0.4-0.1,0.6c-0.1,0-0.1,0.1-0.2,0.1c-0.2-0.2-0.3-0.3-0.3-0.2
				c0,0.3,0,0.5-0.1,0.8c-0.2,0.1-0.4,0.4-0.4,0.7c-0.4,0-0.7-0.1-0.7-0.1c0,0.4-0.1,0.8-0.1,1.1c-0.1,0-0.2,0-0.2,0.1
				c-0.8,10.3-1.8,20.7-1.9,31c0,0.1,0,0.1,0.1,0.2c0,0.3,0,0.6,0,0.9c0,0.2,0.4,0.4,0.8,0.4c0,0.1,0,0.2,0,0.3c0,0.6,0.1,1,0.7,1.1
				c0.1,0,0.3,0,0.5,0c0,0,0,0,0,0c0.1,0,0.1,0,0.2,0c0.4,0.7,0.9,1.3,1.3,1.5c0.4,0.2,0.8,0.1,1.1-0.2c0,0,0,0,0.1,0.1
				c0.3,0.3,2,1.5,2.1,0.1c0-0.1,0-0.2,0-0.4c0.6,0.2,1.3,0.3,1.3-0.6c0-0.5,0-1,0-1.5c0.8,0.1,1.4,0,1.4-0.6c0-0.6,0-1.2,0-1.8
				c0.1-0.1,0.2-0.3,0.2-0.5C541.8,875.5,542.9,865.3,543.6,855z"/>
			<path class="st2" d="M432.9,887.6c-0.4-6.2-2.8-12.4-8.4-15.8c-0.2-0.1-0.4-0.2-0.6-0.3c1.2-1.1,2.3-2.3,3-3.8
				c0.8-0.9,1.4-1.8,1.9-2.9c0.9-2.1,0.8-4.4-0.2-6.3c-0.1-1.2-0.6-2.3-1.4-3.3c-1.5-1.8-3.6-2.7-5.8-3.1c-1.2-0.8-2.6-1.3-4.1-1.5
				c-1.1-0.3-2.1-0.4-3.2-0.4c-3-0.3-5.9,0.7-8.6,1.9c-0.1-0.4-0.4-0.6-0.9-0.6c-0.1,0-0.3,0-0.4,0c-0.1-0.1-0.2-0.1-0.2-0.2
				c-0.2-0.1-0.7,0-1,0.3c-0.3-0.2-0.5-0.3-0.5-0.1c0,0.2,0,0.4,0,0.6c-0.1,0-0.1,0-0.2,0.1c-0.1-0.2-0.4-0.4-0.4-0.1
				c0,0.2,0,0.5,0,0.7c0,0,0,0,0,0c0,0,0,0,0,0c-0.3,0.1-0.5,0.4-0.6,0.9c-0.3,0.1-0.5,0.2-0.5,0.3c0,0.2,0,0.4,0,0.6
				c-0.2,0-0.4,0-0.4,0.1c0.4,11.1,0.9,22.3,1.5,33.4c0,0,0,0.1,0.1,0.1c0,0.3,0,0.7,0,1c0,0.2,0.4,0.3,0.8,0.3c0,0.2,0,0.3,0,0.5
				c0,0.7,0.7,0.9,1.2,0.8c0,0,0,0,0,0c0,0,0.1,0,0.2,0c0.4,0.6,0.9,1.2,1.3,1.3c0.3,0.1,0.7,0,0.9-0.2c0,0,0.1,0.1,0.1,0.1
				c0.3,0.3,2,1.2,2-0.1c0,0,0-0.1,0-0.1c0.7,0.3,1.8,0.6,1.7-0.5c0-0.5-0.1-1-0.1-1.6c0.9,0,1.5-0.2,1.5-0.5c0-0.6-0.1-1.2-0.1-1.7
				c0.2-0.2,0.3-0.3,0.3-0.6c-0.2-3.4-0.3-6.8-0.4-10.1c0.2,0.1,0.4,0.1,0.6,0c0.1,0,0.2-0.1,0.3-0.1c0.2,0,0.3,0,0.5,0.1
				c0.4,0.2,0.7,0.3,1,0.2c0,0,0.1,0,0.1,0c1.8,0.2,3.6,0.9,5.2,1.9c0,0,0,0,0.1,0.1c0.7,0.8,1.3,1.5,1.8,2.4
				c1.3,2.6,1.9,5.3,2.1,8.3c0,0.3,0.3,0.5,0.7,0.6c0,0.2,0,0.4,0.1,0.6c0.1,0.7,0.5,1,1.1,0.9c0.1,0,0.1,0,0.2,0
				c0.1,0.1,0.2,0.1,0.3,0.1c0.4,0.7,0.9,1.4,1.3,1.6c0.4,0.2,1,0.2,1.2-0.2c0.4,0.3,2.1,1.6,2.1,0.3c0-0.2,0-0.4,0-0.6
				c0.6,0.2,1.3,0.3,1.2-0.6c0-0.6-0.1-1.1-0.2-1.7c0.8,0.2,1.7,0.2,1.7-0.4c0-0.5-0.1-1.1-0.1-1.6
				C432.7,888.1,432.9,887.9,432.9,887.6z M413.5,859.4c0.5-0.1,1-0.2,1.5-0.3c1.3,0,3,0.1,4.3,0.5c0,0,0,0,0,0
				c0.1,0.2,0.1,0.3,0.2,0.5c0.1,0.4,0.1,0.8,0,1.2c-0.4,1-1,1.8-1.7,2.6c-1.9,1.6-4.1,2.8-6.4,3.8c0,0,0,0-0.1,0
				c-0.2,0-0.4,0-0.5,0c-0.1-2.7-0.2-5.4-0.3-8.1C411.6,859.6,412.5,859.5,413.5,859.4z"/>
			<path class="st2" d="M517.7,876.9c0-0.4-0.1-0.7-0.2-1c-0.1-1.1-0.4-2.1-1-3c-0.6-1.3-1.6-2.2-3-2.8c-0.3-0.1-0.6-0.2-0.9-0.3
				c-0.1-0.6-1.3-0.7-1.9-0.7c-0.3-0.2-0.5-0.3-0.8-0.4c-0.2-0.1-0.5-0.2-0.7-0.3c-0.2-0.1-0.4-0.2-0.7-0.3
				c-0.1-0.3-0.4-0.6-0.8-0.5c-0.3,0-0.5,0-0.8,0c-1.7-0.4-3.7-0.3-5.4-0.4c-1.1-0.1-2.2-0.2-3.4-0.3c-0.7-0.1-1.5-0.2-2.2-0.3
				c0,0,0,0,0,0c-0.1,0-0.3-0.1-0.4-0.1c-0.3-0.1-0.6-0.1-0.9-0.2c0,0,0,0-0.1-0.1c-0.2-0.5-0.3-1-0.5-1.5c0-0.1,0-0.1,0.1-0.2
				c0.2-0.7,0.6-1.3,1.2-1.8c0.8-0.4,1.7-0.8,2.6-1.1c0.9-0.3,1.8-0.5,2.5-0.7c3.3-0.8,6.6-1.2,10-1.7c0.3-0.1,0.5-0.2,0.6-0.4
				c0,0,0.1,0,0.1,0c0.6-0.1,1.1-0.6,0.9-1.3c0.4,0,0.7-0.1,1.1-0.1c0.9-0.1,0.9-1.1,0.4-1.6c-0.1-0.1-0.2-0.1-0.3-0.2
				c0.2-0.1,0.3-0.3,0.3-0.5c0.2-0.8-0.5-1.1-1.2-1.1c-0.5,0-1,0-1.6,0c0-0.5-0.3-1.2-0.8-1.2c-0.2,0-0.5-0.1-0.7-0.1
				c-0.1-0.1-0.2-0.1-0.4-0.1c-1.1-0.2-2.1-0.2-3.1-0.1c0-0.1-0.1-0.3-0.1-0.4c-0.4-0.5-1.6-0.6-2.3-0.5c-0.1-0.4-0.4-1.1-0.8-1
				c-0.2,0-0.3,0.1-0.5,0.1c-0.2-0.2-0.3-0.3-0.4-0.2c-0.3,0-0.6,0.1-0.9,0.1c-0.1,0-0.1-0.1-0.2,0c-2.9,0.3-5.5,0.9-8.1,2.4
				c-1.5,0.9-2.9,2-4.1,3.2c-1.2,1-2.2,2.1-3.1,3.5c-0.7,1-1.1,2.2-1.2,3.3c-0.4,1.1-0.6,2.2-0.5,3.3c-0.2,1.4,0.1,2.7,1,3.8
				c0.1,0.1,0.1,0.1,0.2,0.2c0.7,1.7,2.1,2.6,3.7,3.1c0.2,0.1,0.3,0.3,0.5,0.4c1.3,0.8,2.6,1.1,4.2,1.1c0,0,0,0,0,0
				c0.4,0.1,0.9,0.1,1.4,0.1c2.8,0.1,5.7,0.1,8.6,0.1c0.1,0.1,0.3,0.1,0.4,0.2c0.3,0.1,0.7,0.1,1,0.1c0,0,0.1,0,0.1,0
				c0.8,0.2,1.5,0.2,2.4,0.2c0,0,0,0,0.1,0c0.1,0.1,0.2,0.1,0.2,0.2c0.2,0.5,0.4,1,0.6,1.6c0,0.2,0,0.3,0.1,0.5
				c-0.3,1.1-0.9,2.1-1.6,2.9c-0.3,0.3-0.6,0.7-0.9,1c-0.4,0.3-0.8,0.5-1.3,0.7c-0.5,0.1-1,0.2-1.5,0.3c-0.6,0.1-1.2,0.2-1.8,0.2
				c-0.2,0-0.4,0-0.5,0c-0.1,0-0.2,0-0.3,0c-0.3,0-0.6,0-0.8,0c0,0-0.1,0-0.1,0c-2.1-0.4-4-1.3-6-2.4c-0.4-0.2-1,0-1.6,0.4
				c0,0,0,0-0.1,0c-0.4-0.2-1-0.1-1.5,0.2c0,0,0,0-0.1,0c-0.8-0.4-1.5,0.3-1.6,1.1c-0.4,0-0.8,0-0.9,0.1c-0.2,0.2-0.4,0.5,0,0.6
				c0.1,0.1,0.2,0.1,0.3,0.2c0,0.1,0,0.2,0.1,0.4c-0.5,0.2-0.9,0.5-0.8,0.6c0.1,0.1,0.2,0.1,0.3,0.1c0,0,0,0,0,0.1
				c0,0.1,0,0.2,0,0.2c0,0,0,0.1,0,0.1c-0.1,0-0.1-0.1-0.2-0.1c-0.2-0.1-0.3,0-0.1,0.1c0.1,0.1,0.2,0.2,0.3,0.3c0,0,0,0,0,0
				c0,0,0,0,0,0c0,0.2,0.1,0.3,0.2,0.4c-0.1,0.1-0.1,0.3,0,0.4c-0.5,0-0.8,0.1-0.5,0.2c0.3,0.2,0.7,0.4,1.1,0.5
				c-0.4,0.3-0.5,0.7,0,1c0.6,0.3,1.1,0.6,1.7,0.8c0.1,0.1,0.3,0.2,0.4,0.3c2.6,1.3,5.2,2.2,8,2.4c2.1,0.3,4.2,0.3,6.4-0.3
				c0,0,0,0,0.1,0c1.9-0.3,3.7-1,5.3-2c0.1,0,0.1,0,0.2-0.1c1-0.4,1.9-0.9,2.7-1.6C516.5,885,518,881.2,517.7,876.9z"/>
			<path class="st2" d="M643.5,853.9c-0.5-0.4-1-0.6-1.7-0.6c-0.8-0.1-1.6-0.2-2.4-0.2c-0.1-0.1-0.1-0.2-0.2-0.2c0-0.5-0.1-1-0.6-1
				c-0.4,0-0.8,0-1.1,0c-0.1-0.1-0.2-0.1-0.3-0.1c-0.3,0-0.6,0-0.9,0c-0.1,0-0.1-0.1-0.2-0.1c-9.6-0.1-19.2,0-28.8,0
				c-0.2,0-0.2,0.3,0,0.6c-0.2,0-0.4,0-0.6,0c-0.1,0-0.1,0.1-0.1,0.3c-0.2,0-0.5,0-0.7,0c0.2,0,0.5,0.2,0.7,0.5c0,0,0,0,0,0
				c-0.3,0.1-0.5,0.5-0.6,0.9c-0.2,0.1-0.4,0.1-0.6,0.1c0.2,0,0.4,0,0.6,0c0,0.1,0,0.1,0,0.2c-0.2,0-0.3,0.1-0.4,0.2
				c-0.1,0.1-0.3,0.3,0.1,0.3c0,0,0.1,0,0.1,0c0,0,0,0,0,0.1c-0.2,0-0.4,0-0.5,0c-0.3,0-0.3,0.2,0,0.3c0.1,0.1,0.3,0.1,0.4,0.1
				c0,0.1,0,0.3,0.1,0.4c0,0,0,0-0.1,0c-0.3,0-0.6,0-0.5,0.4c0.1,0.2,0.4,0.2,0.8,0.3c0,0.1-0.1,0.1-0.1,0.2
				c-0.1,0.5,0.1,1.4,0.7,1.4c0.3,0,0.6,0,0.9,0.1c0,0,0,0,0,0c0.5,1,1.2,2.3,2,2.4c3.1,0.3,6.2,0.5,9.2,0.6
				c-0.4,8.2-1,16.4-1.7,24.6c0,0.1,0,0.2,0.1,0.3c0,0.2,0,0.5-0.1,0.7c0,0.4,0.3,0.7,0.8,0.8c0,0.7,0.1,1.5,0.8,1.8
				c0.2,0.1,0.4,0.1,0.6,0c0.1,0.1,0.1,0.1,0.2,0.2c0.2,0.1,0.4,0.2,0.6,0.2c0.3,0.4,0.5,0.8,0.8,1.2c0.3,0.6,0.7,1,1.2,1.2
				c0.4,0.1,0.7-0.1,0.8-0.4c0-0.2,0-0.4,0-0.6c0.6,0.4,1.2,0.6,1.3-0.3c0-0.2,0-0.5,0-0.7c0.5,0.2,1,0.1,1-0.6
				c0-0.5,0.1-1.1,0.1-1.6c0.7,0.1,1.3,0.1,1.4-0.5c0.1-0.6,0.1-1.2,0.1-1.9c0.1-0.1,0.2-0.3,0.2-0.4c0.8-7.8,1.3-15.7,1.7-23.5
				c3.2,0,6.5,0,9.7,0c0.6,0,0.8-0.3,0.9-0.8c0.2,0,0.4,0,0.6,0c0.8,0,0.8-0.6,0.6-1.2c0.2,0,0.5,0,0.7,0c1.6,0-0.4-2.1-0.5-2.2
				c0,0-0.1-0.1-0.1-0.1c0.6,0,1.2,0,1.7,0c1.1,0,1.3-0.9,0.5-1.5c-0.3-0.2-0.6-0.3-0.8-0.4C642.7,855.1,644.1,854.9,643.5,853.9z"
				/>
			<path class="st2" d="M592.7,876.9c0-0.4-0.1-0.7-0.2-1c-0.1-1.1-0.4-2.1-1-3c-0.6-1.3-1.6-2.2-3-2.8c-0.3-0.1-0.6-0.2-0.9-0.3
				c-0.1-0.6-1.3-0.7-1.9-0.7c-0.3-0.2-0.5-0.3-0.8-0.4c-0.2-0.1-0.5-0.2-0.7-0.3c-0.2-0.1-0.4-0.2-0.7-0.3
				c-0.1-0.3-0.4-0.6-0.8-0.5c-0.3,0-0.5,0-0.8,0c-1.7-0.4-3.7-0.3-5.4-0.4c-1.1-0.1-2.2-0.2-3.4-0.3c-0.7-0.1-1.5-0.2-2.2-0.3
				c0,0,0,0,0,0c-0.1,0-0.3-0.1-0.4-0.1c-0.3-0.1-0.6-0.1-0.9-0.2c0,0,0,0-0.1-0.1c-0.2-0.5-0.3-1-0.5-1.5c0-0.1,0-0.1,0.1-0.2
				c0.2-0.7,0.6-1.3,1.2-1.8c0.8-0.4,1.7-0.8,2.6-1.1c0.9-0.3,1.8-0.5,2.5-0.7c3.3-0.8,6.6-1.2,10-1.7c0.3-0.1,0.5-0.2,0.6-0.4
				c0,0,0.1,0,0.1,0c0.6-0.1,1.1-0.6,0.9-1.3c0.4,0,0.7-0.1,1.1-0.1c0.9-0.1,0.9-1.1,0.4-1.6c-0.1-0.1-0.2-0.1-0.3-0.2
				c0.2-0.1,0.3-0.3,0.3-0.5c0.2-0.8-0.5-1.1-1.2-1.1c-0.5,0-1,0-1.6,0c0-0.5-0.3-1.2-0.8-1.2c-0.2,0-0.5-0.1-0.7-0.1
				c-0.1-0.1-0.2-0.1-0.4-0.1c-1.1-0.2-2.1-0.2-3.1-0.1c0-0.1-0.1-0.3-0.1-0.4c-0.4-0.5-1.6-0.6-2.3-0.5c-0.1-0.4-0.4-1.1-0.8-1
				c-0.2,0-0.3,0.1-0.5,0.1c-0.2-0.2-0.3-0.3-0.4-0.2c-0.3,0-0.6,0.1-0.9,0.1c-0.1,0-0.1-0.1-0.2,0c-2.9,0.3-5.5,0.9-8.1,2.4
				c-1.5,0.9-2.9,2-4.1,3.2c-1.2,1-2.2,2.1-3.1,3.5c-0.7,1-1.1,2.2-1.2,3.3c-0.4,1.1-0.6,2.2-0.5,3.3c-0.2,1.4,0.1,2.7,1,3.8
				c0.1,0.1,0.1,0.1,0.2,0.2c0.7,1.7,2.1,2.6,3.7,3.1c0.2,0.1,0.3,0.3,0.5,0.4c1.3,0.8,2.6,1.1,4.2,1.1c0,0,0,0,0,0
				c0.4,0.1,0.9,0.1,1.4,0.1c2.8,0.1,5.7,0.1,8.6,0.1c0.1,0.1,0.3,0.1,0.4,0.2c0.3,0.1,0.7,0.1,1,0.1c0,0,0.1,0,0.1,0
				c0.8,0.2,1.5,0.2,2.4,0.2c0,0,0,0,0.1,0c0.1,0.1,0.2,0.1,0.2,0.2c0.2,0.5,0.4,1,0.6,1.6c0,0.2,0,0.3,0.1,0.5
				c-0.3,1.1-0.9,2.1-1.6,2.9c-0.3,0.3-0.6,0.7-0.9,1c-0.4,0.3-0.8,0.5-1.3,0.7c-0.5,0.1-1,0.2-1.5,0.3c-0.6,0.1-1.2,0.2-1.8,0.2
				c-0.2,0-0.4,0-0.5,0c-0.1,0-0.2,0-0.3,0c-0.3,0-0.6,0-0.8,0c0,0-0.1,0-0.1,0c-2.1-0.4-4-1.3-6-2.4c-0.4-0.2-1,0-1.6,0.4
				c0,0,0,0-0.1,0c-0.4-0.2-1-0.1-1.5,0.2c0,0,0,0-0.1,0c-0.8-0.4-1.5,0.3-1.6,1.1c-0.4,0-0.8,0-0.9,0.1c-0.2,0.2-0.4,0.5,0,0.6
				c0.1,0.1,0.2,0.1,0.3,0.2c0,0.1,0,0.2,0.1,0.4c-0.5,0.2-0.9,0.5-0.8,0.6c0.1,0.1,0.2,0.1,0.3,0.1c0,0,0,0,0,0.1
				c0,0.1,0,0.2,0,0.2c0,0,0,0.1,0,0.1c-0.1,0-0.1-0.1-0.2-0.1c-0.2-0.1-0.3,0-0.1,0.1c0.1,0.1,0.2,0.2,0.3,0.3c0,0,0,0,0,0
				c0,0,0,0,0,0c0,0.2,0.1,0.3,0.2,0.4c-0.1,0.1-0.1,0.3,0,0.4c-0.5,0-0.8,0.1-0.5,0.2c0.3,0.2,0.7,0.4,1.1,0.5
				c-0.4,0.3-0.5,0.7,0,1c0.6,0.3,1.1,0.6,1.7,0.8c0.1,0.1,0.3,0.2,0.4,0.3c2.6,1.3,5.2,2.2,8,2.4c2.1,0.3,4.2,0.3,6.4-0.3
				c0,0,0,0,0.1,0c1.9-0.3,3.7-1,5.3-2c0.1,0,0.1,0,0.2-0.1c1-0.4,1.9-0.9,2.7-1.6C591.5,885,593,881.2,592.7,876.9z"/>
		</g>
		<g>
			<path class="st2" d="M459.1,758.7c4.1-0.5,17.3-3.1,17.3-3.1s1.2-4.1,0.7-4.5c-0.8-0.5-2.1-0.5-3.2-0.5c0-0.5-0.4-1-0.9-1
				c-0.2,0-0.3,0-0.5,0c-0.1-0.1-0.3-0.2-0.5-0.2c-0.2,0-0.4,0-0.6,0.1c-0.1-0.1-0.2-0.1-0.2-0.1l-16.5,1.4c0.1,0,0.2,0.2,0.3,0.4
				c-0.3,0-0.5,0-0.8,0.1c-0.1-0.2-0.2-0.3-0.4-0.3c-0.3-0.1-0.5,0-0.7,0.1c0-0.1-0.1-0.1-0.1-0.1c-0.2-0.1-0.5-0.2-0.5,0.2
				c0,0.2,0,0.4,0,0.6c0,0,0,0,0,0c0-0.1-0.1-0.3-0.2-0.3c-0.4-0.1-0.4,0.2-0.4,0.5c0,0,0,0,0,0c0,0,0,0,0,0c0,0,0,0,0,0
				c-0.1-0.3-0.3-0.5-0.3-0.8c0,0.3,0,0.7-0.1,1c-0.2,0.2-0.4,0.6-0.4,0.9c0,0-0.1,0.1-0.1,0.1c-0.4,0-0.7,0.1-0.7,0.3
				c0,0.1,0,0.3,0,0.4c-0.2,0-0.4,0-0.4-0.1c-0.7,10-1.4,20-2.4,30c0,0.1,0.1,0.1,0.1,0.2c0,0.3,0,0.5-0.1,0.8
				c0,0.3,0.3,0.4,0.7,0.5c0,0,0,0,0,0.1c0,0.1,0,0.2,0,0.3c-0.1,0.1,0,0.1,0,0.2c0.1,0.4,0.3,0.7,0.6,0.9c0,0.1,0,0.1,0,0.2
				c0.1,0.7,0.5,0.7,1.1,0.6c0.1,0,0.2,0,0.3,0c0.4,0.7,0.9,1.6,1.5,1.6c0.1,0,0.1,0,0.2,0c0.2,0.1,0.5,0.1,0.6,0
				c0.4,0.4,0.8,0.6,1.1,0.6c6.7-0.2,19.4-1.3,19.4-1.3s0.3-1,0.2-1.5c0.2,0,0.4-0.1,0.6-0.1c1.3-0.2,1.8-3.7,1.1-4.1
				c-0.7-0.3-9.9-1-17.5-1c0.4-2.5,0.7-5.1,0.9-7.6c2.8-0.2,6.1-0.5,7.2-0.6c0.6,0,0.8-0.3,0.8-0.6c0.2,0,0.4,0,0.6,0
				c0.7-0.1,0.6-1,0.6-1s0.4,0,0.6-0.1c1.3-0.1,2-4.3,1.4-4.6c-0.6-0.3-6.6-0.8-10.9-1.1c0-0.6,0-1.2,0-1.8
				C458.9,762.5,459,760.6,459.1,758.7z M454.6,752C454.6,752,454.5,752,454.6,752c-0.1-0.1-0.1-0.2-0.1-0.3
				C454.5,751.8,454.5,751.9,454.6,752z"/>
			<path class="st2" d="M595.6,754.3c0.1-1.3-2.9-1.2-3.5-1.3c-0.2,0-0.8-0.1-1.5-0.1c-0.1-0.7-0.7-1-1.3-1
				c-0.1-0.1-0.1-0.1-0.2-0.2c-0.3-0.1-0.8,0-0.9,0.3c-0.3-0.2-0.5-0.4-0.5-0.2c0,0.2,0,0.4-0.1,0.6c-0.1,0-0.1,0.1-0.2,0.1
				c-0.2-0.2-0.3-0.3-0.3-0.2c0,0.3,0,0.5-0.1,0.8c-0.2,0.1-0.4,0.4-0.4,0.7c-0.4,0-0.7-0.1-0.7-0.1c0,0.4-0.1,0.8-0.1,1.1
				c-0.1,0-0.2,0-0.2,0.1c-0.8,10.3-1.8,20.7-1.9,31c0,0.1,0,0.1,0.1,0.2c0,0.3,0,0.6,0,0.9c0,0.2,0.4,0.4,0.8,0.4
				c0,0.1,0,0.2,0,0.3c0,0.6,0.1,1,0.7,1.1c0.1,0,0.3,0,0.5,0c0,0,0,0,0,0c0.1,0,0.1,0,0.2,0c0.4,0.7,0.9,1.3,1.3,1.5
				c0.4,0.2,0.8,0.1,1.1-0.2c0,0,0,0,0.1,0.1c0.3,0.3,2,1.5,2.1,0.1c0-0.1,0-0.2,0-0.4c0.6,0.2,1.3,0.3,1.3-0.6c0-0.5,0-1,0-1.5
				c0.8,0.1,1.4,0,1.4-0.6c0-0.6,0-1.2,0-1.8c0.1-0.1,0.2-0.3,0.2-0.5C593.9,774.8,594.9,764.5,595.6,754.3z"/>
			<path class="st2" d="M699.9,784.9c-0.1-10.4-0.1-20.8-0.1-31.3c0-1.3-3.1-1-3.7-1c-0.1,0-0.2,0-0.3,0c-0.1-0.2-0.2-0.3-0.3-0.4
				c0-0.8-0.5-1.1-1.3-1c-0.1,0-0.3,0.1-0.5,0.1c-0.1-0.1-0.2-0.2-0.4-0.2c-0.1,0-0.4,0-0.7,0.1c-0.4-0.3-0.9-0.3-0.9,0.3
				c0,0.1,0,0.3,0,0.4c-0.1,0-0.1,0-0.2,0c-0.3-0.2-0.5-0.2-0.5,0c0,0.1,0,0.2,0,0.3c-0.3-0.1-0.6-0.2-0.6-0.2c0,0.2,0,0.5,0,0.7
				c-0.1,0.1-0.1,0.2-0.1,0.3c-0.1-0.1-0.2-0.1-0.2-0.2c0,0.4,0,0.7,0,1.1c0,0,0,0,0,0c0,0.1,0,0.2,0,0.3c-0.2,0-0.4,0.1-0.4,0.2
				c0,7.1,0,14.1,0.1,21.2c-2-2.4-3.9-4.8-5.7-7.3c-2.7-3.7-4.8-7.5-6.8-11.6c-0.5-0.4-1.1-0.6-1.7-0.6c-0.2,0-0.4,0-0.6,0
				c0-0.8,0-1.6,0.1-2.4c0-1.3-2.9-1.2-3.6-1.3c-0.2,0-0.7-0.1-1.3-0.1c-0.1-0.6-0.3-1-0.9-1c-0.1,0-0.2,0-0.4,0
				c-0.1-0.1-0.1-0.1-0.2-0.1c-0.2-0.1-0.8,0-1,0.3c-0.2-0.2-0.4-0.3-0.4-0.2c0,0.2,0,0.4,0,0.6c-0.1,0-0.1,0-0.2,0.1
				c-0.1-0.2-0.3-0.4-0.3-0.2c0,0.2,0,0.4,0,0.7c0,0-0.1,0.1-0.1,0.1c-0.3,0.1-0.6,0.4-0.6,0.9c0,0,0,0,0,0c0,0,0,0.1-0.1,0.1
				c-0.2,0.1-0.4,0.2-0.4,0.3c0,0.2,0,0.4,0,0.6c-0.2,0-0.4,0.1-0.4,0.1c-0.5,10.6-0.5,21.1-0.2,31.7c0,0.1,0,0.1,0.1,0.1
				c0,0.3,0,0.6,0,0.8c0,0.3,0.3,0.4,0.7,0.5c0,0,0,0,0,0.1c0,0.6,0.2,1.3,0.9,1.4c0.1,0,0.3,0,0.4,0c0.1,0.1,0.2,0.1,0.2,0.2
				c0.1,0.1,0.3,0.1,0.4,0.1c0,0,0,0.1,0.1,0.1c0.4,0.7,0.9,1.3,1.5,1.9c0.7,0.4,1.2,0.1,1.3-0.5c0.7,0.4,1.6,0.9,1.6-0.1
				c0-0.2,0-0.4,0-0.7c0.5,0.1,1,0.1,1-0.7c0-0.5,0-1.1,0-1.6c0.8,0.1,1.5,0,1.4-0.5c0-0.6,0-1.1,0-1.7c0.2-0.1,0.3-0.3,0.3-0.6
				c-0.1-4.5-0.2-8.9-0.2-13.4c4,5.6,8.7,10.8,13.1,16c0.2,0.2,0.5,0.1,0.9,0c0.1,0.1,0.2,0.1,0.3,0.2c0.3,0.4,0.6,0.7,0.9,1.1
				c0.5,0.5,1.3,1.1,1.8,0.4c0.4,0.4,0.9,0.7,1.4,0.8c0.2,0,0.4-0.1,0.5-0.2c0.2,0,0.5-0.1,0.7-0.2c0.1,0,0.1,0.1,0.2,0.1
				c0.4,0.3,1.9,1.1,1.9-0.1c0,0,0,0,0,0c0.7,0.3,1.9,0.7,1.8-0.5c0-0.5,0-1,0-1.5c0.8,0,1.4-0.1,1.4-0.6c0-0.6,0-1.2,0-1.8
				C699.8,785.3,699.9,785.1,699.9,784.9z"/>
			<path class="st2" d="M650.8,771.3c0.4-1.8,0.4-3.7-0.2-5.5c-0.8-2.7-2.6-4.3-4.6-6c-0.6-0.5-1.7-0.6-2.8-0.5
				c-0.2-0.2-0.4-0.4-0.6-0.6c0-0.2-0.2-0.4-0.5-0.5c-0.4-0.2-0.8-0.5-1.3-0.7c0.4-0.2,0.8-0.6,0.4-1.1c-0.4-0.7-1-1.3-1.7-1.7
				c-1.3-0.6-2.6-1-3.9-1.3c-0.9-0.6-1.8-1-2.9-1.2c-1-0.3-2.1-0.5-3.2-0.5c-0.4-0.1-0.7-0.1-1.1-0.1c-0.5-0.1-1.1-0.1-1.6-0.1
				c-1.6,0-3.2,0.2-4.7,0.7c-1.6,0.6-3.1,1.5-4.5,2.5c-0.7,0.4-1.4,0.9-2,1.5c-2.3,2.2-4,4.8-5,7.8c-0.4,1-0.7,2.1-0.9,3.2
				c-0.5,1.9-0.6,3.9-0.3,5.8c0,0.1,0,0.2,0.1,0.3c0,0.3,0,0.5,0.1,0.8c0.3,2.4,1.3,4.6,2.7,6.5c0.7,1.3,1.7,2.5,2.9,3.6
				c1.2,1.1,2.5,1.9,3.9,2.5c0.2,0.1,0.4,0.3,0.5,0.4c2.2,1.3,4.6,2.1,7.1,2.2c2.2,0.4,4.4,0.3,6.6,0c4.4-0.7,8.7-2.5,11.5-5.9
				c1.1-1.1,2-2.4,2.8-3.8c1.7-2.2,3-4.7,3.3-7.3C650.8,771.9,650.8,771.6,650.8,771.3z M627.9,760.6c2.9,0,5.7,0.8,8.5,1.5
				c0,0.2,0,0.3,0.1,0.4c0.2,0.2,0.5,0.4,0.7,0.6c0,0.6,0.1,1.3,0.3,1.5c1,0.8,1.9,1.6,2.7,2.6c0.3,0.9,0.6,1.8,0.9,2.7
				c0,0.1,0,0.1,0,0.2c0,0.5-0.1,1-0.2,1.5c-0.7,1.8-1.7,3.5-3,4.9c-0.5,0.6-1,1.1-1.6,1.6c-2,1.4-4.3,2.4-6.7,3.1
				c-0.7,0.2-1.4,0.3-2,0.4c-0.9-0.1-1.8-0.3-2.7-0.6c-1.2-0.9-2.2-1.8-3.1-3c-1.9-2.5-2.6-5.3-2.5-8.2c0.2-1.1,0.5-2.2,0.9-3.4
				c0.2-0.4,0.4-0.9,0.6-1.3c0.1-0.1,0.2-0.2,0.3-0.4c1.3-1.4,2.9-2.6,4.7-3.4c0.5-0.2,0.9-0.4,1.4-0.5
				C627.4,760.6,627.7,760.6,627.9,760.6z"/>
			<path class="st2" d="M384.7,774.3c1-2,1.6-4.1,1.6-6.2c0.3-1.6,0.3-3.3-0.1-4.9c-0.3-1.2-1.2-2.6-1.9-3.5c-1.3-1.7-3.2-2.5-5.2-3
				c-0.2,0-0.4,0-0.6,0c-1.1-0.8-2.2-1.2-3.6-1.5c-0.2-0.1-0.5,0-0.8,0.1c-0.1,0-0.2,0-0.3-0.1c-0.2-0.1-0.5,0-0.7,0.1
				c-0.1,0-0.3-0.1-0.4-0.1c-0.6-0.1-0.8,0.3-0.7,0.8c-0.4,0-0.8,0.1-1,0.3c0,0-0.8,0.4-0.4,0.5c0.1,0,0.2,0.1,0.4,0.1
				c-0.1,0.1-0.2,0.2-0.3,0.4c-0.1,0.2-0.1,0.5,0,0.6c-0.3,0-0.2,0.5,0,1c-0.2,0.1-0.4,0.2-0.4,0.5c0,0.4,0.4,0.7,0.8,0.9
				c-0.1,0.5,0,1.2,0.5,1.4c0.5,0.2,1,0.4,1.5,0.6c0.3,0.6,0.7,1.2,1.2,1.3c0.4,0,0.7,0.1,1,0.2c0.2,0.2,0.5,0.5,0.7,0.7
				c0.5,1.1,0.8,2.2,0.8,3.4c0,0,0,0.1,0,0.1c-0.3,1.1-0.7,2-1.1,2.9c-0.4,0.9-0.9,1.7-1.5,2.5c-0.6-0.7-1.2-1.3-1.9-2
				c-0.7-0.8-2.2-0.9-3.4-0.9c-0.3-0.3-0.5-0.6-0.8-0.9c-0.2-0.2-0.6-0.1-1,0c0,0-0.1-0.1-0.1-0.1c-0.3-0.3-0.5,0-0.6,0.2
				c0,0.1,0,0.2,0,0.3c-0.2-0.2-0.3-0.4-0.5-0.6c0.1,0.1,0.3,0.5,0.5,0.8c0,0,0,0,0,0c0,0,0-0.1-0.1-0.1c-0.3-0.3-0.4-0.2-0.5,0.2
				c-0.1-0.2-0.2-0.3-0.4-0.5c0.1,0.1,0.2,0.4,0.3,0.7c-0.1,0.1-0.3,0.2-0.4,0.3c-0.2,0.2-0.5,0.6-0.5,0.9c0,0-0.1,0.1-0.1,0.2
				c-0.3,0.1-0.6,0.2-0.6,0.2c0.1,0.2,0.2,0.3,0.3,0.4c-0.3,0-0.6,0-0.7-0.1c0.2,0.3,0.3,0.5,0.5,0.7c-0.3,0-0.5,0.1-0.4,0.2
				c0.2,0.4,0.4,0.7,0.6,1.1c0,0.2,0,0.4,0.1,0.5c0.7,1.4,1.4,2.8,2.3,4c-0.3,0.1-0.6,0.2-0.9,0.3c-1,0.3-2,0.5-3,0.8
				c-0.3,0.1-0.6,0.1-0.9,0.1c-1.5,0-3-0.3-4.5-0.7c-0.2-0.1-0.4-0.3-0.5-0.4c-0.5-0.7-1-1.3-1.4-2c-1.4-2.2-1.7-5.1-1.5-7.8
				c0.3-1.3,0.7-2.5,1.1-3.7c0.3-0.8,0.7-1.6,1.1-2.4c0.1-0.1,0.1-0.2,0.2-0.2c0.3-0.4,0.7-0.7,1.1-1c1.4-1.3,2.9-2.2,4.6-2.9
				c0.1,0,0.1-0.1,0.2-0.1c0.5-0.2,1.1-0.4,1.7-0.6c0.1,0,0.2-0.1,0.3-0.1c0.5,0,1-0.1,1.4-0.3c0.6-0.1,1.2-0.1,1.8-0.1
				c0.8-0.2,1.4-0.6,2-1.2c0.1-0.1,0.2-0.2,0.3-0.3c0.2-0.1,0.4-0.1,0.7-0.2c0.9-0.3,0.6-1,0-1.8c0.4,0,0.9,0,1.3-0.1
				c0.9,0,1.1-0.9,0.5-1.5c-0.2-0.2-0.5-0.4-0.9-0.6c0.1-0.1,0.1-0.2,0.2-0.3c0.3-0.8-0.4-1.2-1-1.3c-0.6-0.1-1.2-0.1-1.9-0.2
				c0-0.5-0.3-0.9-0.8-1c-0.3-0.1-0.6-0.1-0.9-0.1c0,0,0,0,0,0c-1-0.2-1.8-0.2-2.6-0.3c-1.1-0.1-2.1-0.1-3.2,0.1
				c-0.8,0.2-1.6,0.4-2.4,0.6c-1.6,0.5-3,1.4-4.4,2.3c-0.6,0.4-1.1,0.8-1.6,1.3c-1.2,0.9-2.4,2-3.4,3.2c-2.1,2.6-3.6,5.7-4.2,8.9
				c-0.3,0.9-0.6,1.9-0.7,2.8c-0.3,1.7-0.4,3.5-0.1,5.3c0.1,2.2,0.7,4.4,1.7,6.2c0.3,0.5,0.7,1,1,1.5c1.2,2,2.9,3.5,5,4.4
				c1.6,1.2,3.5,2,5.9,2.2c0.1,0,0.2,0,0.4,0c0,0,0,0,0,0c2.9,0.5,5.8,0.4,8.5-0.2c2-0.3,4-0.9,5.9-1.7c1.3,1.4,2.7,2.7,4.2,3.9
				c0.2,0.2,0.4,0.2,0.7,0.2c0.8,0.8,1.6,1.6,2.5,2.4c0.8,0.7,1.5,0.1,1.4-0.7c0.5,0.3,1.1,0.5,1.3-0.3c0-0.3-0.1-0.5-0.2-0.7
				c0.2,0.1,0.4,0.1,0.6,0.1c1.4-0.3-0.2-1.9-0.5-2.2c-0.1-0.1-0.2-0.3-0.3-0.4c0-0.1,0-0.1,0-0.2c0.6,0.2,1.3,0.4,2,0.5
				c1.1,0,1.2-0.8,0.5-1.5c-0.2-0.2-0.3-0.3-0.5-0.5c0.8-0.1,2-0.4,1.2-1.2c-1.7-1.7-3.4-3.5-5.1-5.2
				C382.1,778.5,383.6,776.6,384.7,774.3z"/>
			<path class="st2" d="M522.7,776.2c0-0.4-0.1-0.7-0.2-1c-0.1-1.1-0.4-2.1-1-3c-0.6-1.3-1.6-2.2-3-2.8c-0.3-0.1-0.6-0.2-0.9-0.3
				c-0.1-0.6-1.3-0.7-1.9-0.7c-0.3-0.2-0.5-0.3-0.8-0.4c-0.2-0.1-0.5-0.2-0.7-0.3c-0.2-0.1-0.4-0.2-0.7-0.3
				c-0.1-0.3-0.4-0.6-0.8-0.5c-0.3,0-0.5,0-0.8,0c-1.7-0.4-3.7-0.3-5.4-0.4c-1.1-0.1-2.2-0.2-3.4-0.3c-0.7-0.1-1.5-0.2-2.2-0.3
				c0,0,0,0,0,0c-0.1,0-0.3-0.1-0.4-0.1c-0.3-0.1-0.6-0.1-0.9-0.2c0,0,0,0-0.1-0.1c-0.2-0.5-0.3-1-0.5-1.5c0-0.1,0-0.1,0.1-0.2
				c0.2-0.7,0.6-1.3,1.2-1.8c0.8-0.4,1.7-0.8,2.6-1.1c0.9-0.3,1.8-0.5,2.5-0.7c3.3-0.8,6.6-1.2,10-1.7c0.3-0.1,0.5-0.2,0.6-0.4
				c0,0,0.1,0,0.1,0c0.6-0.1,1.1-0.6,0.9-1.3c0.4,0,0.7-0.1,1.1-0.1c0.9-0.1,0.9-1.1,0.4-1.6c-0.1-0.1-0.2-0.1-0.3-0.2
				c0.2-0.1,0.3-0.3,0.3-0.5c0.2-0.8-0.5-1.1-1.2-1.1c-0.5,0-1,0-1.6,0c0-0.5-0.3-1.2-0.8-1.2c-0.2,0-0.5-0.1-0.7-0.1
				c-0.1-0.1-0.2-0.1-0.4-0.1c-1.1-0.2-2.1-0.2-3.1-0.1c0-0.1-0.1-0.3-0.1-0.4c-0.4-0.5-1.6-0.6-2.3-0.5c-0.1-0.4-0.4-1.1-0.8-1
				c-0.2,0-0.3,0.1-0.5,0.1c-0.2-0.2-0.3-0.3-0.4-0.2c-0.3,0-0.6,0.1-0.9,0.1c-0.1,0-0.1-0.1-0.2,0c-2.9,0.3-5.5,0.9-8.1,2.4
				c-1.5,0.9-2.9,2-4.1,3.2c-1.2,1-2.2,2.1-3.1,3.5c-0.7,1-1.1,2.2-1.2,3.3c-0.4,1.1-0.6,2.2-0.5,3.3c-0.2,1.4,0.1,2.7,1,3.8
				c0.1,0.1,0.1,0.1,0.2,0.2c0.7,1.7,2.1,2.6,3.7,3.1c0.2,0.1,0.3,0.3,0.5,0.4c1.3,0.8,2.6,1.1,4.2,1.1c0,0,0,0,0,0
				c0.4,0.1,0.9,0.1,1.4,0.1c2.8,0.1,5.7,0.1,8.6,0.1c0.1,0.1,0.3,0.1,0.4,0.2c0.3,0.1,0.7,0.1,1,0.1c0,0,0.1,0,0.1,0
				c0.8,0.2,1.5,0.2,2.4,0.2c0,0,0,0,0.1,0c0.1,0.1,0.2,0.1,0.2,0.2c0.2,0.5,0.4,1,0.6,1.6c0,0.2,0,0.3,0.1,0.5
				c-0.3,1.1-0.9,2.1-1.6,2.9c-0.3,0.3-0.6,0.7-0.9,1c-0.4,0.3-0.8,0.5-1.3,0.7c-0.5,0.1-1,0.2-1.5,0.3c-0.6,0.1-1.2,0.2-1.8,0.2
				c-0.2,0-0.4,0-0.5,0c-0.1,0-0.2,0-0.3,0c-0.3,0-0.6,0-0.8,0c0,0-0.1,0-0.1,0c-2.1-0.4-4-1.3-6-2.4c-0.4-0.2-1,0-1.6,0.4
				c0,0,0,0-0.1,0c-0.4-0.2-1-0.1-1.5,0.2c0,0,0,0-0.1,0c-0.8-0.4-1.5,0.3-1.6,1.1c-0.4,0-0.8,0-0.9,0.1c-0.2,0.2-0.4,0.5,0,0.6
				c0.1,0.1,0.2,0.1,0.3,0.2c0,0.1,0,0.2,0.1,0.4c-0.5,0.2-0.9,0.5-0.8,0.6c0.1,0.1,0.2,0.1,0.3,0.1c0,0,0,0,0,0.1
				c0,0.1,0,0.2,0,0.2c0,0,0,0.1,0,0.1c-0.1,0-0.1-0.1-0.2-0.1c-0.2-0.1-0.3,0-0.1,0.1c0.1,0.1,0.2,0.2,0.3,0.3c0,0,0,0,0,0
				c0,0,0,0,0,0c0,0.2,0.1,0.3,0.2,0.4c-0.1,0.1-0.1,0.3,0,0.4c-0.5,0-0.8,0.1-0.5,0.2c0.3,0.2,0.7,0.4,1.1,0.5
				c-0.4,0.3-0.5,0.7,0,1c0.6,0.3,1.1,0.6,1.7,0.8c0.1,0.1,0.3,0.2,0.4,0.3c2.6,1.3,5.2,2.2,8,2.4c2.1,0.3,4.2,0.3,6.4-0.3
				c0,0,0,0,0.1,0c1.9-0.3,3.7-1,5.3-2c0.1,0,0.1,0,0.2-0.1c1-0.4,1.9-0.9,2.7-1.6C521.6,784.3,523.1,780.5,522.7,776.2z"/>
			<path class="st2" d="M571.5,753.2c-0.5-0.4-1-0.6-1.7-0.6c-0.8-0.1-1.6-0.2-2.4-0.2c-0.1-0.1-0.1-0.2-0.2-0.2c0-0.5-0.1-1-0.6-1
				c-0.4,0-0.8,0-1.1,0c-0.1-0.1-0.2-0.1-0.3-0.1c-0.3,0-0.6,0-0.9,0c-0.1,0-0.1-0.1-0.2-0.1c-9.6-0.1-19.2,0-28.8,0
				c-0.2,0-0.2,0.3,0,0.6c-0.2,0-0.4,0-0.6,0c-0.1,0-0.1,0.1-0.1,0.3c-0.2,0-0.5,0-0.7,0c0.2,0,0.5,0.2,0.7,0.5c0,0,0,0,0,0
				c-0.3,0.1-0.5,0.5-0.6,0.9c-0.2,0.1-0.4,0.1-0.6,0.1c0.2,0,0.4,0,0.6,0c0,0.1,0,0.1,0,0.2c-0.2,0-0.3,0.1-0.4,0.2
				c-0.1,0.1-0.3,0.3,0.1,0.3c0,0,0.1,0,0.1,0c0,0,0,0,0,0.1c-0.2,0-0.4,0-0.5,0c-0.3,0-0.3,0.2,0,0.3c0.1,0.1,0.3,0.1,0.4,0.1
				c0,0.1,0,0.3,0.1,0.4c0,0,0,0-0.1,0c-0.3,0-0.6,0-0.5,0.4c0.1,0.2,0.4,0.2,0.8,0.3c0,0.1-0.1,0.1-0.1,0.2
				c-0.1,0.5,0.1,1.4,0.7,1.4c0.3,0,0.6,0,0.9,0.1c0,0,0,0,0,0c0.5,1,1.2,2.3,2,2.4c3.1,0.3,6.2,0.5,9.2,0.6
				c-0.4,8.2-1,16.4-1.7,24.6c0,0.1,0,0.2,0.1,0.3c0,0.2,0,0.5-0.1,0.7c0,0.4,0.3,0.7,0.8,0.8c0,0.7,0.1,1.5,0.8,1.8
				c0.2,0.1,0.4,0.1,0.6,0c0.1,0.1,0.1,0.1,0.2,0.2c0.2,0.1,0.4,0.2,0.6,0.2c0.3,0.4,0.5,0.8,0.8,1.2c0.3,0.6,0.7,1,1.2,1.2
				c0.4,0.1,0.7-0.1,0.8-0.4c0-0.2,0-0.4,0-0.6c0.6,0.4,1.2,0.6,1.3-0.3c0-0.2,0-0.5,0-0.7c0.5,0.2,1,0.1,1-0.6
				c0-0.5,0.1-1.1,0.1-1.6c0.7,0.1,1.3,0.1,1.4-0.5c0.1-0.6,0.1-1.2,0.1-1.9c0.1-0.1,0.2-0.3,0.2-0.4c0.8-7.8,1.3-15.7,1.7-23.5
				c3.2,0,6.5,0,9.7,0c0.6,0,0.8-0.3,0.9-0.8c0.2,0,0.4,0,0.6,0c0.8,0,0.8-0.6,0.6-1.2c0.2,0,0.5,0,0.7,0c1.6,0-0.4-2.1-0.5-2.2
				c0,0-0.1-0.1-0.1-0.1c0.6,0,1.2,0,1.7,0c1.1,0,1.3-0.9,0.5-1.5c-0.3-0.2-0.6-0.3-0.8-0.4C570.8,754.4,572.2,754.2,571.5,753.2z"
				/>
			<path class="st2" d="M433.3,753.6c0.2-1.3-3.4-0.7-3.7-0.7c-0.1,0-0.3,0-0.5,0c0,0,0,0,0,0c0-0.2,0.1-0.4,0.1-0.7
				c0.1-1-0.8-1-1.7-0.6c-0.2-0.2-0.5-0.3-0.7-0.3c-0.1,0-0.3,0.1-0.5,0.2c-0.5-0.2-1.2-0.1-1.3,0.6c0,0.1,0,0.2,0,0.3
				c-0.1,0-0.2,0-0.3,0.1c-0.4,0-0.8,0.1-0.8,0.3c-0.1,0.5-0.1,0.9-0.2,1.4c0,0,0,0,0,0c0,0.1,0,0.3-0.1,0.4c-0.1,0-0.1,0-0.1,0
				c-1.1,7.5-2.3,14.9-3.5,22.4c-0.1,0.4-0.1,0.8-0.2,1.2c-0.1,0.3-0.2,0.6-0.3,0.9c-0.4,0.8-0.9,1.5-1.5,2.1
				c-1,0.8-2.2,1.4-3.7,1.7c-0.1,0-0.3,0-0.4,0.1c-0.5-0.1-1.1-0.1-1.6-0.3c-0.1-0.1-0.3-0.2-0.4-0.3c-1.4-1.1-2.7-2.4-3-4.2
				c-0.2-1-0.2-2.1-0.1-3.1c0-0.1,0-0.1,0-0.2c0.5-2.8,0.9-5.5,1.2-8.3c0.5-2.9,0.6-5.8,0.3-8.7c0-1-0.1-2.1-0.1-3.1
				c0-0.5-0.3-0.9-0.7-1.2c-0.1-0.3-0.1-0.5-0.2-0.8c-0.1-1.1-1.2-1.1-2-1.1c-0.3,0-0.5,0-0.8,0c-0.1-0.4-0.2-0.8-0.5-1
				c-0.2-0.1-0.7-0.1-1,0.2c-0.3-0.3-0.5-0.4-0.6-0.1c-0.1,0.3-0.1,0.6-0.1,0.9c0,0,0,0,0,0c-0.2-0.4-0.4-0.6-0.5-0.1
				c0,0.1,0,0.1,0,0.2c-0.3-0.2-0.5-0.4-0.5-0.6c-0.1,0.6-0.2,1.3-0.3,1.9c-0.4,0-0.6,0.1-0.7,0.2c-0.4,2.7-0.8,5.4-1.1,8.2
				c0,0,0,0,0,0c-0.1,0.7-0.2,1.4-0.3,2.1c-0.2,0-0.3,0-0.4,0.1c-0.4,2.8-0.7,5.6-1.1,8.4c-0.1,0.6-0.2,1.2-0.2,1.9
				c-0.1,0.5-0.1,1-0.2,1.5c-0.1,1.1-0.1,2.1,0,3.2c0,0.5,0.1,1.1,0.2,1.6c0.3,1.2,0.8,2.2,1.5,3.1c0,0.1,0,0.1,0.1,0.2
				c1.2,2.3,3.4,4,5.9,4.9c1.6,1.1,3.5,1.8,5.6,2c0.1,0,0.1,0,0.2,0c1.9,0.5,3.9,0.5,5.8,0c2.9-0.2,5.8-1.5,7.7-3.9
				c0.3-0.4,0.5-0.8,0.8-1.2c0.3-0.3,0.6-0.6,0.9-1c1.2-1.6,1.8-3.3,2.1-5.2c1.3-7.7,2.5-15.5,3.7-23.2c0-0.2,0-0.3-0.1-0.5
				C433.2,754.8,433.3,754.2,433.3,753.6z"/>
		</g>
	</g>
</g>
</svg>
