<svg id="INDEX" xmlns="http://www.w3.org/2000/svg" viewBox="0 0 236 52"><defs><style>.cls-1{fill:#00aeef;}.cls-2{fill:#00a6e9;}</style></defs><title>word</title><path class="cls-1" d="M68.68,5.35C66,3.38,58.32,1.92,51.43,8.14c-9,6.17-6.64,18.78-6.79,17.21q1,10.07,2.12,20.12c0,.05.29.07.64.07.14,1.24,0,1.55,1,1.38a.84.84,0,0,0,.42.11c.4.91.91,1.28,1.71.83.66.33,1.32.36,1.55-.25,1.26.29,1.18-.37,1.24-1.37,1.6.2,3,.07,3-.44-.69-6.36-.63-6-.93-10,4.42-.14,8.84-.41,13.24-.83.29,9.79,0,9.23,1.1,9.56v.35a1,1,0,0,0,1.41.88c.19.08.14,0,.21.06.83,1.69,1.68,1.7,2.2,1.15.68.47,1.62.71,1.65-.13v-.26c1.58.64,1.36-.44,1.38-1.91,1.11.12,2,0,2-.37C77.78,14,78.4,6.85,68.68,5.35ZM55.93,17c4.24-3.76,4.77-3.18,10.27-3.52.17,0,.3.11.46.16,1.09,3.1,1.49,9.27,1.64,12.59q-6.73,1.21-13.49,2.26C54.49,23.64,53.88,18.85,55.93,17Z"/><path class="cls-1" d="M167,14.37c4.08-.49,17.3-3.11,17.3-3.11s1.21-4.13.67-4.45a6.22,6.22,0,0,0-3.18-.48c0-.49-.36-1-.87-1l-.45,0c-.31-.3-.62-.2-1.11-.16-.22-.14-16.49,1.31-16.75,1.33.06,0,.17.19.32.43l-.76.06A.77.77,0,0,0,161,6.81c-.18-.27-.59-.37-.63,0,0,.2,0,.41,0,.61h0c-.1-.42-.55-.53-.61.25l0,0,0,0a1.54,1.54,0,0,1-.26-.78c0,.33,0,.66-.06,1a1.85,1.85,0,0,0-.43.88l-.11.14c-.85.1-.74.21-.76.66l-.35-.05q-1,15-2.36,30c0,.07.05.13.14.19-.08.88-.24,1.15.68,1.31a1.92,1.92,0,0,0,0,.34c-.08.05,0,.14,0,.22a1.09,1.09,0,0,0,.6.87c0,1,.54.84,1.41.8.38.8.84,1.6,1.71,1.6a.62.62,0,0,0,.64,0,2,2,0,0,0,1.13.58c6.69-.18,19.41-1.34,19.41-1.34a3.29,3.29,0,0,0,.15-1.51l.61-.08c1.28-.16,1.8-3.73,1.11-4.06s-9.91-1-17.48-1c.38-2.53.67-5.05.86-7.58l7.24-.62c.57,0,.76-.31.79-.64l.62,0c.72-.06.56-1,.56-1l.63-.07c1.34-.11,2-4.25,1.37-4.6s-6.58-.78-10.93-1.09A73.62,73.62,0,0,1,167,14.37ZM162.4,7.59h-.09a1.81,1.81,0,0,0-.06-.27Z"/><path class="cls-1" d="M210.94,8.36a23.84,23.84,0,0,0-3.61-1.49,27.35,27.35,0,0,0-8.76-1.14,50.75,50.75,0,0,0-7,.18c-.38,0-.49.21-.47.43-.08.05-.06.24-.06.35-.42,0-.67,0-.49.34-.06,0-.1,0-.11,0-.76.05-.58,0,0,.23v.58a.87.87,0,0,0-.18.28c-1.1.07-.87,0,0,.07a1.83,1.83,0,0,0-.08.43,1.56,1.56,0,0,0-.27.36c-.15,0-.32.11-.33.26-.32,0-.25,0,0,.07,0,0,0,.08,0,.12a1.81,1.81,0,0,0-.37,0c-.14,6-.18,26.88,0,27.88,0,1.19-.17,1.4.83,1.61,0,.92.15,1.5,1.23,1.27a.75.75,0,0,0,.25,0c.55.94,1.32,1.78,2.15,1.08.79.58,1.82.83,1.84-.17,2.07,1,1.74-.43,1.76-1.95.94,0,1.61-.12,1.61-.48q0-.9,0-1.8a.71.71,0,0,0,.23-.53c-.21-17.67.16-16.38-.18-22.38a22.47,22.47,0,0,1,10.37,2.33,6.68,6.68,0,0,1,3,5c.47,1.17.72,2.32.21,4.93-3,9.16-11.51,12.55-12.1,13.55-1.37.87-1.89,1-.67,1.25a.79.79,0,0,0,.1.23h0c-.86.54-1.45.81-.45.61h0c-.15.08-.11.06,0,.08a.66.66,0,0,0-.05.23l-.55.35s.33.3.69.6a.44.44,0,0,0,0,.1l-.61.39c-.23.14.65.49,1.29.59v0l-.31.2c-.33.21-.07.83.18,1a1.39,1.39,0,0,0,1-.05c.37.76,1.18,1.38,1.88,1,.9.63,1,.42,1.79-.07a1.25,1.25,0,0,0,1,.06c4.69-2.77,9.28-5.86,12.43-10.34C225.52,26.82,224.94,12.3,210.94,8.36Z"/><path class="cls-1" d="M38,10.28c-.16-2.7.34-2.66-4.22-2.52,0-1.14-.66-1.45-1.63-1.14a1.21,1.21,0,0,0-1-.1c-.89-.43-.82,0-.8.78-.66-.27-.63,0-.62.38a1.71,1.71,0,0,1-.59-.12c0,.36,0,.72,0,1.07-.46.08-.35,0-.34,1-.1,0-.17,0-.17-.07q.08,8.73.26,17.45c-4.75.13-9.36.08-14-.16q.53-9.15,1.07-18.3c.08-1.28-2.72-1.22-4.77-1.33,0-.86-.8-1.16-1.51-1.06a.86.86,0,0,0-1.1.09c-.6-.48-.52-.19-.56.53a.59.59,0,0,0-.2.06c-.39-.34-.32-.22-.37.51C7,7.18,6.71,7,6.72,6.88c0,.44-.06.88-.09,1.33-.27,0-.47,0-.47.07,0,.31,0,.63,0,.94C5.74,9.25,3.78,43.29,4,43.51c0,.93-.23,1.17.74,1.35C4.72,46,5.28,46.41,6,46.24a.49.49,0,0,0,.31.09c.65,1.1,1.74,2.42,2.49,1.4l.06.06c.28.25,2.08,1.7,2.16.25l0-.59c1.25.37,1.07-.61,1.15-2.24,1.63.19,1.36-.34,1.47-2.41a.74.74,0,0,0,.17-.43q.18-3.13.37-6.26C19,37.05,26,37,29,36.87c.23,10-.17,9.11,1,9.26,0,.29,0,.59,0,.88,0,.6.72.62,1.28.43.43.82,1,1.25,1.71.8.63.38,1.19.44,1.52-.21,1.71.45,1.56-.52,1.59-1.52,3.15.56,2.66-.29,2.62-2.37C39.17,43.62,38.51,11,38,10.28Z"/><path class="cls-1" d="M152.31,42.53c-.47-6.67-3.09-12.93-9-16.19a11.37,11.37,0,0,0,3-3.79c2.35-2.73,3.33-6.12,1.62-9.26-.42-3.64-3.52-5.64-7.21-6.43A14.27,14.27,0,0,0,133.42,5a16.89,16.89,0,0,0-8.62,1.88c-.22-.57-.71-.65-1.3-.53a.87.87,0,0,0-1.2.09c-.58-.47-.47-.22-.45.48a.39.39,0,0,0-.16.07c-.53-.58-.42-.17-.4.6l0,0a.85.85,0,0,0-.56.85c-.67.24-.54.2-.52.95-.22,0-.38,0-.38.07,0,.41,1.27,33.15,1.53,33.46.06,1.08-.12,1.23.83,1.32,0,.16,0,.33,0,.49a1,1,0,0,0,1.21.84.35.35,0,0,0,.2,0c.58.91,1.41,1.81,2.22,1.11.91.68,2.06,1.06,2.07-.11,2.1.87,1.72-.41,1.63-2.1,1.81,0,1.47-.32,1.37-2.24a.72.72,0,0,0,.28-.6c-.15-3.38-.29-6.76-.43-10.14a1.19,1.19,0,0,0,.92-.11l.47.06a1.16,1.16,0,0,0,1.16.16,11.91,11.91,0,0,1,5.15,1.92c.85,1,3.43,3.16,4,10.75,0,.27.35.46.73.56.09,1,.17,1.68,1.36,1.4a.88.88,0,0,0,.31.13,4.3,4.3,0,0,0,1.28,1.63.94.94,0,0,0,1.21-.19c.37.31,2.14,1.64,2.07.25,0-.21,0-.42,0-.63,1.55.57,1.26-.54,1-2.27,2,.42,1.73-.15,1.53-2A.68.68,0,0,0,152.31,42.53ZM134.51,14a14.73,14.73,0,0,1,4.31.51,4,4,0,0,1,.21,1.82c-1,2.37-2.7,4-8.09,6.41l-.6,0q-.17-4-.35-8.08A28.5,28.5,0,0,0,134.51,14Z"/><path class="cls-1" d="M116,8.18c-.79-.11-1.58-.17-2.37-.21a.77.77,0,0,0-.22-.24c.08-1.25-.63-1-1.72-1a.44.44,0,0,0-.28-.14h-.9c-.47-.21-28.54,0-29.06,0-.24,0-.16.29,0,.62-.57,0-.83-.1-.7.3h-.74c.24,0,.48.23.72.48l0,0a1.13,1.13,0,0,0-.57.93c-.56.17-1.1.09,0,.14a1.18,1.18,0,0,0,0,.16.7.7,0,0,0-.36.18c-.1.14-.31.34.08.34H80s0,0,0,.05h-.54c-.26,0-.28.16,0,.26a3.39,3.39,0,0,0,.43.11.76.76,0,0,0,.06.4h-.07c-.31,0-.63,0-.52.42.05.18.41.24.75.26a1.17,1.17,0,0,0-.09.24c-.13.48.15,1.36.72,1.4l1,.08c.48,1,1.21,2.35,2,2.4,3.08.27,6.16.46,9.24.62q-.62,12.29-1.68,24.56a.41.41,0,0,0,.11.28c-.07.87-.2,1.27.69,1.53,0,1.53.74,2,1.41,1.78a.88.88,0,0,0,.74.33c.93,1.53,1.14,2.08,2,2.45a.69.69,0,0,0,.82-.45c0-.2,0-.41,0-.61,1.3.83,1.27,0,1.33-1,1.19.37,1-.59,1.14-2.28,1.64.26,1.36-.29,1.53-2.33.59-.69,1.77-22.32,1.85-24,10.17.12,10.54.2,10.55-.8,1,0,1.7,0,1.23-1.2h.69c1.26,0,.32-1.44-.56-2.3h1.74c1.08,0,1.28-.85.52-1.5-.28-.15-.56-.28-.84-.41C119.13,9.92,117.8,8.15,116,8.18Z"/><path class="cls-2" d="M223.4,41.71c-.13.71-.29.83.48,1l0,.21a.92.92,0,0,0,1,1.1.76.76,0,0,0,.22.06c.63,1.1,1.83,2.63,2.33,1.46,1.27,1.05,1.36.27,1.51-.53.8.17.76-.6,1-1.81.5,0,.92,0,1-.43,0-.16.65-3.3.62-3.46.46-2.47.8-2.22-2.94-2.29a.67.67,0,0,0-.2-.23c.26-.91-.71-1-1.51-.79a1.12,1.12,0,0,0-.76-.12c-.63-.5-.62-.12-.76.6-.39-.27-.4-.1-.46.21s-.43.45-.55.92c-.16,0-.28.08-.29.14l-.12.65c-.07,0-.12.07-.13.12l-.58,3.11s.06.08.16.12"/></svg>