<svg id="INDEX" xmlns="http://www.w3.org/2000/svg" viewBox="0 0 47 52"><defs><style>.cls-1{fill:#00aeef;}</style></defs><title>love</title><path class="cls-1" d="M30.53,5.35c-2.67-2-10.35-3.42-17.25,2.79-9,6.17-6.64,18.78-6.79,17.21q1,10.07,2.12,20.12c0,.05.29.07.64.07.14,1.24,0,1.55,1,1.38a.84.84,0,0,0,.42.11c.4.91.91,1.28,1.71.83.66.33,1.32.36,1.55-.25,1.26.29,1.18-.37,1.24-1.37,1.6.2,3,.07,3-.44-.69-6.36-.63-6-.93-10,4.42-.14,8.84-.41,13.24-.83.29,9.79,0,9.23,1.1,9.56v.35a1,1,0,0,0,1.41.88c.19.08.14,0,.21.06.83,1.69,1.68,1.7,2.2,1.15.68.47,1.62.71,1.65-.13v-.26c1.58.64,1.36-.44,1.38-1.91,1.11.12,2,0,2-.37C39.63,14,40.25,6.85,30.53,5.35ZM17.78,17C22,13.28,22.55,13.86,28,13.51c.17,0,.3.11.46.16,1.09,3.1,1.49,9.27,1.64,12.59q-6.73,1.21-13.49,2.26C16.34,23.64,15.73,18.85,17.78,17Z"/></svg>