<?xml version="1.0" encoding="utf-8"?>
<!-- Generator: Adobe Illustrator 21.0.0, SVG Export Plug-In . SVG Version: 6.00 Build 0)  -->
<svg version="1.1" xmlns="http://www.w3.org/2000/svg" xmlns:xlink="http://www.w3.org/1999/xlink" x="0px" y="0px"
	 viewBox="0 0 1044 1044" style="enable-background:new 0 0 1044 1044;" xml:space="preserve">
<style type="text/css">
	.st0{display:none;}
	.st1{display:inline;fill:#FFFFFF;}
	.st2{fill:#00AEEF;}
</style>
<g id="BG" class="st0">
	<rect class="st1" width="1044" height="1044"/>
</g>
<g id="TEXT">
	<g>
		<g>
			<path class="st2" d="M619.7,183.6C619.7,183.6,619.7,183.6,619.7,183.6c0.2-0.1,0.5-0.2,0.7-0.3c1-0.4,0.9-1.3-0.1-1.6
				c-1-0.1-1.9-0.1-2.9-0.1c-0.2,0-0.4,0-0.6,0c0-0.1-0.1-0.2-0.1-0.2c0.1-0.2,0.1-0.5,0-0.8c-0.3-0.7-1-0.6-1.6-0.3
				c-0.3-0.2-0.6-0.4-1-0.2c0,0-0.1,0-0.1,0c-0.3-0.2-0.6-0.2-0.8-0.1c-2.4,1.1-5,1.6-7.6,1.6c-0.1,0-0.2,0-0.2,0c0,0-0.1,0-0.1,0
				c-0.4,0-0.7-0.1-1-0.2c-0.9-0.6-1.8-1.4-2.5-2.2c-0.9-0.9-1.4-1.9-1.7-3.1c-0.9-1.6-1.4-3.4-1.4-5.2c0-0.9,0-1.8,0.1-2.7
				c0.1-0.7,0.3-1.4,0.6-2c0.2-0.5,0.3-1,0.6-1.5c0.2-0.3,0.4-0.6,0.7-0.8c0.5-0.4,0.9-0.8,1.5-1.2c1.2-0.8,2.6-1.4,4-1.9
				c1.7-0.5,3.6-0.9,5.4-1.2c1.8-0.2,3.7-0.2,5.6-0.1c0.9,0,0.8-0.6,0.6-1.2c0.2,0,0.5,0,0.7,0c1.6,0.1-0.4-2.1-0.5-2.2
				c0,0-0.1-0.1-0.2-0.2c0.6,0,1.2,0,1.8,0c1.1,0,1.2-0.9,0.5-1.5c-0.2-0.1-0.5-0.2-0.8-0.4c0.7-0.1,1.3-0.3,1.4-0.9
				c0.1-1.3-2.8-1.2-3.4-1.2c-0.4,0-0.8,0-1.2,0c0.1-0.7-0.4-1.1-1-1.1c-0.2,0-0.4,0-0.6,0c-0.1-0.1-0.2-0.1-0.4-0.2
				c-0.4,0-0.9,0-1.3,0c-6-0.3-12.6,0.6-17.1,4.9c-1.6,1.2-3,2.7-4,4.5c-0.8,1.4-1.3,2.8-1.7,4.3c-0.9,2.4-1.2,5.1-1,7.7
				c0.1,2.8,0.8,5.5,2,7.8c0.3,0.6,0.7,1.2,1.2,1.7c1.3,2.2,3.1,4,5.4,5.1c1.5,1.1,3.2,2,5,2.4c0.6,0.1,1.2,0.2,1.8,0.3
				c3.8,0.9,7.9,0.7,11.6-0.6c1.1-0.3,2.2-0.7,3.3-1.2c1-0.4,0.3-1.2-0.2-1.7c0.7-0.2,1.3-0.5,1.9-0.8
				C621.8,184.6,620.1,183.7,619.7,183.6z"/>
			<path class="st2" d="M428.7,159.7c4.1-0.5,17.3-3.1,17.3-3.1s1.2-4.1,0.7-4.5c-0.8-0.5-2.1-0.5-3.2-0.5c0-0.5-0.4-1-0.9-1
				c-0.2,0-0.3,0-0.5,0c-0.1-0.1-0.3-0.2-0.5-0.2c-0.2,0-0.4,0-0.6,0.1c-0.1-0.1-0.2-0.1-0.2-0.1l-16.5,1.4c0.1,0,0.2,0.2,0.3,0.4
				c-0.3,0-0.5,0-0.8,0.1c-0.1-0.2-0.2-0.3-0.4-0.3c-0.3-0.1-0.5,0-0.7,0.1c0-0.1-0.1-0.1-0.1-0.1c-0.2-0.1-0.5-0.2-0.5,0.2
				c0,0.2,0,0.4,0,0.6c0,0,0,0,0,0c0-0.1-0.1-0.3-0.2-0.3c-0.4-0.1-0.4,0.2-0.4,0.5c0,0,0,0,0,0c0,0,0,0,0,0c0,0,0,0,0,0
				c-0.1-0.3-0.3-0.5-0.3-0.8c0,0.3,0,0.7-0.1,1c-0.2,0.2-0.4,0.6-0.4,0.9c0,0-0.1,0.1-0.1,0.1c-0.4,0-0.7,0.1-0.7,0.3
				c0,0.1,0,0.3,0,0.4c-0.2,0-0.4,0-0.4-0.1c-0.7,10-1.4,20-2.4,30c0,0.1,0.1,0.1,0.1,0.2c0,0.3,0,0.5-0.1,0.8
				c0,0.3,0.3,0.4,0.7,0.5c0,0,0,0,0,0.1c0,0.1,0,0.2,0,0.3c-0.1,0.1,0,0.1,0,0.2c0.1,0.4,0.3,0.7,0.6,0.9c0,0.1,0,0.1,0,0.2
				c0.1,0.7,0.5,0.7,1.1,0.6c0.1,0,0.2,0,0.3,0c0.4,0.7,0.9,1.6,1.5,1.6c0.1,0,0.1,0,0.2,0c0.2,0.1,0.5,0.1,0.6,0
				c0.4,0.4,0.8,0.6,1.1,0.6c6.7-0.2,19.4-1.3,19.4-1.3s0.3-1,0.2-1.5c0.2,0,0.4-0.1,0.6-0.1c1.3-0.2,1.8-3.7,1.1-4.1
				c-0.7-0.3-9.9-1-17.5-1c0.4-2.5,0.7-5.1,0.9-7.6c2.8-0.2,6.1-0.5,7.2-0.6c0.6,0,0.8-0.3,0.8-0.6c0.2,0,0.4,0,0.6,0
				c0.7-0.1,0.6-1,0.6-1s0.4,0,0.6-0.1c1.3-0.1,2-4.3,1.4-4.6c-0.6-0.3-6.6-0.8-10.9-1.1c0-0.6,0-1.2,0-1.8
				C428.5,163.4,428.6,161.5,428.7,159.7z M424.2,152.9C424.1,152.9,424.1,152.9,424.2,152.9c-0.1-0.1-0.1-0.2-0.1-0.3
				C424.1,152.7,424.1,152.8,424.2,152.9z"/>
			<path class="st2" d="M535.9,158.8c-1-1.7-2.4-3.1-4.1-4.2c-1.5-0.9-3.2-1.5-4.9-1.9c-1.2-0.7-2.5-1.2-3.8-1.5
				c-0.6-0.1-1.1-0.2-1.7-0.3c-0.5-0.1-1.1-0.2-1.6-0.2c-2.8-0.4-5.5,0-8.1,1.1c-0.8-0.3-1.9-0.3-2.5-0.3c-0.2,0-0.7-0.1-1.3-0.1
				c-0.1-0.6-0.3-0.9-0.9-1c-0.1,0-0.2,0-0.4,0c-0.1-0.1-0.1-0.1-0.2-0.2c-0.2-0.1-0.8,0-0.9,0.3c-0.3-0.2-0.5-0.4-0.5-0.2
				c0,0.2,0,0.4,0,0.6c-0.1,0-0.2,0.1-0.3,0.2c-0.2-0.2-0.4-0.3-0.4-0.3c0,0.3,0,0.5,0.1,0.8c-0.3,0.1-0.4,0.3-0.5,0.7
				c-0.4-0.1-0.7-0.1-0.7-0.2c0,0.4,0.1,0.8,0.1,1.3c-0.2,0-0.4,0-0.4,0c0,0.3,0,0.6,0.1,0.9c0,0,0,0,0,0c0.3,5,0.6,10,0.8,15
				c0,0.8,0.1,1.6,0.1,2.4c0.3,6,0.4,12,0.3,18c0,0.1,0,0.1,0.1,0.2c0,0.3,0,0.6,0,0.9c0,0.3,0.4,0.4,0.8,0.5c0,0.1,0,0.1,0,0.2
				c0,0.6,0.1,1,0.7,1.2c0.1,0,0.3,0,0.5,0c0,0,0,0,0,0c0.1,0,0.2,0,0.3,0c0.4,0.6,0.9,1.3,1.3,1.4c0.4,0.2,0.8,0.1,1.1-0.2
				c0,0,0,0,0,0c0.3,0.3,2,1.4,2,0.1c0-0.1,0-0.2,0-0.3c0.7,0.3,1.4,0.4,1.4-0.6c0-0.5,0-1,0-1.5c0.8,0.1,1.4,0,1.4-0.6
				c0-0.6,0-1.2,0-1.8c0.1-0.1,0.2-0.3,0.2-0.5c0.1-2.1,0.1-4.2,0.1-6.3c4.2-0.4,8.6-0.7,12.2-2.6c1.9-0.8,3.6-2,5.1-3.6
				c1.1-0.9,2-2.1,2.8-3.4c0-0.1,0.1-0.1,0.1-0.2c0.2-0.2,0.4-0.4,0.5-0.6c1.4-1.7,2.2-3.7,2.3-5.7c0.2-0.7,0.4-1.4,0.4-2.1
				C537.8,162,536.9,160.7,535.9,158.8z M525.8,168.4c-0.3,0.3-0.6,0.6-0.9,0.9c-3.1,2.3-7.1,3.2-11,3.5c0-0.6,0-1.2-0.1-1.9
				c-0.1-3.1-0.2-6.1-0.5-9.2c0.7-0.3,1.4-0.6,2.2-0.9c1.6-0.2,3.2-0.5,4.8-0.7c1.6,0.2,3.1,0.6,4.7,1.1c0.2,0,0.3,0.1,0.4,0.1
				c0.4,0.4,0.8,0.8,1.2,1.3C526.4,164.6,526.1,166.5,525.8,168.4z"/>
			<path class="st2" d="M406.4,187.8c-0.4-6.2-2.8-12.4-8.4-15.8c-0.2-0.1-0.4-0.2-0.6-0.3c1.2-1.1,2.3-2.3,3-3.8
				c0.8-0.9,1.4-1.8,1.9-2.9c0.9-2.1,0.8-4.4-0.2-6.3c-0.1-1.2-0.6-2.3-1.4-3.3c-1.5-1.8-3.6-2.7-5.8-3.1c-1.2-0.8-2.6-1.3-4.1-1.5
				c-1.1-0.3-2.1-0.4-3.2-0.4c-3-0.3-5.9,0.7-8.6,1.9c-0.1-0.4-0.4-0.6-0.9-0.6c-0.1,0-0.3,0-0.4,0c-0.1-0.1-0.2-0.1-0.2-0.2
				c-0.2-0.1-0.7,0-1,0.3c-0.3-0.2-0.5-0.3-0.5-0.1c0,0.2,0,0.4,0,0.6c-0.1,0-0.1,0-0.2,0.1c-0.1-0.2-0.4-0.4-0.4-0.1
				c0,0.2,0,0.5,0,0.7c0,0,0,0,0,0c0,0,0,0,0,0c-0.3,0.1-0.5,0.4-0.6,0.9c-0.3,0.1-0.5,0.2-0.5,0.3c0,0.2,0,0.4,0,0.6
				c-0.2,0-0.4,0-0.4,0.1c0.4,11.1,0.9,22.3,1.5,33.4c0,0,0,0.1,0.1,0.1c0,0.3,0,0.7,0,1c0,0.2,0.4,0.3,0.8,0.3c0,0.2,0,0.3,0,0.5
				c0,0.7,0.7,0.9,1.2,0.8c0,0,0,0,0,0c0,0,0.1,0,0.2,0c0.4,0.6,0.9,1.2,1.3,1.3c0.3,0.1,0.7,0,0.9-0.2c0,0,0.1,0.1,0.1,0.1
				c0.3,0.3,2,1.2,2-0.1c0,0,0-0.1,0-0.1c0.7,0.3,1.8,0.6,1.7-0.5c0-0.5-0.1-1-0.1-1.6c0.9,0,1.5-0.2,1.5-0.5c0-0.6-0.1-1.2-0.1-1.7
				c0.2-0.2,0.3-0.3,0.3-0.6c-0.2-3.4-0.3-6.8-0.4-10.1c0.2,0.1,0.4,0.1,0.6,0c0.1,0,0.2-0.1,0.3-0.1c0.2,0,0.3,0,0.5,0.1
				c0.4,0.2,0.7,0.3,1,0.2c0,0,0.1,0,0.1,0c1.8,0.2,3.6,0.9,5.2,1.9c0,0,0,0,0.1,0.1c0.7,0.8,1.3,1.5,1.8,2.4
				c1.3,2.6,1.9,5.3,2.1,8.3c0,0.3,0.3,0.5,0.7,0.6c0,0.2,0,0.4,0.1,0.6c0.1,0.7,0.5,1,1.1,0.9c0.1,0,0.1,0,0.2,0
				c0.1,0.1,0.2,0.1,0.3,0.1c0.4,0.7,0.9,1.4,1.3,1.6c0.4,0.2,1,0.2,1.2-0.2c0.4,0.3,2.1,1.6,2.1,0.3c0-0.2,0-0.4,0-0.6
				c0.6,0.2,1.3,0.3,1.2-0.6c0-0.6-0.1-1.1-0.2-1.7c0.8,0.2,1.7,0.2,1.7-0.4c0-0.5-0.1-1.1-0.1-1.6
				C406.2,188.4,406.4,188.1,406.4,187.8z M387,159.6c0.5-0.1,1-0.2,1.5-0.3c1.3,0,3,0.1,4.3,0.5c0,0,0,0,0,0
				c0.1,0.2,0.1,0.3,0.2,0.5c0.1,0.4,0.1,0.8,0,1.2c-0.4,1-1,1.8-1.7,2.6c-1.9,1.6-4.1,2.8-6.4,3.8c0,0,0,0-0.1,0
				c-0.2,0-0.4,0-0.5,0c-0.1-2.7-0.2-5.4-0.3-8.1C385.1,159.9,386,159.7,387,159.6z"/>
			<path class="st2" d="M490.8,177.2c0-0.4-0.1-0.7-0.2-1c-0.1-1.1-0.4-2.1-1-3c-0.6-1.3-1.6-2.2-3-2.8c-0.3-0.1-0.6-0.2-0.9-0.3
				c-0.1-0.6-1.3-0.7-1.9-0.7c-0.3-0.2-0.5-0.3-0.8-0.4c-0.2-0.1-0.5-0.2-0.7-0.3c-0.2-0.1-0.4-0.2-0.7-0.3
				c-0.1-0.3-0.4-0.6-0.8-0.5c-0.3,0-0.5,0-0.8,0c-1.7-0.4-3.7-0.3-5.4-0.4c-1.1-0.1-2.2-0.2-3.4-0.3c-0.7-0.1-1.5-0.2-2.2-0.3
				c0,0,0,0,0,0c-0.1,0-0.3-0.1-0.4-0.1c-0.3-0.1-0.6-0.1-0.9-0.2c0,0,0,0-0.1-0.1c-0.2-0.5-0.3-1-0.5-1.5c0-0.1,0-0.1,0.1-0.2
				c0.2-0.7,0.6-1.3,1.2-1.8c0.8-0.4,1.7-0.8,2.6-1.1c0.9-0.3,1.8-0.5,2.5-0.7c3.3-0.8,6.6-1.2,10-1.7c0.3-0.1,0.5-0.2,0.6-0.4
				c0,0,0.1,0,0.1,0c0.6-0.1,1.1-0.6,0.9-1.3c0.4,0,0.7-0.1,1.1-0.1c0.9-0.1,0.9-1.1,0.4-1.6c-0.1-0.1-0.2-0.1-0.3-0.2
				c0.2-0.1,0.3-0.3,0.3-0.5c0.2-0.8-0.5-1.1-1.2-1.1c-0.5,0-1,0-1.6,0c0-0.5-0.3-1.2-0.8-1.2c-0.2,0-0.5-0.1-0.7-0.1
				c-0.1-0.1-0.2-0.1-0.4-0.1c-1.1-0.2-2.1-0.2-3.1-0.1c0-0.1-0.1-0.3-0.1-0.4c-0.4-0.5-1.6-0.6-2.3-0.5c-0.1-0.4-0.4-1.1-0.8-1
				c-0.2,0-0.3,0.1-0.5,0.1c-0.2-0.2-0.3-0.3-0.4-0.2c-0.3,0-0.6,0.1-0.9,0.1c-0.1,0-0.1-0.1-0.2,0c-2.9,0.3-5.5,0.9-8.1,2.4
				c-1.5,0.9-2.9,2-4.1,3.2c-1.2,1-2.2,2.1-3.1,3.5c-0.7,1-1.1,2.2-1.2,3.3c-0.4,1.1-0.6,2.2-0.5,3.3c-0.2,1.4,0.1,2.7,1,3.8
				c0.1,0.1,0.1,0.1,0.2,0.2c0.7,1.7,2.1,2.6,3.7,3.1c0.2,0.1,0.3,0.3,0.5,0.4c1.3,0.8,2.6,1.1,4.2,1.1c0,0,0,0,0,0
				c0.4,0.1,0.9,0.1,1.4,0.1c2.8,0.1,5.7,0.1,8.6,0.1c0.1,0.1,0.3,0.1,0.4,0.2c0.3,0.1,0.7,0.1,1,0.1c0,0,0.1,0,0.1,0
				c0.8,0.2,1.5,0.2,2.4,0.2c0,0,0,0,0.1,0c0.1,0.1,0.2,0.1,0.2,0.2c0.2,0.5,0.4,1,0.6,1.6c0,0.2,0,0.3,0.1,0.5
				c-0.3,1.1-0.9,2.1-1.6,2.9c-0.3,0.3-0.6,0.7-0.9,1c-0.4,0.3-0.8,0.5-1.3,0.7c-0.5,0.1-1,0.2-1.5,0.3c-0.6,0.1-1.2,0.2-1.8,0.2
				c-0.2,0-0.4,0-0.5,0c-0.1,0-0.2,0-0.3,0c-0.3,0-0.6,0-0.8,0c0,0-0.1,0-0.1,0c-2.1-0.4-4-1.3-6-2.4c-0.4-0.2-1,0-1.6,0.4
				c0,0,0,0-0.1,0c-0.4-0.2-1-0.1-1.5,0.2c0,0,0,0-0.1,0c-0.8-0.4-1.5,0.3-1.6,1.1c-0.4,0-0.8,0-0.9,0.1c-0.2,0.2-0.4,0.5,0,0.6
				c0.1,0.1,0.2,0.1,0.3,0.2c0,0.1,0,0.2,0.1,0.4c-0.5,0.2-0.9,0.5-0.8,0.6c0.1,0.1,0.2,0.1,0.3,0.1c0,0,0,0,0,0.1
				c0,0.1,0,0.2,0,0.2c0,0,0,0.1,0,0.1c-0.1,0-0.1-0.1-0.2-0.1c-0.2-0.1-0.3,0-0.1,0.1c0.1,0.1,0.2,0.2,0.3,0.3c0,0,0,0,0,0
				c0,0,0,0,0,0c0,0.2,0.1,0.3,0.2,0.4c-0.1,0.1-0.1,0.3,0,0.4c-0.5,0-0.8,0.1-0.5,0.2c0.3,0.2,0.7,0.4,1.1,0.5
				c-0.4,0.3-0.5,0.7,0,1c0.6,0.3,1.1,0.6,1.7,0.8c0.1,0.1,0.3,0.2,0.4,0.3c2.6,1.3,5.2,2.2,8,2.4c2.1,0.3,4.2,0.3,6.4-0.3
				c0,0,0,0,0.1,0c1.9-0.3,3.7-1,5.3-2c0.1,0,0.1,0,0.2-0.1c1-0.4,1.9-0.9,2.7-1.6C489.7,185.2,491.2,181.4,490.8,177.2z"/>
			<path class="st2" d="M670,154.1c-0.5-0.4-1-0.6-1.7-0.6c-0.8-0.1-1.6-0.2-2.4-0.2c-0.1-0.1-0.1-0.2-0.2-0.2c0-0.5-0.1-1-0.6-1
				c-0.4,0-0.8,0-1.1,0c-0.1-0.1-0.2-0.1-0.3-0.1c-0.3,0-0.6,0-0.9,0c-0.1,0-0.1-0.1-0.2-0.1c-9.6-0.1-19.2,0-28.8,0
				c-0.2,0-0.2,0.3,0,0.6c-0.2,0-0.4,0-0.6,0c-0.1,0-0.1,0.1-0.1,0.3c-0.2,0-0.5,0-0.7,0c0.2,0,0.5,0.2,0.7,0.5c0,0,0,0,0,0
				c-0.3,0.1-0.5,0.5-0.6,0.9c-0.2,0.1-0.4,0.1-0.6,0.1c0.2,0,0.4,0,0.6,0c0,0.1,0,0.1,0,0.2c-0.2,0-0.3,0.1-0.4,0.2
				c-0.1,0.1-0.3,0.3,0.1,0.3c0,0,0.1,0,0.1,0c0,0,0,0,0,0.1c-0.2,0-0.4,0-0.5,0c-0.3,0-0.3,0.2,0,0.3c0.1,0.1,0.3,0.1,0.4,0.1
				c0,0.1,0,0.3,0.1,0.4c0,0,0,0-0.1,0c-0.3,0-0.6,0-0.5,0.4c0.1,0.2,0.4,0.2,0.8,0.3c0,0.1-0.1,0.1-0.1,0.2
				c-0.1,0.5,0.1,1.4,0.7,1.4c0.3,0,0.6,0,0.9,0.1c0,0,0,0,0,0c0.5,1,1.2,2.3,2,2.4c3.1,0.3,6.2,0.5,9.2,0.6
				c-0.4,8.2-1,16.4-1.7,24.6c0,0.1,0,0.2,0.1,0.3c0,0.2,0,0.5-0.1,0.7c0,0.4,0.3,0.7,0.8,0.8c0,0.7,0.1,1.5,0.8,1.8
				c0.2,0.1,0.4,0.1,0.6,0c0.1,0.1,0.1,0.1,0.2,0.2c0.2,0.1,0.4,0.2,0.6,0.2c0.3,0.4,0.5,0.8,0.8,1.2c0.3,0.6,0.7,1,1.2,1.2
				c0.4,0.1,0.7-0.1,0.8-0.4c0-0.2,0-0.4,0-0.6c0.6,0.4,1.2,0.6,1.3-0.3c0-0.2,0-0.5,0-0.7c0.5,0.2,1,0.1,1-0.6
				c0-0.5,0.1-1.1,0.1-1.6c0.7,0.1,1.3,0.1,1.4-0.5c0.1-0.6,0.1-1.2,0.1-1.9c0.1-0.1,0.2-0.3,0.2-0.4c0.8-7.8,1.3-15.7,1.7-23.5
				c3.2,0,6.5,0,9.7,0c0.6,0,0.8-0.3,0.9-0.8c0.2,0,0.4,0,0.6,0c0.8,0,0.8-0.6,0.6-1.2c0.2,0,0.5,0,0.7,0c1.6,0-0.4-2.1-0.5-2.2
				c0,0-0.1-0.1-0.1-0.1c0.6,0,1.2,0,1.7,0c1.1,0,1.3-0.9,0.5-1.5c-0.3-0.2-0.6-0.3-0.8-0.4C669.2,155.3,670.6,155.1,670,154.1z"/>
			<path class="st2" d="M560.7,159.7c4.1-0.5,17.3-3.1,17.3-3.1s1.2-4.1,0.7-4.5c-0.8-0.5-2.1-0.5-3.2-0.5c0-0.5-0.4-1-0.9-1
				c-0.2,0-0.3,0-0.5,0c-0.1-0.1-0.3-0.2-0.5-0.2c-0.2,0-0.4,0-0.6,0.1c-0.1-0.1-0.2-0.1-0.2-0.1l-16.5,1.4c0.1,0,0.2,0.2,0.3,0.4
				c-0.3,0-0.5,0-0.8,0.1c-0.1-0.2-0.2-0.3-0.4-0.3c-0.3-0.1-0.5,0-0.7,0.1c0-0.1-0.1-0.1-0.1-0.1c-0.2-0.1-0.5-0.2-0.5,0.2
				c0,0.2,0,0.4,0,0.6c0,0,0,0,0,0c0-0.1-0.1-0.3-0.2-0.3c-0.4-0.1-0.4,0.2-0.4,0.5c0,0,0,0,0,0c0,0,0,0,0,0c0,0,0,0,0,0
				c-0.1-0.3-0.3-0.5-0.3-0.8c0,0.3,0,0.7-0.1,1c-0.2,0.2-0.4,0.6-0.4,0.9c0,0-0.1,0.1-0.1,0.1c-0.4,0-0.7,0.1-0.7,0.3
				c0,0.1,0,0.3,0,0.4c-0.2,0-0.4,0-0.4-0.1c-0.7,10-1.4,20-2.4,30c0,0.1,0.1,0.1,0.1,0.2c0,0.3,0,0.5-0.1,0.8
				c0,0.3,0.3,0.4,0.7,0.5c0,0,0,0,0,0.1c0,0.1,0,0.2,0,0.3c-0.1,0.1,0,0.1,0,0.2c0.1,0.4,0.3,0.7,0.6,0.9c0,0.1,0,0.1,0,0.2
				c0.1,0.7,0.5,0.7,1.1,0.6c0.1,0,0.2,0,0.3,0c0.4,0.7,0.9,1.6,1.5,1.6c0.1,0,0.1,0,0.2,0c0.2,0.1,0.5,0.1,0.6,0
				c0.4,0.4,0.8,0.6,1.1,0.6c6.7-0.2,19.4-1.3,19.4-1.3s0.3-1,0.2-1.5c0.2,0,0.4-0.1,0.6-0.1c1.3-0.2,1.8-3.7,1.1-4.1
				c-0.7-0.3-9.9-1-17.5-1c0.4-2.5,0.7-5.1,0.9-7.6c2.8-0.2,6.1-0.5,7.2-0.6c0.6,0,0.8-0.3,0.8-0.6c0.2,0,0.4,0,0.6,0
				c0.7-0.1,0.6-1,0.6-1s0.4,0,0.6-0.1c1.3-0.1,2-4.3,1.4-4.6c-0.6-0.3-6.6-0.8-10.9-1.1c0-0.6,0-1.2,0-1.8
				C560.5,163.4,560.6,161.5,560.7,159.7z M556.2,152.9C556.1,152.9,556.1,152.9,556.2,152.9c-0.1-0.1-0.1-0.2-0.1-0.3
				C556.1,152.7,556.1,152.8,556.2,152.9z"/>
		</g>
		<g>
			<path class="st2" d="M587.3,271.4c0.4-1.8,0.4-3.7-0.2-5.5c-0.8-2.7-2.6-4.3-4.6-6c-0.6-0.5-1.7-0.6-2.8-0.5
				c-0.2-0.2-0.4-0.4-0.6-0.6c0-0.2-0.2-0.4-0.5-0.5c-0.4-0.2-0.8-0.5-1.3-0.7c0.4-0.2,0.8-0.6,0.4-1.1c-0.4-0.7-1-1.3-1.7-1.7
				c-1.3-0.6-2.6-1-3.9-1.3c-0.9-0.6-1.8-1-2.9-1.2c-1-0.3-2.1-0.5-3.2-0.5c-0.4-0.1-0.7-0.1-1.1-0.1c-0.5-0.1-1.1-0.1-1.6-0.1
				c-1.6,0-3.2,0.2-4.7,0.7c-1.6,0.6-3.1,1.5-4.5,2.5c-0.7,0.4-1.4,0.9-2,1.5c-2.3,2.2-4,4.8-5,7.8c-0.4,1-0.7,2.1-0.9,3.2
				c-0.5,1.9-0.6,3.9-0.3,5.8c0,0.1,0,0.2,0.1,0.3c0,0.3,0,0.5,0.1,0.8c0.3,2.4,1.3,4.6,2.7,6.5c0.7,1.3,1.7,2.5,2.9,3.6
				c1.2,1.1,2.5,1.9,3.9,2.5c0.2,0.1,0.4,0.3,0.5,0.4c2.2,1.3,4.6,2.1,7.1,2.2c2.2,0.4,4.4,0.3,6.6,0c4.4-0.7,8.7-2.5,11.5-5.9
				c1.1-1.1,2-2.4,2.8-3.8c1.7-2.2,3-4.7,3.3-7.3C587.3,272.1,587.3,271.8,587.3,271.4z M564.4,260.8c2.9,0,5.7,0.8,8.5,1.5
				c0,0.2,0,0.3,0.1,0.4c0.2,0.2,0.5,0.4,0.7,0.6c0,0.6,0.1,1.3,0.3,1.5c1,0.8,1.9,1.6,2.7,2.6c0.3,0.9,0.6,1.8,0.9,2.7
				c0,0.1,0,0.1,0,0.2c0,0.5-0.1,1-0.2,1.5c-0.7,1.8-1.7,3.5-3,4.9c-0.5,0.6-1,1.1-1.6,1.6c-2,1.4-4.3,2.4-6.7,3.1
				c-0.7,0.2-1.4,0.3-2,0.4c-0.9-0.1-1.8-0.3-2.7-0.6c-1.2-0.9-2.2-1.8-3.1-3c-1.9-2.5-2.6-5.3-2.5-8.2c0.2-1.1,0.5-2.2,0.9-3.4
				c0.2-0.4,0.4-0.9,0.6-1.3c0.1-0.1,0.2-0.2,0.3-0.4c1.3-1.4,2.9-2.6,4.7-3.4c0.5-0.2,0.9-0.4,1.4-0.5
				C563.9,260.8,564.1,260.8,564.4,260.8z"/>
			<path class="st2" d="M630.7,287.1c-0.4-6.2-2.8-12.4-8.4-15.8c-0.2-0.1-0.4-0.2-0.6-0.3c1.2-1.1,2.3-2.3,3-3.8
				c0.8-0.9,1.4-1.8,1.9-2.9c0.9-2.1,0.8-4.4-0.2-6.3c-0.1-1.2-0.6-2.3-1.4-3.3c-1.5-1.8-3.6-2.7-5.8-3.1c-1.2-0.8-2.6-1.3-4.1-1.5
				c-1.1-0.3-2.1-0.4-3.2-0.4c-3-0.3-5.9,0.7-8.6,1.9c-0.1-0.4-0.4-0.6-0.9-0.6c-0.1,0-0.3,0-0.4,0c-0.1-0.1-0.2-0.1-0.2-0.2
				c-0.2-0.1-0.7,0-1,0.3c-0.3-0.2-0.5-0.3-0.5-0.1c0,0.2,0,0.4,0,0.6c-0.1,0-0.1,0-0.2,0.1c-0.1-0.2-0.4-0.4-0.4-0.1
				c0,0.2,0,0.5,0,0.7c0,0,0,0,0,0c0,0,0,0,0,0c-0.3,0.1-0.5,0.4-0.6,0.9c-0.3,0.1-0.5,0.2-0.5,0.3c0,0.2,0,0.4,0,0.6
				c-0.2,0-0.4,0-0.4,0.1c0.4,11.1,0.9,22.3,1.5,33.4c0,0,0,0.1,0.1,0.1c0,0.3,0,0.7,0,1c0,0.2,0.4,0.3,0.8,0.3c0,0.2,0,0.3,0,0.5
				c0,0.7,0.7,0.9,1.2,0.8c0,0,0,0,0,0c0,0,0.1,0,0.2,0c0.4,0.6,0.9,1.2,1.3,1.3c0.3,0.1,0.7,0,0.9-0.2c0,0,0.1,0.1,0.1,0.1
				c0.3,0.3,2,1.2,2-0.1c0,0,0-0.1,0-0.1c0.7,0.3,1.8,0.6,1.7-0.5c0-0.5-0.1-1-0.1-1.6c0.9,0,1.5-0.2,1.5-0.5c0-0.6-0.1-1.2-0.1-1.7
				c0.2-0.2,0.3-0.3,0.3-0.6c-0.2-3.4-0.3-6.8-0.4-10.1c0.2,0.1,0.4,0.1,0.6,0c0.1,0,0.2-0.1,0.3-0.1c0.2,0,0.3,0,0.5,0.1
				c0.4,0.2,0.7,0.3,1,0.2c0,0,0.1,0,0.1,0c1.8,0.2,3.6,0.9,5.2,1.9c0,0,0,0,0.1,0.1c0.7,0.8,1.3,1.5,1.8,2.4
				c1.3,2.6,1.9,5.3,2.1,8.3c0,0.3,0.3,0.5,0.7,0.6c0,0.2,0,0.4,0.1,0.6c0.1,0.7,0.5,1,1.1,0.9c0.1,0,0.1,0,0.2,0
				c0.1,0.1,0.2,0.1,0.3,0.1c0.4,0.7,0.9,1.4,1.3,1.6c0.4,0.2,1,0.2,1.2-0.2c0.4,0.3,2.1,1.6,2.1,0.3c0-0.2,0-0.4,0-0.6
				c0.6,0.2,1.3,0.3,1.2-0.6c0-0.6-0.1-1.1-0.2-1.7c0.8,0.2,1.7,0.2,1.7-0.4c0-0.5-0.1-1.1-0.1-1.6
				C630.6,287.6,630.8,287.4,630.7,287.1z M611.4,258.8c0.5-0.1,1-0.2,1.5-0.3c1.3,0,3,0.1,4.3,0.5c0,0,0,0,0,0
				c0.1,0.2,0.1,0.3,0.2,0.5c0.1,0.4,0.1,0.8,0,1.2c-0.4,1-1,1.8-1.7,2.6c-1.9,1.6-4.1,2.8-6.4,3.8c0,0,0,0-0.1,0
				c-0.2,0-0.4,0-0.5,0c-0.1-2.7-0.2-5.4-0.3-8.1C609.4,259.1,610.4,259,611.4,258.8z"/>
			<path class="st2" d="M403.5,276.4c0-0.4-0.1-0.7-0.2-1c-0.1-1.1-0.4-2.1-1-3c-0.6-1.3-1.6-2.2-3-2.8c-0.3-0.1-0.6-0.2-0.9-0.3
				c-0.1-0.6-1.3-0.7-1.9-0.7c-0.3-0.2-0.5-0.3-0.8-0.4c-0.2-0.1-0.5-0.2-0.7-0.3c-0.2-0.1-0.4-0.2-0.7-0.3
				c-0.1-0.3-0.4-0.6-0.8-0.5c-0.3,0-0.5,0-0.8,0c-1.7-0.4-3.7-0.3-5.4-0.4c-1.1-0.1-2.2-0.2-3.4-0.3c-0.7-0.1-1.5-0.2-2.2-0.3
				c0,0,0,0,0,0c-0.1,0-0.3-0.1-0.4-0.1c-0.3-0.1-0.6-0.1-0.9-0.2c0,0,0,0-0.1-0.1c-0.2-0.5-0.3-1-0.5-1.5c0-0.1,0-0.1,0.1-0.2
				c0.2-0.7,0.6-1.3,1.2-1.8c0.8-0.4,1.7-0.8,2.6-1.1c0.9-0.3,1.8-0.5,2.5-0.7c3.3-0.8,6.6-1.2,10-1.7c0.3-0.1,0.5-0.2,0.6-0.4
				c0,0,0.1,0,0.1,0c0.6-0.1,1.1-0.6,0.9-1.3c0.4,0,0.7-0.1,1.1-0.1c0.9-0.1,0.9-1.1,0.4-1.6c-0.1-0.1-0.2-0.1-0.3-0.2
				c0.2-0.1,0.3-0.3,0.3-0.5c0.2-0.8-0.5-1.1-1.2-1.1c-0.5,0-1,0-1.6,0c0-0.5-0.3-1.2-0.8-1.2c-0.2,0-0.5-0.1-0.7-0.1
				c-0.1-0.1-0.2-0.1-0.4-0.1c-1.1-0.2-2.1-0.2-3.1-0.1c0-0.1-0.1-0.3-0.1-0.4c-0.4-0.5-1.6-0.6-2.3-0.5c-0.1-0.4-0.4-1.1-0.8-1
				c-0.2,0-0.3,0.1-0.5,0.1c-0.2-0.2-0.3-0.3-0.4-0.2c-0.3,0-0.6,0.1-0.9,0.1c-0.1,0-0.1-0.1-0.2,0c-2.9,0.3-5.5,0.9-8.1,2.4
				c-1.5,0.9-2.9,2-4.1,3.2c-1.2,1-2.2,2.1-3.1,3.5c-0.7,1-1.1,2.2-1.2,3.3c-0.4,1.1-0.6,2.2-0.5,3.3c-0.2,1.4,0.1,2.7,1,3.8
				c0.1,0.1,0.1,0.1,0.2,0.2c0.7,1.7,2.1,2.6,3.7,3.1c0.2,0.1,0.3,0.3,0.5,0.4c1.3,0.8,2.6,1.1,4.2,1.1c0,0,0,0,0,0
				c0.4,0.1,0.9,0.1,1.4,0.1c2.8,0.1,5.7,0.1,8.6,0.1c0.1,0.1,0.3,0.1,0.4,0.2c0.3,0.1,0.7,0.1,1,0.1c0,0,0.1,0,0.1,0
				c0.8,0.2,1.5,0.2,2.4,0.2c0,0,0,0,0.1,0c0.1,0.1,0.2,0.1,0.2,0.2c0.2,0.5,0.4,1,0.6,1.6c0,0.2,0,0.3,0.1,0.5
				c-0.3,1.1-0.9,2.1-1.6,2.9c-0.3,0.3-0.6,0.7-0.9,1c-0.4,0.3-0.8,0.5-1.3,0.7c-0.5,0.1-1,0.2-1.5,0.3c-0.6,0.1-1.2,0.2-1.8,0.2
				c-0.2,0-0.4,0-0.5,0c-0.1,0-0.2,0-0.3,0c-0.3,0-0.6,0-0.8,0c0,0-0.1,0-0.1,0c-2.1-0.4-4-1.3-6-2.4c-0.4-0.2-1,0-1.6,0.4
				c0,0,0,0-0.1,0c-0.4-0.2-1-0.1-1.5,0.2c0,0,0,0-0.1,0c-0.8-0.4-1.5,0.3-1.6,1.1c-0.4,0-0.8,0-0.9,0.1c-0.2,0.2-0.4,0.5,0,0.6
				c0.1,0.1,0.2,0.1,0.3,0.2c0,0.1,0,0.2,0.1,0.4c-0.5,0.2-0.9,0.5-0.8,0.6c0.1,0.1,0.2,0.1,0.3,0.1c0,0,0,0,0,0.1
				c0,0.1,0,0.2,0,0.2c0,0,0,0.1,0,0.1c-0.1,0-0.1-0.1-0.2-0.1c-0.2-0.1-0.3,0-0.1,0.1c0.1,0.1,0.2,0.2,0.3,0.3c0,0,0,0,0,0
				c0,0,0,0,0,0c0,0.2,0.1,0.3,0.2,0.4c-0.1,0.1-0.1,0.3,0,0.4c-0.5,0-0.8,0.1-0.5,0.2c0.3,0.2,0.7,0.4,1.1,0.5
				c-0.4,0.3-0.5,0.7,0,1c0.6,0.3,1.1,0.6,1.7,0.8c0.1,0.1,0.3,0.2,0.4,0.3c2.6,1.3,5.2,2.2,8,2.4c2.1,0.3,4.2,0.3,6.4-0.3
				c0,0,0,0,0.1,0c1.9-0.3,3.7-1,5.3-2c0.1,0,0.1,0,0.2-0.1c1-0.4,1.9-0.9,2.7-1.6C402.4,284.5,403.9,280.7,403.5,276.4z"/>
			<path class="st2" d="M674.8,253.3c-0.5-0.4-1-0.6-1.7-0.6c-0.8-0.1-1.6-0.2-2.4-0.2c-0.1-0.1-0.1-0.2-0.2-0.2c0-0.5-0.1-1-0.6-1
				c-0.4,0-0.8,0-1.1,0c-0.1-0.1-0.2-0.1-0.3-0.1c-0.3,0-0.6,0-0.9,0c-0.1,0-0.1-0.1-0.2-0.1c-9.6-0.1-19.2,0-28.8,0
				c-0.2,0-0.2,0.3,0,0.6c-0.2,0-0.4,0-0.6,0c-0.1,0-0.1,0.1-0.1,0.3c-0.2,0-0.5,0-0.7,0c0.2,0,0.5,0.2,0.7,0.5c0,0,0,0,0,0
				c-0.3,0.1-0.5,0.5-0.6,0.9c-0.2,0.1-0.4,0.1-0.6,0.1c0.2,0,0.4,0,0.6,0c0,0.1,0,0.1,0,0.2c-0.2,0-0.3,0.1-0.4,0.2
				c-0.1,0.1-0.3,0.3,0.1,0.3c0,0,0.1,0,0.1,0c0,0,0,0,0,0.1c-0.2,0-0.4,0-0.5,0c-0.3,0-0.3,0.2,0,0.3c0.1,0.1,0.3,0.1,0.4,0.1
				c0,0.1,0,0.3,0.1,0.4c0,0,0,0-0.1,0c-0.3,0-0.6,0-0.5,0.4c0.1,0.2,0.4,0.2,0.8,0.3c0,0.1-0.1,0.1-0.1,0.2
				c-0.1,0.5,0.1,1.4,0.7,1.4c0.3,0,0.6,0,0.9,0.1c0,0,0,0,0,0c0.5,1,1.2,2.3,2,2.4c3.1,0.3,6.2,0.5,9.2,0.6
				c-0.4,8.2-1,16.4-1.7,24.6c0,0.1,0,0.2,0.1,0.3c0,0.2,0,0.5-0.1,0.7c0,0.4,0.3,0.7,0.8,0.8c0,0.7,0.1,1.5,0.8,1.8
				c0.2,0.1,0.4,0.1,0.6,0c0.1,0.1,0.1,0.1,0.2,0.2c0.2,0.1,0.4,0.2,0.6,0.2c0.3,0.4,0.5,0.8,0.8,1.2c0.3,0.6,0.7,1,1.2,1.2
				c0.4,0.1,0.7-0.1,0.8-0.4c0-0.2,0-0.4,0-0.6c0.6,0.4,1.2,0.6,1.3-0.3c0-0.2,0-0.5,0-0.7c0.5,0.2,1,0.1,1-0.6
				c0-0.5,0.1-1.1,0.1-1.6c0.7,0.1,1.3,0.1,1.4-0.5c0.1-0.6,0.1-1.2,0.1-1.9c0.1-0.1,0.2-0.3,0.2-0.4c0.8-7.8,1.3-15.7,1.7-23.5
				c3.2,0,6.5,0,9.7,0c0.6,0,0.8-0.3,0.9-0.8c0.2,0,0.4,0,0.6,0c0.8,0,0.8-0.6,0.6-1.2c0.2,0,0.5,0,0.7,0c1.6,0-0.4-2.1-0.5-2.2
				c0,0-0.1-0.1-0.1-0.1c0.6,0,1.2,0,1.7,0c1.1,0,1.3-0.9,0.5-1.5c-0.3-0.2-0.6-0.3-0.8-0.4C674,254.6,675.5,254.4,674.8,253.3z"/>
			<path class="st2" d="M448.5,253.9c0.2-1.3-3.4-0.7-3.7-0.7c-0.1,0-0.3,0-0.5,0c0,0,0,0,0,0c0-0.2,0.1-0.4,0.1-0.7
				c0.1-1-0.8-1-1.7-0.6c-0.2-0.2-0.5-0.3-0.7-0.3c-0.1,0-0.3,0.1-0.5,0.2c-0.5-0.2-1.2-0.1-1.3,0.6c0,0.1,0,0.2,0,0.3
				c-0.1,0-0.2,0-0.3,0.1c-0.4,0-0.8,0.1-0.8,0.3c-0.1,0.5-0.1,0.9-0.2,1.4c0,0,0,0,0,0c0,0.1,0,0.3-0.1,0.4c-0.1,0-0.1,0-0.1,0
				c-1.1,7.5-2.3,14.9-3.5,22.4c-0.1,0.4-0.1,0.8-0.2,1.2c-0.1,0.3-0.2,0.6-0.3,0.9c-0.4,0.8-0.9,1.5-1.5,2.1
				c-1,0.8-2.2,1.4-3.7,1.7c-0.1,0-0.3,0-0.4,0.1c-0.5-0.1-1.1-0.1-1.6-0.3c-0.1-0.1-0.3-0.2-0.4-0.3c-1.4-1.1-2.7-2.4-3-4.2
				c-0.2-1-0.2-2.1-0.1-3.1c0-0.1,0-0.1,0-0.2c0.5-2.8,0.9-5.5,1.2-8.3c0.5-2.9,0.6-5.8,0.3-8.7c0-1-0.1-2.1-0.1-3.1
				c0-0.5-0.3-0.9-0.7-1.2c-0.1-0.3-0.1-0.5-0.2-0.8c-0.1-1.1-1.2-1.1-2-1.1c-0.3,0-0.5,0-0.8,0c-0.1-0.4-0.2-0.8-0.5-1
				c-0.2-0.1-0.7-0.1-1,0.2c-0.3-0.3-0.5-0.4-0.6-0.1c-0.1,0.3-0.1,0.6-0.1,0.9c0,0,0,0,0,0c-0.2-0.4-0.4-0.6-0.5-0.1
				c0,0.1,0,0.1,0,0.2c-0.3-0.2-0.5-0.4-0.5-0.6c-0.1,0.6-0.2,1.3-0.3,1.9c-0.4,0-0.6,0.1-0.7,0.2c-0.4,2.7-0.8,5.4-1.1,8.2
				c0,0,0,0,0,0c-0.1,0.7-0.2,1.4-0.3,2.1c-0.2,0-0.3,0-0.4,0.1c-0.4,2.8-0.7,5.6-1.1,8.4c-0.1,0.6-0.2,1.2-0.2,1.9
				c-0.1,0.5-0.1,1-0.2,1.5c-0.1,1.1-0.1,2.1,0,3.2c0,0.5,0.1,1.1,0.2,1.6c0.3,1.2,0.8,2.2,1.5,3.1c0,0.1,0,0.1,0.1,0.2
				c1.2,2.3,3.4,4,5.9,4.9c1.6,1.1,3.5,1.8,5.6,2c0.1,0,0.1,0,0.2,0c1.9,0.5,3.9,0.5,5.8,0c2.9-0.2,5.8-1.5,7.7-3.9
				c0.3-0.4,0.5-0.8,0.8-1.2c0.3-0.3,0.6-0.6,0.9-1c1.2-1.6,1.8-3.3,2.1-5.2c1.3-7.7,2.5-15.5,3.7-23.2c0-0.2,0-0.3-0.1-0.5
				C448.3,255.1,448.4,254.5,448.5,253.9z"/>
			<path class="st2" d="M493.3,258.1c-1-1.7-2.4-3.1-4.1-4.2c-1.5-0.9-3.2-1.5-4.9-1.9c-1.2-0.7-2.5-1.2-3.8-1.5
				c-0.6-0.1-1.1-0.2-1.7-0.3c-0.5-0.1-1.1-0.2-1.6-0.2c-2.8-0.4-5.5,0-8.1,1.1c-0.8-0.3-1.9-0.3-2.5-0.3c-0.2,0-0.7-0.1-1.3-0.1
				c-0.1-0.6-0.3-0.9-0.9-1c-0.1,0-0.2,0-0.4,0c-0.1-0.1-0.1-0.1-0.2-0.2c-0.2-0.1-0.8,0-0.9,0.3c-0.3-0.2-0.5-0.4-0.5-0.2
				c0,0.2,0,0.4,0,0.6c-0.1,0-0.2,0.1-0.3,0.2c-0.2-0.2-0.4-0.3-0.4-0.3c0,0.3,0,0.5,0.1,0.8c-0.3,0.1-0.4,0.3-0.5,0.7
				c-0.4-0.1-0.7-0.1-0.7-0.2c0,0.4,0.1,0.8,0.1,1.3c-0.2,0-0.4,0-0.4,0c0,0.3,0,0.6,0.1,0.9c0,0,0,0,0,0c0.3,5,0.6,10,0.8,15
				c0,0.8,0.1,1.6,0.1,2.4c0.3,6,0.4,12,0.3,18c0,0.1,0,0.1,0.1,0.2c0,0.3,0,0.6,0,0.9c0,0.3,0.4,0.4,0.8,0.5c0,0.1,0,0.1,0,0.2
				c0,0.6,0.1,1,0.7,1.2c0.1,0,0.3,0,0.5,0c0,0,0,0,0,0c0.1,0,0.2,0,0.3,0c0.4,0.6,0.9,1.3,1.3,1.4c0.4,0.2,0.8,0.1,1.1-0.2
				c0,0,0,0,0,0c0.3,0.3,2,1.4,2,0.1c0-0.1,0-0.2,0-0.3c0.7,0.3,1.4,0.4,1.4-0.6c0-0.5,0-1,0-1.5c0.8,0.1,1.4,0,1.4-0.6
				c0-0.6,0-1.2,0-1.8c0.1-0.1,0.2-0.3,0.2-0.5c0.1-2.1,0.1-4.2,0.1-6.3c4.2-0.4,8.6-0.7,12.2-2.6c1.9-0.8,3.6-2,5.1-3.6
				c1.1-0.9,2-2.1,2.8-3.4c0-0.1,0.1-0.1,0.1-0.2c0.2-0.2,0.4-0.4,0.5-0.6c1.4-1.7,2.2-3.7,2.3-5.7c0.2-0.7,0.4-1.4,0.4-2.1
				C495.2,261.2,494.3,259.9,493.3,258.1z M483.2,267.7c-0.3,0.3-0.6,0.6-0.9,0.9c-3.1,2.3-7.1,3.2-11,3.5c0-0.6,0-1.2-0.1-1.9
				c-0.1-3.1-0.2-6.1-0.5-9.2c0.7-0.3,1.4-0.6,2.2-0.9c1.6-0.2,3.2-0.5,4.8-0.7c1.6,0.2,3.1,0.6,4.7,1.1c0.2,0,0.3,0.1,0.4,0.1
				c0.4,0.4,0.8,0.8,1.2,1.3C483.8,263.8,483.5,265.7,483.2,267.7z"/>
			<path class="st2" d="M536.3,258.1c-1-1.7-2.4-3.1-4.1-4.2c-1.5-0.9-3.2-1.5-4.9-1.9c-1.2-0.7-2.5-1.2-3.8-1.5
				c-0.6-0.1-1.1-0.2-1.7-0.3c-0.5-0.1-1.1-0.2-1.6-0.2c-2.8-0.4-5.5,0-8.1,1.1c-0.8-0.3-1.9-0.3-2.5-0.3c-0.2,0-0.7-0.1-1.3-0.1
				c-0.1-0.6-0.3-0.9-0.9-1c-0.1,0-0.2,0-0.4,0c-0.1-0.1-0.1-0.1-0.2-0.2c-0.2-0.1-0.8,0-0.9,0.3c-0.3-0.2-0.5-0.4-0.5-0.2
				c0,0.2,0,0.4,0,0.6c-0.1,0-0.2,0.1-0.3,0.2c-0.2-0.2-0.4-0.3-0.4-0.3c0,0.3,0,0.5,0.1,0.8c-0.3,0.1-0.4,0.3-0.5,0.7
				c-0.4-0.1-0.7-0.1-0.7-0.2c0,0.4,0.1,0.8,0.1,1.3c-0.2,0-0.4,0-0.4,0c0,0.3,0,0.6,0.1,0.9c0,0,0,0,0,0c0.3,5,0.6,10,0.8,15
				c0,0.8,0.1,1.6,0.1,2.4c0.3,6,0.4,12,0.3,18c0,0.1,0,0.1,0.1,0.2c0,0.3,0,0.6,0,0.9c0,0.3,0.4,0.4,0.8,0.5c0,0.1,0,0.1,0,0.2
				c0,0.6,0.1,1,0.7,1.2c0.1,0,0.3,0,0.5,0c0,0,0,0,0,0c0.1,0,0.2,0,0.3,0c0.4,0.6,0.9,1.3,1.3,1.4c0.4,0.2,0.8,0.1,1.1-0.2
				c0,0,0,0,0,0c0.3,0.3,2,1.4,2,0.1c0-0.1,0-0.2,0-0.3c0.7,0.3,1.4,0.4,1.4-0.6c0-0.5,0-1,0-1.5c0.8,0.1,1.4,0,1.4-0.6
				c0-0.6,0-1.2,0-1.8c0.1-0.1,0.2-0.3,0.2-0.5c0.1-2.1,0.1-4.2,0.1-6.3c4.2-0.4,8.6-0.7,12.2-2.6c1.9-0.8,3.6-2,5.1-3.6
				c1.1-0.9,2-2.1,2.8-3.4c0-0.1,0.1-0.1,0.1-0.2c0.2-0.2,0.4-0.4,0.5-0.6c1.4-1.7,2.2-3.7,2.3-5.7c0.2-0.7,0.4-1.4,0.4-2.1
				C538.2,261.2,537.3,259.9,536.3,258.1z M526.2,267.7c-0.3,0.3-0.6,0.6-0.9,0.9c-3.1,2.3-7.1,3.2-11,3.5c0-0.6,0-1.2-0.1-1.9
				c-0.1-3.1-0.2-6.1-0.5-9.2c0.7-0.3,1.4-0.6,2.2-0.9c1.6-0.2,3.2-0.5,4.8-0.7c1.6,0.2,3.1,0.6,4.7,1.1c0.2,0,0.3,0.1,0.4,0.1
				c0.4,0.4,0.8,0.8,1.2,1.3C526.8,263.8,526.5,265.7,526.2,267.7z"/>
		</g>
		<g>
			<path class="st2" d="M578,360.9c4.1-0.5,17.3-3.1,17.3-3.1s1.2-4.1,0.7-4.5c-0.8-0.5-2.1-0.5-3.2-0.5c0-0.5-0.4-1-0.9-1
				c-0.2,0-0.3,0-0.5,0c-0.1-0.1-0.3-0.2-0.5-0.2c-0.2,0-0.4,0-0.6,0.1c-0.1-0.1-0.2-0.1-0.2-0.1l-16.5,1.4c0.1,0,0.2,0.2,0.3,0.4
				c-0.3,0-0.5,0-0.8,0.1c-0.1-0.2-0.2-0.3-0.4-0.3c-0.3-0.1-0.5,0-0.7,0.1c0-0.1-0.1-0.1-0.1-0.1c-0.2-0.1-0.5-0.2-0.5,0.2
				c0,0.2,0,0.4,0,0.6c0,0,0,0,0,0c0-0.1-0.1-0.3-0.2-0.3c-0.4-0.1-0.4,0.2-0.4,0.5c0,0,0,0,0,0c0,0,0,0,0,0c0,0,0,0,0,0
				c-0.1-0.3-0.3-0.5-0.3-0.8c0,0.3,0,0.7-0.1,1c-0.2,0.2-0.4,0.6-0.4,0.9c0,0-0.1,0.1-0.1,0.1c-0.4,0-0.7,0.1-0.7,0.3
				c0,0.1,0,0.3,0,0.4c-0.2,0-0.4,0-0.4-0.1c-0.7,10-1.4,20-2.4,30c0,0.1,0.1,0.1,0.1,0.2c0,0.3,0,0.5-0.1,0.8
				c0,0.3,0.3,0.4,0.7,0.5c0,0,0,0,0,0.1c0,0.1,0,0.2,0,0.3c-0.1,0.1,0,0.1,0,0.2c0.1,0.4,0.3,0.7,0.6,0.9c0,0.1,0,0.1,0,0.2
				c0.1,0.7,0.5,0.7,1.1,0.6c0.1,0,0.2,0,0.3,0c0.4,0.7,0.9,1.6,1.5,1.6c0.1,0,0.1,0,0.2,0c0.2,0.1,0.5,0.1,0.6,0
				c0.4,0.4,0.8,0.6,1.1,0.6c6.7-0.2,19.4-1.3,19.4-1.3s0.3-1,0.2-1.5c0.2,0,0.4-0.1,0.6-0.1c1.3-0.2,1.8-3.7,1.1-4.1
				c-0.7-0.3-9.9-1-17.5-1c0.4-2.5,0.7-5.1,0.9-7.6c2.8-0.2,6.1-0.5,7.2-0.6c0.6,0,0.8-0.3,0.8-0.6c0.2,0,0.4,0,0.6,0
				c0.7-0.1,0.6-1,0.6-1s0.4,0,0.6-0.1c1.3-0.1,2-4.3,1.4-4.6c-0.6-0.3-6.6-0.8-10.9-1.1c0-0.6,0-1.2,0-1.8
				C577.8,364.6,577.9,362.8,578,360.9z M573.5,354.1C573.5,354.1,573.4,354.1,573.5,354.1c-0.1-0.1-0.1-0.2-0.1-0.3
				C573.4,353.9,573.4,354,573.5,354.1z"/>
			<path class="st2" d="M508,356.5c0.1-1.3-2.9-1.2-3.5-1.3c-0.2,0-0.8-0.1-1.5-0.1c-0.1-0.7-0.7-1-1.3-1c-0.1-0.1-0.1-0.1-0.2-0.2
				c-0.3-0.1-0.8,0-0.9,0.3c-0.3-0.2-0.5-0.4-0.5-0.2c0,0.2,0,0.4-0.1,0.6c-0.1,0-0.1,0.1-0.2,0.1c-0.2-0.2-0.3-0.3-0.3-0.2
				c0,0.3,0,0.5-0.1,0.8c-0.2,0.1-0.4,0.4-0.4,0.7c-0.4,0-0.7-0.1-0.7-0.1c0,0.4-0.1,0.8-0.1,1.1c-0.1,0-0.2,0-0.2,0.1
				c-0.8,10.3-1.8,20.7-1.9,31c0,0.1,0,0.1,0.1,0.2c0,0.3,0,0.6,0,0.9c0,0.2,0.4,0.4,0.8,0.4c0,0.1,0,0.2,0,0.3c0,0.6,0.1,1,0.7,1.1
				c0.1,0,0.3,0,0.5,0c0,0,0,0,0,0c0.1,0,0.1,0,0.2,0c0.4,0.7,0.9,1.3,1.3,1.5c0.4,0.2,0.8,0.1,1.1-0.2c0,0,0,0,0.1,0.1
				c0.3,0.3,2,1.5,2.1,0.1c0-0.1,0-0.2,0-0.4c0.6,0.2,1.3,0.3,1.3-0.6c0-0.5,0-1,0-1.5c0.8,0.1,1.4,0,1.4-0.6c0-0.6,0-1.2,0-1.8
				c0.1-0.1,0.2-0.3,0.2-0.5C506.3,376.9,507.3,366.7,508,356.5z"/>
			<path class="st2" d="M483.9,374.1c0-0.3-0.1-0.6-0.3-0.8c-0.3-0.5-0.8-0.7-1.4-0.8c-0.9-0.2-2-0.2-3-0.2
				c-0.1-0.4-0.2-0.6-0.5-0.9c-0.3-0.3-0.5-0.4-0.9-0.4c-0.2,0-0.4,0.1-0.6,0.1c-0.1,0-0.1,0-0.2,0c-0.5-0.2-1.1-0.3-1.9-0.3
				c-3.1-0.3-8.7,2.1-8.1,1.9c-0.3,0.1-0.3,0.3-0.2,0.6c-0.4,0.2-0.6,0.3-0.5,0.2c-0.1,0-0.1,0.1-0.1,0.2c-0.2,0.1-0.4,0.1-0.6,0.2
				c0.3-0.1,0.6,0.1,0.9,0.2c0,0,0,0,0,0c-0.1,0-0.1,0-0.2,0c0,0,0,0.2,0.1,0.4c0,0,0,0,0,0.1c-0.3,0.1-0.7,0.2-1,0.3
				c0.2,0,0.5,0,0.9,0c-0.1,0.2-0.1,0.5-0.1,0.7c-0.3,0.1-0.6,0.2-0.9,0.3c0.1,0,0.2,0.1,0.5,0.1c0,0,0,0,0,0c0,0,0,0,0,0
				c0.1,0,0.3,0.1,0.4,0.2c0,0,0,0,0,0c-0.2,0.1-0.3,0.2-0.3,0.4c-0.4,0.1-0.6,0.2-0.5,0.2c0,0,0.3,0,0.6,0.1
				c0.1,0.2,0.4,0.2,0.6,0.2c0,0,0,0,0,0c0,0.1-0.1,0.1-0.1,0.2c-0.4,0.1-0.5,0.2,0,0.1c0,0,0,0.1,0,0.1c-0.4,0.1-0.5,0.2,0,0.1
				c0,0,0,0,0,0c0,0,0,0,0,0c-0.7,0.4-0.4,1.1,0.7,0.9c0.1,0,0.1,0,0.2,0c0.3,0.7,1,1.3,1.6,1.2c0.2-0.1,0.4-0.1,0.5-0.2
				c0.4,0.2,0.7,0.3,1,0.3c1.2-0.2,2.5-0.4,3.8-0.6c0.3,0.8,0.6,1.6,0.9,2.5c-0.2,0-0.3,0.1-0.4,0.2c0,0,0,0,0,0
				c-0.3-0.2-0.8-0.3-1.2,0c-2,1.7-4.5,3.1-7.1,3.7c-0.9-0.1-1.7-0.2-2.5-0.5c-0.1-0.1-0.1-0.1-0.2-0.1c-3.2-2.9-5.3-7.7-5.6-11.9
				c0-0.5,0-0.9,0-1.3c0.1-0.7,0.3-1.3,0.5-2c0.3-0.9,0.7-1.7,1.1-2.4c0.2-0.3,0.5-0.6,0.7-0.9c0.4-0.4,0.9-0.8,1.3-1.1
				c3.8-3.1,8.6-4.6,12.9-6.9c0,0,0.1-0.1,0.1-0.1c0.3-0.1,0.7-0.2,1-0.4c0.7-0.2,0.6-0.9,0-1.7c0.7-0.2,1.3-0.4,2-0.6
				c0.3-0.2,0.4-0.5,0.3-0.9c-0.4-0.5-0.9-0.9-1.5-1c-0.1,0-0.2-0.1-0.3-0.1c0.6-0.3,0.5-1.1-0.1-1.5c-0.6-0.4-1.8-0.5-2.8-0.4
				c0-0.5-0.5-1-1.2-0.9c-0.2-0.2-0.4-0.3-0.6-0.3c-0.3,0.1-0.5,0.1-0.8,0.2c-0.1-0.1-0.3-0.2-0.4-0.1c-5,1.4-9.9,3.2-13.8,6.4
				c-1.2,0.8-2.3,1.7-3.3,2.8c-2,2.2-3.5,4.8-4.3,7.7c-0.1,0.3-0.1,0.5-0.2,0.8c-0.7,2.1-0.9,4.2-0.7,6.3c0.1,2.9,1,5.7,2.5,8.4
				c0.3,0.6,0.7,1.1,1,1.7c1.6,2.8,3.7,5.3,6.6,6.6c0.9,0.7,1.9,1.2,3,1.6c0.8,0.3,1.6,0.4,2.5,0.5c2,0.5,4,0.3,5.8-0.2
				c2.4-0.3,4.7-1.4,6.7-2.8c0,0,0.1,0,0.1,0c-0.1,0.2-0.2,0.5-0.2,0.7c0.1,0.7,0.8,0.8,1.4,0.6c0,0,0.1,0,0.1,0
				c0.3,0.6,0.7,1.1,1.1,1.3c0.3,0.1,0.7,0.1,1-0.1c0.2,0.2,0.4,0.3,0.6,0.3c0.6,0.2,1-0.1,1.1-0.6c0.7,0.3,1.6,0.5,1.6-0.5
				c0-0.4,0-0.8,0-1.2c1,0.2,2.1,0.2,2-0.5c0-0.6-0.1-1.2-0.1-1.8c0.1-0.1,0.2-0.3,0.2-0.5C485.1,383.4,484.7,378.7,483.9,374.1z"/>
			<path class="st2" d="M555.1,357.7c-0.6,0-1.1,0-1.6,0.1c0-0.2-0.1-0.3-0.3-0.4c0.4-1.3-0.7-1.4-1.9-1c-0.2-0.1-0.4-0.2-0.5-0.3
				c-0.2,0-0.4,0.1-0.6,0.2c-0.5-0.2-1-0.1-1.3,0.5c0,0.1-0.1,0.2-0.1,0.4c-0.1,0-0.3,0.1-0.4,0.2c-0.3,0-0.6,0-0.6,0.1
				c-2.7,7.6-5.7,14.8-10.1,21.6c-0.4,0.7-1,1.5-1.6,2.4c-0.8-1.6-1.5-3.3-2.1-5c-1.2-3-2.2-6-3.2-9.1c-1-3-2.2-5.7-3.5-8.6
				c-0.3-0.6-2.5-0.8-4.2-0.7c-0.1-0.3-0.2-0.5-0.4-0.8c-0.2-0.5-0.8-0.3-1.2-0.2c-0.4-0.3-1-0.3-0.8,0.4c-0.3-0.3-0.5-0.5-0.6-0.6
				c0.1,0.2,0.1,0.4,0.2,0.6c-0.1,0-0.2,0.2-0.3,0.5c-0.2-0.3-0.4-0.5-0.4-0.6c0.1,0.2,0.2,0.5,0.2,0.7c-0.1,0.1-0.1,0.2-0.2,0.3
				c-0.3,0.2-0.4,0.5-0.4,0.9c0,0,0,0,0,0c-0.4,0.1-0.7,0.3-0.7,0.4c0.1,0.3,0.2,0.5,0.3,0.8c0,0,0,0.1,0,0.1c0,0,0,0.1,0,0.1
				c-0.3,0-0.6,0.1-0.6,0c2.5,8,5,16.2,8.5,23.8c0.8,1.6,1.2,3.5,2.3,4.4c0.3,0.6,0.6,1.1,1,1.6c0.4,0.4,0.7,0.5,1.2,0.6
				c0.1,0,0.2,0,0.4,0c0,0,0,0,0,0c0.4,0.6,0.8,1.2,1.4,1.6c0.6,0.4,1.2,0.4,1.8,0.2c0.5,0.4,1.1,0.7,1.8,0.6
				c1.1-0.2,2.9-1.7,3.3-2.1c0.8-0.8,1.6-1.6,2.3-2.5c1.1-1.2,2.1-2.6,3-4c0.7-1.1,1.4-2.3,2.1-3.4c4.1-6.6,6.9-13.5,9.6-20.8
				c0.1-0.3,0-0.6-0.3-0.8c0.1-0.4,0.3-0.7,0.4-1.1C557.4,357.7,556,357.7,555.1,357.7z"/>
		</g>
		<g>
			<path class="st2" d="M449.7,464.8c-0.1-1.3-0.2-2.7-0.3-4c-0.3-2.2-0.6-4.5-1.7-6.5c-1.5-2.7-4.1-3.7-6.8-4.2
				c-1-0.8-2.2-1.2-3.6-1.4c-0.6-0.1-1.2-0.2-1.8-0.2c-4.1-0.6-8.6,1.6-11.8,4.4c-2.1,1.4-3.8,3.4-5,5.7c-0.6,1.1-0.9,2.2-1.1,3.3
				c-0.2,0.5-0.3,0.9-0.5,1.4c-0.4,1.9-0.5,3.8-0.3,5.8c0,0.2,0,0.4,0.1,0.5c0,0.1,0,0.3,0,0.4c0.6,6.7,1.3,13.4,2.1,20.1
				c0,0.1,0.3,0.1,0.6,0.1c0,0.4,0.1,0.8,0.1,1.2c0,0.2,0.4,0.3,0.8,0.2c0.1,0.1,0.3,0.1,0.4,0.1c0.2,0.5,0.6,1,1,1
				c0.2,0,0.5,0,0.8-0.2c0.7,0.3,1.3,0.4,1.6-0.3c0.7,0.2,1.2,0,1.2-0.8c0-0.2,0-0.4,0-0.6c1.6,0.2,3,0.1,3-0.4c-0.2-2-0.4-4-0.6-6
				c-0.1-1.3-0.2-2.7-0.3-4c4.4-0.1,8.8-0.4,13.2-0.8c0.1,3,0.2,6,0.3,8.9c0,0.2,0.4,0.5,0.8,0.6c0,0.1,0,0.2,0,0.3
				c0,0.9,0.8,1.1,1.4,0.9c0.1,0,0.1,0,0.2,0.1c0,0,0,0,0,0c0.3,0.6,0.7,1.1,1,1.3c0.4,0.2,0.9,0.1,1.2-0.2c0,0,0.1,0,0.1,0.1
				c0.4,0.2,1.5,0.8,1.6-0.2c0-0.1,0-0.2,0-0.3c0.6,0.3,1.3,0.4,1.4-0.5c0-0.5,0-0.9,0-1.4c1.1,0.1,2,0,2-0.4
				C450.4,481.1,450.6,472.8,449.7,464.8z M426.6,468.1c-0.1-1.3,0-2.5,0.2-3.8c0.1-0.6,0.3-1.1,0.6-1.6c0.2-0.3,0.4-0.6,0.7-0.8
				c0,0,0,0,0,0c1.3-1.1,2.7-2.1,4.2-2.9c0.4-0.1,0.9-0.2,1.3-0.3c1.6-0.1,3.2-0.2,4.8-0.3c0.2,0,0.3,0.1,0.5,0.2
				c0.4,1.2,0.7,2.6,0.9,4c0.4,2.9,0.6,5.7,0.7,8.6c-4.5,0.8-9,1.6-13.5,2.3C426.8,471.6,426.7,469.8,426.6,468.1z"/>
			<path class="st2" d="M494.2,483C494.2,483,494.1,483,494.2,483c0.2-0.1,0.5-0.2,0.7-0.3c1-0.4,0.9-1.3-0.1-1.6
				c-1-0.1-1.9-0.1-2.9-0.1c-0.2,0-0.4,0-0.6,0c0-0.1-0.1-0.2-0.1-0.2c0.1-0.2,0.1-0.5,0-0.8c-0.3-0.7-1-0.6-1.6-0.3
				c-0.3-0.2-0.6-0.4-1-0.2c0,0-0.1,0-0.1,0c-0.3-0.2-0.6-0.2-0.8-0.1c-2.4,1.1-5,1.6-7.6,1.6c-0.1,0-0.2,0-0.2,0c0,0-0.1,0-0.1,0
				c-0.4,0-0.7-0.1-1-0.2c-0.9-0.6-1.8-1.4-2.5-2.2c-0.9-0.9-1.4-1.9-1.7-3.1c-0.9-1.6-1.4-3.4-1.4-5.2c0-0.9,0-1.8,0.1-2.7
				c0.1-0.7,0.3-1.4,0.6-2c0.2-0.5,0.3-1,0.6-1.5c0.2-0.3,0.4-0.6,0.7-0.8c0.5-0.4,0.9-0.8,1.5-1.2c1.2-0.8,2.6-1.4,4-1.9
				c1.7-0.5,3.6-0.9,5.4-1.2c1.8-0.2,3.7-0.2,5.6-0.1c0.9,0,0.8-0.6,0.6-1.2c0.2,0,0.5,0,0.7,0c1.6,0.1-0.4-2.1-0.5-2.2
				c0,0-0.1-0.1-0.2-0.2c0.6,0,1.2,0,1.8,0c1.1,0,1.2-0.9,0.5-1.5c-0.2-0.1-0.5-0.2-0.8-0.4c0.7-0.1,1.3-0.3,1.4-0.9
				c0.1-1.3-2.8-1.2-3.4-1.2c-0.4,0-0.8,0-1.2,0c0.1-0.7-0.4-1.1-1-1.1c-0.2,0-0.4,0-0.6,0c-0.1-0.1-0.2-0.1-0.4-0.2
				c-0.4,0-0.9,0-1.3,0c-6-0.3-12.6,0.6-17.1,4.9c-1.6,1.2-3,2.7-4,4.5c-0.8,1.4-1.3,2.8-1.7,4.3c-0.9,2.4-1.2,5.1-1,7.7
				c0.1,2.8,0.8,5.5,2,7.8c0.3,0.6,0.7,1.2,1.2,1.7c1.3,2.2,3.1,4,5.4,5.1c1.5,1.1,3.2,2,5,2.4c0.6,0.1,1.2,0.2,1.8,0.3
				c3.8,0.9,7.9,0.7,11.6-0.6c1.1-0.3,2.2-0.7,3.3-1.2c1-0.4,0.3-1.2-0.2-1.7c0.7-0.2,1.3-0.5,1.9-0.8
				C496.2,484.1,494.6,483.2,494.2,483z"/>
			<path class="st2" d="M389.5,459.1c4.1-0.5,17.3-3.1,17.3-3.1s1.2-4.1,0.7-4.5c-0.8-0.5-2.1-0.5-3.2-0.5c0-0.5-0.4-1-0.9-1
				c-0.2,0-0.3,0-0.5,0c-0.1-0.1-0.3-0.2-0.5-0.2c-0.2,0-0.4,0-0.6,0.1c-0.1-0.1-0.2-0.1-0.2-0.1l-16.5,1.4c0.1,0,0.2,0.2,0.3,0.4
				c-0.3,0-0.5,0-0.8,0.1c-0.1-0.2-0.2-0.3-0.4-0.3c-0.3-0.1-0.5,0-0.7,0.1c0-0.1-0.1-0.1-0.1-0.1c-0.2-0.1-0.5-0.2-0.5,0.2
				c0,0.2,0,0.4,0,0.6c0,0,0,0,0,0c0-0.1-0.1-0.3-0.2-0.3c-0.4-0.1-0.4,0.2-0.4,0.5c0,0,0,0,0,0c0,0,0,0,0,0c0,0,0,0,0,0
				c-0.1-0.3-0.3-0.5-0.3-0.8c0,0.3,0,0.7-0.1,1c-0.2,0.2-0.4,0.6-0.4,0.9c0,0-0.1,0.1-0.1,0.1c-0.4,0-0.7,0.1-0.7,0.3
				c0,0.1,0,0.3,0,0.4c-0.2,0-0.4,0-0.4-0.1c-0.7,10-1.4,20-2.4,30c0,0.1,0.1,0.1,0.1,0.2c0,0.3,0,0.5-0.1,0.8
				c0,0.3,0.3,0.4,0.7,0.5c0,0,0,0,0,0.1c0,0.1,0,0.2,0,0.3c-0.1,0.1,0,0.1,0,0.2c0.1,0.4,0.3,0.7,0.6,0.9c0,0.1,0,0.1,0,0.2
				c0.1,0.7,0.5,0.7,1.1,0.6c0.1,0,0.2,0,0.3,0c0.4,0.7,0.9,1.6,1.5,1.6c0.1,0,0.1,0,0.2,0c0.2,0.1,0.5,0.1,0.6,0
				c0.4,0.4,0.8,0.6,1.1,0.6c6.7-0.2,19.4-1.3,19.4-1.3s0.3-1,0.2-1.5c0.2,0,0.4-0.1,0.6-0.1c1.3-0.2,1.8-3.7,1.1-4.1
				c-0.7-0.3-9.9-1-17.5-1c0.4-2.5,0.7-5.1,0.9-7.6c2.8-0.2,6.1-0.5,7.2-0.6c0.6,0,0.8-0.3,0.8-0.6c0.2,0,0.4,0,0.6,0
				c0.7-0.1,0.6-1,0.6-1s0.4,0,0.6-0.1c1.3-0.1,2-4.3,1.4-4.6c-0.6-0.3-6.6-0.8-10.9-1.1c0-0.6,0-1.2,0-1.8
				C389.3,462.9,389.4,461,389.5,459.1z M385,452.4C385,452.4,384.9,452.4,385,452.4c-0.1-0.1-0.1-0.2-0.1-0.3
				C384.9,452.2,384.9,452.3,385,452.4z"/>
			<path class="st2" d="M540.4,488.4c0-9.2-0.2-18.4-0.7-27.6c0-1.7-0.1-3.4-0.1-5.1c0-0.2-0.1-0.4-0.2-0.6c0-0.6-0.1-1.1-0.1-1.7
				c-0.1-1.3-2.7-0.9-3.3-0.9c-0.2,0-0.5,0-0.8,0c0-0.1,0-0.2,0-0.3c0-1-0.9-1.1-1.6-0.9c-0.3-0.2-0.7-0.2-1-0.1
				c-0.4-0.2-0.8-0.2-0.8,0.2c0,0.2,0,0.4,0,0.6c-0.3-0.1-0.6-0.2-0.6,0.1c0,0.1,0,0.2,0,0.3c-0.3,0-0.6-0.1-0.6-0.1
				c0,0.4,0,0.7,0,1.1c-0.2,0-0.3,0.1-0.3,0.1c0,0.3,0,0.6,0,0.9c-0.1,0-0.2,0-0.2-0.1c0.1,5.8,0.1,11.6,0.3,17.5
				c-4.7,0.1-9.4,0.1-14-0.2c0.4-6.1,0.7-12.2,1.1-18.3c0.1-1.3-3-1.2-3.6-1.2c-0.2,0-0.7-0.1-1.2-0.1c0-0.9-0.8-1.2-1.5-1.1
				c-0.1-0.1-0.1-0.1-0.2-0.1c-0.2-0.1-0.7,0-0.9,0.2c-0.3-0.2-0.5-0.3-0.5-0.1c0,0.2,0,0.4,0,0.6c-0.1,0-0.1,0-0.2,0.1
				c-0.2-0.2-0.3-0.2-0.3-0.2c0,0.2,0,0.4,0,0.7c-0.3-0.2-0.6-0.3-0.6-0.5c0,0.4-0.1,0.9-0.1,1.3c-0.3,0-0.5,0-0.5,0.1
				c0,0.3,0,0.6,0,0.9c-0.1,0-0.2,0-0.2,0.1c-0.7,11.3-1.4,22.7-2,34c0,0.1,0,0.1,0.1,0.2c0,0.3,0,0.6,0,0.8c0,0.3,0.4,0.4,0.8,0.5
				c0,0.1,0,0.1,0,0.2c0,0.6,0.1,1.1,0.7,1.2c0.2,0,0.3,0,0.5,0c0,0,0,0,0.1,0c0.1,0,0.2,0,0.3,0.1c0.4,0.7,1,1.4,1.4,1.6
				c0.5,0.2,0.9,0.1,1.1-0.2c0,0,0,0,0.1,0.1c0.3,0.2,2.1,1.7,2.2,0.2c0-0.2,0-0.4,0-0.6c0.5,0.2,1,0.1,1.1-0.7
				c0-0.5,0.1-1.1,0.1-1.6c0.7,0.1,1.3,0,1.4-0.5c0-0.6,0.1-1.2,0.1-1.9c0.1-0.1,0.2-0.3,0.2-0.4c0.1-2.1,0.2-4.2,0.4-6.3
				c2.7,0.5,5.5,0.8,8.2,0.8c2.2,0.1,4.4,0.1,6.5,0c0,0.3,0,0.6,0,1c0,2.7,0.1,5.3,0.1,8c0,0.1,0.4,0.2,0.9,0.3c0,0.3,0,0.6,0,0.9
				c0,0.6,0.7,0.6,1.3,0.4c0.2,0.5,0.7,0.9,1,1c0.2,0,0.5-0.1,0.7-0.2c0.3,0.2,0.5,0.3,0.6,0.3c0.4,0.1,0.7-0.2,0.9-0.5
				c0.9,0.2,1.6,0.1,1.6-0.7c0-0.3,0-0.5,0-0.8c1.1,0.2,2.7,0.3,2.7-0.5c0-0.6,0-1.2,0-1.8C540.3,488.8,540.4,488.6,540.4,488.4z"/>
			<path class="st2" d="M368.3,487.3c-0.4-6.2-2.8-12.4-8.4-15.8c-0.2-0.1-0.4-0.2-0.6-0.3c1.2-1.1,2.3-2.3,3-3.8
				c0.8-0.9,1.4-1.8,1.9-2.9c0.9-2.1,0.8-4.4-0.2-6.3c-0.1-1.2-0.6-2.3-1.4-3.3c-1.5-1.8-3.6-2.7-5.8-3.1c-1.2-0.8-2.6-1.3-4.1-1.5
				c-1.1-0.3-2.1-0.4-3.2-0.4c-3-0.3-5.9,0.7-8.6,1.9c-0.1-0.4-0.4-0.6-0.9-0.6c-0.1,0-0.3,0-0.4,0c-0.1-0.1-0.2-0.1-0.2-0.2
				c-0.2-0.1-0.7,0-1,0.3c-0.3-0.2-0.5-0.3-0.5-0.1c0,0.2,0,0.4,0,0.6c-0.1,0-0.1,0-0.2,0.1c-0.1-0.2-0.4-0.4-0.4-0.1
				c0,0.2,0,0.5,0,0.7c0,0,0,0,0,0c0,0,0,0,0,0c-0.3,0.1-0.5,0.4-0.6,0.9c-0.3,0.1-0.5,0.2-0.5,0.3c0,0.2,0,0.4,0,0.6
				c-0.2,0-0.4,0-0.4,0.1c0.4,11.1,0.9,22.3,1.5,33.4c0,0,0,0.1,0.1,0.1c0,0.3,0,0.7,0,1c0,0.2,0.4,0.3,0.8,0.3c0,0.2,0,0.3,0,0.5
				c0,0.7,0.7,0.9,1.2,0.8c0,0,0,0,0,0c0,0,0.1,0,0.2,0c0.4,0.6,0.9,1.2,1.3,1.3c0.3,0.1,0.7,0,0.9-0.2c0,0,0.1,0.1,0.1,0.1
				c0.3,0.3,2,1.2,2-0.1c0,0,0-0.1,0-0.1c0.7,0.3,1.8,0.6,1.7-0.5c0-0.5-0.1-1-0.1-1.6c0.9,0,1.5-0.2,1.5-0.5c0-0.6-0.1-1.2-0.1-1.7
				c0.2-0.2,0.3-0.3,0.3-0.6c-0.2-3.4-0.3-6.8-0.4-10.1c0.2,0.1,0.4,0.1,0.6,0c0.1,0,0.2-0.1,0.3-0.1c0.2,0,0.3,0,0.5,0.1
				c0.4,0.2,0.7,0.3,1,0.2c0,0,0.1,0,0.1,0c1.8,0.2,3.6,0.9,5.2,1.9c0,0,0,0,0.1,0.1c0.7,0.8,1.3,1.5,1.8,2.4
				c1.3,2.6,1.9,5.3,2.1,8.3c0,0.3,0.3,0.5,0.7,0.6c0,0.2,0,0.4,0.1,0.6c0.1,0.7,0.5,1,1.1,0.9c0.1,0,0.1,0,0.2,0
				c0.1,0.1,0.2,0.1,0.3,0.1c0.4,0.7,0.9,1.4,1.3,1.6c0.4,0.2,1,0.2,1.2-0.2c0.4,0.3,2.1,1.6,2.1,0.3c0-0.2,0-0.4,0-0.6
				c0.6,0.2,1.3,0.3,1.2-0.6c0-0.6-0.1-1.1-0.2-1.7c0.8,0.2,1.7,0.2,1.7-0.4c0-0.5-0.1-1.1-0.1-1.6
				C368.1,487.8,368.3,487.6,368.3,487.3z M348.9,459c0.5-0.1,1-0.2,1.5-0.3c1.3,0,3,0.1,4.3,0.5c0,0,0,0,0,0
				c0.1,0.2,0.1,0.3,0.2,0.5c0.1,0.4,0.1,0.8,0,1.2c-0.4,1-1,1.8-1.7,2.6c-1.9,1.6-4.1,2.8-6.4,3.8c0,0,0,0-0.1,0
				c-0.2,0-0.4,0-0.5,0c-0.1-2.7-0.2-5.4-0.3-8.1C346.9,459.3,347.9,459.2,348.9,459z"/>
			<path class="st2" d="M622.5,472c0.4-1.8,0.4-3.7-0.2-5.5c-0.8-2.7-2.6-4.3-4.6-6c-0.6-0.5-1.7-0.6-2.8-0.5
				c-0.2-0.2-0.4-0.4-0.6-0.6c0-0.2-0.2-0.4-0.5-0.5c-0.4-0.2-0.8-0.5-1.3-0.7c0.4-0.2,0.8-0.6,0.4-1.1c-0.4-0.7-1-1.3-1.7-1.7
				c-1.3-0.6-2.6-1-3.9-1.3c-0.9-0.6-1.8-1-2.9-1.2c-1-0.3-2.1-0.5-3.2-0.5c-0.4-0.1-0.7-0.1-1.1-0.1c-0.5-0.1-1.1-0.1-1.6-0.1
				c-1.6,0-3.2,0.2-4.7,0.7c-1.6,0.6-3.1,1.5-4.5,2.5c-0.7,0.4-1.4,0.9-2,1.5c-2.3,2.2-4,4.8-5,7.8c-0.4,1-0.7,2.1-0.9,3.2
				c-0.5,1.9-0.6,3.9-0.3,5.8c0,0.1,0,0.2,0.1,0.3c0,0.3,0,0.5,0.1,0.8c0.3,2.4,1.3,4.6,2.7,6.5c0.7,1.3,1.7,2.5,2.9,3.6
				c1.2,1.1,2.5,1.9,3.9,2.5c0.2,0.1,0.4,0.3,0.5,0.4c2.2,1.3,4.6,2.1,7.1,2.2c2.2,0.4,4.4,0.3,6.6,0c4.4-0.7,8.7-2.5,11.5-5.9
				c1.1-1.1,2-2.4,2.8-3.8c1.7-2.2,3-4.7,3.3-7.3C622.5,472.6,622.5,472.3,622.5,472z M599.6,461.3c2.9,0,5.7,0.8,8.5,1.5
				c0,0.2,0,0.3,0.1,0.4c0.2,0.2,0.5,0.4,0.7,0.6c0,0.6,0.1,1.3,0.3,1.5c1,0.8,1.9,1.6,2.7,2.6c0.3,0.9,0.6,1.8,0.9,2.7
				c0,0.1,0,0.1,0,0.2c0,0.5-0.1,1-0.2,1.5c-0.7,1.8-1.7,3.5-3,4.9c-0.5,0.6-1,1.1-1.6,1.6c-2,1.4-4.3,2.4-6.7,3.1
				c-0.7,0.2-1.4,0.3-2,0.4c-0.9-0.1-1.8-0.3-2.7-0.6c-1.2-0.9-2.2-1.8-3.1-3c-1.9-2.5-2.6-5.3-2.5-8.2c0.2-1.1,0.5-2.2,0.9-3.4
				c0.2-0.4,0.4-0.9,0.6-1.3c0.1-0.1,0.2-0.2,0.3-0.4c1.3-1.4,2.9-2.6,4.7-3.4c0.5-0.2,0.9-0.4,1.4-0.5
				C599.1,461.3,599.4,461.3,599.6,461.3z"/>
			<path class="st2" d="M708.1,454.2c-0.5-0.4-1-0.6-1.7-0.6c-0.8-0.1-1.6-0.2-2.4-0.2c-0.1-0.1-0.1-0.2-0.2-0.2c0-0.5-0.1-1-0.6-1
				c-0.4,0-0.8,0-1.1,0c-0.1-0.1-0.2-0.1-0.3-0.1c-0.3,0-0.6,0-0.9,0c-0.1,0-0.1-0.1-0.2-0.1c-9.6-0.1-19.2,0-28.8,0
				c-0.2,0-0.2,0.3,0,0.6c-0.2,0-0.4,0-0.6,0c-0.1,0-0.1,0.1-0.1,0.3c-0.2,0-0.5,0-0.7,0c0.2,0,0.5,0.2,0.7,0.5c0,0,0,0,0,0
				c-0.3,0.1-0.5,0.5-0.6,0.9c-0.2,0.1-0.4,0.1-0.6,0.1c0.2,0,0.4,0,0.6,0c0,0.1,0,0.1,0,0.2c-0.2,0-0.3,0.1-0.4,0.2
				c-0.1,0.1-0.3,0.3,0.1,0.3c0,0,0.1,0,0.1,0c0,0,0,0,0,0.1c-0.2,0-0.4,0-0.5,0c-0.3,0-0.3,0.2,0,0.3c0.1,0.1,0.3,0.1,0.4,0.1
				c0,0.1,0,0.3,0.1,0.4c0,0,0,0-0.1,0c-0.3,0-0.6,0-0.5,0.4c0.1,0.2,0.4,0.2,0.8,0.3c0,0.1-0.1,0.1-0.1,0.2
				c-0.1,0.5,0.1,1.4,0.7,1.4c0.3,0,0.6,0,0.9,0.1c0,0,0,0,0,0c0.5,1,1.2,2.3,2,2.4c3.1,0.3,6.2,0.5,9.2,0.6
				c-0.4,8.2-1,16.4-1.7,24.6c0,0.1,0,0.2,0.1,0.3c0,0.2,0,0.5-0.1,0.7c0,0.4,0.3,0.7,0.8,0.8c0,0.7,0.1,1.5,0.8,1.8
				c0.2,0.1,0.4,0.1,0.6,0c0.1,0.1,0.1,0.1,0.2,0.2c0.2,0.1,0.4,0.2,0.6,0.2c0.3,0.4,0.5,0.8,0.8,1.2c0.3,0.6,0.7,1,1.2,1.2
				c0.4,0.1,0.7-0.1,0.8-0.4c0-0.2,0-0.4,0-0.6c0.6,0.4,1.2,0.6,1.3-0.3c0-0.2,0-0.5,0-0.7c0.5,0.2,1,0.1,1-0.6
				c0-0.5,0.1-1.1,0.1-1.6c0.7,0.1,1.3,0.1,1.4-0.5c0.1-0.6,0.1-1.2,0.1-1.9c0.1-0.1,0.2-0.3,0.2-0.4c0.8-7.8,1.3-15.7,1.7-23.5
				c3.2,0,6.5,0,9.7,0c0.6,0,0.8-0.3,0.9-0.8c0.2,0,0.4,0,0.6,0c0.8,0,0.8-0.6,0.6-1.2c0.2,0,0.5,0,0.7,0c1.6,0-0.4-2.1-0.5-2.2
				c0,0-0.1-0.1-0.1-0.1c0.6,0,1.2,0,1.7,0c1.1,0,1.3-0.9,0.5-1.5c-0.3-0.2-0.6-0.3-0.8-0.4C707.3,455.5,708.7,455.2,708.1,454.2z"
				/>
			<path class="st2" d="M664.6,455c0.2-1.3-3.4-0.7-3.7-0.7c-0.1,0-0.3,0-0.5,0c0,0,0,0,0,0c0-0.2,0.1-0.4,0.1-0.7
				c0.1-1-0.8-1-1.7-0.6c-0.2-0.2-0.5-0.3-0.7-0.3c-0.1,0-0.3,0.1-0.5,0.2c-0.5-0.2-1.2-0.1-1.3,0.6c0,0.1,0,0.2,0,0.3
				c-0.1,0-0.2,0-0.3,0.1c-0.4,0-0.8,0.1-0.8,0.3c-0.1,0.5-0.1,0.9-0.2,1.4c0,0,0,0,0,0c0,0.1,0,0.3-0.1,0.4c-0.1,0-0.1,0-0.1,0
				c-1.1,7.5-2.3,14.9-3.5,22.4c-0.1,0.4-0.1,0.8-0.2,1.2c-0.1,0.3-0.2,0.6-0.3,0.9c-0.4,0.8-0.9,1.5-1.5,2.1
				c-1,0.8-2.2,1.4-3.7,1.7c-0.1,0-0.3,0-0.4,0.1c-0.5-0.1-1.1-0.1-1.6-0.3c-0.1-0.1-0.3-0.2-0.4-0.3c-1.4-1.1-2.7-2.4-3-4.2
				c-0.2-1-0.2-2.1-0.1-3.1c0-0.1,0-0.1,0-0.2c0.5-2.8,0.9-5.5,1.2-8.3c0.5-2.9,0.6-5.8,0.3-8.7c0-1-0.1-2.1-0.1-3.1
				c0-0.5-0.3-0.9-0.7-1.2c-0.1-0.3-0.1-0.5-0.2-0.8c-0.1-1.1-1.2-1.1-2-1.1c-0.3,0-0.5,0-0.8,0c-0.1-0.4-0.2-0.8-0.5-1
				c-0.2-0.1-0.7-0.1-1,0.2c-0.3-0.3-0.5-0.4-0.6-0.1c-0.1,0.3-0.1,0.6-0.1,0.9c0,0,0,0,0,0c-0.2-0.4-0.4-0.6-0.5-0.1
				c0,0.1,0,0.1,0,0.2c-0.3-0.2-0.5-0.4-0.5-0.6c-0.1,0.6-0.2,1.3-0.3,1.9c-0.4,0-0.6,0.1-0.7,0.2c-0.4,2.7-0.8,5.4-1.1,8.2
				c0,0,0,0,0,0c-0.1,0.7-0.2,1.4-0.3,2.1c-0.2,0-0.3,0-0.4,0.1c-0.4,2.8-0.7,5.6-1.1,8.4c-0.1,0.6-0.2,1.2-0.2,1.9
				c-0.1,0.5-0.1,1-0.2,1.5c-0.1,1.1-0.1,2.1,0,3.2c0,0.5,0.1,1.1,0.2,1.6c0.3,1.2,0.8,2.2,1.5,3.1c0,0.1,0,0.1,0.1,0.2
				c1.2,2.3,3.4,4,5.9,4.9c1.6,1.1,3.5,1.8,5.6,2c0.1,0,0.1,0,0.2,0c1.9,0.5,3.9,0.5,5.8,0c2.9-0.2,5.8-1.5,7.7-3.9
				c0.3-0.4,0.5-0.8,0.8-1.2c0.3-0.3,0.6-0.6,0.9-1c1.2-1.6,1.8-3.3,2.1-5.2c1.3-7.7,2.5-15.5,3.7-23.2c0-0.2,0-0.3-0.1-0.5
				C664.4,456.2,664.5,455.6,664.6,455z"/>
		</g>
		<g>
			<path class="st2" d="M562.4,560.5c4.1-0.5,17.3-3.1,17.3-3.1s1.2-4.1,0.7-4.5c-0.8-0.5-2.1-0.5-3.2-0.5c0-0.5-0.4-1-0.9-1
				c-0.2,0-0.3,0-0.5,0c-0.1-0.1-0.3-0.2-0.5-0.2c-0.2,0-0.4,0-0.6,0.1c-0.1-0.1-0.2-0.1-0.2-0.1l-16.5,1.4c0.1,0,0.2,0.2,0.3,0.4
				c-0.3,0-0.5,0-0.8,0.1c-0.1-0.2-0.2-0.3-0.4-0.3c-0.3-0.1-0.5,0-0.7,0.1c0-0.1-0.1-0.1-0.1-0.1c-0.2-0.1-0.5-0.2-0.5,0.2
				c0,0.2,0,0.4,0,0.6c0,0,0,0,0,0c0-0.1-0.1-0.3-0.2-0.3c-0.4-0.1-0.4,0.2-0.4,0.5c0,0,0,0,0,0c0,0,0,0,0,0c0,0,0,0,0,0
				c-0.1-0.3-0.3-0.5-0.3-0.8c0,0.3,0,0.7-0.1,1c-0.2,0.2-0.4,0.6-0.4,0.9c0,0-0.1,0.1-0.1,0.1c-0.4,0-0.7,0.1-0.7,0.3
				c0,0.1,0,0.3,0,0.4c-0.2,0-0.4,0-0.4-0.1c-0.7,10-1.4,20-2.4,30c0,0.1,0.1,0.1,0.1,0.2c0,0.3,0,0.5-0.1,0.8
				c0,0.3,0.3,0.4,0.7,0.5c0,0,0,0,0,0.1c0,0.1,0,0.2,0,0.3c-0.1,0.1,0,0.1,0,0.2c0.1,0.4,0.3,0.7,0.6,0.9c0,0.1,0,0.1,0,0.2
				c0.1,0.7,0.5,0.7,1.1,0.6c0.1,0,0.2,0,0.3,0c0.4,0.7,0.9,1.6,1.5,1.6c0.1,0,0.1,0,0.2,0c0.2,0.1,0.5,0.1,0.6,0
				c0.4,0.4,0.8,0.6,1.1,0.6c6.7-0.2,19.4-1.3,19.4-1.3s0.3-1,0.2-1.5c0.2,0,0.4-0.1,0.6-0.1c1.3-0.2,1.8-3.7,1.1-4.1
				c-0.7-0.3-9.9-1-17.5-1c0.4-2.5,0.7-5.1,0.9-7.6c2.8-0.2,6.1-0.5,7.2-0.6c0.6,0,0.8-0.3,0.8-0.6c0.2,0,0.4,0,0.6,0
				c0.7-0.1,0.6-1,0.6-1s0.4,0,0.6-0.1c1.3-0.1,2-4.3,1.4-4.6c-0.6-0.3-6.6-0.8-10.9-1.1c0-0.6,0-1.2,0-1.8
				C562.2,564.2,562.3,562.3,562.4,560.5z M557.9,553.7C557.9,553.7,557.8,553.7,557.9,553.7c-0.1-0.1-0.1-0.2-0.1-0.3
				C557.8,553.5,557.8,553.6,557.9,553.7z"/>
			<path class="st2" d="M503.7,554c-0.7-0.6-2.2-0.8-3.4-0.9c0,0,0,0,0,0c0,0,0-0.1,0-0.1c-0.1-0.8-0.5-0.9-1.3-0.9c0,0-0.1,0-0.1,0
				c-0.1-0.1-0.3-0.2-0.4-0.2c-0.2,0-0.5,0-0.7,0c-0.1-0.1-0.2-0.1-0.2-0.1c-4.5,0.2-9,0.3-13.6,0.5c-0.2-0.2-0.5-0.3-0.8-0.5
				c0-0.2,0-0.4,0-0.5c0-1.1-1.4-1.2-2.2-1.3c-0.3,0-0.6-0.1-1-0.1c-0.1-0.7-0.8-1-1.2-0.9c0-0.1-0.1-0.1-0.1-0.1
				c-0.3-0.1-0.6-0.1-0.6,0.2c0,0.1,0,0.3-0.1,0.4c-0.3-0.3-0.6-0.6-0.6-0.7c0,0.4-0.1,0.7-0.1,1.1c-0.2-0.3-0.4-0.5-0.4-0.5
				c0,0.3-0.1,0.7-0.1,1c-0.1,0.1-0.3,0.3-0.3,0.5c0,0,0,0,0,0c-0.4-0.2-0.9-0.4-0.9-0.5c-0.1,0.5-0.1,0.9-0.2,1.4
				c-0.1,0-0.2,0-0.3,0.1c-1.1,9.5-2.5,19.1-3,28.6c-0.1,2.5-0.2,5-0.3,7.6c-0.1,0-0.2,0.1-0.2,0.1c-0.3,0-0.2,0.1,0,0.2
				c0.1,0,0.1,0.1,0.2,0.1c0,0.3,0,0.7,0,1c-0.1,0-0.1,0.1-0.1,0.1c-0.2,0.2-0.3,0.3-0.5,0.3c0.2,0,0.3-0.1,0.5-0.1c0,0,0,0,0,0
				c-0.2,0.2-0.5,0.3-0.8,0.3c-0.4,0,0.4,0.5,0.3,0.4c0.1,0.1,0.3,0.2,0.5,0.3c-0.2,0.1-0.4,0.1-0.6,0.2c-0.4,0-0.2,0.4-0.1,0.5
				c0.1,0.2,0.5,0.2,0.8,0.3c-0.3,0.6,0,1.4,1,1.3c0.1,0,0.3,0,0.4-0.1c0,0,0,0,0,0c0,0,0,0,0,0c0.4,0.8,1,1.6,1.5,1.6
				c0.3,0,0.5-0.1,0.7-0.1c0.3,0.3,0.7,0.5,1,0.5c0.6,0,1-0.3,1.4-0.6c0.2,0.1,0.4,0.1,0.6,0.1c0.8-0.3,0.9-0.5,1.2-1.1
				c0-0.4,0-0.8,0-1.2c0.5-0.1,0.9-0.3,1.3-0.7c1-1.2,1.2-2.7,0.4-4.5c0-1.1,0-2.2,0-3.3c0.1-2,0.2-3.9,0.4-5.8
				c4.2,0,8.2-1.7,12.2-2.9c0.5-0.1,0.7-0.4,0.8-0.8c0.1,0,0.3,0,0.4-0.1c1.1-0.2,1.3-4.4,1.3-4.7c0-1-7.4-1.1-8.8-1.1
				c-1.6-0.1-3.3-0.1-4.9,0c0.2-2.2,0.5-4.5,0.7-6.7l16.3-1.2c0,0,0.9-0.3,0.9-0.7c0.2,0,0.5,0,0.7,0
				C502.8,559.4,504.2,554.4,503.7,554z"/>
			<path class="st2" d="M462.6,573c0.4-1.8,0.4-3.7-0.2-5.5c-0.8-2.7-2.6-4.3-4.6-6c-0.6-0.5-1.7-0.6-2.8-0.5
				c-0.2-0.2-0.4-0.4-0.6-0.6c0-0.2-0.2-0.4-0.5-0.5c-0.4-0.2-0.8-0.5-1.3-0.7c0.4-0.2,0.8-0.6,0.4-1.1c-0.4-0.7-1-1.3-1.7-1.7
				c-1.3-0.6-2.6-1-3.9-1.3c-0.9-0.6-1.8-1-2.9-1.2c-1-0.3-2.1-0.5-3.2-0.5c-0.4-0.1-0.7-0.1-1.1-0.1c-0.5-0.1-1.1-0.1-1.6-0.1
				c-1.6,0-3.2,0.2-4.7,0.7c-1.6,0.6-3.1,1.5-4.5,2.5c-0.7,0.4-1.4,0.9-2,1.5c-2.3,2.2-4,4.8-5,7.8c-0.4,1-0.7,2.1-0.9,3.2
				c-0.5,1.9-0.6,3.9-0.3,5.8c0,0.1,0,0.2,0.1,0.3c0,0.3,0,0.5,0.1,0.8c0.3,2.4,1.3,4.6,2.7,6.5c0.7,1.3,1.7,2.5,2.9,3.6
				c1.2,1.1,2.5,1.9,3.9,2.5c0.2,0.1,0.4,0.3,0.5,0.4c2.2,1.3,4.6,2.1,7.1,2.2c2.2,0.4,4.4,0.3,6.6,0c4.4-0.7,8.7-2.5,11.5-5.9
				c1.1-1.1,2-2.4,2.8-3.8c1.7-2.2,3-4.7,3.3-7.3C462.6,573.6,462.6,573.3,462.6,573z M439.7,562.3c2.9,0,5.7,0.8,8.5,1.5
				c0,0.2,0,0.3,0.1,0.4c0.2,0.2,0.5,0.4,0.7,0.6c0,0.6,0.1,1.3,0.3,1.5c1,0.8,1.9,1.6,2.7,2.6c0.3,0.9,0.6,1.8,0.9,2.7
				c0,0.1,0,0.1,0,0.2c0,0.5-0.1,1-0.2,1.5c-0.7,1.8-1.7,3.5-3,4.9c-0.5,0.6-1,1.1-1.6,1.6c-2,1.4-4.3,2.4-6.7,3.1
				c-0.7,0.2-1.4,0.3-2,0.4c-0.9-0.1-1.8-0.3-2.7-0.6c-1.2-0.9-2.2-1.8-3.1-3c-1.9-2.5-2.6-5.3-2.5-8.2c0.2-1.1,0.5-2.2,0.9-3.4
				c0.2-0.4,0.4-0.9,0.6-1.3c0.1-0.1,0.2-0.2,0.3-0.4c1.3-1.4,2.9-2.6,4.7-3.4c0.5-0.2,0.9-0.4,1.4-0.5
				C439.2,562.4,439.5,562.3,439.7,562.3z"/>
			<path class="st2" d="M622.9,588.6c-0.4-6.2-2.8-12.4-8.4-15.8c-0.2-0.1-0.4-0.2-0.6-0.3c1.2-1.1,2.3-2.3,3-3.8
				c0.8-0.9,1.4-1.8,1.9-2.9c0.9-2.1,0.8-4.4-0.2-6.3c-0.1-1.2-0.6-2.3-1.4-3.3c-1.5-1.8-3.6-2.7-5.8-3.1c-1.2-0.8-2.6-1.3-4.1-1.5
				c-1.1-0.3-2.1-0.4-3.2-0.4c-3-0.3-5.9,0.7-8.6,1.9c-0.1-0.4-0.4-0.6-0.9-0.6c-0.1,0-0.3,0-0.4,0c-0.1-0.1-0.2-0.1-0.2-0.2
				c-0.2-0.1-0.7,0-1,0.3c-0.3-0.2-0.5-0.3-0.5-0.1c0,0.2,0,0.4,0,0.6c-0.1,0-0.1,0-0.2,0.1c-0.1-0.2-0.4-0.4-0.4-0.1
				c0,0.2,0,0.5,0,0.7c0,0,0,0,0,0c0,0,0,0,0,0c-0.3,0.1-0.5,0.4-0.6,0.9c-0.3,0.1-0.5,0.2-0.5,0.3c0,0.2,0,0.4,0,0.6
				c-0.2,0-0.4,0-0.4,0.1c0.4,11.1,0.9,22.3,1.5,33.4c0,0,0,0.1,0.1,0.1c0,0.3,0,0.7,0,1c0,0.2,0.4,0.3,0.8,0.3c0,0.2,0,0.3,0,0.5
				c0,0.7,0.7,0.9,1.2,0.8c0,0,0,0,0,0c0,0,0.1,0,0.2,0c0.4,0.6,0.9,1.2,1.3,1.3c0.3,0.1,0.7,0,0.9-0.2c0,0,0.1,0.1,0.1,0.1
				c0.3,0.3,2,1.2,2-0.1c0,0,0-0.1,0-0.1c0.7,0.3,1.8,0.6,1.7-0.5c0-0.5-0.1-1-0.1-1.6c0.9,0,1.5-0.2,1.5-0.5c0-0.6-0.1-1.2-0.1-1.7
				c0.2-0.2,0.3-0.3,0.3-0.6c-0.2-3.4-0.3-6.8-0.4-10.1c0.2,0.1,0.4,0.1,0.6,0c0.1,0,0.2-0.1,0.3-0.1c0.2,0,0.3,0,0.5,0.1
				c0.4,0.2,0.7,0.3,1,0.2c0,0,0.1,0,0.1,0c1.8,0.2,3.6,0.9,5.2,1.9c0,0,0,0,0.1,0.1c0.7,0.8,1.3,1.5,1.8,2.4
				c1.3,2.6,1.9,5.3,2.1,8.3c0,0.3,0.3,0.5,0.7,0.6c0,0.2,0,0.4,0.1,0.6c0.1,0.7,0.5,1,1.1,0.9c0.1,0,0.1,0,0.2,0
				c0.1,0.1,0.2,0.1,0.3,0.1c0.4,0.7,0.9,1.4,1.3,1.6c0.4,0.2,1,0.2,1.2-0.2c0.4,0.3,2.1,1.6,2.1,0.3c0-0.2,0-0.4,0-0.6
				c0.6,0.2,1.3,0.3,1.2-0.6c0-0.6-0.1-1.1-0.2-1.7c0.8,0.2,1.7,0.2,1.7-0.4c0-0.5-0.1-1.1-0.1-1.6
				C622.7,589.2,622.9,588.9,622.9,588.6z M603.5,560.4c0.5-0.1,1-0.2,1.5-0.3c1.3,0,3,0.1,4.3,0.5c0,0,0,0,0,0
				c0.1,0.2,0.1,0.3,0.2,0.5c0.1,0.4,0.1,0.8,0,1.2c-0.4,1-1,1.8-1.7,2.6c-1.9,1.6-4.1,2.8-6.4,3.8c0,0,0,0-0.1,0
				c-0.2,0-0.4,0-0.5,0c-0.1-2.7-0.2-5.4-0.3-8.1C601.5,560.7,602.5,560.6,603.5,560.4z"/>
			<path class="st2" d="M542.7,554c-0.7-0.6-2.2-0.8-3.4-0.9c0,0,0,0,0,0c0,0,0-0.1,0-0.1c-0.1-0.8-0.5-0.9-1.3-0.9c0,0-0.1,0-0.1,0
				c-0.1-0.1-0.3-0.2-0.4-0.2c-0.2,0-0.5,0-0.7,0c-0.1-0.1-0.2-0.1-0.2-0.1c-4.5,0.2-9,0.3-13.6,0.5c-0.2-0.2-0.5-0.3-0.8-0.5
				c0-0.2,0-0.4,0-0.5c0-1.1-1.4-1.2-2.2-1.3c-0.3,0-0.6-0.1-1-0.1c-0.1-0.7-0.8-1-1.2-0.9c0-0.1-0.1-0.1-0.1-0.1
				c-0.3-0.1-0.6-0.1-0.6,0.2c0,0.1,0,0.3-0.1,0.4c-0.3-0.3-0.6-0.6-0.6-0.7c0,0.4-0.1,0.7-0.1,1.1c-0.2-0.3-0.4-0.5-0.4-0.5
				c0,0.3-0.1,0.7-0.1,1c-0.1,0.1-0.3,0.3-0.3,0.5c0,0,0,0,0,0c-0.4-0.2-0.9-0.4-0.9-0.5c-0.1,0.5-0.1,0.9-0.2,1.4
				c-0.1,0-0.2,0-0.3,0.1c-1.1,9.5-2.5,19.1-3,28.6c-0.1,2.5-0.2,5-0.3,7.6c-0.1,0-0.2,0.1-0.2,0.1c-0.3,0-0.2,0.1,0,0.2
				c0.1,0,0.1,0.1,0.2,0.1c0,0.3,0,0.7,0,1c-0.1,0-0.1,0.1-0.1,0.1c-0.2,0.2-0.3,0.3-0.5,0.3c0.2,0,0.3-0.1,0.5-0.1c0,0,0,0,0,0
				c-0.2,0.2-0.5,0.3-0.8,0.3c-0.4,0,0.4,0.5,0.3,0.4c0.1,0.1,0.3,0.2,0.5,0.3c-0.2,0.1-0.4,0.1-0.6,0.2c-0.4,0-0.2,0.4-0.1,0.5
				c0.1,0.2,0.5,0.2,0.8,0.3c-0.3,0.6,0,1.4,1,1.3c0.1,0,0.3,0,0.4-0.1c0,0,0,0,0,0c0,0,0,0,0,0c0.4,0.8,1,1.6,1.5,1.6
				c0.3,0,0.5-0.1,0.7-0.1c0.3,0.3,0.7,0.5,1,0.5c0.6,0,1-0.3,1.4-0.6c0.2,0.1,0.4,0.1,0.6,0.1c0.8-0.3,0.9-0.5,1.2-1.1
				c0-0.4,0-0.8,0-1.2c0.5-0.1,0.9-0.3,1.3-0.7c1-1.2,1.2-2.7,0.4-4.5c0-1.1,0-2.2,0-3.3c0.1-2,0.2-3.9,0.4-5.8
				c4.2,0,8.2-1.7,12.2-2.9c0.5-0.1,0.7-0.4,0.8-0.8c0.1,0,0.3,0,0.4-0.1c1.1-0.2,1.3-4.4,1.3-4.7c0-1-7.4-1.1-8.8-1.1
				c-1.6-0.1-3.3-0.1-4.9,0c0.2-2.2,0.5-4.5,0.7-6.7l16.3-1.2c0,0,0.9-0.3,0.9-0.7c0.2,0,0.5,0,0.7,0
				C541.8,559.4,543.2,554.4,542.7,554z"/>
		</g>
		<g>
			<path class="st2" d="M539.1,665.6c-0.1-1.3-0.2-2.7-0.3-4c-0.3-2.2-0.6-4.5-1.7-6.5c-1.5-2.7-4.1-3.7-6.8-4.2
				c-1-0.8-2.2-1.2-3.6-1.4c-0.6-0.1-1.2-0.2-1.8-0.2c-4.1-0.6-8.6,1.6-11.8,4.4c-2.1,1.4-3.8,3.4-5,5.7c-0.6,1.1-0.9,2.2-1.1,3.3
				c-0.2,0.5-0.3,0.9-0.5,1.4c-0.4,1.9-0.5,3.8-0.3,5.8c0,0.2,0,0.4,0.1,0.5c0,0.1,0,0.3,0,0.4c0.6,6.7,1.3,13.4,2.1,20.1
				c0,0.1,0.3,0.1,0.6,0.1c0,0.4,0.1,0.8,0.1,1.2c0,0.2,0.4,0.3,0.8,0.2c0.1,0.1,0.3,0.1,0.4,0.1c0.2,0.5,0.6,1,1,1
				c0.2,0,0.5,0,0.8-0.2c0.7,0.3,1.3,0.4,1.6-0.3c0.7,0.2,1.2,0,1.2-0.8c0-0.2,0-0.4,0-0.6c1.6,0.2,3,0.1,3-0.4c-0.2-2-0.4-4-0.6-6
				c-0.1-1.3-0.2-2.7-0.3-4c4.4-0.1,8.8-0.4,13.2-0.8c0.1,3,0.2,6,0.3,8.9c0,0.2,0.4,0.5,0.8,0.6c0,0.1,0,0.2,0,0.3
				c0,0.9,0.8,1.1,1.4,0.9c0.1,0,0.1,0,0.2,0.1c0,0,0,0,0,0c0.3,0.6,0.7,1.1,1,1.3c0.4,0.2,0.9,0.1,1.2-0.2c0,0,0.1,0,0.1,0.1
				c0.4,0.2,1.5,0.8,1.6-0.2c0-0.1,0-0.2,0-0.3c0.6,0.3,1.3,0.4,1.4-0.5c0-0.5,0-0.9,0-1.4c1.1,0.1,2,0,2-0.4
				C539.9,681.9,540.1,673.6,539.1,665.6z M516.1,668.9c-0.1-1.3,0-2.5,0.2-3.8c0.1-0.6,0.3-1.1,0.6-1.6c0.2-0.3,0.4-0.6,0.7-0.8
				c0,0,0,0,0,0c1.3-1.1,2.7-2.1,4.2-2.9c0.4-0.1,0.9-0.2,1.3-0.3c1.6-0.1,3.2-0.2,4.8-0.3c0.2,0,0.3,0.1,0.5,0.2
				c0.4,1.2,0.7,2.6,0.9,4c0.4,2.9,0.6,5.7,0.7,8.6c-4.5,0.8-9,1.6-13.5,2.3C516.3,672.4,516.1,670.7,516.1,668.9z"/>
			<path class="st2" d="M609.7,660c4.1-0.5,17.3-3.1,17.3-3.1s1.2-4.1,0.7-4.5c-0.8-0.5-2.1-0.5-3.2-0.5c0-0.5-0.4-1-0.9-1
				c-0.2,0-0.3,0-0.5,0c-0.1-0.1-0.3-0.2-0.5-0.2c-0.2,0-0.4,0-0.6,0.1c-0.1-0.1-0.2-0.1-0.2-0.1l-16.5,1.4c0.1,0,0.2,0.2,0.3,0.4
				c-0.3,0-0.5,0-0.8,0.1c-0.1-0.2-0.2-0.3-0.4-0.3c-0.3-0.1-0.5,0-0.7,0.1c0-0.1-0.1-0.1-0.1-0.1c-0.2-0.1-0.5-0.2-0.5,0.2
				c0,0.2,0,0.4,0,0.6c0,0,0,0,0,0c0-0.1-0.1-0.3-0.2-0.3c-0.4-0.1-0.4,0.2-0.4,0.5c0,0,0,0,0,0c0,0,0,0,0,0c0,0,0,0,0,0
				c-0.1-0.3-0.3-0.5-0.3-0.8c0,0.3,0,0.7-0.1,1c-0.2,0.2-0.4,0.6-0.4,0.9c0,0-0.1,0.1-0.1,0.1c-0.4,0-0.7,0.1-0.7,0.3
				c0,0.1,0,0.3,0,0.4c-0.2,0-0.4,0-0.4-0.1c-0.7,10-1.4,20-2.4,30c0,0.1,0.1,0.1,0.1,0.2c0,0.3,0,0.5-0.1,0.8
				c0,0.3,0.3,0.4,0.7,0.5c0,0,0,0,0,0.1c0,0.1,0,0.2,0,0.3c-0.1,0.1,0,0.1,0,0.2c0.1,0.4,0.3,0.7,0.6,0.9c0,0.1,0,0.1,0,0.2
				c0.1,0.7,0.5,0.7,1.1,0.6c0.1,0,0.2,0,0.3,0c0.4,0.7,0.9,1.6,1.5,1.6c0.1,0,0.1,0,0.2,0c0.2,0.1,0.5,0.1,0.6,0
				c0.4,0.4,0.8,0.6,1.1,0.6c6.7-0.2,19.4-1.3,19.4-1.3s0.3-1,0.2-1.5c0.2,0,0.4-0.1,0.6-0.1c1.3-0.2,1.8-3.7,1.1-4.1
				c-0.7-0.3-9.9-1-17.5-1c0.4-2.5,0.7-5.1,0.9-7.6c2.8-0.2,6.1-0.5,7.2-0.6c0.6,0,0.8-0.3,0.8-0.6c0.2,0,0.4,0,0.6,0
				c0.7-0.1,0.6-1,0.6-1s0.4,0,0.6-0.1c1.3-0.1,2-4.3,1.4-4.6c-0.6-0.3-6.6-0.8-10.9-1.1c0-0.6,0-1.2,0-1.8
				C609.4,663.7,609.5,661.8,609.7,660z M605.1,653.2C605.1,653.2,605.1,653.2,605.1,653.2c-0.1-0.1-0.1-0.2-0.1-0.3
				C605,653,605.1,653.1,605.1,653.2z"/>
			<path class="st2" d="M494.2,689.3c0-9.2-0.2-18.4-0.7-27.6c0-1.7-0.1-3.4-0.1-5.1c0-0.2-0.1-0.4-0.2-0.6c0-0.6-0.1-1.1-0.1-1.7
				c-0.1-1.3-2.7-0.9-3.3-0.9c-0.2,0-0.5,0-0.8,0c0-0.1,0-0.2,0-0.3c0-1-0.9-1.1-1.6-0.9c-0.3-0.2-0.7-0.2-1-0.1
				c-0.4-0.2-0.8-0.2-0.8,0.2c0,0.2,0,0.4,0,0.6c-0.3-0.1-0.6-0.2-0.6,0.1c0,0.1,0,0.2,0,0.3c-0.3,0-0.6-0.1-0.6-0.1
				c0,0.4,0,0.7,0,1.1c-0.2,0-0.3,0.1-0.3,0.1c0,0.3,0,0.6,0,0.9c-0.1,0-0.2,0-0.2-0.1c0.1,5.8,0.1,11.6,0.3,17.5
				c-4.7,0.1-9.4,0.1-14-0.2c0.4-6.1,0.7-12.2,1.1-18.3c0.1-1.3-3-1.2-3.6-1.2c-0.2,0-0.7-0.1-1.2-0.1c0-0.9-0.8-1.2-1.5-1.1
				c-0.1-0.1-0.1-0.1-0.2-0.1c-0.2-0.1-0.7,0-0.9,0.2c-0.3-0.2-0.5-0.3-0.5-0.1c0,0.2,0,0.4,0,0.6c-0.1,0-0.1,0-0.2,0.1
				c-0.2-0.2-0.3-0.2-0.3-0.2c0,0.2,0,0.4,0,0.7c-0.3-0.2-0.6-0.3-0.6-0.5c0,0.4-0.1,0.9-0.1,1.3c-0.3,0-0.5,0-0.5,0.1
				c0,0.3,0,0.6,0,0.9c-0.1,0-0.2,0-0.2,0.1c-0.7,11.3-1.4,22.7-2,34c0,0.1,0,0.1,0.1,0.2c0,0.3,0,0.6,0,0.8c0,0.3,0.4,0.4,0.8,0.5
				c0,0.1,0,0.1,0,0.2c0,0.6,0.1,1.1,0.7,1.2c0.2,0,0.3,0,0.5,0c0,0,0,0,0.1,0c0.1,0,0.2,0,0.3,0.1c0.4,0.7,1,1.4,1.4,1.6
				c0.5,0.2,0.9,0.1,1.1-0.2c0,0,0,0,0.1,0.1c0.3,0.2,2.1,1.7,2.2,0.2c0-0.2,0-0.4,0-0.6c0.5,0.2,1,0.1,1.1-0.7
				c0-0.5,0.1-1.1,0.1-1.6c0.7,0.1,1.3,0,1.4-0.5c0-0.6,0.1-1.2,0.1-1.9c0.1-0.1,0.2-0.3,0.2-0.4c0.1-2.1,0.2-4.2,0.4-6.3
				c2.7,0.5,5.5,0.8,8.2,0.8c2.2,0.1,4.4,0.1,6.5,0c0,0.3,0,0.6,0,1c0,2.7,0.1,5.3,0.1,8c0,0.1,0.4,0.2,0.9,0.3c0,0.3,0,0.6,0,0.9
				c0,0.6,0.7,0.6,1.3,0.4c0.2,0.5,0.7,0.9,1,1c0.2,0,0.5-0.1,0.7-0.2c0.3,0.2,0.5,0.3,0.6,0.3c0.4,0.1,0.7-0.2,0.9-0.5
				c0.9,0.2,1.6,0.1,1.6-0.7c0-0.3,0-0.5,0-0.8c1.1,0.2,2.7,0.3,2.7-0.5c0-0.6,0-1.2,0-1.8C494.2,689.6,494.2,689.4,494.2,689.3z"/>
			<path class="st2" d="M585.1,688.1c-0.4-6.2-2.8-12.4-8.4-15.8c-0.2-0.1-0.4-0.2-0.6-0.3c1.2-1.1,2.3-2.3,3-3.8
				c0.8-0.9,1.4-1.8,1.9-2.9c0.9-2.1,0.8-4.4-0.2-6.3c-0.1-1.2-0.6-2.3-1.4-3.3c-1.5-1.8-3.6-2.7-5.8-3.1c-1.2-0.8-2.6-1.3-4.1-1.5
				c-1.1-0.3-2.1-0.4-3.2-0.4c-3-0.3-5.9,0.7-8.6,1.9c-0.1-0.4-0.4-0.6-0.9-0.6c-0.1,0-0.3,0-0.4,0c-0.1-0.1-0.2-0.1-0.2-0.2
				c-0.2-0.1-0.7,0-1,0.3c-0.3-0.2-0.5-0.3-0.5-0.1c0,0.2,0,0.4,0,0.6c-0.1,0-0.1,0-0.2,0.1c-0.1-0.2-0.4-0.4-0.4-0.1
				c0,0.2,0,0.5,0,0.7c0,0,0,0,0,0c0,0,0,0,0,0c-0.3,0.1-0.5,0.4-0.6,0.9c-0.3,0.1-0.5,0.2-0.5,0.3c0,0.2,0,0.4,0,0.6
				c-0.2,0-0.4,0-0.4,0.1c0.4,11.1,0.9,22.3,1.5,33.4c0,0,0,0.1,0.1,0.1c0,0.3,0,0.7,0,1c0,0.2,0.4,0.3,0.8,0.3c0,0.2,0,0.3,0,0.5
				c0,0.7,0.7,0.9,1.2,0.8c0,0,0,0,0,0c0,0,0.1,0,0.2,0c0.4,0.6,0.9,1.2,1.3,1.3c0.3,0.1,0.7,0,0.9-0.2c0,0,0.1,0.1,0.1,0.1
				c0.3,0.3,2,1.2,2-0.1c0,0,0-0.1,0-0.1c0.7,0.3,1.8,0.6,1.7-0.5c0-0.5-0.1-1-0.1-1.6c0.9,0,1.5-0.2,1.5-0.5c0-0.6-0.1-1.2-0.1-1.7
				c0.2-0.2,0.3-0.3,0.3-0.6c-0.2-3.4-0.3-6.8-0.4-10.1c0.2,0.1,0.4,0.1,0.6,0c0.1,0,0.2-0.1,0.3-0.1c0.2,0,0.3,0,0.5,0.1
				c0.4,0.2,0.7,0.3,1,0.2c0,0,0.1,0,0.1,0c1.8,0.2,3.6,0.9,5.2,1.9c0,0,0,0,0.1,0.1c0.7,0.8,1.3,1.5,1.8,2.4
				c1.3,2.6,1.9,5.3,2.1,8.3c0,0.3,0.3,0.5,0.7,0.6c0,0.2,0,0.4,0.1,0.6c0.1,0.7,0.5,1,1.1,0.9c0.1,0,0.1,0,0.2,0
				c0.1,0.1,0.2,0.1,0.3,0.1c0.4,0.7,0.9,1.4,1.3,1.6c0.4,0.2,1,0.2,1.2-0.2c0.4,0.3,2.1,1.6,2.1,0.3c0-0.2,0-0.4,0-0.6
				c0.6,0.2,1.3,0.3,1.2-0.6c0-0.6-0.1-1.1-0.2-1.7c0.8,0.2,1.7,0.2,1.7-0.4c0-0.5-0.1-1.1-0.1-1.6
				C585,688.7,585.1,688.4,585.1,688.1z M565.8,659.9c0.5-0.1,1-0.2,1.5-0.3c1.3,0,3,0.1,4.3,0.5c0,0,0,0,0,0
				c0.1,0.2,0.1,0.3,0.2,0.5c0.1,0.4,0.1,0.8,0,1.2c-0.4,1-1,1.8-1.7,2.6c-1.9,1.6-4.1,2.8-6.4,3.8c0,0,0,0-0.1,0
				c-0.2,0-0.4,0-0.5,0c-0.1-2.7-0.2-5.4-0.3-8.1C563.8,660.2,564.8,660.1,565.8,659.9z"/>
			<path class="st2" d="M450.7,677.5c0-0.4-0.1-0.7-0.2-1c-0.1-1.1-0.4-2.1-1-3c-0.6-1.3-1.6-2.2-3-2.8c-0.3-0.1-0.6-0.2-0.9-0.3
				c-0.1-0.6-1.3-0.7-1.9-0.7c-0.3-0.2-0.5-0.3-0.8-0.4c-0.2-0.1-0.5-0.2-0.7-0.3c-0.2-0.1-0.4-0.2-0.7-0.3
				c-0.1-0.3-0.4-0.6-0.8-0.5c-0.3,0-0.5,0-0.8,0c-1.7-0.4-3.7-0.3-5.4-0.4c-1.1-0.1-2.2-0.2-3.4-0.3c-0.7-0.1-1.5-0.2-2.2-0.3
				c0,0,0,0,0,0c-0.1,0-0.3-0.1-0.4-0.1c-0.3-0.1-0.6-0.1-0.9-0.2c0,0,0,0-0.1-0.1c-0.2-0.5-0.3-1-0.5-1.5c0-0.1,0-0.1,0.1-0.2
				c0.2-0.7,0.6-1.3,1.2-1.8c0.8-0.4,1.7-0.8,2.6-1.1c0.9-0.3,1.8-0.5,2.5-0.7c3.3-0.8,6.6-1.2,10-1.7c0.3-0.1,0.5-0.2,0.6-0.4
				c0,0,0.1,0,0.1,0c0.6-0.1,1.1-0.6,0.9-1.3c0.4,0,0.7-0.1,1.1-0.1c0.9-0.1,0.9-1.1,0.4-1.6c-0.1-0.1-0.2-0.1-0.3-0.2
				c0.2-0.1,0.3-0.3,0.3-0.5c0.2-0.8-0.5-1.1-1.2-1.1c-0.5,0-1,0-1.6,0c0-0.5-0.3-1.2-0.8-1.2c-0.2,0-0.5-0.1-0.7-0.1
				c-0.1-0.1-0.2-0.1-0.4-0.1c-1.1-0.2-2.1-0.2-3.1-0.1c0-0.1-0.1-0.3-0.1-0.4c-0.4-0.5-1.6-0.6-2.3-0.5c-0.1-0.4-0.4-1.1-0.8-1
				c-0.2,0-0.3,0.1-0.5,0.1c-0.2-0.2-0.3-0.3-0.4-0.2c-0.3,0-0.6,0.1-0.9,0.1c-0.1,0-0.1-0.1-0.2,0c-2.9,0.3-5.5,0.9-8.1,2.4
				c-1.5,0.9-2.9,2-4.1,3.2c-1.2,1-2.2,2.1-3.1,3.5c-0.7,1-1.1,2.2-1.2,3.3c-0.4,1.1-0.6,2.2-0.5,3.3c-0.2,1.4,0.1,2.7,1,3.8
				c0.1,0.1,0.1,0.1,0.2,0.2c0.7,1.7,2.1,2.6,3.7,3.1c0.2,0.1,0.3,0.3,0.5,0.4c1.3,0.8,2.6,1.1,4.2,1.1c0,0,0,0,0,0
				c0.4,0.1,0.9,0.1,1.4,0.1c2.8,0.1,5.7,0.1,8.6,0.1c0.1,0.1,0.3,0.1,0.4,0.2c0.3,0.1,0.7,0.1,1,0.1c0,0,0.1,0,0.1,0
				c0.8,0.2,1.5,0.2,2.4,0.2c0,0,0,0,0.1,0c0.1,0.1,0.2,0.1,0.2,0.2c0.2,0.5,0.4,1,0.6,1.6c0,0.2,0,0.3,0.1,0.5
				c-0.3,1.1-0.9,2.1-1.6,2.9c-0.3,0.3-0.6,0.7-0.9,1c-0.4,0.3-0.8,0.5-1.3,0.7c-0.5,0.1-1,0.2-1.5,0.3c-0.6,0.1-1.2,0.2-1.8,0.2
				c-0.2,0-0.4,0-0.5,0c-0.1,0-0.2,0-0.3,0c-0.3,0-0.6,0-0.8,0c0,0-0.1,0-0.1,0c-2.1-0.4-4-1.3-6-2.4c-0.4-0.2-1,0-1.6,0.4
				c0,0,0,0-0.1,0c-0.4-0.2-1-0.1-1.5,0.2c0,0,0,0-0.1,0c-0.8-0.4-1.5,0.3-1.6,1.1c-0.4,0-0.8,0-0.9,0.1c-0.2,0.2-0.4,0.5,0,0.6
				c0.1,0.1,0.2,0.1,0.3,0.2c0,0.1,0,0.2,0.1,0.4c-0.5,0.2-0.9,0.5-0.8,0.6c0.1,0.1,0.2,0.1,0.3,0.1c0,0,0,0,0,0.1
				c0,0.1,0,0.2,0,0.2c0,0,0,0.1,0,0.1c-0.1,0-0.1-0.1-0.2-0.1c-0.2-0.1-0.3,0-0.1,0.1c0.1,0.1,0.2,0.2,0.3,0.3c0,0,0,0,0,0
				c0,0,0,0,0,0c0,0.2,0.1,0.3,0.2,0.4c-0.1,0.1-0.1,0.3,0,0.4c-0.5,0-0.8,0.1-0.5,0.2c0.3,0.2,0.7,0.4,1.1,0.5
				c-0.4,0.3-0.5,0.7,0,1c0.6,0.3,1.1,0.6,1.7,0.8c0.1,0.1,0.3,0.2,0.4,0.3c2.6,1.3,5.2,2.2,8,2.4c2.1,0.3,4.2,0.3,6.4-0.3
				c0,0,0,0,0.1,0c1.9-0.3,3.7-1,5.3-2c0.1,0,0.1,0,0.2-0.1c1-0.4,1.9-0.9,2.7-1.6C449.6,685.5,451.1,681.7,450.7,677.5z"/>
		</g>
		<g>
			<path class="st2" d="M500.5,760c4.1-0.5,17.3-3.1,17.3-3.1s1.2-4.1,0.7-4.5c-0.8-0.5-2.1-0.5-3.2-0.5c0-0.5-0.4-1-0.9-1
				c-0.2,0-0.3,0-0.5,0c-0.1-0.1-0.3-0.2-0.5-0.2c-0.2,0-0.4,0-0.6,0.1c-0.1-0.1-0.2-0.1-0.2-0.1l-16.5,1.4c0.1,0,0.2,0.2,0.3,0.4
				c-0.3,0-0.5,0-0.8,0.1c-0.1-0.2-0.2-0.3-0.4-0.3c-0.3-0.1-0.5,0-0.7,0.1c0-0.1-0.1-0.1-0.1-0.1c-0.2-0.1-0.5-0.2-0.5,0.2
				c0,0.2,0,0.4,0,0.6c0,0,0,0,0,0c0-0.1-0.1-0.3-0.2-0.3c-0.4-0.1-0.4,0.2-0.4,0.5c0,0,0,0,0,0c0,0,0,0,0,0c0,0,0,0,0,0
				c-0.1-0.3-0.3-0.5-0.3-0.8c0,0.3,0,0.7-0.1,1c-0.2,0.2-0.4,0.6-0.4,0.9c0,0-0.1,0.1-0.1,0.1c-0.4,0-0.7,0.1-0.7,0.3
				c0,0.1,0,0.3,0,0.4c-0.2,0-0.4,0-0.4-0.1c-0.7,10-1.4,20-2.4,30c0,0.1,0.1,0.1,0.1,0.2c0,0.3,0,0.5-0.1,0.8
				c0,0.3,0.3,0.4,0.7,0.5c0,0,0,0,0,0.1c0,0.1,0,0.2,0,0.3c-0.1,0.1,0,0.1,0,0.2c0.1,0.4,0.3,0.7,0.6,0.9c0,0.1,0,0.1,0,0.2
				c0.1,0.7,0.5,0.7,1.1,0.6c0.1,0,0.2,0,0.3,0c0.4,0.7,0.9,1.6,1.5,1.6c0.1,0,0.1,0,0.2,0c0.2,0.1,0.5,0.1,0.6,0
				c0.4,0.4,0.8,0.6,1.1,0.6c6.7-0.2,19.4-1.3,19.4-1.3s0.3-1,0.2-1.5c0.2,0,0.4-0.1,0.6-0.1c1.3-0.2,1.8-3.7,1.1-4.1
				c-0.7-0.3-9.9-1-17.5-1c0.4-2.5,0.7-5.1,0.9-7.6c2.8-0.2,6.1-0.5,7.2-0.6c0.6,0,0.8-0.3,0.8-0.6c0.2,0,0.4,0,0.6,0
				c0.7-0.1,0.6-1,0.6-1s0.4,0,0.6-0.1c1.3-0.1,2-4.3,1.4-4.6c-0.6-0.3-6.6-0.8-10.9-1.1c0-0.6,0-1.2,0-1.8
				C500.3,763.8,500.4,761.9,500.5,760z M496,753.3C495.9,753.3,495.9,753.3,496,753.3c-0.1-0.1-0.1-0.2-0.1-0.3
				C495.8,753.1,495.9,753.2,496,753.3z"/>
			<path class="st2" d="M559.2,786.1c-0.3-0.1-0.6-0.2-0.9-0.3c0.3-0.1,0.6-0.1,0.9-0.2c1.1-0.3,0.7-1.3-0.1-1.6
				c-1-0.3-2.3-0.3-3.5-0.1c0,0,0,0,0,0c0,0,0-0.1,0.1-0.1c0.2-0.4-0.1-1.5-0.8-1.4c-0.3,0.1-0.5,0.1-0.8,0.2
				c-0.2-0.2-0.4-0.3-0.6-0.3c-0.2,0-0.3,0.1-0.5,0.1c-0.2-0.1-0.5-0.2-0.7-0.1c-2.8,0.7-5.7,1.5-8.6,1.6c-0.5,0-1,0-1.5,0
				c-0.7-0.6-1.3-1.5-1.6-2.8c-0.2-1.2-0.3-2.5-0.2-3.8c0.4-5.2,0.4-10.4,0-15.6c0-1.7,0.1-3.5,0.1-5.2c0-0.5-0.3-0.9-0.8-1.3
				c0-0.3-0.1-0.7-0.1-1c-0.1-1.2-1.8-1.2-2.7-1.3c-0.2,0-0.7-0.1-1.2-0.1c-0.1-0.5-0.3-0.9-0.8-1c-0.1,0-0.2,0-0.3,0
				c-0.1-0.1-0.1-0.1-0.2-0.2c-0.3-0.1-0.8,0-0.8,0.4c0,0,0,0,0,0.1c-0.3-0.3-0.6-0.5-0.6-0.4c0,0.2,0,0.4,0,0.6
				c-0.1,0-0.1,0.1-0.2,0.2c0,0,0,0,0,0c-0.2-0.2-0.4-0.4-0.4-0.3c0,0.3,0,0.5,0,0.8c-0.2,0.1-0.3,0.3-0.3,0.6
				c-0.4-0.2-0.7-0.3-0.7-0.5c0,0.4,0,0.7,0,1.1c0,0,0,0,0,0c0,0.1,0,0.3,0,0.4c-0.2,0-0.4,0-0.4,0c-0.2,8.1-0.5,16.2-0.5,24.4
				c0,0.7,0,1.3,0.1,2c0,0.7,0.1,1.3,0.2,2c0.3,1.1,0.7,2.1,1.4,2.9c0.3,0.8,0.7,1.4,1.3,2c0.7,0.6,1.4,1,2.3,1.4
				c0,0,0.1,0.1,0.1,0.1c1.4,1.2,3,1.6,4.8,1.8c4.7,1.4,10.4-0.4,14.9-1.5c0.1,0,0.3-0.1,0.4-0.2c0.4-0.1,0.8-0.2,1.2-0.3
				c0.8-0.2,0.6-0.8,0.2-1.3c0.6-0.1,1.2-0.3,1.7-0.4C559.8,787.4,560.1,786.7,559.2,786.1z"/>
			<path class="st2" d="M476.1,789.3c0-9.2-0.2-18.4-0.7-27.6c0-1.7-0.1-3.4-0.1-5.1c0-0.2-0.1-0.4-0.2-0.6c0-0.6-0.1-1.1-0.1-1.7
				c-0.1-1.3-2.7-0.9-3.3-0.9c-0.2,0-0.5,0-0.8,0c0-0.1,0-0.2,0-0.3c0-1-0.9-1.1-1.6-0.9c-0.3-0.2-0.7-0.2-1-0.1
				c-0.4-0.2-0.8-0.2-0.8,0.2c0,0.2,0,0.4,0,0.6c-0.3-0.1-0.6-0.2-0.6,0.1c0,0.1,0,0.2,0,0.3c-0.3,0-0.6-0.1-0.6-0.1
				c0,0.4,0,0.7,0,1.1c-0.2,0-0.3,0.1-0.3,0.1c0,0.3,0,0.6,0,0.9c-0.1,0-0.2,0-0.2-0.1c0.1,5.8,0.1,11.6,0.3,17.5
				c-4.7,0.1-9.4,0.1-14-0.2c0.4-6.1,0.7-12.2,1.1-18.3c0.1-1.3-3-1.2-3.6-1.2c-0.2,0-0.7-0.1-1.2-0.1c0-0.9-0.8-1.2-1.5-1.1
				c-0.1-0.1-0.1-0.1-0.2-0.1c-0.2-0.1-0.7,0-0.9,0.2c-0.3-0.2-0.5-0.3-0.5-0.1c0,0.2,0,0.4,0,0.6c-0.1,0-0.1,0-0.2,0.1
				c-0.2-0.2-0.3-0.2-0.3-0.2c0,0.2,0,0.4,0,0.7c-0.3-0.2-0.6-0.3-0.6-0.5c0,0.4-0.1,0.9-0.1,1.3c-0.3,0-0.5,0-0.5,0.1
				c0,0.3,0,0.6,0,0.9c-0.1,0-0.2,0-0.2,0.1c-0.7,11.3-1.4,22.7-2,34c0,0.1,0,0.1,0.1,0.2c0,0.3,0,0.6,0,0.8c0,0.3,0.4,0.4,0.8,0.5
				c0,0.1,0,0.1,0,0.2c0,0.6,0.1,1.1,0.7,1.2c0.2,0,0.3,0,0.5,0c0,0,0,0,0.1,0c0.1,0,0.2,0,0.3,0.1c0.4,0.7,1,1.4,1.4,1.6
				c0.5,0.2,0.9,0.1,1.1-0.2c0,0,0,0,0.1,0.1c0.3,0.2,2.1,1.7,2.2,0.2c0-0.2,0-0.4,0-0.6c0.5,0.2,1,0.1,1.1-0.7
				c0-0.5,0.1-1.1,0.1-1.6c0.7,0.1,1.3,0,1.4-0.5c0-0.6,0.1-1.2,0.1-1.9c0.1-0.1,0.2-0.3,0.2-0.4c0.1-2.1,0.2-4.2,0.4-6.3
				c2.7,0.5,5.5,0.8,8.2,0.8c2.2,0.1,4.4,0.1,6.5,0c0,0.3,0,0.6,0,1c0,2.7,0.1,5.3,0.1,8c0,0.1,0.4,0.2,0.9,0.3c0,0.3,0,0.6,0,0.9
				c0,0.6,0.7,0.6,1.3,0.4c0.2,0.5,0.7,0.9,1,1c0.2,0,0.5-0.1,0.7-0.2c0.3,0.2,0.5,0.3,0.6,0.3c0.4,0.1,0.7-0.2,0.9-0.5
				c0.9,0.2,1.6,0.1,1.6-0.7c0-0.3,0-0.5,0-0.8c1.1,0.2,2.7,0.3,2.7-0.5c0-0.6,0-1.2,0-1.8C476,789.7,476.1,789.5,476.1,789.3z"/>
			<path class="st2" d="M601.1,759.2c-1-1.7-2.4-3.1-4.1-4.2c-1.5-0.9-3.2-1.5-4.9-1.9c-1.2-0.7-2.5-1.2-3.8-1.5
				c-0.6-0.1-1.1-0.2-1.7-0.3c-0.5-0.1-1.1-0.2-1.6-0.2c-2.8-0.4-5.5,0-8.1,1.1c-0.8-0.3-1.9-0.3-2.5-0.3c-0.2,0-0.7-0.1-1.3-0.1
				c-0.1-0.6-0.3-0.9-0.9-1c-0.1,0-0.2,0-0.4,0c-0.1-0.1-0.1-0.1-0.2-0.2c-0.2-0.1-0.8,0-0.9,0.3c-0.3-0.2-0.5-0.4-0.5-0.2
				c0,0.2,0,0.4,0,0.6c-0.1,0-0.2,0.1-0.3,0.2c-0.2-0.2-0.4-0.3-0.4-0.3c0,0.3,0,0.5,0.1,0.8c-0.3,0.1-0.4,0.3-0.5,0.7
				c-0.4-0.1-0.7-0.1-0.7-0.2c0,0.4,0.1,0.8,0.1,1.3c-0.2,0-0.4,0-0.4,0c0,0.3,0,0.6,0.1,0.9c0,0,0,0,0,0c0.3,5,0.6,10,0.8,15
				c0,0.8,0.1,1.6,0.1,2.4c0.3,6,0.4,12,0.3,18c0,0.1,0,0.1,0.1,0.2c0,0.3,0,0.6,0,0.9c0,0.3,0.4,0.4,0.8,0.5c0,0.1,0,0.1,0,0.2
				c0,0.6,0.1,1,0.7,1.2c0.1,0,0.3,0,0.5,0c0,0,0,0,0,0c0.1,0,0.2,0,0.3,0c0.4,0.6,0.9,1.3,1.3,1.4c0.4,0.2,0.8,0.1,1.1-0.2l0,0
				c0.3,0.3,2,1.4,2,0.1c0-0.1,0-0.2,0-0.3c0.7,0.3,1.4,0.4,1.4-0.6c0-0.5,0-1,0-1.5c0.8,0.1,1.4,0,1.4-0.6c0-0.6,0-1.2,0-1.8
				c0.1-0.1,0.2-0.3,0.2-0.5c0.1-2.1,0.1-4.2,0.1-6.3c4.2-0.4,8.6-0.7,12.2-2.6c1.9-0.8,3.6-2,5.1-3.6c1.1-0.9,2-2.1,2.8-3.4
				c0-0.1,0.1-0.1,0.1-0.2c0.2-0.2,0.4-0.4,0.5-0.6c1.4-1.7,2.2-3.7,2.3-5.7c0.2-0.7,0.4-1.4,0.4-2.1
				C603,762.3,602.2,761,601.1,759.2z M591.1,768.8c-0.3,0.3-0.6,0.6-0.9,0.9c-3.1,2.3-7.1,3.2-11,3.5c0-0.6,0-1.2-0.1-1.9
				c-0.1-3.1-0.2-6.1-0.5-9.2c0.7-0.3,1.4-0.6,2.2-0.9c1.6-0.2,3.2-0.5,4.8-0.7c1.6,0.2,3.1,0.6,4.7,1.1c0.2,0,0.3,0.1,0.4,0.1
				c0.4,0.4,0.8,0.8,1.2,1.3C591.7,764.9,591.4,766.9,591.1,768.8z"/>
		</g>
		<g>
			<path class="st2" d="M600.2,876.8c-0.1-2.9-1.3-6-3.9-7.1c-0.9-0.4-2-0.6-3.1-0.7c-0.3-0.2-0.6-0.4-0.9-0.6
				c0.4-0.3,0.8-0.5,1.1-0.8c1.3-0.9,2.5-2,3.2-3.2c1.9-1.8,3.2-4,2.7-6.9c-0.1-0.7-0.4-1.3-0.7-1.8c0-0.1,0-0.2,0-0.3
				c-0.5-2.9-2.6-4-5.2-4.4c-0.9-0.9-2.1-1.3-3.5-1.3c-0.3-0.1-0.6-0.1-0.9-0.1c-1-0.3-1.9-0.2-2.9-0.1c-3.6,0.6-7,2.7-10.1,4.5
				c-0.2,0.1-0.2,0.3-0.1,0.4c-0.2,0.1-0.4,0.2-0.6,0.4c0,0,0,0,0,0.1c-0.3-0.2-0.7-0.2-1-0.1c-0.1-0.1-0.2-0.2-0.3-0.2
				c-0.2,0-0.5,0-0.7,0.2c-0.4-0.2-0.7-0.3-0.7,0c0,0.2,0,0.5,0,0.7c0,0-0.1,0-0.1,0c-0.3-0.2-0.5-0.2-0.5-0.1c0,0.2,0,0.3,0,0.5
				c0,0-0.1,0-0.1,0c0-0.1,0-0.2,0-0.1c0,0,0,0,0,0.1c-0.3-0.1-0.6-0.1-0.6-0.1c0,0.5,0,1.1,0,1.6c-0.1,0-0.2,0.1-0.2,0.2
				c0,0.1,0,0.2,0,0.3c-0.2,0-0.4,0-0.4,0c0,0.7,0,1.4,0,2.1c0,2.5-0.1,5-0.1,7.5c0,1.3-0.1,2.6-0.2,3.9c-0.6,3.5-0.8,7-0.6,10.5
				c0.1,0.2-0.1,0.2,0.2,0.5c0.1,0.1,0.4,0.3,0.7,0.4c0,0.1,0,0.1,0,0.2c0,0,0,0,0,0c0,0.1,0,0.1,0,0.2c-0.2,0.1-0.2,0.2,0.1,0.3
				c0,0,0,0,0,0c0,0,0,0.1,0,0.1c-0.3-0.1-0.6-0.1-0.6,0c-0.2,0.3,0.1,0.4,0.4,0.5c0.1,0,0.2,0.1,0.3,0.1c0,0,0,0.1,0,0.1
				c-0.2,0-0.3,0-0.4,0.1c-0.2,0.1-0.5,0.6-0.1,0.7c0.2,0.1,0.4,0.2,0.7,0.2c-0.1,0.6,0.1,1.3,0.7,1.5c0.4,0.1,0.8,0.3,1.2,0.4
				c0.5,0.9,1.1,1.9,1.9,2.1c2.1,0.6,4.2,1.2,6.3,1.6c1.2,0.4,2.3,0.7,3.5,0.8c2.7,0.3,6.2-0.4,8.7-1.5c1.3-0.6,2.4-1.3,3.3-2.3
				c0.8-0.8,1.5-1.7,2-2.7c1.4-1.3,2.3-3,2.3-5.2C600.7,879,600.5,877.9,600.2,876.8z M580.5,860.8c1.7-0.7,3.5-1.4,5.2-2.1
				c0.8-0.3,1.6-0.5,2.4-0.6c0.5-0.1,1-0.2,1.5-0.2c0,0.1,0,0.1,0,0.2c0,0.2,0,0.4-0.1,0.6c-0.2,0.4-0.5,0.9-0.9,1.3
				c-0.8,0.8-1.7,1.5-2.7,2.1c-0.2,0.3-0.4,0.5-0.7,0.8l-0.8,0.6c-0.8,0.8-1.7,1.6-2.6,2.2c-0.5,0.3-1,0.5-1.5,0.8
				c0-1.1,0-2.2,0-3.3c0-0.8,0-1.5,0-2.3c0,0,0.1,0,0.1,0C580.4,860.8,580.5,860.8,580.5,860.8z M590.8,879.6c-0.3,0.5-0.6,1-1,1.5
				c-0.6,0.5-1.3,0.9-2.1,1.2c-1.7,0.7-3.4,0.9-5.1,0.8c-0.8-0.2-1.5-0.4-2.2-0.6c-0.2-0.1-0.4-0.2-0.7-0.3c0-0.1,0-0.1-0.1-0.2
				c0,0-0.1-0.1-0.1-0.1c-0.4-0.4-0.8-0.7-1.4-0.9c0.9-0.2,1.7-0.5,1.1-1.2c0.7-0.2,1.1-0.7,1.3-1.4c0.2,0.1,0.4,0.2,0.6,0.2
				c2.7-0.8,5.3-1.7,8-2c0.2,0,0.4,0,0.6,0c0.3,0,0.5,0,0.7,0.1c0.1,0.4,0.3,0.9,0.3,1.3c0,0,0,0.1,0,0.1c0,0.1,0,0.1,0.1,0.2
				c0,0,0,0.1,0,0.1C590.9,878.8,590.9,879.2,590.8,879.6z"/>
			<path class="st2" d="M346.8,883.3C346.7,883.3,346.7,883.3,346.8,883.3c0.2-0.1,0.5-0.2,0.7-0.3c1-0.4,0.9-1.3-0.1-1.6
				c-1-0.1-1.9-0.1-2.9-0.1c-0.2,0-0.4,0-0.6,0c0-0.1-0.1-0.2-0.1-0.2c0.1-0.2,0.1-0.5,0-0.8c-0.3-0.7-1-0.6-1.6-0.3
				c-0.3-0.2-0.6-0.4-1-0.2c0,0-0.1,0-0.1,0c-0.3-0.2-0.6-0.2-0.8-0.1c-2.4,1.1-5,1.6-7.6,1.6c-0.1,0-0.2,0-0.2,0c0,0-0.1,0-0.1,0
				c-0.4,0-0.7-0.1-1-0.2c-0.9-0.6-1.8-1.4-2.5-2.2c-0.9-0.9-1.4-1.9-1.7-3.1c-0.9-1.6-1.4-3.4-1.4-5.2c0-0.9,0-1.8,0.1-2.7
				c0.1-0.7,0.3-1.4,0.6-2c0.2-0.5,0.3-1,0.6-1.5c0.2-0.3,0.4-0.6,0.7-0.8c0.5-0.4,0.9-0.8,1.5-1.2c1.2-0.8,2.6-1.4,4-1.9
				c1.7-0.5,3.6-0.9,5.4-1.2c1.8-0.2,3.7-0.2,5.6-0.1c0.9,0,0.8-0.6,0.6-1.2c0.2,0,0.5,0,0.7,0c1.6,0.1-0.4-2.1-0.5-2.2
				c0,0-0.1-0.1-0.2-0.2c0.6,0,1.2,0,1.8,0c1.1,0,1.2-0.9,0.5-1.5c-0.2-0.1-0.5-0.2-0.8-0.4c0.7-0.1,1.3-0.3,1.4-0.9
				c0.1-1.3-2.8-1.2-3.4-1.2c-0.4,0-0.8,0-1.2,0c0.1-0.7-0.4-1.1-1-1.1c-0.2,0-0.4,0-0.6,0c-0.1-0.1-0.2-0.1-0.4-0.2
				c-0.4,0-0.9,0-1.3,0c-6-0.3-12.6,0.6-17.1,4.9c-1.6,1.2-3,2.7-4,4.5c-0.8,1.4-1.3,2.8-1.7,4.3c-0.9,2.4-1.2,5.1-1,7.7
				c0.1,2.8,0.8,5.5,2,7.8c0.3,0.6,0.7,1.2,1.2,1.7c1.3,2.2,3.1,4,5.4,5.1c1.5,1.1,3.2,2,5,2.4c0.6,0.1,1.2,0.2,1.8,0.3
				c3.8,0.9,7.9,0.7,11.6-0.6c1.1-0.3,2.2-0.7,3.3-1.2c1-0.4,0.3-1.2-0.2-1.7c0.7-0.2,1.3-0.5,1.9-0.8
				C348.8,884.4,347.1,883.5,346.8,883.3z"/>
			<path class="st2" d="M710.3,859.4c4.1-0.5,17.3-3.1,17.3-3.1s1.2-4.1,0.7-4.5c-0.8-0.5-2.1-0.5-3.2-0.5c0-0.5-0.4-1-0.9-1
				c-0.2,0-0.3,0-0.5,0c-0.1-0.1-0.3-0.2-0.5-0.2c-0.2,0-0.4,0-0.6,0.1c-0.1-0.1-0.2-0.1-0.2-0.1l-16.5,1.4c0.1,0,0.2,0.2,0.3,0.4
				c-0.3,0-0.5,0-0.8,0.1c-0.1-0.2-0.2-0.3-0.4-0.3c-0.3-0.1-0.5,0-0.7,0.1c0-0.1-0.1-0.1-0.1-0.1c-0.2-0.1-0.5-0.2-0.5,0.2
				c0,0.2,0,0.4,0,0.6c0,0,0,0,0,0c0-0.1-0.1-0.3-0.2-0.3c-0.4-0.1-0.4,0.2-0.4,0.5c0,0,0,0,0,0c0,0,0,0,0,0c0,0,0,0,0,0
				c-0.1-0.3-0.3-0.5-0.3-0.8c0,0.3,0,0.7-0.1,1c-0.2,0.2-0.4,0.6-0.4,0.9c0,0-0.1,0.1-0.1,0.1c-0.4,0-0.7,0.1-0.7,0.3
				c0,0.1,0,0.3,0,0.4c-0.2,0-0.4,0-0.4-0.1c-0.7,10-1.4,20-2.4,30c0,0.1,0.1,0.1,0.1,0.2c0,0.3,0,0.5-0.1,0.8
				c0,0.3,0.3,0.4,0.7,0.5c0,0,0,0,0,0.1c0,0.1,0,0.2,0,0.3c-0.1,0.1,0,0.1,0,0.2c0.1,0.4,0.3,0.7,0.6,0.9c0,0.1,0,0.1,0,0.2
				c0.1,0.7,0.5,0.7,1.1,0.6c0.1,0,0.2,0,0.3,0c0.4,0.7,0.9,1.6,1.5,1.6c0.1,0,0.1,0,0.2,0c0.2,0.1,0.5,0.1,0.6,0
				c0.4,0.4,0.8,0.6,1.1,0.6c6.7-0.2,19.4-1.3,19.4-1.3s0.3-1,0.2-1.5c0.2,0,0.4-0.1,0.6-0.1c1.3-0.2,1.8-3.7,1.1-4.1
				c-0.7-0.3-9.9-1-17.5-1c0.4-2.5,0.7-5.1,0.9-7.6c2.8-0.2,6.1-0.5,7.2-0.6c0.6,0,0.8-0.3,0.8-0.6c0.2,0,0.4,0,0.6,0
				c0.7-0.1,0.6-1,0.6-1s0.4,0,0.6-0.1c1.3-0.1,2-4.3,1.4-4.6c-0.6-0.3-6.6-0.8-10.9-1.1c0-0.6,0-1.2,0-1.8
				C710.1,863.2,710.2,861.3,710.3,859.4z M705.7,852.7C705.7,852.7,705.7,852.7,705.7,852.7c-0.1-0.1-0.1-0.2-0.1-0.3
				C705.6,852.5,705.7,852.6,705.7,852.7z"/>
			<path class="st2" d="M554.9,855c0.1-1.3-2.9-1.2-3.5-1.3c-0.2,0-0.8-0.1-1.5-0.1c-0.1-0.7-0.7-1-1.3-1c-0.1-0.1-0.1-0.1-0.2-0.2
				c-0.3-0.1-0.8,0-0.9,0.3c-0.3-0.2-0.5-0.4-0.5-0.2c0,0.2,0,0.4-0.1,0.6c-0.1,0-0.1,0.1-0.2,0.1c-0.2-0.2-0.3-0.3-0.3-0.2
				c0,0.3,0,0.5-0.1,0.8c-0.2,0.1-0.4,0.4-0.4,0.7c-0.4,0-0.7-0.1-0.7-0.1c0,0.4-0.1,0.8-0.1,1.1c-0.1,0-0.2,0-0.2,0.1
				c-0.8,10.3-1.8,20.7-1.9,31c0,0.1,0,0.1,0.1,0.2c0,0.3,0,0.6,0,0.9c0,0.2,0.4,0.4,0.8,0.4c0,0.1,0,0.2,0,0.3c0,0.6,0.1,1,0.7,1.1
				c0.1,0,0.3,0,0.5,0c0,0,0,0,0,0c0.1,0,0.1,0,0.2,0c0.4,0.7,0.9,1.3,1.3,1.5c0.4,0.2,0.8,0.1,1.1-0.2c0,0,0,0,0.1,0.1
				c0.3,0.3,2,1.5,2.1,0.1c0-0.1,0-0.2,0-0.4c0.6,0.2,1.3,0.3,1.3-0.6c0-0.5,0-1,0-1.5c0.8,0.1,1.4,0,1.4-0.6c0-0.6,0-1.2,0-1.8
				c0.1-0.1,0.2-0.3,0.2-0.5C553.1,875.5,554.2,865.2,554.9,855z"/>
			<path class="st2" d="M441.7,885.6c-0.1-10.4-0.1-20.8-0.1-31.3c0-1.3-3.1-1-3.7-1c-0.1,0-0.2,0-0.3,0c-0.1-0.2-0.2-0.3-0.3-0.4
				c0-0.8-0.5-1.1-1.3-1c-0.1,0-0.3,0.1-0.5,0.1c-0.1-0.1-0.2-0.2-0.4-0.2c-0.1,0-0.4,0-0.7,0.1c-0.4-0.3-0.9-0.3-0.9,0.3
				c0,0.1,0,0.3,0,0.4c-0.1,0-0.1,0-0.2,0c-0.3-0.2-0.5-0.2-0.5,0c0,0.1,0,0.2,0,0.3c-0.3-0.1-0.6-0.2-0.6-0.2c0,0.2,0,0.5,0,0.7
				c-0.1,0.1-0.1,0.2-0.1,0.3c-0.1-0.1-0.2-0.1-0.2-0.2c0,0.4,0,0.7,0,1.1c0,0,0,0,0,0c0,0.1,0,0.2,0,0.3c-0.2,0-0.4,0.1-0.4,0.2
				c0,7.1,0,14.1,0.1,21.2c-2-2.4-3.9-4.8-5.7-7.3c-2.7-3.7-4.8-7.5-6.8-11.6c-0.5-0.4-1.1-0.6-1.7-0.6c-0.2,0-0.4,0-0.6,0
				c0-0.8,0-1.6,0.1-2.4c0-1.3-2.9-1.2-3.6-1.3c-0.2,0-0.7-0.1-1.3-0.1c-0.1-0.6-0.3-1-0.9-1c-0.1,0-0.2,0-0.4,0
				c-0.1-0.1-0.1-0.1-0.2-0.1c-0.2-0.1-0.8,0-1,0.3c-0.2-0.2-0.4-0.3-0.4-0.2c0,0.2,0,0.4,0,0.6c-0.1,0-0.1,0-0.2,0.1
				c-0.1-0.2-0.3-0.4-0.3-0.2c0,0.2,0,0.4,0,0.7c0,0-0.1,0.1-0.1,0.1c-0.3,0.1-0.6,0.4-0.6,0.9c0,0,0,0,0,0c0,0,0,0.1-0.1,0.1
				c-0.2,0.1-0.4,0.2-0.4,0.3c0,0.2,0,0.4,0,0.6c-0.2,0-0.4,0.1-0.4,0.1c-0.5,10.6-0.5,21.1-0.2,31.7c0,0.1,0,0.1,0.1,0.1
				c0,0.3,0,0.6,0,0.8c0,0.3,0.3,0.4,0.7,0.5c0,0,0,0,0,0.1c0,0.6,0.2,1.3,0.9,1.4c0.1,0,0.3,0,0.4,0c0.1,0.1,0.2,0.1,0.2,0.2
				c0.1,0.1,0.3,0.1,0.4,0.1c0,0,0,0.1,0.1,0.1c0.4,0.7,0.9,1.3,1.5,1.9c0.7,0.4,1.2,0.1,1.3-0.5c0.7,0.4,1.6,0.9,1.6-0.1
				c0-0.2,0-0.4,0-0.7c0.5,0.1,1,0.1,1-0.7c0-0.5,0-1.1,0-1.6c0.8,0.1,1.5,0,1.4-0.5c0-0.6,0-1.1,0-1.7c0.2-0.1,0.3-0.3,0.3-0.6
				c-0.1-4.5-0.2-8.9-0.2-13.4c4,5.6,8.7,10.8,13.1,16c0.2,0.2,0.5,0.1,0.9,0c0.1,0.1,0.2,0.1,0.3,0.2c0.3,0.4,0.6,0.7,0.9,1.1
				c0.5,0.5,1.3,1.1,1.8,0.4c0.4,0.4,0.9,0.7,1.4,0.8c0.2,0,0.4-0.1,0.5-0.2c0.2,0,0.5-0.1,0.7-0.2c0.1,0,0.1,0.1,0.2,0.1
				c0.4,0.3,1.9,1.1,1.9-0.1c0,0,0,0,0,0c0.7,0.3,1.9,0.7,1.8-0.5c0-0.5,0-1,0-1.5c0.8,0,1.4-0.1,1.4-0.6c0-0.6,0-1.2,0-1.8
				C441.6,886,441.7,885.8,441.7,885.6z"/>
			<path class="st2" d="M395.8,872c0.4-1.8,0.4-3.7-0.2-5.5c-0.8-2.7-2.6-4.3-4.6-6c-0.6-0.5-1.7-0.6-2.8-0.5
				c-0.2-0.2-0.4-0.4-0.6-0.6c0-0.2-0.2-0.4-0.5-0.5c-0.4-0.2-0.8-0.5-1.3-0.7c0.4-0.2,0.8-0.6,0.4-1.1c-0.4-0.7-1-1.3-1.7-1.7
				c-1.3-0.6-2.6-1-3.9-1.3c-0.9-0.6-1.8-1-2.9-1.2c-1-0.3-2.1-0.5-3.2-0.5c-0.4-0.1-0.7-0.1-1.1-0.1c-0.5-0.1-1.1-0.1-1.6-0.1
				c-1.6,0-3.2,0.2-4.7,0.7c-1.6,0.6-3.1,1.5-4.5,2.5c-0.7,0.4-1.4,0.9-2,1.5c-2.3,2.2-4,4.8-5,7.8c-0.4,1-0.7,2.1-0.9,3.2
				c-0.5,1.9-0.6,3.9-0.3,5.8c0,0.1,0,0.2,0.1,0.3c0,0.3,0,0.5,0.1,0.8c0.3,2.4,1.3,4.6,2.7,6.5c0.7,1.3,1.7,2.5,2.9,3.6
				c1.2,1.1,2.5,1.9,3.9,2.5c0.2,0.1,0.4,0.3,0.5,0.4c2.2,1.3,4.6,2.1,7.1,2.2c2.2,0.4,4.4,0.3,6.6,0c4.4-0.7,8.7-2.5,11.5-5.9
				c1.1-1.1,2-2.4,2.8-3.8c1.7-2.2,3-4.7,3.3-7.3C395.8,872.6,395.8,872.3,395.8,872z M372.9,861.3c2.9,0,5.7,0.8,8.5,1.5
				c0,0.2,0,0.3,0.1,0.4c0.2,0.2,0.5,0.4,0.7,0.6c0,0.6,0.1,1.3,0.3,1.5c1,0.8,1.9,1.6,2.7,2.6c0.3,0.9,0.6,1.8,0.9,2.7
				c0,0.1,0,0.1,0,0.2c0,0.5-0.1,1-0.2,1.5c-0.7,1.8-1.7,3.5-3,4.9c-0.5,0.6-1,1.1-1.6,1.6c-2,1.4-4.3,2.4-6.7,3.1
				c-0.7,0.2-1.4,0.3-2,0.4c-0.9-0.1-1.8-0.3-2.7-0.6c-1.2-0.9-2.2-1.8-3.1-3c-1.9-2.5-2.6-5.3-2.5-8.2c0.2-1.1,0.5-2.2,0.9-3.4
				c0.2-0.4,0.4-0.9,0.6-1.3c0.1-0.1,0.2-0.2,0.3-0.4c1.3-1.4,2.9-2.6,4.7-3.4c0.5-0.2,0.9-0.4,1.4-0.5
				C372.3,861.3,372.6,861.3,372.9,861.3z"/>
			<path class="st2" d="M529.9,887.6c-0.4-6.2-2.8-12.4-8.4-15.8c-0.2-0.1-0.4-0.2-0.6-0.3c1.2-1.1,2.3-2.3,3-3.8
				c0.8-0.9,1.4-1.8,1.9-2.9c0.9-2.1,0.8-4.4-0.2-6.3c-0.1-1.2-0.6-2.3-1.4-3.3c-1.5-1.8-3.6-2.7-5.8-3.1c-1.2-0.8-2.6-1.3-4.1-1.5
				c-1.1-0.3-2.1-0.4-3.2-0.4c-3-0.3-5.9,0.7-8.6,1.9c-0.1-0.4-0.4-0.6-0.9-0.6c-0.1,0-0.3,0-0.4,0c-0.1-0.1-0.2-0.1-0.2-0.2
				c-0.2-0.1-0.7,0-1,0.3c-0.3-0.2-0.5-0.3-0.5-0.1c0,0.2,0,0.4,0,0.6c-0.1,0-0.1,0-0.2,0.1c-0.1-0.2-0.4-0.4-0.4-0.1
				c0,0.2,0,0.5,0,0.7c0,0,0,0,0,0c0,0,0,0,0,0c-0.3,0.1-0.5,0.4-0.6,0.9c-0.3,0.1-0.5,0.2-0.5,0.3c0,0.2,0,0.4,0,0.6
				c-0.2,0-0.4,0-0.4,0.1c0.4,11.1,0.9,22.3,1.5,33.4c0,0,0,0.1,0.1,0.1c0,0.3,0,0.7,0,1c0,0.2,0.4,0.3,0.8,0.3c0,0.2,0,0.3,0,0.5
				c0,0.7,0.7,0.9,1.2,0.8c0,0,0,0,0,0c0,0,0.1,0,0.2,0c0.4,0.6,0.9,1.2,1.3,1.3c0.3,0.1,0.7,0,0.9-0.2c0,0,0.1,0.1,0.1,0.1
				c0.3,0.3,2,1.2,2-0.1c0,0,0-0.1,0-0.1c0.7,0.3,1.8,0.6,1.7-0.5c0-0.5-0.1-1-0.1-1.6c0.9,0,1.5-0.2,1.5-0.5c0-0.6-0.1-1.2-0.1-1.7
				c0.2-0.2,0.3-0.3,0.3-0.6c-0.2-3.4-0.3-6.8-0.4-10.1c0.2,0.1,0.4,0.1,0.6,0c0.1,0,0.2-0.1,0.3-0.1c0.2,0,0.3,0,0.5,0.1
				c0.4,0.2,0.7,0.3,1,0.2c0,0,0.1,0,0.1,0c1.8,0.2,3.6,0.9,5.2,1.9c0,0,0,0,0.1,0.1c0.7,0.8,1.3,1.5,1.8,2.4
				c1.3,2.6,1.9,5.3,2.1,8.3c0,0.3,0.3,0.5,0.7,0.6c0,0.2,0,0.4,0.1,0.6c0.1,0.7,0.5,1,1.1,0.9c0.1,0,0.1,0,0.2,0
				c0.1,0.1,0.2,0.1,0.3,0.1c0.4,0.7,0.9,1.4,1.3,1.6c0.4,0.2,1,0.2,1.2-0.2c0.4,0.3,2.1,1.6,2.1,0.3c0-0.2,0-0.4,0-0.6
				c0.6,0.2,1.3,0.3,1.2-0.6c0-0.6-0.1-1.1-0.2-1.7c0.8,0.2,1.7,0.2,1.7-0.4c0-0.5-0.1-1.1-0.1-1.6
				C529.7,888.1,529.9,887.9,529.9,887.6z M510.5,859.3c0.5-0.1,1-0.2,1.5-0.3c1.3,0,3,0.1,4.3,0.5c0,0,0,0,0,0
				c0.1,0.2,0.1,0.3,0.2,0.5c0.1,0.4,0.1,0.8,0,1.2c-0.4,1-1,1.8-1.7,2.6c-1.9,1.6-4.1,2.8-6.4,3.8c0,0,0,0-0.1,0
				c-0.2,0-0.4,0-0.5,0c-0.1-2.7-0.2-5.4-0.3-8.1C508.5,859.6,509.5,859.5,510.5,859.3z"/>
			<path class="st2" d="M646.9,854.4c0.2-1.3-3.4-0.7-3.7-0.7c-0.1,0-0.3,0-0.5,0c0,0,0,0,0,0c0-0.2,0.1-0.4,0.1-0.7
				c0.1-1-0.8-1-1.7-0.6c-0.2-0.2-0.5-0.3-0.7-0.3c-0.1,0-0.3,0.1-0.5,0.2c-0.5-0.2-1.2-0.1-1.3,0.6c0,0.1,0,0.2,0,0.3
				c-0.1,0-0.2,0-0.3,0.1c-0.4,0-0.8,0.1-0.8,0.3c-0.1,0.5-0.1,0.9-0.2,1.4c0,0,0,0,0,0c0,0.1,0,0.3-0.1,0.4c-0.1,0-0.1,0-0.1,0
				c-1.1,7.5-2.3,14.9-3.5,22.4c-0.1,0.4-0.1,0.8-0.2,1.2c-0.1,0.3-0.2,0.6-0.3,0.9c-0.4,0.8-0.9,1.5-1.5,2.1
				c-1,0.8-2.2,1.4-3.7,1.7c-0.1,0-0.3,0-0.4,0.1c-0.5-0.1-1.1-0.1-1.6-0.3c-0.1-0.1-0.3-0.2-0.4-0.3c-1.4-1.1-2.7-2.4-3-4.2
				c-0.2-1-0.2-2.1-0.1-3.1c0-0.1,0-0.1,0-0.2c0.5-2.8,0.9-5.5,1.2-8.3c0.5-2.9,0.6-5.8,0.3-8.7c0-1-0.1-2.1-0.1-3.1
				c0-0.5-0.3-0.9-0.7-1.2c-0.1-0.3-0.1-0.5-0.2-0.8c-0.1-1.1-1.2-1.1-2-1.1c-0.3,0-0.5,0-0.8,0c-0.1-0.4-0.2-0.8-0.5-1
				c-0.2-0.1-0.7-0.1-1,0.2c-0.3-0.3-0.5-0.4-0.6-0.1c-0.1,0.3-0.1,0.6-0.1,0.9c0,0,0,0,0,0c-0.2-0.4-0.4-0.6-0.5-0.1
				c0,0.1,0,0.1,0,0.2c-0.3-0.2-0.5-0.4-0.5-0.6c-0.1,0.6-0.2,1.3-0.3,1.9c-0.4,0-0.6,0.1-0.7,0.2c-0.4,2.7-0.8,5.4-1.1,8.2
				c0,0,0,0,0,0c-0.1,0.7-0.2,1.4-0.3,2.1c-0.2,0-0.3,0-0.4,0.1c-0.4,2.8-0.7,5.6-1.1,8.4c-0.1,0.6-0.2,1.2-0.2,1.9
				c-0.1,0.5-0.1,1-0.2,1.5c-0.1,1.1-0.1,2.1,0,3.2c0,0.5,0.1,1.1,0.2,1.6c0.3,1.2,0.8,2.2,1.5,3.1c0,0.1,0,0.1,0.1,0.2
				c1.2,2.3,3.4,4,5.9,4.9c1.6,1.1,3.5,1.8,5.6,2c0.1,0,0.1,0,0.2,0c1.9,0.5,3.9,0.5,5.8,0c2.9-0.2,5.8-1.5,7.7-3.9
				c0.3-0.4,0.5-0.8,0.8-1.2c0.3-0.3,0.6-0.6,0.9-1c1.2-1.6,1.8-3.3,2.1-5.2c1.3-7.7,2.5-15.5,3.7-23.2c0-0.2,0-0.3-0.1-0.5
				C646.8,855.7,646.9,855,646.9,854.4z"/>
			<path class="st2" d="M489.6,853.9c-0.5-0.4-1-0.6-1.7-0.6c-0.8-0.1-1.6-0.2-2.4-0.2c-0.1-0.1-0.1-0.2-0.2-0.2c0-0.5-0.1-1-0.6-1
				c-0.4,0-0.8,0-1.1,0c-0.1-0.1-0.2-0.1-0.3-0.1c-0.3,0-0.6,0-0.9,0c-0.1,0-0.1-0.1-0.2-0.1c-9.6-0.1-19.2,0-28.8,0
				c-0.2,0-0.2,0.3,0,0.6c-0.2,0-0.4,0-0.6,0c-0.1,0-0.1,0.1-0.1,0.3c-0.2,0-0.5,0-0.7,0c0.2,0,0.5,0.2,0.7,0.5c0,0,0,0,0,0
				c-0.3,0.1-0.5,0.5-0.6,0.9c-0.2,0.1-0.4,0.1-0.6,0.1c0.2,0,0.4,0,0.6,0c0,0.1,0,0.1,0,0.2c-0.2,0-0.3,0.1-0.4,0.2
				c-0.1,0.1-0.3,0.3,0.1,0.3c0,0,0.1,0,0.1,0c0,0,0,0,0,0.1c-0.2,0-0.4,0-0.5,0c-0.3,0-0.3,0.2,0,0.3c0.1,0.1,0.3,0.1,0.4,0.1
				c0,0.1,0,0.3,0.1,0.4c0,0,0,0-0.1,0c-0.3,0-0.6,0-0.5,0.4c0.1,0.2,0.4,0.2,0.8,0.3c0,0.1-0.1,0.1-0.1,0.2
				c-0.1,0.5,0.1,1.4,0.7,1.4c0.3,0,0.6,0,0.9,0.1c0,0,0,0,0,0c0.5,1,1.2,2.3,2,2.4c3.1,0.3,6.2,0.5,9.2,0.6
				c-0.4,8.2-1,16.4-1.7,24.6c0,0.1,0,0.2,0.1,0.3c0,0.2,0,0.5-0.1,0.7c0,0.4,0.3,0.7,0.8,0.8c0,0.7,0.1,1.5,0.8,1.8
				c0.2,0.1,0.4,0.1,0.6,0c0.1,0.1,0.1,0.1,0.2,0.2c0.2,0.1,0.4,0.2,0.6,0.2c0.3,0.4,0.5,0.8,0.8,1.2c0.3,0.6,0.7,1,1.2,1.2
				c0.4,0.1,0.7-0.1,0.8-0.4c0-0.2,0-0.4,0-0.6c0.6,0.4,1.2,0.6,1.3-0.3c0-0.2,0-0.5,0-0.7c0.5,0.2,1,0.1,1-0.6
				c0-0.5,0.1-1.1,0.1-1.6c0.7,0.1,1.3,0.1,1.4-0.5c0.1-0.6,0.1-1.2,0.1-1.9c0.1-0.1,0.2-0.3,0.2-0.4c0.8-7.8,1.3-15.7,1.7-23.5
				c3.2,0,6.5,0,9.7,0c0.6,0,0.8-0.3,0.9-0.8c0.2,0,0.4,0,0.6,0c0.8,0,0.8-0.6,0.6-1.2c0.2,0,0.5,0,0.7,0c1.6,0-0.4-2.1-0.5-2.2
				c0,0-0.1-0.1-0.1-0.1c0.6,0,1.2,0,1.7,0c1.1,0,1.3-0.9,0.5-1.5c-0.3-0.2-0.6-0.3-0.8-0.4C488.8,855.1,490.2,854.9,489.6,853.9z"
				/>
			<path class="st2" d="M691.4,853.9c-0.5-0.4-1-0.6-1.7-0.6c-0.8-0.1-1.6-0.2-2.4-0.2c-0.1-0.1-0.1-0.2-0.2-0.2c0-0.5-0.1-1-0.6-1
				c-0.4,0-0.8,0-1.1,0c-0.1-0.1-0.2-0.1-0.3-0.1c-0.3,0-0.6,0-0.9,0c-0.1,0-0.1-0.1-0.2-0.1c-9.6-0.1-19.2,0-28.8,0
				c-0.2,0-0.2,0.3,0,0.6c-0.2,0-0.4,0-0.6,0c-0.1,0-0.1,0.1-0.1,0.3c-0.2,0-0.5,0-0.7,0c0.2,0,0.5,0.2,0.7,0.5c0,0,0,0,0,0
				c-0.3,0.1-0.5,0.5-0.6,0.9c-0.2,0.1-0.4,0.1-0.6,0.1c0.2,0,0.4,0,0.6,0c0,0.1,0,0.1,0,0.2c-0.2,0-0.3,0.1-0.4,0.2
				c-0.1,0.1-0.3,0.3,0.1,0.3c0,0,0.1,0,0.1,0c0,0,0,0,0,0.1c-0.2,0-0.4,0-0.5,0c-0.3,0-0.3,0.2,0,0.3c0.1,0.1,0.3,0.1,0.4,0.1
				c0,0.1,0,0.3,0.1,0.4c0,0,0,0-0.1,0c-0.3,0-0.6,0-0.5,0.4c0.1,0.2,0.4,0.2,0.8,0.3c0,0.1-0.1,0.1-0.1,0.2
				c-0.1,0.5,0.1,1.4,0.7,1.4c0.3,0,0.6,0,0.9,0.1c0,0,0,0,0,0c0.5,1,1.2,2.3,2,2.4c3.1,0.3,6.2,0.5,9.2,0.6
				c-0.4,8.2-1,16.4-1.7,24.6c0,0.1,0,0.2,0.1,0.3c0,0.2,0,0.5-0.1,0.7c0,0.4,0.3,0.7,0.8,0.8c0,0.7,0.1,1.5,0.8,1.8
				c0.2,0.1,0.4,0.1,0.6,0c0.1,0.1,0.1,0.1,0.2,0.2c0.2,0.1,0.4,0.2,0.6,0.2c0.3,0.4,0.5,0.8,0.8,1.2c0.3,0.6,0.7,1,1.2,1.2
				c0.4,0.1,0.7-0.1,0.8-0.4c0-0.2,0-0.4,0-0.6c0.6,0.4,1.2,0.6,1.3-0.3c0-0.2,0-0.5,0-0.7c0.5,0.2,1,0.1,1-0.6
				c0-0.5,0.1-1.1,0.1-1.6c0.7,0.1,1.3,0.1,1.4-0.5c0.1-0.6,0.1-1.2,0.1-1.9c0.1-0.1,0.2-0.3,0.2-0.4c0.8-7.8,1.3-15.7,1.7-23.5
				c3.2,0,6.5,0,9.7,0c0.6,0,0.8-0.3,0.9-0.8c0.2,0,0.4,0,0.6,0c0.8,0,0.8-0.6,0.6-1.2c0.2,0,0.5,0,0.7,0c1.6,0-0.4-2.1-0.5-2.2
				c0,0-0.1-0.1-0.1-0.1c0.6,0,1.2,0,1.7,0c1.1,0,1.3-0.9,0.5-1.5c-0.3-0.2-0.6-0.3-0.8-0.4C690.6,855.1,692.1,854.9,691.4,853.9z"
				/>
		</g>
	</g>
</g>
</svg>
