<svg id="INDEX" xmlns="http://www.w3.org/2000/svg" viewBox="0 0 292 52"><defs><style>.cls-1{fill:#00a6e9;}.cls-2{fill:#00aeef;}</style></defs><title>word</title><path class="cls-1" d="M275.58,41.71c-.13.71-.29.83.48,1l0,.21a.92.92,0,0,0,1,1.1.76.76,0,0,0,.22.06c.63,1.1,1.83,2.63,2.33,1.46,1.27,1.05,1.36.27,1.51-.53.8.17.76-.6,1-1.81.5,0,.92,0,1-.43,0-.16.65-3.3.62-3.46.46-2.47.8-2.22-2.94-2.29a.67.67,0,0,0-.2-.23c.26-.91-.71-1-1.51-.79a1.12,1.12,0,0,0-.76-.12c-.63-.5-.62-.12-.76.6-.39-.27-.4-.1-.46.21s-.43.45-.55.92c-.16,0-.28.08-.29.14l-.12.65c-.07,0-.12.07-.13.12l-.58,3.11s.06.08.16.12"/><path class="cls-2" d="M189.93,5.35c-2.67-2-10.35-3.42-17.25,2.79-9,6.17-6.64,18.78-6.79,17.21q1,10.07,2.12,20.12c0,.05.29.07.64.07.14,1.24,0,1.55,1,1.38A.84.84,0,0,0,170,47c.4.91.91,1.28,1.71.83.66.33,1.32.36,1.55-.25,1.26.29,1.18-.37,1.24-1.37,1.6.2,3,.07,3-.44-.69-6.36-.63-6-.93-10,4.42-.14,8.84-.41,13.24-.83.29,9.79,0,9.23,1.1,9.56v.35a1,1,0,0,0,1.41.88c.19.08.14,0,.21.06.83,1.69,1.68,1.7,2.2,1.15.68.47,1.62.71,1.65-.13v-.26c1.58.64,1.36-.44,1.38-1.91,1.11.12,2,0,2-.37C199,14,199.66,6.85,189.93,5.35ZM177.19,17c4.24-3.76,4.77-3.18,10.27-3.52.17,0,.3.11.46.16,1.09,3.1,1.49,9.27,1.64,12.59q-6.73,1.21-13.49,2.26C175.74,23.64,175.14,18.85,177.19,17Z"/><path class="cls-2" d="M59.42,14.37c4.08-.49,17.3-3.11,17.3-3.11s1.21-4.13.67-4.45a6.22,6.22,0,0,0-3.18-.48c0-.49-.36-1-.87-1l-.45,0c-.31-.3-.62-.2-1.11-.16C71.55,5.07,55.28,6.51,55,6.53c.06,0,.17.19.32.43L54.58,7a.77.77,0,0,0-1.13-.21c-.18-.27-.59-.37-.63,0,0,.2,0,.41,0,.61h0c-.1-.42-.55-.53-.61.25l0,0,0,0A1.54,1.54,0,0,1,51.84,7c0,.33,0,.66-.06,1a1.85,1.85,0,0,0-.43.88L51.25,9c-.85.1-.74.21-.76.66l-.35-.05q-1,15-2.36,30c0,.07.05.13.14.19-.08.88-.24,1.15.68,1.31a1.92,1.92,0,0,0,0,.34c-.08.05,0,.14,0,.22a1.09,1.09,0,0,0,.6.87c0,1,.54.84,1.41.8.38.8.84,1.6,1.71,1.6a.62.62,0,0,0,.64,0,2,2,0,0,0,1.13.58c6.69-.18,19.41-1.34,19.41-1.34a3.29,3.29,0,0,0,.15-1.51l.61-.08c1.28-.16,1.8-3.73,1.11-4.06s-9.91-1-17.48-1c.38-2.53.67-5.05.86-7.58L66,29.21c.57,0,.76-.31.79-.64l.62,0c.72-.06.56-1,.56-1l.63-.07c1.34-.11,2-4.25,1.37-4.6S63.39,22.09,59,21.79A73.62,73.62,0,0,1,59.42,14.37ZM54.86,7.59h-.09a1.81,1.81,0,0,0-.06-.27Z"/><path class="cls-2" d="M29.34,8.36a23.84,23.84,0,0,0-3.61-1.49A27.35,27.35,0,0,0,17,5.73a50.75,50.75,0,0,0-7,.18c-.38,0-.49.21-.47.43-.08.05-.06.24-.06.35-.42,0-.67,0-.49.34-.06,0-.1,0-.11,0-.76.05-.58,0,0,.23v.58a.87.87,0,0,0-.18.28c-1.1.07-.87,0,0,.07a1.83,1.83,0,0,0-.08.43A1.56,1.56,0,0,0,8.3,9c-.15,0-.32.11-.33.26-.32,0-.25,0,0,.07,0,0,0,.08,0,.12a1.81,1.81,0,0,0-.37,0c-.14,6-.18,26.88,0,27.88,0,1.19-.17,1.4.83,1.61,0,.92.15,1.5,1.23,1.27a.75.75,0,0,0,.25,0c.55.94,1.32,1.78,2.15,1.08.79.58,1.82.83,1.84-.17,2.07,1,1.74-.43,1.76-1.95.94,0,1.61-.12,1.61-.48q0-.9,0-1.8a.71.71,0,0,0,.23-.53C17.31,18.71,17.68,20,17.33,14A22.47,22.47,0,0,1,27.7,16.33a6.68,6.68,0,0,1,3,5c.47,1.17.72,2.32.21,4.93-3,9.16-11.51,12.55-12.1,13.55-1.37.87-1.89,1-.67,1.25a.79.79,0,0,0,.1.23h0c-.86.54-1.45.81-.45.61h0c-.15.08-.11.06,0,.08a.66.66,0,0,0-.05.23l-.55.35s.33.3.69.6a.44.44,0,0,0,0,.1l-.61.39c-.23.14.65.49,1.29.59v0l-.31.2c-.33.21-.07.83.18,1a1.39,1.39,0,0,0,1-.05c.37.76,1.18,1.38,1.88,1,.9.63,1,.42,1.79-.07a1.25,1.25,0,0,0,1,.06c4.69-2.77,9.28-5.86,12.43-10.34C43.92,26.82,43.34,12.3,29.34,8.36Z"/><path class="cls-2" d="M223.63,9.95c.09-1.3-2.86-1.24-3.48-1.28-.24,0-.83-.11-1.47-.14a1.15,1.15,0,0,0-1.28-1,.7.7,0,0,0-1.09.16c-.6-.54-.5-.32-.56.4a.28.28,0,0,0-.19.13c-.38-.4-.3-.36-.38.57a.93.93,0,0,0-.45.69L214,9.4c0,.38-.06.75-.09,1.13-.41,0-2.67,30.73-2,31.29,0,1-.19,1.16.77,1.32,0,.95.18,1.61,1.24,1.37a.45.45,0,0,0,.27.06c.61,1,1.6,2.19,2.39,1.3.86.73,2.06,1.31,2.14.18l0-.37c1.56.58,1.32-.5,1.34-2.16,1.75.18,1.41-.44,1.44-2.37a.72.72,0,0,0,.22-.51C221.9,30.39,222.93,20.17,223.63,9.95Z"/><path class="cls-2" d="M148.41,7.46a19.11,19.11,0,0,0-15.19-1,20.58,20.58,0,0,0-3.82-.42c-.12-.83-.58-1.12-1.26-1a.73.73,0,0,0-1.14.16c-.61-.51-.5-.31-.44.39a.37.37,0,0,0-.25.2c-.47-.44-.38-.4-.31.52a.81.81,0,0,0-.49.66c-.4-.06-.74-.13-.75-.21,0,.42.07.84.11,1.26-.23,0-.41,0-.4,0,0,.3,0,.61.06.91,0,0,0,0,0,0,1.53,22.7,1.35,35.55,1.35,35.55,0,1-.18,1.26.79,1.46,0,1,.29,1.54,1.25,1.32a.46.46,0,0,0,.3.07c.61,1,1.58,2.13,2.37,1.25.81.69,2,1.16,2,.08,0-.11,0-.21,0-.32,1.68.67,1.42-.41,1.44-2.1,1.75.17,1.42-.4,1.44-2.38a.72.72,0,0,0,.22-.52c.05-2.12.06-4.23.06-6.35,4.68-.42,15.6-.92,20.19-9.86a10.26,10.26,0,0,0,2.83-6.34C160.66,15.27,155.39,9,148.41,7.46Zm-1,15.64c-2.49,3-8,4.1-11.85,4.43-.14-3.1-.15-5.85-.55-11,2.51-1,1.48-.76,7-1.6a30.66,30.66,0,0,1,5.09,1.17,11.29,11.29,0,0,1,1.21,1.27Z"/><path class="cls-2" d="M268.68,42.53c-.47-6.67-3.09-12.93-9-16.19a11.37,11.37,0,0,0,3-3.79c2.35-2.73,3.33-6.12,1.62-9.26-.42-3.64-3.52-5.64-7.21-6.43A14.27,14.27,0,0,0,249.78,5a16.89,16.89,0,0,0-8.62,1.88c-.22-.57-.71-.65-1.3-.53a.87.87,0,0,0-1.2.09c-.58-.47-.47-.22-.45.48A.39.39,0,0,0,238,7c-.53-.58-.42-.17-.4.6l0,0a.85.85,0,0,0-.56.85c-.67.24-.54.2-.52.95-.22,0-.38,0-.38.07,0,.41,1.27,33.15,1.53,33.46.06,1.08-.12,1.23.83,1.32,0,.16,0,.33,0,.49a1,1,0,0,0,1.21.84.35.35,0,0,0,.2,0c.58.91,1.41,1.81,2.22,1.11.91.68,2.06,1.06,2.07-.11,2.1.87,1.72-.41,1.63-2.1,1.81,0,1.47-.32,1.37-2.24a.72.72,0,0,0,.28-.6c-.15-3.38-.29-6.76-.43-10.14a1.19,1.19,0,0,0,.92-.11l.47.06a1.16,1.16,0,0,0,1.16.16,11.91,11.91,0,0,1,5.15,1.92c.85,1,3.43,3.16,4,10.75,0,.27.35.46.73.56.09,1,.17,1.68,1.36,1.4a.88.88,0,0,0,.31.13,4.3,4.3,0,0,0,1.28,1.63.94.94,0,0,0,1.21-.19c.37.31,2.14,1.64,2.07.25,0-.21,0-.42,0-.63,1.55.57,1.26-.54,1-2.27,2,.42,1.73-.15,1.53-2A.68.68,0,0,0,268.68,42.53ZM250.87,14a14.73,14.73,0,0,1,4.31.51,4,4,0,0,1,.21,1.82c-1,2.37-2.7,4-8.09,6.41l-.6,0q-.17-4-.35-8.08A28.5,28.5,0,0,0,250.87,14Z"/><path class="cls-2" d="M112.63,24.74c-.07-.64-1.34-.71-1.9-.71a13.4,13.4,0,0,0-2.22-1c-.3-.68-.87-.54-1.61-.53-1.88-.4-8.31-.32-12.39-1.39L94.44,21,94,19.48a4.08,4.08,0,0,1,1.21-2c4.41-2.31,10.19-2.8,15-3.53a.79.79,0,0,0,.62-.37c.88-.13,1.19-.73,1-1.27l1.11-.14c.82-.1,1-1.15.09-1.74a.87.87,0,0,0,.34-.51c.31-1.32-1.47-1.14-2.81-1.13,0-.46-.34-1.16-.75-1.18-.23,0-.46-.06-.7-.09a11.84,11.84,0,0,0-3.5-.21c-.2-.88-1.53-1-2.41-.86-.07-.42-.37-1.1-.8-1l-.5.09a.62.62,0,0,0-.44-.25l-.88.13c-.43-.21-5.09.51-8.27,2.35-2,1.19-7.89,5.53-8.49,10A7.09,7.09,0,0,0,83.23,21a4.69,4.69,0,0,0,1.24,4,5.53,5.53,0,0,0,3.65,3.13,7.71,7.71,0,0,0,4.72,1.52c2,.28,8,.21,10,.17a3.38,3.38,0,0,0,1.42.29,16.29,16.29,0,0,0,2.51.27l.22.21a10.19,10.19,0,0,1,.66,2c-1.8,6-6.91,4.9-7.91,5.19l-.94,0c-6.09-1.3-5.3-3.38-7.6-2a1.44,1.44,0,0,0-1.52.13c-.84-.44-1.52.22-1.62,1a1.53,1.53,0,0,0-.9.1c-.21.18-.35.47,0,.64l.31.15a.84.84,0,0,0,.06.35c-1.18.46-.76.55-.46.7a.45.45,0,0,0,0,.3,1.34,1.34,0,0,0,0,.14c-.44-.25-.57-.16,0,.33h0a.67.67,0,0,0,.24.38.32.32,0,0,0,0,.37c-1.15,0-.48.26.61.76-1,.75.29,1.17,1.73,1.8,1.57,1.29,8.87,3.94,14.83,2.3,3.51-.59,4.48-1.71,5.48-2.11a9.75,9.75,0,0,0,2.65-1.58C119.55,38.6,119.57,27.09,112.63,24.74Z"/></svg>