<?xml version="1.0" encoding="utf-8"?>
<!-- Generator: Adobe Illustrator 21.0.0, SVG Export Plug-In . SVG Version: 6.00 Build 0)  -->
<svg version="1.1" xmlns="http://www.w3.org/2000/svg" xmlns:xlink="http://www.w3.org/1999/xlink" x="0px" y="0px"
	 viewBox="0 0 1044 1044" style="enable-background:new 0 0 1044 1044;" xml:space="preserve">
<style type="text/css">
	.st0{display:none;}
	.st1{display:inline;fill:#FFFFFF;}
	.st2{fill:#00AEEF;}
</style>
<g id="BG" class="st0">
	<rect class="st1" width="1044" height="1044"/>
</g>
<g id="TEXT">
	<g>
		<g>
			<path class="st2" d="M584.8,159.8c4.1-0.5,17.3-3.1,17.3-3.1s1.2-4.1,0.7-4.5c-0.8-0.5-2.1-0.5-3.2-0.5c0-0.5-0.4-1-0.9-1
				c-0.2,0-0.3,0-0.5,0c-0.1-0.1-0.3-0.2-0.5-0.2c-0.2,0-0.4,0-0.6,0.1c-0.1-0.1-0.2-0.1-0.2-0.1l-16.5,1.4c0.1,0,0.2,0.2,0.3,0.4
				c-0.3,0-0.5,0-0.8,0.1c-0.1-0.2-0.2-0.3-0.4-0.3c-0.3-0.1-0.5,0-0.7,0.1c0-0.1-0.1-0.1-0.1-0.1c-0.2-0.1-0.5-0.2-0.5,0.2
				c0,0.2,0,0.4,0,0.6c0,0,0,0,0,0c0-0.1-0.1-0.3-0.2-0.3c-0.4-0.1-0.4,0.2-0.4,0.5c0,0,0,0,0,0c0,0,0,0,0,0c0,0,0,0,0,0
				c-0.1-0.3-0.3-0.5-0.3-0.8c0,0.3,0,0.7-0.1,1c-0.2,0.2-0.4,0.6-0.4,0.9c0,0-0.1,0.1-0.1,0.1c-0.4,0-0.7,0.1-0.7,0.3
				c0,0.1,0,0.3,0,0.4c-0.2,0-0.4,0-0.4-0.1c-0.7,10-1.4,20-2.4,30c0,0.1,0.1,0.1,0.1,0.2c0,0.3,0,0.5-0.1,0.8
				c0,0.3,0.3,0.4,0.7,0.5c0,0,0,0,0,0.1c0,0.1,0,0.2,0,0.3c-0.1,0.1,0,0.1,0,0.2c0.1,0.4,0.3,0.7,0.6,0.9c0,0.1,0,0.1,0,0.2
				c0.1,0.7,0.5,0.7,1.1,0.6c0.1,0,0.2,0,0.3,0c0.4,0.7,0.9,1.6,1.5,1.6c0.1,0,0.1,0,0.2,0c0.2,0.1,0.5,0.1,0.6,0
				c0.4,0.4,0.8,0.6,1.1,0.6c6.7-0.2,19.4-1.3,19.4-1.3s0.3-1,0.2-1.5c0.2,0,0.4-0.1,0.6-0.1c1.3-0.2,1.8-3.7,1.1-4.1
				c-0.7-0.3-9.9-1-17.5-1c0.4-2.5,0.7-5.1,0.9-7.6c2.8-0.2,6.1-0.5,7.2-0.6c0.6,0,0.8-0.3,0.8-0.6c0.2,0,0.4,0,0.6,0
				c0.7-0.1,0.6-1,0.6-1s0.4,0,0.6-0.1c1.3-0.1,2-4.3,1.4-4.6c-0.6-0.3-6.6-0.8-10.9-1.1c0-0.6,0-1.2,0-1.8
				C584.5,163.5,584.6,161.6,584.8,159.8z M580.2,153C580.2,153,580.2,153,580.2,153c-0.1-0.1-0.1-0.2-0.1-0.3
				C580.1,152.8,580.2,152.9,580.2,153z"/>
			<path class="st2" d="M470,185c-0.3-0.1-0.6-0.2-0.9-0.3c0.3-0.1,0.6-0.1,0.9-0.2c1.2-0.3,1.3-2.4-3.6-1.6c0,0,0,0,0,0
				c0.3-0.5-0.1-1.6-0.7-1.5c-0.3,0.1-0.5,0.1-0.8,0.2c-0.4-0.4-0.6-0.3-1.1-0.2c-0.2-0.1-0.5-0.2-0.7-0.1
				c-4.5,1.1-6.3,1.6-10.1,1.7c-3.4-2.9-0.7-7.9-1.8-22.2c0.1-5.7,0.3-5.8-0.7-6.5c-0.2-1.8,0-2-2.8-2.3c-0.2,0-0.7-0.1-1.2-0.1
				c-0.1-0.7-0.6-1.1-1.1-1c-0.3-0.4-1-0.2-1,0.3c-0.7-0.6-0.6-0.5-0.6,0.3c-0.1,0-0.1,0.1-0.2,0.2c-0.5-0.5-0.4-0.5-0.4,0.5
				c-0.2,0.1-0.3,0.3-0.3,0.6c-0.4-0.2-0.7-0.3-0.7-0.5c0,0.4,0,0.7,0,1.1c0,0.1,0,0.3,0,0.4c-0.2,0-0.4,0-0.4,0
				c-0.5,25.6-1.1,28.4,1.2,31.3c0.7,1.6,1.7,2.7,3.6,3.4c1.4,1.2,3,1.6,4.8,1.9c4.7,1.4,10.4-0.4,14.9-1.5c0.1,0,0.3-0.1,0.4-0.2
				c1.3-0.4,2.3-0.4,1.4-1.6c0.6-0.1,1.2-0.3,1.7-0.4C470.6,186.3,470.9,185.6,470,185z"/>
			<path class="st2" d="M517.4,171.5c1.2-5.3-1.3-8.5-4.8-11.5c-0.6-0.5-1.7-0.6-2.8-0.5c-0.2-0.2-0.4-0.4-0.6-0.6
				c-0.1-0.5-1.3-1-1.7-1.3c0.4-0.2,0.8-0.6,0.4-1.1c-1-1.8-3.2-2.6-5.6-3c-0.9-0.6-1.8-1-2.9-1.2c-1.4-0.5-6.7-1.4-10.6,0
				c-15.1,5.3-17.7,28.2-3.2,34.6c7,4.8,22.3,4.3,28.5-7.1C516,177.3,517.4,174.5,517.4,171.5z M503,162.2c0,0.2,0,0.3,0.1,0.4
				c0.2,0.2,0.5,0.4,0.7,0.6c-0.1,2.1,0.6,1,3,4.1c0.3,0.9,0.6,1.8,0.9,2.7c0.2,2.6-2.4,8.7-11.4,11.2c-1.7,0.4-2.6,0.5-4.7-0.2
				c-3.8-2.8-5.8-6.6-5.7-11.2c0.2-1.5,0.9-3.9,1.8-5.1C493,159.2,495.8,160.6,503,162.2z"/>
			<path class="st2" d="M561.8,155.8c0-0.2-0.1-0.3-0.3-0.4c0.4-1.3-0.7-1.4-1.9-1c-0.4-0.3-0.7-0.3-1.2,0c-0.8-0.3-1.1,0.1-1.4,0.8
				c-0.1,0-0.3,0.1-0.4,0.2c-0.3,0-0.6,0-0.6,0.1c-3.2,8.8-6.4,16.3-11.7,24c-3.9-8.3-4.3-13-8.9-22.7c-0.3-0.6-2.5-0.8-4.2-0.7
				c-0.4-0.9-0.5-1.4-1.6-0.9c-0.4-0.3-1-0.3-0.8,0.4c-0.7-0.7-0.6-0.8-0.4,0c-0.1,0-0.2,0.2-0.3,0.5c-0.6-0.7-0.5-0.8-0.2,0.2
				c-0.1,0.1-0.1,0.2-0.2,0.3c-0.3,0.2-0.4,0.5-0.4,0.9c0,0,0,0,0,0c-0.8,0.3-0.8,0.2-0.4,1.4c-0.3,0-0.6,0.1-0.6,0
				c2.5,8,5,16.2,8.5,23.8c0.8,1.6,1.2,3.5,2.3,4.4c0.9,1.7,1.3,2.2,2.6,2.1c0,0,0,0,0,0c0.8,1.3,1.7,2.2,3.1,1.9
				c1.3,1,2.5,1,5.2-1.5c7.1-6.6,13.6-21.6,17-30.7c0.1-0.3,0-0.6-0.3-0.8C565.6,156.3,566.3,155.5,561.8,155.8z"/>
		</g>
		<g>
			<path class="st2" d="M620.3,283.6c0.3-0.1,0.5-0.2,0.8-0.3c1.1-0.5,1.5-2-3-1.6c-0.2,0-0.4,0-0.6,0c0-0.1-0.1-0.2-0.1-0.2
				c0.1-0.2,0.1-0.5,0-0.8c-0.3-0.7-1-0.6-1.6-0.3c-0.4-0.3-0.7-0.3-1.1-0.1c-0.3-0.2-0.6-0.2-0.8-0.1c-2.5,1.2-6.5,2-9,1.4
				c-1.7-1.1-3.7-3.1-4.2-5.4c-2.2-3.9-1.8-9.6,0.5-12.3c1.1-1,2.5-2.1,5.4-3.1c9.6-2.7,12.5,0.1,11.5-2.5c0.2,0,0.5,0,0.7,0
				c1.3,0.1,0.3-1.5-0.6-2.3c0.6,0,1.2,0,1.8,0c1.1,0,1.2-0.9,0.5-1.5c-0.2-0.1-0.5-0.2-0.8-0.4c0.7-0.1,1.3-0.3,1.4-0.9
				c0.1-1.3-2.9-1.2-4.6-1.2c0.1-0.7-0.4-1.1-1-1.1c-0.2,0-0.4,0-0.6,0c-0.3-0.2-1.3-0.2-1.7-0.2c-29.9-1.3-29.7,33.9-10.2,38.5
				c5.5,1.3,10.5,1.4,16.7-1.4c1-0.4,0.3-1.2-0.2-1.7c0.7-0.2,1.3-0.5,1.9-0.8C622.2,284.7,621.2,283.9,620.3,283.6z"/>
			<path class="st2" d="M564.8,259.7c4.1-0.5,17.3-3.1,17.3-3.1s1.2-4.1,0.7-4.5c-0.8-0.5-2.1-0.5-3.2-0.5c0-0.5-0.4-1-0.9-1
				c-0.2,0-0.3,0-0.5,0c-0.3-0.3-0.6-0.2-1.1-0.2c-0.2-0.1-16.5,1.3-16.8,1.3c0.1,0,0.2,0.2,0.3,0.4c-0.3,0-0.5,0-0.8,0.1
				c-0.3-0.4-0.8-0.5-1.1-0.2c-0.2-0.3-0.6-0.4-0.6,0c0,0.2,0,0.4,0,0.6c0,0,0,0,0,0c-0.1-0.4-0.5-0.5-0.6,0.2c0,0,0,0,0,0
				c0,0,0,0,0,0c-0.1-0.3-0.3-0.5-0.3-0.8c0,0.3,0,0.7-0.1,1c-0.2,0.2-0.4,0.6-0.4,0.9c0,0-0.1,0.1-0.1,0.1
				c-0.8,0.1-0.7,0.2-0.8,0.7c-0.2,0-0.4,0-0.4-0.1c-0.7,10-1.4,20-2.4,30c0,0.1,0.1,0.1,0.1,0.2c-0.1,0.9-0.2,1.1,0.7,1.3
				c0,0.2,0,0.2,0,0.3c-0.1,0.1,0,0.1,0,0.2c0.1,0.4,0.3,0.7,0.6,0.9c0,1,0.5,0.8,1.4,0.8c0.4,0.8,0.8,1.6,1.7,1.6
				c0.2,0.1,0.5,0.1,0.6,0c0.4,0.4,0.8,0.6,1.1,0.6c6.7-0.2,19.4-1.3,19.4-1.3s0.3-1,0.2-1.5c0.2,0,0.4-0.1,0.6-0.1
				c1.3-0.2,1.8-3.7,1.1-4.1c-0.7-0.3-9.9-1-17.5-1c0.4-2.5,0.7-5.1,0.9-7.6c2.8-0.2,6.1-0.5,7.2-0.6c0.6,0,0.8-0.3,0.8-0.6
				c0.2,0,0.4,0,0.6,0c0.7-0.1,0.6-1,0.6-1s0.4,0,0.6-0.1c1.3-0.1,2-4.3,1.4-4.6c-0.6-0.3-6.6-0.8-10.9-1.1
				C564.4,265,564.4,265.4,564.8,259.7z M560.3,252.9C560.2,252.9,560.2,252.9,560.3,252.9c-0.1-0.1-0.1-0.2-0.1-0.3
				C560.2,252.7,560.2,252.8,560.3,252.9z"/>
			<path class="st2" d="M500.5,260.7c-0.6-0.5-1.7-0.6-2.8-0.5c-0.2-0.2-0.4-0.4-0.6-0.6c-0.1-0.5-1.3-1-1.7-1.3
				c0.4-0.2,0.8-0.6,0.4-1.1c-1-1.8-3.2-2.6-5.6-3c-1.7-1.1-4.1-1.7-6.1-1.8c-19.6-2.8-28.4,27.3-10.6,35.1c0.2,0.1,0.4,0.3,0.5,0.4
				c3.8,2.4,9.6,2.9,13.7,2.2c4.4-0.7,8.7-2.5,11.5-5.9c1.1-1.1,2-2.4,2.8-3.8c1.7-2.2,3-4.7,3.3-7.3
				C505.6,269.3,506.6,266,500.5,260.7z M490.8,263c0,0.2,0,0.3,0.1,0.4c0.2,0.2,0.5,0.4,0.7,0.6c-0.1,2.1,0.6,1,3,4.1
				c1,3.1,1.1,2.6,0.7,4.3c-0.9,2.4-2.4,4.6-4.6,6.5c-2,1.4-4.3,2.4-6.7,3.1c-1.7,0.4-2.6,0.5-4.7-0.2c-8.2-6-7.4-17.4,2.2-20.2
				C484.7,261.4,487.6,262.3,490.8,263z"/>
			<path class="st2" d="M411.5,258.9c-2-3.4-5.2-5.2-9-6.1c-3.9-2.2-10.1-2.9-15.2-1c-0.7-0.3-3.2-0.4-3.8-0.4
				c-0.1-0.8-0.6-1.1-1.3-1c-0.4-0.4-1-0.2-1.1,0.2c-0.6-0.5-0.5-0.3-0.4,0.4c-0.1,0-0.2,0.1-0.3,0.2c-0.5-0.4-0.4-0.4-0.3,0.5
				c-0.3,0.1-0.4,0.3-0.5,0.7c-0.4-0.1-0.7-0.1-0.7-0.2c0,0.4,0.1,0.8,0.1,1.3c-0.2,0-0.4,0-0.4,0c0,0.3,0,0.6,0.1,0.9c0,0,0,0,0,0
				c1.5,22.3,1.4,35.6,1.4,35.6c0,1-0.2,1.3,0.8,1.5c0,1,0.3,1.5,1.2,1.3c0.1,0,0.1,0.1,0.3,0.1c0.6,1,1.6,2.1,2.4,1.3
				c0.8,0.7,2,1.2,2,0.1c0-0.1,0-0.2,0-0.3c1.7,0.7,1.4-0.4,1.4-2.1c1.8,0.2,1.4-0.4,1.4-2.4c0.1-0.1,0.2-0.3,0.2-0.5
				c0.1-2.1,0.1-4.2,0.1-6.3c4.2-0.4,8.6-0.7,12.2-2.6c3.5-1.5,6.6-4.7,7.9-7.3c1.8-2,2.7-4.1,2.8-6.3
				C414,262.8,412.7,261,411.5,258.9z M401.5,268.4c-2.5,3-8,4.1-11.8,4.4c-0.1-3.1-0.1-5.8-0.6-11c2.5-1,1.5-0.8,7-1.6
				c2.8,0.3,4.1,1,5.1,1.2c0.4,0.4,0.8,0.8,1.2,1.3C402.1,264.6,401.8,266.5,401.5,268.4z"/>
			<path class="st2" d="M455.8,287.9c-0.5-6.7-3.1-12.9-9-16.2c1.2-1.1,2.3-2.3,3-3.8c2.3-2.7,3.3-6.1,1.6-9.3
				c-0.4-3.6-3.5-5.6-7.2-6.4c-2.1-1.4-5.2-1.9-7.3-1.9c-3-0.3-5.9,0.7-8.6,1.9c-0.2-0.6-0.7-0.6-1.3-0.5c-0.3-0.4-0.9-0.2-1.2,0.1
				c-0.6-0.5-0.5-0.2-0.5,0.5c-0.1,0-0.1,0-0.2,0.1c-0.5-0.6-0.4-0.2-0.4,0.6c0,0,0,0,0,0c-0.3,0.1-0.5,0.4-0.6,0.9
				c-0.7,0.2-0.5,0.2-0.5,0.9c-0.2,0-0.4,0-0.4,0.1c0,0.4,1.3,33.1,1.5,33.5c0.1,1.1-0.1,1.2,0.8,1.3c0,0.2,0,0.3,0,0.5
				c0,0.7,0.7,0.9,1.2,0.8c0.1,0,0.1,0,0.2,0c0.6,0.9,1.4,1.8,2.2,1.1c0.9,0.7,2.1,1.1,2.1-0.1c2.1,0.9,1.7-0.4,1.6-2.1
				c1.8,0,1.5-0.3,1.4-2.2c0.2-0.2,0.3-0.3,0.3-0.6c-0.2-3.4-0.3-6.8-0.4-10.1c0.3,0.1,0.6,0,0.9-0.1c0.2,0,0.3,0,0.5,0.1
				c0.6,0.3,0.8,0.3,1.2,0.2c1.8,0.2,3.6,0.9,5.2,1.9c0.8,1,3.4,3.2,4,10.8c0,0.3,0.3,0.5,0.7,0.6c0.1,1,0.2,1.7,1.4,1.4
				c0.1,0.1,0.2,0.1,0.3,0.1c0.4,0.7,0.9,1.4,1.3,1.6c0.4,0.2,1,0.2,1.2-0.2c0.4,0.3,2.1,1.6,2.1,0.3c0-0.2,0-0.4,0-0.6
				c1.5,0.6,1.3-0.5,1-2.3c2,0.4,1.7-0.2,1.5-2C455.6,288.4,455.8,288.2,455.8,287.9z M438,259.3c1.3,0,3,0.1,4.3,0.5
				c0.3,0.4,0.2,1.3,0.2,1.8c-1,2.4-2.7,4-8.1,6.4c0,0-0.6,0-0.6,0c-0.1-2.7-0.2-5.4-0.3-8.1C435.9,259.8,436.6,259.5,438,259.3z"/>
			<path class="st2" d="M545.5,253.5c-0.8-0.1-1.6-0.2-2.4-0.2c-0.1-0.1-0.1-0.2-0.2-0.2c0.1-1.2-0.6-1-1.7-1
				c-0.1-0.1-0.2-0.1-0.3-0.1c-0.3,0-0.6,0-0.9,0c-0.5-0.2-28.5,0-29.1,0c-0.2,0-0.2,0.3,0,0.6c-0.6,0-0.8-0.1-0.7,0.3
				c-0.2,0-0.5,0-0.7,0c0.2,0,0.5,0.2,0.7,0.5c0,0,0,0,0,0c-0.3,0.1-0.5,0.5-0.6,0.9c-0.6,0.2-1.1,0.1,0,0.1c0,0.1,0,0.1,0,0.2
				c-0.4,0.1-0.7,0.5-0.3,0.5c0,0,0.1,0,0.1,0c0,0,0,0,0,0.1c-0.2,0-0.4,0-0.5,0c-0.3,0-0.3,0.2,0,0.3c0.1,0.1,0.3,0.1,0.4,0.1
				c0,0.1,0,0.3,0.1,0.4c-0.4,0-0.7,0-0.6,0.4c0.1,0.2,0.4,0.2,0.8,0.3c-0.3,0.7,0.1,1.6,0.6,1.6c0.3,0,0.8,0.1,1,0.1
				c0.5,1,1.2,2.3,2,2.4c3.1,0.3,6.2,0.5,9.2,0.6c-0.4,8.2-1,16.4-1.7,24.6c0,0.1,0,0.2,0.1,0.3c-0.1,0.9-0.2,1.3,0.7,1.5
				c0,1.5,0.7,2,1.4,1.8c0.2,0.2,0.4,0.3,0.7,0.3c0.3,0.4,0.5,0.8,0.8,1.2c0.4,1,1.6,1.8,2.1,0.8c0-0.2,0-0.4,0-0.6
				c1.3,0.8,1.3,0,1.3-1c1.2,0.4,1-0.6,1.1-2.3c1.6,0.3,1.4-0.3,1.5-2.3c0.6-0.7,1.8-22.3,1.8-24c10.2,0.1,10.5,0.2,10.5-0.8
				c1,0,1.7,0,1.2-1.2c0.2,0,0.5,0,0.7,0c1.3,0,0.3-1.4-0.6-2.3c0.6,0,1.2,0,1.7,0c1.1,0,1.3-0.9,0.5-1.5c-0.3-0.2-0.6-0.3-0.8-0.4
				C548.7,255.3,547.3,253.5,545.5,253.5z"/>
			<path class="st2" d="M663.6,253.5c-0.8-0.1-1.6-0.2-2.4-0.2c-0.1-0.1-0.1-0.2-0.2-0.2c0.1-1.2-0.6-1-1.7-1
				c-0.1-0.1-0.2-0.1-0.3-0.1c-0.3,0-0.6,0-0.9,0c-0.5-0.2-28.5,0-29.1,0c-0.2,0-0.2,0.3,0,0.6c-0.6,0-0.8-0.1-0.7,0.3
				c-0.2,0-0.5,0-0.7,0c0.2,0,0.5,0.2,0.7,0.5c0,0,0,0,0,0c-0.3,0.1-0.5,0.5-0.6,0.9c-0.6,0.2-1.1,0.1,0,0.1c0,0.1,0,0.1,0,0.2
				c-0.4,0.1-0.7,0.5-0.3,0.5c0,0,0.1,0,0.1,0c0,0,0,0,0,0.1c-0.2,0-0.4,0-0.5,0c-0.3,0-0.3,0.2,0,0.3c0.1,0.1,0.3,0.1,0.4,0.1
				c0,0.1,0,0.3,0.1,0.4c-0.4,0-0.7,0-0.6,0.4c0.1,0.2,0.4,0.2,0.8,0.3c-0.3,0.7,0.1,1.6,0.6,1.6c0.3,0,0.8,0.1,1,0.1
				c0.5,1,1.2,2.3,2,2.4c3.1,0.3,6.2,0.5,9.2,0.6c-0.4,8.2-1,16.4-1.7,24.6c0,0.1,0,0.2,0.1,0.3c-0.1,0.9-0.2,1.3,0.7,1.5
				c0,1.5,0.7,2,1.4,1.8c0.2,0.2,0.4,0.3,0.7,0.3c0.3,0.4,0.5,0.8,0.8,1.2c0.4,1,1.6,1.8,2.1,0.8c0-0.2,0-0.4,0-0.6
				c1.3,0.8,1.3,0,1.3-1c1.2,0.4,1-0.6,1.1-2.3c1.6,0.3,1.4-0.3,1.5-2.3c0.6-0.7,1.8-22.3,1.8-24c10.2,0.1,10.5,0.2,10.5-0.8
				c1,0,1.7,0,1.2-1.2c0.2,0,0.5,0,0.7,0c1.3,0,0.3-1.4-0.6-2.3c0.6,0,1.2,0,1.7,0c1.1,0,1.3-0.9,0.5-1.5c-0.3-0.2-0.6-0.3-0.8-0.4
				C666.7,255.3,665.3,253.5,663.6,253.5z"/>
		</g>
		<g>
			<path class="st2" d="M453.3,359.8c4.1-0.5,17.3-3.1,17.3-3.1s1.2-4.1,0.7-4.5c-0.8-0.5-2.1-0.5-3.2-0.5c0-0.5-0.4-1-0.9-1
				c-0.2,0-0.3,0-0.5,0c-0.3-0.3-0.6-0.2-1.1-0.2c-0.2-0.1-16.5,1.3-16.8,1.3c0.1,0,0.2,0.2,0.3,0.4c-0.3,0-0.5,0-0.8,0.1
				c-0.3-0.4-0.8-0.5-1.1-0.2c-0.2-0.3-0.6-0.4-0.6,0c0,0.2,0,0.4,0,0.6c0,0,0,0,0,0c-0.1-0.4-0.5-0.5-0.6,0.2c0,0,0,0,0,0
				c0,0,0,0,0,0c-0.1-0.3-0.3-0.5-0.3-0.8c0,0.3,0,0.7-0.1,1c-0.2,0.2-0.4,0.6-0.4,0.9c0,0-0.1,0.1-0.1,0.1
				c-0.8,0.1-0.7,0.2-0.8,0.7c-0.2,0-0.4,0-0.4-0.1c-0.7,10-1.4,20-2.4,30c0,0.1,0.1,0.1,0.1,0.2c-0.1,0.9-0.2,1.1,0.7,1.3
				c0,0.2,0,0.2,0,0.3c-0.1,0.1,0,0.1,0,0.2c0.1,0.4,0.3,0.7,0.6,0.9c0,1,0.5,0.8,1.4,0.8c0.4,0.8,0.8,1.6,1.7,1.6
				c0.2,0.1,0.5,0.1,0.6,0c0.4,0.4,0.8,0.6,1.1,0.6c6.7-0.2,19.4-1.3,19.4-1.3s0.3-1,0.2-1.5c0.2,0,0.4-0.1,0.6-0.1
				c1.3-0.2,1.8-3.7,1.1-4.1c-0.7-0.3-9.9-1-17.5-1c0.4-2.5,0.7-5.1,0.9-7.6c2.8-0.2,6.1-0.5,7.2-0.6c0.6,0,0.8-0.3,0.8-0.6
				c0.2,0,0.4,0,0.6,0c0.7-0.1,0.6-1,0.6-1s0.4,0,0.6-0.1c1.3-0.1,2-4.3,1.4-4.6c-0.6-0.3-6.6-0.8-10.9-1.1
				C452.9,365.1,452.9,365.6,453.3,359.8z M448.7,353.1C448.7,353.1,448.7,353.1,448.7,353.1c-0.1-0.1-0.1-0.2-0.1-0.3
				C448.6,352.9,448.7,353,448.7,353.1z"/>
			<path class="st2" d="M534.5,359.8c4.1-0.5,17.3-3.1,17.3-3.1s1.2-4.1,0.7-4.5c-0.8-0.5-2.1-0.5-3.2-0.5c0-0.5-0.4-1-0.9-1
				c-0.2,0-0.3,0-0.5,0c-0.3-0.3-0.6-0.2-1.1-0.2c-0.2-0.1-16.5,1.3-16.8,1.3c0.1,0,0.2,0.2,0.3,0.4c-0.3,0-0.5,0-0.8,0.1
				c-0.3-0.4-0.8-0.5-1.1-0.2c-0.2-0.3-0.6-0.4-0.6,0c0,0.2,0,0.4,0,0.6c0,0,0,0,0,0c-0.1-0.4-0.5-0.5-0.6,0.2c0,0,0,0,0,0
				c0,0,0,0,0,0c-0.1-0.3-0.3-0.5-0.3-0.8c0,0.3,0,0.7-0.1,1c-0.2,0.2-0.4,0.6-0.4,0.9c0,0-0.1,0.1-0.1,0.1
				c-0.8,0.1-0.7,0.2-0.8,0.7c-0.2,0-0.4,0-0.4-0.1c-0.7,10-1.4,20-2.4,30c0,0.1,0.1,0.1,0.1,0.2c-0.1,0.9-0.2,1.1,0.7,1.3
				c0,0.2,0,0.2,0,0.3c-0.1,0.1,0,0.1,0,0.2c0.1,0.4,0.3,0.7,0.6,0.9c0,1,0.5,0.8,1.4,0.8c0.4,0.8,0.8,1.6,1.7,1.6
				c0.2,0.1,0.5,0.1,0.6,0c0.4,0.4,0.8,0.6,1.1,0.6c6.7-0.2,19.4-1.3,19.4-1.3s0.3-1,0.2-1.5c0.2,0,0.4-0.1,0.6-0.1
				c1.3-0.2,1.8-3.7,1.1-4.1c-0.7-0.3-9.9-1-17.5-1c0.4-2.5,0.7-5.1,0.9-7.6c2.8-0.2,6.1-0.5,7.2-0.6c0.6,0,0.8-0.3,0.8-0.6
				c0.2,0,0.4,0,0.6,0c0.7-0.1,0.6-1,0.6-1s0.4,0,0.6-0.1c1.3-0.1,2-4.3,1.4-4.6c-0.6-0.3-6.6-0.8-10.9-1.1
				C534.2,365.1,534.2,365.6,534.5,359.8z M530,353.1C530,353.1,529.9,353.1,530,353.1c-0.1-0.1-0.1-0.2-0.1-0.3
				C529.9,352.9,529.9,353,530,353.1z"/>
			<path class="st2" d="M419.7,353.8c-1.2-0.6-2.4-1.1-3.6-1.5c-3.6-1.2-6.6-1.1-8.8-1.1c-2.3-0.1-4.6,0-7,0.2
				c-0.4,0-0.5,0.2-0.5,0.4c-0.1,0.1-0.1,0.2-0.1,0.3c-0.4,0-0.7,0-0.5,0.3c-0.1,0-0.1,0-0.1,0c-0.8,0.1-0.6,0,0,0.2
				c0,0.2,0,0.4,0,0.6c-0.1,0.1-0.1,0.2-0.2,0.3c-1.1,0.1-0.9,0,0,0.1c0,0.1-0.1,0.3-0.1,0.4c-0.1,0.1-0.2,0.2-0.3,0.4
				c-0.2,0-0.3,0.1-0.3,0.3c-0.3,0-0.2,0,0,0.1c0,0,0,0.1,0,0.1c-0.2,0-0.4,0-0.4,0c-0.1,6-0.2,26.9,0,27.9c0,1.2-0.2,1.4,0.8,1.6
				c0,0.9,0.2,1.5,1.2,1.3c0.1,0,0.2,0,0.2,0c0.6,0.9,1.3,1.8,2.1,1.1c0.8,0.6,1.8,0.8,1.8-0.2c2.1,1,1.7-0.4,1.8-1.9
				c0.9,0,1.6-0.1,1.6-0.5c0-0.6,0-1.2,0-1.8c0.1-0.1,0.2-0.3,0.2-0.5c-0.2-17.7,0.2-16.4-0.2-22.4c3.6,0,7.2,0.6,10.4,2.3
				c1.7,1.4,2.7,2.5,3,5c0.5,1.2,0.7,2.3,0.2,4.9c-3,9.2-11.5,12.5-12.1,13.5c-1.4,0.9-1.9,1-0.7,1.3c0,0.1,0.1,0.2,0.1,0.2
				c0,0,0,0,0,0c-0.9,0.5-1.4,0.8-0.4,0.6c0,0,0,0,0,0c-0.1,0.1-0.1,0.1,0,0.1c0,0.1-0.1,0.2-0.1,0.2c-0.2,0.1-0.4,0.2-0.6,0.3
				c0,0,0.3,0.3,0.7,0.6c0,0,0,0.1,0,0.1c-0.2,0.1-0.4,0.3-0.6,0.4c-0.2,0.1,0.7,0.5,1.3,0.6c0,0,0,0,0,0c-0.1,0.1-0.2,0.1-0.3,0.2
				c-0.3,0.2-0.1,0.8,0.2,1c0.2,0.1,0.7,0.1,1-0.1c0.4,0.8,1.2,1.4,1.9,1c0.9,0.6,1,0.4,1.8-0.1c0.4,0.2,0.8,0.2,1,0.1
				c4.7-2.8,9.3-5.9,12.4-10.3C434.3,372.3,433.7,357.8,419.7,353.8z"/>
			<path class="st2" d="M634.3,353.8c-1.2-0.6-2.4-1.1-3.6-1.5c-3.6-1.2-6.6-1.1-8.8-1.1c-2.3-0.1-4.6,0-7,0.2
				c-0.4,0-0.5,0.2-0.5,0.4c-0.1,0.1-0.1,0.2-0.1,0.3c-0.4,0-0.7,0-0.5,0.3c-0.1,0-0.1,0-0.1,0c-0.8,0.1-0.6,0,0,0.2
				c0,0.2,0,0.4,0,0.6c-0.1,0.1-0.1,0.2-0.2,0.3c-1.1,0.1-0.9,0,0,0.1c0,0.1-0.1,0.3-0.1,0.4c-0.1,0.1-0.2,0.2-0.3,0.4
				c-0.2,0-0.3,0.1-0.3,0.3c-0.3,0-0.2,0,0,0.1c0,0,0,0.1,0,0.1c-0.2,0-0.4,0-0.4,0c-0.1,5.9-0.2,26.6,0,27.6c0,1.2-0.2,1.4,0.8,1.6
				c0,0.9,0.2,1.5,1.2,1.3c0.1,0,0.2,0,0.2,0c0.6,0.9,1.3,1.8,2.1,1.1c0.8,0.6,1.8,0.8,1.8-0.2c2.1,0.9,1.7-0.4,1.8-1.9
				c0.9,0,1.6-0.1,1.6-0.5c0-0.6,0-1.2,0-1.8c0.1-0.1,0.2-0.3,0.2-0.5c-0.2-17.5,0.2-16.2-0.2-22.2c3.6,0,7.2,0.6,10.4,2.3
				c1.7,1.4,2.7,2.5,3,5c0.5,1.2,0.7,2.3,0.2,4.9c-3,9.1-11.5,12.4-12.1,13.4c-1.4,0.9-1.9,1-0.7,1.2c0,0.1,0.1,0.2,0.1,0.2
				c0,0,0,0,0,0c-0.9,0.5-1.4,0.8-0.4,0.6c0,0,0,0,0,0c-0.1,0.1-0.1,0.1,0,0.1c0,0.1-0.1,0.2-0.1,0.2c-0.2,0.1-0.4,0.2-0.6,0.3
				c0,0,0.3,0.3,0.7,0.6c0,0,0,0.1,0,0.1c-0.2,0.1-0.4,0.3-0.6,0.4c-0.2,0.1,0.7,0.5,1.3,0.6c0,0,0,0,0,0c-0.1,0.1-0.2,0.1-0.3,0.2
				c-0.3,0.2-0.1,0.8,0.2,1c0.2,0.1,0.7,0.1,1-0.1c0.4,0.8,1.2,1.4,1.9,1c0.9,0.6,1,0.4,1.8-0.1c0.4,0.2,0.8,0.2,1,0.1
				c4.7-2.7,9.3-5.8,12.4-10.2C648.9,372.1,648.3,357.7,634.3,353.8z"/>
			<path class="st2" d="M514.5,353.4c-0.7-0.6-2.2-0.8-3.4-0.9c0,0,0,0,0,0c-0.1-0.9-0.5-1-1.4-1c-0.3-0.3-0.6-0.2-1.1-0.2
				c-0.2-0.2-13.5,0.4-13.8,0.4c-0.2-0.2-0.5-0.3-0.8-0.5c0-0.9,0.3-1.8-3.1-1.9c-0.1-0.7-0.8-1-1.2-0.9c-0.2-0.3-0.7-0.3-0.8,0.1
				c0,0.1,0,0.3-0.1,0.4c-0.3-0.3-0.6-0.6-0.6-0.7c0,0.4-0.1,0.7-0.1,1.1c-0.5-0.7-0.3-0.8-0.5,0.4c-0.2,0.2-0.3,0.4-0.3,0.6
				c-0.4-0.2-0.9-0.4-0.9-0.5c-0.1,0.5-0.1,0.9-0.2,1.4c-0.1,0-0.2,0-0.3,0.1c-2.3,19.8-2.7,19.2-3.3,36.2c-0.1,0-0.2,0.1-0.2,0.1
				c-0.3,0-0.2,0.1,0,0.2c0.1,0,0.1,0.1,0.2,0.1c0,0.3,0,0.7,0,1c-0.1,0-0.1,0.1-0.1,0.1c-0.2,0.2-0.3,0.3-0.5,0.3
				c0.2,0,0.3-0.1,0.5-0.1c0,0,0,0,0,0c-0.2,0.2-0.5,0.3-0.8,0.3c-0.4,0,0.4,0.5,0.8,0.7c-0.6,0.3-1.2,0.1-0.7,0.7
				c0.1,0.2,0.5,0.2,0.8,0.3c-0.4,0.7,0.1,1.5,1.4,1.3c0.1,0,0,0,0.1,0c0.8,1.7,1.5,1.7,2.2,1.4c0.8,0.7,1.7,0.6,2.5-0.1
				c0.2,0.1,0.4,0.1,0.6,0.1c0.8-0.3,0.9-0.5,1.2-1.1c0-0.4,0-0.8,0-1.2c1.6-0.3,2.9-2.2,1.7-5.2c0-2.6-0.1-4.3,0.4-9.2
				c4.2,0,8.2-1.7,12.2-2.9c0.5-0.1,0.7-0.4,0.8-0.8c0.1,0,0.3,0,0.4-0.1c1.1-0.2,1.3-4.4,1.3-4.7c0-1.3-12.3-1.2-13.7-1.2
				c0.2-2.2,0.5-4.5,0.7-6.7c15.5-1.2,17.1-1,17.2-2c0.2,0,0.5,0,0.7,0C513.5,358.8,514.9,353.8,514.5,353.4z"/>
			<path class="st2" d="M600.4,386c-0.1-10.4-0.1-20.8-0.1-31.3c0-1.3-2.9-1-3.9-1c-0.1-0.2-0.2-0.3-0.3-0.4c-0.1-1-0.8-1.1-1.8-0.9
				c-0.3-0.3-0.6-0.3-1.1-0.1c-0.4-0.3-0.9-0.3-0.9,0.3c0,0.1,0,0.3,0,0.4c-0.1,0-0.1,0-0.2,0c-0.5-0.4-0.5-0.1-0.5,0.3
				c-0.3-0.1-0.6-0.2-0.6-0.2c0,0.2,0,0.5,0,0.7c-0.1,0.1-0.1,0.2-0.1,0.3c-0.1-0.1-0.2-0.1-0.2-0.2c0,1.4,0,0.3,0,1.5
				c-0.2,0-0.4,0.1-0.4,0.2c0,7.1,0,14.1,0.1,21.2c-5.5-6.6-8.9-11.1-12.5-18.9c-0.8-0.6-1.3-0.5-2.3-0.6c0.1-3.4,0.9-3.5-4.8-3.8
				c-0.1-0.7-0.5-1.1-1.3-1c-0.3-0.4-1-0.2-1.2,0.1c-0.5-0.5-0.4-0.3-0.4,0.4c-0.1,0-0.1,0-0.2,0.1c-0.4-0.6-0.3-0.2-0.4,0.5
				c0,0-0.1,0.1-0.1,0.1c-0.4,0.1-0.6,0.5-0.6,0.9c0,0,0,0.1-0.1,0.1c-0.4,0.2-0.4,0.2-0.4,0.9c-0.2,0-0.4,0.1-0.4,0.1
				c-0.2,3.8-0.9,31.3-0.1,31.8c0,0.9-0.1,1.2,0.7,1.3c0,1.2,0.6,1.6,1.3,1.5c0.2,0.2,0.4,0.3,0.6,0.3c0.6,0.9,0.7,1.2,1.6,2
				c0.7,0.4,1.2,0.1,1.3-0.5c1.7,1.1,1.6,0.2,1.6-0.8c1.3,0.3,1-0.6,1-2.3c1.8,0.2,1.5-0.3,1.4-2.2c0.2-0.1,0.3-0.3,0.3-0.6
				c-0.1-4.5-0.2-8.9-0.2-13.4c4,5.6,8.7,10.8,13.1,16c0.2,0.2,0.5,0.1,0.9,0c0.1,0.1,0.2,0.1,0.3,0.2c0.9,1,2,2.6,2.7,1.5
				c0.5,0.5,1.4,1,1.9,0.6c0.2,0,0.5-0.1,0.7-0.2c0.9,0.7,2,1.1,2.1,0c2.1,1,1.8-0.2,1.8-1.9c1.7,0.1,1.4-0.5,1.4-2.4
				C600.4,386.4,600.4,386.2,600.4,386z"/>
		</g>
		<g>
			<path class="st2" d="M371.6,450.4c-2.7-2-10.4-3.4-17.3,2.8c-9,6.2-6.6,18.8-6.8,17.2c0.6,6.7,1.3,13.4,2.1,20.1
				c0,0.1,0.3,0.1,0.6,0.1c0.1,1.2,0,1.5,1,1.4c0.1,0.1,0.3,0.1,0.4,0.1c0.4,0.9,0.9,1.3,1.7,0.8c0.7,0.3,1.3,0.4,1.6-0.3
				c1.3,0.3,1.2-0.4,1.2-1.4c1.6,0.2,3,0.1,3-0.4c-0.7-6.4-0.6-6-0.9-10c4.4-0.1,8.8-0.4,13.2-0.8c0.3,9.8,0,9.2,1.1,9.6
				c0,0.1,0,0.2,0,0.3c0,0.9,0.8,1.1,1.4,0.9c0.2,0.1,0.1,0,0.2,0.1c0.8,1.7,1.7,1.7,2.2,1.2c0.7,0.5,1.6,0.7,1.7-0.1
				c0-0.1,0-0.2,0-0.3c1.6,0.6,1.4-0.4,1.4-1.9c1.1,0.1,2,0,2-0.4C380.7,459,381.3,451.9,371.6,450.4z M358.8,462.1
				c4.2-3.8,4.8-3.2,10.3-3.5c0.2,0,0.3,0.1,0.5,0.2c1.1,3.1,1.5,9.3,1.6,12.6c-4.5,0.8-9,1.6-13.5,2.3
				C357.4,468.7,356.8,463.9,358.8,462.1z"/>
			<path class="st2" d="M600.6,450.4c-2.7-2-10.4-3.4-17.3,2.8c-9,6.2-6.6,18.8-6.8,17.2c0.6,6.7,1.3,13.4,2.1,20.1
				c0,0.1,0.3,0.1,0.6,0.1c0.1,1.2,0,1.5,1,1.4c0.1,0.1,0.3,0.1,0.4,0.1c0.4,0.9,0.9,1.3,1.7,0.8c0.7,0.3,1.3,0.4,1.6-0.3
				c1.3,0.3,1.2-0.4,1.2-1.4c1.6,0.2,3,0.1,3-0.4c-0.7-6.4-0.6-6-0.9-10c4.4-0.1,8.8-0.4,13.2-0.8c0.3,9.8,0,9.2,1.1,9.6
				c0,0.1,0,0.2,0,0.3c0,0.9,0.8,1.1,1.4,0.9c0.2,0.1,0.1,0,0.2,0.1c0.8,1.7,1.7,1.7,2.2,1.2c0.7,0.5,1.6,0.7,1.7-0.1
				c0-0.1,0-0.2,0-0.3c1.6,0.6,1.4-0.4,1.4-1.9c1.1,0.1,2,0,2-0.4C609.7,459,610.3,451.9,600.6,450.4z M587.8,462.1
				c4.2-3.8,4.8-3.2,10.3-3.5c0.2,0,0.3,0.1,0.5,0.2c1.1,3.1,1.5,9.3,1.6,12.6c-4.5,0.8-9,1.6-13.5,2.3
				C586.4,468.7,585.8,463.9,587.8,462.1z"/>
			<path class="st2" d="M565.9,483.3c0.3-0.1,0.5-0.2,0.8-0.3c1-0.4,0.9-1.3-0.1-1.6c-1.6-0.2-2.5-0.1-3.5,0c0-0.1-0.1-0.2-0.1-0.2
				c0.1-0.2,0.1-0.5,0-0.8c-0.3-0.7-1-0.6-1.6-0.3c-0.4-0.3-0.7-0.3-1.1-0.1c-0.3-0.2-0.6-0.2-0.8-0.1c-2.4,1.1-5,1.6-7.6,1.6
				c-0.1,0-0.2,0-0.2,0c0,0-0.1,0-0.1,0c-0.4,0-0.7-0.1-1-0.2c-1.7-1.1-3.7-3.1-4.2-5.4c-1.7-3-2.1-7.1-0.2-11.4
				c0.5-0.7,1-1.3,2.1-2.1c1.2-0.8,2.6-1.4,4-1.9c9.8-2.8,12.6,0.1,11.5-2.5c0.2,0,0.5,0,0.7,0c1.6,0.1-0.4-2.1-0.5-2.2
				c0,0-0.1-0.1-0.2-0.2c0.6,0,1.2,0,1.8,0c1.1,0,1.2-0.9,0.5-1.5c-0.2-0.1-0.5-0.2-0.8-0.4c0.7-0.1,1.3-0.3,1.4-0.9
				c0.1-1.3-2.8-1.2-3.4-1.2c-0.4,0-0.8,0-1.2,0c0.1-0.7-0.4-1.1-1-1.1c-0.2,0-0.4,0-0.6,0c-0.1-0.1-0.2-0.1-0.4-0.2
				c-0.4,0-0.9,0-1.3,0c-6-0.3-12.6,0.6-17.1,4.9c-7.6,5.6-8.8,19.4-3.6,26c1.3,2.2,3.1,4,5.4,5.1c1.5,1.1,3.2,2,5,2.4
				c0.6,0.1,1.2,0.2,1.8,0.3c3.8,0.9,7.9,0.7,11.6-0.6c1.1-0.3,2.2-0.7,3.3-1.2c1-0.4,0.3-1.2-0.2-1.7c0.7-0.2,1.3-0.5,1.9-0.8
				C567.8,484.4,566.8,483.6,565.9,483.3z"/>
			<path class="st2" d="M678.5,459.4c4.1-0.5,17.3-3.1,17.3-3.1s1.2-4.1,0.7-4.5c-0.8-0.5-2.1-0.5-3.2-0.5c0-0.5-0.4-1-0.9-1
				c-0.2,0-0.3,0-0.5,0c-0.3-0.3-0.6-0.2-1.1-0.2c-0.2-0.1-16.5,1.3-16.8,1.3c0.1,0,0.2,0.2,0.3,0.4c-0.3,0-0.5,0-0.8,0.1
				c-0.3-0.4-0.8-0.5-1.1-0.2c-0.2-0.3-0.6-0.4-0.6,0c0,0.2,0,0.4,0,0.6c0,0,0,0,0,0c-0.1-0.4-0.5-0.5-0.6,0.2c0,0,0,0,0,0
				c0,0,0,0,0,0c-0.1-0.3-0.3-0.5-0.3-0.8c0,0.3,0,0.7-0.1,1c-0.2,0.2-0.4,0.6-0.4,0.9c0,0-0.1,0.1-0.1,0.1
				c-0.8,0.1-0.7,0.2-0.8,0.7c-0.2,0-0.4,0-0.4-0.1c-0.7,10-1.4,20-2.4,30c0,0.1,0.1,0.1,0.1,0.2c-0.1,0.9-0.2,1.1,0.7,1.3
				c0,0.2,0,0.2,0,0.3c-0.1,0.1,0,0.1,0,0.2c0.1,0.4,0.3,0.7,0.6,0.9c0,1,0.5,0.8,1.4,0.8c0.4,0.8,0.8,1.6,1.7,1.6
				c0.2,0.1,0.5,0.1,0.6,0c0.4,0.4,0.8,0.6,1.1,0.6c6.7-0.2,19.4-1.3,19.4-1.3s0.3-1,0.2-1.5c0.2,0,0.4-0.1,0.6-0.1
				c1.3-0.2,1.8-3.7,1.1-4.1c-0.7-0.3-9.9-1-17.5-1c0.4-2.5,0.7-5.1,0.9-7.6c2.8-0.2,6.1-0.5,7.2-0.6c0.6,0,0.8-0.3,0.8-0.6
				c0.2,0,0.4,0,0.6,0c0.7-0.1,0.6-1,0.6-1s0.4,0,0.6-0.1c1.3-0.1,2-4.3,1.4-4.6c-0.6-0.3-6.6-0.8-10.9-1.1
				C678.1,464.7,678.1,465.2,678.5,459.4z M674,452.6C673.9,452.6,673.9,452.6,674,452.6c-0.1-0.1-0.1-0.2-0.1-0.3
				C673.9,452.5,673.9,452.5,674,452.6z"/>
			<path class="st2" d="M416.5,453.4c-1.2-0.6-2.4-1.1-3.6-1.5c-3.6-1.2-6.6-1.1-8.8-1.1c-2.3-0.1-4.6,0-7,0.2
				c-0.4,0-0.5,0.2-0.5,0.4c-0.1,0.1-0.1,0.2-0.1,0.3c-0.4,0-0.7,0-0.5,0.3c-0.1,0-0.1,0-0.1,0c-0.8,0.1-0.6,0,0,0.2
				c0,0.2,0,0.4,0,0.6c-0.1,0.1-0.1,0.2-0.2,0.3c-1.1,0.1-0.9,0,0,0.1c0,0.1-0.1,0.3-0.1,0.4c-0.1,0.1-0.2,0.2-0.3,0.4
				c-0.2,0-0.3,0.1-0.3,0.3c-0.3,0-0.2,0,0,0.1c0,0,0,0.1,0,0.1c-0.2,0-0.4,0-0.4,0c-0.1,6-0.2,26.9,0,27.9c0,1.2-0.2,1.4,0.8,1.6
				c0,0.9,0.2,1.5,1.2,1.3c0.1,0,0.2,0,0.2,0c0.6,0.9,1.3,1.8,2.1,1.1c0.8,0.6,1.8,0.8,1.8-0.2c2.1,1,1.7-0.4,1.8-1.9
				c0.9,0,1.6-0.1,1.6-0.5c0-0.6,0-1.2,0-1.8c0.1-0.1,0.2-0.3,0.2-0.5c-0.2-17.7,0.2-16.4-0.2-22.4c3.6,0,7.2,0.6,10.4,2.3
				c1.7,1.4,2.7,2.5,3,5c0.5,1.2,0.7,2.3,0.2,4.9c-3,9.2-11.5,12.5-12.1,13.5c-1.4,0.9-1.9,1-0.7,1.3c0,0.1,0.1,0.2,0.1,0.2
				c0,0,0,0,0,0c-0.9,0.5-1.4,0.8-0.4,0.6c0,0,0,0,0,0c-0.1,0.1-0.1,0.1,0,0.1c0,0.1-0.1,0.2-0.1,0.2c-0.2,0.1-0.4,0.2-0.6,0.3
				c0,0,0.3,0.3,0.7,0.6c0,0,0,0.1,0,0.1c-0.2,0.1-0.4,0.3-0.6,0.4c-0.2,0.1,0.7,0.5,1.3,0.6c0,0,0,0,0,0c-0.1,0.1-0.2,0.1-0.3,0.2
				c-0.3,0.2-0.1,0.8,0.2,1c0.2,0.1,0.7,0.1,1-0.1c0.4,0.8,1.2,1.4,1.9,1c0.9,0.6,1,0.4,1.8-0.1c0.4,0.2,0.8,0.2,1,0.1
				c4.7-2.8,9.3-5.9,12.4-10.3C431,471.9,430.5,457.3,416.5,453.4z"/>
			<path class="st2" d="M519.2,460.4c-0.6-0.5-1.7-0.6-2.8-0.5c-0.2-0.2-0.4-0.4-0.6-0.6c-0.1-0.5-1.3-1-1.7-1.3
				c0.4-0.2,0.8-0.6,0.4-1.1c-1-1.8-3.2-2.6-5.6-3c-1.7-1.1-4.1-1.7-6.1-1.8c-0.7-0.1-2-0.2-2.7-0.2c-4.2-0.1-8.1,1.9-11.2,4.8
				c-6.8,6.3-9.7,19.7-0.6,28c1.8,1.7,3.1,2,4.5,2.9c6.9,4.3,21.8,3.8,27.9-7.5c1.7-2.2,3-4.7,3.3-7.3
				C524.5,467.5,524.6,465,519.2,460.4z M509.6,462.7c0,0.2,0,0.3,0.1,0.4c0.2,0.2,0.5,0.4,0.7,0.6c-0.1,2.1,0.6,1,3,4.1
				c0.1,0.3,0.9,2.6,0.9,2.9c-0.3,6.4-9.8,12.9-16.2,10.8c-7.1-5.2-6.3-13-3.9-16.3C499.6,459.7,502.1,461.1,509.6,462.7z"/>
			<path class="st2" d="M654.4,453.2c-0.8-0.1-1.6-0.2-2.4-0.2c-0.1-0.1-0.1-0.2-0.2-0.2c0.1-1.2-0.6-1-1.7-1
				c-0.1-0.1-0.2-0.1-0.3-0.1c-0.3,0-0.6,0-0.9,0c-0.5-0.2-28.5,0-29.1,0c-0.2,0-0.2,0.3,0,0.6c-0.6,0-0.8-0.1-0.7,0.3
				c-0.2,0-0.5,0-0.7,0c0.2,0,0.5,0.2,0.7,0.5c0,0,0,0,0,0c-0.3,0.1-0.5,0.5-0.6,0.9c-0.6,0.2-1.1,0.1,0,0.1c0,0.1,0,0.1,0,0.2
				c-0.2,0-0.3,0.1-0.4,0.2c-0.1,0.1-0.3,0.3,0.1,0.3c0,0,0.1,0,0.1,0c0,0,0,0,0,0.1c-0.2,0-0.4,0-0.5,0c-0.3,0-0.3,0.2,0,0.3
				c0.1,0.1,0.3,0.1,0.4,0.1c0,0.1,0,0.3,0.1,0.4c0,0,0,0-0.1,0c-0.3,0-0.6,0-0.5,0.4c0.1,0.2,0.4,0.2,0.8,0.3
				c0,0.1-0.1,0.1-0.1,0.2c-0.1,0.5,0.1,1.4,0.7,1.4c0.3,0,0.8,0.1,1,0.1c0.5,1,1.2,2.3,2,2.4c3.1,0.3,6.2,0.5,9.2,0.6
				c-0.4,8.2-1,16.4-1.7,24.6c0,0.1,0,0.2,0.1,0.3c-0.1,0.9-0.2,1.3,0.7,1.5c0,1.5,0.7,2,1.4,1.8c0.2,0.2,0.4,0.3,0.7,0.3
				c0.9,1.5,1.1,2.1,2,2.4c0.4,0.1,0.7-0.1,0.8-0.4c0-0.2,0-0.4,0-0.6c1.3,0.8,1.3,0,1.3-1c1.2,0.4,1-0.6,1.1-2.3
				c1.6,0.3,1.4-0.3,1.5-2.3c0.6-0.7,1.8-22.3,1.8-24c10.2,0.1,10.5,0.2,10.5-0.8c1,0,1.7,0,1.2-1.2c0.2,0,0.5,0,0.7,0
				c1.3,0,0.3-1.4-0.6-2.3c0.6,0,1.2,0,1.7,0c1.1,0,1.3-0.9,0.5-1.5c-0.3-0.2-0.6-0.3-0.8-0.4C657.5,455,656.2,453.2,654.4,453.2z"
				/>
			<path class="st2" d="M472.4,456.3c0-0.2-0.1-0.3-0.3-0.4c0.4-1.3-0.7-1.4-1.9-1c-0.4-0.3-0.7-0.3-1.2,0c-0.8-0.3-1.1,0.1-1.4,0.8
				c-0.1,0-0.3,0.1-0.4,0.2c-0.3,0-0.6,0-0.6,0.1c-3.2,8.8-6.4,16.3-11.7,24c-3.9-8.2-4.3-13-8.9-22.7c-0.3-0.6-2.5-0.8-4.2-0.7
				c-0.4-0.9-0.5-1.4-1.6-0.9c-0.4-0.3-1-0.3-0.8,0.4c-0.7-0.7-0.6-0.8-0.4,0c-0.1,0-0.2,0.2-0.3,0.5c-0.6-0.7-0.5-0.8-0.2,0.2
				c-0.1,0.1-0.1,0.2-0.2,0.3c-0.3,0.2-0.4,0.5-0.4,0.9c0,0,0,0,0,0c-0.8,0.3-0.8,0.2-0.4,1.4c-0.3,0-0.6,0.1-0.6,0
				c2.5,8,5,16.2,8.5,23.8c0.8,1.6,1.2,3.5,2.3,4.4c1.2,2.3,1.8,2.2,2.6,2.1c0,0,0,0,0,0c0.8,1.3,1.7,2.2,3.1,1.9
				c0.5,0.4,1.1,0.7,1.8,0.6c2.6-0.4,7-6.1,8.6-8.6c5.4-8.4,8.2-14.9,11.7-24.2c0.1-0.3,0-0.6-0.3-0.8
				C476.2,456.8,477,456,472.4,456.3z"/>
		</g>
		<g>
			<path class="st2" d="M562.9,559.8c4.1-0.5,17.3-3.1,17.3-3.1s1.2-4.1,0.7-4.5c-0.8-0.5-2.1-0.5-3.2-0.5c0-0.5-0.4-1-0.9-1
				c-0.2,0-0.3,0-0.5,0c-0.3-0.3-0.6-0.2-1.1-0.2c-0.2-0.1-16.5,1.3-16.8,1.3c0.1,0,0.2,0.2,0.3,0.4c-0.3,0-0.5,0-0.8,0.1
				c-0.3-0.4-0.8-0.5-1.1-0.2c-0.2-0.3-0.6-0.4-0.6,0c0,0.2,0,0.4,0,0.6c0,0,0,0,0,0c-0.1-0.4-0.5-0.5-0.6,0.2c0,0,0,0,0,0
				c0,0,0,0,0,0c-0.1-0.3-0.3-0.5-0.3-0.8c0,0.3,0,0.7-0.1,1c-0.2,0.2-0.4,0.6-0.4,0.9c0,0-0.1,0.1-0.1,0.1
				c-0.8,0.1-0.7,0.2-0.8,0.7c-0.2,0-0.4,0-0.4-0.1c-0.7,10-1.4,20-2.4,30c0,0.1,0.1,0.1,0.1,0.2c-0.1,0.9-0.2,1.1,0.7,1.3
				c0,0.2,0,0.2,0,0.3c-0.1,0.1,0,0.1,0,0.2c0.1,0.4,0.3,0.7,0.6,0.9c0,1,0.5,0.8,1.4,0.8c0.4,0.8,0.8,1.6,1.7,1.6
				c0.2,0.1,0.5,0.1,0.6,0c0.4,0.4,0.8,0.6,1.1,0.6c6.7-0.2,19.4-1.3,19.4-1.3s0.3-1,0.2-1.5c0.2,0,0.4-0.1,0.6-0.1
				c1.3-0.2,1.8-3.7,1.1-4.1c-0.7-0.3-9.9-1-17.5-1c0.4-2.5,0.7-5.1,0.9-7.6c2.8-0.2,6.1-0.5,7.2-0.6c0.6,0,0.8-0.3,0.8-0.6
				c0.2,0,0.4,0,0.6,0c0.7-0.1,0.6-1,0.6-1s0.4,0,0.6-0.1c1.3-0.1,2-4.3,1.4-4.6c-0.6-0.3-6.6-0.8-10.9-1.1
				C562.5,565.1,562.5,565.6,562.9,559.8z M558.3,553C558.3,553,558.3,553,558.3,553c-0.1-0.1-0.1-0.2-0.1-0.3
				C558.2,552.9,558.3,552.9,558.3,553z"/>
			<path class="st2" d="M449.4,555.4c0.1-1.3-2.9-1.2-3.5-1.3c-0.2,0-0.8-0.1-1.5-0.1c-0.1-0.7-0.7-1-1.3-1
				c-0.3-0.4-0.9-0.2-1.1,0.2c-0.6-0.5-0.5-0.3-0.6,0.4c-0.1,0-0.1,0.1-0.2,0.1c-0.4-0.4-0.3-0.4-0.4,0.6c-0.2,0.1-0.4,0.4-0.4,0.7
				c-0.4,0-0.7-0.1-0.7-0.1c0,0.4-0.1,0.8-0.1,1.1c-0.4,0-2.7,30.7-2,31.3c0,1-0.2,1.2,0.8,1.3c0,0.9,0.2,1.6,1.2,1.4
				c0.1,0,0.1,0.1,0.3,0.1c0.6,1,1.6,2.2,2.4,1.3c0.9,0.7,2.1,1.3,2.1,0.2c0-0.1,0-0.2,0-0.4c1.6,0.6,1.3-0.5,1.3-2.2
				c1.7,0.2,1.4-0.4,1.4-2.4c0.1-0.1,0.2-0.3,0.2-0.5C447.6,575.8,448.6,565.6,449.4,555.4z"/>
			<path class="st2" d="M539.6,586c-0.1-10.4-0.1-20.8-0.1-31.3c0-1.3-2.9-1-3.9-1c-0.1-0.2-0.2-0.3-0.3-0.4c-0.1-1-0.8-1.1-1.8-0.9
				c-0.3-0.3-0.6-0.3-1.1-0.1c-0.4-0.3-0.9-0.3-0.9,0.3c0,0.1,0,0.3,0,0.4c-0.1,0-0.1,0-0.2,0c-0.5-0.4-0.5-0.1-0.5,0.3
				c-0.3-0.1-0.6-0.2-0.6-0.2c0,0.2,0,0.5,0,0.7c-0.1,0.1-0.1,0.2-0.1,0.3c-0.1-0.1-0.2-0.1-0.2-0.2c0,1.4,0,0.3,0,1.5
				c-0.2,0-0.4,0.1-0.4,0.2c0,7.1,0,14.1,0.1,21.2c-5.5-6.6-8.9-11.1-12.5-18.9c-0.8-0.6-1.3-0.5-2.3-0.6c0.1-3.4,0.9-3.5-4.8-3.8
				c-0.1-0.7-0.5-1.1-1.3-1c-0.3-0.4-1-0.2-1.2,0.1c-0.5-0.5-0.4-0.3-0.4,0.4c-0.1,0-0.1,0-0.2,0.1c-0.4-0.6-0.3-0.2-0.4,0.5
				c0,0-0.1,0.1-0.1,0.1c-0.4,0.1-0.6,0.5-0.6,0.9c0,0,0,0.1-0.1,0.1c-0.4,0.2-0.4,0.2-0.4,0.9c-0.2,0-0.4,0.1-0.4,0.1
				c-0.2,3.8-0.9,31.3-0.1,31.8c0,0.9-0.1,1.2,0.7,1.3c0,1.2,0.6,1.6,1.3,1.5c0.2,0.2,0.4,0.3,0.6,0.3c0.6,0.9,0.7,1.2,1.6,2
				c0.7,0.4,1.2,0.1,1.3-0.5c1.7,1.1,1.6,0.2,1.6-0.8c1.3,0.3,1-0.6,1-2.3c1.8,0.2,1.5-0.3,1.4-2.2c0.2-0.1,0.3-0.3,0.3-0.6
				c-0.1-4.5-0.2-8.9-0.2-13.4c4,5.6,8.7,10.8,13.1,16c0.2,0.2,0.5,0.1,0.9,0c0.1,0.1,0.2,0.1,0.3,0.2c0.9,1,2,2.6,2.7,1.5
				c0.5,0.5,1.4,1,1.9,0.6c0.2,0,0.5-0.1,0.7-0.2c0.9,0.7,2,1.1,2.1,0c2.1,1,1.8-0.2,1.8-1.9c1.7,0.1,1.4-0.5,1.4-2.4
				C539.5,586.4,539.6,586.2,539.6,586z"/>
			<path class="st2" d="M619,570.2c-0.1-0.6-1.3-0.7-1.9-0.7c-0.6-0.4-0.4-0.2-2.2-1c-0.3-0.7-0.9-0.5-1.6-0.5
				c-1.9-0.4-8.3-0.3-12.4-1.4c0,0,0,0-0.1-0.1c-0.2-0.5-0.3-1-0.5-1.5c0.2-0.7,0.4-1.2,1.2-2c4.4-2.3,10.2-2.8,15-3.5
				c0.3-0.1,0.5-0.2,0.6-0.4c0.9-0.1,1.2-0.7,1-1.3c0.4,0,0.7-0.1,1.1-0.1c0.8-0.1,1-1.2,0.1-1.7c0.2-0.1,0.3-0.3,0.3-0.5
				c0.3-1.3-1.5-1.1-2.8-1.1c0-0.5-0.3-1.2-0.8-1.2c-0.2,0-0.5-0.1-0.7-0.1c-0.5-0.3-2.8-0.3-3.5-0.2c-0.2-0.9-1.5-1-2.4-0.9
				c-0.1-0.4-0.4-1.1-0.8-1c-0.2,0-0.3,0.1-0.5,0.1c-0.2-0.2-0.3-0.3-0.4-0.2c-0.3,0-0.6,0.1-0.9,0.1c-0.4-0.2-5.1,0.5-8.3,2.4
				c-2,1.2-7.9,5.5-8.5,10c-0.4,1.1-0.6,2.2-0.5,3.3c-0.2,1.6,0.2,2.9,1.2,4c0.7,1.7,2.1,2.6,3.7,3.1c1.6,1.2,3.1,1.4,4.7,1.5
				c2,0.3,8,0.2,10,0.2c0.4,0.2,1,0.3,1.4,0.3c0.6,0.3,2,0.2,2.5,0.3c0.1,0.1,0.2,0.1,0.2,0.2c0.2,0.6,0.6,1.4,0.7,2
				c-1.8,6-6.9,4.9-7.9,5.2c-0.1,0-0.9,0-0.9,0c-6.1-1.3-5.3-3.4-7.6-2c-0.5-0.3-1-0.2-1.5,0.1c-0.8-0.4-1.5,0.2-1.6,1
				c-0.4,0-0.8,0-0.9,0.1c-0.2,0.2-0.4,0.5,0,0.6c0.1,0.1,0.2,0.1,0.3,0.2c0,0.1,0,0.2,0.1,0.4c-1.2,0.5-0.8,0.5-0.5,0.7
				c0,0.1-0.1,0.1,0,0.3c0,0,0,0.1,0,0.1c-0.4-0.3-0.6-0.2,0,0.3c0,0,0,0,0,0c0,0.2,0.1,0.3,0.2,0.4c-0.1,0.1-0.1,0.3,0,0.4
				c-1.2,0-0.5,0.3,0.6,0.8c-1,0.8,0.3,1.2,1.7,1.8c1.6,1.3,8.9,3.9,14.8,2.3c3.5-0.6,4.5-1.7,5.5-2.1c1-0.4,1.9-0.9,2.7-1.6
				C625.9,584,625.9,572.5,619,570.2z"/>
			<path class="st2" d="M493.7,553.6c-0.8-0.1-1.6-0.2-2.4-0.2c-0.1-0.1-0.1-0.2-0.2-0.2c0.1-1.2-0.6-1-1.7-1
				c-0.1-0.1-0.2-0.1-0.3-0.1c-0.3,0-0.6,0-0.9,0c-0.5-0.2-28.5,0-29.1,0c-0.2,0-0.2,0.3,0,0.6c-0.6,0-0.8-0.1-0.7,0.3
				c-0.2,0-0.5,0-0.7,0c0.2,0,0.5,0.2,0.7,0.5c0,0,0,0,0,0c-0.3,0.1-0.5,0.5-0.6,0.9c-0.6,0.2-1.1,0.1,0,0.1c0,0.1,0,0.1,0,0.2
				c-0.2,0-0.3,0.1-0.4,0.2c-0.1,0.1-0.3,0.3,0.1,0.3c0,0,0.1,0,0.1,0c0,0,0,0,0,0.1c-0.2,0-0.4,0-0.5,0c-0.3,0-0.3,0.2,0,0.3
				c0.1,0.1,0.3,0.1,0.4,0.1c0,0.1,0,0.3,0.1,0.4c0,0,0,0-0.1,0c-0.3,0-0.6,0-0.5,0.4c0.1,0.2,0.4,0.2,0.8,0.3
				c0,0.1-0.1,0.1-0.1,0.2c-0.1,0.5,0.1,1.4,0.7,1.4c0.3,0,0.8,0.1,1,0.1c0.5,1,1.2,2.3,2,2.4c3.1,0.3,6.2,0.5,9.2,0.6
				c-0.4,8.2-1,16.4-1.7,24.6c0,0.1,0,0.2,0.1,0.3c-0.1,0.9-0.2,1.3,0.7,1.5c0,1.5,0.7,2,1.4,1.8c0.2,0.2,0.4,0.3,0.7,0.3
				c0.9,1.5,1.1,2.1,2,2.4c0.4,0.1,0.7-0.1,0.8-0.4c0-0.2,0-0.4,0-0.6c1.3,0.8,1.3,0,1.3-1c1.2,0.4,1-0.6,1.1-2.3
				c1.6,0.3,1.4-0.3,1.5-2.3c0.6-0.7,1.8-22.3,1.8-24c10.2,0.1,10.5,0.2,10.5-0.8c1,0,1.7,0,1.2-1.2c0.2,0,0.5,0,0.7,0
				c1.3,0,0.3-1.4-0.6-2.3c0.6,0,1.2,0,1.7,0c1.1,0,1.3-0.9,0.5-1.5c-0.3-0.2-0.6-0.3-0.8-0.4C496.8,555.4,495.5,553.6,493.7,553.6z
				"/>
			<path class="st2" d="M423.2,554.7c-0.1-1.4-2.6-1.2-4.2-1.4c-0.1-0.1-0.1-0.1-0.2-0.2c-0.1-0.8-0.3-1.2-1.7-0.9
				c-0.3-0.3-0.6-0.3-1-0.1c-0.7-0.6-0.6-0.2-0.6,0.6c-0.1,0-0.2,0-0.3,0c-0.3-0.3-0.3-0.2-0.3,0.1c-0.2,0-0.3,0-0.4,0.2
				c-0.2-0.2-0.2-0.5-0.2,0.1c-0.3,0.1-0.4,0.3-0.4,0.7c-0.1,0.1-0.1,0.2,0,0.3c-0.2,0-0.3,0-0.3-0.1c0,0.3,0.1,0.7,0.1,1
				c-0.6,0.1-0.4,0.6-0.4,1.2c-0.2,1,2.7,18.1-4.1,29c-2.8-3.9-2.9-12-3.7-20.4c-0.1-0.8-1.1-1.1-2.1-1.2c0-0.2,0-0.3,0-0.5
				c0.1-1.3-2.7-1-3.7-1c-0.1-0.1-0.2-0.3-0.3-0.4c0-1.2-0.8-1.2-1.9-0.9c-0.3-0.3-0.5-0.3-1.1-0.1c-0.9-0.5-0.9-0.1-1,0.7
				c-0.5-0.3-0.6-0.1-0.6,0.3c-0.3-0.1-0.5-0.2-0.5-0.2c0,0.3,0,0.6,0,0.8c0,0.1-0.1,0.1-0.1,0.2c-0.2-0.1-0.3-0.1-0.3-0.2
				c0,0.5,0,0.9,0,1.4c-0.2,0-0.3,0.1-0.3,0.2c0,6.1-1.1,10.4-3.5,15.8c-5.2-27,0-24.7-8-24.9c-0.1-0.9-0.6-1.1-1.4-1
				c-0.3-0.4-1-0.1-1,0.3c-0.5-0.5-0.5-0.7-0.4,0.3c-0.1,0-0.2,0.2-0.2,0.3c-0.4-0.5-0.3-0.6-0.3,0.5c0,0-0.1,0.1-0.1,0.1
				c-0.3,0.2-0.4,0.5-0.4,0.9c0,0-0.1,0.1-0.1,0.2c-0.7,0.3-0.5,0.4-0.5,0.6c-0.2,0-0.4,0-0.4,0c0.4,10,2.5,22.7,4.5,31.3
				c0,0.2,0.3,0.3,0.6,0.4c0.2,1,0.3,1.6,1.3,1.4c0.2,0.2,0.3,0.2,0.5,0.3c0.5,0.8,1.2,1.6,1.7,1.9c0.5,0.3,1,0.1,1.2-0.3
				c0.7,0.6,1.7,0.8,1.8-0.2c-0.1-0.2-0.1-0.5-0.2-0.7c0.3,0.1,0.7,0.1,0.9,0.1c0.1,0,0.1,0.1,0.2,0.1c1.4,0.3,2.5,0.8,4.1-0.3
				c1.7-0.6,2.8-3.1,3.3-4.1c0.3-0.4,0.6-0.9,1.1-1.8c0.6,1.8,2.6,5.8,5.5,7.1c1.2,1.6,2.5,2.9,5.9,3.3c0.4,0.1,0.6-0.1,0.7-0.4
				c1.3,0.3,2.2,0.5,1.4-1.1c0,0,0.1,0,0.1,0c0.7,0.1,1.2-0.1,1.2-0.7c0.1,0,0.6-0.1,0.6-0.1c1-0.2,1.5-0.4,2.2-1.2
				c0.8-0.5,1.2-1,2-2.6c1.2-2.4,3.3-3.1,5.4-17.7C423.9,566,423.6,560.4,423.2,554.7z"/>
			<path class="st2" d="M662,570.2c-0.1-0.6-1.3-0.7-1.9-0.7c-0.6-0.4-0.4-0.2-2.2-1c-0.3-0.7-0.9-0.5-1.6-0.5
				c-1.9-0.4-8.3-0.3-12.4-1.4c0,0,0,0-0.1-0.1c-0.2-0.5-0.3-1-0.5-1.5c0.2-0.7,0.4-1.2,1.2-2c4.4-2.3,10.2-2.8,15-3.5
				c0.3-0.1,0.5-0.2,0.6-0.4c0.9-0.1,1.2-0.7,1-1.3c0.4,0,0.7-0.1,1.1-0.1c0.8-0.1,1-1.2,0.1-1.7c0.2-0.1,0.3-0.3,0.3-0.5
				c0.3-1.3-1.5-1.1-2.8-1.1c0-0.5-0.3-1.2-0.8-1.2c-0.2,0-0.5-0.1-0.7-0.1c-0.5-0.3-2.8-0.3-3.5-0.2c-0.2-0.9-1.5-1-2.4-0.9
				c-0.1-0.4-0.4-1.1-0.8-1c-0.2,0-0.3,0.1-0.5,0.1c-0.2-0.2-0.3-0.3-0.4-0.2c-0.3,0-0.6,0.1-0.9,0.1c-0.4-0.2-5.1,0.5-8.3,2.4
				c-2,1.2-7.9,5.5-8.5,10c-0.4,1.1-0.6,2.2-0.5,3.3c-0.2,1.6,0.2,2.9,1.2,4c0.7,1.7,2.1,2.6,3.7,3.1c1.6,1.2,3.1,1.4,4.7,1.5
				c2,0.3,8,0.2,10,0.2c0.4,0.2,1,0.3,1.4,0.3c0.6,0.3,2,0.2,2.5,0.3c0.1,0.1,0.2,0.1,0.2,0.2c0.2,0.6,0.6,1.4,0.7,2
				c-1.8,6-6.9,4.9-7.9,5.2c-0.1,0-0.9,0-0.9,0c-6.1-1.3-5.3-3.4-7.6-2c-0.5-0.3-1-0.2-1.5,0.1c-0.8-0.4-1.5,0.2-1.6,1
				c-0.4,0-0.8,0-0.9,0.1c-0.2,0.2-0.4,0.5,0,0.6c0.1,0.1,0.2,0.1,0.3,0.2c0,0.1,0,0.2,0.1,0.4c-1.2,0.5-0.8,0.5-0.5,0.7
				c0,0.1-0.1,0.1,0,0.3c0,0,0,0.1,0,0.1c-0.4-0.3-0.6-0.2,0,0.3c0,0,0,0,0,0c0,0.2,0.1,0.3,0.2,0.4c-0.1,0.1-0.1,0.3,0,0.4
				c-1.2,0-0.5,0.3,0.6,0.8c-1,0.8,0.3,1.2,1.7,1.8c1.6,1.3,8.9,3.9,14.8,2.3c3.5-0.6,4.5-1.7,5.5-2.1c1-0.4,1.9-0.9,2.7-1.6
				C668.9,584,668.9,572.5,662,570.2z"/>
		</g>
		<g>
			<path class="st2" d="M551.2,651.3c-2.7-2-10.4-3.4-17.3,2.8c-9,6.2-6.6,18.8-6.8,17.2c0.6,6.7,1.3,13.4,2.1,20.1
				c0,0.1,0.3,0.1,0.6,0.1c0.1,1.2,0,1.5,1,1.4c0.1,0.1,0.3,0.1,0.4,0.1c0.4,0.9,0.9,1.3,1.7,0.8c0.7,0.3,1.3,0.4,1.6-0.3
				c1.3,0.3,1.2-0.4,1.2-1.4c1.6,0.2,3,0.1,3-0.4c-0.7-6.4-0.6-6-0.9-10c4.4-0.1,8.8-0.4,13.2-0.8c0.3,9.8,0,9.2,1.1,9.6
				c0,0.1,0,0.2,0,0.3c0,0.9,0.8,1.1,1.4,0.9c0.2,0.1,0.1,0,0.2,0.1c0.8,1.7,1.7,1.7,2.2,1.2c0.7,0.5,1.6,0.7,1.7-0.1
				c0-0.1,0-0.2,0-0.3c1.6,0.6,1.4-0.4,1.4-1.9c1.1,0.1,2,0,2-0.4C560.3,659.9,561,652.8,551.2,651.3z M538.5,662.9
				c4.2-3.8,4.8-3.2,10.3-3.5c0.2,0,0.3,0.1,0.5,0.2c1.1,3.1,1.5,9.3,1.6,12.6c-4.5,0.8-9,1.6-13.5,2.3
				C537,669.5,536.4,664.8,538.5,662.9z"/>
			<path class="st2" d="M409.8,660.3c4.1-0.5,17.3-3.1,17.3-3.1s1.2-4.1,0.7-4.5c-0.8-0.5-2.1-0.5-3.2-0.5c0-0.5-0.4-1-0.9-1
				c-0.2,0-0.3,0-0.5,0c-0.3-0.3-0.6-0.2-1.1-0.2c-0.2-0.1-16.5,1.3-16.8,1.3c0.1,0,0.2,0.2,0.3,0.4c-0.3,0-0.5,0-0.8,0.1
				c-0.3-0.4-0.8-0.5-1.1-0.2c-0.2-0.3-0.6-0.4-0.6,0c0,0.2,0,0.4,0,0.6c0,0,0,0,0,0c-0.1-0.4-0.5-0.5-0.6,0.2c0,0,0,0,0,0
				c0,0,0,0,0,0c-0.1-0.3-0.3-0.5-0.3-0.8c0,0.3,0,0.7-0.1,1c-0.2,0.2-0.4,0.6-0.4,0.9c0,0-0.1,0.1-0.1,0.1
				c-0.8,0.1-0.7,0.2-0.8,0.7c-0.2,0-0.4,0-0.4-0.1c-0.7,10-1.4,20-2.4,30c0,0.1,0.1,0.1,0.1,0.2c-0.1,0.9-0.2,1.1,0.7,1.3
				c0,0.2,0,0.2,0,0.3c-0.1,0.1,0,0.1,0,0.2c0.1,0.4,0.3,0.7,0.6,0.9c0,1,0.5,0.8,1.4,0.8c0.4,0.8,0.8,1.6,1.7,1.6
				c0.2,0.1,0.5,0.1,0.6,0c0.4,0.4,0.8,0.6,1.1,0.6c6.7-0.2,19.4-1.3,19.4-1.3s0.3-1,0.2-1.5c0.2,0,0.4-0.1,0.6-0.1
				c1.3-0.2,1.8-3.7,1.1-4.1c-0.7-0.3-9.9-1-17.5-1c0.4-2.5,0.7-5.1,0.9-7.6c2.8-0.2,6.1-0.5,7.2-0.6c0.6,0,0.8-0.3,0.8-0.6
				c0.2,0,0.4,0,0.6,0c0.7-0.1,0.6-1,0.6-1s0.4,0,0.6-0.1c1.3-0.1,2-4.3,1.4-4.6c-0.6-0.3-6.6-0.8-10.9-1.1
				C409.4,665.5,409.4,666,409.8,660.3z M405.2,653.5C405.2,653.5,405.1,653.5,405.2,653.5c-0.1-0.1-0.1-0.2-0.1-0.3
				C405.1,653.3,405.1,653.4,405.2,653.5z"/>
			<path class="st2" d="M627.8,660.3c4.1-0.5,17.3-3.1,17.3-3.1s1.2-4.1,0.7-4.5c-0.8-0.5-2.1-0.5-3.2-0.5c0-0.5-0.4-1-0.9-1
				c-0.2,0-0.3,0-0.5,0c-0.3-0.3-0.6-0.2-1.1-0.2c-0.2-0.1-16.5,1.3-16.8,1.3c0.1,0,0.2,0.2,0.3,0.4c-0.3,0-0.5,0-0.8,0.1
				c-0.3-0.4-0.8-0.5-1.1-0.2c-0.2-0.3-0.6-0.4-0.6,0c0,0.2,0,0.4,0,0.6c0,0,0,0,0,0c-0.1-0.4-0.5-0.5-0.6,0.2c0,0,0,0,0,0
				c0,0,0,0,0,0c-0.1-0.3-0.3-0.5-0.3-0.8c0,0.3,0,0.7-0.1,1c-0.2,0.2-0.4,0.6-0.4,0.9c0,0-0.1,0.1-0.1,0.1
				c-0.8,0.1-0.7,0.2-0.8,0.7c-0.2,0-0.4,0-0.4-0.1c-0.7,10-1.4,20-2.4,30c0,0.1,0.1,0.1,0.1,0.2c-0.1,0.9-0.2,1.1,0.7,1.3
				c0,0.2,0,0.2,0,0.3c-0.1,0.1,0,0.1,0,0.2c0.1,0.4,0.3,0.7,0.6,0.9c0,1,0.5,0.8,1.4,0.8c0.4,0.8,0.8,1.6,1.7,1.6
				c0.2,0.1,0.5,0.1,0.6,0c0.4,0.4,0.8,0.6,1.1,0.6c6.7-0.2,19.4-1.3,19.4-1.3s0.3-1,0.2-1.5c0.2,0,0.4-0.1,0.6-0.1
				c1.3-0.2,1.8-3.7,1.1-4.1c-0.7-0.3-9.9-1-17.5-1c0.4-2.5,0.7-5.1,0.9-7.6c2.8-0.2,6.1-0.5,7.2-0.6c0.6,0,0.8-0.3,0.8-0.6
				c0.2,0,0.4,0,0.6,0c0.7-0.1,0.6-1,0.6-1s0.4,0,0.6-0.1c1.3-0.1,2-4.3,1.4-4.6c-0.6-0.3-6.6-0.8-10.9-1.1
				C627.4,665.5,627.4,666,627.8,660.3z M623.2,653.5C623.2,653.5,623.2,653.5,623.2,653.5c-0.1-0.1-0.1-0.2-0.1-0.3
				C623.1,653.3,623.2,653.4,623.2,653.5z"/>
			<path class="st2" d="M516.3,672.6c-0.3-0.5-0.8-0.7-1.4-0.8c-0.9-0.2-2-0.2-3-0.2c-0.2-0.9-0.9-1.3-1.4-1.4
				c-0.2,0-0.4,0.1-0.6,0.1c-0.1,0-0.1,0-0.2,0c-2.8-1.5-10.9,1.9-9.9,1.6c-0.3,0.1-0.3,0.3-0.2,0.6c-0.4,0.2-0.6,0.3-0.5,0.2
				c-0.1,0-0.1,0.1-0.1,0.2c-0.2,0.1-0.4,0.1-0.6,0.2c0.3-0.1,0.6,0.1,0.9,0.2c0,0,0,0,0,0c-0.2,0-0.3,0-0.1,0.5c0,0,0,0,0,0.1
				c-0.3,0.1-0.7,0.2-1,0.3c0.2,0,0.5,0,0.9,0c-0.1,0.2-0.1,0.5-0.1,0.7c-1.1,0.4-1,0.2-0.4,0.4c0,0,0,0,0,0c0.1,0,0.3,0.1,0.4,0.2
				c0,0,0,0,0,0c-0.2,0.1-0.3,0.2-0.3,0.4c-0.8,0.3-0.7,0.2,0.1,0.3c0.1,0.2,0.4,0.2,0.6,0.2c0,0,0,0,0,0c0,0.1-0.1,0.1-0.1,0.2
				c-0.4,0.1-0.5,0.2,0,0.1c0,0,0,0.1,0,0.1c-0.4,0.1-0.5,0.2,0,0.1c0,0,0,0,0,0.1c-0.7,0.4-0.4,1.1,0.7,0.9c0.1,0,0.1,0,0.2,0
				c0.3,0.7,1,1.3,1.6,1.2c0.2-0.1,0.4-0.1,0.5-0.2c0.9,0.5,0.8,0.3,4.7-0.3c0.3,0.8,0.6,1.6,0.9,2.5c-0.2,0.1-0.3,0.1-0.5,0.2
				c-0.3-0.2-0.8-0.3-1.2,0c-2,1.7-4.5,3.1-7.1,3.7c-0.9-0.1-1.7-0.2-2.5-0.5c-4.2-4.4-5.9-9-5.8-13.4c0.3-1.4,0.7-2.7,1.6-4.4
				c3.7-4.8,13.9-7.9,15-9c1.1-0.4,2.2-0.5,1.1-2c0.7-0.2,1.3-0.4,2-0.6c0.9-0.6-0.1-1.6-1.2-1.9c-0.1,0-0.2-0.1-0.3-0.1
				c0.6-0.3,0.5-1.1-0.1-1.5c-0.6-0.4-1.8-0.5-2.8-0.4c0-0.5-0.5-1-1.2-0.9c-0.4-0.5-0.6-0.3-1.3-0.1c-0.1-0.1-0.3-0.2-0.4-0.1
				c-5,1.4-9.9,3.2-13.8,6.4c-8.6,6-11.4,18-4.8,27.7c5,9.1,15.7,11.6,24.7,5.7c0,0,0.1,0,0.1,0c-0.1,0.2-0.2,0.5-0.2,0.7
				c0.1,0.7,0.8,0.8,1.4,0.6c0,0,0.1,0,0.1,0c0.5,1,1.1,1.7,2,1.1c1,0.7,1.6,0.4,1.7-0.3c1.9,0.8,1.6-0.4,1.6-1.8
				c2.5,0.5,2-0.2,1.9-2.2C518.1,687.4,517.2,674.2,516.3,672.6z"/>
			<path class="st2" d="M605.3,672.6c-0.3-0.5-0.8-0.7-1.4-0.8c-0.9-0.2-2-0.2-3-0.2c-0.2-0.9-0.9-1.3-1.4-1.4
				c-0.2,0-0.4,0.1-0.6,0.1c-0.1,0-0.1,0-0.2,0c-2.8-1.5-10.9,1.9-9.9,1.6c-0.3,0.1-0.3,0.3-0.2,0.6c-0.4,0.2-0.6,0.3-0.5,0.2
				c-0.1,0-0.1,0.1-0.1,0.2c-0.2,0.1-0.4,0.1-0.6,0.2c0.3-0.1,0.6,0.1,0.9,0.2c0,0,0,0,0,0c-0.2,0-0.3,0-0.1,0.5c0,0,0,0,0,0.1
				c-0.3,0.1-0.7,0.2-1,0.3c0.2,0,0.5,0,0.9,0c-0.1,0.2-0.1,0.5-0.1,0.7c-1.1,0.4-1,0.2-0.4,0.4c0,0,0,0,0,0c0.1,0,0.3,0.1,0.4,0.2
				c0,0,0,0,0,0c-0.2,0.1-0.3,0.2-0.3,0.4c-0.8,0.3-0.7,0.2,0.1,0.3c0.1,0.2,0.4,0.2,0.6,0.2c0,0,0,0,0,0c0,0.1-0.1,0.1-0.1,0.2
				c-0.4,0.1-0.5,0.2,0,0.1c0,0,0,0.1,0,0.1c-0.4,0.1-0.5,0.2,0,0.1c0,0,0,0,0,0.1c-0.7,0.4-0.4,1.1,0.7,0.9c0.1,0,0.1,0,0.2,0
				c0.3,0.7,1,1.3,1.6,1.2c0.2-0.1,0.4-0.1,0.5-0.2c0.9,0.5,0.8,0.3,4.7-0.3c0.3,0.8,0.6,1.6,0.9,2.5c-0.2,0.1-0.3,0.1-0.5,0.2
				c-0.3-0.2-0.8-0.3-1.2,0c-2,1.7-4.5,3.1-7.1,3.7c-0.9-0.1-1.7-0.2-2.5-0.5c-4.2-4.4-5.9-9-5.8-13.4c0.3-1.4,0.7-2.7,1.6-4.4
				c3.7-4.8,13.9-7.9,15-9c1.1-0.4,2.2-0.5,1.1-2c0.7-0.2,1.3-0.4,2-0.6c0.9-0.6-0.1-1.6-1.2-1.9c-0.1,0-0.2-0.1-0.3-0.1
				c0.6-0.3,0.5-1.1-0.1-1.5c-0.6-0.4-1.8-0.5-2.8-0.4c0-0.5-0.5-1-1.2-0.9c-0.4-0.5-0.6-0.3-1.3-0.1c-0.1-0.1-0.3-0.2-0.4-0.1
				c-5,1.4-9.9,3.2-13.8,6.4c-8.6,6-11.4,18-4.8,27.7c5,9.1,15.7,11.6,24.7,5.7c0,0,0.1,0,0.1,0c-0.1,0.2-0.2,0.5-0.2,0.7
				c0.1,0.7,0.8,0.8,1.4,0.6c0,0,0.1,0,0.1,0c0.5,1,1.1,1.7,2,1.1c1,0.7,1.6,0.4,1.7-0.3c1.9,0.8,1.6-0.4,1.6-1.8
				c2.5,0.5,2-0.2,1.9-2.2C607.2,687.4,606.3,674.2,605.3,672.6z"/>
			<path class="st2" d="M471.4,686.4c-0.1-10.4-0.1-20.8-0.1-31.3c0-1.3-2.9-1-3.9-1c-0.1-0.2-0.2-0.3-0.3-0.4
				c-0.1-1-0.8-1.1-1.8-0.9c-0.3-0.3-0.6-0.3-1.1-0.1c-0.4-0.3-0.9-0.3-0.9,0.3c0,0.1,0,0.3,0,0.4c-0.1,0-0.1,0-0.2,0
				c-0.5-0.4-0.5-0.1-0.5,0.3c-0.3-0.1-0.6-0.2-0.6-0.2c0,0.2,0,0.5,0,0.7c-0.1,0.1-0.1,0.2-0.1,0.3c-0.1-0.1-0.2-0.1-0.2-0.2
				c0,1.4,0,0.3,0,1.5c-0.2,0-0.4,0.1-0.4,0.2c0,7.1,0,14.1,0.1,21.2c-5.5-6.6-8.9-11.1-12.5-18.9c-0.8-0.6-1.3-0.5-2.3-0.6
				c0.1-3.4,0.9-3.5-4.8-3.8c-0.1-0.7-0.5-1.1-1.3-1c-0.3-0.4-1-0.2-1.2,0.1c-0.5-0.5-0.4-0.3-0.4,0.4c-0.1,0-0.1,0-0.2,0.1
				c-0.4-0.6-0.3-0.2-0.4,0.5c0,0-0.1,0.1-0.1,0.1c-0.4,0.1-0.6,0.5-0.6,0.9c0,0,0,0.1-0.1,0.1c-0.4,0.2-0.4,0.2-0.4,0.9
				c-0.2,0-0.4,0.1-0.4,0.1c-0.2,3.8-0.9,31.3-0.1,31.8c0,0.9-0.1,1.2,0.7,1.3c0,1.2,0.6,1.6,1.3,1.5c0.2,0.2,0.4,0.3,0.6,0.3
				c0.6,0.9,0.7,1.2,1.6,2c0.7,0.4,1.2,0.1,1.3-0.5c1.7,1.1,1.6,0.2,1.6-0.8c1.3,0.3,1-0.6,1-2.3c1.8,0.2,1.5-0.3,1.4-2.2
				c0.2-0.1,0.3-0.3,0.3-0.6c-0.1-4.5-0.2-8.9-0.2-13.4c4,5.6,8.7,10.8,13.1,16c0.2,0.2,0.5,0.1,0.9,0c0.1,0.1,0.2,0.1,0.3,0.2
				c0.9,1,2,2.6,2.7,1.5c0.5,0.5,1.4,1,1.9,0.6c0.2,0,0.5-0.1,0.7-0.2c0.9,0.7,2,1.1,2.1,0c2.1,1,1.8-0.2,1.8-1.9
				c1.7,0.1,1.4-0.5,1.4-2.4C471.3,686.8,471.4,686.6,471.4,686.4z"/>
		</g>
		<g>
			<path class="st2" d="M371.9,761.2c4.1-0.5,17.3-3.1,17.3-3.1s1.2-4.1,0.7-4.5c-0.8-0.5-2.1-0.5-3.2-0.5c0-0.5-0.4-1-0.9-1
				c-0.2,0-0.3,0-0.5,0c-0.3-0.3-0.6-0.2-1.1-0.2c-0.2-0.1-16.5,1.3-16.8,1.3c0.1,0,0.2,0.2,0.3,0.4c-0.3,0-0.5,0-0.8,0.1
				c-0.3-0.4-0.8-0.5-1.1-0.2c-0.2-0.3-0.6-0.4-0.6,0c0,0.2,0,0.4,0,0.6c0,0,0,0,0,0c-0.1-0.4-0.5-0.5-0.6,0.2c0,0,0,0,0,0
				c0,0,0,0,0,0c-0.1-0.3-0.3-0.5-0.3-0.8c0,0.3,0,0.7-0.1,1c-0.2,0.2-0.4,0.6-0.4,0.9c0,0-0.1,0.1-0.1,0.1
				c-0.8,0.1-0.7,0.2-0.8,0.7c-0.2,0-0.4,0-0.4-0.1c-0.7,10-1.4,20-2.4,30c0,0.1,0.1,0.1,0.1,0.2c-0.1,0.9-0.2,1.1,0.7,1.3
				c0,0.2,0,0.2,0,0.3c-0.1,0.1,0,0.1,0,0.2c0.1,0.4,0.3,0.7,0.6,0.9c0,1,0.5,0.8,1.4,0.8c0.4,0.8,0.8,1.6,1.7,1.6
				c0.2,0.1,0.5,0.1,0.6,0c0.4,0.4,0.8,0.6,1.1,0.6c6.7-0.2,19.4-1.3,19.4-1.3s0.3-1,0.2-1.5c0.2,0,0.4-0.1,0.6-0.1
				c1.3-0.2,1.8-3.7,1.1-4.1c-0.7-0.3-9.9-1-17.5-1c0.4-2.5,0.7-5.1,0.9-7.6c2.8-0.2,6.1-0.5,7.2-0.6c0.6,0,0.8-0.3,0.8-0.6
				c0.2,0,0.4,0,0.6,0c0.7-0.1,0.6-1,0.6-1s0.4,0,0.6-0.1c1.3-0.1,2-4.3,1.4-4.6c-0.6-0.3-6.6-0.8-10.9-1.1
				C371.5,766.5,371.5,766.9,371.9,761.2z M367.4,754.4C367.3,754.4,367.3,754.4,367.4,754.4c-0.1-0.1-0.1-0.2-0.1-0.3
				C367.3,754.2,367.3,754.3,367.4,754.4z"/>
			<path class="st2" d="M621.4,761.2c4.1-0.5,17.3-3.1,17.3-3.1s1.2-4.1,0.7-4.5c-0.8-0.5-2.1-0.5-3.2-0.5c0-0.5-0.4-1-0.9-1
				c-0.2,0-0.3,0-0.5,0c-0.3-0.3-0.6-0.2-1.1-0.2c-0.2-0.1-16.5,1.3-16.8,1.3c0.1,0,0.2,0.2,0.3,0.4c-0.3,0-0.5,0-0.8,0.1
				c-0.3-0.4-0.8-0.5-1.1-0.2c-0.2-0.3-0.6-0.4-0.6,0c0,0.2,0,0.4,0,0.6c0,0,0,0,0,0c-0.1-0.4-0.5-0.5-0.6,0.2c0,0,0,0,0,0
				c0,0,0,0,0,0c-0.1-0.3-0.3-0.5-0.3-0.8c0,0.3,0,0.7-0.1,1c-0.2,0.2-0.4,0.6-0.4,0.9c0,0-0.1,0.1-0.1,0.1
				c-0.8,0.1-0.7,0.2-0.8,0.7c-0.2,0-0.4,0-0.4-0.1c-0.7,10-1.4,20-2.4,30c0,0.1,0.1,0.1,0.1,0.2c-0.1,0.9-0.2,1.1,0.7,1.3
				c0,0.2,0,0.2,0,0.3c-0.1,0.1,0,0.1,0,0.2c0.1,0.4,0.3,0.7,0.6,0.9c0,1,0.5,0.8,1.4,0.8c0.4,0.8,0.8,1.6,1.7,1.6
				c0.2,0.1,0.5,0.1,0.6,0c0.4,0.4,0.8,0.6,1.1,0.6c6.7-0.2,19.4-1.3,19.4-1.3s0.3-1,0.2-1.5c0.2,0,0.4-0.1,0.6-0.1
				c1.3-0.2,1.8-3.7,1.1-4.1c-0.7-0.3-9.9-1-17.5-1c0.4-2.5,0.7-5.1,0.9-7.6c2.8-0.2,6.1-0.5,7.2-0.6c0.6,0,0.8-0.3,0.8-0.6
				c0.2,0,0.4,0,0.6,0c0.7-0.1,0.6-1,0.6-1s0.4,0,0.6-0.1c1.3-0.1,2-4.3,1.4-4.6c-0.6-0.3-6.6-0.8-10.9-1.1
				C621,766.5,621,766.9,621.4,761.2z M616.8,754.4C616.8,754.4,616.8,754.4,616.8,754.4c-0.1-0.1-0.1-0.2-0.1-0.3
				C616.7,754.2,616.8,754.3,616.8,754.4z"/>
			<path class="st2" d="M439.9,754.4c-0.1-1.3-2.7-1-4.8-1c-0.2-0.9-0.5-1.3-1.5-1.1c-0.4-0.4-1-0.2-1.3,0.2
				c-0.7-0.5-0.6-0.2-0.5,0.5c-0.1,0-0.2,0.1-0.2,0.1c-0.2-0.2-0.4-0.2-0.4-0.2c0,0.4,0.1,0.9,0.1,1.4c-0.1,0.2-0.2,0.3-0.2,0.6
				c-0.1,0-0.3,0.1-0.4,0.2c-0.4-0.3-0.7-0.3-1-0.1c-0.9-0.4-1.1,0.1-1.3,0.8c-0.4-0.1-0.4,0.1-0.5,0.4c-0.3-0.1-0.5-0.1-0.5,0
				c-0.1,0.3-0.2,0.6-0.3,1c0,0-2.7,9.3-6.8,20.9c-1.5-2.9-6.1-12.7-9.5-20.6c-0.2-0.2-0.5-0.4-0.8-0.5c0-1.6-1.9-1.4-3.6-1.6
				c-0.2,0-0.6-0.1-1.1-0.1c-0.1-0.8-0.5-1.2-1.5-1c-0.3-0.3-0.8-0.2-1.1,0c-0.6-0.5-0.5-0.2-0.5,0.5c-0.1,0-0.1,0-0.2,0
				c-0.4-0.6-0.4-0.2-0.4,0.4c-0.1,0-0.1,0.1-0.2,0.1c-0.3,0.1-0.6,0.4-0.6,0.8c0,0.1-0.1,0.1-0.1,0.2c-0.4,0.1-0.4,0.2-0.3,0.9
				c-0.2,0-0.4,0.1-0.4,0.2c0,10.4,0,20.9,0,31.3c0,0.1,0,0.1,0.1,0.1c0,0.3,0,0.6,0,0.9c0,0.2,0.4,0.3,0.8,0.4c0,0.1,0,0.2,0,0.4
				c0,0.6,0.2,0.9,0.7,1c0.1,0,0.3,0,0.5,0c0,0,0,0,0.1,0c0.1,0,0.1,0,0.2,0c0.4,0.7,0.9,1.3,1.3,1.5c0.4,0.2,0.8,0.1,1-0.2
				c0,0,0.1,0.1,0.1,0.1c0.3,0.2,2.1,1.5,2.1,0.1c0-0.1,0-0.3,0-0.4c1.6,0.6,1.3-0.6,1.3-2.2c1.8,0.2,1.4-0.4,1.4-2.3
				c0.2-0.1,0.3-0.3,0.3-0.5c0-2.7,0-5.5,0-8.2c0.8,1.6,5,9.6,5.8,10.1c0.7,1.1,1,2.1,2.1,1.4c0,0,0,0,0,0c0.5,0.8,1.2,1.7,2,1.1
				c1,0.7,1.7,0.3,1.9-0.2c0.2,0.1,0.4,0.2,0.7,0.3c1,0.1,1.3-0.6,0.8-1.4c-0.2-0.3-0.3-0.6-0.5-0.9c1.6,0.2,3.1,0.2,2.3-1.2
				c0.2-0.3,0.3-0.7,0.5-1c0.9,0,1.7-0.1,2-0.8c1.4-3.8,2.8-7.7,4-11.6c0.9,17.6,0.3,15.8,1.4,15.9c0,0,0.1,0,0.1,0
				c0,1-0.1,1.7,1.1,1.3c0.1,0,0,0,0.1,0c0.4,0.7,1.4,1.1,2,0.8c0.7,0.4,1.4,0.5,1.6-0.1c2,0.7,1.8-0.4,1.9-1.5c2.5,0.2,2-0.5,2-2.6
				C442.5,788.2,441.2,766.4,439.9,754.4z"/>
			<path class="st2" d="M536.1,762.2c-0.6-0.5-1.7-0.6-2.8-0.5c-0.2-0.2-0.4-0.4-0.6-0.6c-0.1-0.5-1.3-1-1.7-1.3
				c0.4-0.2,0.8-0.6,0.4-1.1c-1-1.8-3.2-2.6-5.6-3c-1.7-1.1-4.1-1.7-6.1-1.8c-0.7-0.1-2-0.2-2.7-0.2c-4.2-0.1-8.1,1.9-11.2,4.8
				c-6.8,6.3-9.7,19.7-0.6,28c1.8,1.7,3.1,2,4.5,2.9c6.9,4.3,21.8,3.8,27.9-7.5c1.7-2.2,3-4.7,3.3-7.3
				C541.4,769.3,541.5,766.8,536.1,762.2z M526.5,764.5c0,0.2,0,0.3,0.1,0.4c0.2,0.2,0.5,0.4,0.7,0.6c-0.1,2.1,0.6,1,3,4.1
				c0.1,0.3,0.9,2.6,0.9,2.9c-0.3,6.4-9.8,12.9-16.2,10.8c-7.1-5.2-6.3-13-3.9-16.3C516.5,761.5,519,762.9,526.5,764.5z"/>
			<path class="st2" d="M480.4,754.3c-3.9-2.2-10.1-2.9-15.2-1c-0.7-0.3-3.2-0.4-3.8-0.4c-0.1-0.8-0.6-1.1-1.3-1
				c-0.4-0.4-1-0.2-1.1,0.2c-0.6-0.5-0.5-0.3-0.4,0.4c-0.1,0-0.2,0.1-0.3,0.2c-0.5-0.4-0.4-0.4-0.3,0.5c-0.3,0.1-0.4,0.3-0.5,0.7
				c-0.4-0.1-0.7-0.1-0.7-0.2c0,0.4,0.1,0.8,0.1,1.3c-0.2,0-0.4,0-0.4,0c0,0.3,0,0.6,0.1,0.9c0,0,0,0,0,0
				c1.5,22.7,1.4,35.6,1.4,35.6c0,1-0.2,1.3,0.8,1.5c0,1,0.3,1.5,1.2,1.3c0.1,0,0.1,0.1,0.3,0.1c0.6,1,1.6,2.1,2.4,1.3
				c0.8,0.7,2,1.2,2,0.1c0-0.1,0-0.2,0-0.3c1.7,0.7,1.4-0.4,1.4-2.1c1.8,0.2,1.4-0.4,1.4-2.4c0.1-0.1,0.2-0.3,0.2-0.5
				c0.1-2.1,0.1-4.2,0.1-6.3c4.7-0.4,15.6-0.9,20.2-9.9c1.8-2,2.7-4.1,2.8-6.3C492.6,762.1,487.4,755.9,480.4,754.3z M479.4,769.9
				c-2.5,3-8,4.1-11.8,4.4c-0.1-3.1-0.1-5.8-0.6-11c2.5-1,1.5-0.8,7-1.6c2.8,0.3,4.1,1,5.1,1.2c0.4,0.4,0.8,0.8,1.2,1.3
				C480,766.1,479.7,768,479.4,769.9z"/>
			<path class="st2" d="M683.7,789.4c-0.5-6.7-3.1-12.9-9-16.2c1.2-1.1,2.3-2.3,3-3.8c2.3-2.7,3.3-6.1,1.6-9.3
				c-0.4-3.6-3.5-5.6-7.2-6.4c-2.1-1.4-5.2-1.9-7.3-1.9c-3-0.3-5.9,0.7-8.6,1.9c-0.2-0.6-0.7-0.6-1.3-0.5c-0.3-0.4-0.9-0.2-1.2,0.1
				c-0.6-0.5-0.5-0.2-0.5,0.5c-0.1,0-0.1,0-0.2,0.1c-0.5-0.6-0.4-0.2-0.4,0.6c0,0,0,0,0,0c-0.3,0.1-0.5,0.4-0.6,0.9
				c-0.7,0.2-0.5,0.2-0.5,0.9c-0.2,0-0.4,0-0.4,0.1c0,0.4,1.3,33.1,1.5,33.5c0.1,1.1-0.1,1.2,0.8,1.3c0,0.2,0,0.3,0,0.5
				c0,0.7,0.7,0.9,1.2,0.8c0.1,0,0.1,0,0.2,0c0.6,0.9,1.4,1.8,2.2,1.1c0.9,0.7,2.1,1.1,2.1-0.1c2.1,0.9,1.7-0.4,1.6-2.1
				c1.8,0,1.5-0.3,1.4-2.2c0.2-0.2,0.3-0.3,0.3-0.6c-0.2-3.4-0.3-6.8-0.4-10.1c0.3,0.1,0.6,0,0.9-0.1c0.2,0,0.3,0,0.5,0.1
				c0.6,0.3,0.8,0.3,1.2,0.2c1.8,0.2,3.6,0.9,5.2,1.9c0.8,1,3.4,3.2,4,10.8c0,0.3,0.3,0.5,0.7,0.6c0.1,1,0.2,1.7,1.4,1.4
				c0.1,0.1,0.2,0.1,0.3,0.1c0.4,0.7,0.9,1.4,1.3,1.6c0.4,0.2,1,0.2,1.2-0.2c0.4,0.3,2.1,1.6,2.1,0.3c0-0.2,0-0.4,0-0.6
				c1.5,0.6,1.3-0.5,1-2.3c2,0.4,1.7-0.2,1.5-2C683.6,789.9,683.7,789.7,683.7,789.4z M665.9,760.8c1.3,0,3,0.1,4.3,0.5
				c0.3,0.4,0.2,1.3,0.2,1.8c-1,2.4-2.7,4-8.1,6.4c0,0-0.6,0-0.6,0c-0.1-2.7-0.2-5.4-0.3-8.1C663.9,761.3,664.5,761,665.9,760.8z"/>
			<path class="st2" d="M596.6,756.1c-0.1-1.4-2.6-1.2-4.2-1.4c-0.1-0.1-0.1-0.1-0.2-0.2c-0.1-0.8-0.3-1.2-1.7-0.9
				c-0.3-0.3-0.6-0.3-1-0.1c-0.7-0.6-0.6-0.2-0.6,0.6c-0.1,0-0.2,0-0.3,0c-0.3-0.3-0.3-0.2-0.3,0.1c-0.2,0-0.3,0-0.4,0.2
				c-0.2-0.2-0.2-0.5-0.2,0.1c-0.3,0.1-0.4,0.3-0.4,0.7c-0.1,0.1-0.1,0.2,0,0.3c-0.2,0-0.3,0-0.3-0.1c0,0.3,0.1,0.7,0.1,1
				c-0.6,0.1-0.4,0.6-0.4,1.2c-0.2,1,2.7,18.1-4.1,29c-2.8-3.9-2.9-12-3.7-20.4c-0.1-0.8-1.1-1.1-2.1-1.2c0-0.2,0-0.3,0-0.5
				c0.1-1.3-2.7-1-3.7-1c-0.1-0.1-0.2-0.3-0.3-0.4c0-1.2-0.8-1.2-1.9-0.9c-0.3-0.3-0.5-0.3-1.1-0.1c-0.9-0.5-0.9-0.1-1,0.7
				c-0.5-0.3-0.6-0.1-0.6,0.3c-0.3-0.1-0.5-0.2-0.5-0.2c0,0.3,0,0.6,0,0.8c0,0.1-0.1,0.1-0.1,0.2c-0.2-0.1-0.3-0.1-0.3-0.2
				c0,0.5,0,0.9,0,1.4c-0.2,0-0.3,0.1-0.3,0.2c0,6.1-1.1,10.4-3.5,15.8c-5.2-27,0-24.7-8-24.9c-0.1-0.9-0.6-1.1-1.4-1
				c-0.3-0.4-1-0.1-1,0.3c-0.5-0.5-0.5-0.7-0.4,0.3c-0.1,0-0.2,0.2-0.2,0.3c-0.4-0.5-0.3-0.6-0.3,0.5c0,0-0.1,0.1-0.1,0.1
				c-0.3,0.2-0.4,0.5-0.4,0.9c0,0-0.1,0.1-0.1,0.2c-0.7,0.3-0.5,0.4-0.5,0.6c-0.2,0-0.4,0-0.4,0c0.4,10,2.5,22.7,4.5,31.3
				c0,0.2,0.3,0.3,0.6,0.4c0.2,1,0.3,1.6,1.3,1.4c0.2,0.2,0.3,0.2,0.5,0.3c0.5,0.8,1.2,1.6,1.7,1.9c0.5,0.3,1,0.1,1.2-0.3
				c0.7,0.6,1.7,0.8,1.8-0.2c-0.1-0.2-0.1-0.5-0.2-0.7c0.3,0.1,0.7,0.1,0.9,0.1c0.1,0,0.1,0.1,0.2,0.1c1.4,0.3,2.5,0.8,4.1-0.3
				c1.7-0.6,2.8-3.1,3.3-4.1c0.3-0.4,0.6-0.9,1.1-1.8c0.6,1.8,2.6,5.8,5.5,7.1c1.2,1.6,2.5,2.9,5.9,3.3c0.4,0.1,0.6-0.1,0.7-0.4
				c1.3,0.3,2.2,0.5,1.4-1.1c0,0,0.1,0,0.1,0c0.7,0.1,1.2-0.1,1.2-0.7c0.1,0,0.6-0.1,0.6-0.1c1-0.2,1.5-0.4,2.2-1.2
				c0.8-0.5,1.2-1,2-2.6c1.2-2.4,3.3-3.1,5.4-17.7C597.4,767.3,597.1,761.8,596.6,756.1z"/>
		</g>
		<g>
			<path class="st2" d="M578.6,850.1c-2.7-2-10.4-3.4-17.3,2.8c-9,6.2-6.6,18.8-6.8,17.2c0.6,6.7,1.3,13.4,2.1,20.1
				c0,0.1,0.3,0.1,0.6,0.1c0.1,1.2,0,1.5,1,1.4c0.1,0.1,0.3,0.1,0.4,0.1c0.4,0.9,0.9,1.3,1.7,0.8c0.7,0.3,1.3,0.4,1.6-0.3
				c1.3,0.3,1.2-0.4,1.2-1.4c1.6,0.2,3,0.1,3-0.4c-0.7-6.4-0.6-6-0.9-10c4.4-0.1,8.8-0.4,13.2-0.8c0.3,9.8,0,9.2,1.1,9.6
				c0,0.1,0,0.2,0,0.3c0,0.9,0.8,1.1,1.4,0.9c0.2,0.1,0.1,0,0.2,0.1c0.8,1.7,1.7,1.7,2.2,1.2c0.7,0.5,1.6,0.7,1.7-0.1
				c0-0.1,0-0.2,0-0.3c1.6,0.6,1.4-0.4,1.4-1.9c1.1,0.1,2,0,2-0.4C587.7,858.7,588.4,851.6,578.6,850.1z M565.9,861.8
				c4.2-3.8,4.8-3.2,10.3-3.5c0.2,0,0.3,0.1,0.5,0.2c1.1,3.1,1.5,9.3,1.6,12.6c-4.5,0.8-9,1.6-13.5,2.3
				C564.4,868.4,563.8,863.6,565.9,861.8z"/>
			<path class="st2" d="M496.8,876.4c-0.1-2.9-1.3-6-3.9-7.1c-0.9-0.4-2-0.6-3.1-0.7c-0.3-0.2-0.6-0.4-0.9-0.6
				c4.4-2.9,9.2-8.1,6.4-12.6c-0.4-3-2.3-4.3-5.3-4.7c-0.9-0.9-2.1-1.3-3.5-1.3c-5.2-1.1-8.6,1.3-13.9,4.3c-0.2,0.1-0.2,0.3-0.1,0.4
				c-0.1,0-0.6,0.3-0.6,0.4c-0.3-0.2-0.7-0.2-1-0.1c-0.2-0.2-0.5-0.3-1,0c-0.8-0.5-0.7-0.2-0.7,0.7c0,0-0.1,0-0.1,0
				c-0.6-0.4-0.5-0.2-0.5,0.4c0,0-0.1,0-0.1,0c0-0.2,0-0.2,0,0c-0.3-0.1-0.6-0.1-0.6-0.1c0,0.5,0,1.1,0,1.6
				c-0.2,0.1-0.2,0.1-0.2,0.4c-0.6-0.1-0.4-0.2-0.4,2.1c-0.2,17.3-1.3,14.3-0.9,21.9c0.1,0.2-0.1,0.2,0.2,0.5
				c0.1,0.1,0.4,0.3,0.7,0.4c0,0.2,0,0.3,0,0.4c-0.2,0.1-0.2,0.2,0.1,0.3c0,0,0,0.1,0,0.1c-0.3-0.1-0.6-0.1-0.6,0
				c-0.2,0.4,0.2,0.4,0.6,0.6c0,0,0,0.1,0,0.1c-0.7,0-0.9,0.7-0.5,0.8c0.2,0.1,0.4,0.2,0.7,0.2c-0.2,1.4,0.8,1.6,1.9,1.9
				c0.5,0.9,1.1,1.9,1.9,2.1c2.1,0.6,4.2,1.2,6.3,1.6c6.5,2.1,14.9,0,17.4-5.7C497.4,882.6,497.7,879.7,496.8,876.4z M486.2,857.5
				c0,0.3,0,0.6-0.1,0.8c-0.8,1.5-2.2,2.6-3.5,3.4c-0.7,0.8-0.7,0.8-1.5,1.3c-2.2,2.1-3.1,2.5-4.2,3c0-1.7,0-4,0-5.5
				C481.4,858.6,483.6,857.7,486.2,857.5z M487.4,879.2c-0.6,1.2-1.2,1.9-3.1,2.6c-2.9,1.2-5.4,1-8-0.1c0-0.1,0-0.1-0.1-0.2
				c-0.4-0.4-0.7-0.7-1.5-1c0.9-0.2,1.7-0.5,1.1-1.2c0.7-0.2,1.1-0.7,1.3-1.4c0.2,0.1,0.4,0.2,0.6,0.2c2.3-0.7,7.1-2.4,9.4-1.8
				c0.1,0.4,0.3,0.9,0.3,1.3c0,0,0,0.1,0,0.1C487.6,878.1,487.5,878.8,487.4,879.2z"/>
			<path class="st2" d="M629.9,883c0.3-0.1,0.5-0.2,0.8-0.3c1-0.4,0.9-1.3-0.1-1.6c-1.6-0.2-2.5-0.1-3.5,0c0-0.1-0.1-0.2-0.1-0.2
				c0.1-0.2,0.1-0.5,0-0.8c-0.3-0.7-1-0.6-1.6-0.3c-0.4-0.3-0.7-0.3-1.1-0.1c-0.3-0.2-0.6-0.2-0.8-0.1c-2.4,1.1-5,1.6-7.6,1.6
				c-0.1,0-0.2,0-0.2,0c0,0-0.1,0-0.1,0c-0.4,0-0.7-0.1-1-0.2c-1.7-1.1-3.7-3.1-4.2-5.4c-1.7-3-2.1-7.1-0.2-11.4
				c0.5-0.7,1-1.3,2.1-2.1c1.2-0.8,2.6-1.4,4-1.9c9.8-2.8,12.6,0.1,11.5-2.5c0.2,0,0.5,0,0.7,0c1.6,0.1-0.4-2.1-0.5-2.2
				c0,0-0.1-0.1-0.2-0.2c0.6,0,1.2,0,1.8,0c1.1,0,1.2-0.9,0.5-1.5c-0.2-0.1-0.5-0.2-0.8-0.4c0.7-0.1,1.3-0.3,1.4-0.9
				c0.1-1.3-2.8-1.2-3.4-1.2c-0.4,0-0.8,0-1.2,0c0.1-0.7-0.4-1.1-1-1.1c-0.2,0-0.4,0-0.6,0c-0.1-0.1-0.2-0.1-0.4-0.2
				c-0.4,0-0.9,0-1.3,0c-6-0.3-12.6,0.6-17.1,4.9c-7.6,5.6-8.8,19.4-3.6,26c1.3,2.2,3.1,4,5.4,5.1c1.5,1.1,3.2,2,5,2.4
				c0.6,0.1,1.2,0.2,1.8,0.3c3.8,0.9,7.9,0.7,11.6-0.6c1.1-0.3,2.2-0.7,3.3-1.2c1-0.4,0.3-1.2-0.2-1.7c0.7-0.2,1.3-0.5,1.9-0.8
				C631.8,884.1,630.9,883.3,629.9,883z"/>
			<path class="st2" d="M383.5,859.1c4.1-0.5,17.3-3.1,17.3-3.1s1.2-4.1,0.7-4.5c-0.8-0.5-2.1-0.5-3.2-0.5c0-0.5-0.4-1-0.9-1
				c-0.2,0-0.3,0-0.5,0c-0.3-0.3-0.6-0.2-1.1-0.2c-0.2-0.1-16.5,1.3-16.8,1.3c0.1,0,0.2,0.2,0.3,0.4c-0.3,0-0.5,0-0.8,0.1
				c-0.3-0.4-0.8-0.5-1.1-0.2c-0.2-0.3-0.6-0.4-0.6,0c0,0.2,0,0.4,0,0.6c0,0,0,0,0,0c-0.1-0.4-0.5-0.5-0.6,0.2c0,0,0,0,0,0
				c0,0,0,0,0,0c-0.1-0.3-0.3-0.5-0.3-0.8c0,0.3,0,0.7-0.1,1c-0.2,0.2-0.4,0.6-0.4,0.9c0,0-0.1,0.1-0.1,0.1
				c-0.8,0.1-0.7,0.2-0.8,0.7c-0.2,0-0.4,0-0.4-0.1c-0.7,10-1.4,20-2.4,30c0,0.1,0.1,0.1,0.1,0.2c-0.1,0.9-0.2,1.1,0.7,1.3
				c0,0.2,0,0.2,0,0.3c-0.1,0.1,0,0.1,0,0.2c0.1,0.4,0.3,0.7,0.6,0.9c0,1,0.5,0.8,1.4,0.8c0.4,0.8,0.8,1.6,1.7,1.6
				c0.2,0.1,0.5,0.1,0.6,0c0.4,0.4,0.8,0.6,1.1,0.6c6.7-0.2,19.4-1.3,19.4-1.3s0.3-1,0.2-1.5c0.2,0,0.4-0.1,0.6-0.1
				c1.3-0.2,1.8-3.7,1.1-4.1c-0.7-0.3-9.9-1-17.5-1c0.4-2.5,0.7-5.1,0.9-7.6c2.8-0.2,6.1-0.5,7.2-0.6c0.6,0,0.8-0.3,0.8-0.6
				c0.2,0,0.4,0,0.6,0c0.7-0.1,0.6-1,0.6-1s0.4,0,0.6-0.1c1.3-0.1,2-4.3,1.4-4.6c-0.6-0.3-6.6-0.8-10.9-1.1
				C383.1,864.4,383.1,864.8,383.5,859.1z M378.9,852.3C378.9,852.3,378.9,852.3,378.9,852.3c-0.1-0.1-0.1-0.2-0.1-0.3
				C378.8,852.1,378.9,852.2,378.9,852.3z"/>
			<path class="st2" d="M654,859.1c4.1-0.5,17.3-3.1,17.3-3.1s1.2-4.1,0.7-4.5c-0.8-0.5-2.1-0.5-3.2-0.5c0-0.5-0.4-1-0.9-1
				c-0.2,0-0.3,0-0.5,0c-0.3-0.3-0.6-0.2-1.1-0.2c-0.2-0.1-16.5,1.3-16.8,1.3c0.1,0,0.2,0.2,0.3,0.4c-0.3,0-0.5,0-0.8,0.1
				c-0.3-0.4-0.8-0.5-1.1-0.2c-0.2-0.3-0.6-0.4-0.6,0c0,0.2,0,0.4,0,0.6c0,0,0,0,0,0c-0.1-0.4-0.5-0.5-0.6,0.2c0,0,0,0,0,0
				c0,0,0,0,0,0c-0.1-0.3-0.3-0.5-0.3-0.8c0,0.3,0,0.7-0.1,1c-0.2,0.2-0.4,0.6-0.4,0.9c0,0-0.1,0.1-0.1,0.1
				c-0.8,0.1-0.7,0.2-0.8,0.7c-0.2,0-0.4,0-0.4-0.1c-0.7,10-1.4,20-2.4,30c0,0.1,0.1,0.1,0.1,0.2c-0.1,0.9-0.2,1.1,0.7,1.3
				c0,0.2,0,0.2,0,0.3c-0.1,0.1,0,0.1,0,0.2c0.1,0.4,0.3,0.7,0.6,0.9c0,1,0.5,0.8,1.4,0.8c0.4,0.8,0.8,1.6,1.7,1.6
				c0.2,0.1,0.5,0.1,0.6,0c0.4,0.4,0.8,0.6,1.1,0.6c6.7-0.2,19.4-1.3,19.4-1.3s0.3-1,0.2-1.5c0.2,0,0.4-0.1,0.6-0.1
				c1.3-0.2,1.8-3.7,1.1-4.1c-0.7-0.3-9.9-1-17.5-1c0.4-2.5,0.7-5.1,0.9-7.6c2.8-0.2,6.1-0.5,7.2-0.6c0.6,0,0.8-0.3,0.8-0.6
				c0.2,0,0.4,0,0.6,0c0.7-0.1,0.6-1,0.6-1s0.4,0,0.6-0.1c1.3-0.1,2-4.3,1.4-4.6c-0.6-0.3-6.6-0.8-10.9-1.1
				C653.6,864.4,653.6,864.8,654,859.1z M649.5,852.3C649.4,852.3,649.4,852.3,649.5,852.3c-0.1-0.1-0.1-0.2-0.1-0.3
				C649.4,852.1,649.4,852.2,649.5,852.3z"/>
			<path class="st2" d="M451.8,852.3c-0.1-1.3-2.7-1-4.8-1c-0.2-0.9-0.5-1.3-1.5-1.1c-0.4-0.4-1-0.2-1.3,0.2
				c-0.7-0.5-0.6-0.2-0.5,0.5c-0.1,0-0.2,0.1-0.2,0.1c-0.2-0.2-0.4-0.2-0.4-0.2c0,0.4,0.1,0.9,0.1,1.4c-0.1,0.2-0.2,0.3-0.2,0.6
				c-0.1,0-0.3,0.1-0.4,0.2c-0.4-0.3-0.7-0.3-1-0.1c-0.9-0.4-1.1,0.1-1.3,0.8c-0.4-0.1-0.4,0.1-0.5,0.4c-0.3-0.1-0.5-0.1-0.5,0
				c-0.1,0.3-0.2,0.6-0.3,1c0,0-2.7,9.3-6.8,20.9c-1.5-2.9-6.1-12.7-9.5-20.6c-0.2-0.2-0.5-0.4-0.8-0.5c0-1.6-1.9-1.4-3.6-1.6
				c-0.2,0-0.6-0.1-1.1-0.1c-0.1-0.8-0.5-1.2-1.5-1c-0.3-0.3-0.8-0.2-1.1,0c-0.6-0.5-0.5-0.2-0.5,0.5c-0.1,0-0.1,0-0.2,0
				c-0.4-0.6-0.4-0.2-0.4,0.4c-0.1,0-0.1,0.1-0.2,0.1c-0.3,0.1-0.6,0.4-0.6,0.8c0,0.1-0.1,0.1-0.1,0.2c-0.4,0.1-0.4,0.2-0.3,0.9
				c-0.2,0-0.4,0.1-0.4,0.2c0,10.4,0,20.9,0,31.3c0,0.1,0,0.1,0.1,0.1c0,0.3,0,0.6,0,0.9c0,0.2,0.4,0.3,0.8,0.4c0,0.1,0,0.2,0,0.4
				c0,0.6,0.2,0.9,0.7,1c0.1,0,0.3,0,0.5,0c0,0,0,0,0.1,0c0.1,0,0.1,0,0.2,0c0.4,0.7,0.9,1.3,1.3,1.5c0.4,0.2,0.8,0.1,1-0.2
				c0,0,0.1,0.1,0.1,0.1c0.3,0.2,2.1,1.5,2.1,0.1c0-0.1,0-0.3,0-0.4c1.6,0.6,1.3-0.6,1.3-2.2c1.8,0.2,1.4-0.4,1.4-2.3
				c0.2-0.1,0.3-0.3,0.3-0.5c0-2.7,0-5.5,0-8.2c0.8,1.6,5,9.6,5.8,10.1c0.7,1.1,1,2.1,2.1,1.4c0,0,0,0,0,0c0.5,0.8,1.2,1.7,2,1.1
				c1,0.7,1.7,0.3,1.9-0.2c0.2,0.1,0.4,0.2,0.7,0.3c1,0.1,1.3-0.6,0.8-1.4c-0.2-0.3-0.3-0.6-0.5-0.9c1.6,0.2,3.1,0.2,2.3-1.2
				c0.2-0.3,0.3-0.7,0.5-1c0.9,0,1.7-0.1,2-0.8c1.4-3.8,2.8-7.7,4-11.6c0.9,17.6,0.3,15.8,1.4,15.9c0,0,0.1,0,0.1,0
				c0,1-0.1,1.7,1.1,1.3c0.1,0,0,0,0.1,0c0.4,0.7,1.4,1.1,2,0.8c0.7,0.4,1.4,0.5,1.6-0.1c2,0.7,1.8-0.4,1.9-1.5c2.5,0.2,2-0.5,2-2.6
				C454.4,886.1,453.1,864.2,451.8,852.3z"/>
			<path class="st2" d="M542.2,887.3c-0.5-6.7-3.1-12.9-9-16.2c1.2-1.1,2.3-2.3,3-3.8c2.3-2.7,3.3-6.1,1.6-9.3
				c-0.4-3.6-3.5-5.6-7.2-6.4c-2.1-1.4-5.2-1.9-7.3-1.9c-3-0.3-5.9,0.7-8.6,1.9c-0.2-0.6-0.7-0.6-1.3-0.5c-0.3-0.4-0.9-0.2-1.2,0.1
				c-0.6-0.5-0.5-0.2-0.5,0.5c-0.1,0-0.1,0-0.2,0.1c-0.5-0.6-0.4-0.2-0.4,0.6c0,0,0,0,0,0c-0.3,0.1-0.5,0.4-0.6,0.9
				c-0.7,0.2-0.5,0.2-0.5,0.9c-0.2,0-0.4,0-0.4,0.1c0,0.4,1.3,33.1,1.5,33.5c0.1,1.1-0.1,1.2,0.8,1.3c0,0.2,0,0.3,0,0.5
				c0,0.7,0.7,0.9,1.2,0.8c0.1,0,0.1,0,0.2,0c0.6,0.9,1.4,1.8,2.2,1.1c0.9,0.7,2.1,1.1,2.1-0.1c2.1,0.9,1.7-0.4,1.6-2.1
				c1.8,0,1.5-0.3,1.4-2.2c0.2-0.2,0.3-0.3,0.3-0.6c-0.2-3.4-0.3-6.8-0.4-10.1c0.3,0.1,0.6,0,0.9-0.1c0.2,0,0.3,0,0.5,0.1
				c0.6,0.3,0.8,0.3,1.2,0.2c1.8,0.2,3.6,0.9,5.2,1.9c0.8,1,3.4,3.2,4,10.8c0,0.3,0.3,0.5,0.7,0.6c0.1,1,0.2,1.7,1.4,1.4
				c0.1,0.1,0.2,0.1,0.3,0.1c0.4,0.7,0.9,1.4,1.3,1.6c0.4,0.2,1,0.2,1.2-0.2c0.4,0.3,2.1,1.6,2.1,0.3c0-0.2,0-0.4,0-0.6
				c1.5,0.6,1.3-0.5,1-2.3c2,0.4,1.7-0.2,1.5-2C542.1,887.8,542.3,887.6,542.2,887.3z M524.4,858.7c1.3,0,3,0.1,4.3,0.5
				c0.3,0.4,0.2,1.3,0.2,1.8c-1,2.4-2.7,4-8.1,6.4c0,0-0.6,0-0.6,0c-0.1-2.7-0.2-5.4-0.3-8.1C522.4,859.2,523.1,858.9,524.4,858.7z"
				/>
		</g>
	</g>
</g>
</svg>
