<svg id="INDEX" xmlns="http://www.w3.org/2000/svg" viewBox="0 0 87 52"><defs><style>.cls-1{fill:#00aeef;}</style></defs><title>word</title><path class="cls-1" d="M77.32,15.39a4.14,4.14,0,0,0-2.75-.54l-.64-.58c-.12-.49-1.29-1-1.73-1.25.44-.21.83-.57.4-1.09-1-1.84-3.16-2.58-5.63-3a12.55,12.55,0,0,0-6.06-1.79,20,20,0,0,0-2.72-.2C54,6.82,50.09,8.82,47,11.69c-6.77,6.26-9.68,19.7-.6,28a21.7,21.7,0,0,0,4.46,2.92c6.85,4.28,21.84,3.83,27.94-7.5a14.31,14.31,0,0,0,3.27-7.32C82.61,22.43,82.67,20,77.32,15.39Zm-9.63,2.3a.4.4,0,0,0,.07.4c.24.18.46.37.68.56-.09,2.14.62,1,3,4.1.08.26.89,2.6.91,2.87C72.1,32,62.6,38.54,56.21,36.46c-7.07-5.16-6.34-13-3.85-16.27C57.68,14.64,60.19,16,67.69,17.69Z"/><path class="cls-1" d="M40.69,8.18C39.91,8.07,39.11,8,38.32,8a.77.77,0,0,0-.22-.24c.08-1.25-.63-1-1.72-1a.44.44,0,0,0-.28-.14h-.9c-.47-.21-28.54,0-29.06,0-.24,0-.16.29,0,.62-.57,0-.83-.1-.7.3H4.72c.24,0,.48.23.72.48l0,0a1.13,1.13,0,0,0-.57.93c-.56.17-1.1.09,0,.14a1.18,1.18,0,0,0,0,.16.7.7,0,0,0-.36.18c-.1.14-.31.34.08.34H4.7s0,0,0,.05H4.14c-.26,0-.28.16,0,.26a3.39,3.39,0,0,0,.43.11.76.76,0,0,0,.06.4H4.52c-.31,0-.63,0-.52.42.05.18.41.24.75.26a1.17,1.17,0,0,0-.09.24c-.13.48.15,1.36.72,1.4l1,.08c.48,1,1.21,2.35,2,2.4,3.08.27,6.16.46,9.24.62Q17,28.25,15.9,40.51a.41.41,0,0,0,.11.28c-.07.87-.2,1.27.69,1.53,0,1.53.74,2,1.41,1.78a.88.88,0,0,0,.74.33c.93,1.53,1.14,2.08,2,2.45a.69.69,0,0,0,.82-.45c0-.2,0-.41,0-.61,1.3.83,1.27,0,1.33-1,1.19.37,1-.59,1.14-2.28,1.64.26,1.36-.29,1.53-2.33.59-.69,1.77-22.32,1.85-24,10.17.12,10.54.2,10.55-.8,1,0,1.7,0,1.23-1.2H40c1.26,0,.32-1.44-.56-2.3h1.74c1.08,0,1.28-.85.52-1.5-.28-.15-.56-.28-.84-.41C43.8,9.92,42.47,8.15,40.69,8.18Z"/></svg>