<svg id="INDEX" xmlns="http://www.w3.org/2000/svg" viewBox="0 0 65 52"><defs><style>.cls-1{fill:#00aeef;}</style></defs><title>love</title><path class="cls-1" d="M16.85,9.95c.09-1.3-2.86-1.24-3.48-1.28-.24,0-.83-.11-1.47-.14a1.15,1.15,0,0,0-1.28-1,.7.7,0,0,0-1.09.16c-.6-.54-.5-.32-.56.4a.28.28,0,0,0-.19.13c-.38-.4-.3-.36-.38.57A.93.93,0,0,0,8,9.48L7.22,9.4c0,.38-.06.75-.09,1.13-.41,0-2.67,30.73-2,31.29,0,1-.19,1.16.77,1.32,0,.95.18,1.61,1.24,1.37a.45.45,0,0,0,.27.06c.61,1,1.6,2.19,2.39,1.3.86.73,2.06,1.31,2.14.18l0-.37c1.56.58,1.32-.5,1.34-2.16,1.75.18,1.41-.44,1.44-2.37a.72.72,0,0,0,.22-.51C15.11,30.39,16.15,20.17,16.85,9.95Z"/><path class="cls-1" d="M55.13,24.74c-.07-.64-1.34-.71-1.9-.71A13.4,13.4,0,0,0,51,23c-.3-.68-.87-.54-1.61-.53-1.88-.4-8.31-.32-12.39-1.39L36.94,21l-.47-1.54a4.08,4.08,0,0,1,1.21-2c4.41-2.31,10.19-2.8,15-3.53a.79.79,0,0,0,.62-.37c.88-.13,1.19-.73,1-1.27l1.11-.14c.82-.1,1-1.15.09-1.74a.87.87,0,0,0,.34-.51C56.13,8.6,54.35,8.78,53,8.79c0-.46-.34-1.16-.75-1.18-.23,0-.46-.06-.7-.09a11.84,11.84,0,0,0-3.5-.21c-.2-.88-1.53-1-2.41-.86-.07-.42-.37-1.1-.8-1l-.5.09a.62.62,0,0,0-.44-.25L43,5.38c-.43-.21-5.09.51-8.27,2.35-2,1.19-7.89,5.53-8.49,10A7.09,7.09,0,0,0,25.74,21a4.69,4.69,0,0,0,1.24,4,5.53,5.53,0,0,0,3.65,3.13,7.71,7.71,0,0,0,4.72,1.52c2,.28,8,.21,10,.17a3.38,3.38,0,0,0,1.42.29,16.29,16.29,0,0,0,2.51.27l.22.21a10.19,10.19,0,0,1,.66,2c-1.8,6-6.91,4.9-7.91,5.19l-.94,0c-6.09-1.3-5.3-3.38-7.6-2a1.44,1.44,0,0,0-1.52.13c-.84-.44-1.52.22-1.62,1a1.53,1.53,0,0,0-.9.1c-.21.18-.35.47,0,.64l.31.15a.84.84,0,0,0,.06.35c-1.18.46-.76.55-.46.7a.45.45,0,0,0,0,.3,1.34,1.34,0,0,0,0,.14c-.44-.25-.57-.16,0,.33h0a.67.67,0,0,0,.24.38.32.32,0,0,0,0,.37c-1.15,0-.48.26.61.76-1,.75.29,1.17,1.73,1.8C33.7,44.34,41,47,47,45.35c3.51-.59,4.48-1.71,5.48-2.11a9.75,9.75,0,0,0,2.65-1.58C62.05,38.6,62.07,27.09,55.13,24.74Z"/></svg>