<svg xmlns="http://www.w3.org/2000/svg" xmlns:xlink="http://www.w3.org/1999/xlink" viewBox="0 0 329.21 300"><defs><style>.a{fill:none;}.b{fill:#00a6e9;}.c{fill:#0082c3;}.d{clip-path:url(#a);}</style><clipPath id="a"><rect class="a" x="265.84" y="42.85" width="48.58" height="41.89"/></clipPath></defs><title>logo</title><path class="b" d="M201.27,162.09l.34-.2c.77-.46.86-1.22-.07-1.59a10.94,10.94,0,0,0-2.53-.11c-.25,0-.51,0-.76.05h0a.81.81,0,0,0,0-.88c-.33-.63-.9-.6-1.44-.37a.82.82,0,0,0-.94-.17l-.06,0a1,1,0,0,0-.92-.13A89.92,89.92,0,0,1,180.65,166a19.16,19.16,0,0,0,1.45-2.35,19.45,19.45,0,0,0,3.84-11.09c1-6.81-1.39-13.75-4.68-19.72-.37-.67-3.22-.37-3.5-.35h0c-.18-.34-.35-.68-.54-1-.35-.64-1.07-.58-1.77-.29a.85.85,0,0,0-1-.06.83.83,0,0,0-1.09,0l-1,1a.53.53,0,0,0-.32.06c-9.37,9.23-18.67,18.58-28.82,27-.69.54-1.37,1.09-2.07,1.61q.95-3.09,1.68-6.25c1.5-6.2,2.78-12.42,4.5-18.56.16-.56-.39-1-.92-1.22l.28-1c.33-1.24-3.05-1.28-4.07-1.27,0-.54-.28-1.1-.88-1.09l-.47,0a.65.65,0,0,0-.44-.23l-.85,0-.09,0a12.22,12.22,0,0,0-5.31,1.26s.08.08.17.21l-.71.31s.23.38.49.77a1,1,0,0,0-.08.15,1.27,1.27,0,0,0-.41.68c-.32.12-.65.25-1,.4-.17.07,0,.14.15.18l-.57.23c.15-.07.43.07.73.24a.42.42,0,0,0-.09.36l-.56.23c-.14.06.52.33,1.1.46,0,0,0,0,0,.06h0a.9.9,0,0,0-.36,1.27c.3.48.86.44,1.37.3.35.83.92,1.58,1.42,1.69-1.05,4.32-2,8.66-3,13q-.5,2.2-1.11,4.37c-.28.91-.57,1.82-.89,2.72a42.74,42.74,0,0,1-3.82,8.24s.08.08.22.14c-.2.37-.4.73-.61,1.1l.06,0,.33,0c-.2.36-.39.72-.59,1.07,0,.07.17.17.46.26-.11.2-.2.41-.31.61s.34.49.86.53l0,.05c-.55,1.07.33,1.37,1.12,1.28a.66.66,0,0,0,.27.09c.49.94,1.24,1.81,1.74,1.64l.63-.2c.49.48,1,.89,1.45.75,1.4-.46,2.84-.86,4.19-1.45a34.58,34.58,0,0,0,3.64-1.88c.33-.16.66-.32,1-.5a49.43,49.43,0,0,0,5.38-3.61c1.23-.91,2.41-1.87,3.58-2.85l0,.08a.78.78,0,0,0,0,.21c-.17,0-.28,0-.21.15l.21.51,0,.1c-.6-.23-1.28-.3-1,.29l.22.4c-.26.13-.38.38-.16.79a15.73,15.73,0,0,0,1.2,2,8.79,8.79,0,0,0,2.51,3.25,7.77,7.77,0,0,0,1.28.79,7.64,7.64,0,0,0,.69.77,8.5,8.5,0,0,0,2.2,1.56c3.57,2,8,1.91,12,1.64,1.22-.08,2.47-.16,3.69-.32a27.75,27.75,0,0,0,4.44-.57,25.92,25.92,0,0,0,4-1.52c.91-.37,1.8-.78,2.69-1.2,5.4-2,10.41-5.39,15.21-8.38a.85.85,0,0,0,.5-.75l2-1.19c1.1-.65-.41-1.4-1.09-1.68m-49.19,2.06.12-.1.15.25a.54.54,0,0,0-.27-.15M176,153.77a19.94,19.94,0,0,1-3.84,7.23,9.67,9.67,0,0,1-1,1.15c-2.46,1.74-5.2,2.25-8.22,2.84-1.24.24-2.6.53-4,.66a4.29,4.29,0,0,1-.28-.46c-.33-.53-1.93-.79-3.36-.71a5.36,5.36,0,0,1-.63-.78c-.21-.33-.67-.33-1.1-.15a.73.73,0,0,0-.6-.17.66.66,0,0,0-.14.07c1.27-1.1,2.53-2.22,3.8-3.35,6.26-5.55,12.28-11.35,18.24-17.21a28.54,28.54,0,0,1,1.22,5.72,22.65,22.65,0,0,1-.14,5.15"/><path class="b" d="M141.11,120.13l-.15.78c0,.2.32.35.74.42l0,.26A1.15,1.15,0,0,0,143,123a.94.94,0,0,0,.28.08,9.07,9.07,0,0,0,1.25,1.72c.39.38,1.25,1.1,1.62.16l0-.06c.6.5,1.55,1.08,1.75,0l.13-.67c.44.09.82,0,.94-.69l.29-1.56c.63.06,1.15-.05,1.24-.54l.77-4.06a.76.76,0,0,0,0-.25l.36-1.95c.24-1.27-3.41-.92-3.73-.91h-.3a.84.84,0,0,0-.25-.29l0-.06c.31-1-.84-1.19-1.9-.93a1.39,1.39,0,0,0-.95-.15c-.36-.28-.72-.4-.8,0l-.15.75c-.26-.18-.48-.23-.52,0l0,.21a.87.87,0,0,0-.51-.23.86.86,0,0,1,.5.28l0,.14a.28.28,0,0,0,0,.08v.09a.8.8,0,0,0-.16.18,1,1,0,0,0-.46.65c-.2,0-.34.1-.36.18l-.15.81c-.08,0-.15.08-.16.15l-.72,3.88s.08.1.2.15"/><rect class="a" x="126.84" y="112.55" width="75.91" height="65.29"/><rect class="a" x="126.84" y="112.55" width="75.91" height="65.29"/><path class="b" d="M73.14,30c-.54.49-1.06,1-1.56,1.52a.81.81,0,0,0-.65-.16c-.71-1.62-1.94-.75-2.77.59a1.47,1.47,0,0,0-.76.23A1.45,1.45,0,0,0,67,33a1.17,1.17,0,0,0-.83,1.57c.07.15.13.31.2.46a.75.75,0,0,0-.22.48c-.35.23-.61.46-.55.62,3.87,9.92,7.26,19.68,8.83,30.27.16,1.06.38,2.37.54,3.76-2.21-1-4.38-2-6.5-3.13C64.66,65,61,62.88,57.33,60.79a113.63,113.63,0,0,0-11-5.45c-.79-.35-3.16,1.33-4.77,3l-1-.44c-.64-.26-1.13.4-1.38.92-.71,0-1.23.55-.4,1.12a5.56,5.56,0,0,1-1.07-.11l.71.41c-.1.16,0,.46.16.75a5.1,5.1,0,0,1-.94-.2l.9.53a1.47,1.47,0,0,0,.1.45A1.36,1.36,0,0,0,39,63s0,0,0,.05c-.26.49-.45.94-.35,1l.94.56s0,.06.08.09l.12.07c-.31.33-.56.59-.61.56,9.47,5.83,19.08,11.74,29.27,16.22,2.2,1,4.19,2.41,6.14,2.39a11.6,11.6,0,0,0,2.41.69,1.85,1.85,0,0,0,1.67-.49,3.74,3.74,0,0,0,.34-.33l.07,0a6.41,6.41,0,0,0,2.8.4,2.8,2.8,0,0,0,2-1.29,3,3,0,0,0,2.36-1c.91-1.09,1.38-4.18,1.47-5a28.58,28.58,0,0,0,.09-4.55,39.52,39.52,0,0,0-.5-6.55c-.26-1.77-.59-3.51-1-5.23-1.65-10.14-4.93-19.52-8.64-29.05a.86.86,0,0,0-1-.49l-.54-1.4c-.65-1.67-2.09-.39-3,.39"/><rect class="a" x="45.08" y="37.46" width="51.43" height="49.77" transform="translate(-23.54 62.24) rotate(-41.31)"/><rect class="a" x="45.08" y="37.46" width="51.43" height="49.77" transform="translate(-23.54 62.24) rotate(-41.31)"/><path class="b" d="M262.52,192.36a3.12,3.12,0,0,0-2,1.27c-.73.72-1.42,1.49-2.08,2.27a1,1,0,0,0-.42,0c-.46-.39-1.15-.69-1.52-.21l-.9,1.16a.56.56,0,0,0-.36.18l-.71.92a.71.71,0,0,0-.23.17q-11.39,14.72-22.57,29.61c-.18.24.17.39.66.46l-.51.66c-.09.11,0,.21.27.29l-.59.75a1.62,1.62,0,0,1,1.06-.37v.05a1.46,1.46,0,0,0,.51,1.32,2.53,2.53,0,0,1-.39.75l.53-.63.16.12a.91.91,0,0,0-.09.51c.07.21.11.59.41.19l.11-.15s0,0,0,.07l-.41.56c-.2.28-.05.42.23.24a4.36,4.36,0,0,0,.45-.36,1,1,0,0,0,.46.25l-.05.07c-.23.32-.45.68,0,.86.23.09.57-.23.86-.57a1.51,1.51,0,0,0,.18.29c.39.51,1.51.91,2,.35l.81-.9h0c1.44.32,3.36.6,4-.18,2.69-2.94,5.3-6,7.88-9q12.12,10.27,23.86,21a.53.53,0,0,0,.38.11l.71.64a1.11,1.11,0,0,0,1.4-.16c.66.52,1.68,1.07,2.42.59a1.21,1.21,0,0,0,.51-.64,1.76,1.76,0,0,0,.28,0,1.25,1.25,0,0,0,.64-.47c.65.07,1.28.11,1.84.15a2.91,2.91,0,0,0,2.24-.28.89.89,0,0,0,.19-1.19l-.59-.51c.84-.3,1.57-.81.72-1.55l-.69-.6c.56-.4.87-.92.15-1.55l-1.59-1.4c.69-.66,1.11-1.33.6-1.78l-1.79-1.61a.92.92,0,0,0-.29-.51q-11.16-10.37-22.82-20.17c2.57-3.28,5.1-6.6,7.55-10,.51-.66.33-1.13-.1-1.46l.51-.66c.66-.86,0-1.3-.77-1.53l.54-.7c1.25-1.62-2.45-1.28-2.65-1.25l-.15,0,1.38-1.78c.85-1.11.13-2-1.14-1.71-.37.16-.72.36-1.08.54.57-.83,1.46-2.45-.12-2.55"/><rect class="a" x="240.89" y="199.9" width="49.89" height="52.19" transform="translate(-75.16 299.94) rotate(-52.6)"/><rect class="a" x="240.89" y="199.9" width="49.89" height="52.19" transform="translate(-75.16 299.94) rotate(-52.6)"/><path class="b" d="M311.54,123.38c-.89-5.39-3-10.61-7.28-14a20.5,20.5,0,0,0-4.6-3.4,17.53,17.53,0,0,0-9-4c-.35,0-.73,0-1.11,0a12.78,12.78,0,0,0-6.7.21c-3.25,1-5.25,3.13-7.41,5.64a5.07,5.07,0,0,0-.66,3.38l-.71.78a1.12,1.12,0,0,0-.67.57c-.3.51-.58,1-.87,1.55-.26-.53-.7-1-1.34-.49a5.5,5.5,0,0,0-2.13,2.06,18.13,18.13,0,0,0-1.57,4.84A12.21,12.21,0,0,0,266,124a13.34,13.34,0,0,0-.66,3.9c-.06.45-.11.9-.14,1.36a12.47,12.47,0,0,0-.1,2A15.71,15.71,0,0,0,266,137a18.91,18.91,0,0,0,3.11,5.52,16.46,16.46,0,0,0,1.83,2.42A22.1,22.1,0,0,0,280.5,151a19.75,19.75,0,0,0,4,1.13,17.67,17.67,0,0,0,7.15.41l.33-.07c.31,0,.62,0,.93-.06a17.09,17.09,0,0,0,8-3.29,17.8,17.8,0,0,0,4.41-3.5,17.47,17.47,0,0,0,3.12-4.8c.15-.22.32-.44.47-.67a18.67,18.67,0,0,0,2.72-8.68A24.38,24.38,0,0,0,311.54,123.38Zm-10.25,10.25a18.93,18.93,0,0,1-3.67,3.81,15.66,15.66,0,0,1-10.06,3.12,18.41,18.41,0,0,1-4.18-1.14c-.54-.21-1.06-.46-1.58-.72l-.45-.34a18.09,18.09,0,0,1-4.2-5.73,14.48,14.48,0,0,1-.6-1.67c0-.33,0-.67,0-1,0-3.53,1-7,1.79-10.39a.49.49,0,0,0,.49-.09c.22-.29.46-.56.69-.83a2.71,2.71,0,0,0,1.81-.36,16.62,16.62,0,0,1,3.21-3.33l3.32-1.1h.2a13,13,0,0,1,1.79.2,18.78,18.78,0,0,1,6.06,3.66,22.25,22.25,0,0,1,1.93,2,25.48,25.48,0,0,1,3.75,8.21,19.31,19.31,0,0,1,.45,2.51A15.26,15.26,0,0,1,301.29,133.63Z"/><rect class="a" x="265.08" y="101.55" width="46.81" height="51.24"/><rect class="a" x="265.08" y="101.55" width="46.81" height="51.24"/><path class="b" d="M41.76,92.39a14.06,14.06,0,0,0-7.37.23c-3.58,1.14-5.78,3.45-8.16,6.21-.69.8-.8,2.27-.72,3.72l-.78.86A1.23,1.23,0,0,0,24,104c-.33.56-.64,1.13-1,1.71-.29-.59-.78-1.12-1.47-.54a6.06,6.06,0,0,0-2.35,2.27,20,20,0,0,0-1.72,5.33,13.44,13.44,0,0,0-1.68,3.88,14.68,14.68,0,0,0-.73,4.29c-.07.5-.12,1-.16,1.49a13.7,13.7,0,0,0-.11,2.18,17.29,17.29,0,0,0,1,6.37,20.8,20.8,0,0,0,3.43,6.08,18.09,18.09,0,0,0,2,2.66,24.33,24.33,0,0,0,10.53,6.73,21.74,21.74,0,0,0,4.36,1.25,19.45,19.45,0,0,0,7.88.45l.36-.08c.34,0,.68,0,1-.07a18.81,18.81,0,0,0,8.79-3.62A19.6,19.6,0,0,0,59,140.57a19.23,19.23,0,0,0,3.43-5.29c.17-.25.36-.49.51-.74A20.56,20.56,0,0,0,66,125a26.84,26.84,0,0,0,0-9c-1-5.93-3.31-11.68-8-15.45a22.56,22.56,0,0,0-5.06-3.74A19.3,19.3,0,0,0,43,92.44c-.39,0-.8,0-1.22-.05m-14.4,30.88c0-3.88,1.13-7.68,2-11.44a.54.54,0,0,0,.54-.1c.24-.32.5-.61.76-.91a3,3,0,0,0,2-.39,18.3,18.3,0,0,1,3.53-3.67l3.66-1.21H40a14.36,14.36,0,0,1,2,.22,20.67,20.67,0,0,1,6.67,4,24.5,24.5,0,0,1,2.12,2.15,28,28,0,0,1,4.13,9,21.22,21.22,0,0,1,.49,2.76,16.81,16.81,0,0,1-.76,3.6,20.85,20.85,0,0,1-4,4.19,17.24,17.24,0,0,1-11.07,3.44,20.26,20.26,0,0,1-4.6-1.26c-.59-.24-1.17-.5-1.74-.79l-.5-.38a19.91,19.91,0,0,1-4.62-6.31,15.92,15.92,0,0,1-.66-1.84c0-.37,0-.74-.05-1.11"/><rect class="a" x="14.8" y="92.01" width="51.53" height="56.4"/><rect class="a" x="14.8" y="92.01" width="51.53" height="56.4"/><path class="b" d="M64.29,161.43c-.18.44-.31.88-.46,1.33l-.31-1.24c-.38-1.53-1.86-.94-2.23.14a11,11,0,0,0-.08,4.93h0l-.12-.08c-.6-.3-2.18.16-2,1.08l.27,1.15a1,1,0,0,0-.39.88l.16.67a1.31,1.31,0,0,0-.21,1c.94,3.92,2.12,8.08,2.3,12.13,0,.69.05,1.4.06,2.12a7.33,7.33,0,0,1-3.93,2.21,25.48,25.48,0,0,1-5.28.28,143.7,143.7,0,0,0-22,0l-7.34-.13A2.09,2.09,0,0,0,21,189l-1.46.2c-1.71.16-1.66,2.54-1.78,3.8,0,.33-.13,1-.15,1.67a1.4,1.4,0,0,0-1.37,1.12,1.48,1.48,0,0,0,0,.47.8.8,0,0,0-.23.28c-.17.39,0,1.13.53,1.15h.09c-.38.42-.65.81-.52.82l.88,0a.31.31,0,0,0,.29.21h0c-.3.3-.51.54-.47.54l1.15,0a1.23,1.23,0,0,0,.88.48c-.23.54-.44,1-.64,1l1.49,0s0,0,0,0h.54c0,.33,0,.57.06.57,11.4.23,22.87.69,34.28.64a27,27,0,0,0,2.84-.11,12.8,12.8,0,0,0,2.82-.32,10.33,10.33,0,0,0,4.05-1.91,8.18,8.18,0,0,0,2.83-1.89,9.22,9.22,0,0,0,1.9-3.17l.1-.11a12.35,12.35,0,0,0,2.54-6.7c1.95-6.65-.59-14.69-2.18-21a1.4,1.4,0,0,0-.23-.5l-.47-1.71c-.29-1.07-1.11-.79-1.79-.31q-.28-1.22-.58-2.46c-.33-1.36-1.34-1.72-2.19-.46"/><rect class="a" x="15.93" y="160.59" width="56.51" height="41.46"/><rect class="a" x="15.93" y="160.59" width="56.5" height="41.46"/><path class="b" d="M266.31,168.06c-1.56-.28-1.87,3.29-2,4-.05.28-.24,1-.36,1.75a1.4,1.4,0,0,0-1.36,1.41.72.72,0,0,0-.22.22.94.94,0,0,0,.27,1.12c-.32.29-.52.55-.35.58l.76.15a.34.34,0,0,0,.13.24c-.24.18-.4.33-.33.35l1,.19a1.13,1.13,0,0,0,.77.63c-.11.48-.2.88-.2.88l1.35.25c0,.14,0,.24.07.25,12.38,2.3,24.75,4.89,37.26,6.36a.28.28,0,0,0,.21-.1l1.05.13c.27,0,.5-.39.64-.89l.35,0c.71.08,1.21,0,1.43-.74a1.58,1.58,0,0,0,0-.62l0,0a1,1,0,0,0,.08-.28,5.08,5.08,0,0,0,2-1.39,1.07,1.07,0,0,0-.09-1.32l.07-.07c.4-.38,2-2.2.42-2.5l-.45-.08c.37-.74.52-1.56-.56-1.68l-1.87-.23c.19-.91.17-1.7-.49-1.77l-2.18-.27a.88.88,0,0,0-.59-.34c-12.36-1.52-24.58-4.1-36.83-6.29"/><rect class="a" x="278.97" y="153.53" width="14.37" height="47.8" transform="translate(78.96 442.82) rotate(-83.82)"/><rect class="a" x="278.97" y="153.53" width="14.37" height="47.8" transform="translate(78.96 442.82) rotate(-83.82)"/><path class="b" d="M221.19,277.74l-.1,0c.34-.14.69-.26,1-.41,1.24-.57,1.18-1.63-.11-2.07a19.12,19.12,0,0,0-3.81-.07c-.24,0-.49,0-.73.05a1.45,1.45,0,0,0-.2-.32,1.08,1.08,0,0,0,0-1c-.44-.92-1.33-.75-2.11-.43a1.14,1.14,0,0,0-1.26-.24l-.14.06a1.19,1.19,0,0,0-1.07-.18,24.82,24.82,0,0,1-9.94,2.12h-.31l-.15,0c-.47-.06-.91-.17-1.36-.26a14.87,14.87,0,0,1-3.26-2.87,7.94,7.94,0,0,1-2.2-4.09,14.13,14.13,0,0,1-1.8-6.8,25.71,25.71,0,0,1,.12-3.48,10.76,10.76,0,0,1,.75-2.6,15.28,15.28,0,0,1,.73-2c.28-.38.57-.74.88-1.1a17,17,0,0,1,1.9-1.58,19.29,19.29,0,0,1,5.14-2.46,60.24,60.24,0,0,1,7-1.52,50.24,50.24,0,0,1,7.23-.14c1.12,0,1-.8.72-1.61l.88,0c2.06.08-.5-2.76-.6-2.86l-.2-.2c.77,0,1.54,0,2.3.05,1.44.06,1.58-1.18.65-2-.32-.17-.65-.31-1-.46.92-.09,1.72-.38,1.76-1.15.09-1.67-3.62-1.52-4.41-1.56l-1.57-.06a1.31,1.31,0,0,0-1.32-1.46l-.77,0a1,1,0,0,0-.5-.2l-1.72,0c-7.77-.34-16.41.77-22.22,6.41a18.73,18.73,0,0,0-5.22,5.92,21.19,21.19,0,0,0-2.15,5.61,23.44,23.44,0,0,0-1.35,10,22.8,22.8,0,0,0,2.61,10.13,15.27,15.27,0,0,0,1.5,2.22,16.29,16.29,0,0,0,7,6.64,17.12,17.12,0,0,0,6.56,3.16c.79.18,1.58.32,2.39.43a27,27,0,0,0,15.09-.82,25.6,25.6,0,0,0,4.27-1.5c1.25-.57.45-1.56-.31-2.22a24.61,24.61,0,0,0,2.53-1c1.43-.67-.7-1.85-1.19-2"/><rect class="a" x="180.62" y="234.74" width="42.38" height="51.27"/><rect class="a" x="180.62" y="234.74" width="42.38" height="51.27"/><path class="b" d="M119.93,23c5.57-.66,23.61-4.24,23.61-4.24s1.66-5.63.91-6.08A8.49,8.49,0,0,0,140.1,12c0-.67-.49-1.43-1.19-1.38l-.62.05a.84.84,0,0,0-.64-.29l-.88.07a.57.57,0,0,0-.3-.11l-22.56,1.92c.08,0,.23.25.43.58l-1,.08a1,1,0,0,0-.6-.46,1.06,1.06,0,0,0-.94.17.56.56,0,0,0-.17-.18c-.31-.16-.64-.26-.69.24,0,.28,0,.56-.06.83h0c0-.2-.12-.35-.24-.39-.51-.17-.55.27-.59.68v0l0,0-.05,0a2.14,2.14,0,0,1-.35-1.07c0,.45-.05.9-.08,1.34a2.52,2.52,0,0,0-.58,1.2,1.38,1.38,0,0,0-.15.18c-.53.07-1,.19-1,.39s0,.34,0,.51l-.48-.07Q105.9,36.89,104,57.32c0,.09.08.18.19.26,0,.36-.06.73-.09,1.09s.45.6,1,.7c0,0,0,0,0,.07a3.19,3.19,0,0,0,0,.4c-.11.07-.07.19,0,.3a1.48,1.48,0,0,0,.82,1.18,1.41,1.41,0,0,0,0,.23c.15.9.65.94,1.45.88l.47,0c.48,1,1.22,2.2,2.09,2.18h.25a.85.85,0,0,0,.87,0,2.75,2.75,0,0,0,1.54.79c9.12-.25,26.49-1.83,26.49-1.83a4.5,4.5,0,0,0,.21-2.06l.83-.11c1.74-.21,2.46-5.1,1.51-5.54s-13.53-1.3-23.86-1.42c.52-3.45.92-6.9,1.18-10.35l9.88-.85c.77-.07,1-.42,1.08-.87.28,0,.56,0,.84-.06,1-.08.76-1.36.76-1.36l.86-.09c1.82-.15,2.77-5.8,1.87-6.27s-9-1.06-14.92-1.49c0-.84,0-1.68,0-2.51q.26-3.8.52-7.6"/><path class="c" d="M113.7,13.7h-.12a2.42,2.42,0,0,0-.08-.37l.2.38"/><rect class="a" x="104.03" y="10.33" width="40.61" height="55.05"/><rect class="a" x="104.03" y="10.33" width="40.61" height="55.05"/><g class="d"><path class="b" d="M306.27,42.85c-12.45.14-24.91.12-37.36.15-1.58,0-1.22,3.66-1.23,4.38,0,.07,0,.19,0,.32a.87.87,0,0,0-.46.39A1.15,1.15,0,0,0,266,49.6c0,.15.06.36.12.6a1,1,0,0,0-.26.43,1.57,1.57,0,0,0,.16.84c-.32.52-.38,1.08.39,1.08h.49a1.2,1.2,0,0,0,0,.19c-.22.33-.28.6,0,.6h.35c-.12.39-.22.71-.29.71h.81a1,1,0,0,0,.33.17c-.08.17-.16.29-.23.29l1.32,0h.42c0,.28.08.49.25.49,8.43,0,16.87-.06,25.31-.16-2.85,2.37-5.73,4.7-8.68,6.85a80.83,80.83,0,0,1-13.88,8.07,2.92,2.92,0,0,0-.66,2.09c0,.22,0,.44,0,.67l-2.89-.1c-1.58,0-1.47,3.5-1.53,4.29,0,.22-.11.84-.15,1.54-.67.08-1.14.33-1.18,1.1a2.41,2.41,0,0,0,0,.46.71.71,0,0,0-.17.22,1.16,1.16,0,0,0,.33,1.2c-.25.25-.39.45-.26.46l.72,0a.47.47,0,0,0,.1.21c-.22.15-.51.38-.22.39l.78,0a2.35,2.35,0,0,0,1.2.89h0l.16.08c.11.26.22.45.34.45h.7c0,.28.06.48.15.48q18.94.82,37.9.25a.23.23,0,0,0,.17-.11l1,0c.31,0,.49-.39.55-.85h.07c.74,0,1.53-.25,1.69-1a1.27,1.27,0,0,0,0-.53,1.41,1.41,0,0,0,.21-.27,1,1,0,0,0,.1-.48l.15-.09a12.12,12.12,0,0,0,2.29-1.79c.53-.85.15-1.39-.57-1.54.53-.8,1.08-2-.18-1.93l-.79,0c.17-.64.09-1.23-.81-1.21l-1.93.06c.13-.94.05-1.74-.6-1.73l-2,.05a.82.82,0,0,0-.71-.4c-5.32.15-10.64.2-16,.19,6.69-4.77,12.9-10.37,19.17-15.63.22-.18.17-.64,0-1.06a1.46,1.46,0,0,0,.19-.35l1.32-1.12c.65-.55,1.34-1.5.45-2.12a2.66,2.66,0,0,0,.93-1.73,1,1,0,0,0-.22-.58,1.17,1.17,0,0,0-.25-.82l.15-.21c.36-.49,1.3-2.23-.16-2.3h0c.39-.87.82-2.23-.57-2.19l-1.75,0c0-.91-.11-1.68-.77-1.67l-2.1,0a.91.91,0,0,0-.68-.29"/></g><rect class="a" x="265.84" y="42.85" width="48.58" height="41.89"/><path class="b" d="M164.88,254.31c-.12-1.68-.25-3.37-.43-5a22.9,22.9,0,0,0-2.18-8.17c-1.9-3.4-5.12-4.71-8.6-5.25a9.21,9.21,0,0,0-4.57-1.75,10.1,10.1,0,0,0-2.27-.3c-5.11-.76-10.87,2-14.88,5.57a20,20,0,0,0-6.26,7.14,13.93,13.93,0,0,0-1.38,4.2,16.12,16.12,0,0,0-.58,1.8,23.83,23.83,0,0,0-.43,7.29c0,.23,0,.46.07.69s0,.37,0,.56q1.2,12.68,2.66,25.34c0,.07.36.09.8.09.06.5.11,1,.16,1.49,0,.29.52.34,1,.25a1.08,1.08,0,0,0,.53.14c.26.58.7,1.2,1.2,1.29a1.59,1.59,0,0,0,.95-.25c.83.41,1.67.45,2-.31.87.2,1.54,0,1.53-.95,0-.26,0-.52,0-.78,2,.25,3.83.08,3.77-.56-.28-2.53-.54-5.05-.8-7.58q-.18-2.5-.37-5c5.57-.18,11.13-.52,16.67-1q.17,5.63.33,11.26c0,.29.51.61,1,.77q0,.22,0,.43a1.22,1.22,0,0,0,1.78,1.11,1,1,0,0,0,.21.07H157a4.14,4.14,0,0,0,1.29,1.67,1.21,1.21,0,0,0,1.48-.22l.09.07c.44.29,1.94,1,2-.24v-.32c.78.32,1.7.45,1.71-.68l0-1.72c1.4.16,2.48,0,2.47-.46C165.8,274.84,166.06,264.39,164.88,254.31ZM136.21,265c-.15-2.18-.28-4.36-.4-6.54a24.19,24.19,0,0,1,.22-4.77,10.89,10.89,0,0,1,.73-2.07q.39-.54.84-1.07h0a26.08,26.08,0,0,1,5.32-3.69,15.29,15.29,0,0,1,1.62-.37l6-.38c.21.05.38.14.58.2a28,28,0,0,1,1.15,5q.67,5.39.93,10.82Q144.72,263.69,136.21,265Z"/><rect class="a" x="123.19" y="233.66" width="42.86" height="56.01"/><rect class="a" x="123.19" y="233.66" width="42.86" height="56.01"/></svg>