<svg xmlns="http://www.w3.org/2000/svg" xmlns:xlink="http://www.w3.org/1999/xlink" viewBox="0 0 504 504"><defs><style>.a{fill:none;}.b{clip-path:url(#a);}.c{fill:#00a6e9;}.d{clip-path:url(#b);}.e{clip-path:url(#c);}.f{clip-path:url(#d);}.g{clip-path:url(#e);}.h{clip-path:url(#f);}</style><clipPath id="a"><rect class="a" x="192" y="336.78" width="34.21" height="43.82"/></clipPath><clipPath id="b"><rect class="a" x="232.87" y="342.85" width="29.27" height="39.68"/></clipPath><clipPath id="c"><rect class="a" x="271.9" y="338.13" width="32" height="43.11" transform="translate(-71.37 71.26) rotate(-12.57)"/></clipPath><clipPath id="d"><rect class="a" x="305.27" y="319.5" width="33.98" height="39.98" transform="translate(-144.18 378.78) rotate(-51.31)"/></clipPath><clipPath id="e"><rect class="a" x="316.44" y="281.05" width="29.27" height="39.68" transform="translate(9.04 611.44) rotate(-86.22)"/></clipPath><clipPath id="f"><rect class="a" x="313.59" y="241.38" width="36.99" height="38.23" transform="translate(-9.47 12.55) rotate(-2.13)"/></clipPath></defs><title>persevere</title><g class="b"><path class="c" d="M224.44,345.3a12.1,12.1,0,0,0-4.06-4.14,15.06,15.06,0,0,0-4.83-1.84,15.15,15.15,0,0,0-3.72-1.46,15.48,15.48,0,0,0-1.66-.31,15,15,0,0,0-1.58-.23,15.46,15.46,0,0,0-8,1,8.42,8.42,0,0,0-2.43-.31c-.17,0-.72-.08-1.32-.1-.08-.55-.28-.93-.89-1a1.25,1.25,0,0,0-.35,0,.58.58,0,0,0-.22-.17c-.24-.09-.79,0-.9.33-.27-.22-.49-.35-.48-.23s0,.41,0,.61a.36.36,0,0,0-.25.2c-.2-.19-.36-.32-.36-.27,0,.26,0,.52.06.78a.8.8,0,0,0-.48.65c-.39-.06-.73-.12-.74-.21,0,.42.07.83.11,1.24-.23,0-.4,0-.4,0,0,.3,0,.6.06.9,0,0,0,0,0,0,.33,4.91.6,9.82.83,14.73,0,.8.08,1.6.11,2.4q.5,8.83.32,17.67a.27.27,0,0,0,.07.17c0,.31,0,.61,0,.92s.37.43.79.52c0,.06,0,.12,0,.18,0,.59.12,1,.71,1.14a1.26,1.26,0,0,0,.52,0l0,0a.8.8,0,0,0,.25,0,4,4,0,0,0,1.26,1.42.89.89,0,0,0,1.07-.19h0c.3.25,2,1.41,2,.08,0-.1,0-.21,0-.31.66.26,1.41.38,1.4-.56,0-.5,0-1,0-1.51.76.07,1.41,0,1.41-.56s0-1.18,0-1.78a.7.7,0,0,0,.22-.51c.05-2.08.06-4.16.06-6.24,4.1-.37,8.45-.72,12-2.57a14,14,0,0,0,5-3.56A11.78,11.78,0,0,0,222.9,359c0-.07.06-.14.1-.21s.35-.38.52-.59a10,10,0,0,0,2.27-5.65,8.36,8.36,0,0,0,.42-2.06c.13-2.14-.74-3.4-1.76-5.2m-9.89,9.4a10.85,10.85,0,0,1-.85.91c-3.06,2.26-7,3.12-10.8,3.45,0-.61,0-1.22-.08-1.83q-.11-4.52-.46-9c.71-.29,1.42-.59,2.14-.85l4.76-.73a21.94,21.94,0,0,1,4.58,1.06l.42.09a11.05,11.05,0,0,1,1.2,1.25l-.9,5.65"/></g><rect class="a" x="192" y="336.78" width="34.21" height="43.82"/><g class="d"><path class="c" d="M244.33,351.95c4-.48,17-3.06,17-3.06s1.2-4.06.66-4.38a6.12,6.12,0,0,0-3.13-.47c0-.49-.36-1-.86-1l-.45,0a.6.6,0,0,0-.46-.21l-.64.05a.41.41,0,0,0-.21-.08L240,344.24c.06,0,.17.18.31.42l-.74.06a.74.74,0,0,0-.43-.33.76.76,0,0,0-.68.12.4.4,0,0,0-.12-.13c-.22-.12-.46-.19-.49.18,0,.2,0,.4,0,.6h0c0-.14-.08-.25-.17-.28-.36-.12-.4.19-.43.49v0l0,0h0a1.54,1.54,0,0,1-.25-.77c0,.32,0,.65-.05,1a1.81,1.81,0,0,0-.42.86l-.11.13c-.39,0-.72.14-.73.28s0,.25,0,.37l-.35-.05q-1,14.76-2.32,29.49c0,.07.05.13.14.19,0,.26,0,.52-.06.79s.33.43.73.51v.05a2.3,2.3,0,0,0,0,.29c-.08.05,0,.13,0,.21a1.07,1.07,0,0,0,.59.85,1,1,0,0,0,0,.17c.11.65.47.68,1,.64l.34,0c.34.72.88,1.58,1.5,1.57h.18a.61.61,0,0,0,.63,0,2,2,0,0,0,1.11.57c6.58-.18,19.09-1.32,19.09-1.32a3.24,3.24,0,0,0,.15-1.49l.6-.08c1.26-.15,1.77-3.67,1.09-4s-9.75-.94-17.2-1c.37-2.49.66-5,.85-7.46l7.12-.61c.56,0,.75-.3.78-.63l.61,0c.71-.06.55-1,.55-1l.62-.07c1.32-.11,2-4.18,1.35-4.52s-6.48-.77-10.75-1.07c0-.6,0-1.21,0-1.81q.19-2.74.38-5.48m-4.49-6.67h-.09a1.74,1.74,0,0,0-.06-.27l.15.27"/></g><rect class="a" x="232.87" y="342.85" width="29.27" height="39.68"/><g class="e"><path class="c" d="M306.88,371.27c-1.75-5.87-5.35-11.34-11.43-13.42-.22-.08-.45-.13-.68-.2a11.17,11.17,0,0,0,2-4.28,11,11,0,0,0,1.16-3.23,7,7,0,0,0-1.58-6,6.11,6.11,0,0,0-2-2.86,9.65,9.65,0,0,0-6.27-1.77,10.13,10.13,0,0,0-4.24-.59,12.38,12.38,0,0,0-3.15.34,16.62,16.62,0,0,0-7.88,3.65.83.83,0,0,0-1-.36,2.12,2.12,0,0,0-.39.14.62.62,0,0,0-.27-.12,1.1,1.1,0,0,0-.86.46c-.3-.15-.52-.2-.48,0l.15.6a.39.39,0,0,0-.14.1c-.17-.12-.5-.32-.43-.05l.18.71v0a.84.84,0,0,0-.35.94c-.27.17-.48.32-.45.41l.16.61c-.21.05-.36.11-.35.15q4.14,15.9,8.55,31.73s0,.05.07.08l.26.93c.05.18.42.21.82.16l.13.47a.94.94,0,0,0,1.34.55h0l.17,0a3.41,3.41,0,0,0,1.5,1,.92.92,0,0,0,.86-.39l.13.06c.39.17,2.15.7,1.85-.52l0-.08c.76.14,1.83.17,1.53-.87l-.42-1.49c.83-.2,1.38-.48,1.29-.79l-.46-1.65a.7.7,0,0,0,.14-.64c-.87-3.21-1.72-6.43-2.59-9.64a.87.87,0,0,0,.61-.14l.26-.16.47,0a1.25,1.25,0,0,0,1,0l.13-.08a11.72,11.72,0,0,1,5.36.74l.07,0A15.65,15.65,0,0,1,294,367.6a21.64,21.64,0,0,1,3.77,7.55c.07.25.43.37.82.39.06.18.12.35.18.53a.86.86,0,0,0,1.29.6l.15-.08a.84.84,0,0,0,.32.06,4.23,4.23,0,0,0,1.58,1.29.92.92,0,0,0,1.13-.44c.42.22,2.41,1.12,2-.2l-.17-.6c.65.09,1.28,0,1-.82-.16-.54-.34-1.06-.53-1.58.83,0,1.7-.16,1.52-.75s-.32-1-.49-1.53a.67.67,0,0,0,.28-.74m-24.64-23a11.72,11.72,0,0,1,1.42-.62,14.51,14.51,0,0,1,4.24-.44l0,0c.09.16.18.3.26.47a6.62,6.62,0,0,1,.3,1.19,9.79,9.79,0,0,1-1,2.86,25.72,25.72,0,0,1-5.35,5H282l-.51.09-2.06-7.68a19.41,19.41,0,0,0,2.79-1"/></g><rect class="a" x="271.9" y="338.13" width="32" height="43.11" transform="translate(-71.37 71.26) rotate(-12.57)"/><g class="f"><path class="c" d="M337.67,330.14a6.49,6.49,0,0,0-.86-.48,5.72,5.72,0,0,0-2.91-1,5.29,5.29,0,0,0-4,.54c-.26.14-.52.3-.78.47-.53-.34-1.37.59-1.71,1a5.94,5.94,0,0,0-.85.35,7.51,7.51,0,0,0-.65.41c-.23.09-.45.19-.67.31a.85.85,0,0,0-.93.31l-.46.6a48.17,48.17,0,0,0-3.68,3.92c-.74.76-1.51,1.58-2.33,2.38-.53.51-1.06,1-1.62,1.49h0l-.34.28c-.24.19-.47.39-.72.57l-.08,0-1.47-.58c0-.06-.09-.1-.13-.17a4.3,4.3,0,0,1-.67-2,23.2,23.2,0,0,1,.7-2.66c.34-.86.69-1.67,1-2.31a98.21,98.21,0,0,1,4.82-8.69.78.78,0,0,0,.1-.71l.05-.09a1,1,0,0,0-.41-1.46l.58-.94c.46-.73-.3-1.32-1-1.23a1.75,1.75,0,0,0-.31.08.86.86,0,0,0-.18-.58c-.51-.65-1.2-.28-1.63.26l-1,1.2c-.36-.27-1.1-.45-1.37-.15-.17.15-.33.32-.5.48a.78.78,0,0,0-.29.21,12.73,12.73,0,0,0-2,2.35,1,1,0,0,0-.36-.11c-.65,0-1.43.88-1.78,1.44-.37-.21-1.07-.39-1.29,0l-.24.43a.61.61,0,0,0-.46.19l-.44.75a.39.39,0,0,0-.17.14,19.71,19.71,0,0,0-3.11,7.66,17.46,17.46,0,0,0,0,5.14,14.14,14.14,0,0,0,.74,4.56,8.07,8.07,0,0,0,1.76,3,7,7,0,0,0,2.18,2.42,4.75,4.75,0,0,0,3.6,1.56l.26,0a5.44,5.44,0,0,0,4.65-.88c.2,0,.41-.11.62-.18a7.83,7.83,0,0,0,3.44-2.51h0c.32-.3.63-.64,1-1,1.84-2.12,3.62-4.34,5.34-6.59a1.28,1.28,0,0,0,.36-.2,6.45,6.45,0,0,0,.73-.71l.1-.06a17.3,17.3,0,0,0,1.61-1.67l0,0,.3,0,1.56.5.39.23a8.78,8.78,0,0,1,1.31,3,9.23,9.23,0,0,1,.19,1.27,11.12,11.12,0,0,1-.25,1.42c-.22.46-.44.93-.68,1.38s-.61,1-.94,1.52c-.12.13-.22.27-.34.4a.94.94,0,0,0-.16.27c-.18.21-.36.43-.55.63l0,.07a20.54,20.54,0,0,1-5.49,3.13c-.4.16-.6.79-.69,1.51l-.07,0a1.44,1.44,0,0,0-.77,1.21l-.06,0a1.11,1.11,0,0,0-.15,1.85,1.5,1.5,0,0,0-.48.75c0,.27.14.56.48.41l.31-.14a.84.84,0,0,0,.31.17c-.16.5-.22,1,0,.92l.29-.14,0,.06a.68.68,0,0,0,.18.15l.09.1-.17.07c-.23.11-.2.2,0,.17l.38-.06h0a.66.66,0,0,0,.44.05.32.32,0,0,0,.27.24c-.29.36-.45.66-.11.51s.71-.33,1.06-.5c0,.47.2.85.77.59s1.13-.53,1.67-.81a2.43,2.43,0,0,0,.46-.13,20,20,0,0,0,6.74-4.68,15,15,0,0,0,3.68-5.11l0,0a12.91,12.91,0,0,0,1.68-5.31l.07-.19a9.61,9.61,0,0,0,.42-3c1.1-4.11-.91-7.59-4.4-9.94"/></g><rect class="a" x="305.27" y="319.5" width="33.98" height="39.98" transform="translate(-144.18 378.78) rotate(-51.31)"/><g class="g"><path class="c" d="M320.15,303.35c-.21-4-1.93-17.18-1.93-17.18s-4-1.46-4.33-.94a6.12,6.12,0,0,0-.68,3.09.91.91,0,0,0-1,.79c0,.15,0,.3,0,.45a.6.6,0,0,0-.24.44q0,.32,0,.64a.41.41,0,0,0-.09.21l.31,16.32c0-.06.19-.16.44-.28q0,.37,0,.75a.74.74,0,0,0-.36.41.76.76,0,0,0,.08.69.4.4,0,0,0-.14.12c-.13.21-.22.45.14.5l.6.08h0c-.14,0-.26.07-.29.15-.14.36.17.41.46.46h0l0,0v0a1.54,1.54,0,0,1-.78.2l1,.12a1.81,1.81,0,0,0,.83.47l.13.11c0,.39.09.72.23.74l.37,0c0,.2-.07.35-.07.34q14.66,1.94,29.27,4.26c.07,0,.13,0,.2-.12l.78.12c.26,0,.46-.3.55-.7H346c0,.09.13.06.21,0a1.07,1.07,0,0,0,.89-.54h.17c.66-.07.71-.43.7-1,0-.11,0-.23,0-.34.74-.3,1.64-.78,1.67-1.4,0-.06,0-.12,0-.18a.61.61,0,0,0,0-.63,2,2,0,0,0,.64-1.07c.26-6.57-.06-19.14-.06-19.14a3.24,3.24,0,0,0-1.48-.25c0-.2,0-.4,0-.6-.07-1.26-3.55-2-3.91-1.35s-1.58,9.67-2.16,17.09c-2.46-.54-4.92-1-7.39-1.34-.06-2.8-.12-6-.14-7.15,0-.56-.25-.77-.58-.81,0-.2,0-.4,0-.61,0-.71-.94-.61-.94-.61s0-.41,0-.62c0-1.32-4-2.27-4.42-1.64S328,300,327.4,304.21c-.6,0-1.2-.09-1.81-.12l-5.44-.74m-7,4v.09l-.27,0,.28-.13"/></g><rect class="a" x="316.44" y="281.05" width="29.27" height="39.68" transform="translate(9.04 611.44) rotate(-86.22)"/><g class="h"><path class="c" d="M314.56,244c0,.54.08,1.08.14,1.62a.61.61,0,0,0-.4.3c-1.27-.35-1.35.77-1,1.88a1.09,1.09,0,0,0-.23.55,1.08,1.08,0,0,0,.23.6.87.87,0,0,0,.52,1.22l.36.1a.56.56,0,0,0,.17.35c0,.31,0,.57.1.6,7.53,2.43,14.75,5.06,21.59,9.12.68.41,1.54.9,2.42,1.46-1.59.82-3.2,1.59-4.85,2.28-2.89,1.25-5.85,2.34-8.78,3.48a84.46,84.46,0,0,0-8.32,3.8c-.57.29-.72,2.44-.53,4.14l-.73.38c-.45.25-.3.84-.12,1.23-.31.43-.26,1,.46.76a4.13,4.13,0,0,1-.56.57l.57-.21c0,.13.25.23.51.26a3.79,3.79,0,0,1-.55.45l.72-.27a1.09,1.09,0,0,0,.3.15,1,1,0,0,0,.92.36l0,0c.16.38.33.7.41.67l.77-.28h.09l.1,0a1.84,1.84,0,0,1,0,.61c7.8-2.72,15.72-5.48,23.09-9.25,1.59-.82,3.36-1.28,4.26-2.41a8.62,8.62,0,0,0,1.53-1.07,1.38,1.38,0,0,0,.5-1.19,2.78,2.78,0,0,0,0-.35l0,0a4.77,4.77,0,0,0,1.54-1.42,2.08,2.08,0,0,0,.17-1.73,2.2,2.2,0,0,0,.53-1.84,9.5,9.5,0,0,0-2.18-3.18,21.25,21.25,0,0,0-2.58-2.19,29.38,29.38,0,0,0-4-2.79c-1.14-.68-2.3-1.3-3.46-1.91-6.62-3.81-13.56-6.32-20.79-8.66a.64.64,0,0,0-.75.33l-1.06-.35c-1.27-.41-1.21,1-1.18,1.91"/></g><rect class="a" x="313.59" y="241.38" width="36.99" height="38.23" transform="translate(-9.47 12.55) rotate(-2.13)"/><path class="c" d="M320.55,226.9c-.71-4-4.06-16.81-4.06-16.81s-4.12-1-4.41-.4a6.12,6.12,0,0,0-.29,3.15c-.49,0-1,.42-.94.91l.06.44a.6.6,0,0,0-.18.47l.09.63a.41.41,0,0,0-.07.22l2.34,16.15c0-.06.17-.18.4-.34l.1.74a.74.74,0,0,0-.31.45.76.76,0,0,0,.16.67.4.4,0,0,0-.12.13c-.1.23-.16.47.2.48h.6s0,0,0,0-.25.1-.27.19c-.1.37.22.39.52.4h0l0,0,0,0a1.54,1.54,0,0,1-.75.3h1a1.81,1.81,0,0,0,.89.37l.14.1c.07.38.18.71.32.71h.37c0,.21,0,.35,0,.35q14.78.1,29.57.57c.07,0,.13-.06.18-.15l.79,0c.26,0,.41-.35.46-.76h.05l.28,0c.06.08.14,0,.21,0a1.07,1.07,0,0,0,.82-.64l.17,0c.64-.15.65-.51.57-1.08,0-.11,0-.22,0-.34.7-.39,1.53-1,1.48-1.59,0-.06,0-.12,0-.18a.61.61,0,0,0,0-.63,2,2,0,0,0,.5-1.14c-.57-6.55-2.45-19-2.45-19a3.24,3.24,0,0,0-1.49-.06l-.11-.59c-.23-1.24-3.77-1.55-4.05-.85s-.36,9.79,0,17.23c-2.5-.23-5-.37-7.5-.41l-1-7.07c-.08-.55-.34-.73-.67-.74,0-.2-.06-.4-.08-.6-.1-.71-1-.49-1-.49s-.07-.4-.1-.62c-.19-1.31-4.29-1.74-4.59-1.08s-.38,6.51-.43,10.8c-.6,0-1.21.06-1.81.11l-5.49-.05m-6.39,4.87s0,.06,0,.09l-.26.08.26-.16"/><rect class="a" x="311.24" y="208.46" width="39.68" height="29.27" transform="translate(-12.59 19.94) rotate(-3.38)"/><rect class="a" x="311.24" y="208.46" width="39.68" height="29.27" transform="translate(-12.59 19.94) rotate(-3.38)"/><path class="c" d="M345.14,170.34c-6.1.57-12.17,3-15.39,8.59-.12.21-.22.42-.33.62a11.17,11.17,0,0,0-3.8-2.83,11,11,0,0,0-2.94-1.76,7,7,0,0,0-6.2.38,6.11,6.11,0,0,0-3.2,1.43,9.65,9.65,0,0,0-3,5.8,10.13,10.13,0,0,0-1.4,4,12.38,12.38,0,0,0-.28,3.15,16.62,16.62,0,0,0,2,8.44.83.83,0,0,0-.55.89,2.12,2.12,0,0,0,.06.41.62.62,0,0,0-.17.24,1.1,1.1,0,0,0,.29.93c-.2.26-.3.47-.13.47l.62,0a.39.39,0,0,0,.07.16c-.16.15-.41.43-.13.41l.73,0h0l0,0a.84.84,0,0,0,.85.53c.11.3.22.53.32.53l.62,0c0,.22,0,.38.08.38q16.4-1,32.79-2.2s.06,0,.09-.06l1-.07c.19,0,.29-.37.32-.77l.49,0a.94.94,0,0,0,.8-1.21l0,0a.6.6,0,0,0,0-.17,3.41,3.41,0,0,0,1.25-1.29.92.92,0,0,0-.21-.92l.08-.11c.25-.35,1.1-2-.15-1.92h-.09c.28-.72.53-1.76-.56-1.67l-1.54.12c0-.85-.2-1.45-.53-1.42l-1.7.13a.7.7,0,0,0-.6-.26l-10,.66a.87.87,0,0,0,0-.62l-.11-.28c0-.16,0-.31.05-.47a1.25,1.25,0,0,0,.18-1l-.05-.14a11.72,11.72,0,0,1,1.77-5.11l.06-.06A15.65,15.65,0,0,1,339,182.3a21.64,21.64,0,0,1,8.14-2.22c.26,0,.44-.35.54-.73l.55-.07c.7-.07.95-.49.84-1.14a1.56,1.56,0,0,0,0-.16.84.84,0,0,0,.12-.31,4.23,4.23,0,0,0,1.57-1.3.92.92,0,0,0-.21-1.19c.3-.37,1.57-2.14.2-2l-.62.05c.21-.62.24-1.26-.6-1.18-.56.05-1.11.13-1.66.22.15-.82.18-1.7-.44-1.64l-1.59.18a.67.67,0,0,0-.67-.42M317.78,190a11.72,11.72,0,0,1-.33-1.52,14.51,14.51,0,0,1,.4-4.25l0,0c.17-.06.33-.12.51-.16a6.62,6.62,0,0,1,1.23-.06,9.79,9.79,0,0,1,2.6,1.59,25.72,25.72,0,0,1,3.89,6.23s0,0,0,.07,0,.35,0,.52l-7.94.52a19.41,19.41,0,0,0-.39-2.92"/><rect class="a" x="308.52" y="170.69" width="43.11" height="32" transform="translate(-4.19 7.61) rotate(-1.31)"/><rect class="a" x="308.52" y="170.69" width="43.11" height="32" transform="translate(-4.19 7.61) rotate(-1.31)"/><path class="c" d="M316.6,153.85c-.95-4.22-5.11-17.78-5.11-17.78s-4.45-.83-4.73-.22a6.55,6.55,0,0,0-.16,3.38c-.52,0-1.06.49-1,1l.09.47a.65.65,0,0,0-.17.51l.12.67a.44.44,0,0,0-.06.24l3.25,17.16c0-.06.18-.2.41-.38l.15.79a.8.8,0,0,0-.31.5.82.82,0,0,0,.21.71.43.43,0,0,0-.12.15c-.1.25-.15.52.24.51l.64,0s0,0,0,0-.26.12-.28.21c-.09.4.25.4.57.4h0l0,0,0,0a1.65,1.65,0,0,1-.79.35l1,0a1.94,1.94,0,0,0,1,.35l.15.1c.09.41.22.75.38.74l.4,0c0,.22,0,.38,0,.38q15.82-.58,31.64-.75c.07,0,.13-.07.19-.17l.84,0c.28,0,.43-.4.46-.84h.05l.3,0c.06.08.15,0,.23,0a1.14,1.14,0,0,0,.84-.73l.18,0c.68-.19.67-.58.56-1.18l-.06-.36c.73-.44,1.59-1.11,1.51-1.77,0-.06,0-.13,0-.19a.66.66,0,0,0-.07-.67,2.12,2.12,0,0,0,.48-1.24c-.91-7-3.49-20.18-3.49-20.18a3.47,3.47,0,0,0-1.6,0l-.15-.63c-.3-1.32-4.1-1.49-4.37-.72s.07,10.48.78,18.42c-2.69-.13-5.36-.16-8-.09l-1.43-7.51c-.11-.59-.4-.77-.75-.76,0-.21-.08-.43-.11-.64-.14-.75-1.1-.47-1.1-.47s-.09-.43-.14-.65c-.26-1.39-4.67-1.67-5-.94s-.11,7,0,11.56c-.64.07-1.29.12-1.93.2l-5.87.2M310,159.35s0,.06,0,.09l-.28.09.27-.19"/><rect class="a" x="306.46" y="133.63" width="42.46" height="31.32" transform="translate(-13.51 34.18) rotate(-5.85)"/><path class="c" d="M272.5,305.72a1.42,1.42,0,0,0,0-.72l.58-.27a1.32,1.32,0,0,1-.65,0,1,1,0,0,0,0-.17.32.32,0,0,0,.13-.25.25.25,0,0,0-.26-.26c.33-.28.26-.6-.11-.63a.76.76,0,0,0-.53-.46c-.3-.62-.87-1.19-1.22-1.06l-.56.2a1,1,0,0,0-.7-.13h0c-.76-.5-1.5-.83-1.82-.69a60.25,60.25,0,0,1-10.67,3.44,77.06,77.06,0,0,1-9.09,1.28,105.72,105.72,0,0,1-22.13-.47q-4.08-.51-8.09-1.33c-3.83-.92-7.61-2-11.39-3.16a.8.8,0,0,0-.39,0c-.79-.24-1.58-.46-2.38-.63s-1,.44-.69,1a1.67,1.67,0,0,0,.1.15c-.6-.12-1.18-.11-1.33.35-.23.69.89,1.15,1.7,1.4a.65.65,0,0,0-.2.45,10.77,10.77,0,0,0-1.35.32c-.68.46-.6.93.16,1.21l.33.11a.68.68,0,0,0,.05.91,4.3,4.3,0,0,0,2.21,1.13c2.42.8,4.87,1.5,7.34,2.15,2.18.58,4.39,1.06,6.6,1.47a91,91,0,0,0,11.17,1.52,126,126,0,0,0,23-.22,62.78,62.78,0,0,0,7.35-1.2,64.82,64.82,0,0,0,12-3.71.28.28,0,0,0,.2-.33l.3-.12c.1,0,0-.16-.11-.3l.51-.21c-.06,0-.2-.08-.37-.22l.58-.31S272.62,305.88,272.5,305.72Z"/><path class="c" d="M276.26,294.6c-1.59-22-3.46-43.89-5.83-65.78-.44-4.1-.88-8.2-1.52-12.28a10.5,10.5,0,0,0-.69-3.09,1.57,1.57,0,0,0-.18-.29c0-.09-.07-.19-.11-.28-.22-.48-.19-.32-.43-.55h-.06l0-.07a1.26,1.26,0,0,0-.52-.45h0a1.32,1.32,0,0,0-.82-.61l-1.34,0a5.07,5.07,0,0,0-1.07-.44l-5.18-.19q-3.31-.11-6.62-.17c-6.12-.12-12.24-.14-18.36-.2-7.7-.08-15.4-.56-23.09-.54-.77,0-.69.42-.3.9l-.6,0c-.7,0-.67.53-.3.9a3,3,0,0,0,1,.56.47.47,0,0,0-.07.18,2.75,2.75,0,0,0-1.06.36c-.39.26-.61.91.12.95h.29c-.32.4-.21.83.35.87,2.62.22,5.25.38,7.87.52,15.1,1,30.22.78,45.34,1.15a12.76,12.76,0,0,1,.59,2.78l0,.29c0,.31.06.62.1.91.36,2.67.65,5.35.94,8,2.44,22.51,4.29,45.09,6,67.66a.29.29,0,0,0,.12.19c0,.31.05.62.08.93s1.11.25,2.13-.11v0c0,.78,1,.44,1.48-.08l.19,0c.3.18.62.24.6-.06l0-.22c.18.07.32.08.32,0l0-.44c.16.06.28.11.28.14,0-.26,0-.51-.06-.77.14.12.25.23.25.33a6.39,6.39,0,0,0,0-.95Z"/><path class="c" d="M262.65,178.87a28,28,0,0,0,.6-5.7,22.1,22.1,0,0,0-.26-3.57c0-.16,0-.32,0-.49-.51-4.28-2.25-8-4.09-11.78l0,0c-3.89-7-8.11-13.82-12.66-20.39l0,0-.23-.34c-2-3-4.15-5.9-6.47-8.66-.73-.89-1.48-1.77-2.26-2.62a18.79,18.79,0,0,0-5-4.16.46.46,0,0,0-.56.12l-.06,0a.41.41,0,0,0-.28,0c-.28-.17-.56-.36-.85-.51a.36.36,0,0,0-.57.26c0,.19-.06.38-.09.57-.16,0-.29,0-.3.17-1.08,8.29-5.06,15.85-8.54,23.35-3.59,7.73-7.37,15.56-9.41,23.88-1.1,4.5-1.75,9.39-.7,13.91a17.54,17.54,0,0,0,2.28,6.59,22,22,0,0,0,8.81,8.08,23.88,23.88,0,0,0,4.78,2,25,25,0,0,0,5.79,1,31.37,31.37,0,0,0,15.75-3.07,27.3,27.3,0,0,0,6.59-4.65c.19-.17.37-.36.56-.54l.49-.49a25.34,25.34,0,0,0,4.71-6.53A23.92,23.92,0,0,0,262.65,178.87Zm-37.41,16.52a29,29,0,0,1-2.78-1.43l-5-5.91-3.38-7q-.07-.81-.09-1.62l0-.89,1.36-9a95,95,0,0,1,4.73-13.27c2.53-5.92,5.38-11.69,8-17.57a69,69,0,0,0,4.35-12l2.5,1.13c1.25,1.41,2.4,2.93,3.49,4.4,2.18,2.9,4.23,5.9,6.26,8.91,3.48,5.17,7.08,10.29,10.35,15.59h0l.63,1.34s0,0,0,0c.83,2.69,1.8,5.36,2.55,8.08a27.59,27.59,0,0,1,.83,9.19,25.06,25.06,0,0,1-.34,2.66,23.68,23.68,0,0,1-1.5,4.4,12.47,12.47,0,0,1-1.5,2.57,25.61,25.61,0,0,1-4.06,4.72,28.19,28.19,0,0,1-15,7,26.22,26.22,0,0,1-6.13.12l-3.56-.82C226.43,195.88,225.82,195.65,225.24,195.39Z"/><path class="c" d="M247.29,175c0-.05-.12-.08-.25-.1a27.62,27.62,0,0,0-1.29-3.35h0c-1.26-2.66-2.33-5.4-3.48-8.11a17.89,17.89,0,0,0-1.45-3.31,7.62,7.62,0,0,0-1.51-2.38c-.06-.06-.14-.1-.2-.16l-.27-.25a4,4,0,0,0-3.55-1.69,4.28,4.28,0,0,0-1.65-.37,3.9,3.9,0,0,0-3.31,2.08l-.47,1a28,28,0,0,0-2.09,4c-.51,1-1,1.92-1.53,2.88-.85,1.62-1.7,3.25-2.47,4.9-.52,1.07-1,2.14-1.49,3.24-1.2,2.84-2.35,5.91-2.18,9.06,0,.09,0,.18,0,.27a10.42,10.42,0,0,0,0,1.6,9.58,9.58,0,0,0,5.62,7.8,12.46,12.46,0,0,0,1.29.69,11.51,11.51,0,0,0,3.91,1,13.32,13.32,0,0,0,5.59-.14h0a14.06,14.06,0,0,0,7.56-4.18c.11-.11.23-.21.33-.32a12.71,12.71,0,0,0,2.52-4.2c.08-.17.18-.33.26-.5C248.64,181.31,248.11,178.15,247.29,175ZM240,186.33a13.52,13.52,0,0,1-6.27,3.13,8,8,0,0,1-3.87,0,8.85,8.85,0,0,1-2-.9l-1-.75-1.46-2.21-.64-3.28a17.08,17.08,0,0,1,.39-2.41c.07-.26.13-.53.21-.79h0l.07-.28a31.27,31.27,0,0,1,1.45-4c.5-1.1,1-2.17,1.56-3.22q1.45-2.82,3-5.6c.66-1.22,1.29-2.45,1.91-3.68a8.54,8.54,0,0,1,.79-.46,6.31,6.31,0,0,1,1.53-1.6l.25,0a4,4,0,0,1,.25.36q1.17,2.47,2.31,5c1.12,2.39,2.36,4.71,3.64,7a.3.3,0,0,0-.07.25,22,22,0,0,0,.74,4.11,11.36,11.36,0,0,1,.51,3.8q0,.47-.08.94a9.11,9.11,0,0,1-3.1,4.72Z"/><path class="c" d="M213.13,220.94c0-.32-.34-.64-.84-.89,0-.1,0-.2,0-.29,0-.5-.9-.77-1.59-.71a.54.54,0,0,0-.67-.42c-.17-.16-.35-.22-.37.07v.08c-.16-.14-.32-.25-.32-.21l0,.39h0V219a1.15,1.15,0,0,0-.25-.2l0,.5a.53.53,0,0,0-.08.22h0c-.19-.12-.37-.24-.37-.34,0,.19,0,.37,0,.56h0l0,.22c-.11,0-.19,0-.2,0-1.94,24.27-3.69,48.56-5.61,72.84a.17.17,0,0,0,0,.12l0,.42c0,.17.2.3.44.35,0,.46.49.75.77.64H204a1.68,1.68,0,0,0,.56.81c.25.1.52.12.65-.08.25.23.9.75.94.13l0-.35c.35.14.61.13.63-.17l.07-.92c.38.06.66,0,.67-.12,0-.33.05-.66.08-1a.26.26,0,0,0,.07-.15c.08-1.06.14-2.13.2-3.19C209.78,266.55,211.27,243.73,213.13,220.94Z"/><path class="c" d="M237.79,186.23c-.41-1.66-1-3.4-1.44-5a9.82,9.82,0,0,0-1-2.34,6.31,6.31,0,0,0-2.1-2.74,2,2,0,0,0-1.1-.23l-.49-.45a.31.31,0,0,0-.43,0l-.05-.05c-.24-.22-.27.06-.21.36l-.35-.32c-.15-.14.07.19.25.44h0l-.1-.1c-.16-.15-.24-.07-.27.09l-.16-.17c-.12-.12,0,.1.14.32h0a.64.64,0,0,0-.16.13.47.47,0,0,0-.22.25,2.5,2.5,0,0,1-.37-.3c.13.14.23.29.34.43l0,.08c-.21,0-.37.07-.31.13s.11.15.18.22h0a1,1,0,0,0-.38,0l.31.35c-.24,0-.42.07-.24.27s.19.26.29.39a.61.61,0,0,0,.14.47,8.5,8.5,0,0,1,1,1.42,14.61,14.61,0,0,1,.73,2.17c.37,1.45.91,2.88,1.24,4.33s.59,3,.87,4.49a77.19,77.19,0,0,1,1,13.71c0,1,0,2,0,3,0,0,0,0,0,0v.49c0,.14.19.25.4.31,0,.09,0,.18,0,.27a.45.45,0,0,0,.66.42l.14,0a1.61,1.61,0,0,0,.58.78.55.55,0,0,0,.61-.09c.25.2.9.65.92,0v-.25c.43.17.75.18.75-.16s0-.58,0-.87c.45,0,.77,0,.77-.18C239.68,200.82,239.58,193.49,237.79,186.23Z"/></svg>