<svg xmlns="http://www.w3.org/2000/svg" viewBox="0 0 504 504"><defs><style>.a{fill:#00a6e9;}</style></defs><title>protect</title><path class="a" d="M364.17,317c0-20.7-.79-41.73-7-61.64a106.73,106.73,0,0,0-17.43-33.95A90.84,90.84,0,0,0,330.6,211a98,98,0,0,0-14-11.23l-1-.69c-.43-.28-.86-.58-1.3-.86a125.55,125.55,0,0,0-18.94-10,121,121,0,0,0-13.08-4.69,128.81,128.81,0,0,0-47.15-4.92c-17.61,1.31-35.39,5.38-51.45,12.8A115.25,115.25,0,0,0,171,198.24l-.71.43a86.75,86.75,0,0,0-20.95,18.19A67.45,67.45,0,0,0,142,227.92c-.11.22-.21.44-.32.66A103.2,103.2,0,0,0,134,248.72c0,.25-.1.49-.15.73q-1,3.3-1.93,6.63c-.14.51-.27,1-.41,1.52q-.45,1.68-.88,3.37c-.83,3.25-1.61,6.51-2.3,9.79q-.84,3.87-1.56,7.77c-1,5.7-1.81,11.41-2.4,17.16-.33,3.12-.63,6.25-.84,9.39,0,0,0,0,.11,0,0,.17,0,.34,0,.51h.42c-.08,1.65-.15,3.3-.19,5a.26.26,0,0,1,0,0c0,.09,0,.19,0,.28s0,.1.1.11c0,.19,0,.38,0,.57a.79.79,0,0,0,.34,0c0,.17.21.21.4.17a.72.72,0,0,0,1,.52.68.68,0,0,0,.73-.18c.4.08.75,0,.8-.5l0-.19c.82.1,1.56,0,1.6-.4.62-5.77,1-11.56,1.63-17.33.8-7,2-14,3.49-20.9,1.57-7.46,3.42-14.94,5.7-22.22,2.13-6.81,4.21-13.87,7.64-20.15a71.55,71.55,0,0,1,5.52-8.57q.68-.86,1.39-1.7a87.3,87.3,0,0,1,16.21-14.48q4.06-2.75,8.35-5.16a119.17,119.17,0,0,1,20.07-8.74A140.12,140.12,0,0,1,220.91,186q3.94-.65,7.91-1.14c3-.33,6.06-.58,9.1-.73,15.73-.76,32,.89,46.9,6.21,17.68,6.32,34.31,15.83,46.8,30,.76.86,1.49,1.74,2.21,2.62A108.84,108.84,0,0,1,352.06,260c5.35,18.9,6.51,38.34,6.75,57.87,0,.5.37.64.78.5,0,.39,0,.78,0,1.17,0,.71.63.58.93.2,0,0,.06-.09.09-.14a.45.45,0,0,0,.82,0,1.73,1.73,0,0,0,.14.23c.29.38.94.56.94-.18v-.07c.43.36.87.29.86-.37V319c.34.25.69.39.68-.12s0-1.08,0-1.62A.43.43,0,0,0,364.17,317Z"/><path class="a" d="M335.3,293.69a150,150,0,0,0-14.2-40.49q-2.24-4.21-4.83-8.27a97.7,97.7,0,0,0-17.56-21.47,74.11,74.11,0,0,0-9.31-7.11A64.89,64.89,0,0,0,277,209.7c-1.12-.45-2.26-.86-3.41-1.25-.93-.33-1.87-.64-2.82-.93a64.38,64.38,0,0,0-9.48-2,86.37,86.37,0,0,0-10.84-.87c-17.51-.34-36,2.4-52.06,9.69a84.58,84.58,0,0,0-31,24,77.81,77.81,0,0,0-8.07,12.94,86.32,86.32,0,0,0-5.06,11.36q-.88,2.44-1.63,4.9a140.5,140.5,0,0,0-5.75,35.25q-.09,1.69-.15,3.38c0,.06.07.11.18.16,0,1.41-.08,2.82-.1,4.23,0-.08.1-.15.22-.23l0,0c0,.29,0,.59,0,.88,0,0,0,.05.08.07,0,.2,0,.4,0,.61,0,.05.18.07.4.07s.25.14.44.1c0,0,0,.1,0,.14,0,.46.5.47.85.3a.69.69,0,0,0,.71-.3.54.54,0,0,0,.44-.49v-.12c.36,0,.68-.15.72-.45,1.58-10.25,2.3-20.59,4.54-30.74,2.32-10.56,5.8-21.27,11.33-30.6a83.57,83.57,0,0,1,4.68-7A78.37,78.37,0,0,1,187,227.36c2-1.39,4-2.68,6-3.85a93.29,93.29,0,0,1,12.29-5.8,120.93,120.93,0,0,1,12.45-3.79A130.43,130.43,0,0,1,247,210.4c1.3,0,2.58,0,3.86,0a85.39,85.39,0,0,1,8.89.78,50,50,0,0,1,9.5,2,43.27,43.27,0,0,1,11.09,4.76,41.15,41.15,0,0,1,10,6.15,71.41,71.41,0,0,1,6.34,5.4,91.58,91.58,0,0,1,7.11,8.19,122.44,122.44,0,0,1,16.39,27.89,157,157,0,0,1,9.3,30.2c1.5,7.27,3,14.67,2.59,22.13,0,.55.36.69.8.51a.73.73,0,0,0,.15-.1c0,.38,0,.75-.07,1.13-.07.74.64.57.93.22,0,0,.06-.09.08-.13a.48.48,0,0,0,.12.14.44.44,0,0,0,.7-.18,1.76,1.76,0,0,0,.15.28c.3.42.88.57.94-.15,0,0,0,0,0-.07.43.38.8.27.86-.35v-.1c.3.22.61.32.65-.15.15-1.59.19-3.19.18-4.79C338,307.33,336.65,300.27,335.3,293.69Z"/><path class="a" d="M299.36,263.09l-.14-.2c-.82-1.3-1.67-2.58-2.59-3.82a56.84,56.84,0,0,0-17.32-15.38,52.81,52.81,0,0,0-4.85-2.78c-1.6-.8-3.24-1.51-4.91-2.15l-.17-.07-.76-.28a62.23,62.23,0,0,0-10-2.77,71.15,71.15,0,0,0-15.31-1.52c-11.62.09-23.05,1.93-33.75,6.58a60.57,60.57,0,0,0-11.23,6.42,57.21,57.21,0,0,0-7.51,6.27,50.61,50.61,0,0,0-4.78,4.75c-.19.31-.39.61-.58.92a64.71,64.71,0,0,0-8.12,12.3L177,272a74.18,74.18,0,0,0-6.2,17.15A111.3,111.3,0,0,0,167.7,308s0,.09.1.14c0,.23,0,.46-.07.69,0,.07.09.13.24.18-.08,1.22-.15,2.45-.21,3.68a1.14,1.14,0,0,0,.33,0c0,.3,0,.59,0,.89,0,.06.06.1.14.12,0,.29,0,.58,0,.87s.3.2.65.18a.66.66,0,0,0,.42.1,1.11,1.11,0,0,0,1.45.67.83.83,0,0,0,.87-.33.79.79,0,0,0,.84-.66l.11-.4c.56,0,1-.17,1.17-.5l1.87-4.49.43-4.84a91,91,0,0,1,2.24-12.42,80.28,80.28,0,0,1,7.31-19.17,70.33,70.33,0,0,1,4.82-7.66,63.49,63.49,0,0,1,9-9.23,61.31,61.31,0,0,1,7.82-5.38,68.82,68.82,0,0,1,19.21-6.86,41.81,41.81,0,0,1,7-1.11,46.55,46.55,0,0,1,4.64-.48c1.37,0,2.74-.06,4.11,0,.65,0,1.29,0,1.94.09l.59,0,.7,0A66.18,66.18,0,0,1,261,244.29l5.5,1.79,9.41,4.68c7.29,4.34,13.41,11.13,17.87,18.25a70.62,70.62,0,0,1,3.92,7.18l4.69,13.95,1.13,5.12c1.7,8.4,2,17.09,2.18,25.63a.68.68,0,0,0,1.12.57c0,.43,0,.86,0,1.29,0,1,.91.72,1.28.19,0-.08,0-.16.07-.24a.66.66,0,0,0,.62.43.65.65,0,0,0,.57-.43c0,.08.05.16.08.24.42.52,1.28.72,1.26-.28v-.09c.61.51,1.19.39,1.18-.52,0-.05,0-.1,0-.15.48.37,1,.6,1-.12,0-.45,0-.9,0-1.34.57.31,1.5.68,1.48-.26C314,300.28,310.78,279.88,299.36,263.09Z"/><path class="a" d="M390.11,317.53c-.27-14.53-.92-28.92-3.44-43.26a181.09,181.09,0,0,0-7.43-28.86,140.58,140.58,0,0,0-6-14.46,123.84,123.84,0,0,0-22.16-32.77A120.92,120.92,0,0,0,331,181.25l-.32-.22-.83-.55A131,131,0,0,0,291.08,163l-.13,0-.47-.12c-2-.54-3.94-1-5.92-1.5-18.66-4.48-38.18-5.69-57.21-4.55-21.76,1.3-43.54,6.24-62.4,17.55a104.57,104.57,0,0,0-12.83,9.09q-2.54,2.06-5,4.28-3.58,3.2-6.87,6.71A117.09,117.09,0,0,0,126.84,212a134.2,134.2,0,0,0-12,24q-.37.94-.72,1.89l0,0c-.7,1.88-1.38,3.77-2,5.68-.9,2.56-1.67,5.16-2.32,7.79-.2.72-.4,1.43-.59,2.15a226.34,226.34,0,0,0-5.13,23.85c-.68,4-1.22,7.92-1.67,11.9l-.07.63-.07.62q-.67,5.73-1.14,11.43s.05.06.13.1c0,.23,0,.46-.06.7,0,0,.14.06.32.09q-.24,3.34-.46,6.69c0-.08.08-.15.2-.23,0,.21,0,.43,0,.64s.06.16.16.18l-.06.77s.2.05.47,0c.08.2.29.24.54.19a.94.94,0,0,0,1.28.68.92.92,0,0,0,.94-.27.79.79,0,0,0,1-.67l.06-.34c.69.13,1.59.2,1.74-.48a57.43,57.43,0,0,0,2-11.22q.26-2.25.33-4.53l.62-5.68c.86-7.24,2.09-14.5,3.62-21.63,3-14,7.32-28.11,13.82-41a134.74,134.74,0,0,1,10.79-17.89,109.42,109.42,0,0,1,15.15-16.55c.7-.61,1.41-1.21,2.13-1.8a105.5,105.5,0,0,1,9.45-6.87,110.16,110.16,0,0,1,14.35-7.58h0a124.63,124.63,0,0,1,21-7,168.56,168.56,0,0,1,23-3.75c4.52-.39,9-.61,13.56-.68q5.18,0,10.35.2l9.86.68a198.07,198.07,0,0,1,26.9,4.39,145.9,145.9,0,0,1,18.4,5.8,83.23,83.23,0,0,1,16.1,8,78.39,78.39,0,0,1,14.69,9.45,119.12,119.12,0,0,1,12.81,11.7,138,138,0,0,1,25.53,40c.32.92.65,1.84.94,2.78a104.75,104.75,0,0,1,5.73,18.17,151,151,0,0,1,2.89,15.06q1.32,7.78,2,15.64,1,11.17,1,22.38a.7.7,0,0,0,.79.71c0,.11,0,.22,0,.34a.78.78,0,0,0,1,.82.79.79,0,0,0,.43-.34h.05c.15.43.39.82.73.9a.61.61,0,0,0,.8-.38c.41,0,.91-.16.91-.65v-.09c.29,0,.49-.28.48-.8,0-.14,0-.27,0-.41A.72.72,0,0,0,390.11,317.53Z"/><path class="a" d="M353.58,374.92l-.08,0c.26-.11.53-.2.78-.31,1-.44.91-1.25-.08-1.59a14.66,14.66,0,0,0-2.93-.06l-.56,0a1.11,1.11,0,0,0-.15-.24.83.83,0,0,0,0-.76c-.33-.71-1-.58-1.62-.33a.88.88,0,0,0-1-.19l-.11,0a.92.92,0,0,0-.82-.14,19.09,19.09,0,0,1-7.64,1.63H339c-.36,0-.7-.13-1-.2a11.43,11.43,0,0,1-2.51-2.21,6.09,6.09,0,0,1-1.69-3.15,10.84,10.84,0,0,1-1.38-5.23,19.83,19.83,0,0,1,.09-2.67,8.32,8.32,0,0,1,.58-2,11.81,11.81,0,0,1,.56-1.52c.21-.29.44-.57.68-.85a13.15,13.15,0,0,1,1.46-1.21,14.81,14.81,0,0,1,4-1.89,46.26,46.26,0,0,1,5.41-1.17,38.58,38.58,0,0,1,5.56-.11c.86,0,.8-.62.55-1.23l.67,0c1.58.06-.39-2.12-.46-2.2l-.16-.15c.59,0,1.19,0,1.77,0,1.1,0,1.22-.91.5-1.51-.25-.13-.5-.24-.75-.36.71-.07,1.32-.29,1.35-.88.07-1.29-2.78-1.17-3.39-1.2l-1.21,0a1,1,0,0,0-1-1.12H348a.74.74,0,0,0-.39-.15l-1.32,0c-6-.26-12.61.59-17.08,4.92a14.4,14.4,0,0,0-4,4.55,16.29,16.29,0,0,0-1.66,4.31,18,18,0,0,0-1,7.67,17.54,17.54,0,0,0,2,7.78,11.78,11.78,0,0,0,1.15,1.71A12.52,12.52,0,0,0,331,378a13.13,13.13,0,0,0,5,2.42c.6.14,1.22.25,1.84.33a20.71,20.71,0,0,0,11.6-.63,19.66,19.66,0,0,0,3.28-1.15c1-.44.34-1.2-.24-1.71a19.19,19.19,0,0,0,1.94-.77C355.6,375.95,354,375,353.58,374.92Z"/><path class="a" d="M296.05,350.2c4.08-.49,17.3-3.11,17.3-3.11s1.21-4.13.67-4.45a6.22,6.22,0,0,0-3.18-.48c0-.49-.36-1-.87-1l-.45,0A.62.62,0,0,0,309,341l-.65.05a.41.41,0,0,0-.22-.08l-16.53,1.41c.06,0,.17.19.32.43l-.76.06a.76.76,0,0,0-.44-.34.78.78,0,0,0-.69.13.41.41,0,0,0-.13-.13c-.22-.12-.47-.19-.5.18,0,.2,0,.41,0,.61h0c0-.14-.09-.25-.17-.28-.37-.12-.41.2-.43.5v0l0,0,0,0a1.54,1.54,0,0,1-.26-.78c0,.33,0,.66-.06,1a1.85,1.85,0,0,0-.43.88l-.11.14c-.39,0-.73.14-.74.29l0,.38-.35-.05q-1,15-2.36,30c0,.07.05.13.14.19,0,.27,0,.53-.06.8s.33.44.75.52v.05a2.31,2.31,0,0,0,0,.29c-.08.05,0,.14,0,.22a1.16,1.16,0,0,1,.61,1c.11.66.48.69,1.06.65l.34,0c.35.73.9,1.61,1.53,1.6H289a.62.62,0,0,0,.64,0,2,2,0,0,0,1.13.58c6.69-.18,19.41-1.34,19.41-1.34a3.29,3.29,0,0,0,.15-1.51l.61-.08c1.28-.16,1.8-3.73,1.11-4.06s-9.91-1-17.48-1c.38-2.53.67-5.05.86-7.58l7.24-.62c.57,0,.76-.31.79-.64l.62,0c.72-.06.56-1,.56-1l.63-.07c1.34-.11,2-4.25,1.37-4.6s-6.58-.78-10.93-1.09c0-.61,0-1.23,0-1.84Q295.87,353,296.05,350.2Zm-4.56-6.78h-.09a1.81,1.81,0,0,0-.06-.27Z"/><path class="a" d="M231.86,362.49a10.75,10.75,0,0,0-.18-5.64c-.88-2.74-2.64-4.42-4.75-6.24a4.27,4.27,0,0,0-2.84-.55l-.66-.6a.94.94,0,0,0-.48-.56l-1.3-.73c.45-.22.86-.59.41-1.12a4.63,4.63,0,0,0-1.73-1.79,15.26,15.26,0,0,0-4.07-1.32,10.3,10.3,0,0,0-3-1.29,11.25,11.25,0,0,0-3.28-.56q-.57-.08-1.14-.12a10.52,10.52,0,0,0-1.67-.09,13.23,13.23,0,0,0-4.87.76,15.92,15.92,0,0,0-4.65,2.62,13.87,13.87,0,0,0-2,1.54,18.61,18.61,0,0,0-5.14,8.05,16.6,16.6,0,0,0-1,3.33,14.87,14.87,0,0,0-.35,6c0,.09,0,.18.06.28,0,.26,0,.52.06.78a14.36,14.36,0,0,0,2.77,6.72A15,15,0,0,0,195,375.7a14.68,14.68,0,0,0,4,2.63c.19.13.37.27.56.39a15.72,15.72,0,0,0,7.3,2.29,20.52,20.52,0,0,0,6.85,0c4.54-.75,8.93-2.53,11.82-6.13a17.26,17.26,0,0,0,2.86-3.87,14.76,14.76,0,0,0,3.37-7.56C231.85,363.13,231.85,362.81,231.86,362.49Zm-23.61-11c3,0,5.87.87,8.75,1.51a.41.41,0,0,0,.07.41c.24.18.47.38.7.58a2.3,2.3,0,0,0,.3,1.53,13.93,13.93,0,0,1,2.81,2.7l.93,2.79c0,.06,0,.11,0,.17a11,11,0,0,1-.17,1.51,15.79,15.79,0,0,1-3.08,5.1,18.66,18.66,0,0,1-1.64,1.62,21.47,21.47,0,0,1-6.91,3.16,16.18,16.18,0,0,1-2.11.38,12.85,12.85,0,0,1-2.75-.58,16,16,0,0,1-3.2-3.09,13.18,13.18,0,0,1-2.63-8.47,15.51,15.51,0,0,1,1-3.52c.18-.45.39-.9.6-1.33l.29-.38A15.21,15.21,0,0,1,206,352a12,12,0,0,1,1.4-.5C207.67,351.5,208,351.49,208.24,351.48Z"/><path class="a" d="M135.1,345.4a12.3,12.3,0,0,0-4.13-4.21,15.32,15.32,0,0,0-4.91-1.87,15.42,15.42,0,0,0-3.78-1.48,15.61,15.61,0,0,0-1.68-.31,15.21,15.21,0,0,0-1.61-.23,15.72,15.72,0,0,0-8.12,1.07,8.55,8.55,0,0,0-2.47-.32c-.18,0-.73-.09-1.34-.1-.08-.56-.28-.94-.9-1a1.24,1.24,0,0,0-.36,0,.61.61,0,0,0-.23-.18c-.25-.09-.8,0-.91.34-.27-.22-.5-.36-.49-.23s0,.41,0,.62a.37.37,0,0,0-.25.2c-.21-.2-.37-.32-.37-.28,0,.27,0,.53.06.8a.81.81,0,0,0-.49.66c-.4-.06-.74-.13-.75-.21,0,.42.07.84.11,1.26-.23,0-.41,0-.4,0,0,.3,0,.61.06.91,0,0,0,0,0,0,.34,5,.61,10,.84,15,0,.81.08,1.63.11,2.44q.51,9,.32,18a.28.28,0,0,0,.08.17c0,.31,0,.62,0,.93s.38.44.8.53c0,.06,0,.12,0,.18,0,.6.12,1,.72,1.16a1.28,1.28,0,0,0,.53,0l0,0a.8.8,0,0,0,.26,0,4,4,0,0,0,1.28,1.45.9.9,0,0,0,1.08-.19h0c.3.26,2,1.44,2,.08,0-.11,0-.21,0-.32.67.27,1.44.38,1.43-.57,0-.51,0-1,0-1.53.77.07,1.43,0,1.43-.57s0-1.2,0-1.81a.72.72,0,0,0,.22-.52c.05-2.12.06-4.23.06-6.35,4.17-.37,8.59-.73,12.24-2.61a14.26,14.26,0,0,0,5.06-3.61,12,12,0,0,0,2.78-3.43c0-.07.06-.14.1-.21s.36-.39.53-.6a10.2,10.2,0,0,0,2.3-5.74,8.48,8.48,0,0,0,.43-2.1C137,348.51,136.13,347.23,135.1,345.4ZM125,355a11.11,11.11,0,0,1-.87.93c-3.11,2.3-7.09,3.17-11,3.5,0-.62,0-1.24-.08-1.86q-.11-4.59-.47-9.16c.72-.3,1.44-.6,2.18-.86l4.84-.74a22.36,22.36,0,0,1,4.66,1.08l.43.09a11.29,11.29,0,0,1,1.21,1.27Z"/><path class="a" d="M179.44,375.05c-.44-6.21-2.8-12.43-8.37-15.84-.21-.13-.42-.23-.63-.35a11.37,11.37,0,0,0,3-3.79,11.24,11.24,0,0,0,1.86-2.95,7.13,7.13,0,0,0-.24-6.31,6.21,6.21,0,0,0-1.38-3.29,9.82,9.82,0,0,0-5.83-3.14,10.31,10.31,0,0,0-4.08-1.52,12.65,12.65,0,0,0-3.2-.36,16.89,16.89,0,0,0-8.62,1.88.85.85,0,0,0-.89-.58,2.15,2.15,0,0,0-.42,0,.64.64,0,0,0-.25-.18,1.13,1.13,0,0,0-1,.27c-.26-.21-.47-.32-.47-.15s0,.42,0,.63a.39.39,0,0,0-.16.07c-.15-.16-.42-.43-.42-.15s0,.5,0,.74v0l0,0a.85.85,0,0,0-.56.85c-.3.11-.54.21-.54.31s0,.42,0,.64c-.22,0-.38,0-.38.07q.59,16.69,1.47,33.37s0,.06.06.09c0,.33,0,.65,0,1s.37.3.78.34c0,.16,0,.33,0,.49a1,1,0,0,0,1.21.84l0,0,.17,0a3.47,3.47,0,0,0,1.28,1.3.94.94,0,0,0,.94-.19l.11.08c.35.26,2,1.17,2-.1,0,0,0-.06,0-.09.72.3,1.78.58,1.71-.53,0-.52-.06-1-.09-1.57.86,0,1.47-.17,1.46-.5,0-.58-.06-1.16-.09-1.73a.72.72,0,0,0,.28-.6c-.15-3.38-.29-6.76-.43-10.14a.88.88,0,0,0,.63,0l.29-.11.47.06a1.27,1.27,0,0,0,1,.21l.14,0a11.91,11.91,0,0,1,5.15,1.92l.06.06a16,16,0,0,1,1.84,2.37,22,22,0,0,1,2.07,8.32c0,.27.35.46.73.56,0,.19,0,.37.06.56.05.71.48,1,1.14.88l.16,0a.88.88,0,0,0,.31.13,4.3,4.3,0,0,0,1.28,1.63.94.94,0,0,0,1.21-.19c.37.31,2.14,1.64,2.07.25,0-.21,0-.42,0-.63.62.23,1.27.28,1.21-.58,0-.57-.11-1.13-.18-1.69.83.17,1.72.22,1.67-.41s-.09-1.09-.15-1.62A.68.68,0,0,0,179.44,375.05Zm-19.36-28.26a11.87,11.87,0,0,1,1.55-.3,14.73,14.73,0,0,1,4.31.51l0,0c.05.17.12.34.15.53a6.73,6.73,0,0,1,0,1.25,9.9,9.9,0,0,1-1.67,2.6,26.14,26.14,0,0,1-6.42,3.81H158l-.53,0q-.17-4-.35-8.08A19.73,19.73,0,0,0,160.08,346.79Z"/><path class="a" d="M277.16,343.19a2.41,2.41,0,0,0-1.71-.62c-.79-.11-1.58-.17-2.37-.21a.77.77,0,0,0-.22-.24c0-.47-.12-1-.58-1h-1.14a.44.44,0,0,0-.28-.14h-.9a.56.56,0,0,0-.21-.06q-14.42-.09-28.85,0c-.24,0-.16.29,0,.62h-.65c-.11,0-.11.13-.05.31h-.74c.24,0,.48.23.72.48l0,0a1.13,1.13,0,0,0-.57.93,2,2,0,0,1-.65.11l.64,0a1.18,1.18,0,0,0,0,.16.7.7,0,0,0-.36.18c-.1.14-.31.34.08.34h.15s0,0,0,.05h-.54c-.26,0-.28.16,0,.26a3.39,3.39,0,0,0,.43.11.76.76,0,0,0,.06.4h-.07c-.31,0-.63,0-.52.42.05.18.41.24.75.26a1.17,1.17,0,0,0-.09.24c-.13.48.15,1.36.72,1.4l.94.08h0c.48,1,1.21,2.35,2,2.4,3.08.27,6.16.46,9.24.62q-.62,12.29-1.68,24.56a.41.41,0,0,0,.11.28c0,.25,0,.5-.06.74s.33.66.75.78c0,.65.13,1.53.78,1.77a.94.94,0,0,0,.63,0,1.36,1.36,0,0,0,.15.15,1,1,0,0,0,.59.18c.26.43.54.84.78,1.2a2.26,2.26,0,0,0,1.23,1.25.69.69,0,0,0,.82-.45c0-.2,0-.41,0-.61.58.37,1.24.59,1.29-.29,0-.23,0-.47,0-.7.51.16,1,.1,1-.64,0-.55.08-1.09.11-1.64.73.12,1.34.06,1.38-.47s.09-1.24.14-1.86a.71.71,0,0,0,.17-.42q1.14-11.75,1.67-23.54c3.23,0,6.46,0,9.7,0,.65,0,.85-.33.85-.75h.65c.84,0,.81-.6.58-1.2h.69c1.58,0-.37-2.11-.48-2.22l-.08-.08H276c1.08,0,1.28-.85.52-1.5-.28-.15-.56-.28-.84-.41C276.42,344.42,277.84,344.21,277.16,343.19Z"/><path class="a" d="M401.7,343.19a2.41,2.41,0,0,0-1.71-.62c-.79-.11-1.58-.17-2.37-.21a.77.77,0,0,0-.22-.24c0-.47-.12-1-.58-1h-1.14a.44.44,0,0,0-.28-.14h-.9a.56.56,0,0,0-.21-.06q-14.42-.09-28.85,0c-.24,0-.16.29,0,.62h-.65c-.11,0-.11.13-.05.31H364c.24,0,.48.23.72.48l0,0a1.13,1.13,0,0,0-.57.93,2,2,0,0,1-.65.11l.64,0a1.18,1.18,0,0,0,0,.16.7.7,0,0,0-.36.18c-.1.14-.31.34.08.34H364s0,0,0,.05h-.54c-.26,0-.28.16,0,.26a3.39,3.39,0,0,0,.43.11.76.76,0,0,0,.06.4h-.07c-.31,0-.63,0-.52.42.05.18.41.24.75.26a1.17,1.17,0,0,0-.09.24c-.13.48.15,1.36.72,1.4l.94.08h0c.48,1,1.21,2.35,2,2.4,3.08.27,6.16.46,9.24.62q-.62,12.29-1.68,24.56a.41.41,0,0,0,.11.28c0,.25,0,.5-.06.74s.33.66.75.78c0,.65.13,1.53.78,1.77a.94.94,0,0,0,.63,0,1.36,1.36,0,0,0,.15.15,1,1,0,0,0,.59.18c.26.43.54.84.78,1.2a2.26,2.26,0,0,0,1.23,1.25.69.69,0,0,0,.82-.45c0-.2,0-.41,0-.61.58.37,1.24.59,1.29-.29,0-.23,0-.47,0-.7.51.16,1,.1,1-.64,0-.55.08-1.09.11-1.64.73.12,1.34.06,1.38-.47s.09-1.24.14-1.86a.71.71,0,0,0,.17-.42q1.14-11.75,1.67-23.54c3.23,0,6.46,0,9.7,0,.65,0,.85-.33.85-.75h.65c.84,0,.81-.6.58-1.2h.69c1.58,0-.37-2.11-.48-2.22l-.08-.08h1.74c1.08,0,1.28-.85.52-1.5-.28-.15-.56-.28-.84-.41C401,344.42,402.38,344.21,401.7,343.19Z"/></svg>