<svg xmlns="http://www.w3.org/2000/svg" xmlns:xlink="http://www.w3.org/1999/xlink" viewBox="0 0 504 504"><defs><style>.a{fill:none;}.b{fill:#00a6e9;}.c{clip-path:url(#a);}.d{clip-path:url(#c);}.e{clip-path:url(#e);}.f{clip-path:url(#f);}.g{clip-path:url(#g);}.h{clip-path:url(#i);}.i{clip-path:url(#k);}.j{clip-path:url(#l);}.k{clip-path:url(#m);}</style><clipPath id="a"><rect class="a" x="121.95" y="327.38" width="32.53" height="43.82"/></clipPath><clipPath id="c"><rect class="a" x="161.84" y="329.13" width="29.75" height="40.34"/></clipPath><clipPath id="e"><rect class="a" x="196.95" y="328.98" width="34.54" height="40.64"/></clipPath><clipPath id="f"><rect class="a" x="196.95" y="328.98" width="34.54" height="40.64"/></clipPath><clipPath id="g"><rect class="a" x="238.32" y="327.02" width="34.78" height="44.55"/></clipPath><clipPath id="i"><rect class="a" x="278.33" y="329.13" width="29.75" height="40.34"/></clipPath><clipPath id="k"><rect class="a" x="312.42" y="329.6" width="32.57" height="39.4"/></clipPath><clipPath id="l"><rect class="a" x="312.42" y="329.6" width="32.57" height="39.4"/></clipPath><clipPath id="m"><rect class="a" x="350.37" y="329.08" width="38.66" height="40.44"/></clipPath></defs><title>respect</title><path class="b" d="M355.42,234.24c-.14-.9-.28-1.8-.43-2.71,0-.06-.1-.09-.22-.09l0-.21c0-.14-.14-.19-.27-.2,0-.27,0-.53,0-.8s-.15-.27-.33-.3a.83.83,0,0,0-.5-.44,2,2,0,0,0-.77-1,.74.74,0,0,0-.92.3,1,1,0,0,0-.67-.13l-.27-.19c-.23-.16-1.57-1-1.52,0,0,.16,0,.33.05.49a1.31,1.31,0,0,0-.16.38.46.46,0,0,0-.46.47c-.39-.33-.77-.44-.89.22,0,.12,0,.24-.05.37-.54-.47-1.28-.9-1.45,0,0,.33-.1.65-.15,1-.42-.12-.8,0-.91.6a33.28,33.28,0,0,1-4.22,12.76c-.74,1.3-1.54,2.57-2.39,3.79-.64.85-1.3,1.68-2,2.49a69.74,69.74,0,0,1-11,10.18,101.18,101.18,0,0,1-18.26,10.91,133.1,133.1,0,0,1-47.33,10.58,150.05,150.05,0,0,1-32.3-2.2,168.38,168.38,0,0,1-30.42-8.72A166.73,166.73,0,0,1,180.93,264c-5.1-2.73-10.23-5.77-14.23-10a23.29,23.29,0,0,1-5.4-9.58.93.93,0,0,0-.75-.74,14.84,14.84,0,0,1-.09-1.49c-.12-1.07-1.06-.95-1.48-.18,0,.06,0,.12,0,.18-.18-.69-.48-1.25-1-1.19s-.71.61-.76,1.27c-.5-.44-1.22-.39-1.26.37l-.19-.25c-.76-.6-1.4-.2-1.3.74s.25,2,.44,3c-.18,2.16-.32,3,.75,5.34.26.57.56,1.12.88,1.66a8.22,8.22,0,0,0,1.22,2.69c.33.58.68,1.13,1,1.68l.39.65c2.8,4.51,7.53,7.78,12,10.52,1.32.82,2.68,1.58,4,2.32,3.38,1.9,6.89,3.58,10.38,5.18a171.68,171.68,0,0,0,41.41,13,150.28,150.28,0,0,0,34.93,2.34l1-.06.64,0a141.17,141.17,0,0,0,27.64-4.45,119.39,119.39,0,0,0,29.71-12.13l.48-.27c1.29-.74,2.55-1.52,3.8-2.33a67,67,0,0,0,6.68-4.52q3.12-2.41,6-5.09a92.62,92.62,0,0,1-8.09,11.25l-5.11,5.73a105.09,105.09,0,0,1-11.39,10.27c-.16.13-.1.4.07.73l-.54.47c-.71.59.15,1.08.68,1.39l.06,0-1,.9c-.72.65.83,1,1,1l.17,0a.82.82,0,0,0,.41.65,1.83,1.83,0,0,0,1.14,0,.66.66,0,0,0,1,.22l.14-.11a.22.22,0,0,0,.25,0l.19-.15c.14.14.26.23.29.2l.37-.3,0,0,1-.88q3.84-3.08,7.37-6.5a87.32,87.32,0,0,0,8.13-8.64c.41-.5.79-1,1.19-1.53a92.56,92.56,0,0,0,8-11.33q1.55-2.61,3-5.28l1.35-2.38s-.06,0-.13,0q1.36-2.71,2.54-5.49l.23-.53c.79-1.81,1.5-3.65,2.15-5.51,0,.16,0,.32,0,.47A59.7,59.7,0,0,1,351,259.67a54,54,0,0,1-2.42,9.34,70,70,0,0,1-3.43,8.27c-.41.81-.83,1.61-1.28,2.4a.41.41,0,0,0,0,.14c-.17.31-.32.63-.5.93s.3.7.91,1.05l-.26.52c-.19.41.12.64.57.74,0,.43.66.58,1.1.43.17.25.42.43.56.16l.1-.2c.11.1.22.14.28,0l.21-.41a.35.35,0,0,0,.05-.07l.36-.7c.17,0,.32-.06.36-.15a70.69,70.69,0,0,0,5.24-11.8v0a.65.65,0,0,0,.22,0,.65.65,0,0,1-.22,0,72.68,72.68,0,0,0,3.79-25.38A71.21,71.21,0,0,0,355.42,234.24Z"/><g class="c"><g class="c"><path class="b" d="M154.48,365c-.44-6.21-2.8-12.43-8.37-15.84-.21-.13-.42-.23-.63-.35a11.35,11.35,0,0,0,3-3.79,11.2,11.2,0,0,0,1.86-2.95,7.12,7.12,0,0,0-.24-6.31,6.21,6.21,0,0,0-1.38-3.28,9.81,9.81,0,0,0-5.83-3.14,10.3,10.3,0,0,0-4.08-1.52,12.58,12.58,0,0,0-3.2-.36,16.89,16.89,0,0,0-8.62,1.88.85.85,0,0,0-.89-.58,2.16,2.16,0,0,0-.42,0,.63.63,0,0,0-.24-.18,1.12,1.12,0,0,0-1,.27c-.26-.21-.47-.32-.47-.15s0,.42,0,.63a.39.39,0,0,0-.16.07c-.15-.16-.42-.43-.42-.15s0,.49,0,.74v0l0,0a.85.85,0,0,0-.56.85c-.3.11-.54.21-.54.31s0,.42,0,.64c-.22,0-.38,0-.38.07q.59,16.69,1.47,33.37s0,.06.06.09c0,.33,0,.65,0,1s.37.3.78.34c0,.16,0,.33,0,.49a1,1,0,0,0,1.21.84l0,0,.17,0a3.47,3.47,0,0,0,1.28,1.3.93.93,0,0,0,.94-.19l.11.08c.35.26,2,1.17,2-.1,0,0,0-.06,0-.09.72.3,1.78.58,1.71-.53,0-.52-.06-1-.09-1.57.86,0,1.47-.17,1.46-.5,0-.58-.06-1.16-.09-1.73a.72.72,0,0,0,.28-.6c-.15-3.38-.29-6.76-.44-10.14a.88.88,0,0,0,.63,0l.29-.11.47.06a1.27,1.27,0,0,0,1,.21l.14,0a11.91,11.91,0,0,1,5.15,1.92l.06.06a15.9,15.9,0,0,1,1.84,2.37,22,22,0,0,1,2.07,8.32c0,.27.35.46.73.56,0,.19,0,.37.06.57.05.71.48,1,1.14.88l.16,0a.86.86,0,0,0,.31.13,4.3,4.3,0,0,0,1.28,1.63.94.94,0,0,0,1.22-.19c.37.31,2.14,1.64,2.07.25,0-.21,0-.42,0-.63.62.23,1.27.28,1.21-.58,0-.57-.1-1.13-.18-1.69.83.17,1.72.22,1.67-.4s-.09-1.09-.15-1.62a.68.68,0,0,0,.44-.67m-19.36-28.26a11.91,11.91,0,0,1,1.55-.3,14.75,14.75,0,0,1,4.31.51l0,0c.05.17.11.34.15.53a6.73,6.73,0,0,1,0,1.25,10,10,0,0,1-1.67,2.6,26.15,26.15,0,0,1-6.42,3.81H133l-.53,0q-.17-4-.35-8.08a19.73,19.73,0,0,0,3-.33"/></g></g><g class="d"><g class="d"><path class="b" d="M173.49,338.38c4.08-.49,17.3-3.11,17.3-3.11s1.22-4.13.67-4.45a6.22,6.22,0,0,0-3.18-.48c0-.49-.36-1-.87-1l-.45,0a.61.61,0,0,0-.47-.21l-.65.05a.42.42,0,0,0-.22-.08l-16.53,1.41c.06,0,.17.19.32.43l-.76.06a.76.76,0,0,0-.44-.34.78.78,0,0,0-.69.13.41.41,0,0,0-.13-.13c-.22-.12-.47-.19-.5.18,0,.2,0,.41,0,.61h0c0-.14-.09-.25-.18-.28-.37-.12-.41.2-.43.5v0l0,0h0a1.56,1.56,0,0,1-.26-.78c0,.33,0,.66-.06,1a1.84,1.84,0,0,0-.42.88l-.11.14c-.39,0-.73.14-.74.29s0,.25,0,.38l-.35-.05q-1,15-2.36,30c0,.07.06.13.14.19,0,.27,0,.53-.07.8s.33.44.75.52v.05a2.34,2.34,0,0,0,0,.29c-.08.05,0,.14,0,.22a1.09,1.09,0,0,0,.6.87,1,1,0,0,0,0,.17c.11.66.48.69,1.06.65l.34,0c.35.73.9,1.61,1.53,1.6h.18a.62.62,0,0,0,.64,0,2,2,0,0,0,1.13.58c6.68-.18,19.41-1.34,19.41-1.34a3.3,3.3,0,0,0,.15-1.51l.61-.08c1.28-.16,1.8-3.73,1.11-4.06s-9.91-1-17.48-1c.38-2.53.67-5.05.86-7.58l7.24-.62c.57,0,.76-.31.79-.64l.62,0c.72-.06.56-1,.56-1l.63-.07c1.34-.11,2-4.25,1.37-4.59s-6.58-.78-10.93-1.09c0-.61,0-1.23,0-1.84q.19-2.78.38-5.57m-4.56-6.78h-.09a1.77,1.77,0,0,0-.06-.27l.15.28"/></g></g><g class="e"><g class="f"><path class="b" d="M231.43,355.58a6.6,6.6,0,0,0-.17-1,5.81,5.81,0,0,0-1-3,5.38,5.38,0,0,0-3-2.84c-.28-.12-.57-.22-.87-.32-.07-.64-1.34-.72-1.9-.71a6,6,0,0,0-.82-.45,7.63,7.63,0,0,0-.74-.25c-.22-.12-.44-.23-.66-.33a.86.86,0,0,0-.84-.55l-.77,0a49,49,0,0,0-5.45-.43c-1.07-.1-2.22-.19-3.37-.33-.74-.09-1.48-.2-2.21-.33h0l-.44-.09-.91-.21-.07-.05-.47-1.54c0-.07,0-.14.05-.21a4.37,4.37,0,0,1,1.15-1.8,23.59,23.59,0,0,1,2.56-1.14c.9-.28,1.76-.52,2.45-.7a99.83,99.83,0,0,1,10-1.69.79.79,0,0,0,.62-.37h.1a1,1,0,0,0,.9-1.25l1.11-.14c.87-.1.85-1.08.36-1.55a1.78,1.78,0,0,0-.26-.19.87.87,0,0,0,.34-.51c.19-.82-.54-1.13-1.24-1.13h-1.56c0-.46-.34-1.16-.75-1.18-.23,0-.46-.06-.7-.09a.79.79,0,0,0-.35-.1,12.94,12.94,0,0,0-3.15-.11,1,1,0,0,0-.14-.36c-.4-.53-1.6-.58-2.27-.5-.07-.42-.37-1.1-.8-1l-.5.09a.62.62,0,0,0-.44-.25l-.88.13a.4.4,0,0,0-.22,0,20,20,0,0,0-8.06,2.4,17.75,17.75,0,0,0-4.1,3.23,14.37,14.37,0,0,0-3.15,3.49,8.21,8.21,0,0,0-1.25,3.28,7.09,7.09,0,0,0-.53,3.27,4.83,4.83,0,0,0,1,3.85c.06.07.13.12.19.19a5.53,5.53,0,0,0,3.65,3.13c.17.13.35.26.54.38a8,8,0,0,0,4.18,1.14h0c.44.06.9.1,1.41.12,2.85.12,5.74.12,8.63.05a1.3,1.3,0,0,0,.39.16,6.56,6.56,0,0,0,1,.13l.11,0a17.59,17.59,0,0,0,2.35.22h0l.22.21.6,1.56c0,.15,0,.3.07.45a8.92,8.92,0,0,1-1.56,2.95,9.39,9.39,0,0,1-.89,1,11.31,11.31,0,0,1-1.29.71c-.51.12-1,.24-1.53.33s-1.2.17-1.81.22l-.53,0a1,1,0,0,0-.31,0c-.28,0-.57,0-.85,0h-.09a20.88,20.88,0,0,1-6-2.37c-.39-.22-1,0-1.64.41l-.07,0a1.46,1.46,0,0,0-1.45.16l-.06,0c-.78-.42-1.47.31-1.56,1.06a1.53,1.53,0,0,0-.9.1c-.2.18-.35.47,0,.64l.31.15a.86.86,0,0,0,.06.35c-.5.19-.94.46-.75.56l.3.15,0,.06a.69.69,0,0,0,0,.24,1.13,1.13,0,0,0,0,.14l-.16-.08c-.23-.12-.28,0-.11.15l.29.26h0a.67.67,0,0,0,.24.38.33.33,0,0,0,0,.37c-.47,0-.81.06-.47.24s.71.35,1.07.52c-.39.29-.55.69,0,1s1.14.56,1.71.81a2.47,2.47,0,0,0,.4.28,20.34,20.34,0,0,0,8,2.37,15.28,15.28,0,0,0,6.39-.33l.05,0a13.12,13.12,0,0,0,5.28-2l.19-.07a9.77,9.77,0,0,0,2.65-1.58c4-1.74,5.45-5.55,5.09-9.81"/></g></g><g class="g"><g class="g"><path class="b" d="M271.3,335.69a12.3,12.3,0,0,0-4.13-4.21,15.31,15.31,0,0,0-4.91-1.87,15.4,15.4,0,0,0-3.78-1.48,15.73,15.73,0,0,0-1.68-.31,15.24,15.24,0,0,0-1.61-.23,15.72,15.72,0,0,0-8.12,1.07,8.56,8.56,0,0,0-2.48-.32c-.18,0-.73-.09-1.34-.1-.08-.56-.28-.94-.9-1a1.27,1.27,0,0,0-.36,0,.59.59,0,0,0-.23-.17c-.25-.09-.8,0-.91.34-.27-.22-.5-.36-.49-.23s0,.41,0,.62a.37.37,0,0,0-.25.2c-.21-.2-.37-.32-.37-.28,0,.26,0,.53.06.8a.81.81,0,0,0-.49.66c-.4-.06-.74-.13-.75-.21,0,.42.07.84.11,1.26-.23,0-.41,0-.41,0,0,.31,0,.61.06.91,0,0,0,0,0,0,.34,5,.61,10,.84,15,0,.81.08,1.63.11,2.44q.51,9,.32,18a.27.27,0,0,0,.08.17c0,.31,0,.62,0,.93s.38.44.8.53c0,.06,0,.12,0,.19,0,.6.12,1,.72,1.16a1.28,1.28,0,0,0,.53,0l0,0a.82.82,0,0,0,.26,0,4,4,0,0,0,1.28,1.45.9.9,0,0,0,1.08-.19h0c.31.26,2,1.44,2,.08,0-.11,0-.21,0-.32.67.27,1.44.38,1.43-.57,0-.51,0-1,0-1.53.77.07,1.43,0,1.43-.57s0-1.2,0-1.81a.72.72,0,0,0,.22-.52c.05-2.12.06-4.23.06-6.35,4.17-.37,8.59-.73,12.24-2.61a14.27,14.27,0,0,0,5.06-3.61,12,12,0,0,0,2.78-3.43c0-.07.06-.14.1-.21s.36-.39.53-.6a10.2,10.2,0,0,0,2.3-5.74,8.5,8.5,0,0,0,.43-2.1c.13-2.17-.75-3.45-1.79-5.28m-10,9.56a11,11,0,0,1-.87.93c-3.11,2.3-7.09,3.17-11,3.5,0-.62,0-1.24-.08-1.86q-.11-4.59-.47-9.16c.72-.3,1.44-.6,2.17-.86l4.84-.74a22.3,22.3,0,0,1,4.66,1.08l.43.09a11.24,11.24,0,0,1,1.21,1.28l-.91,5.74"/></g></g><g class="h"><g class="h"><path class="b" d="M290,338.38c4.08-.49,17.3-3.11,17.3-3.11s1.22-4.13.67-4.45a6.22,6.22,0,0,0-3.18-.48c0-.49-.36-1-.87-1l-.45,0a.61.61,0,0,0-.47-.21l-.65.05a.42.42,0,0,0-.22-.08l-16.53,1.41c.06,0,.17.19.32.43l-.76.06a.76.76,0,0,0-.44-.34.78.78,0,0,0-.69.13.41.41,0,0,0-.13-.13c-.22-.12-.47-.19-.5.18,0,.2,0,.41,0,.61h0c0-.14-.09-.25-.17-.28-.37-.12-.41.2-.43.5v0l0,0h0a1.56,1.56,0,0,1-.26-.78c0,.33,0,.66-.06,1a1.84,1.84,0,0,0-.42.88l-.11.14c-.39,0-.73.14-.74.29s0,.25,0,.38l-.35-.05q-1,15-2.36,30c0,.07.06.13.14.19,0,.27,0,.53-.06.8s.33.44.75.52v.05a2.34,2.34,0,0,0,0,.29c-.08.05,0,.14,0,.22a1.09,1.09,0,0,0,.6.87,1,1,0,0,0,0,.17c.11.66.48.69,1.06.65l.34,0c.35.73.9,1.61,1.53,1.6h.18a.62.62,0,0,0,.64,0,2,2,0,0,0,1.13.58c6.68-.18,19.41-1.34,19.41-1.34a3.3,3.3,0,0,0,.15-1.51l.61-.08c1.28-.16,1.8-3.73,1.11-4.06s-9.91-1-17.48-1c.38-2.53.67-5.05.86-7.58l7.24-.62c.57,0,.76-.31.79-.64l.62,0c.72-.06.56-1,.56-1l.63-.07c1.34-.11,2-4.25,1.37-4.59s-6.58-.78-10.93-1.09c0-.61,0-1.23,0-1.84q.19-2.78.38-5.57m-4.56-6.78h-.09a1.77,1.77,0,0,0-.06-.27l.15.28"/></g></g><g class="i"><g class="j"><path class="b" d="M343.6,362.64l-.08,0c.26-.11.53-.2.78-.31,1-.44.91-1.25-.08-1.59a14.69,14.69,0,0,0-2.93-.06l-.56,0a1.11,1.11,0,0,0-.15-.24.83.83,0,0,0,0-.76c-.34-.71-1-.58-1.62-.33a.88.88,0,0,0-1-.19l-.1,0a.92.92,0,0,0-.83-.14,19.08,19.08,0,0,1-7.64,1.63h-.35c-.36,0-.7-.13-1-.2a11.43,11.43,0,0,1-2.51-2.21,6.1,6.1,0,0,1-1.69-3.15,10.86,10.86,0,0,1-1.38-5.23,19.76,19.76,0,0,1,.09-2.67,8.27,8.27,0,0,1,.58-2,11.74,11.74,0,0,1,.56-1.52c.21-.29.44-.57.68-.85a13.07,13.07,0,0,1,1.46-1.21,14.82,14.82,0,0,1,4-1.89,46.3,46.3,0,0,1,5.41-1.17,38.61,38.61,0,0,1,5.56-.11c.86,0,.8-.62.55-1.23l.67,0c1.58.07-.39-2.12-.46-2.2l-.16-.15c.59,0,1.19,0,1.77,0,1.1,0,1.22-.91.5-1.51-.25-.13-.5-.24-.75-.36.71-.07,1.32-.29,1.35-.88.07-1.29-2.78-1.17-3.39-1.2l-1.21,0a1,1,0,0,0-1-1.13H338a.75.75,0,0,0-.39-.15l-1.32,0c-6-.26-12.61.59-17.07,4.92a14.39,14.39,0,0,0-4,4.55,16.29,16.29,0,0,0-1.66,4.31,18,18,0,0,0-1,7.67,17.52,17.52,0,0,0,2,7.78,11.73,11.73,0,0,0,1.15,1.71,12.52,12.52,0,0,0,5.41,5.1,13.16,13.16,0,0,0,5,2.43c.6.14,1.22.25,1.84.33a20.71,20.71,0,0,0,11.6-.63,19.68,19.68,0,0,0,3.28-1.15c1-.44.34-1.2-.24-1.71a18.91,18.91,0,0,0,1.94-.78c1.1-.52-.54-1.42-.91-1.55"/></g></g><g class="k"><g class="k"><path class="b" d="M388.85,331.43a2.42,2.42,0,0,0-1.71-.62c-.79-.11-1.58-.17-2.37-.21a.79.79,0,0,0-.22-.24c0-.47-.12-1-.58-1h-1.14a.44.44,0,0,0-.28-.14h-.9a.55.55,0,0,0-.21-.06q-14.42-.09-28.85,0c-.24,0-.16.29,0,.62H352c-.11,0-.11.13-.05.31h-.74c.24,0,.48.23.72.48l0,0a1.13,1.13,0,0,0-.57.94,2,2,0,0,1-.65.11l.64,0a1.18,1.18,0,0,0,0,.16.7.7,0,0,0-.36.19c-.1.14-.31.34.08.34h.15s0,0,0,.05h-.54c-.26,0-.28.16,0,.26a3.38,3.38,0,0,0,.43.11.75.75,0,0,0,.06.4H351c-.31,0-.63,0-.52.42.05.18.41.24.76.26a1.17,1.17,0,0,0-.1.24c-.13.48.15,1.36.73,1.4l.94.08h0c.48,1,1.22,2.35,2,2.4,3.08.27,6.16.46,9.24.62q-.62,12.29-1.68,24.55a.41.41,0,0,0,.11.28c0,.25,0,.5-.06.74s.33.66.75.78c0,.65.13,1.53.77,1.77a.94.94,0,0,0,.63,0,1.37,1.37,0,0,0,.15.15,1,1,0,0,0,.59.17c.26.43.54.84.78,1.2a2.26,2.26,0,0,0,1.23,1.25.69.69,0,0,0,.82-.45c0-.2,0-.41,0-.61.58.37,1.24.59,1.29-.29,0-.23,0-.47,0-.7.51.16,1,.1,1-.64,0-.55.08-1.09.12-1.64.73.11,1.34.06,1.38-.47s.1-1.24.15-1.86a.71.71,0,0,0,.17-.42q1.14-11.75,1.67-23.54c3.23,0,6.46,0,9.7,0,.65,0,.85-.33.85-.75h.65c.84,0,.81-.6.58-1.2h.69c1.58,0-.37-2.11-.48-2.22l-.08-.08h1.74c1.08,0,1.28-.85.52-1.5-.27-.15-.56-.28-.84-.41.78,0,2.19-.26,1.51-1.27"/></g></g><path class="b" d="M375.49,228.31l-.67-1.41a2.65,2.65,0,0,0,0-1.27,69.5,69.5,0,0,0-3.89-9.45l-.31-.47c-.38-.77-.78-1.53-1.2-2.28a96.37,96.37,0,0,0-9.69-12.85,109.54,109.54,0,0,0-24.8-20.46,131.7,131.7,0,0,0-42.52-16.5A140.51,140.51,0,0,0,278,161.26c-23.84-2.7-48,1.22-70.67,8.88a130.67,130.67,0,0,1-14.72-2.55,40.65,40.65,0,0,1-6.49-2,30.75,30.75,0,0,1-5.36-2.66,28.88,28.88,0,0,1-2.87-2.16c-.51-.45-1-.92-1.48-1.41h0c-.14-.14-.3-.27-.44-.42s-.11,0-.19,0l-.53-.51c-.15-.14-.46,0-.73.29l-.2,0-.06-.05a1.13,1.13,0,0,0-1.43-.17.87.87,0,0,0-.27.48,1.09,1.09,0,0,0-.5.12.84.84,0,0,0-.2,1.34l.23.21c-.52.19-1,.39-1.21.49-.62.26-1.78.78-1,1.56l.39.39c-.41.44-.61.82-.42,1,1.21,1.07,2.39,2.27,3.69,3.22a36.76,36.76,0,0,0,9.89,5A64.06,64.06,0,0,0,194.1,175l.12,0c-6,2.3-11.85,4.91-17.62,7.69l-.65-.06c.16-.35.15-.64-.22-.69a52,52,0,0,1-10.63-1.83,45.22,45.22,0,0,1-12.22-5.5l-.83-.57h0c-.35-.23-.7-.46-1-.71s-.68,0-1.06.33a1,1,0,0,0-.5.06c-.63-.4-1.5-.88-2.13-.27a1.71,1.71,0,0,0-.44.77,2.11,2.11,0,0,0-.72.15c-.67.3-1.06,1.53-.32,2l.58.4q-.94.28-1.85.62c-.65.27-2.84,1.3-1.43,2.31.17.15.36.29.54.43-.64.59-1,1.3-.08,2l4.32,3a35.44,35.44,0,0,0,7.36,3.21,45,45,0,0,0,7.09,1.81q-8,4.46-15.7,9.34-4.19-1.8-8.31-3.75-8.76-3.84-17.12-8.49c-.22-.11-.75.14-1.24.54a1,1,0,0,0-.67.06l-.71-.39a1.54,1.54,0,0,0-2.43.71,2.93,2.93,0,0,0-.17.42,2,2,0,0,0-.57.16c-.72.34-1.44,2.14-.5,2.67l.56.33c-.51.18-1,.37-1.41.55a2.31,2.31,0,0,0-1.76,1.35,1.53,1.53,0,0,0,.42,1.54l.4.36a1.42,1.42,0,0,0,.38,2.17q4.52,3.85,9.19,7.5a139.27,139.27,0,0,0,14.82,6.56c.27.29.55.58.82.84-.7.65-.3,1.52.35,2,0,.34,0,.63.19.73.59.32,1.16.6,1.73.86a.32.32,0,0,0,.12.19,11.27,11.27,0,0,0,4.66,1.8,14.8,14.8,0,0,0,2.14.13,14.77,14.77,0,0,0,4.9-.17,16.69,16.69,0,0,0,2.15-.58,19.76,19.76,0,0,0,5.33-2.33c.6-.32,1.18-.66,1.74-1,1.07-.7,2-1.54,3.08-2.31,2.34-1.59,4.79-3,7.25-4.43,4.61-2.64,9.27-5.19,13.9-7.81,2.42-1.37,4.85-2.74,7.24-4.17,3.58-1.82,7.18-3.61,10.81-5.34h0q3.32-1.52,6.67-3,7.49-3.51,15.22-6.43c3.12-1.29,6.26-2.52,9.42-3.72l0,0,.31-.09c1.26-.36,2.53-.72,3.8-1.06l1.29-.35,2.07-.52c1.06-.26,2.11-.53,3.17-.77,0,0,0,0,0,0l.27-.07s.06-.1.05-.21l.5-.11q1.92-.23,3.85-.41a2.81,2.81,0,0,0-.23.36,24.13,24.13,0,0,0-3.16,5.14l-.34.73a29.4,29.4,0,0,0-1.52,2.81l-.28.59.27.12c.61.12,1.21.27,1.81.45h.16a22.59,22.59,0,0,1,9.89,3.13,15.83,15.83,0,0,1,3.62,2.68,11.84,11.84,0,0,1,1.75,1.58,8.55,8.55,0,0,1,2,2.52,4.88,4.88,0,0,1,.53,2c.07.11.13.23.2.35a65.55,65.55,0,0,1,3.91-7.77c-.18.94-.34,1.89-.46,2.84-.27,1.26-.49,2.53-.67,3.8a40.59,40.59,0,0,0-.37,6.29l.05,0c.26.23.18.39-.05.51,0,.3,0,.6,0,.91l.15.13s0,.18-.09.41l.54.59c-.17-.17-.36-.32-.54-.49.24.28.47.51.6.53l-.59-.07c0,.42.08.85.13,1.27l.08.07-.07,0a38.35,38.35,0,0,0,1.87,8.25,27.21,27.21,0,0,0,11.45,14.35,21.31,21.31,0,0,0,2.32,1.46,24.09,24.09,0,0,1-3.2-.36,28.85,28.85,0,0,1-10.6-3.9l-4.12-3.27c-.23-.28-.45-.55-.66-.84a23.23,23.23,0,0,1-1.18-2.41c0-.09-.06-.17-.08-.25a31.5,31.5,0,0,1-1.22-8.92,6.59,6.59,0,0,1-1.42.11h-.26a5.12,5.12,0,0,1-2.83.57,35.73,35.73,0,0,1-5.37-.89,30.16,30.16,0,0,0,2,12.21,23.34,23.34,0,0,0,3.55,6.2,25.73,25.73,0,0,0,6.11,5.39l.33.21a31.06,31.06,0,0,0,13.39,5.47,32.78,32.78,0,0,0,5.26.79c-.85.08-1.71.16-2.56.22-4.21-.22-8.48-.49-12.52-1.81l-4.19-1.56a31.6,31.6,0,0,1-6.81-4.2l.83.75a33.79,33.79,0,0,1-3.07-2.81c-.64-.89-1.22-1.82-1.78-2.77a16.53,16.53,0,0,1-.65-2.39,25.08,25.08,0,0,1-1-5.89l.51-8.46.31-1.41h0c-.81-.15-1.6-.31-2.29-.46a47.13,47.13,0,0,1-5-1.41,48.17,48.17,0,0,1-7.62-3.39l-.06,0a40.23,40.23,0,0,0-1,11.4,31.48,31.48,0,0,0,.38,3.13,32,32,0,0,0,.38,3.86A33.59,33.59,0,0,0,251,245.35c.46.36.93.69,1.41,1a35.69,35.69,0,0,0,12.71,6.83,35.08,35.08,0,0,0,14.09,2.39,34.44,34.44,0,0,0,6.29-.76c.42-.07.83-.15,1.25-.25a23.51,23.51,0,0,0,6.47-1.8c-.08,0-.27-.21-.49-.55,1.16-.49,2.32-1,3.52-1.62.09,0,.11-.2.09-.41a45.45,45.45,0,0,0,9.16-6.79c.85-.84,1.65-1.71,2.42-2.59.15-.16.31-.31.46-.47a76.3,76.3,0,0,0,8.84-11.6l-.32-.22c1.1-1.78,2.15-3.61,3.17-5.46a1.39,1.39,0,0,0-.31-.18q1.09-2.11,2.12-4.27s-.23,0-.49,0l.31-.65a.29.29,0,0,0-.09-.4l.14-.3c.21-.43-.05-.71-.44-.84a1.25,1.25,0,0,0-.41-.86.85.85,0,0,0-.39-.12c.41-.73.82-1.45,1.26-2.16l.36-.5a18.06,18.06,0,0,1,2.34-2.22l-.12-.11.64-.54s-.15,0-.31-.13c.27-.24.54-.47.84-.71a2.35,2.35,0,0,1-.54-.44c.26-.24.54-.47.84-.71a5.28,5.28,0,0,1-.66-.37.51.51,0,0,0-.16-.24,1.38,1.38,0,0,0-.16-1.35.72.72,0,0,0-.27-.13,1.47,1.47,0,0,0-1.13-1.07l-.28-.56c-.35-.76-.71-1.86-1.75-1.61l-1.11.27a.87.87,0,0,0-.82.05l-.29.16a1.11,1.11,0,0,0-1.29,0,20.43,20.43,0,0,0-5,6.33,31.82,31.82,0,0,1-6.16,8,26.46,26.46,0,0,1-3.69,2.81c-.44.19-.88.37-1.34.53a14.94,14.94,0,0,1-4.55,1.11l-5.73-.46a22,22,0,0,1-5.74-2.48,17.6,17.6,0,0,1-4.18-3.44l-.4-.78a15,15,0,0,0,1.38,1,10.81,10.81,0,0,0,4.79,2.75c.34.08.69.13,1,.18a14.31,14.31,0,0,0,8.65.21,15,15,0,0,0,2-.4,19.82,19.82,0,0,0,6.17-3,25.43,25.43,0,0,0,4-3.21,24.72,24.72,0,0,0,1.74-1.94,26.1,26.1,0,0,0,3.3-4.8c.8-1.32,1.53-2.7,2.23-4.15,0,0-.1-.11-.26-.21.63-1.43,1.19-2.92,1.69-4.47a2.47,2.47,0,0,0-.53-.22c.29-1.1.53-2.23.75-3.38,0,0-.13,0-.31.06,0-.23.09-.45.13-.68a.37.37,0,0,0-.05-.28l.07-.39a.59.59,0,0,0-.45-.7,1.13,1.13,0,0,0-.67-.83l-.18,0a3,3,0,0,0-.93-1.28,1,1,0,0,0-1.38.5.78.78,0,0,0-.55,0c-.34-.3-.69-.59-1-.87-.6-.44-2-1.45-2.27-.07q-.13.69-.26,1.36c-.35,0-.59.1-.63.31-.28,1.5-.58,3-1,4.42a.62.62,0,0,0-.76,0l-.61.45a.91.91,0,0,0-1,0l-.07,0c-.76-.65-1.66-1.19-2-.58l-1,1.57a5.57,5.57,0,0,1-3.06,2,11.79,11.79,0,0,1-1.85.63c-.17,0-.33-.07-.51-.13l-3.9-2.08-1.4-2.86a7.47,7.47,0,0,1-.13-1,7.91,7.91,0,0,1-.19-3,14.39,14.39,0,0,1,.66-3.83,15,15,0,0,1,1.09-2.25s0,0-.07-.09c.13-.14.25-.29.39-.42s-.05-.16-.19-.3l.15-.33-.31-.11c.14-.17.27-.35.43-.52a.78.78,0,0,0,.13-.45,16.21,16.21,0,0,1,1-1.3,2.46,2.46,0,0,1-.63.2l.22-.3a.25.25,0,0,0,0-.18l.26-.3c.12-.17,0-.25-.25-.28l.13-.18c.33-.45.09-.69-.31-.78a1.33,1.33,0,0,0-.52-.8.73.73,0,0,0-.35-.06,4.87,4.87,0,0,0-.51-.76l-.12-.13.73.17,15.55,4.73c2.29.85,4.55,1.78,6.78,2.76a95.45,95.45,0,0,1,9.86,5.11,110.55,110.55,0,0,1,25.16,19.32q1,1,2,2.06c1.66,1.84,3.25,3.75,4.73,5.76q4.8,7,9.57,14a1.63,1.63,0,0,0,.55.46l.54.81c.27.4.57,0,.77-.58l.1,0a.73.73,0,0,0,.14-.1l.29.49c.22.37.49.27.74,0l.45.77a1.44,1.44,0,0,1,0-1,1.35,1.35,0,0,0,.63-.18,1.47,1.47,0,0,0,.62-.18,1.69,1.69,0,0,0,.33-.22l.22-.13a1.19,1.19,0,0,0,.35-.13s.05-.06.08-.09c.28-.06.46-.17.42-.33l.11,0c.12,0,.73.07.65-.24a1.57,1.57,0,0,1,.39.48l-.61-1.24,0-.07a1.19,1.19,0,0,0,.63.25C375.44,228.84,375.69,228.73,375.49,228.31ZM264.7,176.9a2.15,2.15,0,0,0-.36-.11c0-.8-.75-1.71-1.42-1.74h-.19c-.26-.7-.67-1.61-1.18-1.82l-1-.41c1.66,0,3.33,0,5,0l1.85.06Q266,174.87,264.7,176.9Zm15-3.08a1.24,1.24,0,0,0-.6.37l-.09.1a5.56,5.56,0,0,0-1.12-.67Zm16.61,32.88a11.07,11.07,0,0,0,3,.61,17.14,17.14,0,0,1-5.75,2.84c-.31.08-.6.13-.89.19h-.27a10.42,10.42,0,0,1-3.83-1c-.19.36-.38.7-.57,1a8.62,8.62,0,0,1-.58.84l0,0a4.7,4.7,0,0,1-1.62,1.75,2.64,2.64,0,0,1-2.19,1,2.45,2.45,0,0,1-.58-.13,3,3,0,0,1-3.57,0,4.06,4.06,0,0,1-3.72-1.11,4.71,4.71,0,0,1-.34-.44,4,4,0,0,1-1-.47,4.42,4.42,0,0,1-1.72-4.27,5.28,5.28,0,0,1,.4-1.22,5.42,5.42,0,0,1-.36-.71.61.61,0,0,1-.16-.35v-.1a4,4,0,0,1-.11-2.11v0a7.82,7.82,0,0,1,.32-2.21,2,2,0,0,1,.75-1.68l.86-.66c.05-.17.09-.33.15-.5a2.62,2.62,0,0,1,1.29-1.68,1.42,1.42,0,0,1,.59-1.23,3.65,3.65,0,0,1,1.79-.73,4.24,4.24,0,0,1,1.61.1,28,28,0,0,1-.65-3.37,8.35,8.35,0,0,1-.2-1.81s.08,0,.1,0c.26-.27.14-.42-.07-.53,0-.12,0-.25,0-.37l.39.37a.46.46,0,0,0,0-.5h0l-.08-.08a2.11,2.11,0,0,0-.17-.3h0l.18-.17.05-.07,0,0c.14,0,.26.06.31,0q.36-.21,0-.57a1,1,0,0,0-.37-.3c.45-1.62.95-3.23,1.5-4.86,0-.06-.06-.14-.18-.23.56-1.44,1.15-2.87,1.77-4.3-.05.12-.27.18-.53.22l.35-.81c0-.1-.05-.15-.22-.17.08-.16.15-.31.23-.47s-.15-.32-.5-.34c.15-.54-.21-.81-.67-.85a2.22,2.22,0,0,0-.63-.9q3.69.47,7.34,1.17a18.85,18.85,0,0,0-3.15,5.27,13.19,13.19,0,0,0-1.71,5c0,.34-.08.72-.1,1.12a14.83,14.83,0,0,0,.06,8.56c0,.13.09.25.14.38a3.88,3.88,0,0,1,3.43,1.28c.18.21.34.44.5.67l.19.09a3.66,3.66,0,0,1,1.27,1.21,3.16,3.16,0,0,1,1.2,2.58,2.27,2.27,0,0,1,.52.65,3.69,3.69,0,0,1,.3,2.35c.15.11.29.23.44.34A13,13,0,0,0,296.27,206.7Zm-4.58-30.32-.08.07a1,1,0,0,0-.48.06c-.24-.21-.67-.62-1.16-1,.75.16,1.5.34,2.25.51A2.08,2.08,0,0,0,291.69,176.39Z"/></svg>